<svg width="64" height="61" viewBox="0 0 64 61" fill="none" xmlns="http://www.w3.org/2000/svg">
<path d="M59.638 45.1002C60.7301 44.1637 64.4258 40.8293 61.8221 37.5281C59.2212 34.227 57.7624 33.6657 60.3661 30.07C62.967 26.4743 59.7937 21.895 59.0656 20.9058C58.735 20.4556 57.6401 18.605 56.4675 16.507C57.4095 12.2806 58.1209 6.1646 55.7089 2.17157C52.644 2.03541 49.0094 3.60817 46.089 5.25318C45.4665 4.57517 41.1484 1.21846 37.8167 0.998945C34.3544 0.771089 31.3506 2.67174 31.3506 2.67174C31.3506 2.67174 30.1335 0.885017 25.418 1.2657C22.0974 1.53246 18.4767 3.53592 16.6233 4.69743C13.9057 3.27472 10.7407 2.05486 8.02591 2.17435C5.88629 5.71445 6.20306 10.9301 6.96166 15.0121C6.67267 15.7457 6.25864 16.6738 5.90574 16.9377C5.2972 17.3935 1.75987 21.3893 2.06276 24.3931C2.36842 27.3969 2.74632 29.4531 3.73555 31.6205C4.72478 33.788 4.15514 36.6695 2.55737 37.5309C0.9596 38.3923 0.237131 43.0328 2.04331 44.5166C3.50492 45.717 4.73034 47.765 5.00265 49.3516C5.00821 49.385 5.01099 49.4155 5.01655 49.4461C5.02766 49.5239 5.03878 49.5989 5.04433 49.6712C5.04711 49.7129 5.04989 49.7518 5.05267 49.7907C5.05545 49.8601 5.05823 49.9268 5.05823 49.9907C5.05823 50.0241 5.05823 50.0574 5.05823 50.0908C5.05267 50.1852 5.04711 50.2769 5.03044 50.3631V50.3686C4.96375 50.7743 4.91929 51.2662 4.97209 51.7914C5.04989 52.5944 5.34722 53.4753 6.11137 54.2339C6.81994 54.9397 7.92588 55.5426 9.6348 55.8844C9.6348 55.8844 9.62924 55.8789 9.62368 55.8761C9.50697 55.8011 8.13706 54.8396 8.54553 51.8747C9.15963 52.6611 10.0711 53.4558 11.391 54.2116C12.2385 54.8063 13.261 55.3315 14.4309 55.5927C14.6504 55.6732 14.8727 55.751 15.1061 55.8316C15.1172 55.8344 15.1283 55.8372 15.1395 55.8372C15.1728 55.8372 15.2062 55.8205 15.2256 55.7927C15.2395 55.7733 15.2451 55.751 15.2423 55.7288C15.2506 55.7288 15.2589 55.7288 15.2673 55.7316C15.2673 55.7316 15.22 55.6705 15.1478 55.5593C14.9116 55.1842 14.1919 53.8032 14.3614 51.1911C14.392 51.2384 14.4253 51.2884 14.4587 51.3384C14.4615 51.344 14.467 51.3495 14.4698 51.3551C14.5115 51.4162 14.5559 51.4801 14.6032 51.5468C14.6115 51.5579 14.6198 51.5691 14.6254 51.5802C14.6754 51.6496 14.7254 51.7191 14.781 51.7941C14.781 51.7969 14.7866 51.7997 14.7866 51.8025C14.8394 51.8719 14.8949 51.9442 14.9533 52.0164C14.9644 52.0331 14.9783 52.047 14.9894 52.0637C15.0478 52.1359 15.1089 52.2109 15.1728 52.2832C15.1867 52.2999 15.2034 52.3193 15.2173 52.336C15.284 52.4138 15.3534 52.4916 15.4257 52.5694C15.4312 52.575 15.4368 52.5805 15.4423 52.5888C15.5118 52.6639 15.5813 52.7361 15.6563 52.8084C15.673 52.825 15.6924 52.8445 15.7091 52.8612C15.7841 52.9362 15.8647 53.0112 15.9453 53.0835C15.9647 53.1001 15.9842 53.1168 16.0036 53.1335C16.087 53.2085 16.1731 53.2835 16.2648 53.3558C16.2704 53.3613 16.2787 53.3669 16.2843 53.3697C16.3704 53.4391 16.4621 53.5086 16.5538 53.5753C16.5733 53.5892 16.5955 53.6059 16.615 53.6198C16.7094 53.6864 16.8039 53.7504 16.904 53.8143C16.9262 53.8282 16.9456 53.8393 16.9679 53.8532C17.0707 53.9171 17.1763 53.9782 17.2846 54.0366C17.2846 54.0366 17.2902 54.0366 17.293 54.0393C17.3986 54.0949 17.5097 54.1477 17.6209 54.195C17.6431 54.2033 17.6653 54.2144 17.6876 54.2227C17.7987 54.27 17.9099 54.3117 18.0238 54.3478C18.046 54.3561 18.0682 54.3617 18.0905 54.3672C18.21 54.4034 18.3322 54.4395 18.4573 54.4645C18.4573 54.4645 18.4378 54.3783 18.4072 54.2255C18.3572 53.9727 18.2794 53.5392 18.2211 53.0251C18.1266 52.2026 18.0766 51.1717 18.26 50.3381C18.26 50.3381 18.6629 50.5993 19.1797 50.8772C20.4746 51.8108 21.8779 52.6055 23.3701 53.2307C23.5812 53.4641 23.7813 53.717 23.9564 53.9865C23.9981 54.0505 24.0397 54.1171 24.0786 54.1838C24.1564 54.3172 24.2287 54.4534 24.2926 54.5923C24.3899 54.8035 24.4677 55.0202 24.526 55.2453C24.6038 55.5454 24.6455 55.8566 24.6399 56.1817C24.6399 56.1817 25.2513 56.0678 25.907 55.7427C25.9904 55.701 26.071 55.6593 26.1543 55.6121C26.624 55.3453 27.0769 54.9647 27.3159 54.4423C27.4381 54.4673 27.5632 54.4867 27.6882 54.5089C27.8744 54.8507 28.1495 55.3537 28.4718 55.9067C28.5968 56.1206 28.7274 56.3429 28.8608 56.5624C29.5333 57.6684 30.2919 58.7771 30.767 59.0383C30.767 59.0383 31.5367 58.4436 32.3731 57.6406C32.5954 57.4266 32.8233 57.1988 33.0428 56.9626C33.7542 56.1956 34.3766 55.3537 34.4516 54.6868C34.4516 54.6868 34.4516 54.6868 34.4544 54.6868C34.46 54.6868 34.4739 54.6868 34.4878 54.7035C34.4933 54.709 34.4961 54.7146 34.5017 54.7257C34.5517 54.8229 34.585 55.1619 34.2682 56.3262C34.2682 56.3262 35.3158 56.1512 36.4829 55.7455C36.7024 55.6705 36.9247 55.5843 37.1442 55.4926C38.1001 55.0925 39.0199 54.5312 39.4061 53.7837C39.4561 53.6837 39.5173 53.5864 39.5812 53.4892C39.5867 53.478 39.5923 53.4697 39.6006 53.4586C39.6618 53.3669 39.7312 53.2752 39.8035 53.1835C39.8118 53.1724 39.8201 53.164 39.8285 53.1529C41.0345 52.6361 42.1821 52.0081 43.2602 51.2856C43.2574 51.3051 43.2547 51.3245 43.2519 51.3468C43.2519 51.3579 43.2519 51.369 43.2491 51.3773C43.2408 51.4357 43.2352 51.4968 43.2296 51.5635C43.2296 51.5857 43.2269 51.608 43.2241 51.6302C43.2185 51.6913 43.2158 51.7525 43.2102 51.8191C43.2102 51.8442 43.2074 51.8664 43.2074 51.8914C43.2019 51.9831 43.1991 52.0776 43.1991 52.1776C43.1907 52.8417 42.9184 53.3586 42.5822 53.7476C42.4711 53.8782 42.3516 53.9921 42.2321 54.0949C41.7569 54.5006 41.2845 54.6868 41.2845 54.6868C41.2845 54.6868 41.7013 54.7563 42.3543 54.7507C43.8271 54.7396 46.4974 54.3506 48.2314 51.9525C48.5704 51.7552 48.8621 51.5107 49.115 51.2328C49.1678 51.3162 49.2234 51.4218 49.2734 51.5468C49.2067 53.3697 48.7565 55.3203 48.751 55.3481C48.7426 55.3843 48.751 55.4204 48.7788 55.4454C48.7982 55.4648 48.826 55.4759 48.851 55.4759C48.8593 55.4759 48.8677 55.4759 48.876 55.4732C50.0987 55.1592 52.2911 52.7472 52.3772 52.6528C52.9635 52.1415 53.5915 50.7799 53.8444 49.4961C53.9194 49.5378 54.0556 49.6239 54.2223 49.7601C54.3557 49.8713 54.5085 50.013 54.6613 50.1908C54.6641 50.1936 54.6669 50.1991 54.6697 50.2019C54.7197 50.2603 54.7669 50.3214 54.8169 50.3853C54.8225 50.3909 54.8253 50.3992 54.8308 50.4048C54.8725 50.4603 54.9142 50.5215 54.9531 50.5854C54.9614 50.5993 54.9698 50.6132 54.9809 50.6271C55.017 50.6882 55.0531 50.7521 55.0893 50.816L54.9726 54.6923C54.9225 54.759 54.892 54.7979 54.8892 54.8007C54.8531 54.8452 54.8614 54.9119 54.9059 54.948C54.9253 54.9619 54.9475 54.9702 54.9698 54.9702C55.0003 54.9702 55.0309 54.9563 55.0504 54.9313C55.0643 54.9119 55.1226 54.8396 55.2087 54.7229C55.181 54.8063 55.1587 54.8896 55.1282 54.9758C55.1282 54.9786 55.1282 54.9813 55.1282 54.9841C55.1282 54.9841 55.1309 54.9841 55.1337 54.9841C55.281 54.948 58.7377 54.0449 59.6547 51.4468C60.5911 48.7931 58.5627 46.0366 59.6547 45.0974L59.638 45.1002Z" fill="white"/>
<path d="M30.7533 60.019C30.595 60.019 30.4338 59.9801 30.2893 59.8995C29.878 59.6744 29.2862 59.1659 28.0191 57.0763C27.8801 56.8485 27.7468 56.6234 27.6189 56.4039C27.5328 56.2538 27.4439 56.1038 27.3577 55.9482C27.1438 56.1371 26.8992 56.3094 26.6242 56.465C26.5241 56.5233 26.4241 56.5761 26.324 56.6234C25.571 56.993 24.8847 57.1291 24.8069 57.143C24.5207 57.1958 24.2233 57.118 23.9982 56.9318C23.7732 56.7456 23.6481 56.465 23.6537 56.1704C23.6565 55.9481 23.6287 55.7231 23.5703 55.498C23.5286 55.334 23.4675 55.1673 23.3925 55.0034C23.3425 54.895 23.2869 54.7866 23.2258 54.681C23.1924 54.6255 23.1619 54.5727 23.1285 54.5227C23.0257 54.3643 22.9062 54.2059 22.7756 54.0475C21.5002 53.4973 20.2692 52.8193 19.1049 52.0274C19.116 52.308 19.141 52.6053 19.1772 52.9193C19.2327 53.3889 19.3022 53.7891 19.3522 54.0419C19.3772 54.1698 19.3939 54.2448 19.3967 54.2503C19.4717 54.5727 19.3744 54.9117 19.141 55.1507C18.9076 55.3896 18.5714 55.4869 18.2463 55.4202C18.1073 55.3896 17.9628 55.3535 17.7961 55.3007L17.7128 55.2729C17.5766 55.2285 17.4377 55.1784 17.3043 55.1201L17.2459 55.0951C17.0959 55.0284 16.9681 54.97 16.8402 54.9033C16.8291 54.8978 16.8152 54.8895 16.8041 54.8839C16.6957 54.8283 16.5735 54.7561 16.4512 54.681L16.3818 54.6394C16.2623 54.5643 16.1511 54.4893 16.0427 54.4115L15.9788 54.3643C15.8677 54.2837 15.7649 54.2059 15.6648 54.1253C15.6648 54.1253 15.6398 54.1059 15.6371 54.1031C15.6093 54.0808 15.5815 54.0586 15.5537 54.0336C15.7065 54.5893 15.8844 54.9145 15.9538 55.0284C16.0011 55.1006 16.0344 55.1423 16.04 55.1507C16.2678 55.4591 16.2928 55.8759 16.1011 56.2093C16.0844 56.2399 16.065 56.2677 16.0455 56.2955C16.0344 56.3122 16.0233 56.3288 16.0122 56.3455C15.7343 56.7373 15.2147 56.9013 14.7729 56.7484C14.5645 56.679 14.3533 56.6039 14.1449 56.5289C13.0139 56.2677 11.9108 55.7648 10.8604 55.0339C10.4186 54.7783 10.0073 54.5115 9.62666 54.2337C9.82673 54.8144 10.1157 55.0367 10.1491 55.0617C10.5325 55.3146 10.6937 55.8037 10.5242 56.2316C10.3519 56.6706 9.89619 56.9263 9.43493 56.8346C7.69266 56.4872 6.33942 55.8426 5.4141 54.92C4.58604 54.0947 4.1081 53.0722 3.99417 51.8801C3.94415 51.3521 3.96638 50.7964 4.05808 50.2212C4.05808 50.2129 4.05808 50.2073 4.06086 50.199C4.0692 50.1462 4.07198 50.0934 4.07475 50.0378V50.0017C4.07475 49.9294 4.07475 49.885 4.07475 49.8377C4.07475 49.8099 4.07198 49.7821 4.0692 49.7516C4.06364 49.6932 4.0553 49.6349 4.04697 49.5793L4.03863 49.5182C3.79688 48.1149 2.6715 46.2893 1.41829 45.2584C0.351257 44.3803 -0.151694 42.7381 0.0400387 40.7541C0.187311 39.2313 0.80419 37.3584 2.08796 36.6665C3.12721 36.1052 3.68018 33.8517 2.84378 32.0177C1.77674 29.6753 1.3905 27.4828 1.08762 24.4846C0.7375 21.0167 4.46378 16.8097 5.2974 16.1651C5.33352 16.1262 5.55304 15.865 5.94762 14.9035C4.67496 7.77331 5.91427 3.77194 7.18693 1.66288C7.35643 1.38501 7.65098 1.20995 7.97609 1.19327C10.3463 1.08768 13.2362 1.88796 16.5735 3.57187C18.6103 2.34367 22.0781 0.548608 25.332 0.287408C28.7971 0.00675582 30.62 0.834817 31.4841 1.47393C32.6234 0.887613 35.0937 -0.159968 37.8724 0.0206495C41.0207 0.229054 44.7304 2.81049 46.2198 4.05814C49.9488 2.04079 53.1499 1.07935 55.7452 1.19327C56.0704 1.20717 56.3677 1.38223 56.5344 1.66288C59.0214 5.78096 58.4545 11.8497 57.4903 16.3485C58.6518 18.4158 59.5854 19.9775 59.8411 20.3248C60.8776 21.7309 64.0397 26.6381 61.1471 30.6367C59.377 33.082 59.6577 33.4154 61.4833 35.5856C61.8112 35.9774 62.1836 36.4192 62.5809 36.925C64.6483 39.5481 63.8091 42.7881 60.2829 45.8225C60.2134 46.0448 60.3802 46.7867 60.4913 47.2813C60.7608 48.4817 61.1276 50.1295 60.5497 51.7717C59.4882 54.7783 55.8314 55.8037 55.3618 55.9231C55.3479 55.9259 55.3368 55.9287 55.3229 55.9315C55.1978 55.9593 55.0728 55.962 54.9533 55.9454C54.7088 55.9537 54.4726 55.8648 54.2808 55.7147C54.0558 55.5369 53.9113 55.2813 53.8779 54.995C53.8529 54.7839 53.889 54.5727 53.9835 54.3865L54.0585 51.8412C53.7751 52.4414 53.4278 52.986 53.036 53.3473C52.6581 53.7641 50.5462 56.0454 49.0874 56.4205C49.0096 56.44 48.9012 56.4539 48.8206 56.4539C48.5344 56.4539 48.2677 56.3427 48.0648 56.1427C47.7981 55.8815 47.6869 55.4924 47.7731 55.1284C47.7842 55.0867 47.9287 54.4476 48.062 53.5862C46.1447 55.398 43.7245 55.7147 42.3323 55.7259C41.6182 55.7342 41.1513 55.6592 41.0986 55.6508C40.6651 55.5814 40.3344 55.2285 40.2872 54.795C40.2399 54.3615 40.4928 53.9475 40.8985 53.7863C40.8985 53.7863 41.1541 53.6807 41.4403 53.4667C41.1069 53.6362 40.7679 53.7974 40.4261 53.9475C40.4122 53.9669 40.4011 53.9864 40.3872 54.0058L40.3705 54.0336C40.3316 54.0947 40.2899 54.1614 40.2538 54.2309C39.8148 55.0867 38.8895 55.8148 37.5029 56.3955C37.275 56.49 37.0333 56.5817 36.7832 56.6706C35.555 57.0985 34.4574 57.2847 34.4102 57.2903C34.2879 57.3097 34.1656 57.3069 34.0489 57.2819C33.9517 57.3959 33.8461 57.5098 33.7377 57.6293C33.521 57.8627 33.282 58.1044 33.0291 58.3462C32.1649 59.1743 31.3786 59.7856 31.3452 59.8106C31.1702 59.9467 30.9617 60.0134 30.7506 60.0134L30.7533 60.019ZM27.2994 53.4806C27.3633 53.4806 27.4272 53.4862 27.4911 53.5001C27.555 53.514 27.6217 53.5251 27.6884 53.5362L27.8496 53.564C28.1386 53.6168 28.3886 53.7974 28.5304 54.0586C28.7888 54.5366 29.0472 54.9978 29.3001 55.4313C29.4223 55.6397 29.5502 55.8564 29.6808 56.0704C30.1976 56.9207 30.5616 57.4375 30.8061 57.7488C31.0618 57.5292 31.3702 57.2542 31.687 56.9513C31.9149 56.7345 32.126 56.5178 32.3178 56.3122C33.3598 55.1923 33.4626 54.681 33.4737 54.5921C33.5182 54.1892 33.8099 53.8558 34.2045 53.7585C34.5602 53.6696 34.952 53.7919 35.1993 54.0697C35.2493 54.1253 35.3077 54.2087 35.3438 54.2754C35.4466 54.4726 35.505 54.6949 35.4911 55.0534C35.6995 54.9923 35.9218 54.9228 36.1496 54.845C36.3608 54.77 36.5664 54.6949 36.7554 54.6144C37.9947 54.0947 38.3976 53.6085 38.5255 53.3611C38.5282 53.3528 38.5338 53.3445 38.5366 53.3361C38.6005 53.2139 38.6699 53.0972 38.7505 52.9721L38.7755 52.936C38.8533 52.8193 38.9367 52.7081 39.0228 52.597L39.0562 52.5553C39.1562 52.4331 39.2813 52.3386 39.4258 52.2774C40.5678 51.7856 41.671 51.1882 42.6991 50.4963C43.0187 50.2823 43.4355 50.274 43.7606 50.4824C44.0857 50.688 44.2607 51.0659 44.2024 51.4466C44.2024 51.4522 44.1968 51.4799 44.1941 51.4994C44.1941 51.5077 44.1941 51.5161 44.1941 51.5216C44.1885 51.5689 44.1829 51.6189 44.1774 51.6717L44.1718 51.7189C44.1663 51.7856 44.1635 51.8384 44.1607 51.894V51.9634C44.1524 52.0357 44.1496 52.1218 44.1496 52.2135C44.1413 52.7137 44.0246 53.1972 43.8023 53.6446C44.9971 53.4028 46.4059 52.8054 47.4202 51.4021C47.498 51.2938 47.6008 51.2021 47.7147 51.1326C47.9565 50.9909 48.1788 50.8103 48.3733 50.5963C48.5761 50.3712 48.8734 50.2573 49.1763 50.2823C49.4792 50.3073 49.7515 50.474 49.9127 50.7297C50.0016 50.8714 50.0822 51.0298 50.1517 51.2021C50.2017 51.3271 50.2267 51.4633 50.2211 51.5994C50.1961 52.2747 50.1211 52.9693 50.035 53.5807C50.6101 53.0833 51.2104 52.4886 51.6272 52.0218C51.6549 51.9912 51.6827 51.9634 51.7105 51.9384C52.0329 51.655 52.6164 50.5908 52.8665 49.3237C52.9276 49.018 53.1332 48.7568 53.4167 48.629C53.7029 48.4984 54.0308 48.5123 54.3031 48.6679C54.417 48.7346 54.6004 48.8485 54.8116 49.0208C54.8227 49.0291 54.831 49.0374 54.8394 49.0458C55.0255 49.2014 55.2034 49.3737 55.3673 49.5626C55.3757 49.571 55.3812 49.5793 55.3868 49.5821C55.4507 49.6599 55.5146 49.7377 55.5757 49.8183C55.5813 49.8266 55.5952 49.8433 55.6007 49.8516C55.648 49.9155 55.7008 49.9906 55.7508 50.0711L55.7869 50.1267C55.8314 50.199 55.8786 50.2795 55.9231 50.3629C56.0037 50.513 56.0453 50.6825 56.0398 50.8547L55.9564 53.6557C56.9234 53.2278 58.2628 52.4275 58.7213 51.1271C59.1158 50.01 58.8407 48.7874 58.599 47.7092C58.3211 46.4727 58.0349 45.1945 59.0047 44.3636C62.4392 41.4182 62.0196 39.348 61.0582 38.1309C60.6803 37.6502 60.3162 37.2195 59.9995 36.8388C57.9182 34.363 57.0318 33.0181 59.5771 29.5002C61.6973 26.5686 59.1214 22.6228 58.2822 21.4836C57.8571 20.9056 56.6039 18.7465 55.6202 16.982C55.5035 16.7736 55.4674 16.5291 55.5202 16.2957C56.4149 12.2832 57.0457 6.82298 55.1367 3.14116C52.8637 3.19952 49.9182 4.21375 46.5643 6.10329C46.1697 6.32559 45.6751 6.24778 45.3695 5.91434C44.8915 5.39193 40.7818 2.17139 37.7474 1.97132C34.638 1.76847 31.8926 3.48017 31.8648 3.49684C31.6398 3.63856 31.3897 3.71358 31.1312 3.64967C30.8812 3.58854 30.6839 3.45794 30.5505 3.23842C30.4255 3.10226 29.2334 1.93519 25.4904 2.23808C22.381 2.48816 18.9187 4.40549 17.1348 5.52254C16.8402 5.70593 16.4734 5.71982 16.1678 5.56144C13.2362 4.0248 10.6326 3.19674 8.59575 3.14394C6.87016 6.48398 7.25918 11.3051 7.91496 14.8368C7.9483 15.0147 7.93163 15.2009 7.86494 15.3704C7.2175 17.0237 6.7868 17.4933 6.48669 17.7184C5.84203 18.2158 2.78542 21.892 3.02995 24.2984C3.31338 27.0938 3.6635 29.1223 4.62216 31.2202C5.83091 33.8711 5.06676 37.2862 3.01884 38.3894C2.62148 38.6033 2.11297 39.6453 1.98515 40.9541C1.86289 42.224 2.12687 43.3272 2.66038 43.7662C4.28316 45.1 5.64196 47.3285 5.96151 49.1875C5.96707 49.2181 5.97263 49.2514 5.97541 49.2848C5.99208 49.3987 6.00319 49.4959 6.01153 49.5876C6.01709 49.6376 6.01987 49.6877 6.02264 49.7405C6.0282 49.8294 6.0282 49.9155 6.0282 50.0017C6.0282 50.06 6.0282 50.1017 6.0282 50.1406C6.02264 50.2768 6.01153 50.3935 5.99208 50.5074C5.99208 50.5157 5.99208 50.5241 5.9893 50.5324C5.91983 50.9437 5.90316 51.3382 5.93928 51.7022C6.01153 52.4414 6.2894 53.0472 6.79513 53.5501C7.02021 53.7752 7.28975 53.978 7.60096 54.1559C7.4787 53.5084 7.44535 52.7137 7.57873 51.7467C7.63153 51.3605 7.91218 51.0409 8.29009 50.9409C8.668 50.8381 9.06813 50.9742 9.30988 51.2799C9.8962 52.0301 10.7576 52.7332 11.8719 53.3723C11.8969 53.3862 11.9219 53.4028 11.9469 53.4195C12.4943 53.803 13.0556 54.1086 13.6225 54.3337C13.428 53.5334 13.2974 52.472 13.3863 51.1298C13.4141 50.7102 13.7058 50.3573 14.1115 50.2518C14.5172 50.1462 14.9451 50.3129 15.173 50.663L15.2619 50.7964C15.3092 50.8686 15.3508 50.927 15.3925 50.9853L15.0674 51.2354H15.1008L15.4148 51.0131C15.4592 51.0743 15.5065 51.1409 15.5565 51.2076C15.6093 51.2771 15.6593 51.341 15.7121 51.4049L15.7454 51.4494C15.7982 51.5161 15.8538 51.5828 15.9121 51.6495L15.9538 51.6995C16.0122 51.7662 16.0733 51.8356 16.1372 51.9051C16.14 51.9079 16.1428 51.9107 16.1456 51.9162C16.2206 51.9968 16.2817 52.0579 16.3428 52.1191L16.3901 52.1663C16.4568 52.233 16.5262 52.2969 16.5985 52.3636L16.6318 52.3914C16.6318 52.3914 16.6513 52.4108 16.6541 52.4108C16.7235 52.4747 16.7986 52.5386 16.8764 52.6026C16.8764 52.6026 16.8986 52.622 16.9014 52.622C16.9681 52.6776 17.0459 52.7359 17.1237 52.7915L17.1709 52.8249C17.1876 52.836 17.2043 52.8471 17.2181 52.8582C17.1126 51.7801 17.1431 50.8659 17.3043 50.1323C17.3821 49.7849 17.6405 49.5071 17.9823 49.407C18.2574 49.3264 18.5547 49.3737 18.7909 49.5293C18.8298 49.5543 19.1855 49.7821 19.6356 50.0239C19.6745 50.0433 19.7107 50.0684 19.744 50.0934C20.9944 50.9965 22.3393 51.7523 23.7398 52.3386C23.8704 52.3942 23.9871 52.4747 24.0844 52.5803C24.3428 52.8638 24.5734 53.1611 24.768 53.4612C24.818 53.539 24.868 53.6168 24.9125 53.6974C25.0069 53.8558 25.0931 54.0225 25.1681 54.192C25.2737 54.4226 25.3598 54.6588 25.4293 54.895C25.4432 54.8895 25.4571 54.8811 25.471 54.8756C25.5349 54.845 25.6016 54.8089 25.6655 54.7727C25.9267 54.6227 26.2712 54.3754 26.4269 54.0392C26.5825 53.7029 26.9354 53.4751 27.3105 53.4751L27.2994 53.4806ZM49.6765 55.5647C49.6765 55.5647 49.6765 55.573 49.6765 55.5758C49.6765 55.573 49.6765 55.5675 49.6765 55.5647ZM15.387 54.9061C15.387 54.9061 15.3981 54.9089 15.4036 54.9117C15.3981 54.9117 15.3925 54.9089 15.387 54.9061ZM5.31685 16.1567C5.31685 16.1567 5.31407 16.1567 5.31129 16.1595C5.31129 16.1595 5.31407 16.1595 5.31685 16.1567Z" fill="white"/>
<path d="M14.0945 50.7715C14.0945 50.7715 15.7895 53.9059 18.4432 54.4727C18.4432 54.4727 17.8791 52.0163 18.2459 50.3491C18.2459 50.3491 19.8548 51.3939 20.7885 51.5356C21.7221 51.6773 24.6676 53.6113 24.6231 56.1928C24.6231 56.1928 27.0656 55.7315 27.4352 54.0726C27.4352 54.0726 29.7388 58.4963 30.753 59.0493C30.753 59.0493 34.2542 56.34 34.4404 54.7006C34.4404 54.7006 34.7155 54.645 34.257 56.34C34.257 56.34 38.4473 55.6398 39.3921 53.7975C40.3368 51.9552 43.6741 50.3491 43.6741 50.3491C43.6741 50.3491 43.2017 50.4213 43.1767 52.1914C43.1517 53.9587 41.2621 54.7006 41.2621 54.7006C41.2621 54.7006 46.539 55.562 48.8286 50.9382C48.8286 50.9382 50.1958 51.9219 48.8286 55.198C48.8286 55.198 52.0408 54.5227 53.7581 49.4738C53.7581 49.4738 56.5674 50.827 55.1113 54.9896C55.1113 54.9896 58.7015 54.1059 59.6379 51.4522C60.5743 48.7986 58.5459 46.0421 59.6379 45.1028C60.7299 44.1664 64.4256 40.8319 61.822 37.5308C59.2183 34.2297 57.7622 33.6684 60.3659 30.0727C62.9668 26.477 59.7935 21.8977 59.0655 20.9085C58.3374 19.9192 53.9082 12.136 53.0912 9.86578C52.2743 7.59556 47.7171 5.32256 47.7171 5.32256C47.7171 5.32256 46.4862 5.80328 46.1444 5.32256C45.8026 4.84183 41.276 1.22949 37.8137 1.00163C34.3515 0.773774 31.3476 2.67443 31.3476 2.67443C31.3476 2.67443 30.1306 0.887702 25.4151 1.26839C20.6995 1.64907 15.3727 5.52818 15.3727 5.52818L8.22027 13.0224L7.65063 14.8091L7.30885 14.0478C7.30885 14.0478 6.51135 16.4819 5.90281 16.9376C5.29427 17.3934 1.75695 21.3892 2.05983 24.393C2.36549 27.3968 2.74339 29.453 3.73262 31.6205C4.72185 33.7879 4.15221 36.6694 2.55444 37.5308C0.956671 38.3922 0.234201 43.0327 2.04038 44.5165C3.84655 46.0004 5.29149 48.7763 5.02473 50.3741C4.75797 51.9719 4.8719 54.9396 9.62631 55.8899C9.62631 55.8899 7.95351 54.9007 8.59818 51.4384C8.59818 51.4384 11.1463 55.3175 15.256 55.737C15.256 55.737 13.197 52.9611 14.0945 50.7742V50.7715Z" fill="#E2ECF6"/>
<path d="M30.7535 59.1522C30.7368 59.1522 30.7201 59.1495 30.7035 59.1383C29.7976 58.6437 27.9553 55.2703 27.4635 54.3478C26.9161 55.8483 24.7403 56.2762 24.6431 56.2929C24.6125 56.2985 24.5792 56.2929 24.5569 56.2707C24.5319 56.2512 24.5208 56.2207 24.5208 56.1901C24.5653 53.6698 21.6948 51.7775 20.7751 51.6385C19.9748 51.5163 18.7244 50.7716 18.3215 50.5187C18.0241 52.1387 18.5438 54.4256 18.5493 54.4506C18.5576 54.484 18.5493 54.5229 18.5215 54.5479C18.4965 54.5729 18.4604 54.584 18.4243 54.5757C16.1096 54.0838 14.5424 51.7247 14.1172 51.0189C13.4559 53.0946 15.3204 55.6483 15.3427 55.6733C15.3677 55.7066 15.3704 55.7511 15.3482 55.7872C15.3288 55.8233 15.2871 55.8428 15.2482 55.84C11.6914 55.4787 9.26558 52.5166 8.66259 51.7025C8.15964 54.8452 9.66849 55.79 9.68239 55.8011C9.72685 55.8261 9.74352 55.8817 9.72685 55.9289C9.70739 55.9761 9.65738 56.0039 9.61014 55.9928C7.57611 55.5871 4.26664 54.3145 4.9252 50.3575C5.18084 48.8209 3.77481 46.0755 1.97697 44.5972C1.14891 43.9165 0.751548 42.516 0.912714 40.8487C1.06832 39.2398 1.71021 37.8699 2.50771 37.442C4.06379 36.6056 4.61398 33.7991 3.64143 31.6678C2.62163 29.4365 2.25206 27.3163 1.95752 24.407C1.6463 21.3393 5.2253 17.3184 5.8394 16.8572C6.4146 16.4265 7.20098 14.0423 7.20932 14.0173C7.22321 13.9756 7.25933 13.9478 7.30379 13.9451C7.34825 13.9451 7.38715 13.9673 7.40383 14.0062L7.63446 14.5203L8.12074 12.992C8.1263 12.9781 8.13463 12.9642 8.14575 12.9503L15.2982 5.45605C15.3649 5.40603 20.7167 1.5436 25.4072 1.16291C29.6198 0.823906 31.073 2.18548 31.3731 2.53838C31.8789 2.24106 34.6771 0.690527 37.8226 0.896153C41.2738 1.12401 45.8476 4.72524 46.231 5.26154C46.4728 5.60054 47.3592 5.35046 47.6815 5.22541C47.7093 5.2143 47.7399 5.21708 47.7649 5.22819C47.9538 5.32267 52.3692 7.54565 53.189 9.82977C54.0087 12.1055 58.438 19.8832 59.1493 20.8474C60.0997 22.1368 62.9979 26.6133 60.4498 30.134C58.2851 33.1266 58.9743 33.9519 60.8221 36.1499C61.1472 36.5361 61.514 36.9724 61.9031 37.467C63.6703 39.7122 62.8895 42.4521 59.7023 45.1836C59.2244 45.592 59.4105 46.4229 59.6467 47.476C59.9051 48.6347 60.2303 50.0797 59.7329 51.4885C58.7881 54.1644 55.2813 55.0564 55.1313 55.0925C55.0924 55.1008 55.0563 55.0925 55.0285 55.0619C55.0035 55.0342 54.9951 54.9925 55.0062 54.9563C56.2567 51.3885 54.2921 49.9241 53.8086 49.6267C52.9139 52.1832 51.6329 53.5837 50.7076 54.3117C49.6822 55.1175 48.8791 55.2954 48.843 55.3009C48.8041 55.3092 48.7652 55.2954 48.7402 55.2648C48.7152 55.2342 48.7096 55.1953 48.7235 55.1592C49.8211 52.5277 49.1181 51.4107 48.8486 51.1106C46.5172 55.6093 41.2877 54.8119 41.2349 54.8035C41.1876 54.7952 41.1543 54.7591 41.1487 54.7118C41.1432 54.6646 41.1709 54.6201 41.2154 54.6034C41.2349 54.5951 43.041 53.8671 43.0633 52.1915C43.0744 51.4135 43.1716 50.9466 43.2856 50.666C42.3602 51.1662 40.1956 52.4444 39.4759 53.8449C38.5173 55.7122 34.4381 56.4152 34.263 56.443C34.2297 56.4485 34.1936 56.4374 34.1686 56.4096C34.1435 56.3846 34.1352 56.3457 34.1463 56.3124C34.2825 55.815 34.3519 55.476 34.3825 55.2481C33.6878 56.8903 30.9369 59.03 30.8063 59.1328C30.7868 59.1467 30.7646 59.155 30.7424 59.155L30.7535 59.1522ZM27.4357 53.9671C27.4746 53.9671 27.5107 53.9893 27.5274 54.0227C27.5496 54.0644 29.742 58.2575 30.7452 58.9216C31.1925 58.5659 34.1713 56.154 34.3353 54.6868C34.3408 54.6423 34.3742 54.6062 34.4186 54.5951C34.452 54.5868 34.5076 54.5951 34.5492 54.6423C34.6354 54.7368 34.7132 55.0008 34.3992 56.204C35.1717 56.0539 38.4923 55.3204 39.2981 53.7476C40.1762 52.0359 43.0105 50.5604 43.5468 50.2936C43.5968 50.2575 43.6385 50.2464 43.6579 50.2436C43.7107 50.2325 43.7579 50.2659 43.7746 50.3159C43.7885 50.3659 43.7663 50.4187 43.719 50.4409C43.719 50.4409 43.694 50.452 43.6579 50.4715C43.5634 50.5493 43.2995 50.8799 43.28 52.1887C43.2606 53.5392 42.188 54.3172 41.6294 54.6285C42.8354 54.7202 46.8451 54.7035 48.7346 50.8855C48.7485 50.8577 48.7736 50.8383 48.8041 50.8299C48.8347 50.8216 48.8652 50.8299 48.8903 50.8466C48.9486 50.8883 50.2518 51.8747 49.007 55.0314C49.3043 54.9313 49.9017 54.6813 50.5964 54.1311C51.5106 53.4086 52.7833 52.0081 53.6586 49.4322C53.6697 49.4044 53.6891 49.3822 53.7169 49.3711C53.7447 49.36 53.7753 49.36 53.8031 49.3711C54.7839 49.8435 56.3261 51.5857 55.273 54.8257C56.0149 54.6007 58.7547 53.6309 59.5411 51.4079C60.0191 50.0547 59.7023 48.6459 59.4494 47.5093C59.1993 46.3895 58.9993 45.5031 59.5717 45.0141C61.3612 43.4802 64.0204 40.4764 61.7419 37.5837C61.3556 37.0919 60.9888 36.6556 60.6665 36.2722C58.7964 34.0464 58.0239 33.1266 60.2831 30.0006C62.7478 26.5938 59.9107 22.2201 58.9826 20.9586C58.2685 19.9916 53.8169 12.175 52.9944 9.88812C52.2414 7.79296 48.165 5.65612 47.7121 5.4227C47.4564 5.51718 46.4116 5.86174 46.0587 5.36991C45.6836 4.84473 41.196 1.31574 37.8059 1.09066C34.4214 0.865587 31.4315 2.73011 31.4009 2.74957C31.3537 2.78013 31.2926 2.76624 31.2592 2.72178C31.2481 2.70511 30.0032 0.987851 25.4211 1.3602C20.7862 1.73533 15.4844 5.56164 15.4316 5.60054L8.31247 13.0642L7.74839 14.8287C7.7345 14.8704 7.69837 14.8982 7.65391 14.901C7.61223 14.9037 7.57055 14.8787 7.55388 14.8398L7.32047 14.3202C7.09539 14.9621 6.47573 16.6238 5.96167 17.01C5.38369 17.4435 1.86304 21.4393 2.16036 24.3709C2.45213 27.258 2.81892 29.3587 3.82482 31.565C4.83906 33.788 4.24441 36.7251 2.5994 37.6087C1.86026 38.0061 1.26283 39.3093 1.11278 40.8543C0.957174 42.4521 1.32675 43.7859 2.10201 44.4222C3.94987 45.9394 5.38925 48.7792 5.12527 50.377C4.80571 52.2971 5.2781 54.7452 9.24335 55.6844C8.77374 55.187 8.02071 53.9532 8.49587 51.4051C8.5042 51.3634 8.53477 51.3301 8.57645 51.3218C8.61813 51.3107 8.65981 51.3301 8.68482 51.3662C8.70983 51.4051 11.1579 55.0647 15.037 55.5899C14.5841 54.9147 13.2169 52.625 13.9978 50.7188C14.0116 50.6827 14.0478 50.6577 14.0895 50.6549C14.1311 50.6493 14.1673 50.6743 14.1867 50.7104C14.2034 50.741 15.8206 53.6865 18.3076 54.3228C18.1881 53.742 17.8268 51.758 18.1436 50.3159C18.152 50.2825 18.1742 50.2547 18.2048 50.2408C18.2381 50.2269 18.2714 50.2325 18.302 50.2492C18.3187 50.2603 19.9053 51.2829 20.8029 51.419C21.7504 51.5635 24.6709 53.4781 24.7264 56.0484C25.2183 55.9289 27.03 55.3982 27.3329 54.0366C27.3412 53.9949 27.3773 53.9616 27.4218 53.956C27.4274 53.956 27.4301 53.956 27.4357 53.956V53.9671Z" fill="black"/>
<path d="M8.55098 51.7525C7.79795 50.9272 7.52007 48.6625 7.61177 47.3343C7.70347 45.9755 8.31757 45.4975 6.38357 43.0134C4.4468 40.5292 6.4447 38.3923 6.4447 38.3923C5.00254 39.4066 3.82714 41.0933 4.84971 43.294C5.87229 45.4948 6.33355 46.4479 5.51105 47.8317C5.31098 48.1679 5.12481 48.6986 4.99976 49.3461C5.06368 49.7184 5.07757 50.0686 5.02477 50.3714C4.75802 51.9692 4.87194 54.9369 9.62635 55.8872C9.62635 55.8872 8.0647 54.9536 8.55098 51.7525Z" fill="#848FAD"/>
<path d="M58.7631 49.3432C57.8239 46.8757 56.6012 42.7409 58.3879 41.7072C60.1747 40.6735 60.2247 34.8938 56.9569 34.4019C53.6891 33.9101 54.5366 34.4019 54.5366 34.4019L56.2205 40.8736L53.6919 43.8246L54.2004 49.7683C54.9256 50.3574 56.1928 51.8968 55.1118 54.9868C55.1118 54.9868 55.951 54.7784 56.9208 54.2643C58.0934 52.7221 59.2827 50.702 58.7631 49.3404V49.3432Z" fill="#838EAC"/>
<path d="M44.2892 36.9444L21.5536 36.6944C21.5536 36.6944 19.1972 36.272 15.6432 43.4634C13.876 47.0396 13.8343 49.471 14.2372 51.0104C14.6929 51.7523 16.2379 54.0003 18.447 54.4727C18.447 54.4727 17.8829 52.0163 18.2497 50.349C18.2497 50.349 19.8586 51.3938 20.7922 51.5356C21.7231 51.6773 24.6713 53.6113 24.6269 56.1927C24.6269 56.1927 27.0694 55.7314 27.4389 54.0725C27.4389 54.0725 29.7425 58.4963 30.7567 59.0492C30.7567 59.0492 34.2579 56.34 34.4441 54.7005C34.4441 54.7005 34.722 54.645 34.2607 56.34C34.2607 56.34 38.451 55.6397 39.3958 53.7974C40.2683 52.0996 43.1666 50.6047 43.6167 50.3796C43.4889 50.4685 43.1999 50.8159 43.1805 52.1913C43.1554 53.9586 41.2659 54.7005 41.2659 54.7005C41.2659 54.7005 46.5427 55.5619 48.8324 50.9381C48.8324 50.9381 48.9269 51.0076 49.0408 51.166C49.9911 47.9315 50.822 44.9555 50.822 44.9555L49.2742 40.09L44.2947 36.9472L44.2892 36.9444Z" fill="#838EAC"/>
<path d="M30.7535 59.1522C30.7368 59.1522 30.7201 59.1495 30.7035 59.1383C29.7976 58.6437 27.9553 55.2703 27.4635 54.3478C26.9161 55.8483 24.7403 56.2762 24.6431 56.2929C24.6125 56.2985 24.5792 56.2929 24.5569 56.2707C24.5319 56.2512 24.5208 56.2207 24.5208 56.1901C24.5653 53.6698 21.6948 51.7775 20.7751 51.6385C19.9748 51.5163 18.7244 50.7716 18.3215 50.5187C18.0241 52.1387 18.5438 54.4256 18.5493 54.4506C18.5576 54.484 18.5493 54.5229 18.5215 54.5479C18.4965 54.5729 18.4604 54.584 18.4243 54.5757C16.1096 54.0838 14.5424 51.7247 14.1172 51.0189C13.4559 53.0946 15.3204 55.6483 15.3427 55.6733C15.3677 55.7066 15.3704 55.7511 15.3482 55.7872C15.3288 55.8233 15.2871 55.8428 15.2482 55.84C11.6914 55.4787 9.26558 52.5166 8.66259 51.7025C8.15964 54.8452 9.66849 55.79 9.68239 55.8011C9.72685 55.8261 9.74352 55.8817 9.72685 55.9289C9.70739 55.9761 9.65738 56.0039 9.61014 55.9928C7.57611 55.5871 4.26664 54.3145 4.9252 50.3575C5.18084 48.8209 3.77481 46.0755 1.97697 44.5972C1.14891 43.9165 0.751548 42.516 0.912714 40.8487C1.06832 39.2398 1.71021 37.8699 2.50771 37.442C4.06379 36.6056 4.61398 33.7991 3.64143 31.6678C2.62163 29.4365 2.25206 27.3163 1.95752 24.407C1.6463 21.3393 5.2253 17.3184 5.8394 16.8572C6.4146 16.4265 7.20098 14.0423 7.20932 14.0173C7.22321 13.9756 7.25933 13.9478 7.30379 13.9451C7.34825 13.9451 7.38715 13.9673 7.40383 14.0062L7.63446 14.5203L8.12074 12.992C8.1263 12.9781 8.13463 12.9642 8.14575 12.9503L15.2982 5.45605C15.3649 5.40603 20.7167 1.5436 25.4072 1.16291C29.6198 0.823906 31.073 2.18548 31.3731 2.53838C31.8789 2.24106 34.6771 0.690527 37.8226 0.896153C41.2738 1.12401 45.8476 4.72524 46.231 5.26154C46.4728 5.60054 47.3592 5.35046 47.6815 5.22541C47.7093 5.2143 47.7399 5.21708 47.7649 5.22819C47.9538 5.32267 52.3692 7.54565 53.189 9.82977C54.0087 12.1055 58.438 19.8832 59.1493 20.8474C60.0997 22.1368 62.9979 26.6133 60.4498 30.134C58.2851 33.1266 58.9743 33.9519 60.8221 36.1499C61.1472 36.5361 61.514 36.9724 61.9031 37.467C63.6703 39.7122 62.8895 42.4521 59.7023 45.1836C59.2244 45.592 59.4105 46.4229 59.6467 47.476C59.9051 48.6347 60.2303 50.0797 59.7329 51.4885C58.7881 54.1644 55.2813 55.0564 55.1313 55.0925C55.0924 55.1008 55.0563 55.0925 55.0285 55.0619C55.0035 55.0342 54.9951 54.9925 55.0062 54.9563C56.2567 51.3885 54.2921 49.9241 53.8086 49.6267C52.9139 52.1832 51.6329 53.5837 50.7076 54.3117C49.6822 55.1175 48.8791 55.2954 48.843 55.3009C48.8041 55.3092 48.7652 55.2954 48.7402 55.2648C48.7152 55.2342 48.7096 55.1953 48.7235 55.1592C49.8211 52.5277 49.1181 51.4107 48.8486 51.1106C46.5172 55.6093 41.2877 54.8119 41.2349 54.8035C41.1876 54.7952 41.1543 54.7591 41.1487 54.7118C41.1432 54.6646 41.1709 54.6201 41.2154 54.6034C41.2349 54.5951 43.041 53.8671 43.0633 52.1915C43.0744 51.4135 43.1716 50.9466 43.2856 50.666C42.3602 51.1662 40.1956 52.4444 39.4759 53.8449C38.5173 55.7122 34.4381 56.4152 34.263 56.443C34.2297 56.4485 34.1936 56.4374 34.1686 56.4096C34.1435 56.3846 34.1352 56.3457 34.1463 56.3124C34.2825 55.815 34.3519 55.476 34.3825 55.2481C33.6878 56.8903 30.9369 59.03 30.8063 59.1328C30.7868 59.1467 30.7646 59.155 30.7424 59.155L30.7535 59.1522ZM27.4357 53.9671C27.4746 53.9671 27.5107 53.9893 27.5274 54.0227C27.5496 54.0644 29.742 58.2575 30.7452 58.9216C31.1925 58.5659 34.1713 56.154 34.3353 54.6868C34.3408 54.6423 34.3742 54.6062 34.4186 54.5951C34.452 54.5868 34.5076 54.5951 34.5492 54.6423C34.6354 54.7368 34.7132 55.0008 34.3992 56.204C35.1717 56.0539 38.4923 55.3204 39.2981 53.7476C40.1762 52.0359 43.0105 50.5604 43.5468 50.2936C43.5968 50.2575 43.6385 50.2464 43.6579 50.2436C43.7107 50.2325 43.7579 50.2659 43.7746 50.3159C43.7885 50.3659 43.7663 50.4187 43.719 50.4409C43.719 50.4409 43.694 50.452 43.6579 50.4715C43.5634 50.5493 43.2995 50.8799 43.28 52.1887C43.2606 53.5392 42.188 54.3172 41.6294 54.6285C42.8354 54.7202 46.8451 54.7035 48.7346 50.8855C48.7485 50.8577 48.7736 50.8383 48.8041 50.8299C48.8347 50.8216 48.8652 50.8299 48.8903 50.8466C48.9486 50.8883 50.2518 51.8747 49.007 55.0314C49.3043 54.9313 49.9017 54.6813 50.5964 54.1311C51.5106 53.4086 52.7833 52.0081 53.6586 49.4322C53.6697 49.4044 53.6891 49.3822 53.7169 49.3711C53.7447 49.36 53.7753 49.36 53.8031 49.3711C54.7839 49.8435 56.3261 51.5857 55.273 54.8257C56.0149 54.6007 58.7547 53.6309 59.5411 51.4079C60.0191 50.0547 59.7023 48.6459 59.4494 47.5093C59.1993 46.3895 58.9993 45.5031 59.5717 45.0141C61.3612 43.4802 64.0204 40.4764 61.7419 37.5837C61.3556 37.0919 60.9888 36.6556 60.6665 36.2722C58.7964 34.0464 58.0239 33.1266 60.2831 30.0006C62.7478 26.5938 59.9107 22.2201 58.9826 20.9586C58.2685 19.9916 53.8169 12.175 52.9944 9.88812C52.2414 7.79296 48.165 5.65612 47.7121 5.4227C47.4564 5.51718 46.4116 5.86174 46.0587 5.36991C45.6836 4.84473 41.196 1.31574 37.8059 1.09066C34.4214 0.865587 31.4315 2.73011 31.4009 2.74957C31.3537 2.78013 31.2926 2.76624 31.2592 2.72178C31.2481 2.70511 30.0032 0.987851 25.4211 1.3602C20.7862 1.73533 15.4844 5.56164 15.4316 5.60054L8.31247 13.0642L7.74839 14.8287C7.7345 14.8704 7.69837 14.8982 7.65391 14.901C7.61223 14.9037 7.57055 14.8787 7.55388 14.8398L7.32047 14.3202C7.09539 14.9621 6.47573 16.6238 5.96167 17.01C5.38369 17.4435 1.86304 21.4393 2.16036 24.3709C2.45213 27.258 2.81892 29.3587 3.82482 31.565C4.83906 33.788 4.24441 36.7251 2.5994 37.6087C1.86026 38.0061 1.26283 39.3093 1.11278 40.8543C0.957174 42.4521 1.32675 43.7859 2.10201 44.4222C3.94987 45.9394 5.38925 48.7792 5.12527 50.377C4.80571 52.2971 5.2781 54.7452 9.24335 55.6844C8.77374 55.187 8.02071 53.9532 8.49587 51.4051C8.5042 51.3634 8.53477 51.3301 8.57645 51.3218C8.61813 51.3107 8.65981 51.3301 8.68482 51.3662C8.70983 51.4051 11.1579 55.0647 15.037 55.5899C14.5841 54.9147 13.2169 52.625 13.9978 50.7188C14.0116 50.6827 14.0478 50.6577 14.0895 50.6549C14.1311 50.6493 14.1673 50.6743 14.1867 50.7104C14.2034 50.741 15.8206 53.6865 18.3076 54.3228C18.1881 53.742 17.8268 51.758 18.1436 50.3159C18.152 50.2825 18.1742 50.2547 18.2048 50.2408C18.2381 50.2269 18.2714 50.2325 18.302 50.2492C18.3187 50.2603 19.9053 51.2829 20.8029 51.419C21.7504 51.5635 24.6709 53.4781 24.7264 56.0484C25.2183 55.9289 27.03 55.3982 27.3329 54.0366C27.3412 53.9949 27.3773 53.9616 27.4218 53.956C27.4274 53.956 27.4301 53.956 27.4357 53.956V53.9671Z" fill="black"/>
<path d="M22.9984 8.79322C22.9984 8.79322 14.3065 1.89363 8.021 2.1715L13.3061 13.6088H16.36L22.9956 8.79322H22.9984Z" fill="#E9E0B5"/>
<path d="M16.3621 13.7117H13.3083C13.2666 13.7117 13.2305 13.6895 13.2138 13.6506L7.92589 2.21613C7.91199 2.18557 7.91477 2.14666 7.93145 2.11888C7.9509 2.08831 7.98146 2.07164 8.01481 2.06886C14.2614 1.79377 22.9727 8.64334 23.0616 8.7128C23.0866 8.73226 23.1005 8.76282 23.1005 8.79617C23.1005 8.82951 23.0839 8.86008 23.0589 8.87953L16.4232 13.6951C16.4066 13.709 16.3843 13.7145 16.3621 13.7145V13.7117ZM13.375 13.5033H16.3288L22.8254 8.78783C21.8251 8.01812 14.1558 2.26615 8.39549 2.26615C8.32603 2.26615 8.25378 2.26615 8.18431 2.26615L13.3778 13.5006L13.375 13.5033Z" fill="black"/>
<path d="M8.60123 21.2474C8.60123 21.2474 4.02188 8.78754 8.02047 2.17139C8.02047 2.17139 15.8148 5.19742 19.4411 9.46833C19.4411 9.46833 12.0191 22.2838 8.60123 21.2474Z" fill="#F4E0E0"/>
<path d="M9.01265 21.4114C8.85982 21.4114 8.71255 21.3919 8.57361 21.3475C8.54305 21.3391 8.51804 21.3141 8.50692 21.2836C8.45969 21.1585 3.95536 8.70148 7.93451 2.11867C7.95951 2.07421 8.01509 2.05754 8.06233 2.07421C8.14013 2.10478 15.9234 5.1586 19.5246 9.40172C19.5524 9.43507 19.5579 9.48231 19.5357 9.52121C19.2439 10.0269 12.6083 21.4114 9.01821 21.4114H9.01265ZM8.68198 21.1613C10.0352 21.5114 12.2971 19.6219 15.2176 15.6872C17.296 12.889 19.0383 9.94635 19.3134 9.48231C15.9261 5.54207 8.9015 2.6383 8.06511 2.30207C4.34161 8.60701 8.37632 20.2971 8.68198 21.1641V21.1613Z" fill="black"/>
<path d="M18.844 10.4632C18.844 10.4632 15.4067 6.76189 12.4473 6.05054C12.4473 6.05054 12.0722 10.6521 15.6456 15.2787L18.844 10.4632Z" fill="#B19DAD"/>
<path d="M40.7319 8.79322C40.7319 8.79322 49.4238 1.89363 55.7065 2.1715L50.4214 13.6088H47.3675L40.7319 8.79322Z" fill="#E9E0B5"/>
<path d="M50.4212 13.7117H47.3673C47.3451 13.7117 47.3229 13.7062 47.3062 13.6923L40.6706 8.87676C40.6456 8.85731 40.6289 8.82674 40.6289 8.7934C40.6289 8.76005 40.6428 8.72948 40.6678 8.71003C40.7539 8.64056 49.4569 1.78822 55.7119 2.06609C55.7452 2.06609 55.7785 2.08554 55.7952 2.11611C55.8147 2.14667 55.8147 2.1828 55.8008 2.21336L50.5156 13.6506C50.499 13.6867 50.4628 13.7117 50.4212 13.7117ZM47.4035 13.5033H50.3572L55.5479 2.26894C49.7654 2.12444 41.9182 8.00701 40.9068 8.78784L47.4035 13.5033Z" fill="black"/>
<path d="M55.125 21.2474C55.125 21.2474 59.7043 8.78754 55.7057 2.17139C55.7057 2.17139 47.9114 5.19742 44.2852 9.46833C44.2852 9.46833 51.7071 22.2838 55.125 21.2474Z" fill="#F4E0E0"/>
<path d="M54.7168 21.4114C51.1266 21.4114 44.491 10.0269 44.1993 9.52121C44.177 9.48231 44.1826 9.43507 44.2104 9.40172C47.8116 5.1586 55.5921 2.10478 55.6726 2.07421C55.7199 2.05754 55.7727 2.07421 55.8005 2.11867C59.7796 8.70148 55.2753 21.1585 55.228 21.2836C55.2169 21.3141 55.1919 21.3391 55.1614 21.3475C55.0196 21.3892 54.8724 21.4114 54.7223 21.4114H54.7168ZM44.416 9.47953C44.9856 10.4465 51.8519 21.9866 55.0474 21.1613C55.3559 20.2971 59.3878 8.60701 55.6643 2.29929C54.8279 2.63552 47.8033 5.53651 44.416 9.47953Z" fill="black"/>
<path d="M44.8828 10.4632C44.8828 10.4632 48.3201 6.76189 51.2795 6.05054C51.2795 6.05054 51.6546 10.6521 48.0811 15.2787L44.8828 10.4632Z" fill="#B19DAD"/>
<path d="M31.4924 54.8703C43.1358 54.8703 52.5746 45.4314 52.5746 33.788C52.5746 22.1446 43.1358 12.7058 31.4924 12.7058C19.849 12.7058 10.4102 22.1446 10.4102 33.788C10.4102 45.4314 19.849 54.8703 31.4924 54.8703Z" fill="url(#paint0_linear_823_46345)"/>
<path d="M31.4924 55.1478C19.7134 55.1478 10.1323 45.5667 10.1323 33.7877C10.1323 22.0086 19.7134 12.4248 31.4924 12.4248C43.2715 12.4248 52.8525 22.0059 52.8525 33.7849C52.8525 45.5639 43.2715 55.145 31.4924 55.145V55.1478ZM31.4924 12.9806C20.0218 12.9806 10.6881 22.3143 10.6881 33.7849C10.6881 45.2555 20.0218 54.5893 31.4924 54.5893C42.963 54.5893 52.2968 45.2555 52.2968 33.7849C52.2968 22.3143 42.963 12.9806 31.4924 12.9806Z" fill="#FCC3B7"/>
<path d="M38.9481 30.8896C38.9481 30.8896 36.8029 32.0733 36.3166 33.3765C35.8331 34.6798 34.5771 40.2928 37.5504 42.7409C37.5504 42.7409 39.4955 43.4995 40.5208 43.4633C41.5462 43.4272 43.1634 43.3327 44.0776 42.752C44.9918 42.1712 45.642 41.6433 46.6591 40.2011C46.6591 40.2011 48.0234 38.5283 47.5288 37.0778C47.0342 35.6273 43.5941 31.7677 43.5941 31.7677L41.1822 30.4255C41.1822 30.4255 39.7761 30.4255 39.2065 30.5534C38.6369 30.6812 38.9481 30.8896 38.9481 30.8896Z" fill="white"/>
<path d="M51.3357 37.3028C50.6855 37.4417 50.0214 37.4973 49.3767 37.4917C48.9126 37.4556 48.4903 37.4251 48.0512 37.4584C48.0512 37.439 48.0512 37.4195 48.0512 37.4001C47.9429 36.9832 47.7928 36.5775 47.6233 36.183C47.8539 36.1857 48.0818 36.1524 48.2985 36.0885C49.2433 35.705 50.0491 34.952 50.6771 34.1684L50.6327 34.1267C50.1103 34.538 49.5406 34.8825 48.9571 35.1632C48.4264 35.3744 47.9568 35.5661 47.4955 35.8884C47.2871 35.4188 47.0426 34.9603 46.7647 34.5213C46.8953 34.4963 47.0259 34.4629 47.1481 34.4185C48.0679 33.9767 48.8237 33.1736 49.4017 32.3511L49.3545 32.315C48.8571 32.7596 48.3124 33.1375 47.7484 33.4543C47.2982 33.6682 46.8953 33.8599 46.5063 34.135C43.4802 29.753 37.3892 27.5522 35.8359 34.6769C38.8453 28.0552 43.9665 31.887 46.7036 36.3914C46.9592 36.9165 47.351 37.3639 47.3399 37.9752C47.2371 39.02 46.6869 39.9398 46.1422 40.8735C46.7925 40.2788 47.3816 39.598 47.7873 38.7561C47.8984 38.506 47.9929 38.2281 48.0373 37.9447C48.1485 37.9808 48.2624 38.0114 48.3763 38.0308C49.3934 38.1058 50.4493 37.7863 51.3607 37.3584L51.3385 37.3028H51.3357Z" fill="black"/>
<path d="M40.0454 42.5434C41.6491 42.5434 42.9492 40.2979 42.9492 37.5278C42.9492 34.7578 41.6491 32.5122 40.0454 32.5122C38.4417 32.5122 37.1416 34.7578 37.1416 37.5278C37.1416 40.2979 38.4417 42.5434 40.0454 42.5434Z" fill="#EDB772"/>
<path d="M40.0454 40.8762C41.6491 40.8762 42.9492 39.0038 42.9492 36.6942C42.9492 34.3845 41.6491 32.5122 40.0454 32.5122C38.4417 32.5122 37.1416 34.3845 37.1416 36.6942C37.1416 39.0038 38.4417 40.8762 40.0454 40.8762Z" fill="#95285B"/>
<path d="M40.0453 39.6564C40.4489 39.6564 40.7761 38.7197 40.7761 37.5641C40.7761 36.4085 40.4489 35.4717 40.0453 35.4717C39.6416 35.4717 39.3145 36.4085 39.3145 37.5641C39.3145 38.7197 39.6416 39.6564 40.0453 39.6564Z" fill="black"/>
<path d="M40.0455 42.6939C38.3616 42.6939 36.9917 40.3764 36.9917 37.5282C36.9917 34.68 38.3616 32.3625 40.0455 32.3625C41.7294 32.3625 43.0993 34.68 43.0993 37.5282C43.0993 40.3764 41.7294 42.6939 40.0455 42.6939ZM40.0455 32.6627C38.5256 32.6627 37.2918 34.8467 37.2918 37.531C37.2918 40.2152 38.5283 42.3993 40.0455 42.3993C41.5627 42.3993 42.7992 40.2152 42.7992 37.531C42.7992 34.8467 41.5627 32.6627 40.0455 32.6627Z" fill="black"/>
<path d="M44.3165 42.6911C44.5832 42.516 44.8389 42.3187 45.0751 42.0964C42.7771 43.6803 39.7816 43.6831 37.2891 42.5438C37.6142 42.7606 37.9615 42.9439 38.3228 43.0968C38.2755 43.1218 38.2283 43.1524 38.1894 43.1885C38.0032 43.3913 37.8948 43.6692 37.8309 43.9332L37.8476 43.9387C37.9282 43.7776 38.0254 43.6275 38.1366 43.4914C38.2422 43.3774 38.3339 43.2691 38.4089 43.1329C39.5259 43.5914 40.7708 43.7498 41.9601 43.5719C41.9434 43.6303 41.9351 43.6914 41.9323 43.7526C41.949 44.1332 42.1129 44.5084 42.313 44.8279L42.3325 44.8168C42.2519 44.5806 42.2019 44.3389 42.1769 44.0999C42.1685 43.9054 42.1518 43.7303 42.1074 43.5469C42.8632 43.4163 43.5912 43.1551 44.2442 42.7439C44.2442 42.8411 44.2581 42.9356 44.2915 43.0218C44.4554 43.3635 44.7555 43.647 45.064 43.8609L45.0778 43.8443C44.9111 43.6581 44.7722 43.4552 44.6527 43.2468C44.5554 43.044 44.4637 42.8661 44.3193 42.6911H44.3165Z" fill="black"/>
<path d="M37.3867 42.8188C37.27 42.9466 37.2005 43.1245 37.1616 43.2912H37.1727C37.2228 43.1912 37.2867 43.0967 37.3561 43.0105C37.4339 42.9244 37.5034 42.8522 37.5562 42.741L37.5506 42.7327C37.4895 42.7466 37.4367 42.7799 37.3923 42.8188H37.3867Z" fill="black"/>
<path d="M38.0776 29.3366C42.0262 27.0136 46.2138 30.5787 47.7893 34.1521C48.0088 34.6829 48.245 35.2025 48.4451 35.736C48.1227 35.2608 47.8393 34.7718 47.5364 34.2966C45.583 31.1122 42.0929 27.8611 38.0804 29.3366H38.0776Z" fill="black"/>
<path d="M23.6731 30.8896C23.6731 30.8896 25.8183 32.0733 26.3046 33.3765C26.7881 34.6798 28.0441 40.2928 25.0708 42.7409C25.0708 42.7409 23.1257 43.4995 22.1004 43.4633C21.075 43.4272 19.4578 43.3327 18.5436 42.752C17.6294 42.1712 16.9792 41.6433 15.9621 40.2011C15.9621 40.2011 14.5978 38.5283 15.0924 37.0778C15.587 35.6273 19.0271 31.7677 19.0271 31.7677L21.439 30.4255C21.439 30.4255 22.8451 30.4255 23.4147 30.5534C23.9843 30.6812 23.6731 30.8896 23.6731 30.8896Z" fill="white"/>
<path d="M11.2882 37.3028C11.9384 37.4417 12.6025 37.4973 13.2472 37.4917C13.7112 37.4556 14.1336 37.4251 14.5727 37.4584C14.5727 37.439 14.5727 37.4195 14.5727 37.4001C14.681 36.9832 14.8311 36.5775 15.0006 36.183C14.7699 36.1857 14.5421 36.1524 14.3253 36.0885C13.3806 35.705 12.5747 34.952 11.9468 34.1684L11.9912 34.1267C12.5136 34.538 13.0833 34.8825 13.6668 35.1632C14.1975 35.3744 14.6671 35.5661 15.1284 35.8884C15.3368 35.4188 15.5813 34.9603 15.8592 34.5213C15.7286 34.4963 15.598 34.4629 15.4757 34.4185C14.556 33.9767 13.8002 33.1736 13.2222 32.3511L13.2694 32.315C13.7668 32.7596 14.3115 33.1375 14.8755 33.4543C15.3257 33.6682 15.7286 33.8599 16.1176 34.135C19.1437 29.753 25.2346 27.5522 26.7879 34.6769C23.7786 28.0552 18.6574 31.887 15.9203 36.3914C15.6647 36.9165 15.2729 37.3639 15.284 37.9752C15.3868 39.02 15.937 39.9398 16.4816 40.8735C15.8314 40.2788 15.2423 39.598 14.8366 38.7561C14.7255 38.506 14.631 38.2281 14.5865 37.9447C14.4754 37.9808 14.3615 38.0114 14.2475 38.0308C13.2305 38.1058 12.1746 37.7863 11.2632 37.3584L11.2854 37.3028H11.2882Z" fill="black"/>
<path d="M22.5781 42.5434C24.1818 42.5434 25.4819 40.2979 25.4819 37.5278C25.4819 34.7578 24.1818 32.5122 22.5781 32.5122C20.9744 32.5122 19.6743 34.7578 19.6743 37.5278C19.6743 40.2979 20.9744 42.5434 22.5781 42.5434Z" fill="#EDB772"/>
<path d="M22.5781 40.8762C24.1818 40.8762 25.4819 39.0038 25.4819 36.6942C25.4819 34.3845 24.1818 32.5122 22.5781 32.5122C20.9744 32.5122 19.6743 34.3845 19.6743 36.6942C19.6743 39.0038 20.9744 40.8762 22.5781 40.8762Z" fill="#95285B"/>
<path d="M22.5789 39.6564C22.9826 39.6564 23.3098 38.7197 23.3098 37.5641C23.3098 36.4085 22.9826 35.4717 22.5789 35.4717C22.1753 35.4717 21.8481 36.4085 21.8481 37.5641C21.8481 38.7197 22.1753 39.6564 22.5789 39.6564Z" fill="black"/>
<path d="M19.5244 37.5282C19.5244 34.68 20.8943 32.3625 22.5782 32.3625C24.2621 32.3625 25.6321 34.68 25.6321 37.5282C25.6321 40.3764 24.2621 42.6939 22.5782 42.6939C20.8943 42.6939 19.5244 40.3764 19.5244 37.5282ZM19.8245 37.5282C19.8245 40.2125 21.0611 42.3965 22.5782 42.3965C24.0954 42.3965 25.332 40.2125 25.332 37.5282C25.332 34.844 24.0954 32.6599 22.5782 32.6599C21.0611 32.6599 19.8245 34.844 19.8245 37.5282Z" fill="black"/>
<path d="M18.3048 42.6911C18.0381 42.516 17.7824 42.3187 17.5462 42.0964C19.8442 43.6803 22.8397 43.6831 25.3322 42.5438C25.0071 42.7606 24.6598 42.9439 24.2986 43.0968C24.3458 43.1218 24.393 43.1524 24.4319 43.1885C24.6181 43.3913 24.7265 43.6692 24.7904 43.9332L24.7737 43.9387C24.6931 43.7776 24.5959 43.6275 24.4847 43.4914C24.3791 43.3774 24.2874 43.2691 24.2124 43.1329C23.0954 43.5914 21.8505 43.7498 20.6612 43.5719C20.6779 43.6303 20.6862 43.6914 20.689 43.7526C20.6723 44.1332 20.5084 44.5084 20.3083 44.8279L20.2888 44.8168C20.3694 44.5806 20.4194 44.3389 20.4445 44.0999C20.4528 43.9054 20.4695 43.7303 20.5139 43.5469C19.7581 43.4163 19.0301 43.1551 18.3771 42.7439C18.3771 42.8411 18.3632 42.9356 18.3298 43.0218C18.1659 43.3635 17.8658 43.647 17.5574 43.8609L17.5435 43.8443C17.7102 43.6581 17.8491 43.4552 17.9686 43.2468C18.0659 43.044 18.1576 42.8661 18.3021 42.6911H18.3048Z" fill="black"/>
<path d="M25.2374 42.8188C25.3541 42.9466 25.4236 43.1245 25.4625 43.2912H25.4513C25.4013 43.1912 25.3374 43.0967 25.2679 43.0105C25.1901 42.9244 25.1207 42.8522 25.0679 42.741L25.0734 42.7327C25.1346 42.7466 25.1874 42.7799 25.2318 42.8188H25.2374Z" fill="black"/>
<path d="M24.5457 29.3366C20.5971 27.0136 16.4095 30.5787 14.834 34.1521C14.6145 34.6829 14.3783 35.2025 14.1782 35.736C14.5006 35.2608 14.784 34.7718 15.0869 34.2966C17.0403 31.1122 20.5304 27.8611 24.5429 29.3366H24.5457Z" fill="black"/>
<path d="M30.0893 42.5188L29.4224 43.1301L30.0893 43.7692C30.0893 43.7692 30.3282 42.73 30.0893 42.5188Z" fill="#0A0B0B"/>
<path d="M56.3483 47.0869C55.7092 45.9865 55.1062 44.9445 55.3785 43.8803C55.8259 43.1995 56.3649 42.4909 56.9929 41.7712C59.0436 39.4176 57.4681 36.3583 55.8676 33.9547C54.5588 31.9901 55.7981 29.8227 56.4622 28.6584C57.193 27.3774 57.1986 24.3291 56.4705 22.259C56.0259 20.9947 54.7755 19.4664 53.6724 18.1159C52.9582 17.2434 52.3413 16.4876 52.0607 15.954C51.3049 14.5091 47.0256 11.4164 45.8252 10.9773C44.7415 10.58 43.0743 9.48516 41.2542 7.96797C40.1427 7.03987 36.4804 6.1618 34.3074 5.70608C34.1768 5.55603 34.049 5.40876 33.9239 5.26704C33.3626 4.62238 32.9208 4.11387 32.6902 3.98883C32.0677 3.64427 31.4119 3.6526 31.0952 4.01106C31.0813 4.02495 31.0729 4.04162 31.0702 4.06108C31.0674 4.07775 31.0535 4.14999 31.0368 4.26114H31.0257C31.0479 4.07497 30.9812 3.87212 30.834 3.72763C30.6867 3.58313 30.2532 3.2997 29.3863 3.79432C29.1556 3.92492 28.8277 4.16945 28.447 4.50289C27.8079 4.32783 26.7965 4.16111 26.0518 4.57792C25.6489 4.803 24.9847 5.26427 24.2873 5.76999C23.5342 5.71442 21.9643 6.02008 18.9716 8.06245C14.5034 11.1079 12.1526 14.2757 10.263 16.821L10.0129 17.1572C9.83233 17.399 9.64338 17.6463 9.44887 17.9047C7.52043 20.4472 4.88063 23.9262 5.3947 27.9804C5.7865 31.0676 6.33113 32.1957 6.62568 32.7987C6.74794 33.0543 6.82297 33.2072 6.82297 33.3711C6.82297 33.4656 6.8313 33.6156 6.83964 33.8074C6.88688 34.8133 7.00081 37.1641 6.27834 38.3506C5.20575 40.1123 5.18907 41.749 6.22276 43.0911C6.4395 43.3718 6.63401 43.608 6.80629 43.8164C7.54822 44.7194 7.82609 45.0585 7.63158 46.2783C7.61213 46.395 7.58434 46.534 7.55377 46.684C7.17309 48.5374 6.28667 52.8806 15.0925 55.8371C15.1036 55.8399 15.1147 55.8427 15.1258 55.8427C15.1592 55.8427 15.1925 55.826 15.212 55.7982C15.237 55.7593 15.237 55.7093 15.2064 55.6732C15.1925 55.6565 13.9782 54.0671 14.4145 50.4492C14.948 50.8271 15.6232 51.0883 16.429 51.2217C16.4346 51.2217 16.4402 51.2217 16.4457 51.2217C16.4846 51.2217 16.5207 51.1994 16.5374 51.1633C16.5569 51.1216 16.5485 51.0716 16.5152 51.0411C16.4957 51.0216 14.5923 49.1765 14.9535 47.3453C15.3398 45.3863 14.8174 41.9324 14.2727 40.7125C14.0866 40.2985 13.9282 39.8872 13.792 39.476L15.8261 33.3044C16.3234 33.5212 16.8847 33.7018 17.5211 33.8379C17.5294 33.8379 17.535 33.8379 17.5433 33.8379C17.5794 33.8379 17.6128 33.8185 17.6322 33.7879C17.6545 33.749 17.6517 33.7018 17.6239 33.6684C17.6128 33.6545 16.793 32.6292 16.5791 31.0203L18.1908 26.127C19.0466 26.6077 19.6913 27.4719 19.7163 27.9693C19.7496 28.6195 21.3446 31.351 23.0007 31.9845C23.0118 31.9901 23.0257 31.9901 23.0369 31.9901C23.0646 31.9901 23.0952 31.979 23.1147 31.9567C23.1424 31.9262 23.1508 31.8789 23.1313 31.84C23.1174 31.815 21.8642 29.2642 21.9476 27.9248C21.9809 27.3857 22.031 26.5994 22.0754 25.8352C22.2171 25.9769 22.3672 26.0908 22.5311 26.1659C23.8955 26.7994 27.594 30.1478 27.594 31.1481C27.594 31.4983 27.6607 32.7431 28.5221 34.0491C29.4752 35.4941 31.0368 36.5027 33.1625 37.0502C33.1709 37.0502 33.1792 37.0529 33.1876 37.0529C33.2153 37.0529 33.2404 37.0418 33.2626 37.0224C33.2876 36.9974 33.2987 36.9585 33.2904 36.9223C33.2793 36.8779 32.1705 32.3986 35.8913 29.6615C36.9722 28.8668 37.5918 27.722 37.9447 26.5743C38.017 29.4059 35.5912 31.4121 35.5662 31.4343C35.5272 31.4649 35.5161 31.5177 35.5384 31.5622C35.555 31.5983 35.5939 31.6205 35.6328 31.6205C35.6412 31.6205 35.6495 31.6205 35.6578 31.6177C39.6537 30.6396 41.5599 28.0221 42.4518 25.9964C42.563 25.7435 42.6602 25.4851 42.7519 25.2267C42.8603 25.3156 42.9687 25.4434 43.0548 25.6268C44.0579 27.8137 43.4911 31.7178 43.4855 31.7567C43.48 31.79 43.4911 31.8234 43.5161 31.8456C43.5355 31.865 43.5633 31.8762 43.5883 31.8762C43.5939 31.8762 43.5995 31.8762 43.605 31.8762C45.1556 31.6427 46.356 30.8703 47.1757 29.5837C47.2618 29.4476 47.3424 29.3086 47.4174 29.1641C47.7842 30.0783 49.2069 33.749 49.3709 36.136C49.4542 37.3447 49.2125 38.5924 48.9318 40.0373C48.5734 41.8796 48.1677 43.9664 48.3344 46.5645C48.6178 51.0438 47.3619 52.1025 47.3507 52.1137C47.3118 52.1442 47.298 52.1998 47.323 52.2443C47.3424 52.2804 47.3785 52.2998 47.4147 52.2998C47.4258 52.2998 47.4369 52.2998 47.4452 52.2943C48.2149 52.047 48.8012 51.5996 49.2486 51.0438C49.2625 52.9917 48.7234 55.3231 48.7151 55.3536C48.7068 55.3898 48.7151 55.4259 48.7429 55.4509C48.7623 55.4704 48.7901 55.4815 48.8151 55.4815C48.8235 55.4815 48.8318 55.4815 48.8401 55.4787C50.0628 55.1647 52.2552 52.7528 52.3413 52.6583C53.1722 51.9303 54.0947 49.4905 53.9002 47.9928C53.778 47.0508 54.2114 45.7531 55.0978 44.2999C55.0562 45.2835 55.6147 46.2477 56.1593 47.1842C56.5817 47.915 57.0207 48.668 57.1847 49.4322C57.5848 51.3023 54.8867 54.7646 54.8589 54.8007C54.8228 54.8451 54.8311 54.9118 54.8755 54.948C54.895 54.9618 54.9172 54.9702 54.9395 54.9702C54.97 54.9702 55.0006 54.9563 55.02 54.9313C55.134 54.7868 57.8071 51.3578 57.3847 49.3905C57.2152 48.593 56.7679 47.8233 56.3344 47.0814L56.3483 47.0869Z" fill="#E2ECF6"/>
<path d="M42.61 17.4797C44.2245 20.4335 43.7576 29.5255 35.6382 31.5095C35.6382 31.5095 38.4753 29.206 38.0057 25.9743" fill="#E2ECF6"/>
<path d="M35.638 31.615C35.5991 31.615 35.563 31.5927 35.5436 31.5566C35.5213 31.5122 35.5324 31.4594 35.5713 31.4288C35.5991 31.4066 38.3584 29.1252 37.8999 25.988C37.8916 25.9325 37.9305 25.8797 37.9888 25.8713C38.0444 25.863 38.0972 25.9019 38.1055 25.9603C38.4835 28.5556 36.7467 30.5785 36.0132 31.3037C39.6533 30.2756 41.4206 27.8192 42.2625 25.9075C43.613 22.8453 43.4518 19.2441 42.5154 17.5324C42.4876 17.4823 42.5071 17.4184 42.5571 17.3907C42.6071 17.3629 42.671 17.3823 42.6988 17.4323C43.6602 19.1885 43.8297 22.8703 42.4543 25.9936C41.5623 28.0193 39.6561 30.6396 35.6603 31.615C35.6519 31.615 35.6436 31.6177 35.6353 31.6177L35.638 31.615Z" fill="black"/>
<path d="M32.6377 5.47266C32.6377 5.47266 39.6068 6.72031 41.1823 8.03742C42.7578 9.35454 44.5334 10.6077 45.7839 11.0662C47.0343 11.5247 51.2385 14.6119 51.9638 15.9929C52.6862 17.374 55.6456 20.2277 56.368 22.284C57.0905 24.3402 57.0905 27.3329 56.368 28.5972C55.6456 29.8616 54.4618 32.0318 55.7762 34.0019C57.0905 35.9748 59.0301 39.2592 56.9099 41.6934C54.7897 44.1276 53.606 46.4923 53.8033 48.0039C54.0006 49.5155 53.0447 51.9052 52.2805 52.5749C52.2805 52.5749 50.0298 55.0619 48.8238 55.3731C48.8238 55.3731 49.788 51.2772 49.135 49.346C48.482 47.4148 49.8936 43.0161 49.8936 43.0161L50.9606 38.0422L51.358 25.021" fill="#E2ECF6"/>
<path d="M48.8238 55.4756C48.796 55.4756 48.771 55.4645 48.7516 55.4451C48.7266 55.4201 48.7155 55.3812 48.7238 55.3478C48.7321 55.3061 49.6714 51.2603 49.0378 49.3763C48.382 47.434 49.738 43.1603 49.7964 42.9797L50.8606 38.0141L51.2552 25.0124C51.2552 24.9541 51.3136 24.9152 51.3636 24.9124C51.422 24.9124 51.4664 24.9624 51.4636 25.0208L51.0663 38.0419L49.9965 43.0353C49.9798 43.0881 48.6015 47.434 49.2351 49.3096C49.8186 51.038 49.1489 54.3919 48.9683 55.2144C50.1632 54.7504 52.1861 52.5246 52.2056 52.5024C52.9141 51.88 53.9006 49.5319 53.7033 48.0148C53.5032 46.4892 54.6758 44.0995 56.8349 41.6237C58.7939 39.3757 57.2545 36.3997 55.6929 34.06C54.3118 31.987 55.6401 29.6612 56.2819 28.5442C56.9877 27.3076 56.985 24.34 56.2736 22.3171C55.8429 21.0889 54.6036 19.5744 53.5088 18.2379C52.7863 17.357 52.1639 16.5929 51.8749 16.0399C51.1941 14.7422 47.0316 11.6301 45.7533 11.1632C44.6474 10.7603 42.9579 9.64882 41.1212 8.11774C39.5818 6.83675 32.6933 5.5891 32.6238 5.5752C32.5683 5.56409 32.5294 5.51129 32.5405 5.45294C32.5516 5.39736 32.6044 5.35846 32.6627 5.36958C32.9489 5.41959 39.6763 6.63946 41.2574 7.95657C43.0774 9.47376 44.7419 10.5714 45.8284 10.9659C47.0288 11.405 51.308 14.4977 52.0638 15.9426C52.3445 16.4762 52.9614 17.232 53.6755 18.1045C54.7787 19.455 56.0319 20.9833 56.4737 22.2476C57.2017 24.3177 57.1989 27.3688 56.4653 28.647C55.7985 29.8113 54.5591 31.9787 55.8707 33.9433C57.4712 36.3469 59.0496 39.4062 56.9961 41.7598C54.8759 44.194 53.7227 46.5226 53.9145 47.9897C54.109 49.4875 53.1864 51.9272 52.3556 52.6552C52.2722 52.7497 50.077 55.1616 48.8544 55.4756C48.8461 55.4756 48.8377 55.4784 48.8294 55.4784L48.8238 55.4756Z" fill="black"/>
<path d="M54.945 54.9645C54.9228 54.9645 54.9005 54.9562 54.8811 54.9423C54.8366 54.9062 54.8283 54.8423 54.8644 54.795C54.8922 54.7617 57.5903 51.2994 57.1902 49.4265C57.0263 48.6624 56.5872 47.9066 56.1648 47.1785C55.5285 46.0837 54.8727 44.9528 55.1756 43.7996C55.1895 43.744 55.2451 43.7107 55.3034 43.7246C55.359 43.7385 55.3924 43.7968 55.3785 43.8524C55.0978 44.9222 55.7036 45.967 56.3455 47.0757C56.7762 47.8204 57.2235 48.5874 57.393 49.3849C57.8154 51.3522 55.1423 54.7812 55.0284 54.9256C55.0089 54.9507 54.9783 54.9645 54.9478 54.9645H54.945Z" fill="black"/>
<path d="M24.8184 6.02002C24.8184 6.02002 23.6736 4.9641 19.0276 8.13186C14.3815 11.2996 12.0835 14.5313 10.0939 17.2016C8.10716 19.872 4.93662 23.5399 5.49515 27.9498C6.05367 32.3596 6.92342 32.7347 6.92342 33.3544C6.92342 33.974 7.23463 36.9584 6.36489 38.3867C5.49515 39.8149 5.1228 41.4794 6.30376 43.0077C7.48472 44.536 7.98211 44.7222 7.73203 46.2755C7.48472 47.8288 5.67854 52.5499 15.1234 55.7204C15.1234 55.7204 13.5729 53.7947 14.5038 49.1959L12.7032 43.4579L13.045 41.7406" fill="#E2ECF6"/>
<path d="M15.1258 55.8288C15.1258 55.8288 15.1036 55.8288 15.0925 55.8232C6.28389 52.8694 7.17309 48.5263 7.55377 46.6701C7.58434 46.5173 7.61213 46.3811 7.63158 46.2644C7.82609 45.0418 7.54822 44.7055 6.80629 43.8024C6.63401 43.594 6.4395 43.3578 6.22276 43.0772C5.18907 41.7378 5.20575 40.0984 6.27834 38.3367C7.00081 37.1502 6.88688 34.7994 6.83964 33.7935C6.8313 33.6017 6.82297 33.4517 6.82297 33.3572C6.82297 33.1933 6.74794 33.0376 6.62568 32.7848C6.33113 32.179 5.7865 31.0536 5.3947 27.9665C4.88063 23.9123 7.52043 20.4305 9.44887 17.8908C9.64338 17.6324 9.83233 17.3851 10.0129 17.1433L10.263 16.8071C12.1526 14.2618 14.5034 11.0968 18.9716 8.04852C23.6315 4.86966 24.843 5.90056 24.893 5.94502C24.9347 5.98393 24.9375 6.05062 24.8986 6.0923C24.8597 6.13398 24.7958 6.13676 24.7513 6.10063C24.7347 6.08674 23.5593 5.17254 19.0883 8.2208C14.6506 11.2468 12.4082 14.2673 10.4298 16.9293L10.1797 17.2656C9.99905 17.5073 9.8101 17.7574 9.61559 18.0158C7.60379 20.6695 5.10015 23.9679 5.6031 27.9387C5.98935 30.9925 6.52564 32.0984 6.81463 32.6931C6.94523 32.9654 7.03415 33.1432 7.03415 33.3572C7.03415 33.4489 7.04249 33.5962 7.05082 33.7823C7.10362 34.8938 7.21477 37.203 6.46173 38.4423C5.42527 40.1456 5.40026 41.6628 6.39226 42.9466C6.609 43.2272 6.80074 43.4607 6.97024 43.6691C7.73439 44.5972 8.05117 44.9834 7.83998 46.2977C7.82053 46.4172 7.79274 46.5562 7.7594 46.7118C7.39539 48.4929 6.54509 52.6332 14.8757 55.5259C14.4923 54.859 13.6614 52.8889 14.4006 49.2043L12.6083 43.4912C12.6027 43.4746 12.6027 43.4579 12.6055 43.4384L12.9473 41.7212C12.9584 41.6656 13.014 41.6267 13.0696 41.6406C13.1251 41.6517 13.1613 41.7073 13.1501 41.7629L12.8139 43.4551L14.6062 49.1682C14.6117 49.1848 14.6117 49.2015 14.6062 49.221C13.6975 53.7058 15.1897 55.6398 15.2064 55.6593C15.2342 55.6954 15.237 55.7454 15.212 55.7843C15.1925 55.8121 15.1592 55.8288 15.1258 55.8288Z" fill="black"/>
<path d="M13.6392 47.4619L11.7858 44.8276L9.59614 37.8391C7.17031 39.9426 7.08695 41.5237 7.6427 43.0131C8.19566 44.5025 8.49854 44.4414 8.24568 46.9089C8.06228 48.6984 8.2957 50.2795 9.05151 52.3135C10.1852 53.5056 12.0609 54.6977 15.123 55.723C15.123 55.723 13.742 54.003 14.3728 49.9405L13.6364 47.4591L13.6392 47.4619Z" fill="#848FAD"/>
<path d="M15.1258 55.8288C15.1258 55.8288 15.1036 55.8288 15.0925 55.8232C6.28389 52.8694 7.17309 48.5263 7.55377 46.6701C7.58434 46.5173 7.61213 46.3811 7.63158 46.2644C7.82609 45.0418 7.54822 44.7055 6.80629 43.8024C6.63401 43.594 6.4395 43.3578 6.22276 43.0772C5.18907 41.7378 5.20575 40.0984 6.27834 38.3367C7.00081 37.1502 6.88688 34.7994 6.83964 33.7935C6.8313 33.6017 6.82297 33.4517 6.82297 33.3572C6.82297 33.1933 6.74794 33.0376 6.62568 32.7848C6.33113 32.179 5.7865 31.0536 5.3947 27.9665C4.88063 23.9123 7.52043 20.4305 9.44887 17.8908C9.64338 17.6324 9.83233 17.3851 10.0129 17.1433L10.263 16.8071C12.1526 14.2618 14.5034 11.0968 18.9716 8.04852C23.6315 4.86966 24.843 5.90056 24.893 5.94502C24.9347 5.98393 24.9375 6.05062 24.8986 6.0923C24.8597 6.13398 24.7958 6.13676 24.7513 6.10063C24.7347 6.08674 23.5593 5.17254 19.0883 8.2208C14.6506 11.2468 12.4082 14.2673 10.4298 16.9293L10.1797 17.2656C9.99905 17.5073 9.8101 17.7574 9.61559 18.0158C7.60379 20.6695 5.10015 23.9679 5.6031 27.9387C5.98935 30.9925 6.52564 32.0984 6.81463 32.6931C6.94523 32.9654 7.03415 33.1432 7.03415 33.3572C7.03415 33.4489 7.04249 33.5962 7.05082 33.7823C7.10362 34.8938 7.21477 37.203 6.46173 38.4423C5.42527 40.1456 5.40026 41.6628 6.39226 42.9466C6.609 43.2272 6.80074 43.4607 6.97024 43.6691C7.73439 44.5972 8.05117 44.9834 7.83998 46.2977C7.82053 46.4172 7.79274 46.5562 7.7594 46.7118C7.39539 48.4929 6.54509 52.6332 14.8757 55.5259C14.4923 54.859 13.6614 52.8889 14.4006 49.2043L12.6083 43.4912C12.6027 43.4746 12.6027 43.4579 12.6055 43.4384L12.9473 41.7212C12.9584 41.6656 13.014 41.6267 13.0696 41.6406C13.1251 41.6517 13.1613 41.7073 13.1501 41.7629L12.8139 43.4551L14.6062 49.1682C14.6117 49.1848 14.6117 49.2015 14.6062 49.221C13.6975 53.7058 15.1897 55.6398 15.2064 55.6593C15.2342 55.6954 15.237 55.7454 15.212 55.7843C15.1925 55.8121 15.1592 55.8288 15.1258 55.8288Z" fill="black"/>
<path d="M16.4461 10.8357C16.4461 10.8357 14.1814 13.3755 12.5642 16.4654C10.947 19.5553 9.61041 22.0951 10.3495 23.2955C11.0887 24.4959 12.3336 25.8797 12.1946 26.8968C12.0557 27.9138 12.0529 32.5737 17.5465 33.7269C17.5465 33.7269 16.2627 32.1569 16.4433 29.8033C16.6239 27.4497 17.0852 21.356 17.0852 21.356" fill="#E2ECF6"/>
<path d="M17.5461 33.8294C17.5461 33.8294 17.5323 33.8294 17.5239 33.8294C11.3913 32.5429 12.0832 26.9382 12.0915 26.8826C12.1888 26.1629 11.5274 25.2098 10.8883 24.29C10.6716 23.9788 10.4493 23.6565 10.2603 23.3536C9.49616 22.1143 10.7911 19.6357 12.4305 16.5013L12.4722 16.4207C14.0755 13.353 16.3457 10.7937 16.368 10.7687C16.4069 10.7271 16.4736 10.7215 16.5152 10.7604C16.5569 10.7993 16.5625 10.866 16.5236 10.9077C16.5013 10.9327 14.2478 13.4724 12.6584 16.5179L12.6167 16.5985C11.0717 19.5523 9.73791 22.106 10.4409 23.2452C10.6243 23.5453 10.8466 23.8649 11.0606 24.1733C11.7247 25.1264 12.4083 26.1157 12.2999 26.9132C12.2916 26.966 11.6469 32.215 17.3044 33.5682C16.9571 33.0486 16.1985 31.6759 16.343 29.8003C16.5236 27.4467 16.9848 21.3529 16.9848 21.3529L17.1932 21.3696C17.1932 21.3696 16.732 27.4606 16.5514 29.8169C16.3763 32.0983 17.6184 33.6516 17.6295 33.6655C17.6573 33.6988 17.6601 33.7488 17.6378 33.785C17.6184 33.8155 17.585 33.835 17.5489 33.835L17.5461 33.8294Z" fill="black"/>
<path d="M6.82339 24.3931C6.82339 24.3931 5.70356 27.3274 6.82339 29.4087C7.94321 31.4899 10.8776 34.905 9.59656 37.8393C8.31556 40.7737 7.64033 42.9466 9.91333 44.4805C12.1863 46.0144 13.0561 47.0286 13.0866 47.6649C13.1172 48.3013 13.2895 50.5882 16.4433 51.1078C16.4433 51.1078 14.476 49.2266 14.8511 47.3176C15.2263 45.4086 14.7205 41.963 14.1787 40.7487C13.6368 39.5344 12.6809 37.0141 13.3756 34.0353C14.0703 31.0565 13.5785 28.8835 13.5785 28.8835" fill="#E2ECF6"/>
<path d="M16.4457 51.2105C16.4457 51.2105 16.4346 51.2105 16.429 51.2105C14.295 50.8576 13.0723 49.5989 12.9862 47.6677C12.964 47.2008 12.4054 46.2811 9.86011 44.5666C7.49263 42.9688 8.25678 40.6569 9.50443 37.7976C10.5076 35.4968 8.882 32.9209 7.57322 30.8508C7.25644 30.3506 6.95634 29.8755 6.73404 29.4586C5.6031 27.3607 6.68124 24.4792 6.72848 24.3569C6.75071 24.3041 6.80907 24.2763 6.86186 24.2958C6.91466 24.3152 6.94244 24.3763 6.92299 24.4291C6.91188 24.4569 5.83373 27.344 6.91744 29.3586C7.13973 29.7699 7.43706 30.2395 7.75106 30.7369C9.0126 32.7375 10.7437 35.4774 9.69617 37.8782C8.44852 40.7403 7.73716 42.8827 9.97682 44.3915C12.0775 45.8087 13.1612 46.9063 13.1946 47.6565C13.2724 49.4071 14.2922 50.5381 16.1456 50.941C15.6288 50.3686 14.445 48.857 14.7535 47.2925C15.1258 45.403 14.609 41.9518 14.0893 40.7847C13.0473 38.4506 12.775 36.1693 13.2807 34.0046C13.9615 31.0842 13.4891 28.9224 13.4836 28.9001C13.4725 28.8445 13.5058 28.789 13.5614 28.7751C13.6197 28.7612 13.6725 28.7973 13.6864 28.8529C13.692 28.8751 14.1755 31.0814 13.4836 34.0519C12.989 36.1721 13.2585 38.4089 14.2811 40.6986C14.8257 41.9185 15.3453 45.3724 14.9619 47.3314C14.6006 49.1654 16.5041 51.0077 16.5235 51.0271C16.5569 51.0577 16.5652 51.1077 16.5457 51.1494C16.5291 51.1855 16.4902 51.2078 16.4513 51.2078L16.4457 51.2105Z" fill="black"/>
<path d="M13.5781 32.996L13.2697 32.3152C13.2697 32.3152 12.3805 35.5274 10.6549 38.3923C9.11546 40.9459 10.1881 42.2964 10.9744 45.2391C12.4555 46.3561 13.064 47.1397 13.0863 47.6649C13.1141 48.3012 13.2891 50.5881 16.443 51.1077C16.443 51.1077 14.4756 49.2265 14.8508 47.3175C15.2259 45.4086 14.7202 41.9629 14.1783 40.7486C13.6365 39.5343 12.6806 37.014 13.3753 34.0352C13.4586 33.6768 13.5253 33.3322 13.5753 32.9988L13.5781 32.996Z" fill="#848FAD"/>
<path d="M16.4457 51.2105C16.4457 51.2105 16.4346 51.2105 16.429 51.2105C14.295 50.8576 13.0723 49.5989 12.9862 47.6677C12.964 47.2008 12.4054 46.2811 9.86011 44.5666C7.49263 42.9688 8.25678 40.6569 9.50443 37.7976C10.5076 35.4968 8.882 32.9209 7.57322 30.8508C7.25644 30.3506 6.95634 29.8755 6.73404 29.4586C5.6031 27.3607 6.68124 24.4792 6.72848 24.3569C6.75071 24.3041 6.80907 24.2763 6.86186 24.2958C6.91466 24.3152 6.94244 24.3763 6.92299 24.4291C6.91188 24.4569 5.83373 27.344 6.91744 29.3586C7.13973 29.7699 7.43706 30.2395 7.75106 30.7369C9.0126 32.7375 10.7437 35.4774 9.69617 37.8782C8.44852 40.7403 7.73716 42.8827 9.97682 44.3915C12.0775 45.8087 13.1612 46.9063 13.1946 47.6565C13.2724 49.4071 14.2922 50.5381 16.1456 50.941C15.6288 50.3686 14.445 48.857 14.7535 47.2925C15.1258 45.403 14.609 41.9518 14.0893 40.7847C13.0473 38.4506 12.775 36.1693 13.2807 34.0046C13.9615 31.0842 13.4891 28.9224 13.4836 28.9001C13.4725 28.8445 13.5058 28.789 13.5614 28.7751C13.6197 28.7612 13.6725 28.7973 13.6864 28.8529C13.692 28.8751 14.1755 31.0814 13.4836 34.0519C12.989 36.1721 13.2585 38.4089 14.2811 40.6986C14.8257 41.9185 15.3453 45.3724 14.9619 47.3314C14.6006 49.1654 16.5041 51.0077 16.5235 51.0271C16.5569 51.0577 16.5652 51.1077 16.5457 51.1494C16.5291 51.1855 16.4902 51.2078 16.4513 51.2078L16.4457 51.2105Z" fill="black"/>
<path d="M16.4452 29.8031C16.6259 27.4495 17.0871 21.3558 17.0871 21.3558L17.0232 20.2915C16.3202 20.5972 14.2445 21.9115 13.158 27.0021C12.8079 28.6499 12.9579 30.0671 13.3609 31.2647C14.1528 32.3317 15.4477 33.2848 17.5456 33.7239C17.5456 33.7239 16.2618 32.1539 16.4425 29.8003L16.4452 29.8031Z" fill="#838EAC"/>
<path d="M17.5461 33.8294C17.5461 33.8294 17.5323 33.8294 17.5239 33.8294C11.3913 32.5429 12.0832 26.9382 12.0915 26.8826C12.1888 26.1629 11.5274 25.2098 10.8883 24.29C10.6716 23.9788 10.4493 23.6565 10.2603 23.3536C9.49616 22.1143 10.7911 19.6357 12.4305 16.5013L12.4722 16.4207C14.0755 13.353 16.3457 10.7937 16.368 10.7687C16.4069 10.7271 16.4736 10.7215 16.5152 10.7604C16.5569 10.7993 16.5625 10.866 16.5236 10.9077C16.5013 10.9327 14.2478 13.4724 12.6584 16.5179L12.6167 16.5985C11.0717 19.5523 9.73791 22.106 10.4409 23.2452C10.6243 23.5453 10.8466 23.8649 11.0606 24.1733C11.7247 25.1264 12.4083 26.1157 12.2999 26.9132C12.2916 26.966 11.6469 32.215 17.3044 33.5682C16.9571 33.0486 16.1985 31.6759 16.343 29.8003C16.5236 27.4467 16.9848 21.3529 16.9848 21.3529L17.1932 21.3696C17.1932 21.3696 16.732 27.4606 16.5514 29.8169C16.3763 32.0983 17.6184 33.6516 17.6295 33.6655C17.6573 33.6988 17.6601 33.7488 17.6378 33.785C17.6184 33.8155 17.585 33.835 17.5489 33.835L17.5461 33.8294Z" fill="black"/>
<path d="M20.3164 13.1892C20.3164 13.1892 18.2824 15.4511 17.546 16.2819C16.8097 17.1128 15.9316 19.144 15.8399 20.4361C15.7482 21.7282 16.2984 25.4212 17.546 25.7435C18.7937 26.0658 19.7912 27.3135 19.8218 27.9582C19.8524 28.6028 21.4696 31.2815 23.0396 31.8817C23.0396 31.8817 21.7586 29.2975 21.8447 27.9137C21.9309 26.5299 22.117 23.4816 22.117 23.4816" fill="#E2ECF6"/>
<path d="M23.0395 31.9844C23.0395 31.9844 23.0145 31.9844 23.0034 31.9789C21.3473 31.3453 19.7523 28.6138 19.7189 27.9636C19.6884 27.3439 18.6908 26.1463 17.5209 25.8434C16.1455 25.4878 15.6509 21.6392 15.737 20.4277C15.8259 19.1856 16.6845 17.0988 17.4682 16.2124C18.2045 15.3815 20.2385 13.1196 20.2385 13.1196L20.3942 13.2586C20.3942 13.2586 18.3601 15.5205 17.6238 16.3513C16.9402 17.121 16.0371 19.1189 15.9454 20.4444C15.8454 21.8448 16.44 25.3488 17.5737 25.6434C18.8686 25.9796 19.894 27.2773 19.9273 27.9553C19.9551 28.5221 21.3584 30.9118 22.8228 31.6704C22.5004 30.9757 21.6696 29.0584 21.7418 27.908C21.828 26.5242 22.0142 23.4787 22.0142 23.4787L22.2226 23.4899C22.2226 23.4899 22.0364 26.5353 21.9502 27.9219C21.8669 29.2641 23.1201 31.8121 23.134 31.8372C23.1534 31.8761 23.1451 31.9205 23.1173 31.9539C23.0979 31.9761 23.0701 31.9872 23.0395 31.9872V31.9844Z" fill="black"/>
<path d="M21.8473 27.9109C21.9335 26.5271 22.1196 23.4788 22.1196 23.4788L21.7862 21.5698C21.425 21.7866 19.4465 23.0453 19.0297 25.0321C18.938 25.4628 18.9463 26.0102 19.013 26.6077C19.4937 27.0717 19.8077 27.6024 19.8244 27.9581C19.8577 28.6056 21.4722 31.2815 23.0422 31.8817C23.0422 31.8817 21.7612 29.2975 21.8473 27.9137V27.9109Z" fill="#838EAC"/>
<path d="M23.0395 31.9844C23.0395 31.9844 23.0145 31.9844 23.0034 31.9789C21.3473 31.3453 19.7523 28.6138 19.7189 27.9636C19.6884 27.3439 18.6908 26.1463 17.5209 25.8434C16.1455 25.4878 15.6509 21.6392 15.737 20.4277C15.8259 19.1856 16.6845 17.0988 17.4682 16.2124C18.2045 15.3815 20.2385 13.1196 20.2385 13.1196L20.3942 13.2586C20.3942 13.2586 18.3601 15.5205 17.6238 16.3513C16.9402 17.121 16.0371 19.1189 15.9454 20.4444C15.8454 21.8448 16.44 25.3488 17.5737 25.6434C18.8686 25.9796 19.894 27.2773 19.9273 27.9553C19.9551 28.5221 21.3584 30.9118 22.8228 31.6704C22.5004 30.9757 21.6696 29.0584 21.7418 27.908C21.828 26.5242 22.0142 23.4787 22.0142 23.4787L22.2226 23.4899C22.2226 23.4899 22.0364 26.5353 21.9502 27.9219C21.8669 29.2641 23.1201 31.8121 23.134 31.8372C23.1534 31.8761 23.1451 31.9205 23.1173 31.9539C23.0979 31.9761 23.0701 31.9872 23.0395 31.9872V31.9844Z" fill="black"/>
<path d="M21.4392 17.0654C21.4392 17.0654 20.4556 18.866 20.5945 20.6667C20.7334 22.4673 21.2836 25.4655 22.5785 26.0657C23.8734 26.6659 27.7025 30.0338 27.7025 31.1425C27.7025 32.2512 28.3027 35.6857 33.196 36.9445C33.196 36.9445 32.0123 32.3873 35.8358 29.5725C39.6566 26.7576 38.32 18.8188 36.5194 17.435" fill="#E2ECF6"/>
<path d="M33.1955 37.0475C33.1955 37.0475 33.1788 37.0474 33.1705 37.0447C31.042 36.4973 29.4803 35.4886 28.53 34.0436C27.6686 32.7376 27.6019 31.4928 27.6019 31.1426C27.6019 30.1423 23.9034 26.7939 22.5391 26.1604C21.297 25.5852 20.6634 22.8454 20.4967 20.6724C20.3578 18.8634 21.3136 17.0906 21.3553 17.0156C21.3831 16.9656 21.447 16.9461 21.497 16.9739C21.5471 17.0017 21.5665 17.0656 21.5387 17.1156C21.5276 17.1323 20.5717 18.9107 20.7051 20.6585C20.8663 22.7731 21.4693 25.4351 22.628 25.9714C23.9784 26.5994 27.8131 29.9756 27.8131 31.1426C27.8131 31.5789 27.9604 35.408 33.0649 36.8001C32.8982 35.9387 32.3647 32.0041 35.7797 29.4893C37.8415 27.9693 38.1778 25.1045 38.1944 23.5317C38.2222 20.9697 37.4442 18.2743 36.4633 17.5185C36.4188 17.4824 36.4077 17.4185 36.4438 17.3713C36.4772 17.3268 36.5439 17.3185 36.5911 17.3518C37.6359 18.1549 38.4334 20.8697 38.4056 23.5345C38.3889 25.1461 38.0416 28.086 35.9075 29.6588C32.1896 32.3986 33.2955 36.8752 33.3066 36.9196C33.315 36.9558 33.3066 36.9919 33.2789 37.0197C33.2594 37.0391 33.2316 37.0502 33.2038 37.0502L33.1955 37.0475Z" fill="black"/>
<path d="M34.8238 26.2186C33.3205 26.313 31.2531 26.4992 29.4247 25.5878C27.5963 24.6764 25.7095 21.8949 23.8617 23.1175C22.7113 23.8789 23.4616 25.8156 24.1924 27.1689C25.7762 28.436 27.7019 30.3561 27.7019 31.1425C27.7019 32.2512 28.3021 35.6857 33.1954 36.9445C33.1954 36.9445 32.5008 34.2296 33.9374 31.6954C34.193 29.2168 35.9714 26.1491 34.8238 26.2213V26.2186Z" fill="#838EAC"/>
<path d="M33.1955 37.0475C33.1955 37.0475 33.1788 37.0474 33.1705 37.0447C31.042 36.4973 29.4803 35.4886 28.53 34.0436C27.6686 32.7376 27.6019 31.4928 27.6019 31.1426C27.6019 30.1423 23.9034 26.7939 22.5391 26.1604C21.297 25.5852 20.6634 22.8454 20.4967 20.6724C20.3578 18.8634 21.3136 17.0906 21.3553 17.0156C21.3831 16.9656 21.447 16.9461 21.497 16.9739C21.5471 17.0017 21.5665 17.0656 21.5387 17.1156C21.5276 17.1323 20.5717 18.9107 20.7051 20.6585C20.8663 22.7731 21.4693 25.4351 22.628 25.9714C23.9784 26.5994 27.8131 29.9756 27.8131 31.1426C27.8131 31.5789 27.9604 35.408 33.0649 36.8001C32.8982 35.9387 32.3647 32.0041 35.7797 29.4893C37.8415 27.9693 38.1778 25.1045 38.1944 23.5317C38.2222 20.9697 37.4442 18.2743 36.4633 17.5185C36.4188 17.4824 36.4077 17.4185 36.4438 17.3713C36.4772 17.3268 36.5439 17.3185 36.5911 17.3518C37.6359 18.1549 38.4334 20.8697 38.4056 23.5345C38.3889 25.1461 38.0416 28.086 35.9075 29.6588C32.1896 32.3986 33.2955 36.8752 33.3066 36.9196C33.315 36.9558 33.3066 36.9919 33.2789 37.0197C33.2594 37.0391 33.2316 37.0502 33.2038 37.0502L33.1955 37.0475Z" fill="black"/>
<path d="M40.6541 27.7221C38.9591 26.8773 39.915 27.7776 38.9591 26.8773C38.7368 26.6689 38.4117 26.7217 38.0421 26.9412C37.9115 29.6561 35.6357 31.5122 35.6357 31.5122C38.0199 30.9287 39.7399 29.7311 40.9459 28.2583C40.9626 28.0249 40.8792 27.836 40.6514 27.7248L40.6541 27.7221Z" fill="#838EAC"/>
<path d="M35.638 31.615C35.5991 31.615 35.563 31.5927 35.5436 31.5566C35.5213 31.5122 35.5324 31.4594 35.5713 31.4288C35.5991 31.4066 38.3584 29.1252 37.8999 25.988C37.8916 25.9325 37.9305 25.8797 37.9888 25.8713C38.0444 25.863 38.0972 25.9019 38.1055 25.9603C38.4835 28.5556 36.7467 30.5785 36.0132 31.3037C39.6533 30.2756 41.4206 27.8192 42.2625 25.9075C43.613 22.8453 43.4518 19.2441 42.5154 17.5324C42.4876 17.4823 42.5071 17.4184 42.5571 17.3907C42.6071 17.3629 42.671 17.3823 42.6988 17.4323C43.6602 19.1885 43.8297 22.8703 42.4543 25.9936C41.5623 28.0193 39.6561 30.6396 35.6603 31.615C35.6519 31.615 35.6436 31.6177 35.6353 31.6177L35.638 31.615Z" fill="black"/>
<path d="M52.4554 30.4253C51.9552 30.1836 51.5384 30.228 51.1883 30.4587L50.9576 38.0391L49.8906 43.013C49.8906 43.013 48.479 47.4117 49.132 49.3429C49.785 51.2742 48.8208 55.37 48.8208 55.37C50.0268 55.0588 52.2775 52.5718 52.2775 52.5718C53.0417 51.9021 53.9976 49.5124 53.8003 48.0008C53.6919 47.1672 54.017 46.0668 54.6756 44.8442C54.6756 44.8386 54.6756 44.8331 54.6756 44.8275C54.1754 39.6396 56.8986 38.1363 56.8986 38.1363C56.8986 38.1363 55.1508 31.7341 52.4526 30.4253H52.4554Z" fill="#838EAC"/>
<path d="M48.8238 55.4756C48.796 55.4756 48.771 55.4645 48.7516 55.4451C48.7266 55.4201 48.7155 55.3812 48.7238 55.3478C48.7321 55.3061 49.6714 51.2603 49.0378 49.3763C48.382 47.434 49.738 43.1603 49.7964 42.9797L50.8606 38.0141L51.2552 25.0124C51.2552 24.9541 51.3136 24.9152 51.3636 24.9124C51.422 24.9124 51.4664 24.9624 51.4636 25.0208L51.0663 38.0419L49.9965 43.0353C49.9798 43.0881 48.6015 47.434 49.2351 49.3096C49.8186 51.038 49.1489 54.3919 48.9683 55.2144C50.1632 54.7504 52.1861 52.5246 52.2056 52.5024C52.9141 51.88 53.9006 49.5319 53.7033 48.0148C53.5032 46.4892 54.6758 44.0995 56.8349 41.6237C58.7939 39.3757 57.2545 36.3997 55.6929 34.06C54.3118 31.987 55.6401 29.6612 56.2819 28.5442C56.9877 27.3076 56.985 24.34 56.2736 22.3171C55.8429 21.0889 54.6036 19.5744 53.5088 18.2379C52.7863 17.357 52.1639 16.5929 51.8749 16.0399C51.1941 14.7422 47.0316 11.6301 45.7533 11.1632C44.6474 10.7603 42.9579 9.64882 41.1212 8.11774C39.5818 6.83675 32.6933 5.5891 32.6238 5.5752C32.5683 5.56409 32.5294 5.51129 32.5405 5.45294C32.5516 5.39736 32.6044 5.35846 32.6627 5.36958C32.9489 5.41959 39.6763 6.63946 41.2574 7.95657C43.0774 9.47376 44.7419 10.5714 45.8284 10.9659C47.0288 11.405 51.308 14.4977 52.0638 15.9426C52.3445 16.4762 52.9614 17.232 53.6755 18.1045C54.7787 19.455 56.0319 20.9833 56.4737 22.2476C57.2017 24.3177 57.1989 27.3688 56.4653 28.647C55.7985 29.8113 54.5591 31.9787 55.8707 33.9433C57.4712 36.3469 59.0496 39.4062 56.9961 41.7598C54.8759 44.194 53.7227 46.5226 53.9145 47.9897C54.109 49.4875 53.1864 51.9272 52.3556 52.6552C52.2722 52.7497 50.077 55.1616 48.8544 55.4756C48.8461 55.4756 48.8377 55.4784 48.8294 55.4784L48.8238 55.4756Z" fill="black"/>
<path d="M44.0137 11.0635C44.0137 11.0635 47.8289 13.2698 48.2401 14.4035C48.6514 15.5372 51.1161 18.0687 51.9247 19.1051C52.7333 20.1416 55.0702 23.3288 54.9396 27.0051C54.809 30.6813 53.5141 31.251 53.189 32.1652C52.8639 33.0794 52.6694 35.0578 53.3835 36.1276C54.0977 37.1974 55.751 39.6955 53.7392 41.3155C51.7274 42.9355 50.4964 44.4944 50.5604 45.5948C50.6243 46.6951 50.527 51.1911 47.4148 52.1859C47.4148 52.1859 48.732 51.1633 48.4374 46.5479C48.1456 41.9352 49.6684 38.9008 49.4739 36.1193C49.2821 33.3378 47.426 28.9029 47.426 28.9029" fill="#E2ECF6"/>
<path d="M47.4169 52.2942C47.378 52.2942 47.3419 52.2748 47.3252 52.2387C47.303 52.1942 47.3141 52.1386 47.353 52.1081C47.3641 52.0969 48.6201 51.0382 48.3367 46.5589C48.1727 43.9608 48.5784 41.874 48.9341 40.0317C49.2147 38.5868 49.4565 37.3391 49.3731 36.1304C49.1842 33.3989 47.3502 28.9918 47.3335 28.9473C47.3113 28.8945 47.3335 28.8334 47.3891 28.8112C47.4419 28.7889 47.503 28.8112 47.5253 28.8668C47.5447 28.9112 49.3898 33.3488 49.5815 36.1165C49.6677 37.353 49.4231 38.6145 49.1397 40.0734C48.784 41.9018 48.3811 43.9747 48.5451 46.545C48.7562 49.8906 48.131 51.3717 47.7503 51.9497C50.718 50.6298 50.4707 45.8142 50.4596 45.603C50.3957 44.511 51.5378 42.9605 53.6774 41.2349C55.6197 39.6677 53.9941 37.228 53.2995 36.1859C52.5409 35.0494 52.791 32.9821 53.0938 32.129C53.1855 31.8733 53.3467 31.6455 53.5301 31.3815C54.0414 30.659 54.7444 29.667 54.8389 26.9967C54.9556 23.665 53.0133 20.6612 51.8462 19.1662C51.61 18.8633 51.2377 18.4382 50.8042 17.9463C49.751 16.7487 48.4422 15.2565 48.1449 14.434C47.7531 13.3475 44.0018 11.1718 43.9629 11.1496C43.9129 11.1218 43.8962 11.0579 43.924 11.0079C43.9518 10.9578 44.0157 10.9412 44.0657 10.969C44.2241 11.0607 47.9198 13.2058 48.3394 14.3646C48.6229 15.1482 49.9178 16.6237 50.9598 17.8102C51.3933 18.3048 51.7684 18.7327 52.0101 19.0384C53.1967 20.5556 55.1668 23.6094 55.0473 27.005C54.95 29.7365 54.1998 30.798 53.7024 31.501C53.5245 31.7511 53.3717 31.9678 53.2911 32.1957C53.0021 33.0154 52.7576 34.9911 53.4745 36.0664C54.1998 37.1557 55.9004 39.7066 53.8108 41.3933C51.7267 43.0744 50.6124 44.5638 50.6708 45.5864C50.6847 45.8142 50.957 51.1605 47.453 52.2831C47.4419 52.2859 47.4308 52.2887 47.4225 52.2887L47.4169 52.2942Z" fill="black"/>
<path d="M51.3353 37.3032C49.7792 36.9503 51.1241 32.1709 51.3575 30.4203C51.5743 28.7892 48.6066 27.3609 48.0481 27.0247L47.434 28.9059C47.434 28.9059 49.2902 33.3407 49.4819 36.1222C49.6736 38.9037 48.1509 41.9381 48.4454 46.5508C48.7372 51.1635 47.4229 52.1888 47.4229 52.1888C49.7125 51.4552 50.3683 48.8349 50.5295 47.0593C50.5434 46.6091 50.5573 46.1729 50.5739 45.7644C50.5739 45.7033 50.5712 45.6421 50.5684 45.5949C50.56 45.456 50.5739 45.3115 50.6045 45.1614C50.6795 43.786 50.824 42.8134 51.2214 42.73C52.5468 42.4494 52.897 37.6533 51.3409 37.3004L51.3353 37.3032Z" fill="#838EAC"/>
<path d="M47.4169 52.2942C47.378 52.2942 47.3419 52.2748 47.3252 52.2387C47.303 52.1942 47.3141 52.1386 47.353 52.1081C47.3641 52.0969 48.6201 51.0382 48.3367 46.5589C48.1727 43.9608 48.5784 41.874 48.9341 40.0317C49.2147 38.5868 49.4565 37.3391 49.3731 36.1304C49.1842 33.3989 47.3502 28.9918 47.3335 28.9473C47.3113 28.8945 47.3335 28.8334 47.3891 28.8112C47.4419 28.7889 47.503 28.8112 47.5253 28.8668C47.5447 28.9112 49.3898 33.3488 49.5815 36.1165C49.6677 37.353 49.4231 38.6145 49.1397 40.0734C48.784 41.9018 48.3811 43.9747 48.5451 46.545C48.7562 49.8906 48.131 51.3717 47.7503 51.9497C50.718 50.6298 50.4707 45.8142 50.4596 45.603C50.3957 44.511 51.5378 42.9605 53.6774 41.2349C55.6197 39.6677 53.9941 37.228 53.2995 36.1859C52.5409 35.0494 52.791 32.9821 53.0938 32.129C53.1855 31.8733 53.3467 31.6455 53.5301 31.3815C54.0414 30.659 54.7444 29.667 54.8389 26.9967C54.9556 23.665 53.0133 20.6612 51.8462 19.1662C51.61 18.8633 51.2377 18.4382 50.8042 17.9463C49.751 16.7487 48.4422 15.2565 48.1449 14.434C47.7531 13.3475 44.0018 11.1718 43.9629 11.1496C43.9129 11.1218 43.8962 11.0579 43.924 11.0079C43.9518 10.9578 44.0157 10.9412 44.0657 10.969C44.2241 11.0607 47.9198 13.2058 48.3394 14.3646C48.6229 15.1482 49.9178 16.6237 50.9598 17.8102C51.3933 18.3048 51.7684 18.7327 52.0101 19.0384C53.1967 20.5556 55.1668 23.6094 55.0473 27.005C54.95 29.7365 54.1998 30.798 53.7024 31.501C53.5245 31.7511 53.3717 31.9678 53.2911 32.1957C53.0021 33.0154 52.7576 34.9911 53.4745 36.0664C54.1998 37.1557 55.9004 39.7066 53.8108 41.3933C51.7267 43.0744 50.6124 44.5638 50.6708 45.5864C50.6847 45.8142 50.957 51.1605 47.453 52.2831C47.4419 52.2859 47.4308 52.2887 47.4225 52.2887L47.4169 52.2942Z" fill="black"/>
<path d="M43.5938 31.8707C43.566 31.8707 43.541 31.8596 43.5216 31.8401C43.4993 31.8179 43.4882 31.7845 43.491 31.7512C43.4965 31.7095 44.0884 27.6581 43.0019 25.4963C42.9769 25.4462 42.9964 25.3823 43.0492 25.3573C43.0992 25.3323 43.1631 25.3518 43.1881 25.4046C44.1996 27.4191 43.8133 30.8898 43.7161 31.6428C45.1388 31.3955 46.2419 30.6619 47.0033 29.4671C48.3149 27.4052 48.1926 24.5765 48.0676 24.1569C47.8869 23.5512 47.773 22.234 48.0453 20.5112C48.326 18.7273 45.3333 15.6679 43.5243 14.0034C42.3739 12.9447 41.6654 12.7502 41.2708 12.7725C40.9818 12.7891 40.8623 12.9253 40.8568 12.9308C40.8206 12.9725 40.7539 12.9809 40.7095 12.9447C40.665 12.9086 40.6595 12.8447 40.6956 12.8002C40.7011 12.7919 40.8679 12.5946 41.243 12.5668C41.6709 12.5335 42.449 12.7336 43.666 13.8506C45.914 15.918 48.5344 18.7578 48.251 20.5446C47.9842 22.234 48.0926 23.515 48.2676 24.0986C48.3982 24.5348 48.5288 27.458 47.1811 29.5782C46.3642 30.8648 45.161 31.6373 43.6105 31.8707C43.6049 31.8707 43.5994 31.8707 43.5938 31.8707Z" fill="black"/>
<path d="M43.4692 26.4937C44.0417 28.75 43.5943 31.7649 43.5943 31.7649C44.2278 31.6705 44.7752 31.4871 45.2532 31.237C45.3143 29.3252 45.2532 27.0994 45.2448 26.3242C45.2365 25.4211 44.1917 25.9907 43.472 26.4937H43.4692Z" fill="#838EAC"/>
<path d="M43.5938 31.8707C43.566 31.8707 43.541 31.8596 43.5216 31.8401C43.4993 31.8179 43.4882 31.7845 43.491 31.7512C43.4965 31.7095 44.0884 27.6581 43.0019 25.4963C42.9769 25.4462 42.9964 25.3823 43.0492 25.3573C43.0992 25.3323 43.1631 25.3518 43.1881 25.4046C44.1996 27.4191 43.8133 30.8898 43.7161 31.6428C45.1388 31.3955 46.2419 30.6619 47.0033 29.4671C48.3149 27.4052 48.1926 24.5765 48.0676 24.1569C47.8869 23.5512 47.773 22.234 48.0453 20.5112C48.326 18.7273 45.3333 15.6679 43.5243 14.0034C42.3739 12.9447 41.6654 12.7502 41.2708 12.7725C40.9818 12.7891 40.8623 12.9253 40.8568 12.9308C40.8206 12.9725 40.7539 12.9809 40.7095 12.9447C40.665 12.9086 40.6595 12.8447 40.6956 12.8002C40.7011 12.7919 40.8679 12.5946 41.243 12.5668C41.6709 12.5335 42.449 12.7336 43.666 13.8506C45.914 15.918 48.5344 18.7578 48.251 20.5446C47.9842 22.234 48.0926 23.515 48.2676 24.0986C48.3982 24.5348 48.5288 27.458 47.1811 29.5782C46.3642 30.8648 45.161 31.6373 43.6105 31.8707C43.6049 31.8707 43.5994 31.8707 43.5938 31.8707Z" fill="black"/>
<path d="M29.0055 4.78619C29.0055 4.78619 27.2104 4.03594 26.0989 4.65559C24.9874 5.27525 21.9197 7.6594 21.5918 7.9206C21.2639 8.1818 18.2601 10.616 18.7825 13.1863C19.3049 15.7566 22.1142 18.3047 22.1142 18.3047C22.1142 18.3047 21.4612 15.0397 22.2782 13.3419C23.0951 11.6441 26.6547 8.14846 26.6547 8.14846L29.0055 4.78619Z" fill="#E2ECF6"/>
<path d="M22.1146 18.4105C22.0896 18.4105 22.0646 18.4022 22.0452 18.3827C21.9284 18.2771 19.2053 15.7818 18.6829 13.2087C18.1688 10.6773 20.9642 8.29314 21.5283 7.84021C21.8979 7.54566 24.9323 5.1893 26.0493 4.56409C27.1914 3.92498 28.9725 4.65856 29.0476 4.68913C29.0753 4.70024 29.0976 4.72525 29.1087 4.75582C29.117 4.78638 29.1115 4.81973 29.0948 4.84474L26.744 8.207C26.6968 8.25702 23.1761 11.7221 22.3758 13.3838C21.5839 15.0316 22.2147 18.2493 22.2202 18.2827C22.2286 18.3271 22.2091 18.3716 22.1702 18.3938C22.1535 18.4022 22.1369 18.4077 22.1202 18.4077L22.1146 18.4105ZM27.183 4.51407C26.819 4.51407 26.455 4.5752 26.1493 4.7447C25.0517 5.3588 21.9729 7.74851 21.6561 8.00138C21.1059 8.44042 18.3939 10.7523 18.8857 13.167C19.3081 15.2455 21.2782 17.3407 21.9562 18.0104C21.8145 17.1406 21.5033 14.7148 22.1841 13.2976C22.9983 11.6026 26.4355 8.21812 26.58 8.0764L28.8419 4.8364C28.5696 4.73637 27.8777 4.51407 27.183 4.51407Z" fill="black"/>
<path d="M38.5093 20.7555C38.5093 20.7555 42.1661 18.3019 42.2328 14.5979C42.2995 10.8938 37.5951 8.50966 36.3864 7.82331C35.1776 7.13697 33.1686 4.36102 32.6379 4.06925C32.1071 3.77748 31.4736 3.72747 31.1707 4.06925C31.1707 4.06925 30.5733 7.29813 31.5236 8.53189C32.4739 9.76565 33.8022 11.1939 35.864 12.2943C37.9258 13.3919 38.9984 15.2064 38.9706 16.6902C38.9428 18.1741 38.5093 20.7555 38.5093 20.7555Z" fill="#E2ECF6"/>
<path d="M38.5091 20.8585C38.4897 20.8585 38.4702 20.853 38.4536 20.8419C38.4174 20.8196 38.4008 20.7779 38.4063 20.7363C38.4119 20.7113 38.837 18.1437 38.8648 16.6849C38.8898 15.365 37.9562 13.5227 35.8138 12.3834C33.5991 11.2024 32.257 9.65468 31.4401 8.59321C30.4731 7.33722 31.0427 4.18337 31.0677 4.04999C31.0705 4.03054 31.0788 4.01386 31.0927 3.99997C31.4095 3.64151 32.0653 3.63318 32.6877 3.97774C32.9156 4.10556 33.3602 4.61407 33.9215 5.25595C34.7273 6.18127 35.7304 7.33167 36.4362 7.7318L36.678 7.86796C38.2424 8.7377 42.3966 11.0468 42.3327 14.598C42.266 18.3132 38.6008 20.8141 38.5647 20.8391C38.548 20.8502 38.5258 20.8557 38.5064 20.8557L38.5091 20.8585ZM31.2678 4.11668C31.2122 4.44179 30.7426 7.34556 31.604 8.46817C32.4098 9.51575 33.7297 11.0385 35.911 12.2028C38.1312 13.3865 39.0982 15.3094 39.0704 16.6932C39.0482 17.8964 38.7592 19.8387 38.6509 20.5251C39.4122 19.9471 42.0715 17.7047 42.127 14.598C42.1882 11.1719 38.1118 8.90443 36.5779 8.05414L36.3334 7.91798C35.5943 7.49839 34.58 6.3341 33.7631 5.39767C33.2601 4.81969 32.7822 4.27228 32.5877 4.16391C32.0736 3.87771 31.5262 3.86381 31.2678 4.12223V4.11668Z" fill="black"/>
<path d="M22.9621 12.2639C21.745 12.8919 20.5807 14.598 20.5807 14.598C19.9805 14.2868 19.322 12.3472 18.9885 11.2385C18.7551 11.8554 18.6467 12.5167 18.7829 13.1892C19.3053 15.7595 22.1146 18.3076 22.1146 18.3076C22.1146 18.3076 21.4616 15.0426 22.2785 13.3448C22.4286 13.0336 22.6703 12.664 22.9621 12.2667V12.2639Z" fill="#848FAD"/>
<path d="M38.9677 16.6875C38.9454 17.9601 38.6231 20.033 38.5314 20.5999C43.936 14.0115 36.2362 9.60725 34.2688 9.27102C33.0212 9.05706 32.0014 8.61524 31.3706 8.28735C31.4151 8.37349 31.4651 8.45408 31.5207 8.52632C32.4682 9.76008 33.7992 11.1883 35.861 12.2887C37.9229 13.3863 38.9927 15.2008 38.9677 16.6847V16.6875Z" fill="#848FAD"/>
<path d="M22.1146 18.4105C22.0896 18.4105 22.0646 18.4022 22.0452 18.3827C21.9284 18.2771 19.2053 15.7818 18.6829 13.2087C18.1688 10.6773 20.9642 8.29314 21.5283 7.84021C21.8979 7.54566 24.9323 5.1893 26.0493 4.56409C27.1914 3.92498 28.9725 4.65856 29.0476 4.68913C29.0753 4.70024 29.0976 4.72525 29.1087 4.75582C29.117 4.78638 29.1115 4.81973 29.0948 4.84474L26.744 8.207C26.6968 8.25702 23.1761 11.7221 22.3758 13.3838C21.5839 15.0316 22.2147 18.2493 22.2202 18.2827C22.2286 18.3271 22.2091 18.3716 22.1702 18.3938C22.1535 18.4022 22.1369 18.4077 22.1202 18.4077L22.1146 18.4105ZM27.183 4.51407C26.819 4.51407 26.455 4.5752 26.1493 4.7447C25.0517 5.3588 21.9729 7.74851 21.6561 8.00138C21.1059 8.44042 18.3939 10.7523 18.8857 13.167C19.3081 15.2455 21.2782 17.3407 21.9562 18.0104C21.8145 17.1406 21.5033 14.7148 22.1841 13.2976C22.9983 11.6026 26.4355 8.21812 26.58 8.0764L28.8419 4.8364C28.5696 4.73637 27.8777 4.51407 27.183 4.51407Z" fill="black"/>
<path d="M38.5091 20.8585C38.4897 20.8585 38.4702 20.853 38.4536 20.8419C38.4174 20.8196 38.4008 20.7779 38.4063 20.7363C38.4119 20.7113 38.837 18.1437 38.8648 16.6849C38.8898 15.365 37.9562 13.5227 35.8138 12.3834C33.5991 11.2024 32.257 9.65468 31.4401 8.59321C30.4731 7.33722 31.0427 4.18337 31.0677 4.04999C31.0705 4.03054 31.0788 4.01386 31.0927 3.99997C31.4095 3.64151 32.0653 3.63318 32.6877 3.97774C32.9156 4.10556 33.3602 4.61407 33.9215 5.25595C34.7273 6.18127 35.7304 7.33167 36.4362 7.7318L36.678 7.86796C38.2424 8.7377 42.3966 11.0468 42.3327 14.598C42.266 18.3132 38.6008 20.8141 38.5647 20.8391C38.548 20.8502 38.5258 20.8557 38.5064 20.8557L38.5091 20.8585ZM31.2678 4.11668C31.2122 4.44179 30.7426 7.34556 31.604 8.46817C32.4098 9.51575 33.7297 11.0385 35.911 12.2028C38.1312 13.3865 39.0982 15.3094 39.0704 16.6932C39.0482 17.8964 38.7592 19.8387 38.6509 20.5251C39.4122 19.9471 42.0715 17.7047 42.127 14.598C42.1882 11.1719 38.1118 8.90443 36.5779 8.05414L36.3334 7.91798C35.5943 7.49839 34.58 6.3341 33.7631 5.39767C33.2601 4.81969 32.7822 4.27228 32.5877 4.16391C32.0736 3.87771 31.5262 3.86381 31.2678 4.12223V4.11668Z" fill="black"/>
<path d="M32.4985 25.5879C32.4318 21.4087 30.898 20.2333 29.0056 19.5136C27.1133 18.7939 23.7538 16.4125 23.865 12.5251C23.9761 8.64044 28.2359 4.55571 29.4363 3.87214C30.6368 3.18857 31.0952 4.00274 30.8674 4.41121C30.6395 4.81969 27.8136 7.49838 28.1804 10.2743C28.5472 13.0503 31.3703 16.2486 32.6374 17.0655C33.9045 17.8825 35.6329 23.3344 32.4985 25.5879Z" fill="#E2ECF6"/>
<path d="M32.4988 25.6934C32.4821 25.6934 32.4655 25.6906 32.4516 25.6823C32.4182 25.6656 32.396 25.6295 32.3932 25.5906C32.3321 21.6726 31.0372 20.3971 28.967 19.6135C27.1164 18.9105 23.643 16.5263 23.7597 12.525C23.8709 8.6542 28.1112 4.50834 29.3839 3.78309C30.2508 3.28847 30.6843 3.5719 30.8316 3.7164C31.0344 3.91647 31.0872 4.23046 30.9594 4.4611C30.9149 4.5389 30.801 4.67506 30.6287 4.87791C29.8368 5.81434 27.9862 8.00676 28.2835 10.2575C28.653 13.0529 31.5429 16.2318 32.6933 16.9765C33.4464 17.4628 34.3189 19.4273 34.3717 21.4725C34.405 22.7702 34.116 24.5541 32.5599 25.6711C32.5433 25.685 32.521 25.6906 32.4988 25.6906V25.6934ZM30.2619 3.71084C30.0758 3.71084 29.8229 3.77197 29.4867 3.9637C28.239 4.67506 24.0765 8.74034 23.9681 12.5305C23.857 16.4152 27.2387 18.7354 29.0421 19.419C31.0983 20.1998 32.4933 21.5197 32.5988 25.3849C33.941 24.3151 34.1938 22.684 34.1633 21.4808C34.116 19.5579 33.288 17.61 32.5822 17.1543C31.2484 16.2929 28.4502 13.0891 28.0779 10.2881C27.7666 7.94285 29.6617 5.70319 30.4703 4.74453C30.6232 4.56391 30.7427 4.42219 30.776 4.36106C30.8594 4.21379 30.8205 3.99983 30.6843 3.86645C30.6232 3.80532 30.4926 3.71362 30.2619 3.71362V3.71084Z" fill="black"/>
<defs>
<linearGradient id="paint0_linear_823_46345" x1="31.4924" y1="26.6356" x2="31.4924" y2="68.8" gradientUnits="userSpaceOnUse">
<stop stop-color="#FCE9DA"/>
<stop offset="1" stop-color="#E7B7A9"/>
</linearGradient>
</defs>
</svg>
