<svg width="64" height="61" viewBox="0 0 64 61" fill="none" xmlns="http://www.w3.org/2000/svg">
<path d="M13.8512 49.6108H11.084V59.2746H13.8512V49.6108Z" fill="#FEEFEA"/>
<path d="M13.9187 59.3421H11.019V49.5459H13.9187V59.3421ZM11.1515 59.207H13.7863V49.6756H11.1515V59.207Z" fill="black"/>
<path d="M13.8512 49.6108H11.084V50.5675H13.8512V49.6108Z" fill="#4D373A"/>
<path d="M13.9187 50.6323H11.019V49.5432H13.9187V50.6323ZM11.1515 50.4999H13.7863V49.6756H11.1515V50.4999Z" fill="black"/>
<path d="M13.8309 50.5007L12.667 51.0024L12.7194 51.1241L13.8833 50.6223L13.8309 50.5007Z" fill="black"/>
<path d="M13.8537 51.2158H12.8916V51.3482H13.8537V51.2158Z" fill="black"/>
<path d="M13.0397 51.6716L12.9395 51.7581L13.8042 52.7609L13.9045 52.6744L13.0397 51.6716Z" fill="black"/>
<path d="M12.9521 51.9096L12.8296 51.9597L13.7915 54.3108L13.914 54.2607L12.9521 51.9096Z" fill="black"/>
<path d="M12.6129 51.9217L12.4839 51.9514L13.7 57.2398L13.829 57.2101L12.6129 51.9217Z" fill="black"/>
<path d="M12.5079 52.2507H12.3755V56.6097H12.5079V52.2507Z" fill="black"/>
<path d="M11.1071 50.5298L11.0547 50.6514L12.164 51.1296L12.2164 51.008L11.1071 50.5298Z" fill="black"/>
<path d="M11.9915 51.2239H11.124V51.3563H11.9915V51.2239Z" fill="black"/>
<path d="M11.844 51.6965L11.041 52.6277L11.1413 52.7142L11.9443 51.783L11.844 51.6965Z" fill="black"/>
<path d="M11.9253 51.9078L11.019 54.124L11.1416 54.1741L12.0478 51.9579L11.9253 51.9078Z" fill="black"/>
<path d="M12.2732 51.9304L11.0581 57.219L11.1872 57.2486L12.4023 51.96L12.2732 51.9304Z" fill="black"/>
<path d="M13.8532 57.053C13.4532 56.7747 12.9668 56.6125 12.4425 56.6125C11.9183 56.6125 11.4751 56.7612 11.0859 57.0179V59.2771H13.8532V57.0557V57.053Z" fill="#C6C1BE"/>
<path d="M13.8974 59.3177H11.041V56.9909L11.0599 56.9774C11.4707 56.7072 11.949 56.5667 12.4409 56.5667C12.957 56.5667 13.4543 56.7207 13.8785 57.0152L13.8974 57.0288V59.3177ZM11.1302 59.2312H13.811V57.0747C13.4056 56.7991 12.9327 56.6531 12.4436 56.6531C11.9544 56.6531 11.522 56.7855 11.1302 57.0369V59.2285V59.2312Z" fill="black"/>
<path d="M12.4403 52.251C12.8836 52.251 13.2429 51.8916 13.2429 51.4484C13.2429 51.0051 12.8836 50.6458 12.4403 50.6458C11.997 50.6458 11.6377 51.0051 11.6377 51.4484C11.6377 51.8916 11.997 52.251 12.4403 52.251Z" fill="#B32032"/>
<path d="M12.4404 52.2727C11.9864 52.2727 11.6162 51.9025 11.6162 51.4485C11.6162 50.9945 11.9864 50.6243 12.4404 50.6243C12.8944 50.6243 13.2647 50.9945 13.2647 51.4485C13.2647 51.9025 12.8944 52.2727 12.4404 52.2727ZM12.4404 50.6702C12.0108 50.6702 11.6594 51.0188 11.6594 51.4512C11.6594 51.8836 12.0081 52.2322 12.4404 52.2322C12.8728 52.2322 13.2214 51.8836 13.2214 51.4512C13.2214 51.0188 12.8728 50.6702 12.4404 50.6702Z" fill="black"/>
<path d="M12.7291 46.2839H12.5967V49.6322H12.7291V46.2839Z" fill="black"/>
<path d="M52.8737 49.6108H50.1064V59.2746H52.8737V49.6108Z" fill="#FEEFEA"/>
<path d="M52.9412 59.3421H50.0415V49.5459H52.9412V59.3421ZM50.1739 59.207H52.8088V49.6756H50.1739V59.207Z" fill="black"/>
<path d="M52.8737 49.6108H50.1064V50.5675H52.8737V49.6108Z" fill="#4D373A"/>
<path d="M52.9412 50.6323H50.0415V49.5432H52.9412V50.6323ZM50.1739 50.4999H52.8088V49.6756H50.1739V50.4999Z" fill="black"/>
<path d="M52.8514 50.5002L51.6875 51.002L51.7399 51.1236L52.9038 50.6218L52.8514 50.5002Z" fill="black"/>
<path d="M52.8766 51.2158H51.9146V51.3482H52.8766V51.2158Z" fill="black"/>
<path d="M52.0617 51.6696L51.9614 51.7561L52.8261 52.759L52.9264 52.6725L52.0617 51.6696Z" fill="black"/>
<path d="M51.9775 51.9076L51.855 51.9578L52.8168 54.3089L52.9394 54.2587L51.9775 51.9076Z" fill="black"/>
<path d="M51.6349 51.9183L51.5059 51.948L52.7219 57.2364L52.851 57.2067L51.6349 51.9183Z" fill="black"/>
<path d="M51.5304 52.2507H51.3979V56.6097H51.5304V52.2507Z" fill="black"/>
<path d="M50.1281 50.5288L50.0757 50.6504L51.185 51.1286L51.2374 51.007L50.1281 50.5288Z" fill="black"/>
<path d="M51.0144 51.2239H50.147V51.3563H51.0144V51.2239Z" fill="black"/>
<path d="M50.8679 51.6967L50.0649 52.6279L50.1652 52.7144L50.9682 51.7832L50.8679 51.6967Z" fill="black"/>
<path d="M50.9463 51.9054L50.04 54.1216L50.1626 54.1717L51.0688 51.9555L50.9463 51.9054Z" fill="black"/>
<path d="M51.2947 51.9294L50.0796 57.218L50.2086 57.2477L51.4238 51.9591L51.2947 51.9294Z" fill="black"/>
<path d="M52.8761 57.053C52.4762 56.7747 51.9898 56.6125 51.4655 56.6125C50.9412 56.6125 50.498 56.7612 50.1089 57.0179V59.2771H52.8761V57.0557V57.053Z" fill="#C6C1BE"/>
<path d="M52.9199 59.3177H50.0635V56.9909L50.0824 56.9774C50.4932 56.7072 50.9715 56.5667 51.4633 56.5667C51.9795 56.5667 52.4767 56.7207 52.901 57.0152L52.9199 57.0288V59.3177ZM50.1527 59.2312H52.8334V57.0747C52.4281 56.7991 51.9552 56.6531 51.466 56.6531C50.9769 56.6531 50.5445 56.7855 50.1527 57.0369V59.2285V59.2312Z" fill="black"/>
<path d="M51.4628 52.251C51.906 52.251 52.2654 51.8916 52.2654 51.4484C52.2654 51.0051 51.906 50.6458 51.4628 50.6458C51.0195 50.6458 50.6602 51.0051 50.6602 51.4484C50.6602 51.8916 51.0195 52.251 51.4628 52.251Z" fill="#B32032"/>
<path d="M51.4624 52.2727C51.0084 52.2727 50.6382 51.9025 50.6382 51.4485C50.6382 50.9945 51.0084 50.6243 51.4624 50.6243C51.9164 50.6243 52.2866 50.9945 52.2866 51.4485C52.2866 51.9025 51.9164 52.2727 51.4624 52.2727ZM51.4624 50.6702C51.0327 50.6702 50.6814 51.0188 50.6814 51.4512C50.6814 51.8836 51.03 52.2322 51.4624 52.2322C51.8948 52.2322 52.2434 51.8836 52.2434 51.4512C52.2434 51.0188 51.8948 50.6702 51.4624 50.6702Z" fill="black"/>
<path d="M51.7525 46.2839H51.6201V49.6322H51.7525V46.2839Z" fill="black"/>
<path d="M31.4948 58.9581C42.8184 58.9581 51.9979 49.7786 51.9979 38.455C51.9979 27.1314 42.8184 17.9519 31.4948 17.9519C20.1713 17.9519 10.9917 27.1314 10.9917 38.455C10.9917 49.7786 20.1713 58.9581 31.4948 58.9581Z" fill="url(#paint0_linear_823_43941)" stroke="#FCC3B7" stroke-width="2" stroke-miterlimit="10"/>
<path d="M26.3712 39.2149L23.7391 37.8665L19.9044 38.2015L17.8911 39.8068C17.6398 40.3337 17.4776 40.9121 17.4209 41.5228C17.4317 41.9687 17.4533 42.4605 17.4831 42.8875C17.5695 43.355 17.7182 43.8009 17.9235 44.2117C18.4505 44.7062 19.4909 45.5521 19.4909 45.5521C19.4909 45.5521 20.48 46.1844 20.9124 46.5033C21.3448 46.8222 22.5311 46.679 23.2284 46.6222C23.5797 46.5925 24.3066 46.4682 24.9417 46.352C26.4604 45.4845 27.4819 43.8496 27.4819 41.9741C27.4819 41.7795 27.4711 41.5904 27.4495 41.4012L26.3739 39.2123L26.3712 39.2149Z" fill="white"/>
<path d="M16.4486 40.236C16.4486 40.236 18.5564 37.6552 22.0452 37.1094C25.534 36.5635 28.0959 40.1441 28.0959 40.1441C28.0959 40.1441 27.2068 39.3632 26.896 39.2713C26.896 39.2713 27.477 41.3062 27.5311 41.6143C27.5311 41.6143 25.6043 38.0336 22.4425 38.1255C18.9375 38.2255 16.3188 41.4494 16.3188 41.4494C16.3188 41.4494 17.8079 39.3064 18.2619 39.0145C18.2619 39.0145 17.462 39.2334 16.4459 40.2306L16.4486 40.236Z" fill="#2D1410"/>
<path d="M25.5603 46.2731C24.1632 46.5865 22.712 46.9189 21.2716 46.7352C20.1934 46.3758 19.3583 45.5272 18.5503 44.7651C19.4286 45.4056 20.2717 46.2028 21.3121 46.546C22.7228 46.7082 24.1524 46.4136 25.5603 46.2731Z" fill="black"/>
<path d="M22.6801 45.0627C24.3861 45.0627 25.769 43.6798 25.769 41.9738C25.769 40.2679 24.3861 38.885 22.6801 38.885C20.9742 38.885 19.5913 40.2679 19.5913 41.9738C19.5913 43.6798 20.9742 45.0627 22.6801 45.0627Z" fill="url(#paint1_linear_823_43941)"/>
<path d="M22.7501 42.8815C23.3202 42.8815 23.7824 42.4193 23.7824 41.8492C23.7824 41.2791 23.3202 40.8169 22.7501 40.8169C22.18 40.8169 21.7178 41.2791 21.7178 41.8492C21.7178 42.4193 22.18 42.8815 22.7501 42.8815Z" fill="#FEF4EB"/>
<path d="M37.9457 39.2149L40.5778 37.8665L44.4125 38.2015L46.4258 39.8068C46.6771 40.3337 46.8392 40.9121 46.896 41.5228C46.8852 41.9687 46.8636 42.4605 46.8338 42.8875C46.7474 43.355 46.5987 43.8009 46.3933 44.2117C45.8664 44.7062 44.826 45.5521 44.826 45.5521C44.826 45.5521 43.8369 46.1844 43.4045 46.5033C42.9721 46.8222 41.7858 46.679 41.0885 46.6222C40.7372 46.5925 40.0103 46.4682 39.3752 46.352C37.8565 45.4845 36.835 43.8496 36.835 41.9741C36.835 41.7795 36.8458 41.5904 36.8674 41.4012L37.9429 39.2123L37.9457 39.2149Z" fill="white"/>
<path d="M47.8715 40.236C47.8715 40.236 45.7636 37.6552 42.2748 37.1094C38.786 36.5635 36.2241 40.1441 36.2241 40.1441C36.2241 40.1441 37.1132 39.3632 37.424 39.2713C37.424 39.2713 36.843 41.3062 36.7889 41.6143C36.7889 41.6143 38.7157 38.0336 41.8775 38.1255C45.3825 38.2255 48.0012 41.4494 48.0012 41.4494C48.0012 41.4494 46.5121 39.3064 46.0581 39.0145C46.0581 39.0145 46.8581 39.2334 47.8742 40.2306L47.8715 40.236Z" fill="#2D1410"/>
<path d="M38.7568 46.2731C40.1648 46.4136 41.5944 46.7082 43.005 46.546C44.0454 46.2001 44.8859 45.4056 45.7669 44.7651C44.9588 45.5272 44.1238 46.3758 43.0455 46.7352C41.6052 46.9189 40.154 46.5865 38.7568 46.2731Z" fill="black"/>
<path d="M41.6401 45.0627C43.346 45.0627 44.729 43.6798 44.729 41.9738C44.729 40.2679 43.346 38.885 41.6401 38.885C39.9342 38.885 38.5513 40.2679 38.5513 41.9738C38.5513 43.6798 39.9342 45.0627 41.6401 45.0627Z" fill="url(#paint2_linear_823_43941)"/>
<path d="M41.5694 42.8815C42.1396 42.8815 42.6017 42.4193 42.6017 41.8492C42.6017 41.2791 42.1396 40.8169 41.5694 40.8169C40.9993 40.8169 40.5371 41.2791 40.5371 41.8492C40.5371 42.4193 40.9993 42.8815 41.5694 42.8815Z" fill="#FEF4EB"/>
<path d="M25.8282 33.2395C25.8282 33.2395 19.6208 31.9072 13.8701 37.1472C13.8701 37.1472 22.2935 31.1208 27.8361 35.5555" fill="#22100E"/>
<path d="M37.1622 33.2395C37.1622 33.2395 43.3696 31.9072 49.1203 37.1472C49.1203 37.1472 40.6969 31.1208 35.1543 35.5555" fill="#22100E"/>
<path d="M39.0131 20.1274C39.0131 20.1274 39.0131 23.3568 37.3052 25.0026C37.3052 25.0026 39.1347 24.2108 37.3052 27.4401C37.3052 27.4401 39.9265 25.3079 40.0481 26.8294C40.1697 28.3535 40.1697 30.4263 39.1941 31.2181C39.1941 31.2181 39.9265 33.2908 39.0725 34.388C39.0725 34.388 40.1697 32.8638 41.4507 32.8044C41.4507 32.8044 41.0858 30.6722 42.61 29.9399C44.1341 29.2075 44.1341 31.0992 44.1341 31.0992C44.1341 31.0992 45.5961 29.148 47.6094 30.0642C49.62 30.9776 47.9742 32.5017 47.9742 32.5017C47.9742 32.5017 50.7766 32.318 51.082 33.1719C51.3874 34.0259 49.7416 28.3562 49.7416 28.3562C49.7416 28.3562 47.1203 29.148 46.4501 27.5644C45.7799 25.9808 48.158 23.6027 48.158 23.6027L46.9987 22.992C46.9987 22.992 45.9447 25.8079 43.7693 25.6728C40.4075 25.4647 41.575 21.2246 45.2935 20.7976C47.9959 20.4869 39.0158 20.1274 39.0158 20.1274H39.0131Z" fill="#9D3C33"/>
<path d="M32.4839 20.9839C32.4839 20.9839 31.4435 21.6595 31.2354 22.127C31.2354 22.127 39.502 20.7245 44.5447 25.0916C49.5874 29.4586 51.6682 33.2528 51.198 36.6335C50.7305 40.0115 48.2335 49.8915 48.2335 49.8915C48.2335 49.8915 49.9495 53.8424 52.86 53.4776C52.86 53.4776 50.3116 51.9696 50.1576 49.3699C50.1576 49.3699 52.3925 53.1127 56.6569 50.9806C56.6569 50.9806 52.0303 49.4726 52.7573 43.0787C52.7573 43.0787 53.4842 47.8106 56.0326 47.8106C56.0326 47.8106 54.576 46.7702 54.6301 45.3677C54.6301 45.3677 59.516 46.1487 61.6995 42.9247C61.6995 42.9247 58.1134 42.6653 56.5515 39.5981L56.4488 38.2982C56.4488 38.2982 59.9322 37.7793 61.0239 36.2173C61.0239 36.2173 58.581 36.0606 57.9054 33.8257C57.9054 33.8257 62.3751 31.3827 62.9994 27.0157C62.9994 27.0157 58.1134 29.1479 56.9163 25.7158C55.7218 22.2838 56.1893 23.7917 56.1893 23.7917C56.1893 23.7917 59.5673 21.5568 59.4646 15.4224C59.4646 15.4224 58.1648 19.3733 54.2139 17.5032C50.263 15.6305 50.263 10.4338 46.8309 9.91219C46.8309 9.91219 49.7955 8.82042 52.2384 10.1716C52.2384 10.1716 43.8691 5.18029 35.4457 6.58553C35.4457 6.58553 28.0628 5.25596 27.0223 6.33692C25.9819 7.41788 25.2036 7.83405 25.2036 7.83405C25.2036 7.83405 24.6848 1.85634 21.9283 0.815918C21.9283 0.815918 23.593 6.4315 20.4717 7.7827C17.3505 9.1339 16.8857 7.62596 13.7644 11.6823C10.6458 15.7386 9.03249 17.3492 11.9457 22.1324C11.9457 22.1324 9.08653 22.9648 9.03518 24.0052C8.98384 25.0456 9.03518 27.1616 9.03518 27.1616C9.03518 27.1616 8.30824 27.1238 8.04611 28.9965C7.78667 30.8693 5.83554 34.0879 0.809082 32.3853C0.809082 32.3853 3.32232 37.0875 8.02449 36.6011C8.02449 36.6011 6.80841 41.7897 1.53873 43.6544C1.53873 43.6544 6.07876 47.2215 11.589 46.0054C11.589 46.0054 11.2647 51.5994 7.45428 52.4101C7.45428 52.4101 11.589 52.4912 13.6158 50.1401C13.6158 50.1401 14.1833 53.6262 12.2375 55.1666C12.2375 55.1666 15.1156 52.4506 15.6696 51.24C15.6696 51.24 14.5292 46.9188 14.3211 45.6055C14.113 44.2921 12.1105 36.9659 13.4914 32.161C14.8724 27.3562 19.6583 24.2322 20.6501 24.1322L20.4096 23.5863L24.0335 23.7242C24.0335 23.7242 25.6063 21.9135 26.29 21.8784C26.29 21.8784 25.8117 23.1783 25.1631 23.4512C25.1631 23.4512 29.268 20.2137 32.4812 20.9947L32.4839 20.9839Z" fill="#9C3B32"/>
<path d="M8.04377 31.2805C8.04377 31.2805 7.66002 34.1775 4.00098 34.5585C4.00098 34.5585 6.62501 36.1989 8.04377 35.8692C8.04377 35.8692 8.37346 32.4182 8.04377 31.2778V31.2805Z" fill="#1D0F0F"/>
<path d="M4.71143 43.8491C4.71143 43.8491 7.90025 42.4277 8.18941 41.1711C8.47857 39.9144 9.19201 36.2527 9.19201 36.2527C9.19201 36.2527 10.9891 43.6735 11.3782 43.8491C11.3782 43.8491 8.42722 45.7624 4.71143 43.8491Z" fill="#1D0F0F"/>
<path d="M25.5335 23.1702C25.3011 23.335 25.166 23.4404 25.166 23.4404C25.2957 23.3864 25.4173 23.2891 25.5335 23.1702Z" fill="#1D0F0F"/>
<path d="M55.9732 34.7391C56.2407 32.7853 55.7056 31.9422 52.3763 26.1266C49.0469 20.311 42.0531 20.892 42.0531 20.892C45.9608 17.8221 51.8223 23.1242 51.8223 23.1242C51.6358 21.1704 49.0307 19.403 49.0307 19.403C49.7739 19.0301 51.8223 19.6814 51.8223 19.6814C51.8223 19.6814 48.193 16.0521 45.0311 15.4008C41.8693 14.7495 33.7757 20.0516 33.7757 20.0516C35.8214 16.3304 43.6367 14.4711 43.6367 14.4711C38.8913 12.7957 33.9621 16.7493 33.9621 16.7493C34.2405 13.909 39.1724 12.9821 39.1724 12.9821C31.2651 12.1444 27.9169 18.4707 27.9169 18.4707C29.1248 10.9364 36.9402 9.82031 36.9402 9.82031C23.3958 10.3824 23.1606 23.6782 23.1606 23.6782L24.0389 23.7107C24.0389 23.7107 25.6117 21.9 26.2954 21.8649C26.2954 21.8649 25.9901 22.6945 25.5333 23.1675C26.6062 22.4081 29.8464 20.3381 32.4839 20.9812C32.4839 20.9812 31.4435 21.6568 31.2354 22.1243C31.2354 22.1243 39.502 20.7218 44.5447 25.0889C49.5874 29.4559 51.6682 33.2501 51.198 36.6308C50.7278 40.0115 48.2335 49.8888 48.2335 49.8888C48.2335 49.8888 49.709 53.2803 52.2411 53.4884H52.7195C52.7654 53.4857 52.814 53.483 52.86 53.4776C52.86 53.4776 50.3116 51.9696 50.1576 49.3699C50.1576 49.3699 52.0412 52.5182 55.6435 51.3913C50.0063 49.8509 51.1413 41.3789 51.698 39.517C52.2574 37.655 51.5115 31.4611 51.5115 31.4611C52.5816 31.7881 53.0492 34.4419 53.0492 34.4419C53.4221 31.6476 51.0007 26.5725 51.0007 26.5725C54.8192 29.6451 54.3085 35.9336 53.6086 37.7496C52.9113 39.5656 52.7573 43.0814 53.7004 44.13C54.6436 45.1785 58.1702 44.3164 58.1702 44.3164C54.6301 41.8951 55.7029 36.6957 55.9677 34.7418L55.9732 34.7391Z" fill="#1D0F0F"/>
<path d="M15.6726 51.2292C15.6726 51.2292 14.5322 46.9081 14.3242 45.5947C14.1161 44.2813 12.1136 36.9551 13.4945 32.1502C14.8781 27.3454 19.6614 24.2214 20.6532 24.1214L20.4127 23.5755L23.1583 23.6782C20.9153 16.325 28.8441 10.7499 28.8441 10.7499C25.7742 10.7499 22.6124 14.8441 22.6124 14.8441C22.6124 13.3551 24.3798 10.3797 24.3798 10.3797C15.2619 16.7844 18.9831 22.8459 18.9831 22.8459C18.9831 22.8459 17.867 21.6352 16.4726 18.5653C15.0781 15.4954 19.5425 9.82031 19.5425 9.82031C18.2534 10.4932 15.3132 12.7011 13.3459 16.9087C11.3785 21.1163 16.2429 24.6673 16.2429 24.6673C14.8214 24.8862 12.854 22.6999 12.854 22.6999C10.3408 22.6459 9.52199 26.2509 9.52199 26.2509C11.1623 24.8835 13.5648 25.0483 13.5648 25.0483C11.5974 24.9943 8.04918 28.9857 8.8653 31.7152C9.68143 34.4446 7.44385 39.7467 7.44385 39.7467C9.24635 39.3629 10.0679 35.6471 10.2841 33.1907C10.4435 31.4017 11.6407 29.7046 12.2811 28.9101C11.0407 30.9423 10.5003 37.4524 10.5003 37.4524C10.5543 36.1417 12.3595 33.3528 12.3595 33.3528C11.2677 37.6145 13.6702 44.3921 13.6702 44.3921C12.1947 44.2273 11.211 38.4901 11.211 38.4901C10.4462 39.6926 12.3595 46.2486 12.6865 47.7782C12.8919 48.7376 11.3839 50.7022 10.2273 52.0372C11.411 51.7318 12.7216 51.167 13.6188 50.1266C13.6188 50.1266 14.0971 53.0803 12.6568 54.7504C13.4729 53.9505 15.2511 52.148 15.6726 51.2238V51.2292Z" fill="#1D0F0F"/>
<path d="M12.6566 54.7559C12.4053 55.0018 12.2432 55.1558 12.2432 55.1558C12.3972 55.0342 12.535 54.8991 12.6566 54.7559Z" fill="#1D0F0F"/>
<path d="M51.5195 24.4375C51.5195 24.4375 54.403 25.9887 54.7354 27.2102C55.0678 28.4289 57.7296 30.426 59.9456 29.872C59.9456 29.872 57.8404 33.3095 56.3974 33.4203C56.3974 33.4203 57.0621 36.9685 60.6104 36.9685C60.6104 36.9685 57.7269 38.4089 56.065 38.0765C56.065 38.0765 56.8405 32.3123 55.1786 30.0936C53.5166 27.8777 51.5195 24.4402 51.5195 24.4402V24.4375Z" fill="#1D0F0F"/>
<path d="M30.7275 48.17L31.8842 47.0134L33.084 48.2133" stroke="black" stroke-linecap="round" stroke-linejoin="round"/>
<path d="M21.9285 0.81072C24.6849 1.85114 25.2038 7.82885 25.2038 7.82885C25.2038 7.82885 25.9848 7.41269 27.0225 6.33173C27.3225 6.01825 28.1521 5.90745 29.1817 5.90745C31.7139 5.90745 35.4459 6.58034 35.4459 6.58034C36.4836 6.40739 37.5213 6.33173 38.5428 6.33173C45.8042 6.33173 52.2386 10.1691 52.2386 10.1691C51.3035 9.65297 50.2928 9.49353 49.4038 9.49353C47.9634 9.49353 46.8338 9.9097 46.8338 9.9097C50.2658 10.4286 50.2658 15.628 54.2167 17.5007C54.9734 17.8602 55.6328 18.0034 56.203 18.0034C58.6162 18.0034 59.4675 15.4199 59.4675 15.4199C59.5648 21.1868 56.5867 23.5055 56.2273 23.7649C56.3435 24.073 56.5516 24.6594 56.9191 25.7133C57.4515 27.2429 58.7189 27.6672 59.9593 27.6672C61.4997 27.6672 62.9995 27.0132 62.9995 27.0132C62.3753 31.3803 57.9055 33.8232 57.9055 33.8232C58.5811 36.0581 61.0241 36.2149 61.0241 36.2149C60.8295 36.4932 60.5593 36.7364 60.2485 36.9499C60.3647 36.958 60.4863 36.9634 60.6106 36.9634C60.6106 36.9634 59.5053 37.5147 58.2703 37.8579C57.2894 38.1687 56.4516 38.2957 56.4516 38.2957L56.5543 39.5956C58.1136 42.6628 61.7024 42.9222 61.7024 42.9222C60.2296 45.0949 57.5326 45.4489 55.9273 45.4489C55.1518 45.4489 54.6329 45.3652 54.6329 45.3652C54.5815 46.7677 56.0354 47.8081 56.0354 47.8081C53.4871 47.8081 52.7601 43.0762 52.7601 43.0762C52.0332 49.4701 56.6597 50.9781 56.6597 50.9781C56.3084 51.1537 55.9706 51.2861 55.6463 51.3888C55.5328 51.424 55.4247 51.4537 55.3139 51.4807C54.8923 51.5861 54.4924 51.632 54.1221 51.632C53.6952 51.632 53.3033 51.5726 52.9466 51.4699V59.3393H50.0469V52.4265C49.1686 51.6212 48.5876 50.5835 48.3552 50.1241C44.6529 55.4586 38.4861 58.9555 31.5031 58.9555C25.0849 58.9555 19.3558 56.0045 15.5967 51.3861C15.5967 51.3861 15.5967 51.3861 15.5967 51.3888C15.5886 51.4023 15.5805 51.4185 15.5724 51.4321C15.54 51.4888 15.5049 51.5456 15.4643 51.6077C15.4589 51.6158 15.4535 51.6212 15.4508 51.6293C15.4157 51.6834 15.3751 51.7428 15.3346 51.7996C15.3211 51.8185 15.3103 51.8347 15.2968 51.8536C15.2508 51.9158 15.2049 51.9807 15.1536 52.0455C15.1427 52.059 15.1319 52.0752 15.1184 52.0887C15.0752 52.1428 15.0319 52.1995 14.986 52.2563C14.9698 52.2779 14.9536 52.2995 14.9347 52.3185C14.8806 52.386 14.8239 52.4536 14.7671 52.5211C14.7509 52.5401 14.7347 52.559 14.7212 52.5752C14.6725 52.6319 14.6266 52.686 14.5752 52.7427C14.5563 52.7643 14.5374 52.786 14.5185 52.8076C14.459 52.8751 14.3969 52.9454 14.3374 53.013C14.3185 53.0346 14.2996 53.0562 14.2807 53.0778C14.232 53.1319 14.1807 53.1886 14.132 53.2427C14.1131 53.2643 14.0942 53.2832 14.0753 53.3048C14.0266 53.3562 13.978 53.4102 13.9294 53.4616V59.3366H11.0297V51.7969C10.9216 51.8347 10.8135 51.8698 10.7027 51.905C10.6892 51.9104 10.6757 51.9131 10.6622 51.9158C10.5189 51.959 10.3784 51.9996 10.2379 52.0374C8.91912 52.3779 7.76249 52.3968 7.51657 52.3968C7.48414 52.3968 7.46793 52.3968 7.46793 52.3968C11.2783 51.5861 11.6026 45.9921 11.6026 45.9921C10.8 46.1705 10.019 46.2462 9.26773 46.2462C4.86552 46.2462 1.55237 43.6437 1.55237 43.6437C6.82205 41.7791 8.03813 36.5905 8.03813 36.5905C7.80572 36.6148 7.58143 36.6256 7.35983 36.6256C3.09545 36.6256 0.822731 32.3747 0.822731 32.3747C1.81721 32.7125 2.69009 32.8558 3.45486 32.8558C6.55452 32.8558 7.84897 30.4858 8.05976 28.9859C8.30838 27.1861 8.99208 27.151 9.04342 27.151H9.04613C9.04613 27.151 8.99478 25.0323 9.04613 23.9946C9.09748 22.9542 11.9566 22.1218 11.9566 22.1218C9.04613 17.3386 10.6568 15.728 13.7753 11.6717C16.8939 7.61536 17.3614 9.1233 20.4827 7.7721C23.6013 6.4209 21.9393 0.805318 21.9393 0.805318M50.1793 49.5458H50.2766C50.2658 49.5323 50.2577 49.5188 50.2496 49.5079C50.2469 49.5025 50.2442 49.4998 50.2388 49.4944C50.228 49.4782 50.2172 49.4647 50.2091 49.4512C50.2064 49.4458 50.2037 49.4431 50.201 49.4404C50.1929 49.4296 50.1847 49.4188 50.1793 49.408C50.1766 49.4026 50.1739 49.3999 50.1712 49.3945C50.1685 49.389 50.1658 49.3836 50.1631 49.3809C50.1604 49.3755 50.1577 49.3728 50.1577 49.3728C50.1604 49.4323 50.1712 49.489 50.1793 49.5485M21.9285 0C21.7258 0 21.5285 0.0756721 21.3772 0.216197C21.1529 0.426984 21.0637 0.745864 21.1529 1.04043C21.1637 1.07826 21.542 2.39703 21.5609 3.8293C21.5826 5.53992 21.1096 6.61818 20.1503 7.03165C19.2423 7.4262 18.6018 7.55051 17.9803 7.67211C16.3588 7.9883 15.3319 8.30717 13.1213 11.1798C12.9592 11.3906 12.8025 11.596 12.6484 11.7933C9.95413 15.274 8.39755 17.2845 10.7513 21.6732C9.64066 22.1083 8.27865 22.8596 8.2246 23.9541C8.18676 24.6999 8.20027 25.9538 8.21379 26.6565C7.82464 26.9753 7.41928 27.6131 7.24363 28.8751C6.89502 31.383 4.60608 32.0477 3.44405 32.0477C2.72792 32.0477 1.93071 31.8991 1.07135 31.61C0.98487 31.5802 0.898396 31.5667 0.811919 31.5667C0.57681 31.5667 0.349807 31.6694 0.193068 31.8532C-0.0231244 32.1072 -0.060954 32.4666 0.0957851 32.7585C0.195774 32.9422 2.49011 37.1472 6.88961 37.4228C6.27346 38.9199 4.71689 41.6602 1.26863 42.879C0.990278 42.9762 0.787601 43.2195 0.738957 43.5113C0.690314 43.8032 0.806513 44.0977 1.03892 44.2815C1.18215 44.395 4.62771 47.0569 9.25692 47.0569C9.71903 47.0569 10.1838 47.0299 10.6405 46.9758C10.3568 48.4729 9.54067 51.1267 7.28957 51.605C6.88691 51.6915 6.61397 52.0644 6.6518 52.4752C6.68963 52.8859 7.03014 53.1994 7.44361 53.2102H7.50846C7.82735 53.2102 8.91912 53.1859 10.2109 52.8805V59.3393C10.2109 59.7879 10.573 60.15 11.0216 60.15H13.9213C14.3699 60.15 14.732 59.7879 14.732 59.3393V53.7831C14.7806 53.7318 14.8266 53.6777 14.8752 53.6264L14.886 53.6129L14.9347 53.5616C14.9995 53.4913 15.0617 53.421 15.1238 53.3508L15.1644 53.3048L15.1833 53.2832C15.2346 53.2237 15.2833 53.167 15.3346 53.1075L15.3508 53.0886L15.3833 53.0481C15.4454 52.9751 15.5022 52.9049 15.5616 52.8346L15.5994 52.786L15.613 52.767C15.6292 52.7481 15.6427 52.7292 15.6589 52.7103C19.7044 57.2071 25.42 59.7663 31.5004 59.7663C38.0645 59.7663 44.2476 56.7315 48.2769 51.5915C48.5363 51.9725 48.8552 52.386 49.2335 52.7697V59.3366C49.2335 59.7852 49.5956 60.1473 50.0442 60.1473H52.9439C53.3925 60.1473 53.7546 59.7852 53.7546 59.3366V52.4292C53.8762 52.4374 53.9978 52.4428 54.1194 52.4428C54.5734 52.4428 55.0383 52.3833 55.5058 52.2671C55.6301 52.2374 55.7571 52.1995 55.8841 52.1617C56.2732 52.0401 56.6435 51.8915 57.0191 51.7023C57.3137 51.5564 57.4893 51.2456 57.465 50.9159C57.4407 50.5862 57.2191 50.3079 56.9083 50.2052C56.8164 50.1727 55.4544 49.689 54.4789 48.154C54.9194 48.4405 55.4355 48.6162 56.0327 48.6162C56.3841 48.6162 56.6975 48.3892 56.8056 48.0541C56.9137 47.719 56.7921 47.3514 56.5057 47.1461C56.3192 47.0109 55.949 46.6731 55.6976 46.2543C55.7706 46.2543 55.849 46.2543 55.9273 46.2543C57.6055 46.2543 60.6755 45.8786 62.3726 43.3708C62.5347 43.1303 62.5563 42.8222 62.432 42.5628C62.3077 42.3034 62.051 42.1277 61.7618 42.1088C61.7348 42.1088 58.7135 41.8412 57.3515 39.3604L57.3191 38.9497C57.6488 38.8767 58.0622 38.7713 58.5027 38.6335C59.7945 38.2741 60.9268 37.712 60.9754 37.6877C61.2403 37.5552 61.4051 37.2958 61.4213 37.0121C61.5213 36.904 61.6132 36.7932 61.6916 36.6797C61.8591 36.4391 61.8861 36.1284 61.7591 35.8635C61.6321 35.5987 61.3727 35.4258 61.0808 35.4068C61.0187 35.4014 59.6161 35.2825 58.9297 34.1448C60.262 33.253 63.2536 30.8722 63.8021 27.1672C63.8102 27.1186 63.8157 27.0672 63.8157 27.0159C63.8157 26.57 63.4562 26.2079 63.0076 26.2052C63.0076 26.2052 63.0049 26.2052 63.0022 26.2052C62.9914 26.2052 62.9806 26.2052 62.9725 26.2052C62.8644 26.2079 62.7617 26.2349 62.6698 26.2754C62.5428 26.3295 61.2457 26.8591 59.962 26.8591C58.3622 26.8591 57.8974 26.0538 57.6866 25.4485C57.4812 24.8621 57.3137 24.3837 57.184 24.0189C58.2028 23.0623 60.3647 20.4274 60.2782 15.4064C60.2728 15.0118 59.9809 14.6767 59.5891 14.6173C59.5486 14.6119 59.508 14.6092 59.4675 14.6092C59.1216 14.6092 58.8081 14.8308 58.6973 15.1659C58.6703 15.2442 57.9893 17.1927 56.203 17.1927C55.7111 17.1927 55.1572 17.0494 54.5626 16.7684C52.8574 15.9604 51.9602 14.4038 51.0928 12.8986C50.5577 11.9716 50.0145 11.0258 49.2821 10.307C49.3227 10.307 49.3632 10.307 49.4038 10.307C50.3361 10.307 51.1576 10.5015 51.8467 10.8826C51.971 10.9501 52.1062 10.9853 52.2386 10.9853C52.5196 10.9853 52.7926 10.8393 52.9412 10.5772C53.1628 10.1935 53.0331 9.70432 52.6547 9.47731C52.3845 9.31517 45.9447 5.52641 38.5455 5.52641C37.4862 5.52641 36.4458 5.60748 35.454 5.76422C34.7405 5.63991 31.5112 5.10484 29.1844 5.10484C27.7332 5.10484 26.8874 5.31292 26.4415 5.77773C26.2199 6.00743 26.0118 6.20471 25.8253 6.36956C25.474 4.37248 24.5444 0.93503 22.2176 0.0594531C22.1257 0.0243219 22.0285 0.00810687 21.9312 0.00810687L21.9285 0Z" fill="white"/>
<defs>
<linearGradient id="paint0_linear_823_43941" x1="31.4948" y1="31.4963" x2="31.4948" y2="72.5052" gradientUnits="userSpaceOnUse">
<stop stop-color="#FCE9DA"/>
<stop offset="1" stop-color="#E7B7A9"/>
</linearGradient>
<linearGradient id="paint1_linear_823_43941" x1="22.6802" y1="41.8766" x2="22.6802" y2="46.0139" gradientUnits="userSpaceOnUse">
<stop offset="0.2" stop-color="#35141B"/>
<stop offset="1" stop-color="#E65B82"/>
</linearGradient>
<linearGradient id="paint2_linear_823_43941" x1="41.6401" y1="41.8766" x2="41.6401" y2="46.0139" gradientUnits="userSpaceOnUse">
<stop offset="0.2" stop-color="#35141B"/>
<stop offset="1" stop-color="#E65B82"/>
</linearGradient>
</defs>
</svg>
