<svg width="64" height="67" viewBox="0 0 64 67" fill="none" xmlns="http://www.w3.org/2000/svg">
<path d="M40.3712 62.9409C40.3712 62.9409 40.3562 62.9469 40.3502 62.9498C40.3293 62.9588 40.3083 62.9708 40.2904 62.9798C40.2784 62.9858 40.2664 62.9918 40.2544 62.9977C40.2395 63.0037 40.2245 63.0127 40.2095 63.0187C40.2006 63.0217 40.1946 63.0247 40.1856 63.0307C40.1586 63.0426 40.1377 63.0516 40.1377 63.0516C40.1916 63.0337 40.2455 63.0067 40.3023 62.9768C40.3203 62.9678 40.3412 62.9558 40.3592 62.9439C40.3682 62.9379 40.3742 62.9349 40.3832 62.9319C40.3772 62.9319 40.3742 62.9349 40.3682 62.9379L40.3712 62.9409Z" fill="#0A0808" stroke="white" stroke-width="1.49666" stroke-linecap="round" stroke-linejoin="round"/>
<path d="M52.8623 10.8061C52.8174 10.7493 52.7755 10.6984 52.7306 10.6415C52.572 10.4439 52.4163 10.2464 52.2547 10.0518C52.1948 9.97698 52.132 9.90813 52.0721 9.8333C51.9224 9.65669 51.7758 9.47709 51.6231 9.30348C51.5542 9.22266 51.4854 9.14783 51.4136 9.06701C51.2699 8.90537 51.1262 8.74074 50.9825 8.58209C50.9077 8.49828 50.8299 8.42045 50.755 8.33664C50.6143 8.18697 50.4737 8.03431 50.333 7.88764C50.2522 7.80383 50.1713 7.72301 50.0905 7.63919C49.9528 7.49851 49.8151 7.35782 49.6744 7.22013C49.5906 7.13631 49.5038 7.05549 49.417 6.97168C49.2793 6.83998 49.1446 6.70827 49.0069 6.58255C48.9171 6.49874 48.8303 6.42091 48.7405 6.34009C48.6058 6.21736 48.4711 6.09464 48.3334 5.97491C48.2436 5.89408 48.1508 5.81626 48.058 5.73843C47.9233 5.62169 47.7886 5.50795 47.6539 5.39719C47.5612 5.31937 47.4654 5.24453 47.3726 5.1697C47.2379 5.06194 47.1062 4.95418 46.9715 4.85241C46.8757 4.77758 46.7769 4.70574 46.6811 4.6309C46.5494 4.53212 46.4147 4.43334 46.283 4.33756C46.1842 4.26572 46.0854 4.19687 45.9867 4.12802C45.855 4.03523 45.7233 3.94543 45.5886 3.85563C45.4868 3.78978 45.388 3.72392 45.2862 3.65807C45.1545 3.57426 45.0228 3.49045 44.8911 3.40963C44.7893 3.34677 44.6876 3.2869 44.5858 3.22404C44.5319 3.19111 44.478 3.15819 44.4212 3.12526C44.4152 3.12227 44.4092 3.11927 44.4032 3.11329C44.3553 3.08635 44.3104 3.05941 44.2625 3.03247C44.2176 3.00553 44.1727 2.98158 44.1248 2.95464C44.0889 2.93369 44.053 2.91573 44.0201 2.89477C43.9422 2.84987 43.8614 2.81096 43.7836 2.76905C43.7267 2.73912 43.6698 2.70919 43.613 2.67925C43.5471 2.64633 43.4813 2.6134 43.4154 2.57748C43.3645 2.55054 43.3106 2.5266 43.2597 2.49966C43.1879 2.46374 43.1191 2.43081 43.0472 2.39489C42.9903 2.36795 42.9335 2.34101 42.8766 2.31407C42.8018 2.28114 42.7299 2.24522 42.6551 2.2123C42.6192 2.19733 42.5833 2.18236 42.5473 2.1674C42.4905 2.14345 42.4336 2.1195 42.3767 2.09556C42.3378 2.0776 42.2959 2.05964 42.257 2.04467C42.1702 2.00875 42.0834 1.97582 41.9966 1.9399C41.9547 1.92194 41.9098 1.90398 41.8679 1.88902C41.805 1.86507 41.7451 1.84412 41.6823 1.82017C41.6224 1.79922 41.5655 1.77826 41.5057 1.75731C41.4248 1.72738 41.347 1.70044 41.2662 1.6735C41.2153 1.65554 41.1644 1.64057 41.1135 1.62261C41.0507 1.60166 40.9908 1.5807 40.928 1.56274C40.889 1.55077 40.8531 1.54179 40.8142 1.52982C40.7094 1.49689 40.6047 1.46696 40.4999 1.43703C40.479 1.43104 40.455 1.42505 40.434 1.41907C40.3921 1.40709 40.3502 1.39811 40.3083 1.38614C40.2545 1.37117 40.2036 1.3592 40.1497 1.34423C40.0539 1.32029 39.9581 1.29933 39.8623 1.27838C39.8144 1.2694 39.7695 1.25743 39.7216 1.24845C39.6737 1.23947 39.6229 1.22749 39.575 1.21851C39.5241 1.20953 39.4732 1.20055 39.4253 1.19157C39.3265 1.17361 39.2247 1.15565 39.126 1.14069C39.0811 1.1347 39.0332 1.12572 38.9883 1.11973C38.9643 1.11674 38.9404 1.11375 38.9164 1.10776C38.8805 1.10177 38.8446 1.09579 38.8087 1.09279C38.674 1.07483 38.5393 1.05987 38.4046 1.04789C38.3896 1.04789 38.3746 1.0449 38.3597 1.04191C38.3178 1.03891 38.2729 1.03592 38.231 1.03293C38.1801 1.02993 38.1262 1.02395 38.0753 1.02095C37.9675 1.01497 37.8568 1.00898 37.749 1.00599C37.7041 1.00599 37.6562 1.00299 37.6113 1.00299C37.5724 1.00299 37.5335 1.00299 37.4946 1C37.4707 1 37.4467 1 37.4228 1C37.2881 1 37.1534 1 37.0187 1.00599C36.9798 1.00599 36.9408 1.00898 36.9019 1.01197C36.8989 1.01197 36.8929 1.01197 36.89 1.01197C36.8421 1.01197 36.7972 1.01497 36.7493 1.01796C36.6146 1.02694 36.4799 1.03891 36.3452 1.05089C36.3182 1.05089 36.2943 1.05388 36.2673 1.05687C36.2374 1.05987 36.2075 1.06286 36.1775 1.06885C36.1356 1.07483 36.0967 1.08082 36.0548 1.08681C35.9261 1.10477 35.8004 1.12273 35.6747 1.14667C35.6298 1.15565 35.5879 1.16164 35.543 1.17062C35.51 1.17661 35.4801 1.18259 35.4472 1.18858C35.2825 1.22151 35.1209 1.25743 34.9563 1.29933C34.9293 1.30532 34.9024 1.3143 34.8754 1.32029C34.8335 1.33226 34.7886 1.34423 34.7467 1.35621C34.606 1.39512 34.4654 1.43703 34.3277 1.48492C34.2977 1.4939 34.2648 1.50587 34.2349 1.51485C34.2169 1.52084 34.196 1.52683 34.178 1.53281C34.166 1.5358 34.157 1.54179 34.1451 1.54478C33.9834 1.60166 33.8218 1.66452 33.6632 1.73037C33.6332 1.74234 33.6003 1.75432 33.5704 1.76928C33.5404 1.78126 33.5105 1.79622 33.4806 1.8082C33.3099 1.88303 33.1363 1.96385 32.9687 2.04766C32.9567 2.05365 32.9418 2.06263 32.9298 2.06862C32.8999 2.08358 32.8669 2.10154 32.837 2.1195C32.6843 2.20032 32.5347 2.28414 32.382 2.37394C32.3551 2.3889 32.3281 2.40387 32.2982 2.42183C32.2832 2.43081 32.2683 2.43979 32.2533 2.44877C32.0797 2.55653 31.9061 2.66728 31.7325 2.78701C31.7145 2.79899 31.6965 2.81096 31.6786 2.82293C31.6546 2.84089 31.6307 2.85885 31.6037 2.87681C31.4241 3.00553 31.2475 3.13723 31.0709 3.27792C31.0679 3.27792 31.062 3.27493 31.059 3.27193C30.9362 3.20309 30.8105 3.14023 30.6878 3.07737C30.6878 3.07737 30.6848 3.07737 30.6818 3.07737C30.6369 3.05641 30.595 3.03546 30.5501 3.01451C30.4663 2.97559 30.3855 2.93369 30.3016 2.89477C30.2987 2.89477 30.2957 2.89178 30.2897 2.88879C30.2388 2.86484 30.1879 2.84389 30.134 2.82293C30.0622 2.79001 29.9873 2.75708 29.9155 2.72715C29.9095 2.72715 29.9035 2.72415 29.9005 2.72116C29.8467 2.70021 29.7928 2.67925 29.7389 2.6583C29.6701 2.63136 29.6012 2.60442 29.5324 2.57748C29.5264 2.57748 29.5204 2.5715 29.5114 2.5715C29.4575 2.55054 29.4007 2.53258 29.3468 2.51462C29.2809 2.49068 29.2151 2.46673 29.1462 2.44578C29.1372 2.44578 29.1283 2.43979 29.1223 2.4368C29.0684 2.41884 29.0115 2.40387 28.9576 2.38591C28.8918 2.36496 28.8289 2.347 28.7631 2.32904C28.7541 2.32904 28.7451 2.32305 28.7361 2.32006C28.6793 2.30509 28.6254 2.29012 28.5685 2.27815C28.5057 2.26318 28.4428 2.24522 28.3799 2.23026C28.368 2.23026 28.359 2.22427 28.347 2.22128C28.2901 2.2093 28.2363 2.19733 28.1794 2.18536C28.1165 2.17338 28.0567 2.15842 27.9938 2.14644C27.9818 2.14644 27.9698 2.14046 27.9579 2.14046C27.901 2.12848 27.8471 2.1195 27.7902 2.11052C27.7304 2.09855 27.6675 2.08957 27.6077 2.0776C27.5957 2.0776 27.5837 2.0746 27.5717 2.07161C27.5179 2.06263 27.461 2.05664 27.4071 2.05066C27.3472 2.04168 27.2874 2.0327 27.2245 2.02671C27.2125 2.02671 27.1976 2.02372 27.1856 2.02372C27.1317 2.01773 27.0748 2.01174 27.021 2.00875C26.9611 2.00276 26.9012 1.99678 26.8414 1.99378C26.8264 1.99378 26.8144 1.99378 26.7995 1.99079C26.7456 1.9878 26.6887 1.9848 26.6348 1.98181C26.575 1.97882 26.5181 1.97582 26.4582 1.97283C26.4433 1.97283 26.4313 1.97283 26.4163 1.97283C26.3624 1.97283 26.3056 1.97283 26.2517 1.97283C26.1918 1.97283 26.1349 1.97283 26.0751 1.97283C26.0601 1.97283 26.0451 1.97283 26.0302 1.97283C25.9763 1.97283 25.9194 1.97283 25.8655 1.97582C25.8087 1.97582 25.7488 1.97582 25.6919 1.98181C25.677 1.98181 25.662 1.98181 25.647 1.98181C25.5931 1.98181 25.5363 1.9878 25.4824 1.99079C25.4255 1.99378 25.3657 1.99678 25.3088 2.00276C25.2938 2.00276 25.2788 2.00276 25.2639 2.00576C25.21 2.01174 25.1531 2.01474 25.0993 2.02072C25.0424 2.02671 24.9855 2.0327 24.9256 2.03868C24.9107 2.03868 24.8957 2.04168 24.8807 2.04467C24.8269 2.05066 24.77 2.05964 24.7161 2.06562C24.6592 2.0746 24.6024 2.08059 24.5425 2.08957C24.5275 2.08957 24.5126 2.09556 24.4976 2.09556C24.4437 2.10454 24.3868 2.11352 24.333 2.1225C24.2761 2.13148 24.2192 2.14345 24.1623 2.15542C24.1474 2.15542 24.1354 2.16141 24.1204 2.1644C24.0636 2.17638 24.0097 2.18835 23.9528 2.19733C23.8959 2.2093 23.8391 2.22128 23.7822 2.23624C23.7672 2.23924 23.7552 2.24223 23.7403 2.24522C23.6834 2.2572 23.6295 2.27216 23.5727 2.28414C23.5158 2.29611 23.4589 2.31407 23.402 2.32904C23.3901 2.33203 23.3751 2.33502 23.3631 2.33802C23.3062 2.35298 23.2524 2.36795 23.1955 2.38591C23.1386 2.40088 23.0818 2.41884 23.0249 2.4368C23.0129 2.43979 23.0009 2.44278 22.989 2.44877C22.9321 2.46673 22.8752 2.48469 22.8213 2.50265C22.7645 2.52061 22.7076 2.54156 22.6507 2.55952C22.6387 2.56252 22.6268 2.5685 22.6178 2.5715C22.5609 2.58946 22.504 2.61041 22.4472 2.63136C22.3903 2.65231 22.3334 2.67327 22.2765 2.69422C22.2646 2.69721 22.2556 2.7032 22.2466 2.70619C22.1897 2.72715 22.1329 2.7481 22.076 2.77205C22.0191 2.79599 21.9622 2.81695 21.9024 2.84089C21.8934 2.84389 21.8844 2.84688 21.8754 2.85287C21.8186 2.87681 21.7617 2.90076 21.7018 2.92471C21.645 2.94865 21.5851 2.97559 21.5282 2.99954C21.5192 3.00253 21.5103 3.00852 21.5013 3.01151C21.4444 3.03845 21.3845 3.0624 21.3277 3.08934C21.2708 3.11628 21.2109 3.14322 21.154 3.17016C21.1451 3.17315 21.1391 3.17615 21.1301 3.18213C21.0732 3.20907 21.0134 3.23601 20.9565 3.26595C20.8996 3.29588 20.8397 3.32581 20.7829 3.35575C20.7769 3.35874 20.7709 3.36173 20.7649 3.36473C20.705 3.39466 20.6482 3.42459 20.5883 3.45453C20.5314 3.48446 20.4746 3.51739 20.4177 3.54732C20.4177 3.54732 20.4177 3.54732 20.4147 3.54732C20.4087 3.54732 20.4057 3.55331 20.3997 3.55331C20.3399 3.58623 20.28 3.61617 20.2201 3.65209C20.1663 3.68202 20.1094 3.71495 20.0555 3.74488C20.0525 3.74488 20.0465 3.75086 20.0435 3.75086C20.0405 3.75086 20.0375 3.75386 20.0345 3.75685C19.9747 3.78978 19.9148 3.8257 19.8549 3.86162C19.8011 3.89454 19.7472 3.92747 19.6963 3.9574C19.6903 3.9604 19.6843 3.96339 19.6783 3.96938C19.6783 3.96938 19.6724 3.96938 19.6724 3.97237C19.6125 4.00829 19.5526 4.04421 19.4928 4.08312C19.4419 4.11306 19.391 4.14598 19.3431 4.17891C19.3341 4.1849 19.3251 4.19088 19.3132 4.19687C19.2533 4.23578 19.1934 4.2747 19.1336 4.31361C19.0887 4.34354 19.0438 4.37348 18.9989 4.40341C18.9839 4.41239 18.9689 4.42436 18.954 4.43334C18.8941 4.47525 18.8342 4.51416 18.7744 4.55607C18.7474 4.57702 18.7175 4.59498 18.6905 4.61594C18.3762 4.83445 18.0649 5.06194 17.7566 5.3044C17.7447 5.31338 17.7297 5.32535 17.7177 5.33433C17.6339 5.40019 17.5471 5.46903 17.4633 5.53788C17.4304 5.56482 17.3974 5.58877 17.3645 5.61571C17.2867 5.67857 17.2088 5.74442 17.131 5.81027C17.0921 5.8432 17.0532 5.87313 17.0143 5.90606C16.9365 5.97191 16.8616 6.03776 16.7838 6.10062C16.7449 6.13355 16.706 6.16947 16.6641 6.2024C16.5892 6.26825 16.5144 6.3341 16.4396 6.39996C16.3977 6.43588 16.3587 6.4718 16.3168 6.50772C16.242 6.57357 16.1702 6.64242 16.0983 6.70827C16.0564 6.74718 16.0145 6.7831 15.9726 6.82202C15.9008 6.89086 15.8289 6.95672 15.7571 7.02556C15.7152 7.06448 15.6733 7.10339 15.6314 7.14529C15.5595 7.21414 15.4907 7.28299 15.4188 7.35183C15.3769 7.39374 15.332 7.43565 15.2901 7.47755C15.2213 7.5464 15.1494 7.61824 15.0806 7.68709C15.0387 7.72899 14.9968 7.7709 14.9549 7.8158C14.886 7.88764 14.8142 7.95948 14.7453 8.03132C14.7034 8.07622 14.6615 8.11812 14.6196 8.16302C14.5508 8.23486 14.4819 8.3097 14.4131 8.38154C14.3712 8.42644 14.3293 8.47134 14.2874 8.51624C14.2185 8.59107 14.1497 8.6659 14.0808 8.74074C14.0389 8.78564 13.997 8.83054 13.9581 8.87544C13.8893 8.95326 13.8204 9.0281 13.7516 9.10592C13.7126 9.15082 13.6707 9.19572 13.6318 9.24062C13.563 9.31845 13.4941 9.39927 13.4253 9.48009C13.3864 9.52499 13.3475 9.56989 13.3085 9.61479C13.2397 9.69561 13.1709 9.77643 13.102 9.85725C13.0631 9.90215 13.0242 9.95004 12.9853 9.99494C12.9164 10.0758 12.8476 10.1596 12.7787 10.2434C12.7398 10.2883 12.7039 10.3362 12.665 10.3811C12.5961 10.4649 12.5273 10.5487 12.4614 10.6325C12.4255 10.6774 12.3866 10.7253 12.3507 10.7702C12.2818 10.857 12.213 10.9438 12.1441 11.0306C12.1082 11.0755 12.0723 11.1204 12.0364 11.1653C11.9675 11.2521 11.8987 11.3419 11.8298 11.4317C11.7969 11.4766 11.761 11.5215 11.7281 11.5664C11.6592 11.6562 11.5874 11.749 11.5185 11.8418C11.4856 11.8837 11.4557 11.9256 11.4228 11.9705C11.3509 12.0663 11.2821 12.1591 11.2102 12.2549C11.1803 12.2968 11.1504 12.3387 11.1174 12.3806C11.0456 12.4764 10.9767 12.5752 10.9049 12.671C10.875 12.7099 10.848 12.7518 10.8181 12.7907C10.7463 12.8895 10.6744 12.9883 10.6056 13.09C10.5786 13.1289 10.5517 13.1679 10.5218 13.2068C10.4499 13.3085 10.3781 13.4133 10.3032 13.5181C10.2793 13.551 10.2554 13.5869 10.2314 13.6199C10.1566 13.7276 10.0817 13.8354 10.0069 13.9461C9.98596 13.9791 9.96201 14.012 9.94106 14.0449C9.86623 14.1557 9.79139 14.2664 9.71656 14.3802C9.69561 14.4101 9.67765 14.44 9.65669 14.47C9.57887 14.5867 9.50403 14.7004 9.42621 14.8172C9.41124 14.8411 9.39627 14.8621 9.38131 14.886C9.30049 15.0118 9.21967 15.1345 9.13885 15.2602C9.13286 15.2692 9.12687 15.2782 9.12089 15.2871C9.03408 15.4248 8.94428 15.5625 8.85747 15.7002C8.68087 15.9786 8.50726 16.26 8.33664 16.5413C5.15174 21.7767 2.46673 28.6523 1.44301 35.6657C1.44301 35.6657 1.44301 35.6657 1.44301 35.6627C1.42505 35.7854 1.41009 35.9111 1.39213 36.0339C1.3592 36.2673 1.32627 36.5008 1.29933 36.7343C1.28137 36.878 1.26641 37.0247 1.25144 37.1683C1.2245 37.4138 1.19457 37.6592 1.17361 37.9077C1.16763 37.9795 1.16164 38.0484 1.15565 38.1202C1.10776 38.677 1.06885 39.2337 1.0449 39.7875C1.03891 39.9192 1.02993 40.0539 1.02395 40.1856C1.01497 40.4041 1.01497 40.6226 1.00898 40.8411C1.00599 41.0118 1 41.1854 1 41.356C1 41.5655 1 41.7721 1.00599 41.9786C1.00599 42.1582 1.00898 42.3408 1.01497 42.5204C1.02095 42.7239 1.02993 42.9245 1.03891 43.128C1.04789 43.3136 1.05388 43.4992 1.06585 43.6818C1.07783 43.8794 1.09279 44.0769 1.10776 44.2745C1.12273 44.4601 1.13769 44.6487 1.15565 44.8342C1.17361 45.0288 1.19457 45.2204 1.21851 45.4149C1.23947 45.6035 1.26341 45.7921 1.28736 45.9807C1.31131 46.1693 1.34124 46.3578 1.36818 46.5464C1.39811 46.735 1.42805 46.9266 1.46097 47.1152C1.4939 47.3007 1.52682 47.4863 1.56274 47.6689C1.59866 47.8605 1.64057 48.0491 1.68248 48.2406C1.72139 48.4202 1.7603 48.5998 1.80221 48.7794C1.84711 48.974 1.898 49.1626 1.94888 49.3572C1.99378 49.5308 2.03868 49.7044 2.08658 49.875C2.14345 50.0756 2.20332 50.2701 2.26618 50.4677C2.31706 50.6293 2.36196 50.791 2.41584 50.9526C2.48768 51.1711 2.5685 51.3896 2.64633 51.6051C2.69422 51.7398 2.73912 51.8775 2.793 52.0122C2.92171 52.3535 3.05941 52.6887 3.20608 53.024C3.20608 53.018 3.1971 53.006 3.19411 52.997C3.1971 53.006 3.20309 53.018 3.20608 53.027C3.21207 53.0389 3.21207 53.0419 3.21506 53.0479C3.21805 53.0569 3.22105 53.0629 3.22105 53.0629C3.20009 53.012 3.18213 52.9611 3.15819 52.9132C3.16118 52.9222 3.16417 52.9312 3.16717 52.9402C3.16417 52.9312 3.15819 52.9192 3.15519 52.9102C3.14322 52.8773 3.12825 52.8414 3.11029 52.7995C3.1073 52.7905 3.10131 52.7785 3.09832 52.7695C3.08036 52.7216 3.0624 52.6708 3.04145 52.6109C3.03546 52.5929 3.02648 52.569 3.02049 52.548C3.00253 52.4942 2.98158 52.4403 2.96063 52.3774C2.95165 52.3505 2.94267 52.3205 2.93369 52.2906C2.91273 52.2307 2.89477 52.1709 2.87382 52.105C2.86185 52.0691 2.85287 52.0332 2.84089 51.9943C2.82293 51.9314 2.80198 51.8656 2.78402 51.7967C2.77205 51.7548 2.76007 51.7099 2.7481 51.665C2.73014 51.5962 2.71218 51.5273 2.69123 51.4555C2.67925 51.4076 2.66728 51.3567 2.65531 51.3088C2.63735 51.237 2.61939 51.1621 2.60143 51.0873C2.58946 51.0334 2.57748 50.9795 2.56551 50.9257C2.55054 50.8508 2.53258 50.773 2.51762 50.6922C2.50564 50.6353 2.49666 50.5784 2.48469 50.5186C2.46972 50.4377 2.45775 50.3569 2.44578 50.2761C2.4368 50.2162 2.42782 50.1564 2.41884 50.0965C2.40686 50.0127 2.39788 49.9289 2.3889 49.8421C2.38292 49.7792 2.37394 49.7193 2.36795 49.6565C2.35897 49.5697 2.35298 49.4799 2.347 49.3931C2.344 49.3302 2.33802 49.2673 2.33502 49.2045C2.33203 49.1117 2.32904 49.0189 2.32904 48.9261C2.32904 48.8662 2.32604 48.8064 2.32904 48.7435C2.32904 48.6417 2.33502 48.537 2.33802 48.4352C2.33802 48.3843 2.33802 48.3304 2.344 48.2796C2.35298 48.1239 2.36795 47.9712 2.3889 47.8156C2.3889 47.8156 2.46374 48.3005 2.59544 48.98C2.64333 49.2195 2.69422 49.4799 2.75409 49.7553C2.81096 50.0217 2.87681 50.2941 2.94566 50.5695C3.23901 51.7368 3.62814 52.8923 4.05618 53.1527C4.05618 53.1527 3.7808 50.8658 3.61616 48.2945C3.61616 48.2766 3.61616 48.2616 3.61317 48.2436C3.5982 47.9862 3.58324 47.7258 3.56827 47.4654C3.56827 47.4504 3.56827 47.4384 3.56827 47.4235C3.53235 46.741 3.50841 46.0525 3.50242 45.397C3.50242 45.2653 3.50242 45.1336 3.50242 45.0049C3.50242 44.8761 3.50242 44.7474 3.50242 44.6217C3.50841 44.1188 3.52936 43.6429 3.56528 43.2178C3.56528 43.2178 3.6012 44.7085 3.75086 46.4327C3.75984 46.5404 3.76882 46.6482 3.7808 46.7589C3.80175 46.9775 3.8227 47.199 3.84665 47.4205C3.8706 47.642 3.89754 47.8635 3.92448 48.082C3.96638 48.4083 4.01428 48.7315 4.06516 49.0399C4.20286 49.863 4.37946 50.5844 4.59798 51.0544C4.59798 51.0544 4.43634 49.9798 4.44532 48.9231C4.44532 48.7196 4.45729 48.519 4.47226 48.3245C4.4962 48.058 4.53512 47.8066 4.59798 47.5911C4.59798 47.5911 6.71126 57.0141 9.16579 59.4536C9.16579 59.4536 8.44739 57.3403 8.0852 55.4965C7.98342 54.9786 7.91158 54.4847 7.89063 54.0627C7.89063 54.0627 8.97421 58.0647 11.6143 60.6091C12.1022 61.082 12.644 61.5011 13.2427 61.8393C13.2427 61.8393 12.8745 61.3843 12.4584 60.648C12.3537 60.4624 12.2459 60.2618 12.1412 60.0433C11.8239 59.3908 11.5245 58.6035 11.3779 57.7534C11.3719 57.7235 11.3689 57.6995 11.3629 57.6726C11.312 57.3733 11.2671 57.1129 11.2282 56.8884C11.2192 56.8345 11.2102 56.7806 11.2012 56.7297C11.1953 56.6998 11.1923 56.6698 11.1863 56.6429C11.1713 56.5561 11.1563 56.4753 11.1444 56.4004C11.1114 56.2029 11.0845 56.0502 11.0636 55.9275C11.0576 55.8976 11.0546 55.8676 11.0486 55.8407C11.0396 55.7928 11.0336 55.7509 11.0276 55.715C11.0187 55.6641 11.0127 55.6222 11.0067 55.5922C11.0007 55.5593 10.9977 55.5354 10.9947 55.5174C10.9947 55.5174 10.9947 55.5114 10.9947 55.5084C10.9947 55.4965 10.9917 55.4875 10.9917 55.4845V55.4875C10.9917 55.4935 10.9917 55.4965 10.9947 55.5054C10.9947 55.5144 10.9977 55.5234 11.0007 55.5384C11.0007 55.5503 11.0037 55.5623 11.0067 55.5773C11.0097 55.5922 11.0127 55.6102 11.0157 55.6312C11.0187 55.6461 11.0216 55.6641 11.0246 55.682C11.0306 55.703 11.0336 55.7269 11.0396 55.7539C11.0456 55.7778 11.0486 55.7988 11.0546 55.8257C11.0606 55.8527 11.0665 55.8826 11.0725 55.9125C11.0785 55.9395 11.0845 55.9664 11.0905 55.9934C11.0995 56.0263 11.1055 56.0622 11.1144 56.1011C11.1204 56.131 11.1294 56.164 11.1384 56.1939C11.1474 56.2328 11.1563 56.2717 11.1683 56.3136C11.1773 56.3496 11.1863 56.3825 11.1953 56.4214C11.2072 56.4633 11.2192 56.5082 11.2312 56.5561C11.2402 56.595 11.2521 56.6339 11.2641 56.6728C11.2761 56.7207 11.291 56.7686 11.306 56.8195C11.318 56.8614 11.33 56.9033 11.3419 56.9452C11.3569 56.9961 11.3719 57.05 11.3868 57.1009C11.3988 57.1458 11.4138 57.1907 11.4287 57.2356C11.4467 57.2895 11.4647 57.3463 11.4826 57.4032C11.4976 57.4511 11.5126 57.496 11.5275 57.5439C11.5455 57.6008 11.5664 57.6606 11.5874 57.7205C11.6053 57.7684 11.6203 57.8193 11.6383 57.8672C11.6592 57.927 11.6802 57.9869 11.7041 58.0468C11.7221 58.0977 11.74 58.1485 11.761 58.1994C11.7849 58.2623 11.8089 58.3251 11.8328 58.388C11.8538 58.4389 11.8747 58.4928 11.8957 58.5437C11.9196 58.6065 11.9466 58.6694 11.9735 58.7352C11.9945 58.7891 12.0184 58.843 12.0424 58.8969C12.0693 58.9597 12.0992 59.0256 12.1292 59.0884C12.1531 59.1423 12.1771 59.1962 12.204 59.2531C12.2339 59.3159 12.2639 59.3818 12.2968 59.4447C12.3237 59.4985 12.3507 59.5554 12.3776 59.6093C12.4106 59.6721 12.4435 59.738 12.4764 59.8009C12.5063 59.8547 12.5333 59.9116 12.5632 59.9655C12.5991 60.0284 12.635 60.0912 12.671 60.1571C12.7009 60.2109 12.7338 60.2648 12.7638 60.3217C12.7997 60.3846 12.8386 60.4474 12.8775 60.5103C12.9104 60.5642 12.9434 60.618 12.9763 60.6719C13.0152 60.7348 13.0571 60.7946 13.099 60.8545C13.1349 60.9084 13.1709 60.9593 13.2068 61.0132C13.2487 61.073 13.2936 61.1329 13.3385 61.1898C13.3774 61.2406 13.4133 61.2915 13.4522 61.3424C13.4971 61.4023 13.545 61.4592 13.5929 61.516C13.6318 61.5639 13.6737 61.6148 13.7126 61.6597C13.7605 61.7166 13.8114 61.7675 13.8623 61.8243C13.9042 61.8722 13.9461 61.9171 13.991 61.965C14.0419 62.0189 14.0958 62.0668 14.1467 62.1177C14.1916 62.1626 14.2365 62.2075 14.2844 62.2494C14.3383 62.3003 14.3951 62.3452 14.452 62.3931C14.4999 62.432 14.5448 62.4739 14.5957 62.5128C14.6525 62.5577 14.7154 62.6026 14.7753 62.6445C14.8262 62.6804 14.8741 62.7193 14.9249 62.7523C14.9878 62.7942 15.0507 62.8331 15.1165 62.872C15.1674 62.9049 15.2183 62.9379 15.2722 62.9678C15.338 63.0067 15.4099 63.0396 15.4757 63.0756C15.5296 63.1025 15.5805 63.1324 15.6344 63.1564C15.7062 63.1893 15.784 63.2192 15.8589 63.2522C15.9127 63.2731 15.9636 63.2971 16.0145 63.318C16.0983 63.3479 16.1881 63.3749 16.2749 63.4018C16.3228 63.4168 16.3677 63.4348 16.4156 63.4467C16.5443 63.4826 16.679 63.5096 16.8137 63.5335C16.8197 63.5335 16.8287 63.5365 16.8347 63.5395C16.8347 63.5395 14.443 62.9049 13.3983 59.8877C13.3983 59.8877 13.5151 60.0912 13.7126 60.3846C13.7605 60.4534 13.8114 60.5282 13.8683 60.6091C14.0359 60.8455 14.2395 61.1119 14.4729 61.3724C14.6136 61.531 14.7633 61.6867 14.9219 61.8303C15.3141 62.1895 15.7511 62.4709 16.1851 62.5338C16.1851 62.5338 16.0804 62.4619 15.9337 62.3093C15.811 62.1835 15.6643 62.001 15.5236 61.7615C15.4967 61.7136 15.4667 61.6627 15.4398 61.6118C15.332 61.4023 15.2333 61.1538 15.1644 60.8665C15.1644 60.8665 15.2333 60.9533 15.341 61.082C15.3889 61.1359 15.4428 61.1987 15.5027 61.2646C15.5805 61.3514 15.6703 61.4442 15.7661 61.54C15.8409 61.6148 15.9217 61.6896 16.0055 61.7585C16.0654 61.8094 16.1253 61.8573 16.1851 61.9022C16.236 61.9381 16.2839 61.974 16.3348 62.0069C16.4366 62.0728 16.5383 62.1267 16.6341 62.1626C16.6341 62.1626 16.4904 62.0339 16.3228 61.8004C16.1552 61.5669 15.9636 61.2287 15.8619 60.8126C15.8619 60.8126 15.8708 60.8216 15.8888 60.8365C16.0744 61.0102 17.1879 62.0459 18.1218 62.7104C18.1937 62.7613 18.2625 62.8092 18.3343 62.854C18.5558 63.0007 18.7624 63.1234 18.936 63.1953C19.0018 63.2222 19.0647 63.2432 19.1216 63.2552C19.2323 63.2791 19.3401 63.324 19.4389 63.3779C19.5855 63.4617 19.7202 63.5724 19.837 63.6952C19.8759 63.7371 19.9148 63.779 19.9507 63.8209C20.3069 64.2519 20.4925 64.7638 20.4925 64.7638C20.4925 64.7638 19.8699 62.881 18.951 62.2195C18.032 61.5579 17.0113 59.8338 17.0113 59.8338C17.0113 59.8338 17.4274 60.0882 17.8255 60.3816C17.8704 60.4145 17.9123 60.4474 17.9572 60.4803C18.2146 60.6809 18.4391 60.8874 18.505 61.0401C18.5499 61.1419 18.6307 61.2646 18.7354 61.3933C18.8402 61.522 18.9689 61.6567 19.1066 61.7765C19.1755 61.8363 19.2443 61.8932 19.3161 61.9441C19.385 61.995 19.4568 62.0399 19.5257 62.0788C19.6215 62.1297 19.7113 62.1656 19.7921 62.1805C19.8011 62.1805 19.81 62.1835 19.816 62.1865C19.843 62.1895 19.8699 62.1925 19.8969 62.1895C19.8969 62.1895 19.8939 62.1865 19.8879 62.1805C19.8819 62.1746 19.8699 62.1626 19.8579 62.1506C19.834 62.1267 19.8011 62.0908 19.7622 62.0488C19.6903 61.971 19.6005 61.8633 19.5017 61.7345C19.4389 61.6507 19.373 61.5609 19.3102 61.4622C19.2473 61.3664 19.1874 61.2646 19.1306 61.1568C19.0108 60.9234 18.9121 60.6689 18.8761 60.4115C18.8761 60.4115 19.4479 60.8785 20.1722 61.3275C20.4446 61.4951 20.738 61.6627 21.0283 61.8004C21.5162 62.0309 22.0012 62.1806 22.3813 62.1357C22.3813 62.1357 18.7654 59.8398 16.6252 54.9996C20.6302 58.5377 25.8895 60.6899 31.6546 60.6899C33.9595 60.6899 36.1805 60.3426 38.2759 59.7051C38.1262 59.7919 37.9795 59.8787 37.8239 59.9625C37.8239 59.9625 38.5243 59.8727 39.111 59.6482C39.1649 59.6272 39.2188 59.6033 39.2726 59.5823C39.3175 59.5614 39.3594 59.5434 39.3984 59.5225C39.4612 59.4896 39.5211 59.4566 39.575 59.4207C39.575 59.4207 39.3654 59.6662 39.0541 59.9745C38.8985 60.1301 38.7129 60.3007 38.5183 60.4654C38.2549 60.6839 37.9705 60.8934 37.6922 61.0371C37.5515 61.1089 37.4138 61.1658 37.2821 61.1987C37.2162 61.2167 37.1504 61.2257 37.0875 61.2317C37.0875 61.2317 37.1145 61.2377 37.1683 61.2436C37.2551 61.2556 37.4108 61.2766 37.6173 61.2915C37.6592 61.2945 37.7041 61.2975 37.749 61.3005C37.7969 61.3035 37.8478 61.3065 37.8987 61.3095C37.9975 61.3155 38.1022 61.3185 38.213 61.3185C38.3836 61.3185 38.5692 61.3185 38.7668 61.3095C39.096 61.2945 39.4612 61.2586 39.8444 61.1958C39.9222 61.1838 39.997 61.1688 40.0749 61.1538C40.9339 60.9862 41.8708 60.6599 42.7329 60.0643C42.7329 60.0643 42.7269 60.0762 42.715 60.0912C42.712 60.0972 42.706 60.1062 42.703 60.1122C42.694 60.1271 42.682 60.1451 42.6671 60.169C42.6581 60.184 42.6461 60.205 42.6341 60.2199C42.6222 60.2409 42.6072 60.2618 42.5922 60.2858C42.5773 60.3127 42.5563 60.3426 42.5384 60.3696C42.5234 60.3935 42.5084 60.4175 42.4905 60.4414C42.4695 60.4744 42.4426 60.5133 42.4186 60.5492C42.4007 60.5761 42.3827 60.6001 42.3647 60.63C42.3378 60.6689 42.3079 60.7138 42.2809 60.7557C42.26 60.7857 42.242 60.8156 42.2211 60.8455C42.1911 60.8904 42.1582 60.9383 42.1253 60.9862C42.1043 61.0161 42.0834 61.0461 42.0624 61.076C42.0265 61.1269 41.9906 61.1778 41.9517 61.2317C41.9307 61.2616 41.9098 61.2885 41.8888 61.3185C41.8499 61.3724 41.808 61.4292 41.7661 61.4831C41.7451 61.51 41.7242 61.537 41.7032 61.5669C41.6583 61.6238 41.6164 61.6807 41.5715 61.7375C41.5536 61.7615 41.5326 61.7854 41.5146 61.8064C41.4667 61.8663 41.4188 61.9261 41.368 61.986C41.356 62.001 41.344 62.0129 41.332 62.0279C41.1495 62.2404 40.9669 62.441 40.7843 62.6086C40.7783 62.6146 40.7693 62.6206 40.7633 62.6296C40.7184 62.6715 40.6735 62.7074 40.6286 62.7433C40.6047 62.7613 40.5837 62.7822 40.5598 62.8002C40.5209 62.8301 40.479 62.857 40.44 62.884C40.4161 62.9019 40.3892 62.9199 40.3652 62.9349C40.3712 62.9349 40.3742 62.9289 40.3802 62.9289C40.3862 62.9289 40.3921 62.9229 40.3981 62.9199C40.4161 62.9109 40.434 62.9019 40.452 62.893C40.476 62.881 40.4999 62.869 40.5238 62.857C40.5448 62.8481 40.5628 62.8391 40.5837 62.8271C40.6286 62.8032 40.6765 62.7822 40.7244 62.7553C40.7304 62.7523 40.7394 62.7493 40.7454 62.7433C40.7903 62.7194 40.8352 62.6984 40.883 62.6715C40.901 62.6625 40.919 62.6535 40.9399 62.6415C40.9788 62.6206 41.0148 62.6026 41.0537 62.5817C41.0746 62.5697 41.0956 62.5607 41.1165 62.5487C41.1644 62.5218 41.2153 62.4978 41.2632 62.4709C41.2722 62.4649 41.2812 62.4619 41.2901 62.4559C41.35 62.423 41.4069 62.3901 41.4667 62.3572C41.4817 62.3482 41.4967 62.3392 41.5116 62.3332C41.5565 62.3093 41.5985 62.2823 41.6434 62.2584C41.6613 62.2464 41.6793 62.2374 41.6972 62.2254C41.7421 62.1985 41.784 62.1746 41.8259 62.1476C41.8379 62.1386 41.8529 62.1327 41.8649 62.1237C41.9187 62.0908 41.9696 62.0578 42.0205 62.0249C42.0295 62.0189 42.0385 62.0129 42.0475 62.0069C42.0864 61.98 42.1253 61.9561 42.1582 61.9321C42.1732 61.9231 42.1851 61.9111 42.2001 61.9022C42.23 61.8812 42.26 61.8573 42.2869 61.8363C42.2989 61.8273 42.3109 61.8184 42.3198 61.8094C42.3558 61.7794 42.3887 61.7525 42.4186 61.7256C42.4186 61.7256 42.0415 62.2883 41.5655 62.7463C41.2782 63.0217 40.9579 63.2581 40.6586 63.315C40.6586 63.315 41.6823 63.1624 42.715 62.7044C43.1849 62.4949 43.6549 62.2254 44.029 61.8752C44.029 61.8752 43.6878 62.405 43.2089 63.0636C42.9125 63.4677 42.5653 63.9227 42.2091 64.3357C42.1642 64.3866 42.1193 64.4375 42.0744 64.4884C41.6284 64.9883 41.1824 65.4014 40.8292 65.548C40.8292 65.548 43.0802 64.6201 46.4327 61.3245C46.6452 61.1149 46.8607 60.8994 47.0792 60.6719C48.1209 59.5973 49.2524 58.3012 50.4467 56.7477C50.4467 56.7477 50.4108 56.8884 50.312 57.1338C50.2941 57.1787 50.2731 57.2266 50.2522 57.2775C50.2222 57.3433 50.1893 57.4182 50.1504 57.496C50.0995 57.6038 50.0426 57.7175 49.9738 57.8432C49.7403 58.2713 49.3991 58.8101 48.9052 59.4237C48.7076 59.6692 48.4861 59.9266 48.2376 60.193C48.1149 60.3277 47.9832 60.4624 47.8455 60.6001C47.8455 60.6001 48.0551 60.4833 48.3813 60.2738C48.5759 60.1481 48.8124 59.9894 49.0668 59.8009C49.1506 59.738 49.2404 59.6721 49.3272 59.6033C49.5038 59.4656 49.6864 59.3159 49.869 59.1543C50.324 58.7532 50.779 58.2832 51.1322 57.7684C51.1322 57.7684 50.8568 58.3222 50.3569 59.0735C49.857 59.8248 49.1356 60.7797 48.2376 61.5789C48.1628 61.6447 48.088 61.7106 48.0102 61.7765C47.7018 62.0339 47.3756 62.2704 47.0313 62.4739C46.7739 62.6266 46.5045 62.7613 46.2291 62.869C46.2291 62.869 46.5734 62.7882 47.1241 62.5577C47.2049 62.5248 47.2918 62.4859 47.3786 62.444C47.4923 62.3931 47.609 62.3362 47.7348 62.2733C47.9563 62.1596 48.1987 62.0279 48.4502 61.8722C48.7226 61.7046 49.0069 61.51 49.3003 61.2885C49.6415 61.0311 49.9947 60.7348 50.3449 60.3935C50.5305 60.2109 50.7191 60.0194 50.9047 59.8098C51.1831 59.4985 51.4555 59.1573 51.7219 58.7861C52.1649 58.1635 52.581 57.4511 52.9491 56.6369C52.9491 56.6369 52.5211 57.8552 51.7967 59.271C51.662 59.5374 51.5153 59.8098 51.3597 60.0822C50.6862 61.2646 49.8361 62.4529 48.8782 63.0965C48.8782 63.0965 49.4829 62.9409 50.4377 62.4051C50.4946 62.3721 50.5515 62.3392 50.6084 62.3063C50.9586 62.0997 51.3507 61.8453 51.7698 61.531C51.9104 61.4262 52.0541 61.3155 52.2008 61.1958C52.2756 61.1359 52.3475 61.076 52.4223 61.0132C52.572 60.8874 52.7246 60.7557 52.8773 60.615C53.2634 60.2648 53.6645 59.8697 54.0716 59.4207C54.2333 59.2411 54.3979 59.0525 54.5625 58.855C54.7272 58.6574 54.8918 58.4539 55.0594 58.2383C55.4755 57.7025 55.8916 57.1069 56.3047 56.4513C56.3885 56.3196 56.4693 56.1849 56.5531 56.0502C56.7626 55.703 56.9692 55.3378 57.1757 54.9577C57.3733 54.5895 57.5708 54.2063 57.7654 53.8052C57.8432 53.6406 57.9211 53.476 57.9989 53.3083C58.1755 52.9222 58.3521 52.5181 58.5227 52.102C58.6514 51.7907 58.7771 51.4734 58.8999 51.1442C58.9986 50.8837 59.0944 50.6173 59.1872 50.3479C59.3578 49.863 59.5225 49.3601 59.6811 48.8393C59.717 48.7256 59.75 48.6088 59.7859 48.4921C60.1571 47.2409 60.4953 45.8879 60.7916 44.4182C60.7916 44.4182 61.0042 46.0106 60.7767 47.7228C60.7677 47.8006 60.7557 47.8784 60.7438 47.9563C60.7288 48.0461 60.7138 48.1389 60.6959 48.2287C60.6689 48.3723 60.639 48.516 60.6061 48.6597C60.5881 48.7375 60.5671 48.8154 60.5462 48.8932C60.4414 49.2793 60.3067 49.6535 60.1331 49.9977C60.1331 49.9977 60.1421 49.9917 60.1541 49.9798C60.1571 49.9768 60.1571 49.9768 60.163 49.9738C60.178 49.9588 60.202 49.9408 60.2289 49.9139C60.2319 49.9109 60.2379 49.9079 60.2409 49.9019C60.2708 49.875 60.3067 49.8421 60.3456 49.8032C60.3456 49.8032 60.3516 49.7972 60.3546 49.7942C60.4354 49.7134 60.5312 49.6086 60.627 49.4859C60.63 49.4799 60.633 49.4769 60.639 49.4709C60.6869 49.411 60.7318 49.3482 60.7767 49.2793C60.7827 49.2733 60.7857 49.2644 60.7916 49.2584C60.8365 49.1895 60.8814 49.1177 60.9204 49.0429C60.9204 49.0399 60.9234 49.0339 60.9263 49.0309C60.9683 48.953 61.0042 48.8722 61.0371 48.7884C61.0371 48.7884 61.0371 48.7944 61.0371 48.7974C61.0221 48.8543 61.0012 48.9201 60.9832 48.989C60.9832 48.995 60.9802 49.0039 60.9772 49.0099C60.9593 49.0728 60.9383 49.1446 60.9174 49.2165C60.9144 49.2284 60.9084 49.2434 60.9054 49.2554C60.8814 49.3332 60.8575 49.414 60.8336 49.4978C60.8276 49.5188 60.8216 49.5397 60.8156 49.5607C60.7887 49.6475 60.7617 49.7343 60.7348 49.8271C60.7288 49.8451 60.7228 49.863 60.7198 49.878C60.6959 49.9588 60.6689 50.0426 60.642 50.1294C60.633 50.1534 60.627 50.1773 60.618 50.2043C60.5881 50.3 60.5552 50.3958 60.5252 50.4976C60.5163 50.5275 60.5073 50.5575 60.4953 50.5874C60.4624 50.6892 60.4265 50.7939 60.3935 50.8987C60.3875 50.9167 60.3816 50.9346 60.3756 50.9526C60.3426 51.0454 60.3127 51.1382 60.2798 51.234C60.2708 51.2639 60.2588 51.2908 60.2499 51.3208C60.2139 51.4255 60.175 51.5273 60.1391 51.6321C60.1301 51.659 60.1181 51.6889 60.1092 51.7159C60.0703 51.8236 60.0313 51.9284 59.9894 52.0332C59.9834 52.0452 59.9805 52.0601 59.9745 52.0721C59.9356 52.1709 59.8996 52.2667 59.8607 52.3624C59.8517 52.3864 59.8428 52.4103 59.8308 52.4343C59.7889 52.5331 59.75 52.6318 59.7081 52.7276C59.6991 52.7516 59.6871 52.7725 59.6781 52.7965C59.6362 52.8953 59.5913 52.991 59.5494 53.0838C59.5494 53.0898 59.5434 53.0928 59.5434 53.0988C59.5015 53.1886 59.4596 53.2724 59.4177 53.3532C59.4087 53.3712 59.3997 53.3892 59.3908 53.4041C59.3489 53.4849 59.307 53.5598 59.265 53.6316C59.2561 53.6466 59.2471 53.6616 59.2381 53.6735C59.1932 53.7454 59.1513 53.8142 59.1094 53.8771C59.1094 53.8771 59.1124 53.8741 59.1184 53.8681C59.1244 53.8621 59.1333 53.8531 59.1453 53.8382C59.1453 53.8382 59.1483 53.8322 59.1513 53.8292C59.1663 53.8142 59.1812 53.7963 59.2022 53.7723C59.2022 53.7723 59.2052 53.7693 59.2082 53.7663C59.2261 53.7454 59.2441 53.7244 59.268 53.6975C59.274 53.6885 59.28 53.6825 59.289 53.6735C59.31 53.6496 59.3309 53.6226 59.3549 53.5957C59.3608 53.5867 59.3668 53.5807 59.3728 53.5718C59.4027 53.5358 59.4327 53.4939 59.4656 53.452C59.4716 53.443 59.4806 53.4311 59.4866 53.4221C59.5135 53.3862 59.5404 53.3473 59.5704 53.3083C59.5823 53.2934 59.5913 53.2784 59.6033 53.2604C59.6362 53.2155 59.6662 53.1706 59.7021 53.1198C59.7081 53.1078 59.717 53.0988 59.723 53.0868C59.7619 53.027 59.8038 52.9641 59.8487 52.8953C59.8607 52.8773 59.8727 52.8563 59.8847 52.8384C59.9176 52.7875 59.9505 52.7336 59.9834 52.6767C59.9984 52.6528 60.0134 52.6289 60.0254 52.6049C60.0673 52.5331 60.1122 52.4582 60.1571 52.3774C60.1601 52.3714 60.163 52.3654 60.166 52.3595C60.2139 52.2756 60.2618 52.1858 60.3097 52.093C60.3247 52.0661 60.3397 52.0362 60.3546 52.0062C60.3905 51.9344 60.4295 51.8626 60.4654 51.7877C60.4803 51.7578 60.4953 51.7279 60.5103 51.6979C60.5612 51.5962 60.6091 51.4884 60.6599 51.3776C60.6689 51.3597 60.6749 51.3417 60.6839 51.3268C60.7258 51.231 60.7707 51.1322 60.8126 51.0304C60.8276 50.9915 60.8455 50.9526 60.8605 50.9137C60.8994 50.8209 60.9353 50.7251 60.9742 50.6263C60.9862 50.5934 61.0012 50.5575 61.0131 50.5245C61.061 50.3958 61.1119 50.2611 61.1598 50.1234C61.1718 50.0905 61.1838 50.0546 61.1957 50.0217C61.2347 49.9109 61.2706 49.8002 61.3095 49.6834C61.3245 49.6355 61.3394 49.5876 61.3544 49.5397C61.3933 49.417 61.4292 49.2943 61.4651 49.1656C61.4741 49.1327 61.4831 49.0997 61.4951 49.0668C61.54 48.9082 61.5819 48.7465 61.6268 48.5789C61.6388 48.531 61.6507 48.4831 61.6627 48.4382C61.6956 48.3095 61.7256 48.1778 61.7555 48.0461C61.7675 47.9922 61.7794 47.9353 61.7914 47.8784C61.8273 47.7138 61.8633 47.5432 61.8962 47.3696C61.8992 47.3516 61.9022 47.3367 61.9052 47.3187C61.9411 47.1301 61.974 46.9356 62.0069 46.738C62.0159 46.6781 62.0249 46.6183 62.0339 46.5584C62.0458 46.4836 62.0578 46.4117 62.0698 46.3369V46.3309C62.3601 44.3703 62.4709 41.9816 62.2314 39.102C62.2314 39.102 63.0007 40.2904 62.9169 41.4757C63.6473 30.5052 59.1363 18.7833 52.8563 10.7912L52.8623 10.8061Z" fill="#0A0808" stroke="white" stroke-width="1.49666" stroke-linecap="round" stroke-linejoin="round"/>
<path d="M31.6635 60.7019C44.2061 60.7019 54.3738 50.5342 54.3738 37.9916C54.3738 25.449 44.2061 15.2812 31.6635 15.2812C19.1209 15.2812 8.95312 25.449 8.95312 37.9916C8.95312 50.5342 19.1209 60.7019 31.6635 60.7019Z" fill="url(#paint0_linear_823_46066)" stroke="#FCC3B7" stroke-width="0.598665" stroke-miterlimit="10"/>
<path d="M36.8478 42.3708C36.8478 42.3708 36.2761 44.5529 37.2758 46.1723C38.2756 47.7917 40.5146 48.3873 42.2058 48.0072C43.8971 47.627 45.3249 46.9116 46.0163 45.6006C46.7078 44.2895 47.7555 41.5506 47.7555 41.0986C47.7555 40.6466 45.9445 40.5029 45.9445 40.5029H40.2123L37.8835 41.1166L36.8478 42.3708Z" fill="white"/>
<path d="M45.4029 43.1044C45.4029 45.2626 43.6548 47.0107 41.4966 47.0107C39.3384 47.0107 37.5903 45.2626 37.5903 43.1044C37.5903 42.1226 37.9525 41.2276 38.5482 40.5391C39.2636 39.716 40.3202 40.1919 41.4966 40.1919C42.4724 40.1919 43.3645 39.5543 44.0499 40.144C44.8791 40.8594 45.4029 41.9191 45.4029 43.1014V43.1044Z" fill="#77757F"/>
<path d="M41.883 46.1754C43.0419 46.1754 43.9813 45.236 43.9813 44.0771C43.9813 42.9182 43.0419 41.9788 41.883 41.9788C40.7241 41.9788 39.7847 42.9182 39.7847 44.0771C39.7847 45.236 40.7241 46.1754 41.883 46.1754Z" fill="#98A6BA"/>
<path d="M41.8828 45.5769C43.202 45.5769 44.2715 44.5075 44.2715 43.1882C44.2715 41.869 43.202 40.7996 41.8828 40.7996C40.5636 40.7996 39.4941 41.869 39.4941 43.1882C39.4941 44.5075 40.5636 45.5769 41.8828 45.5769Z" fill="#77757F"/>
<path d="M41.8829 44.8404C42.7342 44.8404 43.4244 44.1503 43.4244 43.2989C43.4244 42.4475 42.7342 41.7573 41.8829 41.7573C41.0315 41.7573 40.3413 42.4475 40.3413 43.2989C40.3413 44.1503 41.0315 44.8404 41.8829 44.8404Z" fill="#171517"/>
<path d="M37.7283 44.1099C37.7283 44.1099 42.772 41.3621 45.3313 42.8887C45.3313 42.8887 45.1517 40.8861 44.6399 40.5C44.128 40.1138 40.2127 40.5 40.2127 40.5L37.8839 41.1136C37.8839 41.1136 37.2164 43.8256 37.7283 44.1069V44.1099Z" fill="#171517"/>
<path d="M43.9986 43.5231C44.6351 43.5231 45.1511 43.0072 45.1511 42.3707C45.1511 41.7342 44.6351 41.2183 43.9986 41.2183C43.3622 41.2183 42.8462 41.7342 42.8462 42.3707C42.8462 43.0072 43.3622 43.5231 43.9986 43.5231Z" fill="#FAF9F9"/>
<path d="M35.1959 41.2393C35.1959 41.2393 37.0876 39.7546 41.2214 39.4493C45.3552 39.1439 48.2348 40.03 48.2348 40.03C48.2348 40.03 48.4174 40.7035 49.4291 40.5807C49.4291 40.5807 49.2465 40.7035 48.4174 40.7035C48.4174 40.7035 47.8037 45.0528 45.2624 46.3998C45.2624 46.3998 46.9147 44.3493 46.8848 41.1315C46.8848 41.1315 41.8021 40.5807 38.74 41.5895C38.74 41.5895 36.3812 43.6728 35.585 44.1308C35.585 44.1308 36.4112 43.0891 36.4411 42.5683C36.4411 42.5683 35.7676 43.149 35.3395 43.1819C35.3395 43.1819 35.9831 42.8138 36.2585 42.2031C36.5339 41.5925 37.1146 40.7933 37.5127 40.6107C37.5127 40.6107 35.8424 40.7035 35.1929 41.2393H35.1959Z" fill="#030303"/>
<path d="M41.4966 47.1927C39.2426 47.1927 37.4077 45.3578 37.4077 43.1038C37.4077 42.116 37.7639 41.1641 38.4105 40.4218C38.9882 39.7573 39.7515 39.8471 40.5597 39.9399C40.862 39.9758 41.1763 40.0117 41.4936 40.0117C41.8109 40.0117 42.1461 39.9339 42.4634 39.856C43.0501 39.7154 43.6578 39.5687 44.1666 40.0087C45.0676 40.787 45.5825 41.9154 45.5825 43.1038C45.5825 45.3578 43.7476 47.1927 41.4936 47.1927H41.4966ZM39.7365 40.2362C39.3204 40.2362 38.9702 40.329 38.6829 40.6583C38.0932 41.3347 37.7699 42.2028 37.7699 43.1038C37.7699 45.1572 39.4402 46.8305 41.4966 46.8305C43.553 46.8305 45.2233 45.1602 45.2233 43.1038C45.2233 42.0202 44.7533 40.9935 43.9332 40.2841C43.565 39.9638 43.119 40.0746 42.5532 40.2093C42.218 40.2901 41.8708 40.3739 41.4996 40.3739C41.1583 40.3739 40.8351 40.335 40.5208 40.2991C40.2394 40.2661 39.979 40.2362 39.7395 40.2362H39.7365Z" fill="black"/>
<path d="M26.4819 42.3708C26.4819 42.3708 27.0536 44.5529 26.0538 46.1723C25.0541 47.7917 22.8151 48.3873 21.1238 48.0072C19.4326 47.627 18.0048 46.9116 17.3133 45.6006C16.6219 44.2895 15.5742 41.5506 15.5742 41.0986C15.5742 40.6466 17.3852 40.5029 17.3852 40.5029H23.1174L25.4462 41.1166L26.4819 42.3708Z" fill="white"/>
<path d="M17.9243 43.1044C17.9243 45.2626 19.6724 47.0107 21.8306 47.0107C23.9888 47.0107 25.7369 45.2626 25.7369 43.1044C25.7369 42.1226 25.3747 41.2276 24.779 40.5391C24.0636 39.716 23.007 40.1919 21.8306 40.1919C20.8548 40.1919 19.9628 39.5543 19.2773 40.144C18.4481 40.8594 17.9243 41.9191 17.9243 43.1014V43.1044Z" fill="#77757F"/>
<path d="M22.0431 46.0494C23.202 46.0494 24.1415 45.11 24.1415 43.9511C24.1415 42.7922 23.202 41.8528 22.0431 41.8528C20.8843 41.8528 19.9448 42.7922 19.9448 43.9511C19.9448 45.11 20.8843 46.0494 22.0431 46.0494Z" fill="#98A6BA"/>
<path d="M22.0435 45.4509C23.3627 45.4509 24.4321 44.3815 24.4321 43.0623C24.4321 41.743 23.3627 40.6736 22.0435 40.6736C20.7242 40.6736 19.6548 41.743 19.6548 43.0623C19.6548 44.3815 20.7242 45.4509 22.0435 45.4509Z" fill="#77757F"/>
<path d="M22.043 44.8404C22.8944 44.8404 23.5846 44.1503 23.5846 43.2989C23.5846 42.4475 22.8944 41.7573 22.043 41.7573C21.1916 41.7573 20.5015 42.4475 20.5015 43.2989C20.5015 44.1503 21.1916 44.8404 22.043 44.8404Z" fill="#171517"/>
<path d="M25.5991 44.1099C25.5991 44.1099 20.5554 41.3621 17.9961 42.8887C17.9961 42.8887 18.1757 40.8861 18.6876 40.5C19.1994 40.1138 23.1147 40.5 23.1147 40.5L25.4435 41.1136C25.4435 41.1136 26.111 43.8256 25.5991 44.1069V44.1099Z" fill="#171517"/>
<path d="M24.1202 43.5231C24.7567 43.5231 25.2726 43.0072 25.2726 42.3707C25.2726 41.7342 24.7567 41.2183 24.1202 41.2183C23.4837 41.2183 22.9678 41.7342 22.9678 42.3707C22.9678 43.0072 23.4837 43.5231 24.1202 43.5231Z" fill="#FAF9F9"/>
<path d="M28.1312 41.2393C28.1312 41.2393 26.2394 39.7546 22.1056 39.4493C17.9719 39.1439 15.0923 40.03 15.0923 40.03C15.0923 40.03 14.9097 40.7035 13.8979 40.5807C13.8979 40.5807 14.0805 40.7035 14.9097 40.7035C14.9097 40.7035 15.5233 45.0528 18.0647 46.3998C18.0647 46.3998 16.4123 44.3493 16.4423 41.1315C16.4423 41.1315 21.5249 40.5807 24.5871 41.5895C24.5871 41.5895 26.9458 43.6728 27.7421 44.1308C27.7421 44.1308 26.9159 43.0891 26.886 42.5683C26.886 42.5683 27.5595 43.149 27.9875 43.1819C27.9875 43.1819 27.344 42.8138 27.0686 42.2031C26.7932 41.5895 26.2125 40.7933 25.8144 40.6107C25.8144 40.6107 27.4846 40.7035 28.1342 41.2393H28.1312Z" fill="#030303"/>
<path d="M17.7447 43.1038C17.7447 41.9154 18.2595 40.787 19.1605 40.0087C19.6694 39.5687 20.277 39.7154 20.8637 39.856C21.178 39.9309 21.5043 40.0117 21.8336 40.0117C22.1628 40.0117 22.4652 39.9758 22.7675 39.9399C23.5757 39.8441 24.339 39.7573 24.9167 40.4218C25.5633 41.1641 25.9195 42.119 25.9195 43.1038C25.9195 45.3578 24.0846 47.1927 21.8306 47.1927C19.5766 47.1927 17.7417 45.3578 17.7417 43.1038H17.7447ZM22.8094 40.2991C22.4951 40.335 22.1718 40.3739 21.8306 40.3739C21.4594 40.3739 21.1122 40.2901 20.7769 40.2093C20.2112 40.0716 19.7652 39.9638 19.397 40.2841C18.5768 40.9935 18.1069 42.0202 18.1069 43.1038C18.1069 45.1572 19.7772 46.8305 21.8336 46.8305C23.887 46.8305 25.5603 45.1602 25.5603 43.1038C25.5603 42.2058 25.237 41.3377 24.6473 40.6583C24.3599 40.329 24.0097 40.2362 23.5936 40.2362C23.3542 40.2362 23.0938 40.2661 22.8124 40.2991H22.8094Z" fill="black"/>
<path d="M30.4748 53.6496C30.409 53.6496 30.3461 53.6137 30.3132 53.5508L29.4541 51.8566L29.6157 51.7728C30.0318 51.5572 30.6484 51.1472 30.7203 50.9017C30.7472 50.8059 30.849 50.749 30.9448 50.776C31.0406 50.8029 31.0974 50.9047 31.0705 51.0005C30.9568 51.3986 30.2803 51.8207 29.942 52.0092L30.6395 53.3862C30.6844 53.476 30.6484 53.5837 30.5586 53.6316C30.5317 53.6436 30.5048 53.6526 30.4778 53.6526L30.4748 53.6496Z" fill="black"/>
<path d="M29.0447 23.3002C29.0447 23.3002 29.5566 40.9609 23.5819 50.7281C23.5819 50.7281 33.5766 47.1062 36.2167 23.3002C36.2167 23.3002 36.986 27.8082 39.3447 31.029C41.7035 34.2498 45.3493 39.5779 45.2416 45.5257C45.1338 51.4734 44.2268 56.4842 37.8361 59.9745C37.8361 59.9745 39.0065 59.8248 39.5842 59.4297C39.5842 59.4297 38.1025 61.1658 37.0938 61.2406C37.0938 61.2406 40.2278 61.8124 42.7422 60.0732C42.7422 60.0732 41.1317 62.7283 40.1439 63.0516C40.1439 63.0516 41.925 62.2075 42.4189 61.7375C42.4189 61.7375 41.452 63.1773 40.6588 63.327C40.6588 63.327 42.826 63.0037 44.0293 61.8872C44.0293 61.8872 41.9669 65.0871 40.8294 65.56C40.8294 65.56 45.0021 63.8448 50.447 56.7626C50.447 56.7626 50.0548 58.406 47.8488 60.615C47.8488 60.615 50.0069 59.4237 51.1354 57.7803C51.1354 57.7803 49.1808 61.7106 46.2324 62.881C46.2324 62.881 50.5966 61.8602 52.9494 56.6489C52.9494 56.6489 51.2342 61.522 48.8785 63.1085C48.8785 63.1085 57.4663 60.9084 60.7949 44.4301C60.7949 44.4301 61.2439 47.7976 60.1394 50.0127C60.1394 50.0127 60.9865 49.3302 61.1331 48.4801C61.1331 48.4801 60.0286 52.566 59.1067 53.886C59.1067 53.886 63.1357 49.9528 62.2377 39.117C62.2377 39.117 63.007 40.3053 62.9231 41.4907C64.4228 18.906 43.724 -6.87546 31.0682 3.28987C22.7018 -1.2959 14.2667 6.82498 8.35484 16.5473C2.44303 26.2696 -1.76259 41.6433 3.23925 53.0748C3.23925 53.0748 2.06587 50.3868 2.4101 47.8335C2.4101 47.8335 3.14646 52.6019 4.08037 53.1706C4.08037 53.1706 3.29313 46.6422 3.58947 43.2358C3.58947 43.2358 3.73614 49.1955 4.62217 51.0693C4.62217 51.0693 4.27793 48.7974 4.62217 47.606C4.62217 47.606 6.73545 57.029 9.18998 59.4686C9.18998 59.4686 8.01061 56.0053 7.91183 54.0776C7.91183 54.0776 9.43543 59.6961 13.2639 61.8543C13.2639 61.8543 11.7912 60.0373 11.3961 57.7684L11.0039 55.4964C11.0039 55.4964 12.2312 62.7612 16.8499 63.5575C16.8499 63.5575 14.4582 62.9229 13.4136 59.9026C13.4136 59.9026 14.8055 62.3452 16.2003 62.5457C16.2003 62.5457 15.455 62.0279 15.1796 60.8784C15.1796 60.8784 15.9998 61.9411 16.6464 62.1716C16.6464 62.1716 16.0746 61.6537 15.8741 60.8216C15.8741 60.8216 18.2358 63.0636 19.1308 63.2641C20.0258 63.4647 20.4988 64.7728 20.4988 64.7728C20.4988 64.7728 19.8761 62.89 18.9572 62.2284C18.0382 61.5669 17.0175 59.8427 17.0175 59.8427C17.0175 59.8427 18.3346 60.648 18.5112 61.0491C18.6878 61.4502 19.481 62.2284 19.9031 62.1985C19.9031 62.1985 19.0081 61.3364 18.8824 60.4175C18.8824 60.4175 21.1693 62.2853 22.3905 62.1416C22.3905 62.1416 16.7062 58.5407 15.3712 50.8298C14.0362 43.119 19.7085 36.5637 21.5434 34.9263C23.3783 33.289 28.3712 27.4789 29.0447 23.2972V23.3002Z" fill="#171517"/>
<path d="M15.3709 50.8332C15.2362 50.0579 15.1734 49.2946 15.1704 48.5493C14.446 45.9331 14.5089 42.2094 14.5089 42.2094C13.4732 42.389 13.111 47.1185 13.111 47.1185C12.4884 45.8613 12.4884 41.5539 12.4884 41.5539C11.2461 43.1104 11.8657 49.154 11.8657 49.154C10.7253 47.2981 10.1057 39.698 10.1057 39.698C8.91433 40.2967 9.06998 44.7268 9.06998 44.7268C8.24083 42.9308 8.13906 39.5184 8.13906 39.5184C7.51645 41.7335 8.39948 47.8968 8.39948 47.8968C7.10337 45.7416 6.06768 35.2679 6.06768 35.2679C4.87634 36.5251 5.44507 42.8081 5.44507 42.8081C5.13376 41.3713 4.77157 34.7291 4.77157 34.7291C3.3228 34.9686 2.70019 39.8178 2.70019 39.8178C2.70019 38.6204 3.73588 33.9539 3.73588 33.9539C2.23323 34.1335 2.28711 36.6957 2.28711 36.6957C1.90995 36.5401 1.64654 36.145 1.45796 35.675C0.58391 41.6736 0.925149 47.774 3.21804 53.0423C3.07735 52.707 2.08357 50.2166 2.40385 47.8399C2.40385 47.8399 3.14021 52.6083 4.07413 53.177C4.07413 53.177 3.28688 46.6485 3.58322 43.2421C3.58322 43.2421 3.72989 49.2018 4.61592 51.0757C4.61592 51.0757 4.27169 48.8037 4.61592 47.6124C4.61592 47.6124 6.7292 57.0354 9.18373 59.4749C9.18373 59.4749 8.00436 56.0117 7.90558 54.084C7.90558 54.084 9.42918 59.7024 13.2576 61.8606C13.2576 61.8606 11.7849 60.0437 11.3898 57.7747C11.0546 55.8321 11.0037 55.5507 10.9977 55.5118C11.0396 55.7572 12.3058 62.7856 16.8407 63.5638C16.8407 63.5638 14.449 62.9292 13.4043 59.909C13.4043 59.909 14.7962 62.3515 16.1911 62.5521C16.1911 62.5521 15.4458 62.0342 15.1704 60.8848C15.1704 60.8848 15.9905 61.9474 16.6371 62.1779C16.6371 62.1779 16.0654 61.6601 15.8648 60.8279C15.8648 60.8279 18.2266 63.0699 19.1216 63.2705C20.0166 63.471 20.4895 64.7791 20.4895 64.7791C20.4895 64.7791 19.8669 62.8963 18.948 62.2348C18.029 61.5733 17.0083 59.8491 17.0083 59.8491C17.0083 59.8491 18.3253 60.6543 18.5019 61.0554C18.6786 61.4565 19.4718 62.2348 19.8938 62.2049C19.8938 62.2049 18.9988 61.3428 18.8731 60.4238C18.8731 60.4238 21.16 62.2917 22.3813 62.148C22.3813 62.148 16.697 58.547 15.362 50.8362L15.3709 50.8332Z" fill="black"/>
<path d="M3.22412 53.0361C3.23314 53.0602 3.24216 53.0752 3.24216 53.0752C3.23615 53.0632 3.23013 53.0482 3.22412 53.0361Z" fill="#171517"/>
<path d="M40.3865 62.9346C40.2368 63.0094 40.144 63.0513 40.144 63.0513C40.2219 63.0274 40.3027 62.9855 40.3865 62.9346Z" fill="#171517"/>
<path d="M60.6628 41.9758C60.6628 43.9424 60.0671 44.6817 60.0671 44.6817C60.1958 43.4036 59.7678 40.1079 59.7678 40.1079C59.7678 43.6999 58.6183 46.4029 58.6183 46.4029C58.7021 43.5981 57.2145 39.8116 57.2145 39.8116C57.2145 42.32 55.8525 45.2714 55.8525 45.2714C55.9812 43.3527 54.6611 41.0419 54.6611 41.0419C53.8949 47.681 50.8297 51.1742 50.8297 51.1742C53.383 46.4029 52.3204 37.6953 52.3204 37.6953C52.3623 40.1558 50.4465 46.8938 50.4465 46.8938C50.9135 45.1217 50.4465 41.4819 50.4465 41.4819C49.8509 46.3011 48.0639 48.9083 48.0639 48.9083C49.4677 45.1696 48.7014 39.3177 48.7014 39.3177C48.6595 41.7782 47.2437 43.4425 47.2437 43.4425C47.9561 41.9129 46.9264 38.9226 46.9264 38.9226C47.085 40.7545 45.6572 41.6734 45.6572 41.6734C45.3729 40.7844 44.7802 40.1828 44.2683 39.8056C44.8849 41.6046 45.2741 43.5293 45.2382 45.5229C45.1304 51.4706 44.2234 56.4814 37.8327 59.9716C37.8327 59.9716 39.0031 59.822 39.5808 59.4268C39.5808 59.4268 38.0991 61.163 37.0903 61.2378C37.0903 61.2378 40.2243 61.8095 42.7387 60.0704C42.7387 60.0704 41.3708 62.3244 40.383 62.929C40.8889 62.6806 42.0353 62.0969 42.4155 61.7317C42.4155 61.7317 41.4486 63.1715 40.6554 63.3212C40.6554 63.3212 42.8225 62.9979 44.0259 61.8814C44.0259 61.8814 41.9635 65.0812 40.826 65.5542C40.826 65.5542 44.9987 63.839 50.4436 56.7568C50.4436 56.7568 50.0514 58.4001 47.8453 60.6092C47.8453 60.6092 50.0035 59.4179 51.132 57.7745C51.132 57.7745 49.1774 61.7048 46.229 62.8752C46.229 62.8752 50.5932 61.8544 52.946 56.6431C52.946 56.6431 51.2308 61.5162 48.875 63.1026C48.875 63.1026 57.4629 60.9025 60.7915 44.4243C60.7915 44.4243 61.2405 47.7918 60.1359 50.0069C60.1359 50.0069 60.7765 49.492 61.0399 48.7975C60.7585 49.7853 59.8695 52.7877 59.1032 53.8832C59.1032 53.8832 61.2734 51.7639 62.0756 46.352C61.6356 43.9274 60.6628 41.9758 60.6628 41.9758Z" fill="black"/>
<path d="M29.6939 41.4877C29.6939 41.4877 31.1576 38.3297 30.8882 36.0159C30.8882 36.0159 30.095 40.1078 28.8767 40.9519C28.8767 40.9519 29.4664 37.5335 29.3886 35.4172C29.3886 35.4172 28.4217 37.4886 27.7812 38.6141C26.979 42.8856 25.6829 47.2918 23.5815 50.7251C23.5815 50.7251 28.8378 48.8184 32.7321 38.6919C32.328 39.2367 31.876 39.7216 31.4241 39.9761C31.4241 39.9761 32.9626 37.5784 32.9626 35.4202C32.9626 35.4202 30.8074 40.8651 29.6909 41.4877H29.6939Z" fill="black"/>
<path d="M31.0679 3.28979C22.9441 -1.16428 14.7543 6.36393 8.87544 15.7061C9.39628 15.4756 9.82432 15.3499 10.0309 15.4277C10.0309 15.4277 6.25329 21.4024 6.05273 25.4643C6.05273 25.4643 11.3569 14.2034 14.2065 13.3593C14.2065 13.3593 10.4948 18.876 10.2943 23.4708C10.2943 23.4708 13.6737 15.9635 15.2662 15.8857C15.2662 15.8857 14.006 21.7855 14.2724 25.4613C14.2724 25.4613 16.0624 18.873 17.9183 17.4183C17.9183 17.4183 17.122 21.1719 17.0562 24.5424C17.0562 24.5424 19.7741 16.7298 21.4324 16.2688C21.4324 16.2688 20.3728 19.334 20.3728 20.7109C20.3728 20.7109 23.7523 13.4342 25.213 13.2815C25.213 13.2815 24.4826 17.8792 24.749 20.1003C24.749 20.1003 26.9372 14.2783 28.1973 13.7425C28.1973 13.7425 30.583 19.6423 30.583 24.0844C30.583 24.0844 30.9153 18.876 30.583 16.4993C30.583 16.4993 33.5165 23.7013 33.2112 28.1434C33.2112 28.1434 35.2227 19.5645 34.8934 14.6614C34.8934 14.6614 36.0189 21.4802 37.4796 23.0128C37.4796 23.0128 36.5517 17.5739 37.1474 15.8109C37.1474 15.8109 42.3169 20.7918 42.4516 23.0876C42.4516 23.0876 42.0534 17.113 39.9342 13.6646C39.9342 13.6646 44.6277 19.8938 45.2024 22.6057C44.942 21.2348 43.1789 12.2129 41.356 9.66557C42.6701 11.3059 49.1925 19.5076 50.2043 21.7107C50.2043 21.7107 47.8186 12.2099 43.8405 8.53409C43.8405 8.53409 52.5899 15.5055 54.1824 19.6423C54.1824 19.6423 50.9346 10.0667 49.0129 8.07312C49.0129 8.07312 50.8508 9.2914 52.8713 10.806C46.2142 2.34389 37.5784 -1.93955 31.0679 3.28979Z" fill="black"/>
<path d="M45.1963 22.606C45.2172 22.7197 45.2292 22.7826 45.2292 22.7826C45.2202 22.7257 45.2083 22.6658 45.1963 22.606Z" fill="black"/>
<path d="M35.8812 5.39448C35.8812 5.39448 38.665 4.63717 39.7246 6.12485C39.7246 6.12485 38.3986 3.70924 37.2731 3.01778C37.2731 3.01778 41.2423 2.81424 44.4242 3.13153C39.8025 0.452505 35.0401 0.0992923 31.068 3.29018C26.9461 1.03022 22.8064 1.85637 18.96 4.43961C20.1034 4.11933 21.4354 3.90381 22.6926 4.08939C22.6926 4.08939 21.3666 5.00834 21.2349 6.69358C21.2349 6.69358 24.3509 4.47254 26.8683 4.85568C26.8683 4.85568 25.0783 6.69358 25.0783 7.61254C25.0783 7.61254 29.7269 4.24205 32.0109 5.161C32.0109 5.161 35.8842 5.39149 35.8842 8.22617C35.8842 8.22617 37.0097 7.15456 35.8842 5.39149L35.8812 5.39448Z" fill="#171517"/>
<path d="M26.0987 37.1446C26.0987 37.1446 26.3561 37.1805 27.2421 38.2132C27.2421 38.2132 21.5638 37.0697 20.9741 36.9231C20.3844 36.7764 14.9995 35.0432 12.7515 35.0792C12.7515 35.0792 15.4065 35.0432 19.5373 35.8544" fill="#0A0808"/>
<path d="M36.0875 38.2132C36.0875 38.2132 41.7658 37.0697 42.3555 36.9231C42.9452 36.7764 48.3302 35.0432 50.5781 35.0792C50.5781 35.0792 47.9231 35.0432 43.7923 35.8544C39.6615 36.6656 38.4821 36.8871 37.2279 37.1446C37.2279 37.1446 36.9705 37.1805 36.0845 38.2132H36.0875Z" fill="#0A0808"/>
<defs>
<linearGradient id="paint0_linear_823_46066" x1="31.6635" y1="30.2868" x2="31.6635" y2="75.7075" gradientUnits="userSpaceOnUse">
<stop stop-color="#FCE9DA"/>
<stop offset="1" stop-color="#E7B7A9"/>
</linearGradient>
</defs>
</svg>
