<svg width="58" height="54" viewBox="0 0 58 54" fill="none" xmlns="http://www.w3.org/2000/svg">
<g clip-path="url(#clip0_823_46001)">
<path d="M52.3718 15.9024C52.6092 16.0211 54.6981 17.5814 54.6981 17.5814C53.1378 11.1847 45.9073 6.91932 45.9073 6.91932C46.4274 6.76385 47.9368 6.65927 47.9368 6.65927C42.2157 2.28929 32.8426 3.58954 32.8426 3.58954C33.9252 2.60022 36.5257 1.66461 36.5257 1.66461C30.1601 -0.155747 27.8055 3.27579 27.8055 3.27579C24.3712 -0.678675 18.9808 1.40455 18.9808 1.40455C21.6011 1.87378 23.2264 3.79589 23.2264 3.79589C8.24803 3.69413 3.36078 15.8656 3.36078 15.8656C4.24552 15.2946 5.70124 15.371 5.70124 15.371C-1.84305 24.4982 1.6959 33.3681 1.6959 33.3681C1.90507 32.4834 2.52693 31.9633 2.52693 31.9633C3.10356 37.1445 5.04828 40.1125 6.19024 41.4495C6.69904 43.1511 7.89188 44.7962 10.0967 44.4825C10.6196 44.409 10.9814 44.262 11.2217 44.0613C12.0583 45.0676 12.6717 45.746 12.6717 45.746C12.6435 45.6894 12.618 45.6329 12.5926 45.5764C16.5272 50.1725 22.3671 53.0924 28.8909 53.0924C36.1554 53.0924 42.5719 49.4771 46.45 43.9511C46.4698 43.9737 46.4896 43.9935 46.5094 44.0132L44.5251 46.9275C45.52 46.2378 46.433 45.3729 47.2641 44.3948C47.3913 44.4288 47.5269 44.4599 47.6824 44.4796C51.9337 45.0874 52.4283 38.408 51.4899 38.0773C51.3797 38.0377 51.2722 38.0151 51.1648 38.0038C51.1874 37.9558 51.2101 37.9049 51.2327 37.8568C54.814 33.1901 54.4918 27.8675 54.4918 27.8675C54.7886 28.2237 56.1595 32.1894 56.1595 32.1894C57.0527 24.2127 52.3775 15.8967 52.3775 15.8967L52.3718 15.9024Z" fill="#A18F88"/>
<path d="M28.8882 53.9406C22.5282 53.9406 16.4962 51.2327 12.2619 46.4896C12.1799 46.4443 12.1064 46.385 12.0414 46.3143C12.0216 46.2917 11.6146 45.8394 11.0153 45.1328C10.7807 45.2176 10.515 45.2798 10.2211 45.3222C8.01628 45.6359 6.23833 44.347 5.43557 41.8652C4.40667 40.6215 2.80962 38.1595 2.01251 34.157C1.93337 34.1881 1.84857 34.2078 1.76094 34.2135C1.39348 34.2389 1.04863 34.0241 0.910124 33.6821C0.768792 33.3259 -2.2868 25.3774 3.6774 16.6516C3.39474 16.7647 3.06685 16.7195 2.82376 16.5188C2.53826 16.2842 2.43933 15.8913 2.57501 15.5492C2.62872 15.4192 3.9007 12.3043 7.08632 9.18648C9.73205 6.59445 14.2066 3.56713 20.934 3.0329C20.3574 2.69653 19.6479 2.3856 18.8366 2.24144C18.4607 2.1736 18.178 1.8655 18.1413 1.48673C18.1045 1.10796 18.325 0.751802 18.6812 0.613297C18.9101 0.525671 24.049 -1.39927 27.8056 2.05488C28.9899 1.01751 31.7628 -0.582369 36.766 0.850734C37.1193 0.952493 37.3681 1.26908 37.3794 1.63654C37.3907 2.004 37.1645 2.33754 36.8197 2.46192C36.7434 2.49018 36.6529 2.5241 36.5512 2.56367C37.0995 2.57215 37.6903 2.59477 38.3121 2.63999C42.538 2.94527 45.9525 4.07027 48.4569 5.9839C48.7368 6.19873 48.8555 6.56336 48.7537 6.90256C48.6718 7.17109 48.4654 7.38026 48.2082 7.46506C50.5515 9.23736 54.3985 12.748 55.5292 17.3809C55.614 17.7286 55.4698 18.0932 55.173 18.2882C54.9723 18.4211 54.7349 18.4578 54.5116 18.407C55.8542 21.6039 57.6011 26.9773 57.0047 32.2886C56.9595 32.6815 56.6485 32.9924 56.2556 33.0376C55.8627 33.0828 55.4896 32.8454 55.3596 32.4723C55.2465 32.1444 55.1278 31.8052 55.0063 31.4688C54.6388 33.2835 53.8869 35.5562 52.3605 37.7553C52.9343 38.6315 52.7449 40.3501 52.5075 41.3084C51.8206 44.1152 49.9324 45.6501 47.5807 45.325C46.7581 46.2408 45.8932 47.0153 45.0084 47.6287C44.7965 47.7757 44.5364 47.8124 44.3046 47.7503C40.1919 51.6849 34.6799 53.9434 28.8938 53.9434L28.8882 53.9406ZM12.9912 44.8303C13.0816 44.8784 13.1636 44.9434 13.2343 45.0254C17.1604 49.613 22.8646 52.2446 28.8882 52.2446C35.5901 52.2446 41.8935 48.9629 45.7547 43.4651C45.9017 43.2531 46.1391 43.1231 46.3963 43.1061C46.6564 43.092 46.9051 43.1909 47.0775 43.3831L47.1002 43.4085C47.1454 43.4509 47.185 43.499 47.2189 43.5499C47.3065 43.5442 47.3941 43.5555 47.4789 43.5781C47.5892 43.6064 47.6909 43.629 47.7983 43.6432C48.7679 43.7817 49.5254 43.4481 50.1105 42.6199C51.0066 41.3564 51.1281 39.4767 50.9896 38.8379C50.7522 38.7898 50.543 38.64 50.4215 38.4252C50.2858 38.1877 50.2745 37.8994 50.3875 37.6535L50.4525 37.5122C50.4808 37.4528 50.5119 37.3963 50.5543 37.3426C53.8869 33.0009 53.641 27.9695 53.6382 27.9214C53.6184 27.5568 53.8332 27.2176 54.1724 27.0847C54.5144 26.9519 54.9017 27.048 55.1363 27.3306C55.1589 27.3589 55.1956 27.4013 55.2522 27.5031C54.5286 21.553 51.668 16.3831 51.6313 16.3181C51.4475 15.993 51.5012 15.5888 51.7556 15.3174C52.0129 15.0489 52.4142 14.9783 52.7478 15.145C52.7789 15.162 52.8269 15.1903 52.8919 15.2298C50.5063 10.6705 45.5314 7.68554 45.4748 7.65162C45.1865 7.47919 45.0254 7.15413 45.065 6.81776C45.0989 6.53227 45.277 6.28635 45.5286 6.16198C40.1749 3.48233 33.0377 4.42077 32.9585 4.43208C32.591 4.48296 32.2321 4.28792 32.0738 3.95155C31.9155 3.61518 31.9946 3.21663 32.2688 2.96506C32.6448 2.62303 33.1564 2.29514 33.6906 2.004C29.9962 1.74678 28.5687 3.66889 28.4981 3.76499C28.3483 3.97699 28.1052 4.10984 27.8451 4.12115C27.5851 4.13246 27.3335 4.0307 27.1639 3.83283C25.6121 2.0464 23.6023 1.65067 22.0053 1.69872C23.1614 2.41952 23.8313 3.19684 23.8765 3.25055C24.0914 3.50494 24.1366 3.85827 23.9981 4.1579C23.8596 4.45469 23.5599 4.6469 23.2292 4.6469H23.2236C17.2566 4.60451 12.2562 6.52379 8.32156 10.3482C6.74995 11.8774 5.67018 13.4208 5.00592 14.5373C5.39034 14.509 5.67583 14.5203 5.7465 14.5232C6.06591 14.5401 6.34857 14.7352 6.47859 15.0291C6.60862 15.3231 6.56057 15.6623 6.35705 15.911C1.10799 22.2597 1.42174 28.385 2.0012 31.2992C2.23864 31.1099 2.56088 31.0646 2.84354 31.1777C3.13186 31.2936 3.33538 31.5593 3.3693 31.8702C3.92332 36.8479 5.77759 39.6633 6.83475 40.8985C6.91107 40.9889 6.97043 41.0935 7.00435 41.2066C7.37746 42.4588 8.19436 43.8975 9.97797 43.6432C10.4387 43.5781 10.6196 43.4594 10.6761 43.4114C10.8486 43.2672 11.0747 43.1965 11.298 43.2163C11.5213 43.2361 11.7305 43.3464 11.8746 43.5188C12.341 44.0785 12.7368 44.5392 12.994 44.8303H12.9912Z" fill="white"/>
<path d="M44.5221 46.9303C51.6989 41.9696 54.486 27.8732 54.486 27.8732C54.7828 28.2293 56.1537 32.1951 56.1537 32.1951C57.0469 24.2183 52.3716 15.9024 52.3716 15.9024C52.6091 16.0211 54.698 17.5814 54.698 17.5814C53.1376 11.1847 45.9071 6.91932 45.9071 6.91932C46.4272 6.76385 47.9366 6.65927 47.9366 6.65927C42.2155 2.28929 32.8424 3.58954 32.8424 3.58954C33.925 2.60022 36.5255 1.66461 36.5255 1.66461C30.1599 -0.155747 27.8054 3.27579 27.8054 3.27579C24.371 -0.678674 18.9806 1.40455 18.9806 1.40455C21.6009 1.87378 23.2262 3.79589 23.2262 3.79589C8.24787 3.69413 3.35779 15.8656 3.35779 15.8656C4.24253 15.2946 5.69824 15.371 5.69824 15.371C-1.84322 24.4982 1.69573 33.3681 1.69573 33.3681C1.9049 32.4834 2.52676 31.9633 2.52676 31.9633C3.35779 39.4539 7.0522 42.3173 7.0522 42.3173C6.79215 41.5936 7.0522 38.1847 7.0522 38.1847C8.56162 41.181 12.6687 45.746 12.6687 45.746C10.7438 41.8452 10.1728 35.4994 10.1728 35.4994C11.7331 28.1643 13.8135 24.419 13.8135 24.419C13.1379 27.5396 13.5026 32.1923 13.5026 32.1923C17.197 23.1103 21.8242 19.8427 21.8242 19.8427C20.6794 23.588 21.3041 28.8427 21.3041 28.8427C22.969 24.0063 27.8054 17.4514 27.8054 17.4514C27.8054 17.4514 31.1012 27.7431 37.4131 30.1543C37.4131 30.1543 33.9505 21.8892 33.8741 20.7416C33.8741 20.7416 41.7322 29.5098 41.9922 30.0044C41.9922 30.0044 41.0057 26.4005 40.5789 25.4677L48.3465 33.7865C48.3465 33.7865 46.6534 40.9746 46.5346 41.523C46.4159 42.0713 48.3861 41.2629 48.3861 41.2629" fill="#0A0808"/>
<path d="M8.16561 38.5211C8.16561 38.5211 7.22717 37.7495 6.28873 38.0802C5.35029 38.4109 5.84777 45.0902 10.0962 44.4825C14.3475 43.8748 8.16561 38.5211 8.16561 38.5211Z" fill="url(#paint0_linear_823_46001)" stroke="black" stroke-width="0.282663" stroke-miterlimit="10"/>
<path d="M49.6101 38.5211C49.6101 38.5211 50.5485 37.7495 51.487 38.0802C52.4254 38.4109 51.9279 45.0902 47.6795 44.4825C43.4282 43.8748 49.6101 38.5211 49.6101 38.5211Z" fill="url(#paint1_linear_823_46001)" stroke="black" stroke-width="0.282663" stroke-miterlimit="10"/>
<path d="M28.8881 53.0925C40.7322 53.0925 50.3337 43.491 50.3337 31.6468C50.3337 19.8027 40.7322 10.2012 28.8881 10.2012C17.0439 10.2012 7.44238 19.8027 7.44238 31.6468C7.44238 43.491 17.0439 53.0925 28.8881 53.0925Z" fill="url(#paint2_linear_823_46001)" stroke="#FCC3B7" stroke-width="0.565327" stroke-miterlimit="10"/>
<path d="M37.3427 43.0948C38.2981 43.2785 40.1609 43.1824 40.9919 43.1258C41.2605 43.0495 41.5177 42.9365 41.7579 42.7951C42.2187 42.3881 43.0469 41.6221 43.649 40.8928C44.1238 40.189 44.3782 39.5982 44.3782 39.5982C44.3952 39.4145 44.4065 39.389 44.4178 39.4682L45.1867 36.9581L45.0481 35.2169L41.2661 34.6742L40.5962 34.8579C40.0167 34.5866 39.3694 34.4368 38.6854 34.4368C36.1838 34.4368 34.1543 36.4663 34.1543 38.9679C34.1543 40.7175 35.1464 42.2355 36.5993 42.9902C36.7633 42.9986 37.0007 43.0297 37.3399 43.0948H37.3427Z" fill="white"/>
<path d="M38.6144 42.4589C40.6532 42.4589 42.306 40.8061 42.306 38.7673C42.306 36.7285 40.6532 35.0757 38.6144 35.0757C36.5756 35.0757 34.9229 36.7285 34.9229 38.7673C34.9229 40.8061 36.5756 42.4589 38.6144 42.4589Z" fill="#7AA19F"/>
<path d="M38.6138 35.0757C36.6549 35.0757 35.0522 36.6021 34.9307 38.5327C35.2359 38.3687 35.5949 38.1935 36.0104 38.0182C35.9963 38.1313 35.985 38.2415 35.985 38.3574C35.985 39.8216 37.1722 41.0116 38.6392 41.0116C40.1062 41.0116 41.2934 39.8244 41.2934 38.3574C41.2934 37.8006 41.121 37.2861 40.8298 36.8593C41.1238 36.8338 41.4263 36.8169 41.7372 36.8028C41.0842 35.7654 39.9282 35.0757 38.6109 35.0757H38.6138Z" fill="#404F54"/>
<path d="M38.6877 40.4858C39.6384 40.4858 40.4092 39.7151 40.4092 38.7644C40.4092 37.8137 39.6384 37.043 38.6877 37.043C37.737 37.043 36.9663 37.8137 36.9663 38.7644C36.9663 39.7151 37.737 40.4858 38.6877 40.4858Z" fill="#080606"/>
<path d="M33.6733 38.1311C34.2104 35.0387 38.1762 32.5513 46.2434 34.4338C46.2434 34.4338 46.0427 38.0632 43.9566 40.4828C43.9566 40.4828 44.457 36.3305 44.5191 35.7539C44.5191 35.7539 37.1671 33.5067 33.6733 38.3968" fill="#080606"/>
<path d="M38.6147 42.5999C36.5032 42.5999 34.7817 40.8813 34.7817 38.767C34.7817 36.6527 36.5003 34.9341 38.6147 34.9341C40.729 34.9341 42.4476 36.6527 42.4476 38.767C42.4476 40.8813 40.729 42.5999 38.6147 42.5999ZM38.6147 35.2167C36.6558 35.2167 35.0644 36.8081 35.0644 38.767C35.0644 40.7259 36.6558 42.3173 38.6147 42.3173C40.5735 42.3173 42.1649 40.7259 42.1649 38.767C42.1649 36.8081 40.5735 35.2167 38.6147 35.2167Z" fill="black"/>
<path d="M41.169 41.2602C42.0183 41.2602 42.7067 40.5717 42.7067 39.7225C42.7067 38.8733 42.0183 38.1848 41.169 38.1848C40.3198 38.1848 39.6313 38.8733 39.6313 39.7225C39.6313 40.5717 40.3198 41.2602 41.169 41.2602Z" fill="white"/>
<path d="M32.8059 34.1714C35.0786 30.9151 40.6329 28.7583 44.4488 30.084C44.4912 30.0925 44.5336 30.1321 44.5139 30.1801C44.5054 30.2056 44.4856 30.2197 44.4601 30.2254C43.9514 30.3045 43.4397 30.3582 42.9394 30.4769C40.4124 30.9546 37.9843 31.8733 35.6411 32.9163C34.7083 33.3488 33.7783 33.8011 32.8766 34.2957C32.8201 34.3296 32.7466 34.2562 32.789 34.1996L32.8059 34.1742V34.1714Z" fill="black"/>
<path d="M30.2899 45.3335C30.2531 45.3335 30.2192 45.3194 30.1909 45.2911L28.772 43.8721L27.4095 45.2346C27.3558 45.2883 27.2654 45.2883 27.2117 45.2346C27.158 45.1809 27.158 45.0904 27.2117 45.0367L28.6759 43.5725C28.7296 43.5188 28.82 43.5188 28.8737 43.5725L30.3916 45.0904C30.4453 45.1441 30.4453 45.2346 30.3916 45.2883C30.3634 45.3165 30.3294 45.3307 30.2927 45.3307L30.2899 45.3335Z" fill="black"/>
<path d="M20.2614 43.0948C19.306 43.2785 17.4432 43.1824 16.6122 43.1258C16.3437 43.0495 16.0865 42.9365 15.8462 42.7951C15.3854 42.3881 14.5572 41.6221 13.9552 40.8928C13.4803 40.189 13.2259 39.5982 13.2259 39.5982C13.2089 39.4145 13.1976 39.389 13.1863 39.4682L12.4175 36.9581L12.556 35.2169L16.338 34.6742L17.0079 34.8579C17.5874 34.5866 18.2347 34.4368 18.9187 34.4368C21.4203 34.4368 23.4498 36.4663 23.4498 38.9679C23.4498 40.7175 22.4577 42.2355 21.0048 42.9902C20.8408 42.9986 20.6034 43.0297 20.2642 43.0948H20.2614Z" fill="white"/>
<path d="M18.9894 42.4589C21.0282 42.4589 22.681 40.8061 22.681 38.7673C22.681 36.7285 21.0282 35.0757 18.9894 35.0757C16.9506 35.0757 15.2979 36.7285 15.2979 38.7673C15.2979 40.8061 16.9506 42.4589 18.9894 42.4589Z" fill="#7AA19F"/>
<path d="M18.9896 35.0757C20.9485 35.0757 22.5512 36.6021 22.6727 38.5327C22.3675 38.3687 22.0085 38.1935 21.593 38.0182C21.6071 38.1313 21.6184 38.2415 21.6184 38.3574C21.6184 39.8216 20.4312 41.0116 18.9642 41.0116C17.4972 41.0116 16.31 39.8244 16.31 38.3574C16.31 37.8006 16.4824 37.2861 16.7736 36.8593C16.4796 36.8338 16.1771 36.8169 15.8662 36.8028C16.5192 35.7654 17.6753 35.0757 18.9925 35.0757H18.9896Z" fill="#404F54"/>
<path d="M18.9158 40.4858C19.8665 40.4858 20.6372 39.7151 20.6372 38.7644C20.6372 37.8137 19.8665 37.043 18.9158 37.043C17.965 37.043 17.1943 37.8137 17.1943 38.7644C17.1943 39.7151 17.965 40.4858 18.9158 40.4858Z" fill="#080606"/>
<path d="M23.9299 38.1311C23.3928 35.0387 19.4271 32.5513 11.3599 34.4338C11.3599 34.4338 11.5606 38.0632 13.6466 40.4828C13.6466 40.4828 13.1463 36.3305 13.0841 35.7539C13.0841 35.7539 20.4362 33.5067 23.9299 38.3968" fill="#080606"/>
<path d="M15.1587 38.767C15.1587 36.6555 16.8773 34.9341 18.9916 34.9341C21.1059 34.9341 22.8245 36.6527 22.8245 38.767C22.8245 40.8813 21.1059 42.5999 18.9916 42.5999C16.8801 42.5999 15.1587 40.8813 15.1587 38.767ZM15.4385 38.767C15.4385 40.7259 17.0299 42.3173 18.9888 42.3173C20.9476 42.3173 22.539 40.7259 22.539 38.767C22.539 36.8081 20.9476 35.2167 18.9888 35.2167C17.0299 35.2167 15.4385 36.8081 15.4385 38.767Z" fill="black"/>
<path d="M21.2389 41.2602C22.0881 41.2602 22.7766 40.5717 22.7766 39.7225C22.7766 38.8733 22.0881 38.1848 21.2389 38.1848C20.3896 38.1848 19.7012 38.8733 19.7012 39.7225C19.7012 40.5717 20.3896 41.2602 21.2389 41.2602Z" fill="white"/>
<path d="M21.0553 43.0018C19.8766 43.0385 18.729 43.112 17.5616 43.0724C17.2309 43.0668 16.6514 43.0074 16.4507 42.9933C16.0324 42.8406 15.6225 42.5919 15.2946 42.2781C15.1787 42.1735 15.0798 42.052 14.978 41.9248C15.0317 42.0746 15.1024 42.2244 15.1929 42.3629C15.4812 42.7841 15.8826 43.1289 16.3546 43.3325C17.9092 43.6462 19.5515 43.4936 21.0525 43.0018H21.0553Z" fill="black"/>
<path d="M24.7984 34.1714C22.5258 30.9151 16.9714 28.7583 13.1555 30.084C13.1131 30.0925 13.0707 30.1321 13.0905 30.1801C13.0989 30.2056 13.1187 30.2197 13.1442 30.2254C13.653 30.3045 14.1646 30.3582 14.6649 30.4769C17.1919 30.9546 19.62 31.8733 21.9633 32.9163C22.8961 33.3488 23.826 33.8011 24.7277 34.2957C24.7842 34.3296 24.8577 34.2562 24.8153 34.1996L24.7984 34.1742V34.1714Z" fill="black"/>
<path d="M36.5654 43.013C37.7441 43.0497 38.8917 43.1232 40.0591 43.0836C40.3899 43.078 40.9693 43.0186 41.17 43.0045C41.5884 42.8519 41.9982 42.6031 42.3261 42.2894C42.442 42.1848 42.5409 42.0632 42.6427 41.936C42.589 42.0858 42.5183 42.2357 42.4279 42.3742C42.1396 42.7953 41.7382 43.1402 41.2661 43.3437C39.7115 43.6575 38.0692 43.5048 36.5683 43.013H36.5654Z" fill="black"/>
<path d="M47.8179 41.0937C54.9948 36.133 54.486 27.8707 54.486 27.8707C54.7828 28.2269 56.1537 32.1926 56.1537 32.1926C57.0469 24.2159 52.3716 15.8999 52.3716 15.8999C52.6091 16.0186 54.698 17.5789 54.698 17.5789C53.1376 11.1823 45.9071 6.91688 45.9071 6.91688C46.4272 6.76141 47.9366 6.65683 47.9366 6.65683C42.2155 2.28685 32.8424 3.5871 32.8424 3.5871C33.925 2.59778 36.5255 1.66216 36.5255 1.66216C30.1599 -0.158189 27.8054 3.27335 27.8054 3.27335C24.371 -0.681116 18.9806 1.40211 18.9806 1.40211C21.6009 1.87133 23.2262 3.79345 23.2262 3.79345C8.24787 3.69451 3.35779 15.866 3.35779 15.866C4.24253 15.295 5.69824 15.3713 5.69824 15.3713C-1.84322 24.4985 1.69573 33.3685 1.69573 33.3685C1.9049 32.4838 2.52676 31.9637 2.52676 31.9637C3.35779 39.4543 7.0522 42.3176 7.0522 42.3176C6.79215 41.594 7.0522 38.1851 7.0522 38.1851C8.56162 41.1813 9.34177 40.486 9.34177 40.486C7.41684 36.5852 10.1728 35.5026 10.1728 35.5026C11.7331 28.1675 13.8135 24.4222 13.8135 24.4222C13.1379 27.5428 13.5026 32.1955 13.5026 32.1955C17.197 23.1135 21.8242 19.8459 21.8242 19.8459C20.6794 23.5912 21.3041 28.8459 21.3041 28.8459C22.969 24.0095 27.8054 17.4546 27.8054 17.4546C27.8054 17.4546 31.1012 27.7463 37.4131 30.1575C37.4131 30.1575 33.9505 21.8924 33.8741 20.7448C33.8741 20.7448 41.7322 29.513 41.9922 30.0077C41.9922 30.0077 41.0057 26.4037 40.5789 25.4709L47.5296 32.7495L49.5563 37.193" fill="#0A0808"/>
<path d="M27.3614 15.5522C27.3614 15.5522 23.7433 20.1794 21.7279 25.4482C21.7279 25.4482 21.6374 20.1341 23.1469 17.2481C23.1469 17.2481 17.259 20.5836 14.3051 27.5088C14.3051 27.5088 13.8105 23.9812 15.433 19.3992C15.433 19.3992 12.612 22.9721 10.8708 27.783C10.8708 27.783 10.4581 25.3549 10.8708 24.4391C10.8708 24.4391 8.35225 28.5716 8.30419 34.9344C8.30419 34.9344 6.19553 29.708 6.2888 27.9667C6.2888 27.9667 5.55671 31.2654 5.60193 32.6392C5.60193 32.6392 4.73133 31.0817 4.64088 29.8436C4.64088 29.8436 3.77027 34.6093 4.04446 35.7541L3.0834 29.5242L1.75488 27.0961L3.03817 20.821L6.38208 16.1486L7.20746 15.5522L6.84 13.353L7.62015 11.2924C7.62015 11.2924 14.4012 5.97836 16.6456 5.42999C18.8899 4.88162 24.758 4.1467 24.758 4.1467L22.1434 1.76385H23.5171C23.5171 1.76385 26.6321 2.86341 27.5479 3.91774L30.6176 2.17654C30.6176 2.17654 33.1955 1.07698 35.0668 1.76385C35.0668 1.76385 32.3108 2.67968 31.6239 4.10147C31.6239 4.10147 41.52 3.04714 46.6503 6.39105C46.6503 6.39105 45.0476 6.52955 44.9091 6.84896C44.9091 6.84896 52.1001 11.1539 53.9798 16.6517C53.9798 16.6517 51.6902 14.6363 51.0033 14.4074C51.0033 14.4074 55.5853 20.9595 55.6758 29.6627C55.6758 29.6627 54.2568 25.386 52.7445 24.7076C52.7445 24.7076 53.5699 29.8408 52.1962 33.784C52.1962 33.784 50.7772 29.1596 50.0423 28.4275C50.0423 28.4275 50.0423 31.7262 49.8133 33.0095C49.8133 33.0095 45.873 23.8936 44.8187 22.9297C44.8187 22.9297 46.3309 27.6473 46.4666 29.1144C46.4666 29.1144 38.9082 19.8147 38.128 19.2183C38.128 19.2183 39.5272 23.5713 39.6063 25.4934C39.6063 25.4934 33.3284 18.5314 32.5002 18.0255C32.5002 18.0255 32.7546 24.8292 35.4258 28.2862C35.4258 28.2862 31.7596 27.2544 28.0963 16.7874C28.0963 16.7874 27.9352 16.598 27.9747 17.0022C27.9747 17.0022 27.5197 16.697 27.3642 15.5522H27.3614Z" fill="#473C2E"/>
<path d="M27.7323 4.87287C27.7323 4.87287 26.0391 2.20735 23.3962 1.97274C23.3962 1.97274 24.9254 2.99316 25.3212 4.38386C25.3212 4.38386 12.6239 4.86156 7.68579 12.745C7.68579 12.745 8.40093 12.4115 8.93234 12.4793C8.93234 12.4793 7.73102 14.0623 7.46814 14.8085C7.46814 14.8085 9.36482 13.6439 9.82838 13.6778C9.82838 13.6778 8.76557 14.9413 8.66381 15.4727C8.66381 15.4727 10.5605 14.4749 12.2876 14.3082C12.2876 14.3082 8.99453 18.3333 8.56205 19.7297C8.56205 19.7297 8.79383 17.2026 9.427 16.4705C9.427 16.4705 7.89779 17.8019 7.6971 18.4662C7.6971 18.4662 7.46532 16.9709 7.46532 16.4366C7.46532 16.4366 2.04383 19.8229 2.64308 27.7432C2.64308 27.7432 3.30734 26.0133 3.97442 25.6486C3.97442 25.6486 2.24452 31.9916 6.53535 41.0086C6.53535 41.0086 3.48259 38.0208 2.59785 30.909C2.59785 30.909 1.80922 31.5196 1.75269 32.4439C1.75269 32.4439 -1.03437 22.6072 7.05828 14.6813C7.05828 14.6813 4.31645 15.0996 3.92072 15.2975C3.92072 15.2975 10.7725 3.29843 24.0803 4.2284C24.0803 4.2284 22.9468 2.25823 20.7477 1.53461C20.7477 1.53461 24.8887 0.364386 27.7323 3.71112C27.7323 3.71112 30.5815 1.0343 33.8774 1.71834C33.8774 1.71834 29.9795 2.01231 27.7323 4.87004V4.87287Z" fill="#A18F88"/>
</g>
<defs>
<linearGradient id="paint0_linear_823_46001" x1="5.88735" y1="41.2602" x2="11.5887" y2="41.2602" gradientUnits="userSpaceOnUse">
<stop stop-color="#FCE9DA"/>
<stop offset="1" stop-color="#E7B7A9"/>
</linearGradient>
<linearGradient id="paint1_linear_823_46001" x1="51.8855" y1="41.2602" x2="46.1842" y2="41.2602" gradientUnits="userSpaceOnUse">
<stop stop-color="#FCE9DA"/>
<stop offset="1" stop-color="#E7B7A9"/>
</linearGradient>
<linearGradient id="paint2_linear_823_46001" x1="28.8881" y1="24.3711" x2="28.8881" y2="67.2624" gradientUnits="userSpaceOnUse">
<stop stop-color="#FCE9DA"/>
<stop offset="1" stop-color="#E7B7A9"/>
</linearGradient>
<clipPath id="clip0_823_46001">
<rect width="57.1178" height="53.9407" fill="white"/>
</clipPath>
</defs>
</svg>
