<svg width="58" height="73" viewBox="0 0 58 73" fill="none" xmlns="http://www.w3.org/2000/svg">
<g clip-path="url(#clip0_823_45459)">
<path d="M57.0133 31.5715C57.3932 29.7953 56.6951 27.8777 55.455 26.5668C55.2459 25.7538 54.9572 24.9644 54.5919 24.2162C53.6022 21.9657 52.4622 19.4678 53.2281 16.9876C53.4078 16.4308 53.6817 15.6326 54.2237 15.3233C54.3857 15.2702 54.5507 15.2231 54.7215 15.1936C54.7215 15.1936 54.536 15.1495 54.2797 15.282C54.2679 15.2879 54.2532 15.2938 54.2414 15.2997C54.2414 15.2997 54.2414 15.2997 54.2384 15.2997C54.2237 15.3056 54.2119 15.3144 54.2001 15.3203C53.3282 15.5972 52.5476 16.1746 52.0557 16.9552C51.8112 17.341 51.6522 17.7505 51.5491 18.1805C51.2015 17.4235 50.8922 16.6517 50.7449 15.8329C50.7596 15.9566 50.7861 16.0832 50.8097 16.2099C50.7802 16.0744 50.7567 15.9448 50.7449 15.8329C50.7449 15.8329 50.7037 15.88 50.6418 15.9625C50.6182 15.9919 50.5947 16.0214 50.5711 16.0508C50.5004 15.8358 50.4297 15.6208 50.359 15.4057C50.1852 14.9462 50.0085 14.4749 49.7169 14.0596C49.4282 13.6531 49.1159 13.2819 48.8773 12.8607C47.8375 11.1375 48.2676 9.00777 48.9421 7.22859C48.9421 7.22859 48.8626 7.2934 48.7389 7.41122C47.7226 8.33321 46.8537 9.47907 46.3853 10.7781C46.3824 10.7663 46.3794 10.7575 46.3765 10.7457C46.2086 10.1654 45.861 9.32001 45.808 8.73088C45.8139 8.82219 45.8286 8.92529 45.8492 9.02839C45.8286 8.91645 45.8109 8.81335 45.808 8.73088C45.808 8.73088 45.7932 8.80452 45.7667 8.92234C45.7785 8.85754 45.7932 8.79568 45.808 8.73088C45.7196 9.11381 45.6224 9.4938 45.5134 9.87085C45.372 9.05784 45.2571 8.23895 45.266 7.42006C45.3131 6.96643 45.3426 6.5069 45.319 6.04738C45.266 4.19162 44.3293 2.40655 42.8417 1.29015C42.8152 1.26953 42.7828 1.26069 42.7474 1.26953C42.6856 1.28425 42.6502 1.34611 42.6679 1.40503C42.8623 2.27694 43.0656 3.21955 42.9566 4.10325C42.9212 4.31239 42.8476 4.53037 42.7091 4.6099C42.5206 4.70711 42.3026 4.79253 42.0905 4.87796L40.7974 5.38756C38.6294 6.29482 36.3642 7.24037 34.5821 8.80452C34.5084 8.50701 34.4407 8.20949 34.3935 7.90904C33.8633 5.92366 35.4717 3.25195 37.0859 2.15617C37.0859 2.15617 37.0829 2.15617 37.08 2.15911C37.08 2.15911 37.0829 2.15911 37.0859 2.15617C37.0859 2.15617 36.9474 2.2033 36.7206 2.27989C35.3803 2.73352 34.0136 3.17242 32.8088 3.92651C32.6144 4.04433 32.473 4.25937 32.3876 4.45673C31.9074 5.35221 31.3242 6.20056 30.6231 6.93402C30.4905 6.98705 30.358 7.03712 30.2195 7.07542C29.8307 7.16379 29.4036 7.2227 29.059 7.44657C27.9985 8.05632 27.0795 8.8811 26.2076 9.72945C25.6656 10.2803 25.1324 10.8488 24.6699 11.4703C24.6847 11.3437 24.7023 11.22 24.7141 11.0933C25.2149 8.85754 24.7436 7.49959 22.658 6.41559L21.9305 6.08273C21.795 6.01793 21.6919 6.22412 21.8185 6.29482C23.0675 7.23448 23.0675 8.97831 22.5108 10.3186C21.845 12.0713 20.9289 13.765 19.7477 15.2231C19.3766 15.662 19.0231 16.0155 18.4752 16.1863C18.0363 16.3513 17.565 16.5251 17.132 16.7313C17.1762 16.6842 17.2027 16.6193 17.1938 16.5516C17.1467 16.1657 17.132 15.7563 17.1408 15.3616C17.1821 14.2599 17.3853 12.9049 18.4251 12.3246C18.5047 12.2833 18.5577 12.2009 18.5489 12.1066C18.5371 11.9829 18.431 11.8945 18.3073 11.9033C17.6622 11.9593 17.0495 12.0919 16.4427 12.301C14.1215 13.0934 13.8122 14.5338 13.1524 16.6576C13.0051 17.0995 12.9344 17.5885 12.5986 17.9007C12.3276 18.1894 12.0625 18.4928 11.8151 18.8109C11.8269 18.4191 11.8269 18.0244 11.8298 17.6238C11.8092 17.182 11.7974 15.391 11.332 15.2467C11.2201 15.229 11.1199 15.3056 11.0934 15.4116C10.9815 14.9639 10.8283 14.5309 10.628 14.1185C10.6133 14.0861 10.5956 14.0537 10.5808 14.0183C10.5337 13.9241 10.4866 13.8298 10.4336 13.7385C10.3452 13.5824 10.2539 13.4292 10.1478 13.2819C10.1478 13.2819 10.2067 13.4675 10.2774 13.7621C10.2362 13.6 10.192 13.438 10.1478 13.2819C10.4925 14.6399 10.79 16.2452 9.95637 17.4795C9.4291 18.3573 8.96663 19.3294 8.28029 20.0775C8.00045 20.3898 7.66465 20.5901 7.30233 20.811C6.59537 21.2735 5.94144 21.8243 5.45246 22.5195C4.86627 23.2441 5.0872 24.1809 5.24332 24.9997C5.26688 25.1676 5.29339 25.3414 5.30812 25.5123C4.68953 25.7185 4.12102 26.0955 3.73219 26.6257C3.20787 27.1766 2.48029 27.5831 2.2034 28.3372C2.08557 28.6258 2.07084 28.9646 2.07084 29.2651C2.10619 30.3491 1.31086 31.2976 1.38745 32.3933C1.62605 34.1342 2.03255 36.0165 2.07379 37.7927C0.839558 39.6485 0.456623 42.1553 1.5583 44.1524C1.64372 44.3056 1.8293 44.4882 1.95007 44.5943C2.18278 44.8417 2.38308 45.1451 2.56571 45.4544C3.02818 46.2733 3.40817 47.1688 3.51716 48.1084C3.53189 48.1821 3.56135 48.3294 3.57607 48.403C3.77343 48.9656 4.07095 49.4723 4.4097 49.9554C4.19466 49.8729 3.97963 49.8228 3.76754 49.8316C3.25794 49.8493 2.3006 50.0054 1.60838 50.8597C0.930874 51.6962 0.727624 52.9305 1.01041 54.527C1.59659 57.8674 4.21528 61.9206 4.91635 62.4567C5.28161 62.7366 6.01508 62.9663 6.7456 62.9663C6.93412 62.9663 7.12559 62.9516 7.30822 62.9162C7.8296 62.819 8.22138 62.5716 8.44525 62.2063C8.62493 61.9088 8.71625 61.302 8.75454 60.5774C12.6782 67.0166 19.7625 71.3173 27.8542 71.3173C35.9459 71.3173 43.0332 67.0166 46.9538 60.5774C46.9921 61.302 47.0834 61.9088 47.2631 62.2063C47.484 62.5716 47.8788 62.8161 48.4001 62.9162C48.5828 62.9516 48.7713 62.9663 48.9628 62.9663C49.6933 62.9663 50.4268 62.7336 50.792 62.4567C51.4931 61.9206 54.1118 57.8674 54.698 54.527C54.9778 52.9305 54.7775 51.6962 54.1 50.8597C53.8084 50.5003 53.4696 50.2705 53.1397 50.1144C53.8496 49.4546 54.3975 48.6092 54.7834 47.7284C55.075 47.0509 55.2694 46.3293 55.3696 45.5987C55.4903 44.2761 55.5375 42.8504 56.6097 41.9167C57.6937 40.8975 55.9793 36.6852 55.7407 35.2654C55.726 35.1947 55.7113 35.121 55.6936 35.0444C55.9145 33.9811 56.2238 32.9059 56.7953 31.9927C56.8836 31.8808 56.9779 31.7041 57.0221 31.5597L57.0133 31.5715ZM54.3828 15.2673C54.5919 15.2084 54.7215 15.1907 54.7245 15.1907C54.6096 15.2113 54.4977 15.2378 54.3828 15.2673ZM36.6116 2.50965C36.6705 2.46252 36.7265 2.41539 36.7884 2.36826C36.7295 2.41244 36.6705 2.46252 36.6116 2.50965ZM36.376 2.7129C36.376 2.7129 36.4025 2.68933 36.4172 2.67755C36.4025 2.68933 36.3907 2.70112 36.376 2.7129Z" fill="white"/>
<path d="M50.7449 15.8329C50.8922 16.6517 51.2015 17.4235 51.5491 18.1805C51.6522 17.7505 51.8112 17.341 52.0557 16.9552C52.5476 16.1746 53.3282 15.5972 54.2001 15.3203C54.2119 15.3144 54.2237 15.3056 54.2384 15.2997C54.2414 15.2997 54.2414 15.2997 54.2414 15.2997C54.2532 15.2938 54.2679 15.2879 54.2797 15.282C54.536 15.1495 54.7215 15.1936 54.7215 15.1936C54.5507 15.2231 54.3857 15.2702 54.2237 15.3233C53.6817 15.6326 53.4078 16.4308 53.2281 16.9876C52.4622 19.4678 53.6022 21.9657 54.5919 24.2162C54.9572 24.9644 55.2459 25.7538 55.455 26.5668C56.6951 27.8777 57.3932 29.7953 57.0133 31.5715L57.0221 31.5597C56.9779 31.7041 56.8836 31.8808 56.7953 31.9927C56.2238 32.9059 55.9145 33.9811 55.6936 35.0444C55.7113 35.121 55.726 35.1947 55.7407 35.2654C55.9793 36.6852 57.6937 40.8975 56.6097 41.9167C55.5375 42.8504 55.4903 44.2761 55.3696 45.5987C55.2694 46.3293 55.075 47.0509 54.7834 47.7284C54.3975 48.6092 53.8496 49.4546 53.1397 50.1144C53.4696 50.2705 53.8084 50.5003 54.1 50.8597C54.7775 51.6962 54.9778 52.9305 54.698 54.527C54.1118 57.8674 51.4931 61.9206 50.792 62.4567C50.4268 62.7336 49.6933 62.9663 48.9628 62.9663C48.7713 62.9663 48.5828 62.9516 48.4001 62.9162C47.8788 62.8161 47.484 62.5716 47.2631 62.2063C47.0834 61.9088 46.9921 61.302 46.9538 60.5774C43.0332 67.0166 35.9459 71.3173 27.8542 71.3173C19.7625 71.3173 12.6782 67.0166 8.75454 60.5774C8.71625 61.302 8.62493 61.9088 8.44525 62.2063C8.22138 62.5716 7.8296 62.819 7.30822 62.9162C7.12559 62.9516 6.93412 62.9663 6.7456 62.9663C6.01508 62.9663 5.28161 62.7366 4.91635 62.4567C4.21528 61.9206 1.59659 57.8674 1.01041 54.527C0.727624 52.9305 0.930874 51.6962 1.60838 50.8597C2.3006 50.0054 3.25794 49.8493 3.76754 49.8316C3.97963 49.8228 4.19466 49.8729 4.4097 49.9554C4.07094 49.4723 3.77343 48.9656 3.57607 48.403C3.56135 48.3294 3.53189 48.1821 3.51716 48.1084C3.40817 47.1688 3.02818 46.2733 2.56571 45.4544C2.38308 45.1451 2.18278 44.8417 1.95007 44.5943C1.8293 44.4882 1.64372 44.3056 1.5583 44.1524C0.456623 42.1553 0.839558 39.6485 2.07379 37.7927C2.03255 36.0165 1.62605 34.1342 1.38745 32.3933C1.31086 31.2976 2.10619 30.3491 2.07084 29.2651C2.07084 28.9646 2.08557 28.6258 2.2034 28.3372C2.48029 27.5831 3.20787 27.1766 3.73219 26.6257C4.12102 26.0955 4.68953 25.7185 5.30812 25.5123C5.29339 25.3414 5.26688 25.1676 5.24332 24.9997C5.0872 24.1809 4.86627 23.2441 5.45246 22.5195C5.94144 21.8243 6.59537 21.2735 7.30233 20.811C7.66465 20.5901 8.00045 20.3898 8.28029 20.0775C8.96663 19.3294 9.4291 18.3573 9.95637 17.4795C10.79 16.2452 10.4925 14.6399 10.1478 13.2819M50.7449 15.8329C50.7596 15.9566 50.7861 16.0832 50.8097 16.2099C50.7802 16.0744 50.7567 15.9448 50.7449 15.8329ZM50.7449 15.8329C50.7449 15.8329 50.7037 15.88 50.6418 15.9625C50.6182 15.9919 50.5947 16.0214 50.5711 16.0508C50.5004 15.8358 50.4297 15.6208 50.359 15.4057C50.1852 14.9462 50.0085 14.4749 49.7169 14.0596C49.4282 13.6531 49.1159 13.2819 48.8773 12.8607C47.8375 11.1375 48.2676 9.00777 48.9421 7.22859C48.9421 7.22859 48.8626 7.2934 48.7389 7.41122C47.7226 8.33321 46.8537 9.47907 46.3853 10.7781C46.3824 10.7663 46.3794 10.7575 46.3765 10.7457C46.2086 10.1654 45.861 9.32001 45.808 8.73088M45.808 8.73088C45.8139 8.82219 45.8286 8.92529 45.8492 9.02839C45.8286 8.91645 45.8109 8.81335 45.808 8.73088ZM45.808 8.73088C45.808 8.73088 45.7932 8.80452 45.7667 8.92234C45.7785 8.85754 45.7932 8.79568 45.808 8.73088ZM45.808 8.73088C45.7196 9.11381 45.6224 9.4938 45.5134 9.87085C45.372 9.05784 45.2571 8.23895 45.266 7.42006C45.3131 6.96643 45.3426 6.5069 45.319 6.04738C45.266 4.19162 44.3292 2.40655 42.8417 1.29015C42.8152 1.26953 42.7828 1.26069 42.7474 1.26953C42.6856 1.28425 42.6502 1.34611 42.6679 1.40503C42.8623 2.27694 43.0656 3.21955 42.9566 4.10325C42.9212 4.31239 42.8476 4.53037 42.7091 4.6099C42.5206 4.70711 42.3026 4.79253 42.0905 4.87796L40.7974 5.38755C38.6294 6.29482 36.3642 7.24037 34.5821 8.80452C34.5084 8.50701 34.4407 8.20949 34.3935 7.90904C33.8633 5.92366 35.4717 3.25195 37.0859 2.15617M37.0859 2.15617C37.0859 2.15617 37.0829 2.15617 37.08 2.15911C37.08 2.15911 37.0829 2.15911 37.0859 2.15617ZM37.0859 2.15617C37.0859 2.15617 36.9474 2.2033 36.7206 2.27989C35.3803 2.73352 34.0136 3.17242 32.8088 3.92651C32.6144 4.04433 32.473 4.25937 32.3876 4.45673C31.9074 5.35221 31.3242 6.20056 30.6231 6.93402C30.4905 6.98705 30.358 7.03712 30.2195 7.07542C29.8307 7.16379 29.4036 7.2227 29.059 7.44657C27.9985 8.05632 27.0795 8.8811 26.2076 9.72945C25.6656 10.2803 25.1324 10.8488 24.6699 11.4703C24.6847 11.3437 24.7023 11.22 24.7141 11.0933C25.2149 8.85754 24.7436 7.49959 22.658 6.41559L21.9305 6.08273C21.795 6.01793 21.6919 6.22412 21.8185 6.29482C23.0675 7.23448 23.0675 8.97831 22.5108 10.3186C21.845 12.0713 20.9289 13.765 19.7477 15.2231C19.3766 15.662 19.0231 16.0155 18.4752 16.1863C18.0363 16.3513 17.565 16.5251 17.132 16.7313C17.1762 16.6842 17.2027 16.6193 17.1938 16.5516C17.1467 16.1657 17.132 15.7563 17.1408 15.3616C17.1821 14.2599 17.3853 12.9049 18.4251 12.3246C18.5047 12.2833 18.5577 12.2009 18.5489 12.1066C18.5371 11.9829 18.431 11.8945 18.3073 11.9033C17.6622 11.9593 17.0495 12.0919 16.4427 12.301C14.1215 13.0934 13.8122 14.5338 13.1524 16.6576C13.0051 17.0995 12.9344 17.5885 12.5986 17.9007C12.3276 18.1894 12.0625 18.4928 11.8151 18.8109C11.8269 18.4191 11.8269 18.0244 11.8298 17.6238C11.8092 17.182 11.7974 15.391 11.332 15.2467C11.2201 15.229 11.1199 15.3056 11.0934 15.4116C10.9815 14.9639 10.8283 14.5309 10.628 14.1185C10.6133 14.0861 10.5956 14.0537 10.5808 14.0183C10.5337 13.9241 10.4866 13.8298 10.4336 13.7385C10.3452 13.5824 10.2539 13.4292 10.1478 13.2819M10.1478 13.2819C10.1478 13.2819 10.2067 13.4675 10.2774 13.7621C10.2362 13.6 10.192 13.438 10.1478 13.2819ZM54.3828 15.2673C54.5919 15.2084 54.7215 15.1907 54.7245 15.1907C54.6096 15.2113 54.4977 15.2378 54.3828 15.2673ZM36.6116 2.50965C36.6705 2.46252 36.7265 2.41539 36.7884 2.36826C36.7295 2.41244 36.6705 2.46252 36.6116 2.50965ZM36.376 2.7129C36.376 2.7129 36.4025 2.68933 36.4172 2.67755C36.4025 2.68933 36.3907 2.70112 36.376 2.7129Z" stroke="white" stroke-width="1.76739" stroke-linejoin="round"/>
<path d="M48.7682 52.6302C48.7682 52.6302 50.5297 49.9997 51.9259 50.0498C53.3222 50.0999 55.0454 51.1249 54.4592 54.4653C53.873 57.8057 51.2661 61.7706 50.6416 62.2477C50.0171 62.7249 48.0642 63.0549 47.4632 62.0651C46.8623 61.0754 47.3631 55.947 47.3631 55.947L48.7711 52.6331L48.7682 52.6302Z" fill="#FBF9F6"/>
<path d="M48.9567 62.9457C48.7682 62.9457 48.5767 62.931 48.3941 62.8956C47.8727 62.7984 47.4809 62.551 47.257 62.1857C46.6326 61.1577 47.0715 56.4535 47.1245 55.9203L47.1422 55.8496L48.5708 52.4974C48.6445 52.3855 50.4266 49.7609 51.9318 49.811C52.4414 49.8287 53.3987 49.9848 54.091 50.839C54.7685 51.6756 54.9717 52.9098 54.6889 54.5064C54.1028 57.8468 51.4841 61.9 50.783 62.4361C50.4177 62.7159 49.6843 62.9457 48.9537 62.9457H48.9567ZM47.5929 56.0057C47.3955 58.0382 47.2541 61.2696 47.6635 61.9442C47.8167 62.1946 48.0907 62.3595 48.4824 62.4332C49.2071 62.5687 50.1261 62.3477 50.4973 62.062C51.0304 61.6555 53.6403 57.7496 54.2265 54.4269C54.4827 52.9717 54.3148 51.8671 53.7257 51.1424C53.1513 50.4355 52.3471 50.3059 51.92 50.2911C50.892 50.2646 49.4633 52.035 48.9803 52.7478L47.5958 56.0087L47.5929 56.0057Z" fill="black"/>
<path d="M46.898 58.4684C46.898 58.4684 47.7787 61.3669 49.3929 60.7454C51.0072 60.1209 52.2178 57.8468 52.1088 57.1487C51.9998 56.4506 52.7333 55.019 53.2105 55.019C53.6877 55.019 54.3122 52.4504 52.9896 52.2295C51.667 52.0086 49.7317 54.3945 49.8318 55.0927C49.932 55.7908 50.2177 57.6937 49.5962 58.2357C48.9747 58.7777 47.5931 59.0575 46.895 58.4713L46.898 58.4684Z" fill="#C4B2C5"/>
<path d="M48.4947 58.8277C48.1883 58.8277 47.9438 58.76 47.9232 58.7541C47.8614 58.7364 47.8231 58.6716 47.8407 58.6068C47.8584 58.545 47.9232 58.5067 47.988 58.5243C47.9969 58.5243 48.8158 58.7512 49.234 58.3417C49.6582 57.9293 49.9498 57.5317 49.8408 56.1884C49.7378 54.8982 49.7672 53.9144 51.0604 52.9688C51.9794 52.2972 52.5715 52.0498 53.0369 52.144C53.3226 52.203 53.5583 52.3856 53.7527 52.7096C53.7851 52.7656 53.7674 52.8392 53.7114 52.8716C53.6555 52.907 53.5818 52.8864 53.5494 52.8304C53.3904 52.5682 53.2077 52.418 52.9898 52.3738C52.595 52.2943 52.0589 52.5299 51.1988 53.1574C50.0029 54.0322 49.9763 54.9189 50.0765 56.1678C50.1796 57.4845 49.9292 57.9882 49.399 58.5096C49.1427 58.76 48.7892 58.8248 48.4917 58.8248L48.4947 58.8277Z" fill="black"/>
<path d="M6.92831 52.6302C6.92831 52.6302 5.16681 49.9997 3.77056 50.0498C2.37432 50.0999 0.651112 51.1249 1.2373 54.4653C1.82348 57.8057 4.43039 61.7706 5.05487 62.2477C5.67935 62.7249 7.63232 63.0549 8.23324 62.0651C8.83415 61.0754 8.33339 55.947 8.33339 55.947L6.92536 52.6331L6.92831 52.6302Z" fill="#FBF9F6"/>
<path d="M4.9131 62.4361C4.21204 61.9 1.59335 57.8468 1.00716 54.5064C0.727323 52.9098 0.927627 51.6756 1.60513 50.839C2.29736 49.9848 3.2547 49.8287 3.7643 49.811C5.26953 49.7609 7.05165 52.3855 7.12529 52.4974L8.55394 55.8496L8.57161 55.9203C8.62463 56.4535 9.06353 61.1577 8.43905 62.1857C8.21813 62.551 7.82341 62.7955 7.30203 62.8956C7.1194 62.931 6.92793 62.9457 6.73941 62.9457C6.00889 62.9457 5.27542 62.713 4.91016 62.4361H4.9131ZM6.71879 52.7449C6.2357 52.032 4.80706 50.2587 3.77902 50.2882C3.34896 50.3029 2.54479 50.4325 1.97334 51.1395C1.3842 51.8641 1.2163 52.9717 1.47257 54.4239C2.05581 57.7437 4.66861 61.6496 5.20178 62.0591C5.57293 62.3448 6.49197 62.5657 7.21661 62.4302C7.60838 62.3566 7.88233 62.1916 8.0355 61.9412C8.44495 61.2667 8.30061 58.0353 8.1062 56.0028L6.72174 52.7419L6.71879 52.7449Z" fill="black"/>
<path d="M8.80166 58.4684C8.80166 58.4684 7.9209 61.3669 6.30668 60.7454C4.69246 60.1238 3.4818 57.8468 3.59079 57.1487C3.69978 56.4506 2.96631 55.019 2.48911 55.019C2.01192 55.019 1.38744 52.4504 2.71004 52.2295C4.03264 52.0086 5.96793 54.3945 5.86778 55.0927C5.76763 55.7908 5.4819 57.6937 6.10343 58.2357C6.72497 58.7777 8.10648 59.0575 8.8046 58.4713L8.80166 58.4684Z" fill="#C4B2C5"/>
<path d="M7.20237 58.8277C7.50872 58.8277 7.75321 58.76 7.77383 58.7541C7.83569 58.7364 7.87398 58.6716 7.85631 58.6068C7.83863 58.545 7.77383 58.5067 7.70902 58.5243C7.70019 58.5243 6.88129 58.7512 6.46301 58.3417C6.03884 57.9293 5.74721 57.5317 5.8562 56.1884C5.9593 54.8982 5.92985 53.9144 4.6367 52.9688C3.71766 52.2972 3.12558 52.0498 2.66017 52.144C2.37444 52.203 2.13878 52.3856 1.94437 52.7096C1.91197 52.7656 1.92964 52.8392 1.98561 52.8716C2.04158 52.907 2.11522 52.8864 2.14762 52.8304C2.30669 52.5682 2.48932 52.418 2.7073 52.3738C3.10201 52.2943 3.63812 52.5299 4.49826 53.1574C5.69419 54.0322 5.7207 54.9189 5.62055 56.1678C5.51745 57.4845 5.76783 57.9882 6.29805 58.5096C6.55433 58.76 6.9078 58.8248 7.20532 58.8248L7.20237 58.8277Z" fill="black"/>
<path d="M27.8482 71.2968C40.1911 71.2968 50.1969 61.2909 50.1969 48.9481C50.1969 36.6052 40.1911 26.5994 27.8482 26.5994C15.5054 26.5994 5.49951 36.6052 5.49951 48.9481C5.49951 61.2909 15.5054 71.2968 27.8482 71.2968Z" fill="#EFEFF1"/>
<path d="M32.3848 55.6524C32.3848 55.6524 35.03 49.116 45.3103 49.9172C45.3103 49.9172 43.8581 56.0294 41.8668 57.0751C39.8756 58.1208 36.6295 58.7571 32.3848 55.6524Z" fill="white"/>
<path d="M10.6548 49.9555C10.6548 49.9555 12.3898 49.5431 14.2279 49.8612C16.066 50.1794 19.5124 51.552 19.5124 51.552C19.5124 51.552 22.3874 53.9822 22.6201 54.5124C22.8528 55.0426 23.4596 55.9234 23.4596 55.9234C23.4596 55.9234 19.2355 58.7041 15.5358 57.7615C11.836 56.8189 11.3824 53.8496 11.3824 53.8496L10.6519 49.9584L10.6548 49.9555Z" fill="white"/>
<path d="M27.904 61.7173C27.8422 61.7173 27.7803 61.6937 27.7332 61.6437L26.01 59.8645C25.9599 59.8115 25.9363 59.7408 25.9452 59.6701C25.954 59.5994 25.9953 59.5346 26.0571 59.4963L27.6654 58.533V56.7715C27.6654 56.6419 27.7715 56.5359 27.9011 56.5359C28.0307 56.5359 28.1367 56.6419 28.1367 56.7715V58.6656C28.1367 58.7481 28.0926 58.8247 28.0219 58.8688L26.5549 59.7496L28.069 61.3137C28.1603 61.408 28.1574 61.5582 28.0631 61.6496C28.016 61.6937 27.9571 61.7173 27.8982 61.7173H27.904Z" fill="black"/>
<path d="M32.3848 51.9847C34.4349 49.528 37.2539 47.2658 40.665 47.8225C42.1113 48.0581 43.484 48.662 44.7241 49.4014C43.6431 48.989 42.5591 48.5942 41.4456 48.3674C37.7871 47.5191 34.9887 49.7224 32.3848 51.9876V51.9847Z" fill="black"/>
<path d="M30.667 49.4546C32.1074 46.3558 34.7615 42.5647 38.1136 41.3894C38.8648 41.5603 39.4981 41.9933 40.1019 42.4381C41.1742 43.2511 42.0667 44.2467 42.865 45.313C43.2538 45.8462 43.6161 46.3941 43.949 46.9626C43.7133 46.7328 43.4836 46.5001 43.2567 46.2645C42.9121 45.9198 42.214 45.2394 41.8575 44.9095C40.7087 43.902 39.5157 42.8151 38.0518 42.3232L38.2933 42.3055C37.5215 42.6001 36.7969 43.0684 36.1135 43.5986C34.025 45.2541 32.3401 47.375 30.6699 49.4487L30.667 49.4546Z" fill="black"/>
<path d="M34.7148 53.066C34.7148 54.7863 36.1111 56.1825 37.8313 56.1825C39.5516 56.1825 40.9479 54.7863 40.9479 53.066C40.9479 51.8642 40.2645 50.8214 39.2688 50.303C37.2835 50.8538 35.8018 51.7817 34.7384 52.7214C34.7266 52.8333 34.7178 52.9482 34.7178 53.066H34.7148Z" fill="#F4BA42"/>
<path d="M37.8312 56.4183C35.9813 56.4183 34.479 54.9131 34.479 53.0662C34.479 52.9483 34.4849 52.8276 34.4996 52.695L34.5085 52.6037L34.5762 52.5418C35.8811 51.393 37.4364 50.5623 39.2009 50.0734L39.2922 50.0498L39.3747 50.094C40.4881 50.6743 41.1833 51.8143 41.1833 53.0662C41.1833 54.916 39.6781 56.4183 37.8312 56.4183ZM34.9621 52.8393C34.9562 52.9189 34.9533 52.9925 34.9533 53.0662C34.9533 54.6539 36.2434 55.9441 37.8312 55.9441C39.4189 55.9441 40.7091 54.6539 40.7091 53.0662C40.7091 52.0205 40.1465 51.069 39.2392 50.5565C37.6132 51.0219 36.1757 51.7877 34.9621 52.8364V52.8393Z" fill="black"/>
<path d="M38.5796 58.2329C37.4131 58.2329 36.1759 57.9678 34.9122 57.4405C33.3334 56.7807 32.2818 55.9588 32.2376 55.9235L32.0962 55.8116L32.1669 55.6437C32.1963 55.573 35.3011 48.633 45.0983 49.6728L45.3193 49.6964L45.3104 49.9173C45.3104 49.9821 45.2486 51.558 44.6712 53.3313C43.8994 55.7114 42.5592 57.2844 40.7947 57.8823C40.0966 58.118 39.3543 58.2358 38.5766 58.2358L38.5796 58.2329ZM32.6824 55.6613C33.463 56.221 37.1156 58.6247 40.6445 57.4287C44.1439 56.2416 44.7331 51.2369 44.8214 50.1205C36.3851 49.3252 33.2096 54.6421 32.6824 55.6613Z" fill="black"/>
<path d="M37.8311 54.1499C38.4297 54.1499 38.9151 53.6646 38.9151 53.0659C38.9151 52.4673 38.4297 51.9819 37.8311 51.9819C37.2324 51.9819 36.7471 52.4673 36.7471 53.0659C36.7471 53.6646 37.2324 54.1499 37.8311 54.1499Z" fill="black"/>
<path d="M41.1685 63.7648C41.1685 64.6868 40.4203 65.4321 39.5012 65.4321C38.5822 65.4321 37.834 64.6839 37.834 63.7648C37.834 62.8458 39.5012 59.7263 39.5012 59.7263C39.5012 59.7263 41.1685 62.8428 41.1685 63.7648Z" fill="#4CC6C4"/>
<path d="M23.3149 51.9847C21.2648 49.528 18.4458 47.2658 15.0347 47.8225C13.5884 48.0581 12.2157 48.662 10.9756 49.4014C12.0566 48.989 13.1406 48.5942 14.2541 48.3674C17.9126 47.5191 20.711 49.7224 23.3149 51.9876V51.9847Z" fill="black"/>
<path d="M25.032 49.4546C23.5915 46.3558 20.9375 42.5647 17.5853 41.3894C16.8342 41.5603 16.2009 41.9933 15.597 42.4381C14.5248 43.2511 13.6323 44.2467 12.834 45.313C12.4452 45.8462 12.0829 46.3941 11.75 46.9626C11.9857 46.7328 12.2154 46.5001 12.4422 46.2645C12.7869 45.9198 13.485 45.2394 13.8414 44.9095C14.9902 43.902 16.1832 42.8151 17.6472 42.3232L17.4057 42.3055C18.1774 42.6001 18.9021 43.0684 19.5854 43.5986C21.6739 45.2541 23.3588 47.375 25.029 49.4487L25.032 49.4546Z" fill="black"/>
<path d="M20.982 53.066C20.982 54.7863 19.5858 56.1825 17.8655 56.1825C16.1453 56.1825 14.749 54.7863 14.749 53.066C14.749 51.8642 15.4324 50.8214 16.428 50.303C18.4134 50.8538 19.8951 51.7817 20.9585 52.7214C20.9703 52.8333 20.9791 52.9482 20.9791 53.066H20.982Z" fill="#F4BA42"/>
<path d="M14.5132 53.0662C14.5132 51.8113 15.2054 50.6743 16.3218 50.094L16.4043 50.0498L16.4956 50.0734C18.2601 50.5623 19.8183 51.393 21.1203 52.5418L21.188 52.6037L21.1969 52.695C21.2116 52.8246 21.2175 52.9483 21.2175 53.0662C21.2175 54.916 19.7123 56.4183 17.8653 56.4183C16.0155 56.4183 14.5132 54.9131 14.5132 53.0662ZM16.4603 50.5565C15.5501 51.0661 14.9904 52.0205 14.9904 53.0662C14.9904 54.6539 16.2806 55.9441 17.8683 55.9441C19.456 55.9441 20.7462 54.6539 20.7462 53.0662C20.7462 52.9925 20.7432 52.9189 20.7374 52.8393C19.5237 51.7877 18.0863 51.0219 16.4603 50.5594V50.5565Z" fill="black"/>
<path d="M14.9025 57.8792C13.138 57.2812 11.8007 55.7082 11.026 53.3281C10.4516 51.5549 10.3897 49.9819 10.3868 49.9141L10.3779 49.6932L10.5989 49.6696C20.3991 48.6298 23.5008 55.5698 23.5303 55.6405L23.601 55.8084L23.4596 55.9203C23.4154 55.9557 22.3638 56.7775 20.7849 57.4373C19.5213 57.9646 18.2811 58.2297 17.1176 58.2297C16.3429 58.2297 15.5976 58.1119 14.8995 57.8762L14.9025 57.8792ZM10.8757 50.1203C10.9641 51.2367 11.5532 56.2414 15.0527 57.4285C18.5816 58.6244 22.2313 56.2208 23.0148 55.6611C22.4875 54.639 19.3121 49.322 10.8757 50.1203Z" fill="black"/>
<path d="M17.8653 54.1499C18.4639 54.1499 18.9493 53.6646 18.9493 53.0659C18.9493 52.4673 18.4639 51.9819 17.8653 51.9819C17.2666 51.9819 16.7812 52.4673 16.7812 53.0659C16.7812 53.6646 17.2666 54.1499 17.8653 54.1499Z" fill="black"/>
<path d="M17.1525 59.4994L17.8418 61.1195L19.5974 61.2726C19.7506 61.2874 19.8124 61.4759 19.6976 61.579L18.3691 62.7337L18.7638 64.451C18.7991 64.6012 18.6371 64.7191 18.5046 64.6395L16.9934 63.7323L15.4823 64.6395C15.3498 64.7191 15.1878 64.6012 15.2231 64.451L15.6178 62.7337L14.2893 61.579C14.1744 61.4788 14.2363 61.2874 14.3895 61.2726L16.1451 61.1195L16.8344 59.4994C16.8933 59.358 17.0965 59.358 17.1555 59.4994H17.1525Z" fill="#E05997"/>
<path d="M46.4092 48.5621C46.4092 48.5621 46.8363 51.4547 47.7377 52.2117C47.7377 52.2117 51.5493 51.4076 52.9603 50.0496C54.3713 48.6917 55.0576 46.8094 55.1872 45.2452C55.3168 43.6811 55.4023 42.7385 56.4715 41.7105C57.5408 40.6824 54.9722 34.9885 55.4023 33.875L54.333 38.1138L53.0487 41.952L50.8218 44.7916L46.4121 48.5591L46.4092 48.5621Z" fill="#574390"/>
<path d="M46.4092 48.562C46.527 49.2071 46.689 49.8463 46.8893 50.4678C47.0955 51.0599 47.3223 51.7256 47.7907 52.1498L47.72 52.1321C49.1015 51.7787 50.486 51.3574 51.7497 50.6947C53.0251 50.0555 53.8764 48.8477 54.4125 47.5575C54.6776 46.9095 54.8632 46.2261 54.9516 45.528C55.0282 44.8063 55.0429 44.0817 55.2314 43.36C55.3964 42.6825 55.7882 42.0639 56.2889 41.5808C56.4657 41.41 56.4892 41.1831 56.5069 40.9033C56.5157 40.4585 56.4421 39.9901 56.3508 39.5277C56.0621 38.1314 55.6055 36.7499 55.2933 35.3448C55.199 34.8176 55.0488 34.3669 55.199 33.7954C55.2874 33.5274 55.7027 33.6452 55.6173 33.928L54.5304 38.1638C54.0856 39.4599 53.6467 40.7649 53.1754 42.0521L50.916 44.8682C50.8954 44.8947 46.4357 48.5384 46.4121 48.562H46.4092ZM46.4092 48.562C46.4092 48.562 50.7982 44.6443 50.7246 44.7209L52.9191 41.8547L52.8926 41.9019C53.302 40.6411 53.735 39.2655 54.1327 38.0637L55.1872 33.819L55.6055 33.9515C55.5142 34.3227 55.6468 34.847 55.7292 35.2447C55.9678 36.6645 57.6822 40.8768 56.5982 41.896C55.5289 42.8268 55.4818 44.2555 55.3581 45.5781C55.2579 46.3115 55.0635 47.0303 54.7719 47.7078C54.1857 49.048 53.2284 50.3206 51.8822 50.9509C50.5773 51.599 49.1693 51.9937 47.7524 52.2912C47.7259 52.2971 47.6994 52.2912 47.6817 52.2735C47.4195 52.0349 47.2634 51.7286 47.1279 51.4281C46.7391 50.515 46.5447 49.5341 46.4092 48.5591V48.562Z" fill="black"/>
<path d="M54.76 25.9099C57.2019 27.7951 57.3404 31.1767 56.7365 31.8631C56.1326 32.5494 55.19 35.5717 55.3167 37.0357C55.4463 38.4997 55.9588 39.2714 55.1017 40.5115C54.2445 41.7546 53.7496 41.9785 53.7201 43.0448C53.6907 44.1111 51.3283 48.889 46.8126 49.8611C46.8126 49.8611 44.5385 48.7977 44.9745 45.6517C45.4104 42.5057 51.5728 38.6293 51.5728 38.6293L53.9941 32.7203L54.76 25.9129V25.9099Z" fill="#574390"/>
<path d="M54.7597 25.9099C56.421 27.1736 57.4608 29.4594 57.0131 31.545C56.9719 31.6893 56.8747 31.866 56.7863 31.978C56.0852 33.0973 55.7759 34.4553 55.5432 35.7455C55.4548 36.3346 55.4283 36.9031 55.5373 37.4922C55.6257 38.099 55.8083 38.6911 55.7553 39.3215C55.6286 40.6883 54.3767 41.4689 54.0144 42.4675C53.9202 42.7443 53.9437 43.0507 53.8878 43.3394C53.8082 43.6516 53.7051 43.9491 53.5785 44.229C52.3177 47.0008 49.8993 49.4104 46.8624 50.0908C46.8123 50.1026 46.7563 50.0967 46.7121 50.0731C46.394 49.9082 46.1525 49.7108 45.9109 49.4811C45.204 48.8036 44.7916 47.8403 44.7179 46.8771C44.5648 45.581 45.0537 44.3055 45.8579 43.3099C47.4014 41.3393 49.3986 39.8311 51.4812 38.482L51.4134 38.5645L53.8907 32.679C53.8642 32.8175 54.7656 25.8893 54.7626 25.9129L54.7597 25.9099ZM54.7597 25.9099C54.7538 25.9364 54.1116 32.735 54.0969 32.7586L51.7315 38.6941C51.7168 38.7294 51.6932 38.7559 51.6638 38.7765C49.6696 40.1345 47.6783 41.6545 46.1996 43.5691C45.0626 44.9418 44.7592 46.9272 45.6959 48.4795C45.9846 48.9538 46.4294 49.3956 46.9124 49.649L46.7622 49.6313C49.0687 49.1305 51.0216 47.534 52.3266 45.5987C52.8362 44.824 53.3458 43.9815 53.5078 43.0625C53.4813 42.1464 54.1352 41.4571 54.6536 40.7943C55.9644 39.3097 55.1249 38.317 55.1485 36.6174C55.1897 35.6983 55.4136 34.8029 55.6787 33.9309C55.9203 33.2122 56.153 32.4611 56.6154 31.8395C56.7156 31.7129 56.7627 31.6245 56.8157 31.4831C57.2988 29.4565 56.3327 27.2266 54.7597 25.9129V25.9099Z" fill="black"/>
<path d="M6.92221 52.9716C6.92221 52.9716 3.75268 49.4574 3.64664 48.0818C3.54059 46.7061 2.53318 44.7944 1.94994 44.3202C1.3667 43.8459 0.0941727 40.4525 2.69224 37.3242L5.18427 45.1479L8.10047 47.4455L10.1506 48.2408L9.16091 50.5591C9.16091 50.5591 8.85161 53.7168 6.92515 52.9716H6.92221Z" fill="#574390"/>
<path d="M6.92197 52.9717C6.41532 52.4356 5.92634 51.8848 5.45798 51.3104C4.74513 50.4002 3.96453 49.4958 3.57276 48.3853C3.55803 48.3117 3.52562 48.1644 3.51384 48.0908C3.40485 47.1511 3.02486 46.2586 2.56239 45.4367C2.38271 45.1274 2.17946 44.8211 1.94675 44.5766C1.82598 44.4705 1.64335 44.285 1.55498 44.1347C0.332532 41.9137 0.936392 39.0623 2.51232 37.1771L2.77743 36.8442C3.02781 37.6307 3.29292 38.4231 3.53446 39.2096C3.92034 40.4409 4.97489 43.8107 5.3755 45.0862L5.30775 44.986C6.03238 45.5604 7.48459 46.7299 8.20038 47.3131L8.1562 47.2895L10.1946 48.1114L10.3301 48.1673L10.2741 48.297C9.9501 49.0216 9.54949 49.9554 9.25198 50.571C9.1047 51.7286 8.41247 53.6315 6.92197 52.9747V52.9717ZM6.92197 52.9717C8.41542 53.5226 8.96331 51.6491 9.06935 50.5209C9.37865 49.7403 9.69972 48.9627 10.0208 48.185L10.0974 48.3706L8.03543 47.6047L8.01481 47.5959C7.2401 47.0068 5.77022 45.8697 5.00434 45.2718L4.98373 45.2099L3.72004 41.304C3.35183 40.1669 2.81867 38.5233 2.46813 37.3921L2.8658 37.4687C1.38119 39.2125 0.800892 41.846 1.88489 43.9285C1.97621 44.0847 2.0469 44.1495 2.21481 44.3174C2.47992 44.6149 2.67728 44.9389 2.85696 45.2688C3.31648 46.1378 3.68469 47.0804 3.77306 48.0701C3.78484 48.132 3.80546 48.2557 3.81725 48.3176C4.46529 50.0732 5.76727 51.5107 6.91902 52.9717H6.92197Z" fill="black"/>
<path d="M5.63202 25.3945C5.63202 25.3945 4.49205 25.6596 3.90881 26.455C3.32557 27.2503 2.10607 27.6745 2.15909 29.1061C2.21211 30.5376 1.36376 31.386 1.52283 32.4464C1.6819 33.5069 2.47722 37.3745 2.21211 38.8061C1.947 40.2377 2.15909 42.0935 2.9014 42.6738C3.6437 43.2541 4.07082 44.0523 4.20043 44.5825C4.33004 45.1128 5.70566 47.4987 7.11074 48.082C8.51582 48.6652 9.37006 50.0526 9.37006 50.0526C9.37006 50.0526 11.0491 46.2292 11.055 45.6989C11.0609 45.1687 11.273 42.4411 11.379 41.3924C11.485 40.3437 8.72791 39.4453 8.72791 39.4453L6.66006 36.5291L4.96336 31.6541L6.43913 27.7334L5.62613 25.4004L5.63202 25.3945Z" fill="#574390"/>
<path d="M5.63222 25.3945C5.05192 25.5683 4.48636 25.857 4.0828 26.3048C3.89428 26.5375 3.69987 26.7908 3.4701 26.9911C2.76315 27.5891 2.13572 28.2489 2.2506 29.2416C2.3213 30.4905 1.3728 31.548 1.71744 32.7881L2.04441 34.5909C2.24176 35.8074 2.4568 37.0152 2.44796 38.2612C2.33603 39.4336 2.15634 40.6825 2.58052 41.8048C2.68067 42.0699 2.81911 42.3203 3.00469 42.4823C3.49661 42.8711 3.92963 43.3896 4.20063 43.964C4.30373 44.1702 4.37442 44.4029 4.44217 44.6238C4.70139 45.2306 5.07254 45.7962 5.47315 46.3293C6.03283 47.0569 6.61312 47.6519 7.48209 47.9936C8.33928 48.4414 9.0374 49.1159 9.57351 49.923L9.15817 49.9525C9.67366 48.7683 10.1921 47.5812 10.6339 46.3706C10.9403 45.6489 10.846 44.8771 10.9344 44.1289C10.9933 43.4014 11.0964 42.12 11.1701 41.4101C11.229 40.5676 9.33785 39.8783 8.66624 39.6191C8.62795 39.6044 8.59555 39.5808 8.57493 39.5484L6.53359 36.6146C6.53359 36.6146 6.51886 36.588 6.51297 36.5733L4.86635 31.6806C4.85751 31.657 4.85751 31.6276 4.86635 31.6069L6.40103 27.7069V27.7393L5.63222 25.3916V25.3945ZM5.63222 25.3945L6.4894 27.7098C6.49235 27.7216 6.49235 27.7305 6.4894 27.7422L5.07254 31.6865V31.6128L6.81637 36.4732C6.70149 36.2758 8.91368 39.3746 8.89011 39.3305L8.79291 39.2598C9.68839 39.5897 11.6767 40.2848 11.5854 41.4572C11.4676 42.7887 11.335 44.3793 11.279 45.7078C11.1936 46.2763 10.9697 46.7329 10.7842 47.2602C10.4071 48.2322 10.0036 49.1896 9.59118 50.144C9.54111 50.2618 9.40266 50.3178 9.28189 50.2677C9.23476 50.2471 9.19941 50.2147 9.1729 50.1734C8.6957 49.4635 8.04177 48.8096 7.27589 48.409C5.8119 47.7992 4.84278 46.3735 4.13877 45.0067C4.00032 44.7357 3.95908 44.4264 3.81769 44.1525C3.56731 43.6223 3.1991 43.1775 2.73664 42.8063C2.012 42.0935 1.93542 41.0213 1.90596 40.0816C1.88239 39.463 2.04441 38.8621 2.07975 38.2523C2.1151 36.3406 1.64969 34.2728 1.38752 32.3728C1.31094 31.277 2.10626 30.3285 2.07092 29.2445C2.07092 28.9441 2.08564 28.6053 2.20347 28.3166C2.48036 27.5626 3.20794 27.159 3.73227 26.6052C4.18884 25.9807 4.89286 25.5713 5.63516 25.3975L5.63222 25.3945Z" fill="black"/>
<path d="M10.1445 13.2585C10.1445 13.2585 10.9752 15.8566 10.1445 17.2322C9.31384 18.6079 8.7306 20.0424 7.64365 20.6787C6.5567 21.3149 5.2341 22.5344 5.18108 23.4888C5.12806 24.4432 5.81734 25.8748 5.18108 26.6701C4.54482 27.4655 3.37834 28.1547 2.95416 30.3286C2.52999 32.5025 2.69494 34.5674 3.40779 35.4158C4.12064 36.2641 5.07503 37.3246 4.91597 38.6501C4.7569 39.9757 4.27971 42.4117 6.08245 43.8433C7.88519 45.2749 8.03542 46.4944 10.5834 46.7595C10.5834 46.7595 11.0105 46.0526 11.1225 44.5797C11.1225 44.5797 7.72613 43.5281 6.13547 37.3246C6.13547 37.3246 7.95 41.637 11.1225 43.048C11.1225 43.048 11.6085 41.2983 11.6821 40.1318C11.7558 38.9653 12.4333 37.9932 12.4333 37.9932L8.6923 34.7383L8.14441 30.6939C8.14441 30.6939 9.17834 26.7703 9.17834 26.3756C9.17834 25.9808 9.72623 23.8511 9.72623 23.0617C9.72623 22.2723 10.4862 20.0218 10.4862 20.0218L11.2462 18.0747C11.2462 18.0747 11.5997 15.3146 10.1475 13.2585H10.1445Z" fill="#E0415E"/>
<path d="M10.1445 13.2583C10.5275 14.6133 10.8633 16.2452 10.0414 17.506L9.73802 18.0509C9.23431 18.9464 8.76595 19.945 7.92349 20.593C7.39916 20.9376 6.88662 21.2646 6.43593 21.7006C5.99998 22.1159 5.58169 22.5813 5.37255 23.1498C5.18992 23.736 5.41084 24.334 5.49627 24.932C5.60526 25.5329 5.69363 26.3253 5.22527 26.829C4.82171 27.3032 4.34746 27.7156 3.99398 28.2193C3.03959 29.5478 2.89231 31.3005 2.90409 32.8882C2.94827 33.71 3.04548 34.6261 3.55213 35.2859C4.20902 36.0518 4.90714 36.8619 5.09271 37.8929C5.20465 38.5262 5.02202 39.186 4.98078 39.8046C4.91008 40.6146 4.92481 41.4365 5.17225 42.1847C5.42263 42.98 5.99114 43.5161 6.62445 44.0198C8.01186 45.2953 8.54797 46.3734 10.6011 46.5295L10.3831 46.6385C10.4538 46.5089 10.5275 46.3292 10.5834 46.1643C10.7543 45.6458 10.8456 45.1038 10.8868 44.5589L11.0488 44.7945C10.6423 44.6473 10.3154 44.4469 9.9884 44.2201C7.75264 42.6236 6.59794 39.9548 5.91161 37.3774C5.83502 37.1064 6.22679 36.9738 6.33578 37.2242C7.11638 38.9445 8.20038 40.5911 9.63197 41.8371C10.1151 42.2406 10.6423 42.5823 11.205 42.8504L10.9133 42.9888C11.1372 42.1523 11.3375 41.298 11.4406 40.4467C11.4789 39.9961 11.5201 39.5424 11.6704 39.1153C11.8147 38.6793 12.0032 38.2728 12.2624 37.8781L12.2948 38.1462L8.57154 34.8736C8.53619 34.8441 8.51851 34.8029 8.51262 34.7616L7.98829 30.7143C8.3565 29.1177 8.89556 27.5389 9.11059 25.9099C9.21369 25.3856 9.50825 24.0365 9.576 23.5151C9.62019 22.6933 9.80282 21.8861 10.0503 21.1114C10.3389 20.0805 10.8132 19.0053 11.1873 18.0656C11.3463 16.4161 11.0783 14.6546 10.1445 13.2554V13.2583ZM10.1445 13.2583C11.1225 14.6457 11.4377 16.419 11.2992 18.0921C10.9222 19.1113 10.4921 20.1099 10.2211 21.1615C10.0768 21.6829 9.93537 22.2072 9.85879 22.7345C9.82049 23.2765 9.7822 23.8244 9.67321 24.3576C9.62019 24.6727 9.32857 26.0631 9.31089 26.3429C9.08408 27.8275 8.64223 29.2739 8.29464 30.7349C8.28286 30.4227 8.86905 34.7881 8.86905 34.7145L8.81013 34.6026L12.5658 37.8369C12.6454 37.9046 12.6572 38.0225 12.5982 38.1049C12.1328 38.8031 11.8883 39.6514 11.8559 40.4909C11.7499 41.3805 11.5525 42.2377 11.3257 43.1008C11.2963 43.2127 11.1814 43.2805 11.0695 43.251C9.23431 42.4233 7.89109 40.8238 6.85127 39.1477C6.50957 38.588 6.19734 38.0195 5.92633 37.4098L6.3564 37.2654L6.66864 38.3435C7.4787 40.7177 8.79835 43.2864 11.1902 44.3556C11.2933 44.388 11.3611 44.4882 11.3522 44.5913C11.3228 44.9772 11.2668 45.3601 11.1814 45.743C11.0842 46.1407 10.9811 46.5001 10.7808 46.8712C10.7366 46.9508 10.6512 46.989 10.5687 46.9802C8.09434 46.7799 7.58474 45.3277 5.8792 43.9432C4.64792 42.9564 4.41227 41.2273 4.58017 39.7663C4.61846 39.1477 4.79815 38.5674 4.70094 37.9606C4.53009 37.015 3.86143 36.258 3.26346 35.5363C2.27372 34.1401 2.50937 31.9809 2.78037 30.3873C2.93649 29.5566 3.24284 28.7289 3.75833 28.0426C4.12948 27.5241 4.60668 27.1176 5.01907 26.6493C5.43146 26.1898 5.33426 25.5623 5.24883 24.9761C5.09271 24.1573 4.87179 23.2176 5.45797 22.4959C5.94695 21.7978 6.60089 21.2499 7.30785 20.7874C7.66722 20.5694 8.00597 20.3691 8.28581 20.0539C8.97509 19.3058 9.43461 18.3337 9.96188 17.4559C10.7926 16.2187 10.498 14.6163 10.1534 13.2583H10.1445Z" fill="black"/>
<path d="M13.9213 36.2581C13.9213 36.2581 11.064 33.4921 11.064 31.6982C11.064 29.9043 11.7945 24.1279 11.7945 24.1279C11.7945 24.1279 11.1907 21.3 11.3851 20.8434C11.5795 20.3869 11.8387 16.4868 11.3026 15.45C11.3026 15.45 10.9491 18.1511 10.1243 19.0525C9.29955 19.9539 7.83261 22.8141 8.08888 23.9982C8.34515 25.1824 8.40112 26.1869 7.57634 27.9395C6.75155 29.6922 6.02987 31.2888 6.69853 34.096C7.3672 36.9032 9.45567 38.6558 9.99472 38.809C10.5338 38.9622 11.6767 40.1316 11.6767 40.1316C11.6767 40.1316 12.3571 36.9827 13.9183 36.261L13.9213 36.2581Z" fill="#E0415E"/>
<path d="M13.9209 36.2581C13.1344 35.5011 12.4009 34.6851 11.7941 33.769C11.4289 33.1976 11.0636 32.5643 10.987 31.8691C10.9634 29.271 11.367 26.6877 11.6174 24.1043C11.4583 23.524 11.2315 22.2633 11.1579 21.4356C11.1461 21.2264 11.1255 21.0261 11.1844 20.814C11.4613 19.4414 11.4524 17.9361 11.3375 16.5369C11.2993 16.1893 11.2403 15.8211 11.1078 15.5501L11.5202 15.4765C11.2904 16.9287 11.0224 18.4663 9.99727 19.5886C9.21078 20.7964 8.43902 22.1749 8.29174 23.6212C8.27406 23.8127 8.32708 24.0248 8.36243 24.2163C8.4184 24.5079 8.45964 24.8054 8.47142 25.1088C8.50382 25.7156 8.40072 26.3254 8.22104 26.8939C8.0443 27.4653 7.77919 28.0014 7.53765 28.5169C7.04572 29.5538 6.67752 30.6349 6.63628 31.763C6.55085 34.0312 7.41393 36.3288 9.02815 37.9371C9.31977 38.2199 9.64674 38.5233 10.0149 38.6883C10.1681 38.7384 10.3036 38.8208 10.4273 38.9033C10.9163 39.248 11.3287 39.6545 11.7382 40.0698L11.5997 40.111C12.0092 38.6971 12.5394 36.9975 13.9209 36.2581ZM13.9209 36.2581C12.5983 37.0417 12.1181 38.7442 11.7588 40.1464C11.7499 40.1906 11.7058 40.22 11.6616 40.2082C11.2197 39.8282 10.7955 39.3952 10.3066 39.0859C10.1534 38.9858 9.99433 38.9239 9.82937 38.865C9.72627 38.8179 9.62612 38.7501 9.5348 38.6883C7.38447 37.1065 6.20032 34.3935 6.24745 31.7483C6.27396 30.5524 6.66868 29.3918 7.1606 28.3402C7.40509 27.807 7.65253 27.3004 7.81454 26.7613C8.0767 25.9542 8.10321 25.1206 7.92942 24.2958C7.88818 24.1014 7.82927 23.8274 7.84694 23.6036C7.8764 22.9143 8.11205 22.2545 8.35654 21.6418C8.76304 20.6874 9.23729 19.7536 9.90596 18.9524C10.6924 17.9685 10.8692 16.6224 11.0901 15.4146C11.1019 15.2909 11.2138 15.1996 11.3375 15.2173C11.803 15.3616 11.8147 17.1526 11.8354 17.5944C11.8265 18.7256 11.8413 19.8184 11.5732 20.9348C11.5202 21.2588 11.585 21.6035 11.6144 21.9363C11.6969 22.6727 11.853 23.4092 11.9738 24.1426C11.6881 26.3018 11.4112 28.4698 11.2256 30.6378C11.1932 31.1062 11.1314 31.5804 11.1932 32.0429C11.5938 33.6924 12.8104 35.018 13.9268 36.2522L13.9209 36.2581Z" fill="black"/>
<path d="M17.9893 19.7123H16.0923L14.4427 21.4267L12.4308 25.6714L11.6797 30.4109L12.4308 32.8499C12.4308 32.8499 13.1908 35.3125 14.1364 36.0666C14.1364 36.0666 16.0245 35.3537 17.0732 35.2477C18.1218 35.1416 19.8215 34.6615 19.8215 34.6615L22.5698 36.0666C22.5698 36.0666 24.941 37.2419 26.4728 36.9473C28.0045 36.6528 31.4863 36.5497 31.4863 36.5497C31.4863 36.5497 33.4805 36.968 35.0741 36.1726C36.6677 35.3743 38.4822 34.0164 38.4822 34.0164L42.9095 34.9502C42.9095 34.9502 44.0377 37.0298 43.8757 37.5836C43.7137 38.1374 43.6106 38.4319 43.8757 39.0682C44.1408 39.7045 44.2233 40.8503 44.2233 41.7016C44.2233 42.5529 45.4075 42.5087 45.4075 42.5087L51.3518 37.4569L53.9882 31.598L53.3519 26.2487L45.6667 16.5693L39.4248 16.1451L27.3653 12.6633L17.9834 19.7182L17.9893 19.7123Z" fill="#574390"/>
<path d="M17.9888 19.7123C17.9888 19.7123 16.0506 19.7358 16.1036 19.7211L14.4688 21.4502C14.513 21.3913 12.451 25.7774 12.5011 25.6831L11.7853 30.4286V30.3815C12.2713 31.8042 12.6425 33.4273 13.3494 34.7528C13.5851 35.2035 13.8561 35.6512 14.2243 35.9605L14.0888 35.9399C15.0226 35.6012 15.9445 35.2742 16.9343 35.1181C17.4233 35.0651 17.8887 34.9737 18.3659 34.8677C18.8401 34.7587 19.3114 34.6379 19.7768 34.5083C19.8181 34.4965 19.8593 34.5024 19.8947 34.5201L22.6106 35.8928C23.727 36.3994 24.9376 36.8472 26.166 36.7971C26.9112 36.6793 27.6771 36.5703 28.4312 36.5173C29.4592 36.4377 30.4873 36.3729 31.5182 36.3494C32.1192 36.4583 32.7643 36.4849 33.3828 36.4201C34.6613 36.3287 35.7276 35.5923 36.7821 34.9325C37.3153 34.5849 37.8426 34.2226 38.3522 33.8455C38.4022 33.8073 38.467 33.7955 38.526 33.8073L42.9533 34.7351C43.0181 34.7469 43.0741 34.7911 43.1035 34.8471C43.51 35.6777 44.0078 36.4966 44.1168 37.451C44.1168 37.6396 44.0285 37.8458 43.9872 38.0284C43.9018 38.3495 43.9401 38.6293 44.0726 38.9474C44.2199 39.3039 44.2936 39.6809 44.3466 40.0462C44.4232 40.594 44.4526 41.1419 44.4556 41.6928C44.4585 41.8342 44.4939 41.9373 44.5763 42.0256C44.7442 42.1994 45.1007 42.279 45.4011 42.276L45.2568 42.332L51.2041 37.2831L51.1422 37.3627L53.7874 31.5067L53.7697 31.6216L53.1394 26.2723C53.4546 26.7612 45.4512 16.584 45.5219 16.6812L45.6515 16.749L39.4126 16.2983C35.5155 15.12 31.0116 13.9182 27.4179 12.7311L17.98 19.7123H17.9888ZM17.9888 19.7123C18.0743 19.7093 27.2971 12.5043 27.3973 12.572C31.3739 13.6825 35.595 14.8843 39.4421 15.9831L45.6839 16.3807C45.7369 16.3837 45.7841 16.4102 45.8135 16.4485L53.5223 26.1102C53.5488 26.1427 53.5635 26.1809 53.5665 26.2163L54.2116 31.5656C54.2175 31.6068 54.2116 31.6481 54.1939 31.6805L51.5664 37.5423C51.5517 37.5748 51.531 37.6013 51.5045 37.6219L45.5631 42.6796C45.5219 42.7149 45.4718 42.7355 45.4188 42.7355C44.9858 42.7297 44.5734 42.659 44.2405 42.3379C44.0697 42.1641 43.9902 41.9019 43.9931 41.6839C43.9931 41.1567 43.9636 40.6206 43.893 40.1021C43.8517 39.5277 43.5807 39.0829 43.4982 38.5262C43.457 38.1668 43.566 37.8428 43.6602 37.5158C43.6838 37.3509 43.622 37.1741 43.5719 36.9827C43.3598 36.3287 43.0417 35.6777 42.7147 35.0503L42.8649 35.1623L38.4405 34.2226L38.6143 34.1843C37.5627 34.9502 36.4935 35.666 35.3388 36.2698C34.2253 36.909 32.5433 36.965 31.4947 36.75C30.4843 36.7824 29.471 36.8324 28.4665 36.912C27.7007 36.9621 26.9584 37.0652 26.1984 37.1741C24.8817 37.2213 23.6209 36.7441 22.4545 36.2021L19.7503 34.8029L19.8682 34.8147C18.9167 35.068 17.9535 35.3066 16.9755 35.4097C16.5072 35.4716 16.0359 35.5982 15.5704 35.7337C15.1021 35.8722 14.6367 36.0253 14.1801 36.1932C14.1359 36.2109 14.0858 36.1991 14.0534 36.1697C13.2463 35.4244 12.887 34.4052 12.5011 33.4214C12.1918 32.5524 11.8589 31.3241 11.582 30.4404C11.5761 30.4256 11.5761 30.408 11.5791 30.3932L12.3656 25.6596C12.3656 25.6272 14.4128 21.4325 14.4216 21.4031L16.083 19.7005C16.083 19.6828 17.9829 19.7182 17.9888 19.7093V19.7123Z" fill="black"/>
<path d="M22.9439 17.1145C22.9439 17.1145 24.4874 13.4678 24.5522 11.8417C24.617 10.2157 25.9838 7.8062 21.8834 6.17725C21.8834 6.17725 23.3533 7.1552 22.9439 9.30259C22.5344 11.45 20.1043 15.6829 18.8789 16.2043C17.6535 16.7256 15.3971 17.1822 13.9213 20.3046C13.9213 20.3046 14.4074 18.1278 16.9789 16.5607C16.9789 16.5607 16.4929 13.0671 18.3221 12.1039C18.3221 12.1039 15.0525 12.3042 14.1688 14.4339C13.2851 16.5636 13.2851 17.5652 12.8049 18.007C12.3248 18.4489 10.4749 20.5756 10.7164 22.343C10.958 24.1104 10.6222 25.9161 10.1479 27.0001C9.67368 28.0841 8.84301 30.856 10.1803 32.7412C11.5177 34.6294 13.288 36.7178 13.288 36.7178C13.288 36.7178 13.8712 36.1493 14.4162 35.9608C14.4162 35.9608 13.4913 34.7855 13.2497 33.943C13.0082 33.1006 12.2718 31.6955 12.3395 30.1667C12.4073 28.6379 12.5251 26.5995 13.0141 26.0428C13.503 25.486 14.2218 23.0058 14.917 22.0632C15.6121 21.1206 18.7198 20.231 19.9422 19.4533C21.1647 18.6757 22.9439 17.1115 22.9439 17.1115V17.1145Z" fill="#E0415E"/>
<path d="M22.9435 17.1144C23.7183 15.1614 24.4488 13.1613 24.5813 11.0522C25.0202 8.89012 24.5961 7.61465 22.5518 6.59839L21.8389 6.28616L21.9509 6.07407C23.3206 7.08148 23.3648 8.93725 22.7845 10.3924C22.1217 12.1951 21.2115 13.9184 20.0156 15.4265C19.7593 15.7299 19.4912 16.0333 19.1525 16.2513C18.4779 16.6195 17.7121 16.7933 17.0552 17.1763C15.7267 17.8655 14.7311 19.0409 14.1095 20.39C14.0123 20.6197 13.6559 20.496 13.7207 20.2574C14.2008 18.5961 15.4262 17.2705 16.8667 16.375L16.7665 16.5871C16.6222 14.9641 16.6369 12.8402 18.2187 11.9035L18.3365 12.3248C16.6074 12.4927 14.678 13.2232 14.1832 15.0289C13.9652 15.5974 13.7796 16.1747 13.6088 16.7668C13.4526 17.2411 13.3525 17.7978 12.9637 18.1778C11.9769 19.1999 11.0313 20.5019 10.9253 21.9512C11.0136 23.0322 11.0843 24.1309 10.8811 25.2032C10.7279 26.4345 10.0563 27.5332 9.82653 28.7468C9.5084 30.1902 9.62328 31.8014 10.5983 32.9679L11.1462 33.7073C11.8855 34.6852 12.6544 35.6485 13.4379 36.594L13.1581 36.5793C13.5233 36.2494 13.8886 35.9607 14.3599 35.7869L14.2745 36.0756C13.6235 35.2567 13.1581 34.3377 12.8664 33.3332C12.513 32.3847 12.1713 31.3773 12.1919 30.3198C12.295 28.9294 12.2361 27.4242 12.8075 26.1281C13.4733 25.215 13.7649 24.0632 14.2686 23.0469C14.4954 22.5904 14.7075 22.0749 15.111 21.742C16.7577 20.5078 18.9168 20.2397 20.5517 18.9937C21.3794 18.4075 22.1718 17.7654 22.9465 17.1114L22.9435 17.1144ZM22.9435 17.1144C21.7888 18.0982 20.6577 19.1764 19.2909 19.8627C17.9477 20.5431 16.4219 20.9585 15.2259 21.8834C14.8489 22.2104 14.6662 22.6935 14.4542 23.1353C13.9681 24.1722 13.7001 25.3092 13.0255 26.2577C12.5012 27.5243 12.5748 28.9707 12.4894 30.3227C12.4806 31.3125 12.8105 32.2727 13.1757 33.2154C13.3613 33.6808 13.4674 34.1668 13.7295 34.6057C13.9711 35.0358 14.2568 35.4541 14.5602 35.8458C14.6221 35.9254 14.6073 36.0432 14.5278 36.105C14.3245 36.1993 14.1184 36.2906 13.9239 36.4379C13.7472 36.5646 13.5734 36.7089 13.4202 36.8532C13.3436 36.9269 13.2229 36.9239 13.1492 36.8474C12.3451 35.9018 11.5704 34.9386 10.8192 33.9518L10.2654 33.2065C9.21383 31.9487 9.0695 30.2049 9.4053 28.6584C9.62328 27.4389 10.289 26.3696 10.4451 25.1295C10.6454 24.0691 10.5541 23.0057 10.4716 21.9364C10.5718 20.3517 11.5468 18.9878 12.5984 17.8714C12.9342 17.5592 13.0049 17.0702 13.1522 16.6284C13.812 14.5045 14.1213 13.0641 16.4425 12.2717C17.0463 12.0626 17.659 11.933 18.3071 11.8741C18.4308 11.8623 18.5368 11.9536 18.5486 12.0773C18.5575 12.1716 18.5044 12.257 18.4249 12.2953C17.3821 12.8785 17.1818 14.2335 17.1406 15.3323C17.1318 15.7299 17.1465 16.1364 17.1907 16.5223C17.1995 16.6077 17.1612 16.6873 17.0935 16.7315C15.7532 17.5533 14.572 18.814 14.1213 20.3399L13.7325 20.2073C14.3894 18.7964 15.4645 17.5327 16.8696 16.8287C17.3674 16.5606 17.9418 16.3544 18.4691 16.1571C19.0199 15.9862 19.3734 15.6357 19.7416 15.1938C20.9258 13.7357 21.8419 12.042 22.5046 10.2893C23.0614 8.94903 23.0614 7.2052 21.8124 6.26553C21.6857 6.19484 21.7888 5.98864 21.9243 6.05345L22.6519 6.38631C24.7374 7.47031 25.2088 8.82826 24.708 11.064C24.5371 13.1819 23.7654 15.1673 22.9406 17.1026L22.9435 17.1144Z" fill="black"/>
<path d="M32.3142 5.87378C32.3142 5.87378 31.0594 7.01669 29.778 7.19049C28.4966 7.36428 24.2755 11.2761 23.7895 13.3528C23.3034 15.4295 21.0559 17.2646 18.7023 18.2338C16.3487 19.2029 15.1027 20.2427 14.7905 23.5978C14.4782 26.9559 13.8567 27.6127 13.7507 28.4788C13.6476 29.3448 13.3707 32.0106 14.7551 33.0828C16.1396 34.155 16.4813 35.348 16.4813 35.348C16.4813 35.348 17.7685 35.4011 18.3194 35.4688C18.8702 35.5366 20.1516 35.9548 20.1516 35.9548L18.7671 31.663C18.7671 31.663 17.5211 25.2945 20.0131 24.1162C22.5052 22.938 27.0385 17.8862 27.0385 17.8862C27.0385 17.8862 27.7308 13.1083 28.6999 11.2408C29.669 9.37322 31.9725 8.09186 32.3083 5.87673L32.3142 5.87378Z" fill="#E0415E"/>
<path d="M32.3139 5.87355C31.7071 6.40672 31.0178 6.86918 30.2402 7.12251C29.4124 7.21383 28.7556 7.7087 28.1193 8.20062C27.4889 8.70138 26.8939 9.25222 26.3342 9.83252C25.5095 10.7044 24.7141 11.6323 24.1692 12.7045C23.9777 13.0698 23.9129 13.4439 23.7833 13.8386C23.5035 14.6251 23.0174 15.3173 22.4519 15.9182C21.5976 16.8137 20.5666 17.5236 19.465 18.0715C18.3898 18.587 17.2263 18.9788 16.3897 19.8566C14.6635 21.6947 15.1967 24.4194 14.5045 26.6758C14.3071 27.4593 13.9448 28.1751 13.9271 28.9881C13.8476 30.1428 13.8417 31.3888 14.4515 32.3874C14.5928 32.629 14.8108 32.8175 15.0259 32.9942C15.4353 33.3241 15.8006 33.7071 16.1128 34.1371C16.3573 34.4877 16.5694 34.8411 16.7167 35.2771L16.4987 35.1063C17.1349 35.1357 17.7476 35.1622 18.3868 35.2359C19.0349 35.3478 19.6152 35.5363 20.2338 35.7307L19.9451 36.0194L18.5695 31.7246C18.3073 30.2548 18.1865 28.776 18.2985 27.2855C18.4104 26.0189 18.7492 24.4489 20.0541 23.8686C21.4798 23.1086 22.6905 21.9775 23.8805 20.8876C24.938 19.8919 25.9631 18.8551 26.9469 17.7858L26.9116 17.8594C27.2975 15.6531 27.6568 13.4056 28.57 11.3466C29.5627 9.32586 31.9074 8.18295 32.3228 5.87061L32.3139 5.87355ZM32.3139 5.87355C31.984 8.18 29.6393 9.42601 28.7114 11.4232C28.4846 11.9239 28.3137 12.4542 28.1664 12.9903C27.701 14.6222 27.4624 16.3247 27.1502 17.9802C26.1722 19.0701 25.1589 20.1217 24.1073 21.1409C22.8996 22.2691 21.6948 23.4415 20.2249 24.2338C19.7625 24.4489 19.409 24.8112 19.1881 25.2854C18.3574 27.2178 18.6844 29.6686 18.9789 31.598L20.3722 35.8869C20.4105 36.0076 20.3457 36.1372 20.2249 36.1755C20.1778 36.1903 20.1277 36.1903 20.0835 36.1755C19.5121 36.0017 18.8964 35.8044 18.3162 35.7072C17.7948 35.663 17.0083 35.6011 16.4722 35.5864C16.372 35.5805 16.2866 35.5128 16.2571 35.4214C15.9537 34.5112 15.2291 33.7513 14.4897 33.1503C13.9949 32.7173 13.7239 32.0634 13.5854 31.4448C13.3704 30.3991 13.4116 29.3711 13.553 28.3371C13.6738 27.7244 13.9389 27.1677 14.0832 26.5727C14.2924 25.8039 14.419 25.0115 14.5163 24.2132C14.6694 22.1365 15.1113 19.9302 17.0967 18.8168C17.7918 18.3808 18.5813 18.1157 19.3088 17.7681C20.7345 17.0759 22.0778 16.1127 22.988 14.8018C23.5064 14.1067 23.5918 13.3496 23.9453 12.5985C24.5168 11.5056 25.3504 10.5807 26.2076 9.71174C27.0795 8.86045 27.9985 8.03566 29.059 7.42886C29.4036 7.20499 29.8307 7.14608 30.2196 7.05771C30.9913 6.83089 31.6953 6.39199 32.3139 5.8765V5.87355Z" fill="black"/>
<path d="M37.0798 2.1355C37.0798 2.1355 32.891 3.51996 32.5464 4.24753C32.2017 4.97511 31.0588 7.0518 29.2914 8.15937C27.524 9.26694 26.1072 11.8297 25.5534 14.8755C24.9996 17.9213 23.8921 19.0642 21.78 20.2395C19.668 21.4148 18.5958 21.7624 17.9713 25.1205C17.3468 28.4785 16.6457 30.4168 17.1347 31.5597C17.6237 32.7026 18.7136 35.5481 18.7136 35.5481C18.7136 35.5481 22.867 36.4524 24.2632 36.7175C24.2632 36.7175 20.6724 33.5333 21.9509 28.1339C23.2322 22.7345 25.0674 21.4885 26.6227 20.6224C28.178 19.7564 30.9498 17.4588 31.6421 15.7768C32.3343 14.0949 34.791 10.1006 34.791 10.1006C34.791 10.1006 34.305 8.19766 34.2019 7.15784C34.0988 6.11803 35.1032 3.4198 37.0739 2.13844L37.0798 2.1355Z" fill="#E0415E"/>
<path d="M37.0802 2.13576C36.2495 2.42738 35.4247 2.74256 34.6147 3.09015C33.9372 3.40828 33.1713 3.67045 32.6381 4.2095C32.1992 5.0932 31.6808 5.95628 31.0416 6.7192C30.6145 7.23175 30.1284 7.706 29.5835 8.09188C27.8986 9.13759 26.8764 10.9462 26.249 12.7814C25.8779 13.8212 25.7365 14.9081 25.4772 15.9833C25.109 17.5268 24.2047 18.9466 22.8556 19.8097C19.8952 21.6802 18.7936 21.5418 18.1337 25.4241C17.8951 26.7261 17.577 28.0104 17.3413 29.3065C17.1911 30.1372 17.0792 31.0003 17.4651 31.772C17.7832 32.585 18.6109 34.6352 18.9349 35.4659L18.767 35.3215L24.3108 36.4939L24.1134 36.8916C23.6009 36.3997 23.1973 35.8577 22.835 35.2744C20.8761 32.1284 21.2974 28.7822 22.5257 25.4683C23.2032 23.5801 24.3255 21.6831 26.1518 20.6846C27.8839 19.7302 29.4627 18.4635 30.7323 16.9524C30.9326 16.705 31.1359 16.431 31.2949 16.1541C31.7456 15.2646 32.158 14.3485 32.6676 13.4913C33.3215 12.3248 34.0138 11.1848 34.7207 10.0507L34.7089 10.1244C34.4821 9.01976 34.1345 7.92398 34.1552 6.78401C34.4379 4.93413 35.5308 3.17852 37.0861 2.1387L37.0802 2.13576ZM37.0802 2.13576C35.4689 3.23154 33.8576 5.90325 34.3879 7.88863C34.5057 8.64566 34.7649 9.39975 34.8768 10.145C34.1934 11.2879 33.5277 12.4456 32.8856 13.612C32.3819 14.484 31.9872 15.403 31.5424 16.2955C31.3774 16.5872 31.1712 16.8788 30.965 17.138C29.6807 18.7021 28.09 20.0071 26.3403 20.9998C24.6053 21.9865 23.5773 23.7598 22.9145 25.6038C22.4933 26.8439 22.1015 28.1224 21.9601 29.4273C21.6626 32.0077 22.5728 34.7324 24.4315 36.5499C24.6024 36.6942 24.4404 36.9976 24.2253 36.9417L18.6698 35.7722C18.5903 35.7546 18.5284 35.6986 18.5019 35.6279C18.1661 34.7913 17.3708 32.75 17.0527 31.9458C16.6285 31.0916 16.7404 30.1195 16.9083 29.227C17.1528 27.925 17.4739 26.6407 17.7184 25.3417C18.4283 21.3532 19.5417 21.368 22.6435 19.4916C23.9396 18.6845 24.7939 17.3619 25.165 15.8949C25.7306 13.1172 26.5495 10.0861 28.9178 8.28629C30.4436 7.39081 31.5659 5.97984 32.3907 4.43632C32.4761 4.23896 32.6175 4.02392 32.8119 3.9061C34.1257 3.08131 35.6339 2.63652 37.089 2.13281L37.0802 2.13576Z" fill="black"/>
<path d="M45.805 11.4468C45.805 11.4468 45.1275 8.32442 45.2158 7.37298C45.3042 6.42153 45.5781 3.48176 42.7709 1.35205C42.7709 1.35205 43.5397 4.24763 42.7709 4.70126C42.0021 5.1549 35.3921 7.19034 33.4479 10.3127C31.5008 13.4351 30.8233 18.3043 29.9632 19.4237C29.1031 20.543 27.6538 21.1763 26.2959 22.714C24.9379 24.2516 21.5416 31.3006 25.7509 36.9857C25.7509 36.9857 29.7835 37.0682 30.3697 36.9857C30.9559 36.9032 31.1238 31.875 31.1238 31.875L35.6218 24.2781L42.7974 19.7801L45.7991 11.4409L45.805 11.4468Z" fill="#E0415E"/>
<path d="M45.805 11.4469C45.5311 10.1066 45.1746 8.76634 45.1688 7.38777C45.4486 5.11667 44.6002 2.78665 42.7062 1.44049L42.88 1.32266C43.0008 1.77629 43.095 2.23287 43.1628 2.69828C43.2246 3.1637 43.2747 3.635 43.2099 4.12103C43.1628 4.38025 43.0921 4.65714 42.8417 4.81621C42.6178 4.93404 42.4057 5.01946 42.1907 5.11077L40.9034 5.6351C38.4144 6.71027 35.7515 7.84729 33.9576 9.9446C32.3463 12.2098 31.7513 14.964 30.9383 17.5945C30.7203 18.2602 30.5318 18.9996 30.1135 19.5857C29.0531 20.8612 27.539 21.5829 26.4933 22.8407C24.6199 25.2856 23.7332 28.788 24.0072 31.8397C24.1809 33.6483 24.8526 35.398 25.9307 36.8591L25.7598 36.7707C26.5934 36.7884 28.6466 36.8149 29.4507 36.8119C29.7453 36.8119 30.0575 36.809 30.3462 36.7825C30.2991 36.7854 30.3109 36.8031 30.3256 36.7737C30.5171 36.4231 30.5612 35.9665 30.6349 35.5335C30.8028 34.3229 30.8764 33.0916 30.9294 31.8691C30.9294 31.7572 35.4569 24.3017 35.4982 24.2045C35.5099 24.1839 35.5276 24.1662 35.5482 24.1545C35.4982 24.1721 42.9418 19.574 42.718 19.7536L45.808 11.4469H45.805ZM45.805 11.4469C45.7667 11.4911 42.9212 19.845 42.8535 19.8626C42.8535 19.8626 35.7073 24.4078 35.7073 24.4107L35.7574 24.3606C35.8104 24.2487 31.1209 32.3552 31.3301 31.8868C31.28 33.1269 31.2122 34.3612 31.0473 35.5924C30.9619 36.0579 30.9324 36.5704 30.6643 37.0211C30.6231 37.0771 30.5524 37.1654 30.4051 37.1978C30.0782 37.2332 29.7747 37.2273 29.4537 37.2361C28.6495 37.2538 26.5758 37.2155 25.751 37.2096C25.6803 37.2096 25.6184 37.1743 25.5801 37.1212C24.449 35.6042 23.7391 33.772 23.5506 31.8868C23.3532 30.0016 23.6213 28.0928 24.2075 26.3077C24.6729 24.9675 25.2325 23.6419 26.1545 22.5402C27.2032 21.2854 28.7379 20.5372 29.7718 19.3206C30.1547 18.7698 30.3197 18.11 30.5318 17.4737C31.3566 14.8462 31.984 11.9771 33.6571 9.706C35.5306 7.56156 38.2288 6.44221 40.7945 5.36705L42.0876 4.85745C42.2997 4.77202 42.5177 4.6866 42.7062 4.58939C42.8446 4.50986 42.9183 4.29483 42.9536 4.08274C43.0626 3.1961 42.8623 2.25349 42.6649 1.38452C42.6473 1.3256 42.6856 1.2608 42.7445 1.24902C42.7769 1.24018 42.8122 1.24902 42.8387 1.26964C44.3263 2.38604 45.263 4.17111 45.316 6.02687C45.3396 6.4864 45.3102 6.94592 45.263 7.39955C45.2483 8.7575 45.5664 10.1154 45.805 11.4498V11.4469Z" fill="black"/>
<path d="M45.8052 8.70459C45.8052 8.70459 45.2927 11.3704 44.1704 13.2586C43.0481 15.1467 42.5738 16.9171 41.4515 17.8626C40.3292 18.8082 40.9184 19.2206 39.148 20.5226C37.3747 21.8216 33.8488 21.9394 32.8355 24.2459C31.8222 26.5523 29.5953 30.8324 29.6718 34.105C29.7484 37.3776 29.6718 37.0241 29.6718 37.0241H32.538C32.538 37.0241 31.9812 35.8164 32.6882 33.7692C33.3952 31.722 35.3805 27.4449 37.0861 26.5877C38.7916 25.7305 41.1717 24.4521 42.9214 21.4475C44.6711 18.44 46.5681 15.5385 46.792 13.7534C47.0159 11.9684 45.8347 9.57356 45.8111 8.70459H45.8052Z" fill="#E0415E"/>
<path d="M45.8052 8.70436C45.5254 10.1212 45.1219 11.5234 44.4768 12.8253C43.7462 14.0861 43.2042 15.4087 42.5179 16.6959C42.1939 17.3558 41.6312 17.8477 41.1275 18.3661C40.7122 18.9199 40.4353 19.6828 39.858 20.1335C38.2703 21.68 35.8401 21.7949 34.0845 23.0497C33.5101 23.4621 33.1183 24.0188 32.862 24.6728C31.4275 27.9189 29.6896 31.2357 29.9134 34.8765C29.9223 35.4215 29.9458 36.3818 29.9223 36.9267C29.9223 36.9532 29.9223 36.9738 29.9164 37.0062C29.9164 37.0239 29.9164 37.0269 29.9075 37.0652L29.9016 37.0887C29.9046 37.074 29.9016 37.1329 29.8309 37.2036C29.884 37.2772 29.504 37.2861 29.4627 37.1417C29.3714 36.9856 29.4863 36.7853 29.666 36.7853H32.5321L32.32 37.1152C31.8045 35.6306 32.2552 34.146 32.7795 32.8588C33.5955 30.9058 34.5057 28.9558 35.8813 27.3239C36.335 26.7583 37.0036 26.3636 37.634 26.072C40.3381 24.7022 41.9671 22.9437 43.4104 20.3103C44.1321 19.1114 44.8656 17.9184 45.5313 16.693C46.1646 15.4794 46.8775 14.1921 46.7213 12.7812C46.6624 12.0889 46.4945 11.4085 46.306 10.7369C46.1528 10.1713 45.8435 9.2876 45.8023 8.70142L45.8052 8.70436ZM45.8052 8.70436C45.8583 9.29644 46.2088 10.1418 46.3738 10.7192C46.5829 11.3879 46.7655 12.0683 46.8451 12.7723C47.0395 14.2039 46.3443 15.553 45.7316 16.799C45.0895 18.0509 44.3648 19.2498 43.6638 20.4605C42.9745 21.677 42.2528 22.9231 41.2483 23.9275C40.2615 24.9526 39.0744 25.7715 37.8284 26.4313C37.1892 26.7406 36.6384 27.0558 36.1995 27.6008C34.8739 29.1885 33.9843 31.1208 33.2008 33.0267C31.127 37.9518 35.248 37.1948 29.6719 37.2566L29.9016 36.9738C29.9016 36.965 29.8928 36.9385 29.881 36.9179C29.8457 36.7765 29.4716 36.7912 29.5246 36.856C29.4568 36.9238 29.4568 36.9768 29.4598 36.9562V36.9621C29.4539 36.9768 29.4598 36.9591 29.4598 36.9532V36.8973L29.4686 36.7706C29.5158 35.4303 29.3537 34.0311 29.5452 32.6879C29.99 29.7835 31.3008 27.1412 32.4997 24.5049C33.0535 22.982 34.4203 22.2721 35.8489 21.7595C37.5279 21.1557 39.3454 20.6755 40.3469 19.129C40.5266 18.8374 40.6798 18.4839 40.9331 18.1982C41.1629 17.9125 41.4722 17.7092 41.7108 17.4382C42.4207 16.6311 42.8331 15.6178 43.325 14.6664C43.6402 14.0183 44.0231 13.3938 44.3737 12.7694C45.0394 11.4939 45.4871 10.1035 45.8111 8.70436H45.8052Z" fill="black"/>
<path d="M48.9419 7.20508C48.9419 7.20508 46.2997 9.36424 46.1141 12.3011C45.9285 15.2408 44.1434 19.5503 44.1434 20.9112C44.1434 22.2721 44.0315 24.0955 42.5057 25.7686C40.9798 27.4417 38.1431 29.0412 37.2359 30.5671C36.3286 32.0929 34.6378 34.6056 34.7586 36.3082C34.7586 36.3082 35.1032 36.7294 36.255 36.3082C37.4067 35.8869 39.5276 35.3302 40.3465 35.5541C41.1654 35.778 45.3305 30.6437 45.3305 30.6437L47.7106 29.1178C47.7106 29.1178 49.2718 25.8805 49.2718 24.7641C49.2718 23.6477 51.0216 18.2542 51.0216 18.2542C51.0216 18.2542 50.3882 15.2408 49.6813 14.1627C48.9743 13.0846 47.1893 11.5764 48.936 7.20508H48.9419Z" fill="#E0415E"/>
<path d="M48.9421 7.20511C47.4074 8.60135 46.2262 10.516 46.1673 12.6281C45.9729 14.7283 45.3042 16.752 44.7475 18.7698C44.5737 19.4266 44.3616 20.113 44.3086 20.7846C44.2968 21.465 44.2909 22.1985 44.1466 22.8966C43.8933 24.3194 43.0744 25.6037 42.0051 26.5492C40.4999 27.9867 38.5675 28.9941 37.401 30.7115C36.6911 31.9045 35.9311 33.0798 35.4068 34.3611C35.1564 34.9738 34.9561 35.6366 34.9856 36.2935L34.9355 36.1639C34.9178 36.1462 34.9473 36.1727 34.9591 36.1786C35.3567 36.3671 35.8045 36.2139 36.2139 36.0755C36.7265 35.8899 37.2449 35.7338 37.7722 35.6013C38.5793 35.4157 39.3923 35.2065 40.2406 35.2978C40.4557 35.3391 40.3879 35.3361 40.5087 35.2978C41.0654 35.0151 41.5161 34.5261 41.9815 34.0842C43.1274 32.9443 44.1672 31.6865 45.2188 30.4611L47.6048 28.9411L47.5311 29.0265C48.1144 27.7599 48.7389 26.4579 49.0511 25.1C49.1778 23.6684 49.6373 22.2987 50.035 20.9319C50.3118 20.0217 50.5976 19.1144 50.8951 18.213V18.2837C50.6889 17.3323 50.4503 16.3808 50.1439 15.4588C49.9849 15.0023 49.8199 14.5398 49.5578 14.1451C49.2868 13.7474 48.9745 13.3556 48.7418 12.9167C47.7226 11.1435 48.1969 8.98429 48.9451 7.20511H48.9421ZM48.9421 7.20511C48.2676 8.98429 47.8345 11.1169 48.8773 12.8372C49.1159 13.2584 49.4281 13.6296 49.7168 14.0361C50.0084 14.4514 50.1852 14.9227 50.359 15.3823C50.683 16.3337 50.9835 17.3087 51.1572 18.2926C50.8745 19.1998 50.6005 20.11 50.3354 21.0202C49.9584 22.387 49.5254 23.7538 49.4193 25.1648C49.3309 25.6567 49.1778 26.1103 49.0158 26.564C48.6534 27.483 48.3176 28.4404 47.8257 29.2887C47.8257 29.2887 45.4486 30.8175 45.4456 30.8204C44.3086 32.2079 42.6914 34.2109 41.0713 35.4952C40.8533 35.6395 40.5853 35.831 40.2937 35.775C39.5013 35.6395 38.6677 35.8781 37.8841 36.0549C37.3745 36.1874 36.8649 36.3347 36.37 36.5115C35.9694 36.6529 35.5158 36.7766 35.071 36.697C34.8737 36.6587 34.5585 36.5527 34.5261 36.32C34.4996 34.8207 35.2595 33.5393 35.9459 32.2874C36.6617 31.0679 37.3568 29.7571 38.4821 28.894C40.0492 27.5154 41.9197 26.4697 43.0626 24.7082C43.6016 23.8363 43.8785 22.8259 43.9463 21.8067C43.9787 21.1204 43.9816 20.3693 44.1908 19.7035C44.6385 18.0127 45.21 16.3543 45.6224 14.6576C45.9022 13.6414 45.9729 12.5957 46.1437 11.5617C46.5208 9.83558 47.6254 8.33035 48.9392 7.19922L48.9421 7.20511Z" fill="black"/>
<path d="M50.7449 15.8093C50.7449 15.8093 49.6844 17.0583 49.7993 18.0451C49.9142 19.0319 49.3457 21.303 48.9274 22.2868C48.5091 23.2707 47.7904 24.7494 47.6019 26.3018C47.4133 27.8541 46.9568 28.726 45.4427 29.5597C43.9286 30.3933 39.8695 33.8633 39.5308 35.5187C39.5308 35.5187 41.9963 35.5894 42.5265 36.4967L48.5504 31.8337L51.0277 28.9558L52.3002 22.8701L52.0734 19.4236C52.0734 19.4236 50.8598 16.9846 50.7478 15.8093H50.7449Z" fill="#E0415E"/>
<path d="M50.7449 15.8093C50.3089 16.3896 49.9024 17.0524 49.8406 17.7888C49.8317 18.0215 49.8789 18.2778 49.8641 18.5282C49.817 19.5238 49.599 20.4988 49.331 21.4562C48.9127 22.8701 48.1468 24.1721 47.8729 25.6331C47.6902 26.6229 47.6696 27.6774 47.0245 28.5169C46.4265 29.3564 45.428 29.7305 44.6385 30.3344C43.0862 31.5038 41.5898 32.8146 40.4056 34.3581C40.1258 34.7411 39.8489 35.1564 39.7576 35.5688L39.5396 35.2949C40.385 35.342 41.2216 35.4363 42.0051 35.7868C42.2673 35.9135 42.5442 36.0784 42.7297 36.3818L42.3851 36.3141C42.3704 36.3111 48.5386 31.5892 48.3942 31.7012C49.2249 30.7438 50.0497 29.7835 50.8892 28.835L50.848 28.9205C50.8215 28.947 52.2177 22.7199 52.1794 22.8819L52.0056 19.4325C51.5314 18.4104 50.9128 17.0495 50.7537 15.8123L50.7449 15.8093ZM50.7449 15.8093C50.9717 17.0848 51.6021 18.2542 52.1441 19.4178L52.4239 22.8612C52.4386 22.8819 51.2074 28.9676 51.2103 28.9912C51.2044 29.0206 51.1897 29.0501 51.172 29.0707C50.3472 30.0487 49.5165 31.0266 48.677 31.9957C48.677 31.9957 42.6679 36.6764 42.6679 36.6793C42.5589 36.7677 42.391 36.7353 42.3232 36.6116C42.226 36.4466 42.0228 36.3082 41.7989 36.2051C41.0979 35.8899 40.2849 35.7897 39.5219 35.7456C39.3805 35.7456 39.2686 35.6101 39.3039 35.4716C39.6044 34.4259 40.3379 33.713 41.0213 32.9413C42.2408 31.6894 43.5604 30.5376 45.0185 29.5744L45.6577 29.1974C46.4972 28.7202 47.1041 27.972 47.3014 27.0176C47.4811 26.0455 47.6225 25.0499 48.0054 24.1279C48.5533 22.7523 49.2308 21.4355 49.5107 19.9716C49.6874 19.244 49.7758 18.5282 49.7434 17.78C49.8258 17.0288 50.2736 16.3749 50.739 15.8064L50.7449 15.8093Z" fill="black"/>
<path d="M54.7216 15.1672C54.7216 15.1672 51.3075 15.612 51.4254 19.789C51.5432 23.9659 50.9334 24.3724 50.1381 25.3209C49.3428 26.2694 49.6462 28.6937 48.8509 29.6775C48.0555 30.6614 41.5957 35.8723 41.5957 35.8723L43.8786 39.0712C43.8786 39.0712 46.1232 36.8001 47.4134 36.1963C48.7006 35.5895 52.0351 32.9001 53.0573 31.1592C53.0573 31.1592 52.748 34.9856 51.0277 36.1963C49.3074 37.407 44.8448 40.2112 44.2173 41.1568C44.2173 41.1568 44.0936 45.3249 44.6562 45.2483C45.2189 45.1717 47.8317 43.0508 48.6653 42.6738C49.4989 42.2938 53.3253 40.7002 53.5521 36.7265C53.7789 32.7528 55.0662 32.903 55.5228 31.2741C55.9793 29.6451 55.6376 26.9558 54.8423 25.0234C54.047 23.0911 52.4563 20.06 53.0631 17.4855C53.67 14.911 54.7304 15.1761 54.7304 15.1761L54.7216 15.1672Z" fill="#E0415E"/>
<path d="M54.7213 15.1673C53.0776 15.4648 51.808 16.8581 51.5723 18.49C51.3573 20.1189 51.6872 21.7714 51.319 23.4004C51.1924 24.1633 50.7387 24.8261 50.2262 25.3916C49.7195 26.1074 49.7136 27.0294 49.5664 27.8778C49.4809 28.4198 49.3985 28.9765 49.1304 29.4979C48.4971 30.4199 47.5574 31.0532 46.7503 31.8102C45.0919 33.2389 43.407 34.6322 41.7162 36.0196L41.7515 35.7574L44.0432 38.9476L43.731 38.924C44.8474 37.8518 45.9402 36.7472 47.3218 35.999C48.6326 35.2949 49.8079 34.2905 50.9066 33.286C51.6224 32.6056 52.3441 31.878 52.8596 31.0385C52.9215 30.9295 53.0628 30.8912 53.1718 30.956C53.2484 31.0031 53.2897 31.0885 53.2808 31.171C53.2219 31.7719 53.1277 32.3493 52.9922 32.9325C52.7005 34.099 52.3294 35.2979 51.4251 36.1639C50.0259 37.242 48.4971 38.1287 47.0655 39.1508C46.1494 39.8195 45.1508 40.4204 44.3997 41.2746L44.438 41.1568C44.4173 41.9904 44.4173 42.8299 44.4645 43.6577C44.5057 44.1231 44.5087 44.6533 44.6972 45.0451C44.6972 45.051 44.6942 45.0392 44.6883 45.0362C44.6825 45.0303 44.6766 45.0362 44.6618 45.0274C44.6501 45.0215 44.6324 45.0245 44.6235 45.0274L44.6471 45.0186C44.8592 44.9508 45.0654 44.8094 45.2716 44.6857C46.335 44.0111 47.3129 43.2011 48.4146 42.5589C51.2807 41.3011 53.3221 39.4807 53.4134 36.1757C53.5224 34.915 53.8258 33.5806 54.6329 32.5614C55.4783 31.5952 55.6285 30.3315 55.5755 29.0943C55.5048 27.43 55.1101 25.7864 54.4061 24.2664C53.4576 21.9982 52.3353 19.4208 53.166 16.9435C53.4163 16.2248 53.8169 15.1408 54.7183 15.1643L54.7213 15.1673ZM54.7213 15.1673C53.8287 15.1555 53.4546 16.2572 53.2249 16.9641C52.459 19.4444 53.599 21.9393 54.5887 24.1928C55.3281 25.7098 55.7581 27.3917 55.8436 29.0884C55.9201 30.3639 55.7463 31.7484 54.8833 32.747C54.1174 33.7455 53.8611 34.9709 53.761 36.214C53.6991 39.6457 51.5841 41.6252 48.612 42.9301C47.5397 43.5664 46.5647 44.3735 45.5013 45.0539C45.248 45.2071 44.9918 45.3897 44.6825 45.4604C44.5823 45.4722 44.4615 45.431 44.3967 45.3603C44.2642 45.213 44.2406 45.0981 44.2023 44.9832C44.0815 44.5355 44.055 44.1142 44.0256 43.6871C43.9755 42.8358 43.9726 41.9934 43.9902 41.145C43.9696 41.0596 44.1405 40.8976 44.1846 40.8328C44.9623 40.0345 45.9049 39.4189 46.8033 38.7738C47.9934 37.9431 49.2305 37.133 50.4294 36.3141C51.1776 35.8694 51.6813 35.2625 52.0171 34.4495C52.4649 33.4127 52.7064 32.2639 52.8272 31.1327L53.2484 31.2653C52.6946 32.1608 51.9612 32.8913 51.2071 33.6041C50.0583 34.644 48.883 35.6455 47.5014 36.3789C46.1965 37.0859 45.0919 38.1846 44.0167 39.2097C43.9284 39.2981 43.7781 39.2834 43.7074 39.1832L41.4334 35.9783C41.3745 35.8959 41.3892 35.781 41.4687 35.7162C43.5955 34.0047 45.7252 32.2963 47.7783 30.4994C48.1524 30.14 48.6179 29.7984 48.88 29.3594C49.1216 28.9088 49.2129 28.3638 49.3042 27.8336C49.475 26.9057 49.4898 25.8188 50.182 25.0824C52.3412 22.8849 50.5001 19.3884 52.0525 16.9288C52.6416 15.995 53.6402 15.3411 54.7183 15.1614L54.7213 15.1673Z" fill="black"/>
<path d="M53.679 37.7927C53.679 37.7927 53.9971 39.2273 52.8512 40.217C51.7024 41.2067 51.0014 41.8754 49.4402 43.2157C47.879 44.556 46.3237 45.9669 44.7536 46.1172C44.7536 46.1172 43.9819 45.0656 44.6535 44.4912C45.3251 43.9167 47.175 43.4926 48.0027 42.5087C48.8304 41.5249 49.6935 41.0477 50.7775 40.4733C51.8615 39.8989 53.3608 38.6558 53.679 37.7957V37.7927Z" fill="#E0415E"/>
<path d="M53.679 37.7927C53.9471 38.9298 53.4169 39.949 52.5302 40.6471C51.7467 41.3717 50.9602 42.0963 50.1678 42.8121C48.9601 43.8844 47.7995 45.0302 46.3708 45.8226C45.8495 46.1083 45.2544 46.3116 44.6359 46.3646C44.2441 45.8373 43.8994 45.0302 44.3737 44.4411C45.4017 43.5073 46.9718 43.4072 47.8879 42.3291C48.7892 41.2362 50.1354 40.6824 51.3225 40.0049C52.215 39.4187 53.1694 38.7589 53.679 37.7898V37.7927ZM53.679 37.7927C53.2548 38.8237 52.3181 39.5454 51.4521 40.2052C50.5419 40.8179 49.5286 41.248 48.7392 42.0109C48.3268 42.385 48.0175 42.8711 47.5521 43.1862C46.6949 43.8402 45.5343 44.0729 44.7331 44.7415C44.4768 45.0273 44.6742 45.5899 44.9422 45.9787L44.7301 45.8845C45.2191 45.8314 45.7022 45.6606 46.1588 45.419C47.4961 44.6974 48.7568 43.5103 49.9321 42.5411C50.7451 41.8489 51.564 41.1626 52.3829 40.4792C53.2902 39.8576 53.8351 38.9209 53.679 37.7957V37.7927Z" fill="black"/>
</g>
<defs>
<clipPath id="clip0_823_45459">
<rect width="58" height="71.821" fill="white" transform="translate(0 0.383057)"/>
</clipPath>
</defs>
</svg>
