<svg width="75" height="71" viewBox="0 0 75 71" fill="none" xmlns="http://www.w3.org/2000/svg">
<mask id="path-1-outside-1_823_45054" maskUnits="userSpaceOnUse" x="0" y="0" width="75" height="71" fill="black">
<rect fill="white" width="75" height="71"/>
<path fill-rule="evenodd" clip-rule="evenodd" d="M40.1125 3.23804C41.9347 5.56749 40.1125 10.4475 40.1125 10.4475V10.4499C39.1735 8.19291 36.899 6.9464 35.062 5.93974C34.4063 5.58042 33.8064 5.25166 33.3429 4.91842C31.5808 3.65153 32.1313 2 32.1313 2C25.5429 6.64714 29.6092 11.2467 30.2366 11.8922C28.7562 10.478 23.8285 8.88398 21.6116 8.82967C19.3542 8.77438 18.0874 5.85596 18.0874 5.85596C15.6642 9.10372 18.7484 14.9983 18.7484 14.9983C13.0198 13.3996 10.4307 17.2003 10.4307 17.2003C14.5607 16.1546 17.2604 17.4767 17.2604 17.4767C13.9495 16.8346 11.868 18.0332 10.1491 19.023L10.1491 19.023C9.80871 19.2191 9.48252 19.4069 9.16383 19.5706C7.23585 20.561 3.8751 18.8542 3.8751 18.8542C4.53619 24.0877 10.5389 28.9749 10.5389 28.9749C6.13242 29.4581 3.37748 34.1122 3.37748 34.1122C6.18531 32.6265 9.38018 33.7276 9.38018 33.7276C8.06748 36.2158 3.63551 36.8233 2.35139 36.9487L2.34649 36.944C2.13014 36.9656 2.00273 36.9728 2.00273 36.9728L2.00539 36.9774L2 36.9777C5.32423 42.6988 11.4497 43.3537 11.5824 43.3673C10.9509 43.9676 10.4693 44.6179 10.1034 45.2759C8.58612 47.9998 9.05084 50.8582 9.05084 50.8582L9.05275 50.8482L9.05356 50.8533C9.0751 50.7353 9.13319 50.61 9.22051 50.4799C10.0341 49.2748 13.3467 47.6634 13.3467 47.6634C13.3467 47.6634 12.7385 50.1947 13.6761 51.1323C14.6136 52.0698 14.6136 54.6253 14.6136 54.6253C15.3495 54.5201 15.812 53.9541 16.2488 53.4195C16.3054 53.3502 16.3615 53.2815 16.4178 53.2144C16.7186 54.3337 17.2945 55.2426 18.1381 55.9255C18.8384 56.4936 19.6379 56.8394 20.3987 57.0473C22.2746 61.3304 26.5117 64.0604 27.0952 64.4214C27.1166 64.4365 27.139 64.4502 27.1623 64.4623C27.1623 64.4623 27.1391 64.4485 27.0952 64.4214C27.0828 64.4127 27.0708 64.4035 27.059 64.3938L27.0955 64.4165C27.1169 64.4316 27.1393 64.4453 27.1627 64.4574C27.1627 64.4574 27.1394 64.4436 27.0955 64.4165C26.6169 64.0789 26.6174 63.0275 26.6529 62.4815C26.6661 62.2808 26.6839 62.1497 26.6839 62.1497C27.9027 64.8493 31.0279 66.2268 31.0279 66.2268L31.0253 66.2206L31.0282 66.2219C30.7549 65.5721 30.4388 64.1768 30.4763 63.6629C30.5002 63.3545 30.6546 63.3719 31.0279 64.0777C32.0183 65.9503 34.5521 67.6019 34.5521 67.6019L34.5417 67.5899L34.5524 67.597C34.0656 67.0404 33.9959 66.6158 34.0108 66.3782C34.0201 66.2423 34.0569 66.1691 34.0569 66.1691C35.8743 68.0971 38.9586 69.1981 38.9586 69.1981C41.4701 68.2712 43.9415 65.502 43.9847 65.4534C43.8318 66.3887 43.2452 67.2364 43.2452 67.2364L43.249 67.2353L43.2449 67.2413L44.531 66.859C45.8171 66.4768 49.4327 62.8612 49.4327 62.8612C49.4699 63.0376 49.4725 63.2706 49.4564 63.5177C49.4115 64.1957 49.2263 64.9767 49.2263 64.9767L49.2273 64.9759L49.2259 64.9815C51.8679 63.0343 55.1349 59.1063 55.1349 59.1063C55.1349 59.1472 55.1334 59.1902 55.1305 59.2349C55.0552 60.3691 54.0991 62.6472 54.0991 62.6472L54.1017 62.6451L54.0988 62.6521C59.0413 58.724 60.4525 52.8896 60.4525 52.8896C62.9887 55.2575 67.1259 53.892 67.1259 53.892L67.1174 53.89L67.1262 53.8871C65.027 53.3789 64.8493 50.4517 64.7531 48.8682C64.7442 48.7217 64.736 48.5867 64.727 48.4662C64.6281 47.1045 63.869 46.4559 63.8036 46.4024C71.2307 45.0889 73.1142 41.6294 73.1142 41.6294L73.1154 41.6272L73.1169 41.6269V41.6245L73.1154 41.6272C72.9948 41.6537 72.8753 41.6796 72.7568 41.705C71.008 41.9927 70.4176 40.8086 69.9308 39.8322C69.8822 39.7347 69.8347 39.6393 69.7871 39.5476C69.2318 38.4754 67.5682 36.8455 67.5682 36.8455C70.8953 36.9561 73.1142 38.9562 73.1142 38.9562C71.5612 32.6362 67.2365 32.7419 67.2365 32.7419C71.0059 31.189 73.1142 26.3089 73.1142 26.3089C71.6718 26.6431 69.5659 25.8666 68.1235 24.3136C66.6812 22.7607 63.6858 22.2053 63.6858 22.2053C66.0153 21.0971 69.1212 22.2053 69.1212 22.2053C65.0622 17.2106 61.6886 18.9507 61.286 19.1855C65.4588 16.6339 64.907 12.6664 64.907 12.6664C63.3089 14.3707 59.6631 13.1067 57.1004 12.2181L56.7912 12.1111C54.2214 11.224 50.9472 12.6664 50.9472 12.6664C52.6252 9.67106 56.7912 8.784 56.7912 8.784C46.6801 5.23574 43.9877 11.7793 43.9877 11.7793C43.8242 2.8486 40.1125 3.23804 40.1125 3.23804Z"/>
</mask>
<path fill-rule="evenodd" clip-rule="evenodd" d="M40.1125 3.23804C41.9347 5.56749 40.1125 10.4475 40.1125 10.4475V10.4499C39.1735 8.19291 36.899 6.9464 35.062 5.93974C34.4063 5.58042 33.8064 5.25166 33.3429 4.91842C31.5808 3.65153 32.1313 2 32.1313 2C25.5429 6.64714 29.6092 11.2467 30.2366 11.8922C28.7562 10.478 23.8285 8.88398 21.6116 8.82967C19.3542 8.77438 18.0874 5.85596 18.0874 5.85596C15.6642 9.10372 18.7484 14.9983 18.7484 14.9983C13.0198 13.3996 10.4307 17.2003 10.4307 17.2003C14.5607 16.1546 17.2604 17.4767 17.2604 17.4767C13.9495 16.8346 11.868 18.0332 10.1491 19.023L10.1491 19.023C9.80871 19.2191 9.48252 19.4069 9.16383 19.5706C7.23585 20.561 3.8751 18.8542 3.8751 18.8542C4.53619 24.0877 10.5389 28.9749 10.5389 28.9749C6.13242 29.4581 3.37748 34.1122 3.37748 34.1122C6.18531 32.6265 9.38018 33.7276 9.38018 33.7276C8.06748 36.2158 3.63551 36.8233 2.35139 36.9487L2.34649 36.944C2.13014 36.9656 2.00273 36.9728 2.00273 36.9728L2.00539 36.9774L2 36.9777C5.32423 42.6988 11.4497 43.3537 11.5824 43.3673C10.9509 43.9676 10.4693 44.6179 10.1034 45.2759C8.58612 47.9998 9.05084 50.8582 9.05084 50.8582L9.05275 50.8482L9.05356 50.8533C9.0751 50.7353 9.13319 50.61 9.22051 50.4799C10.0341 49.2748 13.3467 47.6634 13.3467 47.6634C13.3467 47.6634 12.7385 50.1947 13.6761 51.1323C14.6136 52.0698 14.6136 54.6253 14.6136 54.6253C15.3495 54.5201 15.812 53.9541 16.2488 53.4195C16.3054 53.3502 16.3615 53.2815 16.4178 53.2144C16.7186 54.3337 17.2945 55.2426 18.1381 55.9255C18.8384 56.4936 19.6379 56.8394 20.3987 57.0473C22.2746 61.3304 26.5117 64.0604 27.0952 64.4214C27.1166 64.4365 27.139 64.4502 27.1623 64.4623C27.1623 64.4623 27.1391 64.4485 27.0952 64.4214C27.0828 64.4127 27.0708 64.4035 27.059 64.3938L27.0955 64.4165C27.1169 64.4316 27.1393 64.4453 27.1627 64.4574C27.1627 64.4574 27.1394 64.4436 27.0955 64.4165C26.6169 64.0789 26.6174 63.0275 26.6529 62.4815C26.6661 62.2808 26.6839 62.1497 26.6839 62.1497C27.9027 64.8493 31.0279 66.2268 31.0279 66.2268L31.0253 66.2206L31.0282 66.2219C30.7549 65.5721 30.4388 64.1768 30.4763 63.6629C30.5002 63.3545 30.6546 63.3719 31.0279 64.0777C32.0183 65.9503 34.5521 67.6019 34.5521 67.6019L34.5417 67.5899L34.5524 67.597C34.0656 67.0404 33.9959 66.6158 34.0108 66.3782C34.0201 66.2423 34.0569 66.1691 34.0569 66.1691C35.8743 68.0971 38.9586 69.1981 38.9586 69.1981C41.4701 68.2712 43.9415 65.502 43.9847 65.4534C43.8318 66.3887 43.2452 67.2364 43.2452 67.2364L43.249 67.2353L43.2449 67.2413L44.531 66.859C45.8171 66.4768 49.4327 62.8612 49.4327 62.8612C49.4699 63.0376 49.4725 63.2706 49.4564 63.5177C49.4115 64.1957 49.2263 64.9767 49.2263 64.9767L49.2273 64.9759L49.2259 64.9815C51.8679 63.0343 55.1349 59.1063 55.1349 59.1063C55.1349 59.1472 55.1334 59.1902 55.1305 59.2349C55.0552 60.3691 54.0991 62.6472 54.0991 62.6472L54.1017 62.6451L54.0988 62.6521C59.0413 58.724 60.4525 52.8896 60.4525 52.8896C62.9887 55.2575 67.1259 53.892 67.1259 53.892L67.1174 53.89L67.1262 53.8871C65.027 53.3789 64.8493 50.4517 64.7531 48.8682C64.7442 48.7217 64.736 48.5867 64.727 48.4662C64.6281 47.1045 63.869 46.4559 63.8036 46.4024C71.2307 45.0889 73.1142 41.6294 73.1142 41.6294L73.1154 41.6272L73.1169 41.6269V41.6245L73.1154 41.6272C72.9948 41.6537 72.8753 41.6796 72.7568 41.705C71.008 41.9927 70.4176 40.8086 69.9308 39.8322C69.8822 39.7347 69.8347 39.6393 69.7871 39.5476C69.2318 38.4754 67.5682 36.8455 67.5682 36.8455C70.8953 36.9561 73.1142 38.9562 73.1142 38.9562C71.5612 32.6362 67.2365 32.7419 67.2365 32.7419C71.0059 31.189 73.1142 26.3089 73.1142 26.3089C71.6718 26.6431 69.5659 25.8666 68.1235 24.3136C66.6812 22.7607 63.6858 22.2053 63.6858 22.2053C66.0153 21.0971 69.1212 22.2053 69.1212 22.2053C65.0622 17.2106 61.6886 18.9507 61.286 19.1855C65.4588 16.6339 64.907 12.6664 64.907 12.6664C63.3089 14.3707 59.6631 13.1067 57.1004 12.2181L56.7912 12.1111C54.2214 11.224 50.9472 12.6664 50.9472 12.6664C52.6252 9.67106 56.7912 8.784 56.7912 8.784C46.6801 5.23574 43.9877 11.7793 43.9877 11.7793C43.8242 2.8486 40.1125 3.23804 40.1125 3.23804Z" fill="white"/>
<path d="M40.1125 10.4475L38.536 9.85889C38.4657 10.0472 38.4297 10.2466 38.4297 10.4475H40.1125ZM40.1125 3.23804L39.9369 1.56445C39.3283 1.62831 38.8023 2.01751 38.5634 2.58085C38.3244 3.1442 38.41 3.79287 38.7871 4.27486L40.1125 3.23804ZM40.1125 10.4499L38.5588 11.0963C38.867 11.8371 39.6553 12.2573 40.4421 12.1001C41.2288 11.943 41.7953 11.2523 41.7953 10.4499H40.1125ZM35.062 5.93974L35.8707 4.46402V4.46402L35.062 5.93974ZM33.3429 4.91842L32.3606 6.28472L33.3429 4.91842ZM32.1313 2L33.7278 2.53214C33.9577 1.84242 33.7186 1.08304 33.1351 0.649368C32.5516 0.215701 31.7555 0.205823 31.1614 0.624877L32.1313 2ZM30.2366 11.8922L29.0741 13.109C29.7374 13.7426 30.7858 13.7284 31.4316 13.077C32.0774 12.4256 32.0826 11.3771 31.4432 10.7193L30.2366 11.8922ZM21.6116 8.82967L21.6528 7.1474L21.6116 8.82967ZM18.0874 5.85596L19.631 5.18588C19.392 4.63533 18.8778 4.25375 18.2817 4.18444C17.6855 4.11514 17.0975 4.36861 16.7386 4.84966L18.0874 5.85596ZM18.7484 14.9983L18.2961 16.6191C18.9425 16.7995 19.6343 16.5786 20.0565 16.0569C20.4787 15.5353 20.5506 14.8127 20.2394 14.2181L18.7484 14.9983ZM10.4307 17.2003L9.03997 16.2529C8.64631 16.8308 8.65102 17.5919 9.05181 18.1648C9.45259 18.7378 10.1659 19.0032 10.8438 18.8316L10.4307 17.2003ZM17.2604 17.4767L16.94 19.1287C17.7684 19.2894 18.5877 18.8117 18.8559 18.0117C19.1241 17.2116 18.7583 16.3366 18.0005 15.9655L17.2604 17.4767ZM10.1491 19.023L9.30942 17.5647C9.29523 17.5729 9.28116 17.5813 9.26721 17.5899L10.1491 19.023ZM10.1491 19.023L10.9888 20.4813C11.003 20.4732 11.0171 20.4648 11.031 20.4562L10.1491 19.023ZM9.16383 19.5706L9.93277 21.0674L9.93277 21.0674L9.16383 19.5706ZM3.8751 18.8542L4.63709 17.3538C4.08172 17.0718 3.41597 17.1196 2.90659 17.4781C2.39721 17.8366 2.12753 18.4471 2.20559 19.0651L3.8751 18.8542ZM10.5389 28.9749L10.7223 30.6477C11.3967 30.5737 11.9607 30.102 12.1528 29.4514C12.3449 28.8007 12.1275 28.0983 11.6014 27.67L10.5389 28.9749ZM3.37748 34.1122L1.92938 33.255C1.54556 33.9034 1.63956 34.7279 2.15947 35.2733C2.67938 35.8187 3.49846 35.952 4.16448 35.5996L3.37748 34.1122ZM9.38018 33.7276L10.8685 34.5128C11.0978 34.0783 11.1257 33.5653 10.945 33.1085C10.7642 32.6517 10.3929 32.2967 9.92846 32.1366L9.38018 33.7276ZM2.35139 36.9487L1.18322 38.16C1.53786 38.502 2.02457 38.6714 2.51493 38.6235L2.35139 36.9487ZM2.34649 36.944L3.51466 35.7327C3.15903 35.3898 2.67065 35.2204 2.17904 35.2696L2.34649 36.944ZM2.00273 36.9728L1.90765 35.2927C1.32343 35.3258 0.798331 35.66 0.52098 36.1752C0.243629 36.6905 0.253854 37.3128 0.547983 37.8187L2.00273 36.9728ZM2.00539 36.9774L2.10528 38.6572C2.68855 38.6225 3.21207 38.2878 3.48828 37.7729C3.76448 37.258 3.75383 36.6367 3.46013 36.1316L2.00539 36.9774ZM2 36.9777L1.90011 35.2979C1.31693 35.3326 0.793467 35.6673 0.517228 36.182C0.240988 36.6968 0.251504 37.318 0.545007 37.8231L2 36.9777ZM11.5824 43.3673L12.7418 44.5869C13.2182 44.1341 13.3873 43.4453 13.1749 42.8233C12.9624 42.2013 12.4073 41.76 11.7534 41.6932L11.5824 43.3673ZM10.1034 45.2759L11.5735 46.0948L11.574 46.0938L10.1034 45.2759ZM9.05084 50.8582L7.38987 51.1283C7.52097 51.9347 8.21236 52.5304 9.02928 52.5409C9.84621 52.5513 10.5526 51.9735 10.7043 51.1707L9.05084 50.8582ZM9.05275 50.8482L10.7152 50.5873C10.5883 49.7785 9.89762 49.1783 9.07896 49.1656C8.26031 49.1528 7.55128 49.7311 7.39924 50.5357L9.05275 50.8482ZM9.05356 50.8533L7.39112 51.1142C7.51833 51.925 8.21191 52.5258 9.03259 52.536C9.85326 52.5462 10.5616 51.9629 10.709 51.1555L9.05356 50.8533ZM9.22051 50.4799L7.82578 49.5384L7.82328 49.5421L9.22051 50.4799ZM13.3467 47.6634L14.9829 48.0565C15.135 47.4234 14.9083 46.7595 14.4008 46.3516C13.8933 45.9438 13.1961 45.8653 12.6106 46.1501L13.3467 47.6634ZM13.6761 51.1323L12.4862 52.3222L13.6761 51.1323ZM14.6136 54.6253H12.9308C12.9308 55.1131 13.1425 55.5769 13.5111 55.8965C13.8796 56.2161 14.3687 56.3601 14.8516 56.2911L14.6136 54.6253ZM16.2488 53.4195L17.5519 54.4842L17.552 54.4842L16.2488 53.4195ZM16.4178 53.2144L18.0429 52.7776C17.88 52.1717 17.3935 51.7067 16.7808 51.5713C16.1682 51.4359 15.5311 51.6526 15.1281 52.1335L16.4178 53.2144ZM18.1381 55.9255L19.1983 54.6187L19.1969 54.6176L18.1381 55.9255ZM20.3987 57.0473L21.9401 56.3722C21.7362 55.9065 21.3327 55.558 20.8423 55.424L20.3987 57.0473ZM27.1623 64.4623L26.3866 65.9556C27.1953 66.3756 28.1913 66.0757 28.6336 65.2791C29.0759 64.4824 28.8037 63.4784 28.0196 63.0142L27.1623 64.4623ZM27.059 64.3938L27.9481 62.965C27.1956 62.4968 26.2089 62.6925 25.692 63.4125C25.1752 64.1325 25.3054 65.13 25.9898 65.6932L27.059 64.3938ZM27.1627 64.4574L26.387 65.9507C27.1956 66.3708 28.1917 66.0708 28.6339 65.2741C29.0762 64.4774 28.8039 63.4734 28.0198 63.0093L27.1627 64.4574ZM26.6529 62.4815L24.9738 62.3709L24.9737 62.3722L26.6529 62.4815ZM26.6839 62.1497L28.2177 61.4572C27.9088 60.7732 27.1843 60.3764 26.4416 60.4844C25.6989 60.5925 25.1176 61.1794 25.0165 61.923L26.6839 62.1497ZM31.0279 66.2268L30.3492 67.7666C30.9793 68.0444 31.715 67.9102 32.2065 67.4279C32.698 66.9456 32.8461 66.2125 32.5803 65.5773L31.0279 66.2268ZM31.0253 66.2206L31.7099 64.6834C31.0798 64.4028 30.3422 64.5351 29.849 65.0173C29.3557 65.4995 29.2067 66.2338 29.4729 66.8701L31.0253 66.2206ZM31.0282 66.2219L30.3437 67.7591C30.9743 68.04 31.7125 67.9072 32.2057 67.4241C32.6989 66.941 32.847 66.2057 32.5793 65.5694L31.0282 66.2219ZM30.4763 63.6629L28.7985 63.5327L28.798 63.5404L30.4763 63.6629ZM31.0279 64.0777L29.5404 64.8644L31.0279 64.0777ZM34.5521 67.6019L33.6332 69.0116C34.3368 69.4702 35.2706 69.3399 35.8218 68.7063C36.3729 68.0727 36.3726 67.1298 35.821 66.4966L34.5521 67.6019ZM34.5417 67.5899L35.4668 66.1842C34.7642 65.7218 33.828 65.8493 33.2745 66.4827C32.721 67.1161 32.7203 68.0609 33.2728 68.6952L34.5417 67.5899ZM34.5524 67.597L33.6273 69.0026C34.3305 69.4654 35.2675 69.3374 35.8208 68.7029C36.374 68.0684 36.3733 67.1227 35.8191 66.4891L34.5524 67.597ZM34.0108 66.3782L32.332 66.2635L32.3314 66.2728L34.0108 66.3782ZM34.0569 66.1691L35.2814 65.0148C34.9047 64.6152 34.3567 64.4246 33.8134 64.504C33.27 64.5835 32.7996 64.9232 32.5531 65.4139L34.0569 66.1691ZM38.9586 69.1981L38.3929 70.7829C38.7645 70.9156 39.171 70.9134 39.5412 70.7768L38.9586 69.1981ZM43.9847 65.4534L45.6455 65.7248C45.7662 64.9859 45.3843 64.2561 44.7084 63.9342C44.0325 63.6122 43.2252 63.7755 42.7275 64.3348L43.9847 65.4534ZM43.2452 67.2364L41.8615 66.2787C41.455 66.8661 41.4636 67.646 41.8829 68.2243C42.3022 68.8025 43.0409 69.053 43.7254 68.8492L43.2452 67.2364ZM43.249 67.2353L44.6385 68.1845C45.0403 67.5962 45.0282 66.8187 44.6083 66.2432C44.1883 65.6678 43.4515 65.4191 42.7687 65.6225L43.249 67.2353ZM43.2449 67.2413L41.8554 66.292C41.4536 66.8801 41.4656 67.6575 41.8853 68.2329C42.305 68.8083 43.0415 69.0572 43.7243 68.8543L43.2449 67.2413ZM44.531 66.859L45.0104 68.4721H45.0104L44.531 66.859ZM49.4327 62.8612L51.0792 62.514C50.9518 61.9098 50.5038 61.424 49.9119 61.2481C49.32 61.0723 48.6794 61.2347 48.2428 61.6713L49.4327 62.8612ZM49.4564 63.5177L51.1355 63.6288L51.1356 63.6272L49.4564 63.5177ZM49.2263 64.9767L47.5889 64.5882C47.4259 65.2753 47.7092 65.991 48.2983 66.3804C48.8874 66.7698 49.6569 66.75 50.2252 66.3309L49.2263 64.9767ZM49.2273 64.9759L50.8654 65.3608C51.0268 64.674 50.7426 63.9595 50.1537 63.5711C49.5647 63.1827 48.7961 63.2029 48.2283 63.6217L49.2273 64.9759ZM49.2259 64.9815L47.5878 64.5967C47.4264 65.2833 47.7105 65.9977 48.2992 66.3862C48.888 66.7746 49.6565 66.7546 50.2243 66.3362L49.2259 64.9815ZM55.1349 59.1063H56.8177C56.8177 58.3975 56.3736 57.7647 55.707 57.5237C55.0404 57.2827 54.2943 57.4853 53.8411 58.0302L55.1349 59.1063ZM55.1305 59.2349L56.8096 59.3465L56.8098 59.3431L55.1305 59.2349ZM54.0991 62.6472L52.5474 61.996C52.25 62.7048 52.4706 63.5251 53.0836 63.989C53.6965 64.4529 54.5459 64.4425 55.1472 63.9637L54.0991 62.6472ZM54.1017 62.6451L55.6545 63.2937C55.9505 62.5849 55.729 61.7656 55.1161 61.3025C54.5032 60.8394 53.6545 60.8502 53.0535 61.3287L54.1017 62.6451ZM54.0988 62.6521L52.546 62.0035C52.2501 62.7121 52.4713 63.5312 53.0838 63.9943C53.6963 64.4575 54.5446 64.4473 55.1458 63.9695L54.0988 62.6521ZM60.4525 52.8896L61.6009 51.6596C61.1636 51.2513 60.5424 51.1059 59.9693 51.2777C59.3963 51.4494 58.9575 51.9125 58.8168 52.494L60.4525 52.8896ZM67.1259 53.892L67.6533 55.49C68.3663 55.2547 68.8372 54.5754 68.8073 53.8251C68.7775 53.0748 68.2541 52.4351 67.5246 52.2572L67.1259 53.892ZM67.1174 53.89L66.6009 52.2884C65.8843 52.5195 65.4084 53.1986 65.4358 53.9511C65.4631 54.7037 65.9871 55.3464 66.7187 55.5248L67.1174 53.89ZM67.1262 53.8871L67.6427 55.4887C68.3598 55.2574 68.8358 54.5776 68.8078 53.8246C68.7798 53.0716 68.2546 52.429 67.5222 52.2516L67.1262 53.8871ZM64.7531 48.8682L66.4328 48.7662V48.7662L64.7531 48.8682ZM64.727 48.4662L63.0487 48.5881L63.0489 48.5909L64.727 48.4662ZM63.8036 46.4024L63.5105 44.7453C62.8629 44.8599 62.3414 45.3412 62.1754 45.9775C62.0093 46.6138 62.2291 47.2886 62.7382 47.7049L63.8036 46.4024ZM73.1142 41.6294L71.6433 40.812C71.6409 40.8162 71.6386 40.8205 71.6362 40.8248L73.1142 41.6294ZM73.1169 41.6269L73.4784 43.2704C74.25 43.1006 74.7997 42.417 74.7997 41.6269H73.1169ZM73.1169 41.6245H74.7997C74.7997 40.8581 74.2818 40.1885 73.54 39.9958C72.7981 39.8031 72.0198 40.136 71.6468 40.8055L73.1169 41.6245ZM72.7568 41.705L73.03 43.3654C73.0564 43.3611 73.0828 43.3561 73.109 43.3505L72.7568 41.705ZM69.9308 39.8322L68.4248 40.583L68.4249 40.583L69.9308 39.8322ZM69.7871 39.5476L68.2928 40.3215L68.2935 40.3228L69.7871 39.5476ZM67.5682 36.8455L67.6241 35.1637C66.9305 35.1406 66.294 35.5457 66.021 36.1837C65.7481 36.8217 65.8948 37.5619 66.3905 38.0475L67.5682 36.8455ZM73.1142 38.9562L71.9875 40.2061C72.5364 40.7009 73.3438 40.7797 73.978 40.4003C74.6122 40.021 74.9247 39.2723 74.7483 38.5546L73.1142 38.9562ZM67.2365 32.7419L66.5955 31.186C65.8455 31.495 65.4226 32.2951 65.5898 33.0888C65.757 33.8826 66.4667 34.444 67.2776 34.4242L67.2365 32.7419ZM73.1142 26.3089L74.6589 26.9763C74.9108 26.3934 74.813 25.7184 74.4063 25.2309C73.9995 24.7433 73.3529 24.5263 72.7344 24.6696L73.1142 26.3089ZM68.1235 24.3136L69.3565 23.1684V23.1684L68.1235 24.3136ZM63.6858 22.2053L62.9629 20.6858C62.3043 20.9991 61.9225 21.701 62.0173 22.4241C62.1121 23.1472 62.662 23.727 63.3791 23.8599L63.6858 22.2053ZM69.1212 22.2053L68.5557 23.7903C69.2665 24.0439 70.0593 23.7932 70.4951 23.177C70.9309 22.5608 70.9031 21.7298 70.4271 21.1441L69.1212 22.2053ZM61.286 19.1855L60.4081 17.7499C59.621 18.2312 59.3682 19.2565 59.8414 20.0485C60.3145 20.8406 61.3371 21.1039 62.134 20.639L61.286 19.1855ZM64.907 12.6664L66.5738 12.4346C66.4845 11.7925 66.0343 11.2588 65.4164 11.0626C64.7985 10.8663 64.1229 11.0425 63.6795 11.5154L64.907 12.6664ZM57.1004 12.2181L57.6517 10.6282L57.651 10.628L57.1004 12.2181ZM56.7912 12.1111L57.3418 10.5209L57.3403 10.5204L56.7912 12.1111ZM50.9472 12.6664L49.4791 11.844C49.1253 12.4754 49.215 13.2624 49.7017 13.798C50.1885 14.3337 50.9632 14.4982 51.6256 14.2064L50.9472 12.6664ZM56.7912 8.784L57.1417 10.4299C57.8794 10.2728 58.4224 9.64407 58.4706 8.89138C58.5187 8.13868 58.0601 7.4459 57.3484 7.19615L56.7912 8.784ZM43.9877 11.7793L42.3052 11.8101C42.3198 12.6078 42.8925 13.2855 43.6765 13.4331C44.4605 13.5806 45.2403 13.1574 45.5439 12.4197L43.9877 11.7793ZM40.1125 10.4475C41.689 11.0362 41.6891 11.0358 41.6893 11.0354C41.6893 11.0352 41.6895 11.0348 41.6896 11.0345C41.6898 11.0338 41.6901 11.0331 41.6904 11.0323C41.691 11.0307 41.6917 11.0288 41.6925 11.0266C41.6941 11.0222 41.6962 11.0166 41.6987 11.0099C41.7036 10.9963 41.7102 10.9782 41.7182 10.9556C41.7342 10.9103 41.7562 10.8473 41.7827 10.7683C41.8357 10.6104 41.9071 10.3876 41.9857 10.1147C42.142 9.57256 42.332 8.81534 42.4598 7.96714C42.5865 7.12659 42.6605 6.14315 42.5541 5.16525C42.4485 4.19407 42.152 3.11413 41.4379 2.20123L38.7871 4.27486C38.9841 4.52668 39.1432 4.93028 39.2083 5.52927C39.2728 6.12154 39.2329 6.79488 39.1318 7.46553C39.0319 8.12853 38.8803 8.73691 38.7518 9.18257C38.6881 9.40362 38.6314 9.58024 38.5918 9.69834C38.572 9.7573 38.5566 9.80137 38.5469 9.82878C38.542 9.84248 38.5385 9.85199 38.5367 9.85709C38.5358 9.85964 38.5352 9.86108 38.5351 9.86139C38.535 9.86155 38.5351 9.86142 38.5353 9.861C38.5353 9.8608 38.5354 9.86052 38.5356 9.86017C38.5356 9.85999 38.5357 9.85967 38.5358 9.85958C38.5359 9.85925 38.536 9.85889 40.1125 10.4475ZM41.7953 10.4499V10.4475H38.4297V10.4499H41.7953ZM34.2533 7.41545C36.2021 8.48341 37.8851 9.47676 38.5588 11.0963L41.6662 9.80359C40.462 6.90905 37.5958 5.40939 35.8707 4.46402L34.2533 7.41545ZM32.3606 6.28472C32.9254 6.69076 33.6267 7.07206 34.2533 7.41545L35.8707 4.46402C35.186 4.08879 34.6875 3.81257 34.3252 3.55211L32.3606 6.28472ZM32.1313 2C30.5349 1.46786 30.5346 1.4688 30.5343 1.46974C30.5342 1.47006 30.5339 1.47101 30.5336 1.47166C30.5332 1.47296 30.5328 1.47428 30.5323 1.47564C30.5314 1.47835 30.5305 1.48118 30.5296 1.48412C30.5277 1.49001 30.5256 1.49638 30.5235 1.5032C30.5193 1.51684 30.5146 1.53235 30.5095 1.54965C30.4995 1.58423 30.4881 1.62617 30.4762 1.67491C30.4525 1.77209 30.4265 1.89806 30.4058 2.048C30.3648 2.34564 30.3427 2.75333 30.4109 3.22505C30.5543 4.21642 31.0829 5.36607 32.3606 6.28472L34.3252 3.55211C33.8409 3.20388 33.7636 2.89431 33.7418 2.7432C33.7274 2.64368 33.7327 2.5593 33.7398 2.50769C33.7433 2.48301 33.7465 2.47005 33.746 2.47197C33.7457 2.47307 33.7444 2.47829 33.7416 2.48806C33.7402 2.49296 33.7384 2.49904 33.7361 2.50636C33.7349 2.51001 33.7337 2.51399 33.7323 2.51828C33.7316 2.52043 33.7309 2.52265 33.7301 2.52496C33.7297 2.52612 33.7294 2.52729 33.729 2.52849C33.7288 2.52909 33.7285 2.53 33.7284 2.5303C33.7281 2.53122 33.7278 2.53214 32.1313 2ZM31.4432 10.7193C31.2015 10.4706 30.3339 9.47655 30.1422 8.19736C30.053 7.60201 30.1052 6.91941 30.4792 6.15477C30.8612 5.37374 31.6241 4.41704 33.1013 3.37512L31.1614 0.624877C29.3443 1.90653 28.1448 3.26746 27.4559 4.67603C26.7589 6.101 26.6316 7.47997 26.8138 8.6961C27.165 11.0399 28.6442 12.6683 29.0299 13.0651L31.4432 10.7193ZM21.5704 10.5119C22.422 10.5328 24.0159 10.8798 25.6535 11.4424C26.4492 11.7158 27.2036 12.0227 27.8291 12.3326C28.4828 12.6564 28.8883 12.9314 29.0741 13.109L31.399 10.6755C30.8447 10.1459 30.0791 9.69133 29.3232 9.31682C28.5391 8.92836 27.6455 8.56817 26.7471 8.25951C24.9965 7.65802 23.0182 7.18084 21.6528 7.1474L21.5704 10.5119ZM18.0874 5.85596C16.5437 6.52605 16.544 6.52655 16.5442 6.52705C16.5443 6.52724 16.5445 6.52776 16.5446 6.52813C16.545 6.52887 16.5453 6.52965 16.5457 6.53049C16.5464 6.53215 16.5472 6.534 16.5481 6.53602C16.5499 6.54008 16.552 6.54486 16.5545 6.55034C16.5593 6.5613 16.5656 6.57507 16.5731 6.59148C16.5882 6.62428 16.6086 6.66772 16.6343 6.72032C16.6856 6.82528 16.7586 6.96807 16.8531 7.13643C17.04 7.46942 17.3214 7.92133 17.6973 8.38373C18.4024 9.25082 19.6988 10.4661 21.5704 10.5119L21.6528 7.1474C21.267 7.13795 20.8013 6.86638 20.3086 6.26044C20.0857 5.98632 19.9092 5.70517 19.788 5.48923C19.7285 5.38312 19.6849 5.29748 19.6581 5.24262C19.6448 5.21531 19.6357 5.196 19.6312 5.18602C19.6289 5.18104 19.6277 5.17842 19.6277 5.17834C19.6276 5.17829 19.6279 5.17889 19.6285 5.18013C19.6287 5.18076 19.6291 5.18155 19.6295 5.18251C19.6297 5.18298 19.6299 5.1835 19.6302 5.18407C19.6303 5.18435 19.6305 5.1848 19.6306 5.18494C19.6308 5.18541 19.631 5.18588 18.0874 5.85596ZM18.7484 14.9983C20.2394 14.2181 20.2396 14.2185 20.2398 14.2188C20.2399 14.2189 20.2401 14.2192 20.2401 14.2194C20.2403 14.2198 20.2405 14.2201 20.2406 14.2202C20.2408 14.2206 20.2408 14.2206 20.2406 14.2203C20.2403 14.2196 20.2392 14.2176 20.2375 14.2143C20.234 14.2075 20.2279 14.1955 20.2193 14.1783C20.2021 14.1439 20.1752 14.0893 20.1406 14.0164C20.0712 13.8704 19.9716 13.6527 19.8578 13.3795C19.6286 12.8291 19.3501 12.0735 19.1421 11.2383C18.6941 9.43964 18.7104 7.83492 19.4361 6.86227L16.7386 4.84966C15.0411 7.12477 15.388 10.0912 15.8763 12.0517C16.1365 13.0962 16.4776 14.0172 16.751 14.6735C16.8885 15.0036 17.0109 15.2718 17.1007 15.4609C17.1457 15.5555 17.1827 15.6307 17.2095 15.6842C17.2229 15.711 17.2338 15.7325 17.2418 15.7482C17.2459 15.7561 17.2492 15.7626 17.2518 15.7676C17.2531 15.7702 17.2543 15.7723 17.2552 15.7741C17.2557 15.775 17.2561 15.7758 17.2565 15.7765C17.2566 15.7769 17.2569 15.7774 17.257 15.7775C17.2572 15.778 17.2574 15.7784 18.7484 14.9983ZM10.4307 17.2003C11.8215 18.1477 11.8209 18.1485 11.8204 18.1493C11.8202 18.1496 11.8196 18.1503 11.8193 18.1508C11.8186 18.1518 11.818 18.1528 11.8174 18.1537C11.8161 18.1555 11.8151 18.157 11.8141 18.1584C11.8122 18.1611 11.8109 18.1629 11.8102 18.1639C11.8087 18.166 11.8096 18.1648 11.8127 18.1606C11.8189 18.1522 11.8342 18.1319 11.8587 18.1019C11.9077 18.0416 11.9924 17.9433 12.1131 17.8229C12.3557 17.5809 12.7343 17.2593 13.2527 16.974C14.2502 16.425 15.8774 15.9441 18.2961 16.6191L19.2008 13.3774C15.8908 12.4537 13.3592 13.0738 11.63 14.0255C10.785 14.4906 10.1583 15.0192 9.73648 15.4399C9.52495 15.6509 9.36257 15.837 9.24765 15.9783C9.1901 16.0491 9.14419 16.1089 9.10971 16.1554C9.09246 16.1786 9.07804 16.1986 9.06643 16.2149C9.06063 16.2231 9.05552 16.2304 9.05111 16.2367C9.04891 16.2399 9.04688 16.2428 9.04502 16.2455C9.04409 16.2469 9.04321 16.2481 9.04237 16.2494C9.04194 16.25 9.04134 16.2509 9.04113 16.2512C9.04055 16.252 9.03997 16.2529 10.4307 17.2003ZM17.2604 17.4767C18.0005 15.9655 17.9999 15.9651 17.9992 15.9648C17.9989 15.9647 17.9982 15.9643 17.9977 15.9641C17.9967 15.9636 17.9957 15.9631 17.9946 15.9626C17.9925 15.9615 17.9901 15.9604 17.9876 15.9592C17.9827 15.9568 17.977 15.9541 17.9706 15.9511C17.9579 15.9451 17.9425 15.938 17.9243 15.9297C17.8881 15.9133 17.841 15.8926 17.7834 15.8686C17.6683 15.8206 17.511 15.7594 17.314 15.6927C16.9203 15.5593 16.3662 15.4031 15.6727 15.2868C14.2824 15.0535 12.3371 14.9817 10.0177 15.569L10.8438 18.8316C12.6543 18.3731 14.1239 18.4395 15.1159 18.606C15.6136 18.6894 15.9925 18.7984 16.234 18.8803C16.3547 18.9212 16.4406 18.9551 16.4892 18.9754C16.5135 18.9855 16.5285 18.9922 16.5338 18.9946C16.5364 18.9958 16.5366 18.9959 16.5344 18.9948C16.5333 18.9943 16.5315 18.9935 16.5292 18.9923C16.528 18.9918 16.5267 18.9911 16.5252 18.9904C16.5244 18.9901 16.5236 18.9897 16.5228 18.9893C16.5224 18.9891 16.5218 18.9888 16.5216 18.9887C16.5209 18.9883 16.5202 18.988 17.2604 17.4767ZM10.9889 20.4813C12.6583 19.52 14.27 18.6109 16.94 19.1287L17.5808 15.8247C13.629 15.0583 11.0778 16.5465 9.30942 17.5647L10.9889 20.4813ZM11.031 20.4562L11.0311 20.4562L9.26721 17.5899L9.26717 17.5899L11.031 20.4562ZM9.93277 21.0674C10.2938 20.8819 10.6559 20.673 10.9888 20.4813L9.30938 17.5648C8.9615 17.7651 8.67121 17.9318 8.39489 18.0738L9.93277 21.0674ZM3.8751 18.8542C3.11311 20.3546 3.11346 20.3548 3.11383 20.355C3.11397 20.355 3.11435 20.3552 3.11463 20.3554C3.11519 20.3556 3.11581 20.356 3.11647 20.3563C3.1178 20.357 3.11934 20.3577 3.12109 20.3586C3.12458 20.3604 3.12891 20.3625 3.13404 20.3651C3.14431 20.3702 3.15783 20.3769 3.17445 20.385C3.20768 20.4013 3.2534 20.4233 3.31041 20.4499C3.42427 20.5032 3.58416 20.5755 3.78041 20.6576C4.16987 20.8207 4.71752 21.0291 5.34251 21.2042C5.96105 21.3775 6.70103 21.5312 7.46461 21.5582C8.21884 21.5849 9.10638 21.4919 9.93277 21.0674L8.39489 18.0738C8.25728 18.1445 8.00174 18.2096 7.58358 18.1948C7.17478 18.1803 6.71307 18.093 6.25043 17.9634C5.79423 17.8356 5.3812 17.6792 5.08027 17.5532C4.93132 17.4909 4.8136 17.4375 4.73613 17.4013C4.69748 17.3832 4.66912 17.3695 4.65217 17.3612C4.64371 17.3571 4.63812 17.3543 4.63556 17.3531C4.63427 17.3524 4.63375 17.3522 4.63399 17.3523C4.63412 17.3523 4.63444 17.3525 4.63495 17.3528C4.63521 17.3529 4.63552 17.353 4.63587 17.3532C4.63605 17.3533 4.63636 17.3535 4.63644 17.3535C4.63676 17.3537 4.63709 17.3538 3.8751 18.8542ZM10.5389 28.9749C11.6014 27.67 11.6016 27.6702 11.6019 27.6704C11.6019 27.6704 11.6022 27.6706 11.6023 27.6707C11.6025 27.6709 11.6026 27.671 11.6027 27.671C11.6028 27.6711 11.6025 27.6709 11.6019 27.6704C11.6006 27.6693 11.5979 27.6671 11.5939 27.6638C11.5859 27.6572 11.5724 27.646 11.5538 27.6303C11.5166 27.5991 11.4591 27.5502 11.3839 27.4849C11.2335 27.3541 11.0132 27.1578 10.7446 26.9047C10.2059 26.3971 9.4816 25.6694 8.74089 24.7918C7.21316 22.9816 5.81232 20.7626 5.54461 18.6433L2.20559 19.0651C2.59897 22.1793 4.53003 25.0206 6.16892 26.9625C7.01152 27.9608 7.82927 28.782 8.43667 29.3543C8.74119 29.6412 8.995 29.8676 9.17544 30.0245C9.26572 30.103 9.33779 30.1643 9.38886 30.2072C9.41439 30.2286 9.43469 30.2455 9.4494 30.2577C9.45676 30.2637 9.46271 30.2686 9.46723 30.2724C9.46949 30.2742 9.47139 30.2758 9.47293 30.277C9.4737 30.2776 9.47437 30.2782 9.47496 30.2787C9.47525 30.2789 9.47562 30.2792 9.47576 30.2793C9.47611 30.2796 9.47643 30.2799 10.5389 28.9749ZM3.37748 34.1122C4.82557 34.9694 4.8253 34.9698 4.82505 34.9703C4.82498 34.9704 4.82473 34.9708 4.82459 34.971C4.82431 34.9715 4.82406 34.9719 4.82386 34.9723C4.82345 34.9729 4.8232 34.9734 4.82312 34.9735C4.82295 34.9738 4.82342 34.973 4.82453 34.9712C4.82676 34.9675 4.83153 34.9597 4.83882 34.9479C4.85341 34.9244 4.87801 34.8855 4.91233 34.833C4.98108 34.728 5.08821 34.5701 5.23142 34.3758C5.51943 33.985 5.94475 33.4587 6.48809 32.9222C7.60266 31.8217 9.05809 30.8302 10.7223 30.6477L10.3555 27.3022C7.61324 27.6029 5.48795 29.18 4.12343 30.5273C3.42722 31.2148 2.8884 31.8821 2.52215 32.3791C2.33824 32.6286 2.19571 32.8381 2.09659 32.9895C2.04697 33.0653 2.00808 33.1268 1.98016 33.1717C1.9662 33.1942 1.95496 33.2125 1.94649 33.2265C1.94226 33.2335 1.93871 33.2394 1.93586 33.2441C1.93443 33.2465 1.93318 33.2486 1.9321 33.2504C1.93156 33.2513 1.93107 33.2522 1.93061 33.2529C1.93039 33.2533 1.93008 33.2538 1.92997 33.254C1.92967 33.2545 1.92938 33.255 3.37748 34.1122ZM9.38018 33.7276C9.92846 32.1366 9.92791 32.1364 9.92735 32.1362C9.92715 32.1362 9.92658 32.136 9.92617 32.1358C9.92536 32.1355 9.9245 32.1352 9.92358 32.1349C9.92176 32.1343 9.91973 32.1336 9.9175 32.1329C9.91304 32.1314 9.90779 32.1296 9.90174 32.1276C9.88966 32.1236 9.87441 32.1186 9.85613 32.1127C9.81957 32.101 9.77076 32.0859 9.7106 32.0683C9.59042 32.0331 9.4241 31.9877 9.21895 31.9399C8.81042 31.8447 8.23806 31.7377 7.56244 31.6851C6.23077 31.5813 4.37616 31.68 2.59048 32.6248L4.16448 35.5996C5.18663 35.0588 6.33337 34.9651 7.3011 35.0405C7.77517 35.0774 8.17702 35.1528 8.45527 35.2176C8.59351 35.2498 8.69873 35.2788 8.76424 35.298C8.79693 35.3076 8.8195 35.3147 8.83111 35.3184C8.83691 35.3202 8.83995 35.3213 8.84012 35.3213C8.84021 35.3213 8.83958 35.3211 8.83821 35.3207C8.83753 35.3204 8.83667 35.3201 8.83562 35.3198C8.83509 35.3196 8.83452 35.3194 8.8339 35.3192C8.83359 35.3191 8.83309 35.3189 8.83294 35.3189C8.83243 35.3187 8.83191 35.3185 9.38018 33.7276ZM2.51493 38.6235C3.21239 38.5554 4.78346 38.3564 6.38827 37.8203C7.91305 37.3109 9.89441 36.3592 10.8685 34.5128L7.89183 32.9424C7.55326 33.5841 6.66228 34.1803 5.32187 34.6281C4.06149 35.0492 2.77451 35.2166 2.18784 35.2739L2.51493 38.6235ZM1.17833 38.1552L1.18322 38.16L3.51955 35.7374L3.51466 35.7327L1.17833 38.1552ZM2.00273 36.9728C2.0978 38.6529 2.09786 38.6529 2.09792 38.6529C2.09794 38.6529 2.098 38.6529 2.09805 38.6529C2.09813 38.6529 2.09822 38.6529 2.09831 38.6529C2.09848 38.6529 2.09867 38.6529 2.09886 38.6529C2.09924 38.6528 2.09966 38.6528 2.10011 38.6528C2.10101 38.6527 2.10203 38.6527 2.10318 38.6526C2.10547 38.6525 2.10827 38.6523 2.11156 38.6521C2.11813 38.6517 2.12668 38.6512 2.13711 38.6505C2.15798 38.6491 2.18644 38.6471 2.22187 38.6444C2.2927 38.639 2.3917 38.6306 2.51394 38.6184L2.17904 35.2696C2.08492 35.279 2.01205 35.2851 1.96508 35.2886C1.94162 35.2904 1.9247 35.2916 1.91492 35.2923C1.91003 35.2926 1.90693 35.2928 1.90569 35.2929C1.90507 35.2929 1.90492 35.2929 1.90524 35.2929C1.90541 35.2929 1.90569 35.2929 1.90609 35.2928C1.90629 35.2928 1.90652 35.2928 1.90678 35.2928C1.90691 35.2928 1.90705 35.2928 1.90719 35.2928C1.90727 35.2928 1.90734 35.2928 1.90742 35.2928C1.90746 35.2928 1.90752 35.2927 1.90753 35.2927C1.90759 35.2927 1.90765 35.2927 2.00273 36.9728ZM3.46013 36.1316L3.45747 36.127L0.547983 37.8187L0.550645 37.8233L3.46013 36.1316ZM2.09989 38.6575L2.10528 38.6572L1.90549 35.2976L1.90011 35.2979L2.09989 38.6575ZM11.7534 41.6932C11.794 41.6973 10.4211 41.5597 8.67662 40.7774C6.9423 39.9996 4.89537 38.6112 3.45499 36.1323L0.545007 37.8231C4.30245 44.2898 11.1773 45.0174 11.4114 45.0413L11.7534 41.6932ZM11.574 46.0938C11.8632 45.5738 12.2424 45.0616 12.7418 44.5869L10.4231 42.1476C9.65929 42.8736 9.07546 43.6619 8.63273 44.458L11.574 46.0938ZM9.05084 50.8582C10.7118 50.5882 10.7119 50.5887 10.712 50.5893C10.712 50.5894 10.7121 50.5899 10.7121 50.5902C10.7122 50.5909 10.7123 50.5915 10.7124 50.592C10.7126 50.5931 10.7128 50.5941 10.7129 50.5949C10.7131 50.5964 10.7133 50.5973 10.7133 50.5976C10.7134 50.5981 10.7131 50.596 10.7124 50.5915C10.7111 50.5823 10.7086 50.5633 10.7053 50.535C10.6987 50.4784 10.6892 50.3854 10.6813 50.2616C10.6654 50.0131 10.6561 49.6466 10.6869 49.2054C10.749 48.3136 10.97 47.1783 11.5735 46.0948L8.63329 44.457C7.71955 46.0974 7.41428 47.7533 7.32943 48.9716C7.28667 49.5855 7.29876 50.1039 7.32259 50.4764C7.33453 50.6632 7.34953 50.8148 7.3624 50.9252C7.36885 50.9804 7.37478 51.0254 7.37956 51.0595C7.38196 51.0765 7.38406 51.0908 7.38581 51.1023C7.38668 51.1081 7.38746 51.1131 7.38814 51.1174C7.38848 51.1196 7.3888 51.1216 7.38908 51.1234C7.38923 51.1243 7.38937 51.1252 7.3895 51.126C7.38956 51.1264 7.38966 51.1269 7.38969 51.1272C7.38978 51.1277 7.38987 51.1283 9.05084 50.8582ZM7.39924 50.5357L7.39733 50.5457L10.7043 51.1707L10.7063 51.1606L7.39924 50.5357ZM10.716 50.5925L10.7152 50.5873L7.39031 51.109L7.39112 51.1142L10.716 50.5925ZM7.82328 49.5421C7.66016 49.7851 7.4754 50.1279 7.39814 50.5512L10.709 51.1555C10.6909 51.2544 10.6636 51.3249 10.6462 51.3633C10.6288 51.4019 10.6161 51.4202 10.6177 51.4177L7.82328 49.5421ZM13.3467 47.6634C12.6106 46.1501 12.6105 46.1502 12.6103 46.1503C12.6102 46.1503 12.61 46.1504 12.6099 46.1505C12.6096 46.1506 12.6093 46.1508 12.6089 46.151C12.6081 46.1514 12.6071 46.1519 12.6059 46.1524C12.6035 46.1536 12.6003 46.1552 12.5963 46.1571C12.5884 46.161 12.5773 46.1664 12.5634 46.1733C12.5355 46.1871 12.4959 46.2069 12.4459 46.232C12.3462 46.2822 12.2048 46.3544 12.0335 46.4444C11.6924 46.6237 11.2255 46.8776 10.728 47.1737C10.2346 47.4674 9.68732 47.8167 9.19511 48.188C8.73506 48.535 8.19062 48.9979 7.82578 49.5384L10.6152 51.4215C10.6572 51.3593 10.8319 51.1689 11.2218 50.8749C11.5795 50.605 12.013 50.3255 12.4494 50.0657C12.8817 49.8084 13.2939 49.584 13.5993 49.4236C13.7513 49.3437 13.8751 49.2805 13.9597 49.2379C14.0019 49.2166 14.0342 49.2006 14.0553 49.1902C14.0658 49.185 14.0734 49.1812 14.0781 49.1789C14.0804 49.1778 14.082 49.177 14.0828 49.1766C14.0832 49.1764 14.0834 49.1763 14.0834 49.1763C14.0834 49.1763 14.0834 49.1763 14.0833 49.1764C14.0832 49.1764 14.0831 49.1765 14.0831 49.1765C14.083 49.1765 14.0828 49.1766 13.3467 47.6634ZM14.866 49.9424C14.9571 50.0335 14.9191 50.0614 14.8783 49.8605C14.8409 49.676 14.8269 49.4221 14.8408 49.1244C14.8542 48.8358 14.8909 48.56 14.9258 48.3526C14.943 48.2507 14.9589 48.1697 14.9698 48.1171C14.9753 48.0909 14.9795 48.0721 14.9818 48.0616C14.983 48.0564 14.9837 48.0533 14.9839 48.0524C14.984 48.0519 14.984 48.052 14.9838 48.0527C14.9838 48.053 14.9837 48.0535 14.9835 48.0542C14.9834 48.0545 14.9833 48.0548 14.9832 48.0552C14.9832 48.0554 14.9831 48.0557 14.9831 48.0558C14.983 48.0561 14.9829 48.0565 13.3467 47.6634C11.7105 47.2702 11.7104 47.2706 11.7103 47.271C11.7103 47.2711 11.7102 47.2715 11.7102 47.2717C11.71 47.2723 11.7099 47.2729 11.7097 47.2735C11.7094 47.2747 11.7091 47.2761 11.7087 47.2777C11.708 47.2808 11.7071 47.2846 11.7061 47.2889C11.7041 47.2977 11.7015 47.3089 11.6984 47.3224C11.6924 47.3495 11.6844 47.3859 11.675 47.4308C11.6564 47.5203 11.6321 47.6444 11.6069 47.7945C11.557 48.091 11.5003 48.5067 11.4789 48.9681C11.4578 49.4204 11.4676 49.9752 11.5798 50.529C11.6888 51.0664 11.9263 51.7623 12.4862 52.3222L14.866 49.9424ZM14.6136 54.6253C16.2964 54.6253 16.2964 54.6249 16.2964 54.6246C16.2964 54.6245 16.2964 54.6242 16.2964 54.6239C16.2964 54.6234 16.2964 54.6229 16.2964 54.6224C16.2964 54.6212 16.2964 54.62 16.2964 54.6185C16.2964 54.6156 16.2964 54.6121 16.2963 54.608C16.2963 54.5998 16.2962 54.589 16.296 54.576C16.2957 54.5499 16.2951 54.5145 16.294 54.4707C16.2918 54.3832 16.2874 54.2616 16.279 54.1145C16.2622 53.8228 16.2284 53.4181 16.1593 52.9726C16.0912 52.5331 15.9829 52.0148 15.8039 51.5107C15.6321 51.0266 15.351 50.4274 14.866 49.9424L12.4862 52.3222C12.4699 52.306 12.5404 52.3777 12.6323 52.6365C12.717 52.8753 12.7844 53.1716 12.8335 53.4881C12.8816 53.7987 12.9065 54.0914 12.919 54.3081C12.9251 54.4152 12.9281 54.5006 12.9296 54.5566C12.9303 54.5845 12.9306 54.6048 12.9307 54.6167C12.9308 54.6226 12.9308 54.6263 12.9308 54.6278C12.9308 54.6285 12.9308 54.6287 12.9308 54.6283C12.9308 54.6281 12.9308 54.6277 12.9308 54.6272C12.9308 54.627 12.9308 54.6267 12.9308 54.6263C12.9308 54.6262 12.9308 54.6259 12.9308 54.6258C12.9308 54.6255 12.9308 54.6253 14.6136 54.6253ZM14.9457 52.3547C14.7087 52.6449 14.5803 52.7941 14.4575 52.8979C14.363 52.9777 14.3474 52.9634 14.3756 52.9594L14.8516 56.2911C16.3428 56.0781 17.2007 54.914 17.5519 54.4842L14.9457 52.3547ZM15.1281 52.1335C15.0639 52.21 15.0011 52.2869 14.9457 52.3547L17.552 54.4842C17.6097 54.4135 17.6591 54.353 17.7075 54.2954L15.1281 52.1335ZM19.1969 54.6176C18.6494 54.1743 18.2585 53.5799 18.0429 52.7776L14.7927 53.6513C15.1788 55.0875 15.9397 56.3109 17.0793 57.2334L19.1969 54.6176ZM20.8423 55.424C20.2432 55.2603 19.6722 55.0032 19.1983 54.6187L17.0779 57.2323C18.0045 57.9841 19.0327 58.4184 19.9551 58.6705L20.8423 55.424ZM27.9804 62.9903C27.4291 62.6493 23.5939 60.148 21.9401 56.3722L18.8573 57.7223C20.9553 62.5128 25.5942 65.4716 26.21 65.8525L27.9804 62.9903ZM26.1252 65.7965C26.207 65.8541 26.2941 65.9076 26.3866 65.9556L27.938 62.969C27.9838 62.9928 28.0263 63.0188 28.0652 63.0463L26.1252 65.7965ZM27.1623 64.4623C28.0196 63.0142 28.0196 63.0142 28.0196 63.0142C28.0196 63.0143 28.0196 63.0143 28.0197 63.0143C28.0197 63.0143 28.0197 63.0143 28.0198 63.0143C28.0198 63.0144 28.0199 63.0144 28.02 63.0145C28.0201 63.0145 28.0202 63.0146 28.0203 63.0147C28.0206 63.0148 28.0208 63.0149 28.021 63.0151C28.0214 63.0153 28.0217 63.0155 28.0219 63.0156C28.0223 63.0158 28.0223 63.0159 28.022 63.0157C28.0215 63.0153 28.0195 63.0142 28.0162 63.0122C28.0096 63.0081 27.9975 63.0008 27.9804 62.9903L26.21 65.8525C26.2368 65.8691 26.2583 65.8822 26.2743 65.8919C26.2823 65.8967 26.2888 65.9007 26.294 65.9037C26.2966 65.9053 26.2988 65.9066 26.3006 65.9077C26.3016 65.9083 26.3024 65.9087 26.3031 65.9092C26.3035 65.9094 26.3039 65.9096 26.3042 65.9098C26.3044 65.9099 26.3045 65.91 26.3047 65.9101C26.3047 65.9101 26.3048 65.9102 26.3049 65.9102C26.3049 65.9102 26.305 65.9103 26.305 65.9103C26.305 65.9103 26.305 65.9103 26.305 65.9103C26.3051 65.9103 26.3051 65.9104 27.1623 64.4623ZM25.9898 65.6932C26.033 65.7287 26.0782 65.7633 26.1253 65.7965L28.0651 63.0462C28.0875 63.0621 28.1086 63.0782 28.1283 63.0944L25.9898 65.6932ZM27.9846 62.9877L27.9481 62.965L26.17 65.8226L26.2065 65.8453L27.9846 62.9877ZM26.1257 65.7917C26.2073 65.8492 26.2944 65.9026 26.387 65.9507L27.9383 62.9641C27.9842 62.9879 28.0266 63.014 28.0654 63.0413L26.1257 65.7917ZM27.1627 64.4574C28.0198 63.0093 28.0198 63.0093 28.0198 63.0093C28.0198 63.0093 28.0198 63.0093 28.0199 63.0093C28.0199 63.0093 28.0199 63.0094 28.02 63.0094C28.02 63.0094 28.0201 63.0095 28.0202 63.0095C28.0203 63.0096 28.0204 63.0096 28.0205 63.0097C28.0208 63.0099 28.021 63.01 28.0212 63.0101C28.0216 63.0103 28.0219 63.0105 28.0221 63.0106C28.0225 63.0109 28.0226 63.0109 28.0223 63.0107C28.0217 63.0104 28.0198 63.0092 28.0165 63.0072C28.0098 63.0032 27.9979 62.9959 27.9808 62.9854L26.2103 65.8476C26.2371 65.8642 26.2587 65.8773 26.2747 65.887C26.2826 65.8918 26.2892 65.8958 26.2944 65.8989C26.297 65.9004 26.2992 65.9018 26.3011 65.9029C26.302 65.9034 26.3028 65.9039 26.3036 65.9044C26.304 65.9046 26.3043 65.9048 26.3046 65.905C26.3048 65.9051 26.305 65.9052 26.3051 65.9053C26.3052 65.9053 26.3053 65.9054 26.3053 65.9054C26.3054 65.9054 26.3054 65.9054 26.3054 65.9055C26.3055 65.9055 26.3055 65.9055 26.3055 65.9055C26.3055 65.9055 26.3055 65.9055 27.1627 64.4574ZM24.9737 62.3722C24.9527 62.694 24.9361 63.2291 25.0168 63.7736C25.0794 64.1965 25.2716 65.1893 26.1256 65.7916L28.0655 63.0414C28.2818 63.194 28.3559 63.3618 28.3645 63.3817C28.375 63.4062 28.3608 63.3804 28.346 63.2807C28.3323 63.1882 28.3241 63.0733 28.3224 62.944C28.3207 62.8171 28.3254 62.6943 28.3321 62.5908L24.9737 62.3722ZM26.6839 62.1497C25.0165 61.923 25.0165 61.9231 25.0165 61.9232C25.0165 61.9232 25.0164 61.9233 25.0164 61.9234C25.0164 61.9235 25.0164 61.9236 25.0164 61.9238C25.0164 61.924 25.0163 61.9243 25.0163 61.9245C25.0162 61.925 25.0161 61.9256 25.0161 61.9262C25.0159 61.9274 25.0157 61.9287 25.0155 61.9301C25.0152 61.933 25.0147 61.9365 25.0142 61.9404C25.0132 61.9483 25.0119 61.9582 25.0105 61.97C25.0076 61.9937 25.0039 62.0253 24.9999 62.0637C24.9918 62.1402 24.982 62.2454 24.9738 62.3709L28.332 62.592C28.337 62.5169 28.3427 62.4562 28.3469 62.4169C28.3489 62.3975 28.3505 62.3837 28.3514 62.3765C28.3518 62.373 28.3521 62.3711 28.3521 62.371C28.3521 62.371 28.352 62.3714 28.3519 62.3722C28.3519 62.3727 28.3518 62.3732 28.3517 62.3739C28.3517 62.3743 28.3516 62.3746 28.3516 62.375C28.3515 62.3752 28.3515 62.3754 28.3515 62.3756C28.3515 62.3757 28.3514 62.3759 28.3514 62.376C28.3514 62.376 28.3514 62.3761 28.3514 62.3761C28.3514 62.3762 28.3514 62.3763 26.6839 62.1497ZM31.0279 66.2268C31.7066 64.687 31.707 64.6872 31.7075 64.6873C31.7076 64.6874 31.708 64.6876 31.7082 64.6877C31.7087 64.6879 31.7092 64.6881 31.7096 64.6883C31.7103 64.6886 31.711 64.6889 31.7114 64.6891C31.7122 64.6895 31.7124 64.6895 31.7118 64.6893C31.7107 64.6888 31.7068 64.687 31.7002 64.6839C31.6871 64.6778 31.6634 64.6667 31.6303 64.6505C31.5641 64.6182 31.461 64.566 31.3304 64.4943C31.0678 64.3501 30.7024 64.1316 30.3054 63.8416C29.4868 63.2438 28.6582 62.4331 28.2177 61.4572L25.1502 62.8421C25.9285 64.5659 27.2719 65.7938 28.3205 66.5596C28.8572 66.9515 29.3492 67.246 29.7107 67.4445C29.8921 67.5441 30.0428 67.6206 30.1522 67.6741C30.207 67.7009 30.2516 67.722 30.2848 67.7374C30.3014 67.7451 30.3152 67.7514 30.326 67.7563C30.3314 67.7587 30.336 67.7608 30.3399 67.7625C30.3418 67.7634 30.3436 67.7641 30.3451 67.7648C30.3459 67.7652 30.3466 67.7655 30.3473 67.7658C30.3476 67.7659 30.3481 67.7662 30.3483 67.7662C30.3487 67.7664 30.3492 67.7666 31.0279 66.2268ZM29.4729 66.8701L29.4755 66.8763L32.5803 65.5773L32.5777 65.5711L29.4729 66.8701ZM31.7128 64.6847L31.7099 64.6834L30.3408 67.7578L30.3437 67.7591L31.7128 64.6847ZM28.798 63.5404C28.7594 64.0693 28.8852 64.7654 28.992 65.2522C29.1106 65.7922 29.2839 66.4151 29.4771 66.8744L32.5793 65.5694C32.4992 65.3788 32.3778 64.9793 32.2793 64.5306C32.2325 64.3171 32.1971 64.1211 32.1761 63.9643C32.1515 63.7813 32.1582 63.7365 32.1546 63.7854L28.798 63.5404ZM32.5154 63.2909C32.4051 63.0824 32.2887 62.8815 32.1655 62.7058C32.0767 62.5791 31.8569 62.2734 31.4996 62.0547C31.3041 61.935 30.9145 61.7475 30.3998 61.7976C29.8262 61.8535 29.4194 62.17 29.1873 62.471C28.8351 62.928 28.8061 63.4362 28.7986 63.5327L32.154 63.7931C32.1522 63.8168 32.1457 63.8893 32.1195 63.9894C32.0976 64.0729 32.0331 64.2919 31.8529 64.5257C31.6445 64.796 31.2661 65.0948 30.726 65.1474C30.2449 65.1942 29.894 65.0179 29.7426 64.9252C29.4735 64.7605 29.3638 64.5723 29.4097 64.6377C29.4212 64.6541 29.464 64.7201 29.5404 64.8644L32.5154 63.2909ZM34.5521 67.6019C35.471 66.1921 35.4712 66.1923 35.4714 66.1924C35.4715 66.1924 35.4717 66.1926 35.4718 66.1926C35.4721 66.1928 35.4723 66.1929 35.4724 66.193C35.4727 66.1933 35.4729 66.1934 35.4729 66.1934C35.473 66.1934 35.4725 66.1931 35.4713 66.1923C35.4691 66.1909 35.4646 66.1879 35.4579 66.1834C35.4445 66.1745 35.4225 66.1596 35.3927 66.1392C35.3332 66.0984 35.2433 66.0357 35.1308 65.9538C34.9046 65.7893 34.5927 65.5516 34.2545 65.2626C33.542 64.6539 32.8587 63.94 32.5154 63.2909L29.5404 64.8644C30.1875 66.0881 31.2663 67.1362 32.0683 67.8214C32.4874 68.1795 32.8708 68.4716 33.1507 68.6753C33.2912 68.7775 33.407 68.8584 33.4899 68.9153C33.5314 68.9437 33.5647 68.9662 33.589 68.9823C33.6011 68.9904 33.6109 68.9969 33.6183 69.0018C33.622 69.0043 33.6251 69.0063 33.6276 69.0079C33.6289 69.0088 33.63 69.0095 33.6309 69.0101C33.6314 69.0104 33.6318 69.0107 33.6322 69.0109C33.6324 69.0111 33.6327 69.0112 33.6327 69.0113C33.633 69.0115 33.6332 69.0116 34.5521 67.6019ZM33.2728 68.6952L33.2833 68.7072L35.821 66.4966L35.8106 66.4846L33.2728 68.6952ZM35.4776 66.1913L35.4668 66.1842L33.6166 68.9956L33.6273 69.0026L35.4776 66.1913ZM32.3314 66.2728C32.2845 67.0192 32.5531 67.8672 33.2858 68.7049L35.8191 66.4891C35.6894 66.3408 35.6659 66.2684 35.6707 66.2813C35.6728 66.2871 35.6802 66.3089 35.6856 66.3459C35.691 66.3828 35.6937 66.4292 35.6903 66.4836L32.3314 66.2728ZM34.0569 66.1691C32.5531 65.4139 32.5529 65.4144 32.5526 65.4149C32.5526 65.415 32.5523 65.4155 32.5522 65.4158C32.5518 65.4164 32.5515 65.4171 32.5512 65.4177C32.5506 65.419 32.5499 65.4203 32.5493 65.4216C32.548 65.4241 32.5467 65.4267 32.5454 65.4294C32.5429 65.4347 32.5402 65.4401 32.5376 65.4456C32.5323 65.4566 32.527 65.4681 32.5216 65.4801C32.5107 65.5042 32.4996 65.5302 32.4884 65.5581C32.4661 65.6139 32.4436 65.6776 32.4226 65.7489C32.3807 65.892 32.3456 66.0646 32.332 66.2635L35.6897 66.4929C35.6854 66.5559 35.6733 66.6241 35.6521 66.6965C35.6415 66.7325 35.6287 66.7694 35.6136 66.8073C35.606 66.8262 35.5978 66.8454 35.5891 66.8649C35.5847 66.8746 35.5801 66.8845 35.5754 66.8943C35.573 66.8993 35.5706 66.9043 35.5682 66.9093C35.5669 66.9118 35.5657 66.9143 35.5645 66.9168C35.5639 66.918 35.5632 66.9193 35.5626 66.9205C35.5623 66.9212 35.562 66.9218 35.5617 66.9224C35.5615 66.9227 35.5613 66.9232 35.5612 66.9234C35.5609 66.9238 35.5607 66.9243 34.0569 66.1691ZM38.9586 69.1981C39.5243 67.6133 39.5246 67.6134 39.5249 67.6135C39.525 67.6135 39.5252 67.6136 39.5253 67.6136C39.5256 67.6137 39.5259 67.6138 39.5261 67.6139C39.5265 67.614 39.5267 67.6141 39.5267 67.6141C39.5268 67.6141 39.5261 67.6139 39.5247 67.6134C39.522 67.6124 39.5164 67.6104 39.5082 67.6073C39.4917 67.6012 39.4645 67.591 39.4277 67.5768C39.3539 67.5484 39.2419 67.5041 39.0998 67.4444C38.8147 67.3247 38.414 67.1455 37.9623 66.9119C37.0322 66.4309 36.0001 65.7772 35.2814 65.0148L32.8324 67.3234C33.9311 68.489 35.3498 69.3498 36.4163 69.9013C36.9628 70.184 37.4468 70.4005 37.7968 70.5475C37.9722 70.6212 38.1154 70.6779 38.2174 70.7172C38.2684 70.7369 38.3092 70.7522 38.3388 70.7632C38.3536 70.7687 38.3656 70.7731 38.3747 70.7764C38.3792 70.778 38.383 70.7794 38.386 70.7805C38.3875 70.781 38.3889 70.7815 38.39 70.7819C38.3906 70.7821 38.3911 70.7823 38.3916 70.7825C38.3918 70.7826 38.3921 70.7827 38.3922 70.7827C38.3926 70.7828 38.3929 70.7829 38.9586 69.1981ZM42.7275 64.3348C42.7325 64.3292 42.1567 64.9762 41.2936 65.7261C40.4034 66.4995 39.3424 67.2627 38.3759 67.6194L39.5412 70.7768C41.0863 70.2066 42.5168 69.1217 43.5009 68.2667C44.5122 67.388 45.1937 66.6262 45.2419 66.5719L42.7275 64.3348ZM43.2452 67.2364C44.6289 68.194 44.6291 68.1938 44.6293 68.1935C44.6293 68.1934 44.6295 68.1931 44.6296 68.1929C44.6299 68.1926 44.6302 68.1922 44.6305 68.1917C44.631 68.1909 44.6316 68.19 44.6323 68.1891C44.6336 68.1873 44.635 68.1852 44.6366 68.1829C44.6397 68.1783 44.6434 68.1728 44.6476 68.1665C44.6561 68.1539 44.6668 68.1379 44.6794 68.1187C44.7045 68.0803 44.7373 68.0287 44.7758 67.9656C44.8524 67.8401 44.9535 67.665 45.0603 67.4532C45.2654 67.0462 45.5305 66.4282 45.6455 65.7248L42.324 65.1819C42.2861 65.4139 42.1814 65.6874 42.055 65.9381C41.996 66.0551 41.9408 66.1504 41.9026 66.213C41.8837 66.244 41.8696 66.266 41.862 66.2776C41.8582 66.2834 41.8562 66.2865 41.856 66.2868C41.8559 66.2869 41.8563 66.2863 41.8572 66.285C41.8576 66.2843 41.8582 66.2834 41.8589 66.2824C41.8593 66.2819 41.8597 66.2813 41.8601 66.2807C41.8603 66.2804 41.8605 66.2801 41.8608 66.2797C41.8609 66.2796 41.8611 66.2793 41.8611 66.2792C41.8613 66.279 41.8615 66.2787 43.2452 67.2364ZM42.7687 65.6225L42.7649 65.6236L43.7254 68.8492L43.7292 68.848L42.7687 65.6225ZM44.6344 68.1905L44.6385 68.1845L41.8595 66.286L41.8554 66.292L44.6344 68.1905ZM44.0516 65.246L42.7655 65.6282L43.7243 68.8543L45.0104 68.4721L44.0516 65.246ZM49.4327 62.8612C48.2428 61.6713 48.2428 61.6713 48.2429 61.6712C48.2429 61.6712 48.2429 61.6712 48.2429 61.6712C48.2429 61.6712 48.2428 61.6713 48.2427 61.6714C48.2425 61.6717 48.242 61.6721 48.2413 61.6728C48.24 61.6741 48.2378 61.6763 48.2348 61.6793C48.2287 61.6854 48.2193 61.6947 48.2068 61.7071C48.1817 61.732 48.1441 61.7692 48.0954 61.817C47.9979 61.9128 47.8562 62.0511 47.6819 62.2186C47.3321 62.5546 46.8554 63.0038 46.3427 63.4622C45.826 63.9241 45.2922 64.3775 44.8251 64.7304C44.2885 65.1358 44.044 65.2482 44.0516 65.246L45.0104 68.4721C45.661 68.2787 46.3508 67.7958 46.8538 67.4158C47.4263 66.9833 48.0377 66.4612 48.5856 65.9714C49.1375 65.4781 49.6451 64.9996 50.0135 64.6457C50.1981 64.4683 50.349 64.3211 50.4542 64.2177C50.5069 64.1659 50.5482 64.125 50.5767 64.0968C50.591 64.0826 50.6021 64.0716 50.6098 64.0639C50.6136 64.0601 50.6166 64.0571 50.6188 64.0549C50.6199 64.0539 50.6207 64.053 50.6213 64.0524C50.6217 64.0521 50.6219 64.0518 50.6221 64.0516C50.6222 64.0515 50.6223 64.0514 50.6224 64.0513C50.6225 64.0512 50.6226 64.0511 49.4327 62.8612ZM51.1356 63.6272C51.1546 63.3357 51.1646 62.9188 51.0792 62.514L47.7861 63.2085C47.7811 63.1847 47.7801 63.1731 47.7805 63.1766C47.7808 63.1797 47.7819 63.1913 47.7825 63.2128C47.7838 63.2573 47.7828 63.3222 47.7772 63.4081L51.1356 63.6272ZM49.2263 64.9767C50.8636 65.3651 50.8636 65.365 50.8636 65.3649C50.8636 65.3648 50.8637 65.3647 50.8637 65.3646C50.8637 65.3644 50.8638 65.3643 50.8638 65.3641C50.8639 65.3637 50.864 65.3632 50.8641 65.3627C50.8644 65.3617 50.8647 65.3605 50.865 65.3592C50.8656 65.3564 50.8664 65.3529 50.8674 65.3487C50.8694 65.3402 50.872 65.3288 50.8752 65.3147C50.8817 65.2864 50.8904 65.2472 50.9009 65.1987C50.9217 65.1021 50.9496 64.9671 50.9791 64.8083C51.0361 64.5005 51.1068 64.0626 51.1355 63.6288L47.7773 63.4065C47.7611 63.6508 47.7167 63.9424 47.6699 64.1946C47.6475 64.3158 47.6262 64.4184 47.6109 64.4894C47.6033 64.5247 47.5973 64.5517 47.5934 64.5689C47.5914 64.5774 47.59 64.5834 47.5893 64.5867C47.5889 64.5884 47.5886 64.5894 47.5886 64.5896C47.5886 64.5897 47.5886 64.5897 47.5886 64.5895C47.5887 64.5893 47.5887 64.5892 47.5887 64.589C47.5888 64.5889 47.5888 64.5887 47.5888 64.5886C47.5888 64.5886 47.5889 64.5885 47.5889 64.5884C47.5889 64.5883 47.5889 64.5882 49.2263 64.9767ZM48.2283 63.6217L48.2273 63.6224L50.2252 66.3309L50.2262 66.3301L48.2283 63.6217ZM50.8641 65.3664L50.8654 65.3608L47.5891 64.591L47.5878 64.5967L50.8641 65.3664ZM55.1349 59.1063C53.8411 58.0302 53.8412 58.0301 53.8412 58.0301C53.8412 58.0301 53.8413 58.03 53.8413 58.03C53.8413 58.03 53.8413 58.03 53.8412 58.0301C53.841 58.0304 53.8406 58.0308 53.84 58.0315C53.8389 58.0329 53.837 58.0352 53.8343 58.0384C53.8289 58.0448 53.8205 58.0548 53.8092 58.0683C53.7865 58.0953 53.7521 58.1361 53.707 58.1892C53.6166 58.2956 53.4833 58.4512 53.3147 58.6446C52.977 59.032 52.4996 59.5687 51.9426 60.1638C50.809 61.3748 49.4183 62.7493 48.2275 63.6269L50.2243 66.3362C51.6755 65.2666 53.2393 63.7034 54.3997 62.4636C54.9897 61.8333 55.4942 61.2662 55.8516 60.8562C56.0305 60.651 56.1731 60.4845 56.2717 60.3684C56.3211 60.3104 56.3595 60.2649 56.3859 60.2334C56.3991 60.2176 56.4094 60.2054 56.4166 60.1968C56.4202 60.1925 56.423 60.1891 56.425 60.1867C56.426 60.1855 56.4268 60.1845 56.4274 60.1838C56.4277 60.1834 56.428 60.1831 56.4282 60.1829C56.4283 60.1827 56.4284 60.1826 56.4285 60.1825C56.4286 60.1824 56.4287 60.1823 55.1349 59.1063ZM56.8098 59.3431C56.8147 59.2671 56.8177 59.1877 56.8177 59.1063H53.4521C53.4521 59.1063 53.4521 59.1063 53.4521 59.1063C53.4521 59.1064 53.4521 59.1065 53.4521 59.1066C53.4521 59.1068 53.4521 59.1072 53.4521 59.1076C53.4521 59.1085 53.452 59.1099 53.452 59.1116C53.4519 59.1152 53.4516 59.1202 53.4512 59.1268L56.8098 59.3431ZM54.0991 62.6472C55.6508 63.2984 55.6508 63.2983 55.6509 63.2981C55.6509 63.2981 55.651 63.298 55.651 63.2978C55.6511 63.2976 55.6512 63.2974 55.6513 63.2971C55.6516 63.2965 55.6519 63.2958 55.6522 63.2949C55.653 63.2932 55.6539 63.2909 55.6551 63.2881C55.6574 63.2825 55.6606 63.2747 55.6647 63.2649C55.6728 63.2453 55.6843 63.2174 55.6987 63.1822C55.7274 63.1118 55.7677 63.0116 55.816 62.8885C55.9124 62.6432 56.0421 62.3022 56.1752 61.9213C56.4176 61.2274 56.7548 60.1718 56.8096 59.3465L53.4514 59.1234C53.4309 59.4322 53.2524 60.0828 52.9979 60.8115C52.8825 61.1418 52.7686 61.4413 52.6833 61.6586C52.6408 61.7667 52.6059 61.8534 52.582 61.912C52.5701 61.9413 52.5609 61.9635 52.555 61.9778C52.552 61.9849 52.5499 61.9901 52.5486 61.9932C52.548 61.9947 52.5476 61.9957 52.5474 61.9962C52.5473 61.9964 52.5472 61.9965 52.5472 61.9965C52.5472 61.9965 52.5472 61.9964 52.5473 61.9964C52.5473 61.9963 52.5473 61.9962 52.5473 61.9962C52.5474 61.9961 52.5474 61.996 54.0991 62.6472ZM53.0535 61.3287L53.051 61.3307L55.1472 63.9637L55.1498 63.9616L53.0535 61.3287ZM55.6516 63.3007L55.6545 63.2937L52.5489 61.9966L52.546 62.0035L55.6516 63.3007ZM60.4525 52.8896C58.8168 52.494 58.817 52.4935 58.8171 52.493C58.8171 52.4929 58.8172 52.4924 58.8173 52.4922C58.8174 52.4917 58.8175 52.4912 58.8176 52.4909C58.8178 52.4902 58.8178 52.4899 58.8178 52.4899C58.8178 52.4899 58.8175 52.4913 58.8168 52.494C58.8154 52.4995 58.8127 52.5103 58.8084 52.5263C58.8 52.5582 58.7858 52.6105 58.7653 52.6815C58.7244 52.8235 58.6585 53.0395 58.5637 53.3146C58.3738 53.8659 58.0702 54.6489 57.6227 55.5479C56.7226 57.3557 55.2715 59.5706 53.0518 61.3347L55.1458 63.9695C57.8686 61.8056 59.5943 59.1391 60.6355 57.0478C61.1586 55.9971 61.5166 55.076 61.7458 54.4106C61.8606 54.0774 61.9435 53.8068 61.999 53.6144C62.0268 53.5182 62.0477 53.4413 62.0624 53.3859C62.0697 53.3581 62.0755 53.3357 62.0797 53.3188C62.0819 53.3104 62.0836 53.3034 62.085 53.2978C62.0857 53.2949 62.0863 53.2925 62.0868 53.2904C62.0871 53.2893 62.0873 53.2884 62.0875 53.2875C62.0876 53.2871 62.0878 53.2865 62.0878 53.2863C62.088 53.2857 62.0881 53.2852 60.4525 52.8896ZM67.1259 53.892C66.5985 52.294 66.599 52.2939 66.5995 52.2937C66.5997 52.2937 66.6002 52.2935 66.6005 52.2934C66.6011 52.2932 66.6016 52.293 66.6021 52.2929C66.6031 52.2925 66.6038 52.2923 66.6043 52.2921C66.6053 52.2918 66.6053 52.2918 66.6045 52.2921C66.6027 52.2927 66.5972 52.2944 66.5883 52.2971C66.5703 52.3026 66.5384 52.3121 66.4939 52.3244C66.4047 52.3491 66.2663 52.3849 66.0894 52.4225C65.7322 52.4986 65.2368 52.5784 64.6838 52.597C63.5359 52.6355 62.4007 52.4064 61.6009 51.6596L59.3041 54.1196C61.0404 55.7407 63.2419 56.0128 64.7967 55.9606C65.595 55.9338 66.2924 55.8203 66.7902 55.7143C67.0408 55.6609 67.2455 55.6085 67.3924 55.5678C67.466 55.5474 67.5254 55.5299 67.5693 55.5165C67.5913 55.5098 67.6094 55.5042 67.6234 55.4997C67.6304 55.4975 67.6364 55.4955 67.6414 55.4939C67.6439 55.4931 67.6462 55.4924 67.6481 55.4917C67.6491 55.4914 67.65 55.4911 67.6509 55.4908C67.6513 55.4907 67.6519 55.4905 67.6521 55.4904C67.6527 55.4902 67.6533 55.49 67.1259 53.892ZM66.7187 55.5248L66.7271 55.5269L67.5246 52.2572L67.5162 52.2551L66.7187 55.5248ZM66.6097 52.2856L66.6009 52.2884L67.6339 55.4915L67.6427 55.4887L66.6097 52.2856ZM63.0734 48.9702C63.1195 49.7292 63.1924 51.0683 63.5863 52.2952C63.9801 53.522 64.8432 55.0658 66.7302 55.5227L67.5222 52.2516C67.31 52.2003 67.0347 52.0263 66.7908 51.2665C66.5469 50.507 66.4829 49.5907 66.4328 48.7662L63.0734 48.9702ZM63.0489 48.5909C63.0568 48.6978 63.0643 48.8207 63.0734 48.9703L66.4328 48.7662C66.4241 48.6228 66.4152 48.4756 66.4052 48.3415L63.0489 48.5909ZM62.7382 47.7049C62.6029 47.5943 62.9956 47.8569 63.0487 48.5881L66.4054 48.3443C66.2607 46.3522 65.1352 45.3176 64.869 45.0999L62.7382 47.7049ZM73.1142 41.6294C71.6362 40.8248 71.6368 40.8237 71.6374 40.8226C71.6376 40.8223 71.6381 40.8213 71.6385 40.8206C71.6392 40.8193 71.6399 40.818 71.6406 40.8167C71.642 40.8143 71.6432 40.812 71.6444 40.8099C71.6467 40.8058 71.6486 40.8025 71.6501 40.8C71.653 40.7949 71.6542 40.793 71.6535 40.794C71.6522 40.7962 71.6436 40.8102 71.6268 40.835C71.5932 40.8844 71.5268 40.9767 71.4207 41.1017C71.2093 41.3509 70.837 41.7338 70.247 42.1677C69.0736 43.0307 66.9916 44.1297 63.5105 44.7453L64.0967 48.0595C68.0427 47.3616 70.616 46.0741 72.241 44.879C73.0504 44.2838 73.6131 43.7197 73.9869 43.2792C74.1735 43.0593 74.3122 42.8711 74.4107 42.7263C74.4599 42.6538 74.4989 42.5923 74.5289 42.5431C74.5438 42.5185 74.5565 42.497 74.567 42.4788C74.5722 42.4697 74.577 42.4614 74.5811 42.4539C74.5832 42.4502 74.5852 42.4466 74.587 42.4433C74.5879 42.4417 74.5888 42.4401 74.5896 42.4385C74.5901 42.4378 74.5907 42.4366 74.5909 42.4363C74.5915 42.4351 74.5921 42.4341 73.1142 41.6294ZM71.6445 40.8098L71.6433 40.812L74.585 42.4469L74.5862 42.4447L71.6445 40.8098ZM72.7553 39.9834L72.7538 39.9838L73.4769 43.2707L73.4784 43.2704L72.7553 39.9834ZM71.4341 41.6245V41.6269H74.7997V41.6245H71.4341ZM74.5854 42.4462L74.5869 42.4435L71.6468 40.8055L71.6453 40.8083L74.5854 42.4462ZM73.109 43.3505C73.2304 43.3245 73.3528 43.298 73.4762 43.2709L72.7545 39.9836C72.6369 40.0094 72.5203 40.0347 72.4046 40.0595L73.109 43.3505ZM68.4249 40.583C68.6398 41.0141 69.0399 41.8626 69.7485 42.4967C70.5779 43.2389 71.684 43.5869 73.03 43.3654L72.4836 40.0445C72.2466 40.0835 72.1327 40.0598 72.0963 40.0497C72.0648 40.0409 72.0366 40.0279 71.9927 39.9886C71.9387 39.9403 71.8623 39.8522 71.7622 39.6907C71.6587 39.5237 71.5639 39.3363 71.4368 39.0814L68.4249 40.583ZM68.2935 40.3228C68.3337 40.4002 68.375 40.4831 68.4248 40.583L71.4369 39.0814C71.3894 38.9863 71.3357 38.8783 71.2806 38.7723L68.2935 40.3228ZM67.5682 36.8455C66.3905 38.0475 66.3904 38.0474 66.3904 38.0473C66.3903 38.0473 66.3903 38.0472 66.3902 38.0472C66.3902 38.0471 66.3901 38.0471 66.3901 38.0471C66.39 38.047 66.3901 38.047 66.3902 38.0472C66.3905 38.0475 66.3912 38.0481 66.3922 38.0492C66.3943 38.0512 66.3979 38.0548 66.403 38.0598C66.4131 38.0698 66.4289 38.0855 66.4497 38.1064C66.4915 38.1482 66.5532 38.2105 66.6295 38.2892C66.7829 38.4471 66.9922 38.6676 67.2163 38.9176C67.7023 39.4599 68.1238 39.9951 68.2928 40.3215L71.2813 38.7736C70.8951 38.0279 70.2071 37.212 69.7225 36.6714C69.4613 36.3799 69.22 36.1258 69.0441 35.9447C68.9558 35.8538 68.8832 35.7804 68.8318 35.7289C68.8061 35.7031 68.7856 35.6827 68.7711 35.6683C68.7638 35.6611 68.758 35.6554 68.7538 35.6513C68.7517 35.6492 68.75 35.6475 68.7486 35.6462C68.748 35.6456 68.7474 35.645 68.747 35.6446C68.7467 35.6443 68.7465 35.6441 68.7464 35.644C68.7463 35.6439 68.7462 35.6438 68.7461 35.6437C68.746 35.6436 68.7459 35.6435 67.5682 36.8455ZM73.1142 38.9562C74.2409 37.7063 74.2404 37.7059 74.24 37.7055C74.2398 37.7053 74.2393 37.7049 74.239 37.7046C74.2383 37.704 74.2376 37.7034 74.2369 37.7027C74.2355 37.7014 74.2339 37.7 74.2321 37.6985C74.2287 37.6954 74.2246 37.6918 74.22 37.6877C74.2108 37.6796 74.1994 37.6697 74.1857 37.6579C74.1584 37.6344 74.1222 37.6038 74.0773 37.5672C73.9877 37.4939 73.8631 37.3959 73.7057 37.2814C73.3918 37.0529 72.9428 36.7551 72.3762 36.4551C71.2489 35.8583 69.6112 35.2297 67.6241 35.1637L67.5123 38.5274C68.8523 38.5719 69.9876 38.9987 70.8015 39.4295C71.2055 39.6434 71.5191 39.8525 71.7252 40.0025C71.8279 40.0772 71.9026 40.1364 71.9473 40.1729C71.9696 40.1912 71.9843 40.2036 71.9911 40.2095C71.9945 40.2124 71.9959 40.2137 71.9954 40.2132C71.9951 40.2129 71.9943 40.2122 71.9929 40.211C71.9923 40.2104 71.9915 40.2097 71.9906 40.2089C71.9901 40.2085 71.9896 40.2081 71.9891 40.2076C71.9889 40.2074 71.9884 40.207 71.9883 40.2069C71.9879 40.2065 71.9875 40.2061 73.1142 38.9562ZM67.2365 32.7419C67.2776 34.4242 67.2764 34.4242 67.2752 34.4243C67.2749 34.4243 67.2737 34.4243 67.273 34.4243C67.2715 34.4243 67.2701 34.4244 67.2687 34.4244C67.2659 34.4245 67.2634 34.4245 67.2612 34.4245C67.2567 34.4246 67.2531 34.4246 67.2504 34.4246C67.2451 34.4246 67.2434 34.4245 67.2451 34.4246C67.2486 34.4247 67.2656 34.4252 67.2946 34.4274C67.3528 34.432 67.4572 34.4434 67.5958 34.4721C67.8733 34.5295 68.2791 34.6537 68.7285 34.9228C69.58 35.4327 70.7995 36.5885 71.48 39.3577L74.7483 38.5546C73.8758 35.0039 72.1565 33.0526 70.4574 32.0353C69.6315 31.5408 68.8591 31.2965 68.2771 31.1762C67.986 31.116 67.7404 31.0864 67.5561 31.072C67.4638 31.0648 67.3863 31.0614 67.3257 31.06C67.2954 31.0593 67.2692 31.059 67.2474 31.059C67.2365 31.0591 67.2267 31.0591 67.218 31.0592C67.2137 31.0593 67.2096 31.0594 67.2058 31.0594C67.2039 31.0595 67.2021 31.0595 67.2004 31.0595C67.1995 31.0596 67.1982 31.0596 67.1978 31.0596C67.1965 31.0596 67.1953 31.0597 67.2365 32.7419ZM73.1142 26.3089C71.5694 25.6415 71.5695 25.6412 71.5697 25.6408C71.5697 25.6407 71.5699 25.6403 71.57 25.6401C71.5702 25.6398 71.5703 25.6394 71.5704 25.6392C71.5706 25.6387 71.5707 25.6385 71.5707 25.6386C71.5706 25.6387 71.57 25.64 71.569 25.6424C71.5669 25.6472 71.5628 25.6564 71.5567 25.6698C71.5446 25.6965 71.5246 25.7399 71.497 25.7979C71.4417 25.9141 71.3558 26.0882 71.2405 26.3047C71.0089 26.7397 70.6638 27.3356 70.2141 27.9726C69.2859 29.2875 68.044 30.5892 66.5955 31.186L67.8775 34.2978C70.1984 33.3417 71.8953 31.4269 72.9636 29.9135C73.5122 29.1364 73.9296 28.4153 74.2112 27.8866C74.3524 27.6214 74.4607 27.4021 74.5354 27.2453C74.5728 27.1669 74.6018 27.1039 74.6224 27.0584C74.6327 27.0357 74.6409 27.0173 74.647 27.0035C74.6501 26.9966 74.6526 26.9909 74.6546 26.9864C74.6556 26.9841 74.6564 26.9821 74.6572 26.9804C74.6575 26.9796 74.6578 26.9788 74.6581 26.9781C74.6583 26.9778 74.6585 26.9773 74.6586 26.9772C74.6588 26.9767 74.6589 26.9763 73.1142 26.3089ZM66.8905 25.4588C67.7883 26.4255 68.8892 27.15 70.0066 27.5864C71.1027 28.0145 72.3459 28.2142 73.4939 27.9483L72.7344 24.6696C72.44 24.7378 71.9091 24.7163 71.2311 24.4515C70.5744 24.195 69.9011 23.7548 69.3565 23.1684L66.8905 25.4588ZM63.6858 22.2053C63.3791 23.8599 63.3787 23.8599 63.3784 23.8598C63.3783 23.8598 63.378 23.8597 63.3778 23.8597C63.3775 23.8596 63.3772 23.8596 63.3769 23.8595C63.3764 23.8594 63.376 23.8594 63.3758 23.8593C63.3754 23.8593 63.3757 23.8593 63.3767 23.8595C63.3787 23.8599 63.3834 23.8608 63.3906 23.8622C63.4051 23.8651 63.4298 23.8701 63.4636 23.8774C63.5313 23.892 63.6348 23.9154 63.7658 23.9483C64.0293 24.0146 64.3946 24.1174 64.7961 24.2613C65.6548 24.569 66.4506 24.9851 66.8905 25.4588L69.3565 23.1684C68.3541 22.0891 66.9311 21.4512 65.9314 21.093C65.4039 20.9039 64.9301 20.7708 64.587 20.6845C64.4145 20.6411 64.2728 20.6089 64.1711 20.5871C64.1202 20.5761 64.0791 20.5677 64.049 20.5617C64.0339 20.5587 64.0216 20.5563 64.0122 20.5545C64.0074 20.5536 64.0034 20.5528 64.0002 20.5522C63.9985 20.5519 63.9971 20.5516 63.9958 20.5514C63.9952 20.5513 63.9946 20.5511 63.994 20.551C63.9938 20.551 63.9934 20.5509 63.9933 20.5509C63.9929 20.5508 63.9926 20.5508 63.6858 22.2053ZM69.1212 22.2053C69.6867 20.6204 69.6862 20.6203 69.6858 20.6201C69.6856 20.6201 69.6852 20.6199 69.6848 20.6198C69.6842 20.6195 69.6834 20.6193 69.6827 20.619C69.6811 20.6185 69.6794 20.6179 69.6775 20.6172C69.6736 20.6158 69.669 20.6142 69.6637 20.6123C69.6529 20.6086 69.6391 20.6039 69.6224 20.5983C69.589 20.587 69.5439 20.5722 69.488 20.5546C69.3763 20.5195 69.2209 20.4732 69.0295 20.4226C68.6488 20.322 68.115 20.2016 67.4936 20.121C66.2972 19.9658 64.556 19.9278 62.9629 20.6858L64.4087 23.7249C65.145 23.3746 66.1215 23.3367 67.0605 23.4585C67.5067 23.5164 67.895 23.6039 68.1695 23.6764C68.3057 23.7124 68.411 23.744 68.4783 23.7652C68.5119 23.7757 68.5358 23.7836 68.549 23.7881C68.5556 23.7903 68.5596 23.7917 68.5607 23.7921C68.5613 23.7923 68.5612 23.7922 68.5603 23.7919C68.5599 23.7918 68.5593 23.7916 68.5585 23.7913C68.5582 23.7911 68.5577 23.791 68.5572 23.7908C68.557 23.7907 68.5566 23.7906 68.5565 23.7905C68.5561 23.7904 68.5557 23.7903 69.1212 22.2053ZM62.134 20.639C62.1335 20.6393 62.1711 20.6174 62.2427 20.5862C62.3143 20.5551 62.4177 20.5158 62.549 20.4802C62.8101 20.4095 63.1812 20.3537 63.6416 20.4062C64.516 20.5061 66.0008 21.0338 67.8152 23.2666L70.4271 21.1441C68.1826 18.3821 65.9511 17.2825 64.0233 17.0624C62.1388 16.8472 60.8262 17.5055 60.438 17.7321L62.134 20.639ZM64.907 12.6664C63.2403 12.8982 63.2402 12.8973 63.24 12.8964C63.24 12.8961 63.2399 12.8953 63.2398 12.8947C63.2397 12.8936 63.2395 12.8926 63.2394 12.8916C63.2391 12.8896 63.2389 12.8879 63.2387 12.8863C63.2383 12.8833 63.238 12.8811 63.2379 12.8798C63.2375 12.8771 63.2377 12.878 63.2381 12.8821C63.2389 12.8903 63.2409 12.9115 63.2429 12.9446C63.247 13.0108 63.251 13.1229 63.2462 13.2712C63.2364 13.5696 63.1912 14.0014 63.0463 14.4964C62.7653 15.4565 62.0951 16.7184 60.4081 17.7499L62.1639 20.6212C64.6497 19.1011 65.79 17.1035 66.2763 15.4418C66.5151 14.626 66.5927 13.9064 66.6099 13.3812C66.6185 13.1177 66.612 12.8998 66.6022 12.7392C66.5973 12.6587 66.5915 12.5922 66.5863 12.5411C66.5837 12.5155 66.5813 12.4938 66.5791 12.476C66.578 12.4671 66.577 12.4592 66.5761 12.4523C66.5757 12.4488 66.5753 12.4456 66.5749 12.4427C66.5747 12.4412 66.5745 12.4398 66.5743 12.4384C66.5742 12.4378 66.5741 12.4368 66.574 12.4365C66.5739 12.4355 66.5738 12.4346 64.907 12.6664ZM56.5492 13.8081C57.798 14.241 59.5021 14.8375 61.1166 15.0789C62.6361 15.3061 64.7242 15.3215 66.1346 13.8174L63.6795 11.5154C63.4917 11.7156 62.9579 11.9512 61.6143 11.7503C60.3657 11.5636 58.9656 11.0838 57.6517 10.6282L56.5492 13.8081ZM56.2407 13.7013L56.5499 13.8083L57.651 10.628L57.3418 10.5209L56.2407 13.7013ZM50.9472 12.6664C51.6256 14.2064 51.6252 14.2065 51.6248 14.2067C51.6247 14.2067 51.6244 14.2069 51.6242 14.207C51.6238 14.2072 51.6234 14.2073 51.6231 14.2075C51.6224 14.2078 51.6219 14.208 51.6217 14.2081C51.6211 14.2083 51.6214 14.2082 51.6223 14.2078C51.6242 14.207 51.6291 14.2049 51.6369 14.2016C51.6523 14.1951 51.6791 14.184 51.7163 14.1692C51.7907 14.1395 51.9059 14.0953 52.0543 14.0434C52.3531 13.9389 52.7763 13.8071 53.2657 13.6999C54.2938 13.4746 55.3911 13.408 56.2422 13.7018L57.3403 10.5204C55.6215 9.9271 53.7968 10.1381 52.5454 10.4123C51.8949 10.5548 51.3389 10.7282 50.9435 10.8664C50.7449 10.9359 50.5842 10.9974 50.4695 11.0431C50.4121 11.066 50.366 11.085 50.3323 11.0992C50.3154 11.1063 50.3016 11.1122 50.291 11.1168C50.2857 11.1191 50.2812 11.121 50.2775 11.1226C50.2756 11.1234 50.274 11.1242 50.2725 11.1248C50.2718 11.1251 50.2711 11.1254 50.2705 11.1257C50.2702 11.1258 50.2698 11.126 50.2696 11.1261C50.2692 11.1263 50.2688 11.1264 50.9472 12.6664ZM56.7912 8.784C56.4408 7.13812 56.4403 7.13822 56.4398 7.13833C56.4396 7.13838 56.439 7.13849 56.4386 7.13857C56.4379 7.13874 56.437 7.13892 56.4361 7.13912C56.4343 7.13951 56.4322 7.13996 56.4299 7.14047C56.4252 7.14148 56.4195 7.14273 56.4128 7.14422C56.3995 7.1472 56.3821 7.15114 56.361 7.15608C56.3187 7.16596 56.2613 7.17986 56.1902 7.19811C56.0484 7.23455 55.8515 7.2886 55.6131 7.36292C55.1387 7.51086 54.4881 7.74286 53.7746 8.0828C52.3862 8.74434 50.5638 9.90758 49.4791 11.844L52.4153 13.4888C53.0085 12.4299 54.1082 11.6519 55.2223 11.1211C55.7601 10.8649 56.2559 10.6879 56.615 10.5759C56.7934 10.5202 56.9351 10.4816 57.0276 10.4578C57.0738 10.446 57.1075 10.4379 57.1271 10.4333C57.1368 10.431 57.1431 10.4296 57.1456 10.429C57.1469 10.4288 57.1472 10.4287 57.1465 10.4288C57.1462 10.4289 57.1456 10.429 57.1448 10.4292C57.1444 10.4293 57.144 10.4294 57.1434 10.4295C57.1432 10.4296 57.1427 10.4297 57.1426 10.4297C57.1422 10.4298 57.1417 10.4299 56.7912 8.784ZM43.9877 11.7793C45.5439 12.4197 45.5434 12.4208 45.543 12.4219C45.5428 12.4222 45.5424 12.4233 45.5421 12.424C45.5415 12.4253 45.541 12.4266 45.5405 12.4277C45.5396 12.43 45.5388 12.432 45.5381 12.4335C45.5367 12.4367 45.536 12.4384 45.5359 12.4387C45.5356 12.4393 45.5378 12.4344 45.5425 12.4244C45.5519 12.4043 45.5715 12.3643 45.602 12.3079C45.6634 12.1949 45.7677 12.0192 45.922 11.8094C46.2313 11.3888 46.7313 10.8449 47.4799 10.3841C48.9061 9.50619 51.5622 8.73238 56.234 10.3718L57.3484 7.19615C51.9092 5.28736 48.1635 6.01122 45.7157 7.51804C44.5273 8.24958 43.7222 9.11988 43.2108 9.81534C42.9547 10.1635 42.7696 10.4713 42.6442 10.7023C42.5814 10.8179 42.5332 10.915 42.4983 10.9891C42.4809 11.0261 42.4667 11.0575 42.4556 11.0827C42.4501 11.0952 42.4453 11.1063 42.4413 11.1157C42.4393 11.1204 42.4375 11.1247 42.4358 11.1286C42.435 11.1305 42.4343 11.1324 42.4335 11.1341C42.4332 11.135 42.4327 11.1362 42.4325 11.1366C42.432 11.1378 42.4315 11.139 43.9877 11.7793ZM40.1125 3.23804C40.2881 4.91163 40.2862 4.91184 40.2842 4.91203C40.2836 4.9121 40.2817 4.91229 40.2804 4.91242C40.2779 4.91267 40.2755 4.91291 40.273 4.91314C40.2682 4.9136 40.2635 4.91403 40.259 4.91441C40.25 4.91518 40.2417 4.91581 40.2341 4.91632C40.2188 4.91733 40.2061 4.91786 40.1957 4.91811C40.1752 4.91862 40.1638 4.91803 40.1603 4.9178C40.1533 4.91733 40.1761 4.91818 40.2205 4.93121C40.2962 4.95348 40.4991 5.02901 40.757 5.30612C41.2947 5.88389 42.2267 7.52237 42.3052 11.8101L45.6702 11.7485C45.5852 7.10557 44.5796 4.4734 43.2206 3.01321C42.5302 2.27134 41.7949 1.88606 41.1696 1.70226C40.8634 1.61226 40.5949 1.57376 40.3843 1.55971C40.279 1.55268 40.1877 1.55173 40.1127 1.55359C40.0752 1.55451 40.0416 1.55614 40.0122 1.55808C39.9975 1.55905 39.9839 1.5601 39.9713 1.56118C39.9651 1.56172 39.959 1.56226 39.9533 1.56281C39.9504 1.56308 39.9476 1.56336 39.9449 1.56363C39.9435 1.56377 39.9415 1.56397 39.9408 1.56404C39.9389 1.56425 39.9369 1.56445 40.1125 3.23804Z" fill="white" mask="url(#path-1-outside-1_823_45054)"/>
<path d="M40.1125 10.4475C40.1125 10.4475 41.9347 5.56749 40.1125 3.23804C40.1125 3.23804 43.8242 2.8486 43.9877 11.7793C43.9877 11.7793 46.6801 5.23574 56.7912 8.784C56.7912 8.784 52.6252 9.67106 50.9472 12.6664C50.9472 12.6664 54.2214 11.224 56.7912 12.1111C59.3611 12.9982 63.2435 14.4405 64.907 12.6664C64.907 12.6664 65.4623 16.6594 61.2458 19.21C61.2458 19.21 64.794 16.8806 69.1212 22.2053C69.1212 22.2053 66.0153 21.0971 63.6858 22.2053C63.6858 22.2053 66.6812 22.7607 68.1235 24.3136C69.5659 25.8666 71.6718 26.6431 73.1142 26.3089C73.1142 26.3089 71.0059 31.189 67.2365 32.7419C67.2365 32.7419 71.5612 32.6362 73.1142 38.9562C73.1142 38.9562 70.8953 36.9561 67.5682 36.8455C67.5682 36.8455 69.2318 38.4754 69.7871 39.5476C70.3424 40.6173 70.8953 42.1967 73.1142 41.6294C73.1142 41.6294 71.2295 45.0911 63.7964 46.4037C63.7964 46.4037 64.621 47.0479 64.7267 48.4711C64.8325 49.8942 64.8301 53.3367 67.1259 53.892C67.1259 53.892 62.9887 55.2575 60.4525 52.8896C60.4525 52.8896 59.0413 58.724 54.0988 62.6521C54.0988 62.6521 55.1349 60.1832 55.1349 59.1063C55.1349 59.1063 51.8679 63.0343 49.2259 64.9815C49.2259 64.9815 49.5721 63.5223 49.4327 62.8612C49.4327 62.8612 45.8171 66.4768 44.531 66.859L43.2449 67.2413C43.2449 67.2413 43.8362 66.3879 43.9853 65.4527C43.9853 65.4527 41.4924 68.263 38.9586 69.1981C38.9586 69.1981 35.8743 68.0971 34.0569 66.1691C34.0569 66.1691 33.7804 66.7196 34.5521 67.6019C34.5521 67.6019 32.0183 65.9503 31.0279 64.0777C30.0375 62.205 30.588 65.1787 31.0279 66.2268C31.0279 66.2268 27.9027 64.8493 26.6839 62.1497C26.6839 62.1497 26.4219 64.0777 27.1623 64.4623C27.1623 64.4623 22.3255 61.5992 20.3423 56.9162C18.359 52.2333 17.3133 52.2814 16.7075 52.892C16.1017 53.5026 15.6065 54.4834 14.6136 54.6253C14.6136 54.6253 14.6136 52.0698 13.6761 51.1323C12.7385 50.1947 13.3467 47.6634 13.3467 47.6634C13.3467 47.6634 9.2696 49.6466 9.05084 50.8582C9.05084 50.8582 8.33445 46.4518 11.5846 43.3675C11.5846 43.3675 5.36075 42.7617 2 36.9777C2 36.9777 7.83924 36.6484 9.38018 33.7276C9.38018 33.7276 6.18531 32.6265 3.37748 34.1122C3.37748 34.1122 6.13242 29.4581 10.5389 28.9749C10.5389 28.9749 4.53619 24.0877 3.8751 18.8542C3.8751 18.8542 7.23585 20.561 9.16383 19.5706C11.0918 18.5802 13.2938 16.7075 17.2604 17.4767C17.2604 17.4767 14.5607 16.1546 10.4307 17.2003C10.4307 17.2003 13.0198 13.3996 18.7484 14.9983C18.7484 14.9983 15.6642 9.10372 18.0874 5.85596C18.0874 5.85596 19.3542 8.77438 21.6116 8.82967C23.8689 8.88496 28.9365 10.5365 30.3139 11.9693C30.3139 11.9693 25.0252 7.01227 32.1313 2C32.1313 2 31.5808 3.65153 33.3429 4.91842C35.105 6.18531 38.8384 7.38729 40.1125 10.4499V10.4475Z" fill="#F5F3F6" stroke="black" stroke-width="0.72119" stroke-miterlimit="10" stroke-linecap="round"/>
<path d="M73.1171 41.6268C60.8761 44.3145 58.9313 41.3504 57.3134 38.1988C55.6955 35.0472 18.8091 38.6627 17.3258 38.9536C15.8426 39.2469 12.5059 39.4032 7.87102 39.545C5.70504 39.6123 3.78186 38.3286 2.3467 36.9439C2.13034 36.9655 2.00293 36.9728 2.00293 36.9728C5.36368 42.7567 11.5875 43.3625 11.5875 43.3625C8.33738 46.4468 9.05376 50.8533 9.05376 50.8533C9.27493 49.6417 13.3497 47.6584 13.3497 47.6584C13.3497 47.6584 12.7439 50.1922 13.679 51.1273C14.6141 52.0649 14.6141 54.6203 14.6141 54.6203C15.6046 54.4784 16.1022 53.4952 16.708 52.887C17.3138 52.2764 18.3595 52.2307 20.3428 56.9113C22.3261 61.5942 27.1629 64.4573 27.1629 64.4573C26.4224 64.0727 26.6845 62.1447 26.6845 62.1447C27.9033 64.8444 31.0284 66.2218 31.0284 66.2218C30.5885 65.1761 30.038 62.2 31.0284 64.0727C32.0189 65.9454 34.5526 67.5969 34.5526 67.5969C33.781 66.7146 34.0574 66.1641 34.0574 66.1641C35.8748 68.0921 38.9591 69.1931 38.9591 69.1931C41.4929 68.2556 43.9858 65.4478 43.9858 65.4478C43.8344 66.3853 43.2454 67.2363 43.2454 67.2363L44.5315 66.8541C45.8176 66.4718 49.4332 62.8563 49.4332 62.8563C49.5726 63.5174 49.2265 64.9766 49.2265 64.9766C51.8684 63.0294 55.1354 59.1013 55.1354 59.1013C55.1354 60.1783 54.0993 62.6471 54.0993 62.6471C59.0419 58.719 60.453 52.8846 60.453 52.8846C62.9916 55.2525 67.1264 53.8871 67.1264 53.8871C64.833 53.3318 64.833 49.8893 64.7272 48.4661C64.6239 47.043 63.7993 46.3987 63.7993 46.3987C71.23 45.0861 73.1171 41.6244 73.1171 41.6244V41.6268Z" fill="#D8C5DE"/>
<path d="M40.1125 10.4475C40.1125 10.4475 41.9347 5.56749 40.1125 3.23804C40.1125 3.23804 43.8242 2.8486 43.9877 11.7793C43.9877 11.7793 46.6801 5.23574 56.7912 8.784C56.7912 8.784 52.6252 9.67106 50.9472 12.6664C50.9472 12.6664 54.2214 11.224 56.7912 12.1111C59.3611 12.9982 63.2435 14.4405 64.907 12.6664C64.907 12.6664 65.4623 16.6594 61.2458 19.21C61.2458 19.21 64.794 16.8806 69.1212 22.2053C69.1212 22.2053 66.0152 21.0971 63.6858 22.2053C63.6858 22.2053 66.6812 22.7607 68.1235 24.3136C69.5659 25.8666 71.6718 26.6431 73.1142 26.3089C73.1142 26.3089 71.0059 31.189 67.2365 32.7419C67.2365 32.7419 71.5612 32.6362 73.1142 38.9562C73.1142 38.9562 70.8953 36.9561 67.5682 36.8455C67.5682 36.8455 69.2318 38.4754 69.7871 39.5476C70.3424 40.6173 70.8953 42.1967 73.1142 41.6294C73.1142 41.6294 71.2295 45.0911 63.7964 46.4037C63.7964 46.4037 64.621 47.0479 64.7267 48.4711C64.8325 49.8942 64.8301 53.3367 67.1259 53.892C67.1259 53.892 62.9887 55.2575 60.4525 52.8896C60.4525 52.8896 59.0413 58.724 54.0988 62.6521C54.0988 62.6521 55.1349 60.1832 55.1349 59.1062C55.1349 59.1062 51.8679 63.0343 49.2259 64.9815C49.2259 64.9815 49.5721 63.5223 49.4327 62.8612C49.4327 62.8612 45.8171 66.4768 44.531 66.859L43.2449 67.2413C43.2449 67.2413 43.8362 66.3879 43.9853 65.4527C43.9853 65.4527 41.4924 68.263 38.9586 69.1981C38.9586 69.1981 35.8743 68.0971 34.0569 66.1691C34.0569 66.1691 33.7804 66.7196 34.5521 67.6019C34.5521 67.6019 32.0183 65.9503 31.0279 64.0777C30.0375 62.205 30.588 65.1787 31.0279 66.2268C31.0279 66.2268 27.9027 64.8493 26.6839 62.1497C26.6839 62.1497 26.4219 64.0777 27.1623 64.4623C27.1623 64.4623 22.3255 61.5992 20.3423 56.9162C18.359 52.2333 17.3133 52.2814 16.7075 52.892C16.1017 53.5026 15.6065 54.4834 14.6136 54.6253C14.6136 54.6253 14.6136 52.0698 13.6761 51.1323C12.7385 50.1947 13.3467 47.6634 13.3467 47.6634C13.3467 47.6634 9.2696 49.6466 9.05084 50.8582C9.05084 50.8582 8.33445 46.4518 11.5846 43.3675C11.5846 43.3675 5.36075 42.7617 2 36.9777C2 36.9777 7.83924 36.6484 9.38018 33.7276C9.38018 33.7276 6.18531 32.6265 3.37748 34.1122C3.37748 34.1122 6.13242 29.4581 10.5389 28.9749C10.5389 28.9749 4.53619 24.0877 3.8751 18.8542C3.8751 18.8542 7.23585 20.561 9.16383 19.5706C11.0918 18.5802 13.2938 16.7075 17.2604 17.4767C17.2604 17.4767 14.5607 16.1546 10.4307 17.2003C10.4307 17.2003 13.0198 13.3996 18.7484 14.9983C18.7484 14.9983 15.6642 9.10372 18.0874 5.85596C18.0874 5.85596 19.3542 8.77438 21.6116 8.82967C23.8689 8.88496 28.9365 10.5365 30.3139 11.9693C30.3139 11.9693 25.0252 7.01227 32.1313 2C32.1313 2 31.5808 3.65153 33.3429 4.91842C35.105 6.18531 38.8384 7.38729 40.1125 10.4499V10.4475Z" stroke="black" stroke-width="0.72119" stroke-miterlimit="10" stroke-linecap="round"/>
<path d="M22.3016 47.4516L19.376 47.2593L18.0033 47.6439C18.0033 47.6439 16.8903 48.5214 16.6979 48.9372C16.5056 49.3531 16.371 50.596 16.3782 51.4566C16.3854 52.3172 16.5874 53.9351 17.1932 54.6515C17.799 55.3679 18.5899 56.3631 19.3375 56.4809C20.0851 56.5987 22.2511 57.4016 23.2463 57.2189C24.2416 57.0362 24.0781 56.4496 24.0781 56.4496L22.2992 47.4492L22.3016 47.4516Z" fill="#FAE3E2"/>
<path d="M22.7078 57.3462C21.6693 57.3462 19.6668 57.166 18.1379 55.9255C17.0273 55.0264 16.3806 53.7355 16.2147 52.0888C16.02 50.1536 16.3926 48.7545 17.3253 47.9275C18.5754 46.8217 20.3664 47.151 20.5803 47.1967H21.9698C22.0491 47.1967 22.1165 47.252 22.1333 47.3289C22.203 47.6727 23.8545 55.762 23.5396 57.1876C23.5252 57.2573 23.4651 57.3078 23.3954 57.3174C23.3593 57.3222 23.1045 57.3487 22.7078 57.3487V57.3462ZM19.7221 47.4515C19.0947 47.4515 18.2172 47.5789 17.5441 48.1775C16.6979 48.9276 16.3614 50.2329 16.5465 52.0551C16.7027 53.6105 17.3085 54.8269 18.347 55.6683C20.1212 57.1034 22.6477 57.0337 23.2343 56.9953C23.4146 55.4543 22.0467 48.5742 21.8352 47.5284H20.5659C20.5539 47.5284 20.5419 47.5284 20.5298 47.5236C20.5226 47.5236 20.1933 47.4515 19.7245 47.4515H19.7221Z" fill="black"/>
<path d="M22.8013 55.1975C21.5368 55.1854 20.6041 54.8369 20.0271 54.1614C19.342 53.3608 19.3276 52.2983 19.4381 51.5506C19.5054 51.0915 19.717 50.7309 20.0656 50.4809C20.6954 50.0289 21.6017 50.0626 21.9984 50.1035V49.5457C20.6065 48.9111 19.5535 48.8318 18.8684 49.315C17.7794 50.0818 17.9525 52.0362 17.9549 52.0555C17.9645 52.1468 17.8972 52.2286 17.8058 52.2358C17.7145 52.2454 17.6328 52.1781 17.6255 52.0867C17.6159 51.9978 17.4332 49.9184 18.6785 49.0433C19.4838 48.476 20.681 48.5577 22.2363 49.2885C22.294 49.315 22.3325 49.3751 22.3325 49.44V50.2934C22.3325 50.3414 22.3109 50.3895 22.2724 50.4208C22.234 50.452 22.1859 50.4641 22.1354 50.4568C22.1234 50.4568 20.955 50.2501 20.2603 50.7501C19.9886 50.9472 19.8228 51.2309 19.7675 51.5987C19.6689 52.279 19.6761 53.2406 20.2795 53.9474C20.7916 54.546 21.6402 54.8561 22.8037 54.8681C22.895 54.8681 22.9696 54.945 22.9672 55.0364C22.9672 55.1277 22.8926 55.1999 22.8013 55.1999V55.1975Z" fill="black"/>
<path d="M54.2841 47.4516L57.2097 47.2593L58.5824 47.6439C58.5824 47.6439 59.6954 48.5214 59.8877 48.9372C60.0801 49.3531 60.2147 50.596 60.2075 51.4566C60.2003 52.3172 59.9983 53.9351 59.3925 54.6515C58.7867 55.3703 57.9958 56.3631 57.2482 56.4809C56.5005 56.5987 54.3346 57.4016 53.3393 57.2189C52.3441 57.0362 52.5076 56.4496 52.5076 56.4496L54.2865 47.4492L54.2841 47.4516Z" fill="#FAE3E2"/>
<path d="M53.1925 57.3152C53.1228 57.308 53.0627 57.2551 53.0483 57.1854C52.7309 55.7598 54.3825 47.6705 54.4546 47.3267C54.4714 47.2498 54.5387 47.1945 54.6181 47.1945H56.0075C56.2239 47.1488 58.0149 46.8195 59.2625 47.9253C60.1953 48.7499 60.5679 50.1514 60.3731 52.0866C60.2073 53.7333 59.5606 55.0242 58.45 55.9233C56.9186 57.1614 54.9162 57.3441 53.88 57.3441C53.4834 57.3441 53.2286 57.3176 53.1925 57.3128V57.3152ZM56.0604 47.5238C56.0604 47.5238 56.0364 47.5287 56.0244 47.5287H54.7551C54.5435 48.5744 53.1757 55.4545 53.356 56.9955C53.9425 57.0339 56.4691 57.1037 58.2432 55.6685C59.2817 54.8271 59.8875 53.6131 60.0438 52.0553C60.2265 50.2331 59.8924 48.9278 59.0462 48.1777C58.3731 47.5791 57.4956 47.4517 56.8682 47.4517C56.4018 47.4517 56.0725 47.5214 56.0628 47.5238H56.0604Z" fill="black"/>
<path d="M53.787 55.1975C55.0515 55.1854 55.9842 54.8369 56.5612 54.1614C57.2463 53.3608 57.2608 52.2983 57.1502 51.5506C57.0829 51.0915 56.8713 50.7309 56.5227 50.4809C55.8929 50.0289 54.9866 50.0626 54.5899 50.1035V49.5457C55.9818 48.9111 57.0348 48.8318 57.7199 49.315C58.8089 50.0818 58.6358 52.0362 58.6334 52.0555C58.6238 52.1468 58.6911 52.2286 58.7825 52.2358C58.8738 52.2454 58.9555 52.1781 58.9628 52.0867C58.9724 51.9978 59.1551 49.9184 57.9098 49.0433C57.1045 48.476 55.9073 48.5577 54.352 49.2885C54.2943 49.315 54.2558 49.3751 54.2558 49.44V50.2934C54.2558 50.3414 54.2774 50.3895 54.3159 50.4208C54.3544 50.452 54.4024 50.4641 54.4529 50.4568C54.4649 50.4568 55.6333 50.2501 56.328 50.7501C56.5997 50.9472 56.7655 51.2309 56.8208 51.5987C56.9194 52.279 56.9122 53.2406 56.3088 53.9474C55.7967 54.546 54.9481 54.8561 53.7846 54.8681C53.6933 54.8681 53.6187 54.945 53.6212 55.0364C53.6212 55.1277 53.6957 55.1999 53.787 55.1999V55.1975Z" fill="black"/>
<path d="M38.5285 64.438C48.6015 64.438 56.7673 56.2722 56.7673 46.1991C56.7673 36.126 48.6015 27.9602 38.5285 27.9602C28.4554 27.9602 20.2896 36.126 20.2896 46.1991C20.2896 56.2722 28.4554 64.438 38.5285 64.438Z" fill="#F7E3E4"/>
<path d="M24.6434 22.5871L22.3765 31.1091L37.5599 35.3185L45.2598 36.9171H50.2889L54.7435 41.3524L59.9409 36.9171L56.7676 23.0006L48.4956 16.8127L24.6434 22.5871Z" fill="#F5F3F6"/>
<path d="M28.3166 45.1248C28.3166 45.1248 32.7976 45.3917 35.0165 50.2958C35.0165 50.2958 34.4275 53.8512 31.6654 54.7335C28.9032 55.6158 22.9125 55.5773 22.0303 48.512C22.0303 48.512 24.3862 45.0046 28.3166 45.1248Z" fill="#FDF9F9"/>
<path d="M34.0979 48.5818C32.1122 46.2331 28.8356 44.4061 25.809 45.798C24.5133 46.3845 23.4195 47.3245 22.4795 48.4015L22.5348 48.2572C22.5517 51.5194 24.3787 54.3465 27.6889 55.0292C24.1815 54.6446 21.6478 51.6276 21.6045 48.2428V48.1659L21.6598 48.101C22.4266 47.2043 23.7849 46.3845 24.8258 45.7835C28.237 43.7041 32.0065 45.5768 34.0979 48.5794V48.5818Z" fill="black"/>
<path d="M30.1678 54.4425C32.3385 54.4425 34.0983 52.6828 34.0983 50.512C34.0983 48.3413 32.3385 46.5815 30.1678 46.5815C27.997 46.5815 26.2373 48.3413 26.2373 50.512C26.2373 52.6828 27.997 54.4425 30.1678 54.4425Z" fill="#7888D9"/>
<path d="M30.4943 52.8871C32.2877 52.8871 33.7709 51.5721 34.0378 49.8533C33.7253 47.995 32.1122 46.5791 30.165 46.5791C28.9534 46.5791 27.8692 47.1272 27.148 47.9902C26.9893 48.3941 26.9004 48.834 26.9004 49.2932C26.9004 51.2765 28.5086 52.8847 30.4919 52.8847L30.4943 52.8871Z" fill="#222D4B"/>
<path d="M30.1669 54.6203C27.9 54.6203 26.0562 52.7764 26.0562 50.5095C26.0562 48.2426 27.9 46.4011 30.1669 46.4011C32.4339 46.4011 34.2777 48.245 34.2777 50.5095C34.2777 52.774 32.4339 54.6203 30.1669 54.6203ZM30.1669 46.7569C28.0971 46.7569 26.4143 48.4397 26.4143 50.5095C26.4143 52.5793 28.0971 54.2621 30.1669 54.2621C32.2368 54.2621 33.9195 52.5793 33.9195 50.5095C33.9195 48.4397 32.2368 46.7569 30.1669 46.7569Z" fill="black"/>
<path d="M32.1405 50.5117C33.0101 50.5117 33.7151 49.8068 33.7151 48.9371C33.7151 48.0675 33.0101 47.3625 32.1405 47.3625C31.2709 47.3625 30.5659 48.0675 30.5659 48.9371C30.5659 49.8068 31.2709 50.5117 32.1405 50.5117Z" fill="#FDF9F9"/>
<path d="M37.2476 55.1274L38.4568 55.0312V56.4544C38.4568 56.4544 37.5 56.2212 37.2476 55.1274Z" fill="black"/>
<path d="M21.6021 41.3528C24.9171 38.7469 30.1265 38.9801 33.1579 41.9225C29.4318 39.8936 25.5109 39.7181 21.6021 41.3528Z" fill="black"/>
<path d="M33.7151 45.574C30.1428 43.4898 26.6859 43.3672 23.7603 46.5813C26.0584 42.8071 30.5995 42.8071 33.7151 45.574Z" fill="black"/>
<path d="M48.0285 45.1248C48.0285 45.1248 43.5475 45.3917 41.3286 50.2958C41.3286 50.2958 41.9176 53.8512 44.6797 54.7335C47.4419 55.6158 53.4326 55.5773 54.3149 48.512C54.3149 48.512 51.959 45.0046 48.0285 45.1248Z" fill="#FDF9F9"/>
<path d="M42.2471 48.5818C44.2327 46.2331 47.5094 44.4061 50.5359 45.798C51.8317 46.3845 52.9255 47.3245 53.8654 48.4015L53.8101 48.2572C53.7933 51.5194 51.9663 54.3465 48.656 55.0292C52.1634 54.6446 54.6972 51.6276 54.7405 48.2428V48.1659L54.6852 48.101C53.9183 47.2043 52.5601 46.3845 51.5192 45.7835C48.1079 43.7041 44.3385 45.5768 42.2471 48.5794V48.5818Z" fill="black"/>
<path d="M46.1776 54.4425C48.3483 54.4425 50.108 52.6828 50.108 50.512C50.108 48.3413 48.3483 46.5815 46.1776 46.5815C44.0068 46.5815 42.2471 48.3413 42.2471 50.512C42.2471 52.6828 44.0068 54.4425 46.1776 54.4425Z" fill="#7888D9"/>
<path d="M45.8511 52.8871C44.0577 52.8871 42.5745 51.5721 42.3076 49.8533C42.6201 47.995 44.2332 46.5791 46.1804 46.5791C47.392 46.5791 48.4762 47.1272 49.1974 47.9902C49.356 48.3941 49.445 48.834 49.445 49.2932C49.445 51.2765 47.8367 52.8847 45.8535 52.8847L45.8511 52.8871Z" fill="#222D4B"/>
<path d="M42.0693 50.5117C42.0693 48.2448 43.9132 46.4033 46.1801 46.4033C48.4471 46.4033 50.2909 48.2472 50.2909 50.5117C50.2909 52.7786 48.4471 54.6225 46.1801 54.6225C43.9132 54.6225 42.0693 52.7786 42.0693 50.5117ZM42.4251 50.5117C42.4251 52.5815 44.1079 54.2643 46.1777 54.2643C48.2475 54.2643 49.9303 52.5815 49.9303 50.5117C49.9303 48.4419 48.2475 46.7591 46.1777 46.7591C44.1079 46.7591 42.4251 48.4419 42.4251 50.5117Z" fill="black"/>
<path d="M48.1224 50.5117C48.9921 50.5117 49.697 49.8068 49.697 48.9371C49.697 48.0675 48.9921 47.3625 48.1224 47.3625C47.2528 47.3625 46.5479 48.0675 46.5479 48.9371C46.5479 49.8068 47.2528 50.5117 48.1224 50.5117Z" fill="#FDF9F9"/>
<path d="M54.7434 41.3528C51.4283 38.7469 46.2189 38.9801 43.1875 41.9225C46.9136 39.8936 50.8345 39.7181 54.7434 41.3528Z" fill="black"/>
<path d="M42.6299 45.574C46.2022 43.4898 49.6591 43.3672 52.5847 46.5813C50.2865 42.8071 45.7454 42.8071 42.6299 45.574Z" fill="black"/>
<path d="M34.9531 31.1096H35.0565C35.131 30.9365 35.2104 30.7634 35.2921 30.5879C35.2921 30.5879 35.1623 30.7706 34.9555 31.1096H34.9531Z" fill="#F6F4F7"/>
<path d="M28.4414 29.1909C28.5015 29.1188 28.5592 29.0467 28.6217 28.9722C28.6217 28.9722 28.5568 29.0467 28.4414 29.1909Z" fill="#F6F4F7"/>
<path d="M28.4411 29.1912C27.9026 29.8402 27.4218 30.4773 26.9939 31.0951L24.5418 31.0903C23.0105 32.4966 21.9576 33.8981 21.258 35.254L21.484 29.1984C21.484 29.1984 16.4669 33.2082 15.575 39.7782C14.6832 46.3483 20.9888 52.3077 21.484 52.5313C21.484 52.5313 19.4551 47.1416 20.9287 44.0741C21.7605 46.1055 22.9096 47.3652 22.9096 47.3652C22.359 43.2039 23.2004 39.3864 24.3928 36.3189C22.4624 42.8577 26.5443 46.5815 26.5443 46.5815C26.7631 38.3863 31.1095 33.0399 31.1095 33.0399C27.4891 38.8864 31.8331 45.1247 31.8331 45.1247C30.9532 38.3166 33.9221 32.7851 34.9486 31.1119L27.0756 31.0951C27.6814 30.1624 28.1839 29.5085 28.4387 29.1912H28.4411Z" fill="#F6F4F7"/>
<path d="M47.8627 36.2731C46.817 34.2778 45.4948 32.3811 43.8721 31.1286L35.0568 31.1118C30.4748 41.622 36.4198 46.8842 40.6917 48.9396C40.6917 48.9396 38.7709 43.8721 39.6339 36.7563C39.5306 39.3406 40.3046 43.2951 45.2592 45.7327C45.2592 45.7327 42.4153 40.6628 42.3072 34.6625C42.3072 34.6625 43.3505 42.3816 51.048 45.1245C51.048 45.1245 50.1801 41.0186 48.245 37.0328C53.2548 41.2277 52.9736 48.4733 52.9736 48.4733C52.9736 48.4733 58.0555 42.634 51.048 34.7899L47.8627 36.2755V36.2731Z" fill="#F6F4F7"/>
<path d="M54.7524 31.636V44.4034C56.3607 46.2929 55.6058 51.4446 55.6058 51.4446C61.2167 42.2831 59.2118 36.5016 54.7524 31.6335V31.636Z" fill="#F6F4F7"/>
<path d="M34.9531 31.1096H35.0565C35.131 30.9365 35.2104 30.7634 35.2921 30.5879C35.2921 30.5879 35.1623 30.7706 34.9555 31.1096H34.9531Z" fill="#F6F4F7"/>
<path d="M28.4414 29.1909C28.5015 29.1188 28.5592 29.0467 28.6217 28.9722C28.6217 28.9722 28.5568 29.0467 28.4414 29.1909Z" fill="#F6F4F7"/>
<path d="M21.4866 52.5287C21.4866 52.5287 19.4576 47.139 20.9313 44.0716C21.763 46.1029 22.9121 47.3626 22.9121 47.3626C22.5035 44.2639 22.8665 41.3551 23.5684 38.8069C23.3953 38.8934 23.2992 38.9559 23.2992 38.9559C21.8256 38.1915 19.9961 39.0978 19.9961 39.0978C17.5946 38.992 16.2339 40.7613 15.5464 42.1172C16.1209 47.7016 21.0491 52.334 21.4842 52.5311L21.4866 52.5287Z" fill="#D8C5DE"/>
<path d="M23.9366 38.6386C23.427 43.7302 26.5497 46.5789 26.5497 46.5789C26.6338 43.4346 27.3262 40.7109 28.1459 38.5473C27.9608 38.605 27.8527 38.6483 27.8527 38.6483C26.3598 37.8477 24.7876 38.2829 23.9366 38.6386Z" fill="#D8C5DE"/>
<path d="M29.6768 38.2108C29.708 42.0572 31.8379 45.1222 31.8379 45.1222C31.5302 42.7447 31.6937 40.5258 32.0783 38.569C31.3884 38.1483 30.4773 38.1171 29.6768 38.2108Z" fill="#D8C5DE"/>
<path d="M39.6846 38.2684C39.9466 40.7156 41.1967 43.7326 45.2594 45.7327C45.2594 45.7327 43.3963 42.408 42.6294 37.9607C41.3072 37.5688 40.2279 37.9775 39.6846 38.2684Z" fill="#D8C5DE"/>
<path d="M40.6917 48.9371C40.6917 48.9371 39.0618 44.6316 39.4825 38.3837C39.3671 38.4558 39.3046 38.5039 39.3046 38.5039C38.0113 38.0134 35.0905 38.249 33.4053 38.4414C33.5279 44.1989 37.5593 47.4298 40.6917 48.9371Z" fill="#D8C5DE"/>
<path d="M52.974 48.4685C52.974 48.4685 56.6353 44.2616 53.4572 38.1916C52.111 37.504 50.183 37.718 49.1733 37.9031C53.2168 42.1557 52.974 48.4685 52.974 48.4685Z" fill="#D8C5DE"/>
<path d="M48.6945 38.0016C48.5671 38.0305 48.495 38.0497 48.495 38.0497C46.6031 37.242 44.1486 37.8718 43.4082 38.0954C44.5357 40.5186 46.7569 43.5933 51.048 45.1222C51.048 45.1222 50.3148 41.6557 48.6945 38.0016Z" fill="#D8C5DE"/>
<path d="M58.8974 43.1389C57.9503 40.0787 56.0391 38.9128 54.7554 38.468V44.4058C56.3636 46.2953 55.6088 51.447 55.6088 51.447C57.5272 48.3147 58.5537 45.579 58.8974 43.1389Z" fill="#D8C5DE"/>
<path d="M24.5298 30.9917C20.2772 34.9077 18.7194 40.1147 21.7075 45.3265C22.0801 45.9804 22.5129 46.6151 23.0009 47.1752L22.7677 47.2834C21.8662 40.6508 24.3519 33.9101 28.4338 28.7247L28.7872 29.0252C27.7559 30.2681 26.8088 31.5831 26.0371 32.9942C24.5058 35.7563 23.6355 39.0738 24.4817 42.187C24.8832 43.6894 25.6476 45.1559 26.7438 46.2593L26.2342 46.4756L26.2871 45.5597C26.4866 42.2014 27.4121 38.8887 28.9242 35.8838C29.4796 34.7875 30.0926 33.7394 30.8546 32.7394L31.3811 33.1144C30.2897 34.8741 29.8329 36.9728 30.0493 39.0305C30.2512 41.0739 31.0061 43.1173 32.1095 44.8337L31.4917 45.0717C30.8666 39.9296 32.1768 34.6289 34.9967 30.2897L35.6025 30.6407C35.2419 31.4532 34.8885 32.2706 34.6192 33.1168C33.1336 37.3333 33.3956 42.0932 36.5833 45.4539C37.7684 46.7545 39.2445 47.7834 40.8239 48.5527L40.384 48.9565C39.9633 47.7401 39.6964 46.5213 39.4897 45.2785C38.8743 41.5595 38.9969 37.7396 39.7493 34.0519L40.3311 34.2106C38.9704 38.9488 40.92 43.276 45.365 45.4107L45.038 45.7544C43.2663 42.2951 42.1965 38.4584 42.1028 34.5664L42.5043 34.5351C43.1197 37.9824 45.0837 41.247 47.9565 43.2832C48.9204 43.9587 49.9758 44.502 51.084 44.9107L50.9253 45.0501C49.8171 40.3335 47.7112 34.1721 43.8673 31.0301C47.8098 34.1409 49.9734 40.2446 51.1609 44.9996L51.2114 45.2111C49.4349 44.6126 47.7617 43.6702 46.3795 42.3961C44.1606 40.3479 42.6533 37.5593 42.1052 34.5904L42.5067 34.5592C42.5884 37.4223 43.2471 40.2542 44.288 42.9178C44.7231 44.0452 45.2592 45.1486 45.8434 46.1944C44.5452 45.591 43.2783 44.8722 42.2278 43.8769C39.5305 41.4417 38.7276 37.4295 39.7661 34.0111L40.3479 34.1697C40.2445 34.7755 40.1171 35.3789 40.0354 35.9871C39.7709 37.8117 39.6796 39.6604 39.7493 41.5042C39.8527 43.9346 40.2181 46.4252 40.9946 48.7209L41.2542 49.4638L40.5546 49.1248C32.6432 45.2448 31.422 37.8815 34.975 30.3378L35.5808 30.6888C34.9053 31.7057 34.326 32.8379 33.838 33.9846C32.3595 37.4319 31.7273 41.2446 32.1792 44.9756L32.3162 46.3675L31.5638 45.2136C29.8137 42.4466 28.8786 39.0498 29.5974 35.8044C29.8305 34.7274 30.2753 33.701 30.845 32.7634L31.3715 33.1384C30.6647 34.0591 30.0445 35.1049 29.5084 36.1626C28.0276 39.0882 27.1165 42.3168 26.9121 45.591C26.8929 45.9636 26.84 46.7906 26.8184 47.1632C22.6138 43.276 22.9215 37.4031 25.614 32.7418C26.4169 31.3018 27.3953 29.9724 28.4507 28.7175L28.804 29.018C24.6548 34.1914 22.1643 41.021 23.1066 47.6848C20.4623 44.7183 19.1834 40.3455 20.6089 36.5376C21.3806 34.3693 22.8614 32.5134 24.5514 30.9821L24.5298 30.9917Z" fill="black"/>
<path d="M21.4747 29.0974C18.3086 32.1721 16.0056 36.3429 15.8229 40.7927C15.8037 45.0044 18.5322 49.4037 21.5876 52.1803L21.2198 52.5264C20.7559 51.1297 20.4385 49.7066 20.3087 48.245C20.2006 46.8074 20.2486 45.2761 20.9217 43.9731C20.6525 44.6462 20.5443 45.3626 20.5083 46.0718C20.453 48.4493 21.1309 50.8076 21.9891 53L21.3641 52.6779C20.84 52.3558 20.4482 51.9206 20.0179 51.4951C16.9384 48.2306 14.4046 43.675 15.3542 39.057C16.0778 35.1434 18.3784 31.559 21.4771 29.095L21.4747 29.0974Z" fill="black"/>
<path d="M47.4785 36.3477C51.0027 38.4992 52.8177 42.6316 53.2264 46.6246C53.2865 47.2088 53.3226 47.7785 53.3129 48.3843L52.6951 48.1391C53.4235 47.2064 53.9284 46.0621 54.1928 44.9058C55.0823 41.2181 53.3105 37.5304 51.0364 34.6865C54.8635 38.379 56.6833 44.0163 53.2264 48.6007L52.5869 49.3772C52.8201 44.6101 51.3441 39.4103 47.4785 36.3453V36.3477Z" fill="black"/>
<path d="M54.7407 31.5374C59.6448 36.2708 60.5728 41.7061 57.7938 47.8891C57.6567 48.2521 57.3659 48.7714 57.1928 49.1224C56.6254 50.2715 55.7384 51.6153 55.0917 52.7283L55.3201 51.31C55.5845 49.2354 55.9475 46.1198 54.7431 44.3072C55.9475 45.7304 55.9619 47.7786 55.986 49.5551C55.9764 50.1681 55.9379 50.7739 55.8706 51.3893L55.3585 51.2042C59.4741 44.0476 60.2819 38.2084 54.7431 31.5398L54.7407 31.5374Z" fill="black"/>
<path d="M36.9608 24.1068C36.9608 24.1068 33.1313 24.8016 33.9919 28.9725C34.8525 33.1433 39.5499 35.2156 46.5647 34.3429C35.3934 28.434 39.0138 25.2295 39.0138 25.2295C47.6416 22.6092 54.029 30.0062 54.029 30.0062C51.3389 19.7605 40.7374 18.5272 37.5642 23.5347C38.7349 15.1376 43.9179 15.0607 43.9179 15.0607C35.3405 13.0582 30.999 19.3758 34.7299 23.8448C25.905 20.7437 28.2368 16.5271 28.2368 16.5271C23.6404 21.9336 26.667 27.4748 33.9895 25.2968C26.2776 28.7249 30.1023 34.7925 34.3236 35.3213C34.3236 35.3213 31.3499 33.0712 32.0038 30.4221C32.6577 27.7705 34.1265 26.2608 34.1265 26.2608" fill="#F6F4F7"/>
<path d="M37.0305 24.1066C35.1914 24.549 33.8933 25.9889 34.0063 27.9289C34.0856 30.2247 35.4607 32.1575 37.4993 33.1576C40.3023 34.5447 43.5669 34.5254 46.6103 34.16L46.5454 34.5086C45.5718 33.9942 44.6102 33.4557 43.675 32.8715C41.6365 31.5469 38.4464 29.4026 38.2805 26.7342C38.2661 26.0995 38.4777 25.4529 38.9512 25.0033C44.526 23.1859 50.4759 25.6524 54.3342 29.8016L53.7957 30.0853C53.327 28.3544 52.589 26.6885 51.5072 25.2557C49.4085 22.4191 45.7857 20.58 42.2447 21.1089C40.5282 21.3565 38.8671 22.2388 37.9296 23.7196L36.9872 25.1812L37.2877 23.484C37.7469 20.2795 39.0113 16.7096 42.1293 15.2168C42.7183 14.9595 43.3289 14.748 43.9827 14.7143L43.9106 15.3923C42.5332 15.0773 41.1124 14.9307 39.7181 15.0725C37.6675 15.2865 35.5881 16.1904 34.4751 17.9717C33.338 19.7386 33.6745 22.0729 35.0424 23.6379L35.8405 24.5826L34.6962 24.1355C33.9342 23.847 32.8644 23.4263 32.1432 23.0513L31.8307 22.8998L31.5278 22.722C30.0013 21.8589 28.4796 20.6906 27.9122 18.9429C27.655 18.1039 27.6646 17.188 28.0541 16.3803L28.5228 16.7048C27.2944 18.164 26.2631 19.9718 26.3977 21.9214C26.5083 23.96 28.1935 25.2966 30.1455 25.4937C31.4364 25.6596 32.7514 25.4456 33.9991 25.0923L34.1409 25.4769C32.0711 26.3832 29.7368 28.0179 29.7873 30.5228C29.8787 32.9196 32.0999 34.886 34.4029 35.2106L34.3284 35.3909C33.0062 34.285 31.8018 32.7056 31.9293 30.8978C32.2298 29.1838 33.0399 27.5515 34.1914 26.251C33.338 27.2342 32.7322 28.417 32.3355 29.6526C32.1985 30.0637 32.0999 30.4868 32.0446 30.9075C31.9918 31.7633 32.2706 32.6119 32.7322 33.3331C33.2466 34.1672 33.9606 34.8692 34.7347 35.4558C32.7562 35.3043 30.8715 34.1192 29.958 32.3402C28.2752 29.0131 31.0951 26.3375 33.975 25.0995L34.1169 25.4841C33.4678 25.6716 32.8091 25.8255 32.136 25.9168C30.7802 26.0803 29.3474 25.9962 28.1094 25.3495C26.102 24.3494 25.4698 21.9334 26.1044 19.8925C26.6285 17.8227 28.3257 16.0678 29.6287 14.4619L28.5565 16.6543C28.3714 17.0486 28.3065 17.551 28.3281 17.9958C28.3594 18.1496 28.3618 18.3083 28.3954 18.4597L28.482 18.7626L28.5252 18.9141L28.5925 19.0583C29.2849 20.6618 30.898 21.7291 32.4221 22.4936C33.1048 22.847 34.177 23.2652 34.9054 23.5369L34.5592 24.0345C32.3788 21.52 32.7658 17.914 35.4655 15.9524C37.9247 14.1254 41.2014 14.0605 44.0645 14.7167L46.4059 15.2456L43.9924 15.3947C43.5717 15.4283 43.1269 15.5437 42.7327 15.7072C40.1076 16.7601 38.8142 19.5824 38.2277 22.1955L37.9776 23.5754L37.3358 23.3398C38.3863 21.6858 40.2398 20.6954 42.1413 20.4286C45.9444 19.8757 49.7883 21.8325 52.0192 24.8615C53.1491 26.3664 53.9159 28.1092 54.3991 29.9194L54.7453 31.1719L53.8607 30.2031C51.1081 27.2727 47.2521 25.0923 43.1726 24.9456C41.8192 24.8903 40.4609 25.0899 39.1556 25.4649L39.2493 25.412C38.92 25.7413 38.7589 26.251 38.7685 26.7197C38.9777 29.8882 44.1751 32.7537 46.7185 34.1721L47.2353 34.4533L46.6536 34.523C43.5573 34.8668 40.2181 34.8115 37.3887 33.3547C35.314 32.2921 33.9246 30.2848 33.8837 27.9265C33.8068 25.9601 35.1506 24.5081 37.0257 24.1018L37.0305 24.1066Z" fill="black"/>
</svg>
