<svg width="55" height="74" viewBox="0 0 55 74" fill="none" xmlns="http://www.w3.org/2000/svg">
<path d="M29.2091 68.8792C15.2588 68.8792 3.9082 57.6481 3.9082 43.8446C3.9082 32.5747 11.5407 22.6799 22.4955 19.7031L29.2091 6.64062L35.9226 19.7031C46.8775 22.6799 54.51 32.5747 54.51 43.8446C54.51 57.6481 43.1594 68.8792 29.2091 68.8792Z" fill="#7E979B"/>
<path d="M29.2084 7.71478L35.5851 20.1172C46.1967 22.9031 54.0221 32.4678 54.0221 43.8445C54.0221 57.4021 42.9135 68.3937 29.2117 68.3937C15.5099 68.3937 4.4013 57.4021 4.4013 43.8445C4.4013 32.4678 12.2234 22.9031 22.8382 20.1172L29.2149 7.71478M29.2084 5.57275L28.3353 7.27473L22.1548 19.2953C11.0985 22.3983 3.41699 32.429 3.41699 43.8445C3.41699 57.9165 14.9867 69.3644 29.2084 69.3644C43.4301 69.3644 54.9998 57.9165 54.9998 43.8445C54.9998 32.429 47.3183 22.3951 36.2621 19.2953L30.0815 7.27473L29.2084 5.57275Z" fill="white"/>
<path d="M28.5286 21.9196C24.0322 17.5514 21.7463 11.4263 26.0956 6.06472C29.9151 1.49269 36.6221 -0.86614 42.5181 0.292237C48.1002 1.42473 50.8013 6.15856 50.1539 11.5654C49.5064 14.9176 47.0178 17.5385 44.7712 19.8908C36.3474 28.0512 26.2231 34.335 16.9033 41.3111C14.2774 43.3399 -2.58006 55.1275 4.04847 57.8908C6.58608 58.8097 9.47032 58.6576 12.2205 58.5703C19.9838 58.1399 27.7241 56.7777 35.5462 56.4153C38.5319 56.3377 41.6287 56.2632 44.5456 57.1919C53.3553 60.4761 54.1238 68.7109 45.1669 72.4741C43.3422 73.2344 41.4226 73.6939 39.49 73.9754C41.3965 73.5612 43.267 72.9691 44.9936 72.1052C50.942 69.2869 53.0937 63.385 46.6189 59.6737C43.3455 57.6546 39.3723 57.9296 35.6476 58.1658C27.8615 58.745 20.1996 60.3402 12.3578 60.8741C10.3729 60.997 8.37156 61.0682 6.30158 60.8644C2.22374 60.5344 -1.20334 58.4538 0.405559 53.885C1.58607 50.9211 3.93074 48.7176 6.14461 46.6209C17.7862 36.2408 31.8314 28.9055 43.2637 18.3798C45.2258 16.4481 47.25 14.4128 48.1493 11.8437C48.424 11.0186 48.4109 10.1449 48.3815 9.2907C48.2768 5.48552 45.9648 2.59605 42.1846 1.73212C36.815 0.525211 30.4449 2.53135 26.7725 6.61479C22.4004 11.5395 24.5096 17.5255 28.5318 21.9196H28.5286Z" fill="white"/>
<path d="M29.2088 68.3938C42.9112 68.3938 54.0192 57.4028 54.0192 43.8446C54.0192 30.2865 42.9112 19.2954 29.2088 19.2954C15.5064 19.2954 4.39844 30.2865 4.39844 43.8446C4.39844 57.4028 15.5064 68.3938 29.2088 68.3938Z" fill="#7E979B"/>
<path d="M19.0324 45.9025C20.7842 45.9025 22.2044 44.1424 22.2044 41.9711C22.2044 39.7999 20.7842 38.0398 19.0324 38.0398C17.2805 38.0398 15.8604 39.7999 15.8604 41.9711C15.8604 44.1424 17.2805 45.9025 19.0324 45.9025Z" fill="white"/>
<path fill-rule="evenodd" clip-rule="evenodd" d="M19.0321 38.6087C17.7118 38.6087 16.435 39.9879 16.435 41.9712C16.435 43.9544 17.7118 45.3337 19.0321 45.3337C20.3524 45.3337 21.6292 43.9544 21.6292 41.9712C21.6292 39.9879 20.3524 38.6087 19.0321 38.6087ZM15.2852 41.9712C15.2852 39.612 16.8487 37.4709 19.0321 37.4709C21.2155 37.4709 22.779 39.612 22.779 41.9712C22.779 44.3304 21.2155 46.4714 19.0321 46.4714C16.8487 46.4714 15.2852 44.3304 15.2852 41.9712Z" fill="black"/>
<path d="M39.382 45.9025C41.1338 45.9025 42.554 44.1424 42.554 41.9711C42.554 39.7999 41.1338 38.0398 39.382 38.0398C37.6301 38.0398 36.21 39.7999 36.21 41.9711C36.21 44.1424 37.6301 45.9025 39.382 45.9025Z" fill="white"/>
<path fill-rule="evenodd" clip-rule="evenodd" d="M39.3822 38.6087C38.0619 38.6087 36.7851 39.9879 36.7851 41.9712C36.7851 43.9544 38.0619 45.3337 39.3822 45.3337C40.7025 45.3337 41.9793 43.9544 41.9793 41.9712C41.9793 39.9879 40.7025 38.6087 39.3822 38.6087ZM35.6353 41.9712C35.6353 39.612 37.1988 37.4709 39.3822 37.4709C41.5656 37.4709 43.1291 39.612 43.1291 41.9712C43.1291 44.3304 41.5656 46.4714 39.3822 46.4714C37.1988 46.4714 35.6353 44.3304 35.6353 41.9712Z" fill="black"/>
<path fill-rule="evenodd" clip-rule="evenodd" d="M9.65039 46.7569C9.65039 46.4427 9.90779 46.188 10.2253 46.188H16.0952C16.4127 46.188 16.6701 46.4427 16.6701 46.7569C16.6701 47.071 16.4127 47.3257 16.0952 47.3257H10.2253C9.90779 47.3257 9.65039 47.071 9.65039 46.7569Z" fill="black"/>
<path fill-rule="evenodd" clip-rule="evenodd" d="M9.65039 49.0025C9.65039 48.6883 9.90779 48.4336 10.2253 48.4336H16.0952C16.4127 48.4336 16.6701 48.6883 16.6701 49.0025C16.6701 49.3166 16.4127 49.5713 16.0952 49.5713H10.2253C9.90779 49.5713 9.65039 49.3166 9.65039 49.0025Z" fill="black"/>
<path fill-rule="evenodd" clip-rule="evenodd" d="M41.7437 46.7569C41.7437 46.4427 42.0011 46.188 42.3186 46.188H48.1917C48.5092 46.188 48.7666 46.4427 48.7666 46.7569C48.7666 47.071 48.5092 47.3257 48.1917 47.3257H42.3186C42.0011 47.3257 41.7437 47.071 41.7437 46.7569Z" fill="black"/>
<path fill-rule="evenodd" clip-rule="evenodd" d="M41.7437 49.0025C41.7437 48.6883 42.0011 48.4336 42.3186 48.4336H48.1917C48.5092 48.4336 48.7666 48.6883 48.7666 49.0025C48.7666 49.3166 48.5092 49.5713 48.1917 49.5713H42.3186C42.0011 49.5713 41.7437 49.3166 41.7437 49.0025Z" fill="black"/>
<path fill-rule="evenodd" clip-rule="evenodd" d="M15.7984 54.6415C16.0679 54.4754 16.4225 54.5569 16.5903 54.8236L19.5618 59.544L22.1474 55.2074C22.2371 55.0569 22.3918 54.9556 22.5668 54.9325C22.7419 54.9095 22.9179 54.9674 23.0442 55.0894L24.3087 56.3112L25.5617 55.091C25.6704 54.9852 25.8171 54.9264 25.9696 54.9276C26.1221 54.9288 26.2679 54.9899 26.3748 55.0975L27.5794 56.3088L28.8702 55.0856C29.0967 54.871 29.4552 54.8755 29.676 55.0958L30.8833 56.3001L32.0905 55.0958C32.198 54.9886 32.3441 54.9281 32.4967 54.9276C32.6493 54.9271 32.7958 54.9866 32.904 55.093L34.1366 56.3054L35.3664 55.0934C35.4993 54.9624 35.6885 54.9038 35.8733 54.9365C36.058 54.9691 36.215 55.089 36.2938 55.2575L38.4566 59.8797L41.8323 54.8113C42.007 54.549 42.3636 54.4765 42.6287 54.6494C42.8938 54.8222 42.9671 55.1751 42.7924 55.4374L38.8486 61.3587C38.7338 61.531 38.5337 61.6283 38.3257 61.613C38.1178 61.5976 37.9345 61.472 37.8469 61.2847L35.5956 56.4733L34.5427 57.5109C34.3186 57.7318 33.9561 57.732 33.7317 57.5113L32.5016 56.3014L31.2914 57.5085C31.1835 57.6161 31.0366 57.6767 30.8833 57.6767C30.73 57.6767 30.5831 57.6161 30.4751 57.5085L29.2575 56.2939L27.965 57.5187C27.7379 57.7339 27.3781 57.7286 27.1576 57.5068L25.9585 56.301L24.7136 57.5133C24.4905 57.7306 24.1327 57.7313 23.9087 57.5148L22.7653 56.4101L20.0704 60.9303C19.9682 61.1016 19.7831 61.2076 19.5821 61.21C19.3811 61.2124 19.1935 61.1108 19.0872 60.942L15.6143 55.4251C15.4465 55.1584 15.5289 54.8076 15.7984 54.6415Z" fill="black"/>
<path d="M8.88768 53.1312C8.8419 53.1312 8.79939 53.115 8.76342 53.0794C8.69475 53.0115 8.69475 52.9014 8.76342 52.8335L9.52862 52.0764C9.5973 52.0084 9.70848 52.0084 9.77715 52.0764C9.84583 52.1443 9.84583 52.2543 9.77715 52.3222L9.01195 53.0794C8.97925 53.1118 8.93346 53.1312 8.88768 53.1312Z" fill="#FF98C9"/>
<path d="M9.37255 53.8559C9.32676 53.8559 9.28425 53.8397 9.24828 53.8041C9.17961 53.7361 9.17961 53.6261 9.24828 53.5582L11.4752 51.3547C11.5439 51.2867 11.6551 51.2867 11.7238 51.3547C11.7924 51.4226 11.7924 51.5326 11.7238 51.6006L9.49681 53.8041C9.46411 53.8365 9.41833 53.8559 9.37255 53.8559Z" fill="#FF98C9"/>
<path d="M13.751 53.1312C13.7052 53.1312 13.6627 53.115 13.6267 53.0794C13.558 53.0115 13.558 52.9014 13.6267 52.8335L14.3919 52.0764C14.4606 52.0084 14.5718 52.0084 14.6404 52.0764C14.7091 52.1443 14.7091 52.2543 14.6404 52.3222L13.8752 53.0794C13.8425 53.1118 13.7967 53.1312 13.751 53.1312Z" fill="#FF98C9"/>
<path d="M16.1836 53.1312C16.1378 53.1312 16.0953 53.115 16.0593 53.0794C15.9906 53.0115 15.9906 52.9014 16.0593 52.8335L16.8245 52.0764C16.8932 52.0084 17.0044 52.0084 17.0731 52.0764C17.1417 52.1443 17.1417 52.2543 17.0731 52.3222L16.3078 53.0794C16.2751 53.1118 16.2294 53.1312 16.1836 53.1312Z" fill="#FF98C9"/>
<path d="M14.2349 53.8559C14.1891 53.8559 14.1466 53.8397 14.1106 53.8041C14.0419 53.7361 14.0419 53.6261 14.1106 53.5582L16.3375 51.3547C16.4062 51.2867 16.5174 51.2867 16.5861 51.3547C16.6547 51.4226 16.6547 51.5326 16.5861 51.6006L14.3591 53.8041C14.3264 53.8365 14.2806 53.8559 14.2349 53.8559Z" fill="#FF98C9"/>
<path d="M11.3174 53.1312C11.2716 53.1312 11.2291 53.115 11.1931 53.0794C11.1244 53.0115 11.1244 52.9014 11.1931 52.8335L11.9583 52.0764C12.027 52.0084 12.1382 52.0084 12.2068 52.0764C12.2755 52.1443 12.2755 52.2543 12.2068 52.3222L11.4416 53.0794C11.4089 53.1118 11.3632 53.1312 11.3174 53.1312Z" fill="#FF98C9"/>
<path d="M11.8052 53.8559C11.7594 53.8559 11.7169 53.8397 11.6809 53.8041C11.6122 53.7361 11.6122 53.6261 11.6809 53.5582L13.9079 51.3547C13.9765 51.2867 14.0877 51.2867 14.1564 51.3547C14.225 51.4226 14.225 51.5326 14.1564 51.6006L11.9294 53.8041C11.8967 53.8365 11.8509 53.8559 11.8052 53.8559Z" fill="#FF98C9"/>
<path d="M41.4683 53.1312C41.4225 53.1312 41.38 53.115 41.344 53.0794C41.2753 53.0115 41.2753 52.9014 41.344 52.8335L42.1092 52.0764C42.1779 52.0084 42.2891 52.0084 42.3577 52.0764C42.4264 52.1443 42.4264 52.2543 42.3577 52.3222L41.5925 53.0794C41.5598 53.1118 41.514 53.1312 41.4683 53.1312Z" fill="#FF98C9"/>
<path d="M41.9526 53.8559C41.9068 53.8559 41.8643 53.8397 41.8284 53.8041C41.7597 53.7361 41.7597 53.6261 41.8284 53.5582L44.0553 51.3547C44.124 51.2867 44.2352 51.2867 44.3038 51.3547C44.3725 51.4226 44.3725 51.5326 44.3038 51.6006L42.0769 53.8041C42.0442 53.8365 41.9984 53.8559 41.9526 53.8559Z" fill="#FF98C9"/>
<path d="M46.3315 53.1312C46.2858 53.1312 46.2432 53.115 46.2073 53.0794C46.1386 53.0115 46.1386 52.9014 46.2073 52.8335L46.9725 52.0764C47.0411 52.0084 47.1523 52.0084 47.221 52.0764C47.2897 52.1443 47.2897 52.2543 47.221 52.3222L46.4558 53.0794C46.4231 53.1118 46.3773 53.1312 46.3315 53.1312Z" fill="#FF98C9"/>
<path d="M48.7637 53.1312C48.7179 53.1312 48.6754 53.115 48.6394 53.0794C48.5707 53.0115 48.5707 52.9014 48.6394 52.8335L49.4046 52.0764C49.4733 52.0084 49.5845 52.0084 49.6531 52.0764C49.7218 52.1443 49.7218 52.2543 49.6531 52.3222L48.8879 53.0794C48.8552 53.1118 48.8094 53.1312 48.7637 53.1312Z" fill="#FF98C9"/>
<path d="M46.8183 53.8559C46.7726 53.8559 46.7301 53.8397 46.6941 53.8041C46.6254 53.7361 46.6254 53.6261 46.6941 53.5582L48.921 51.3547C48.9897 51.2867 49.1009 51.2867 49.1696 51.3547C49.2382 51.4226 49.2382 51.5326 49.1696 51.6006L46.9426 53.8041C46.9099 53.8365 46.8641 53.8559 46.8183 53.8559Z" fill="#FF98C9"/>
<path d="M43.9009 53.1312C43.8551 53.1312 43.8126 53.115 43.7766 53.0794C43.7079 53.0115 43.7079 52.9014 43.7766 52.8335L44.5418 52.0764C44.6105 52.0084 44.7217 52.0084 44.7903 52.0764C44.859 52.1443 44.859 52.2543 44.7903 52.3222L44.0251 53.0794C43.9924 53.1118 43.9466 53.1312 43.9009 53.1312Z" fill="#FF98C9"/>
<path d="M44.3848 53.8559C44.339 53.8559 44.2965 53.8397 44.2605 53.8041C44.1918 53.7361 44.1918 53.6261 44.2605 53.5582L46.4874 51.3547C46.5561 51.2867 46.6673 51.2867 46.736 51.3547C46.8046 51.4226 46.8046 51.5326 46.736 51.6006L44.509 53.8041C44.4763 53.8365 44.4305 53.8559 44.3848 53.8559Z" fill="#FF98C9"/>
<path d="M29.2087 7.71509L22.4429 20.8779C22.4429 24.5763 25.471 27.5725 29.2087 27.5725C32.9465 27.5725 35.9746 24.5763 35.9746 20.8779L29.2087 7.71509Z" fill="#7E979B"/>
</svg>
