<svg width="74" height="73" viewBox="0 0 74 73" fill="none" xmlns="http://www.w3.org/2000/svg">
<path d="M51.2565 70.545L51.1815 70.3848C51.1738 70.3667 50.3908 68.7155 49.6751 66.8705C48.0032 66.5863 46.7448 66.2607 45.9386 65.9041C45.6233 65.7646 44.936 65.5992 43.4683 65.5992C39.9876 65.5992 34.755 66.5217 33.0728 67.2478C32.4708 67.5088 31.4863 67.6405 30.1503 67.6405C28.4578 67.6405 26.3079 67.4235 24.3338 67.054C24.2924 67.1599 24.2485 67.2659 24.2071 67.3718C24.127 67.5708 24.0469 67.7672 23.9694 67.9584L23.7214 68.5527L23.5405 68.9816C23.3648 69.3951 23.2046 69.7594 23.0754 70.054L23.0108 70.1961C22.8299 70.6018 22.7188 70.8421 22.7188 70.8421L22.543 71.2246L17.4086 68.3279L17.5198 68.0204C17.5249 68.0075 17.9823 66.7439 18.3828 65.2271C17.4112 65.3098 16.1812 65.6845 15.0805 66.0204C13.9797 66.3563 13.0313 66.6457 12.3905 66.6457C10.5404 66.6457 8.89694 63.408 8.71606 63.0384L8.58428 62.7723L12.1321 59.6844L12.1838 54.2839L9.37757 57.1056L9.09591 57.3898C8.21993 58.2761 7.59461 58.917 7.23285 59.2942C6.4008 60.1676 6.65661 63.5527 7.01321 65.4803L7.15533 66.2529L3.87881 64.5837L3.85039 65.1005L0.796102 62.5242L0.76251 62.4131C0.754758 62.3899 0.586798 61.8214 0.475686 60.9893C0.434342 60.6793 0.408502 60.3718 0.392998 60.072C0.385246 59.9066 0.382662 59.7387 0.385246 59.5655C0.38783 59.196 0.416254 58.8369 0.46535 58.4984C0.62039 57.4415 0.99507 56.5629 1.58164 55.8859L2.61524 54.718L3.69793 53.4931L4.11654 53.0151L4.52481 52.5448C8.6127 47.8239 10.8375 44.5809 11.1373 42.9039C11.3182 41.9013 11.512 39.8005 11.7368 37.3664C12.2665 31.648 12.9926 23.8133 14.344 20.1725C16.5223 14.312 18.9952 8.5083 23.1425 7.43077C23.7291 6.53671 27.1426 2.07155 36.6827 2.07155C37.215 2.07155 37.7654 2.08706 38.3184 2.11548C45.2332 2.46949 52.2642 3.88035 56.9568 11.6427L57.5149 11.113L58.086 1.53149L64.838 5.18527L61.8302 13.33L65.9155 7.67883L68.0705 14.8727L61.5666 19.1104L59.9103 18.3766C60.6312 20.666 61.2385 23.2655 61.7139 26.1208C61.763 26.4077 62.9025 33.1958 62.7837 36.8005C62.6726 40.1856 64.2152 42.4931 65.4555 44.3458L65.5589 44.5008C66.2023 45.4647 68.223 49.1882 70.0938 52.9893L70.4375 53.6921L70.7631 54.3691L70.4246 54.5603L70.7734 54.3924L71.1274 55.1392L71.4246 55.7774L71.7243 56.4337L72.006 57.0668L72.267 57.6715L72.3471 57.8601L72.006 58.0462L72.3626 57.8963L72.5073 58.2477L72.6158 58.519L72.8174 59.0384L72.9078 59.2813L73.0654 59.7335L73.1326 59.9402L73.1584 60.0307L72.7993 60.1831L73.1714 60.072L73.2411 60.3227L73.2825 60.501L73.3135 60.6586L73.3238 60.7283L72.9466 60.824L73.329 60.7645L73.3367 60.811L73.3419 60.8731L72.9595 60.9428L73.3445 60.9092V60.9557C73.3497 60.9867 73.3497 61.01 73.3471 61.0358C73.3471 61.0643 73.3471 61.0824 73.3471 61.0979C73.3471 61.1315 73.3419 61.1573 73.3367 61.1831C73.3342 61.209 73.329 61.2322 73.3238 61.2503C73.3135 61.2968 73.2954 61.3485 73.2721 61.395C72.6752 62.5888 69.0189 67.8473 68.8638 68.0695L68.776 68.1961L65.2075 68.9481L65.4814 68.6457C65.2256 68.6561 64.9904 68.6612 64.7734 68.6612C63.9284 68.6612 63.0266 68.607 63.0266 67.9739C63.0266 67.6793 63.2824 67.2323 64.285 65.5992C65.3935 63.793 66.9155 61.3175 67.2592 59.8291C67.4711 58.9144 66.6313 57.4648 64.9 55.7438C64.8328 55.6766 64.6674 55.5164 64.6674 55.5164C64.6054 55.457 64.4581 55.3175 64.4581 55.3175L64.2152 55.0901L63.9956 54.8911L63.7863 54.7076L63.5821 54.5319L63.3883 54.3691L63.086 54.1185C63.086 54.1598 63.086 54.1986 63.086 54.2373C63.086 54.3019 63.0912 54.364 63.0938 54.4286L63.1041 54.6534C63.1093 54.736 63.1144 54.8187 63.1222 54.9014L63.1351 55.0513C63.1429 55.1417 63.1532 55.2296 63.1635 55.32L63.1765 55.4234C63.1894 55.5216 63.2023 55.6172 63.2178 55.7102L63.2281 55.7748C63.2462 55.8808 63.2617 55.9815 63.2824 56.0797L63.2901 56.1133C63.3108 56.2193 63.3341 56.3252 63.3573 56.4286C64.0163 59.2684 65.6778 60.5526 65.6959 60.563L66.0524 60.8317L65.7398 61.147C65.7114 61.178 62.7656 64.1263 62.1584 65.2193C62.0059 65.4932 61.608 66.2116 56.2487 66.979C56.471 67.5656 56.6674 68.0979 56.8405 68.576C57.1376 69.3977 57.3986 70.1574 57.6183 70.837C57.8172 71.4494 57.9025 71.7569 57.9077 71.7698L58.0937 72.4313L51.2487 70.5372L51.2565 70.545ZM60.7217 14.8727L61.471 13.8365L59.0963 14.5109L60.7217 14.8727Z" fill="#140105"/>
<path d="M58.4423 2.16212L64.3623 5.36627L61.3752 13.4594L57.9901 14.4206C58.0315 14.5085 58.0702 14.5963 58.109 14.6868L60.8842 15.3069L65.7731 8.5446L67.6207 14.71L61.538 18.6739L59.277 17.6713C60.1038 20.108 60.7938 22.9271 61.339 26.1882C61.339 26.1882 62.5225 33.1856 62.4036 36.7929C62.2847 40.4001 63.9411 42.7723 65.2434 44.7232C65.8894 45.6896 67.9308 49.4622 69.7525 53.1677C69.7525 53.1677 69.7525 53.1703 69.7551 53.1729C69.8093 53.2866 69.8662 53.3977 69.9205 53.5114C69.9205 53.5165 69.9256 53.5191 69.9256 53.5243C69.9825 53.638 70.0367 53.7543 70.0936 53.868C70.0936 53.868 70.0936 53.8731 70.0962 53.8731C70.1504 53.9868 70.2047 54.0979 70.259 54.209C70.2615 54.2142 70.2641 54.2194 70.2667 54.2245C70.3184 54.3305 70.3675 54.4364 70.4192 54.5424C70.4243 54.5553 70.4321 54.5656 70.4373 54.5786C70.4889 54.6871 70.5406 54.793 70.5897 54.899C70.5923 54.9067 70.5975 54.9119 70.6 54.9196C70.6491 55.023 70.6982 55.1238 70.7448 55.2271C70.7499 55.2401 70.7577 55.253 70.7628 55.2685C70.8093 55.3667 70.8559 55.4649 70.8998 55.5631C70.9075 55.5786 70.9153 55.5941 70.9205 55.6096C70.9644 55.7026 71.0083 55.7956 71.0497 55.8886C71.0574 55.9067 71.0677 55.9274 71.0755 55.9455C71.1168 56.0359 71.1582 56.1264 71.1995 56.2142C71.2099 56.2349 71.2176 56.253 71.228 56.2737C71.2667 56.3615 71.3081 56.4468 71.3468 56.5321C71.3572 56.5553 71.3675 56.576 71.3778 56.5992C71.414 56.6819 71.4528 56.7646 71.4889 56.8447C71.4993 56.868 71.5096 56.8938 71.5225 56.9171C71.5587 56.9972 71.5923 57.0747 71.6259 57.1522C71.6362 57.1781 71.6492 57.2039 71.6595 57.2272C71.6931 57.3021 71.7267 57.3796 71.7577 57.4545C71.768 57.4804 71.7809 57.5062 71.7913 57.5321C71.8223 57.6044 71.8533 57.6742 71.8817 57.7465C71.8946 57.775 71.905 57.8034 71.9179 57.8292C71.9463 57.8964 71.9747 57.9636 72.0032 58.0308C72.0161 58.0592 72.029 58.0902 72.0393 58.1186C72.0652 58.1807 72.091 58.2427 72.1169 58.3047C72.1298 58.3357 72.1427 58.3667 72.1556 58.3977C72.1789 58.4571 72.2047 58.5166 72.228 58.576C72.2409 58.607 72.2538 58.638 72.2641 58.669C72.2874 58.7259 72.3081 58.7827 72.3313 58.8396C72.3442 58.8706 72.3546 58.899 72.3675 58.93C72.3882 58.9817 72.4063 59.0334 72.4269 59.0851C72.4399 59.1161 72.4528 59.1497 72.4631 59.1807C72.4812 59.2298 72.4993 59.2763 72.5174 59.3254C72.5277 59.3564 72.5406 59.39 72.551 59.4184C72.5691 59.4649 72.5846 59.5114 72.6001 59.5579C72.6104 59.5864 72.6207 59.6174 72.6311 59.6458C72.6466 59.6897 72.6595 59.7336 72.675 59.775C72.6853 59.8034 72.6957 59.8318 72.7034 59.8603C72.7163 59.9016 72.7293 59.9404 72.7422 59.9791C72.7499 60.0075 72.7603 60.036 72.768 60.0618C72.7784 60.098 72.7887 60.1342 72.8016 60.1703C72.8094 60.1962 72.8171 60.2246 72.8249 60.2504C72.8352 60.284 72.843 60.3176 72.8507 60.3486C72.8585 60.3745 72.8662 60.4003 72.8714 60.4236C72.8791 60.4546 72.8869 60.4856 72.8921 60.514C72.8972 60.5373 72.905 60.5605 72.9076 60.5838C72.9153 60.6148 72.9179 60.6406 72.9256 60.669C72.9308 60.6897 72.9334 60.7104 72.9386 60.7311C72.9437 60.7569 72.9463 60.7802 72.9489 60.8034C72.9515 60.8215 72.9541 60.8422 72.9566 60.8603C72.9592 60.8835 72.9592 60.9042 72.9618 60.9249C72.9618 60.9429 72.9644 60.961 72.967 60.9765C72.967 60.9972 72.967 61.0153 72.967 61.0334C72.967 61.0463 72.967 61.0618 72.967 61.0747C72.967 61.0954 72.9618 61.1109 72.9592 61.129C72.9592 61.1367 72.9592 61.1471 72.9566 61.1574C72.9515 61.1807 72.9437 61.2039 72.9334 61.222C72.3417 62.4055 68.5535 67.85 68.5535 67.85L66.3054 68.3229C66.3054 68.3229 66.3468 68.2789 66.4165 68.1988C65.9385 68.2376 65.3261 68.2738 64.7835 68.2738C64.0419 68.2738 63.4243 68.204 63.4243 67.974C63.4243 67.3978 67.0703 62.4107 67.6465 59.9145C67.9514 58.5993 66.5613 56.837 65.184 55.4675C65.1142 55.4003 65.047 55.3331 64.9773 55.2659C64.9669 55.2556 64.9566 55.2452 64.9488 55.2375C64.8842 55.1755 64.8196 55.1135 64.755 55.054C64.7421 55.0411 64.7292 55.0282 64.7163 55.0153C64.6543 54.9558 64.5922 54.899 64.5302 54.8421C64.5173 54.8292 64.5018 54.8163 64.4889 54.8034C64.4269 54.7465 64.3674 54.6922 64.308 54.6406C64.2951 54.6277 64.2796 54.6147 64.2667 54.6018C64.2098 54.5501 64.153 54.4985 64.0961 54.4494C64.0806 54.4364 64.0651 54.4235 64.0522 54.4106C63.9953 54.3615 63.9411 54.315 63.8868 54.2685C63.8739 54.2581 63.861 54.2452 63.8481 54.2349C63.7964 54.191 63.7447 54.147 63.693 54.1031C63.6775 54.0902 63.6646 54.0798 63.6491 54.0669C63.6 54.0256 63.5535 53.9868 63.507 53.9481C63.494 53.9377 63.4811 53.9274 63.4708 53.9171C63.4243 53.8783 63.3803 53.8421 63.339 53.8085C63.3261 53.7982 63.3158 53.7904 63.3028 53.7801C63.2615 53.7465 63.2227 53.7155 63.1866 53.6871C63.1762 53.6767 63.1633 53.669 63.153 53.6612C63.1168 53.6328 63.0832 53.6044 63.0496 53.5785C63.0418 53.5734 63.0341 53.5682 63.0263 53.5605C62.9953 53.5346 62.9643 53.5114 62.9359 53.4881C62.9282 53.4829 62.9204 53.4778 62.9126 53.47C62.8894 53.4519 62.8636 53.4338 62.8455 53.4183C62.8377 53.4132 62.8325 53.408 62.8248 53.4028C62.7576 53.3512 62.7188 53.3227 62.7188 53.3227C62.7111 53.4829 62.7059 53.638 62.7059 53.7904C62.7059 53.8525 62.7059 53.9119 62.7059 53.9713C62.7059 54.0618 62.7059 54.1496 62.7059 54.2375C62.7059 54.315 62.7111 54.3899 62.7137 54.4649C62.7163 54.532 62.7188 54.5992 62.7214 54.6664C62.7266 54.7517 62.7344 54.837 62.7395 54.9222C62.7447 54.9739 62.7473 55.0256 62.7524 55.0747C62.7602 55.1677 62.7705 55.2607 62.7834 55.3538C62.7886 55.3899 62.7912 55.4261 62.7964 55.4623C62.8093 55.5631 62.8248 55.6613 62.8377 55.7594C62.8403 55.7827 62.8455 55.806 62.848 55.8292C62.8661 55.9352 62.8842 56.0411 62.9049 56.1445C62.9049 56.1548 62.9101 56.1677 62.9126 56.1781C62.9359 56.2892 62.9592 56.4003 62.9824 56.5062C63.6853 59.5373 65.4656 60.8654 65.4656 60.8654C65.4656 60.8654 62.4604 63.8706 61.8196 65.0231C61.4139 65.7543 58.0961 66.3306 55.7265 66.6536C55.7731 66.7905 55.817 66.9301 55.8712 67.0696C56.0986 67.6691 56.3002 68.2117 56.4759 68.7001C56.8273 69.6743 57.0806 70.4236 57.2511 70.9482C57.4501 71.5606 57.5353 71.8655 57.5353 71.8655L51.5224 70.2014C51.5224 70.2014 50.6877 68.4443 49.9487 66.5063C48.5534 66.2763 47.0417 65.9533 46.0856 65.5321C45.5456 65.2944 44.605 65.1936 43.4603 65.1936C40.0029 65.1936 34.6902 66.1058 32.9124 66.8758C32.3284 67.1291 31.3336 67.2376 30.1424 67.2376C28.3155 67.2376 26.0312 66.9818 24.0829 66.5993C24.0829 66.6045 24.0803 66.6097 24.0777 66.6122C24.0519 66.6794 24.026 66.744 24.0002 66.8112C23.9459 66.9456 23.8942 67.0799 23.84 67.2117C23.7599 67.4107 23.6798 67.6045 23.6023 67.7957C23.5635 67.8887 23.5273 67.9792 23.4886 68.0696C23.4446 68.1782 23.3981 68.2841 23.3542 68.39C23.2922 68.5373 23.2327 68.6794 23.1733 68.8164C22.9976 69.2272 22.84 69.589 22.7082 69.8836C22.6875 69.9327 22.6668 69.9792 22.6462 70.0231C22.4653 70.4262 22.3568 70.664 22.3568 70.664L17.8735 68.1342C17.8735 68.1342 18.4394 66.5761 18.8735 64.806C18.8296 64.806 18.7857 64.806 18.7418 64.806C16.7908 64.806 13.6745 66.2402 12.3799 66.2402C10.7158 66.2402 9.05434 62.8499 9.05434 62.8499L12.5066 59.8447L12.5712 53.3227C12.5712 53.3227 12.2947 53.5992 11.8657 54.0282C11.8244 54.0695 11.7805 54.1134 11.7391 54.1574C11.7184 54.178 11.6952 54.2013 11.6719 54.2245C11.6332 54.2633 11.5944 54.3021 11.5556 54.3408C11.4058 54.4907 11.2456 54.6535 11.0724 54.824C11.0518 54.8447 11.0311 54.8654 11.0078 54.8886C10.9329 54.9662 10.8554 55.0437 10.7753 55.1238C10.7598 55.1393 10.7443 55.1548 10.7288 55.1703C10.6409 55.2581 10.5531 55.346 10.4626 55.4364C10.4264 55.4726 10.3903 55.5114 10.3515 55.5476C10.2869 55.6122 10.2223 55.6793 10.1551 55.7439C10.1267 55.7724 10.1009 55.7982 10.0724 55.8266C9.98199 55.9171 9.89414 56.0075 9.8037 56.0979C9.79336 56.1083 9.78561 56.116 9.77527 56.1264C9.6745 56.2271 9.5763 56.3279 9.47553 56.4287C9.44969 56.4545 9.42643 56.4778 9.40059 56.5036C9.33082 56.576 9.25847 56.6458 9.1887 56.7181C9.15511 56.7517 9.11894 56.7879 9.08534 56.8215C8.98974 56.9171 8.89671 57.0127 8.80369 57.1057C8.03366 57.8861 7.33598 58.5967 6.93546 59.0153C5.65638 60.359 6.61504 65.5399 6.61504 65.5399L3.51166 63.9585C3.49874 64.1704 3.49357 64.2944 3.49357 64.2944L2.45997 63.4236L1.11887 62.2918C1.11887 62.2918 0.950912 61.7388 0.844968 60.93C0.808792 60.6613 0.780368 60.3615 0.767448 60.0463C0.759696 59.8887 0.757112 59.7259 0.759696 59.5605C0.76228 59.2298 0.785536 58.8887 0.834632 58.545C0.961248 57.6871 1.25841 56.8266 1.86048 56.1315C1.93025 56.0514 2.00777 55.9636 2.08787 55.8706C2.1163 55.837 2.1473 55.8008 2.17831 55.7672C2.23516 55.7026 2.29459 55.6354 2.35919 55.5631C2.39537 55.5217 2.43413 55.4778 2.47289 55.4339C2.53749 55.3589 2.60726 55.2814 2.67702 55.2039C2.91475 54.9351 3.17832 54.6406 3.45998 54.3202C3.4884 54.2866 3.51941 54.253 3.55042 54.2194C3.64861 54.1108 3.7468 53.9972 3.84758 53.8835C3.88892 53.8369 3.93026 53.7879 3.97419 53.7413C4.07238 53.6276 4.17574 53.5114 4.27652 53.3951C4.31528 53.3512 4.35404 53.3072 4.3928 53.2633C4.52717 53.1083 4.66412 52.9506 4.80366 52.7904C7.57887 49.5837 11.0957 45.2426 11.5066 42.9635C12.1009 39.6611 12.7675 25.4905 14.6978 20.2992C16.628 15.1054 19.15 8.72548 23.3774 7.76165C23.3774 7.76165 26.4007 2.45152 36.6721 2.45152C37.1915 2.45152 37.7316 2.46444 38.2897 2.49287C46.2252 2.90114 52.6051 4.86757 56.8609 12.2501L57.8816 11.2785L58.4242 2.15436M57.7395 0.901123L57.6671 2.11561L57.1426 10.9348L57.0418 11.0304C55.0263 7.84433 52.4862 5.55749 49.3027 4.06136C46.4112 2.70217 42.9306 1.96056 38.3466 1.72542C37.7884 1.697 37.2303 1.6815 36.6902 1.6815C27.3646 1.6815 23.7366 5.91409 22.9097 7.08981C18.6668 8.30429 16.1758 14.1415 13.9872 20.0331C12.6177 23.7204 11.889 31.5835 11.3567 37.3252C11.1319 39.7516 10.9381 41.8446 10.7598 42.8317C10.4704 44.4389 8.27655 47.6199 4.23518 52.2891C4.09564 52.4493 3.96127 52.607 3.8269 52.7594L3.72354 52.8783L3.71321 52.8912L3.41088 53.2375L3.28685 53.3796L2.98969 53.7155L2.90183 53.8163C2.65635 54.0928 2.42896 54.3512 2.21707 54.5889L2.11888 54.6974L1.91991 54.9222L1.83722 55.0153L1.80105 55.0566L1.62017 55.2607L1.58658 55.2995L1.52714 55.3667C1.44446 55.4597 1.36694 55.5501 1.29458 55.6328C0.65892 56.3667 0.253232 57.3124 0.085272 58.4416C0.033592 58.7956 0.005168 59.1729 0 59.5605C0 59.7311 0 59.9094 0.010336 60.0876C0.023256 60.3977 0.05168 60.7181 0.095608 61.0386C0.209304 61.899 0.3876 62.4985 0.395352 62.5218L0.462536 62.7414L0.638248 62.8887L1.97934 64.0205L3.01294 64.8913L4.199 65.8913L4.23776 65.1936L6.28429 66.2376L7.68482 66.9508L7.40058 65.4055C6.97422 63.1006 6.89928 60.2091 7.51944 59.5579C7.87086 59.1884 8.49619 58.5502 9.37734 57.6587L9.65899 57.3744L9.70809 57.3228L9.75977 57.2711L9.82437 57.2065L9.97166 57.0592L10.0363 56.992L10.3438 56.6819L10.3593 56.6664L10.3722 56.6535L10.6409 56.3822L10.69 56.3331L10.7236 56.2995L10.9148 56.1057L11.0285 55.992L11.2947 55.7259L11.3334 55.6871L11.4342 55.5863L11.5763 55.4442L11.6073 55.4132L11.6383 55.3796L11.7934 55.2246L11.752 59.4985L8.56079 62.2763L8.11118 62.6665L8.37474 63.2014C8.68741 63.8396 10.3541 67.0257 12.3954 67.0257C13.0931 67.0257 14.0673 66.7285 15.1965 66.3848C16.0725 66.1187 17.0311 65.8267 17.858 65.682C17.5066 66.9197 17.1629 67.8706 17.1603 67.881L16.9355 68.4986L17.5066 68.8216L21.9898 71.3513L22.7211 71.7647L23.0751 71.0025C23.0751 71.0025 23.1862 70.7596 23.3697 70.3513L23.4317 70.2092C23.5635 69.9146 23.7237 69.5477 23.8994 69.1316C23.9588 68.9947 24.0183 68.85 24.0829 68.7027C24.1268 68.5967 24.1733 68.4882 24.2172 68.3797L24.3309 68.1032C24.411 67.912 24.4911 67.7156 24.5713 67.5141C24.5738 67.5063 24.5764 67.4986 24.5816 67.4908C26.4886 67.8293 28.5299 68.0257 30.1553 68.0257C31.5455 68.0257 32.5817 67.8836 33.2328 67.6019C34.8814 66.8887 40.0339 65.9843 43.4732 65.9843C44.9487 65.9843 45.5559 66.1549 45.7859 66.2582C46.5869 66.6122 47.7988 66.9327 49.3983 67.2143C50.0934 68.9844 50.804 70.4831 50.835 70.5528L50.9875 70.8733L51.3286 70.9689L57.3415 72.633L58.6646 72.9999L58.295 71.6769C58.2925 71.664 58.202 71.3487 58.003 70.7286C57.7834 70.049 57.5198 69.2841 57.2201 68.4546C57.0857 68.0825 56.9436 67.6975 56.7963 67.3022C61.892 66.5321 62.308 65.7854 62.5121 65.4159C62.9927 64.5502 65.2124 62.2453 66.029 61.4313L66.4398 61.0205C65.8119 62.4132 64.7473 64.1471 63.9747 65.4029C62.8739 67.1936 62.6594 67.5787 62.6594 67.9818C62.6594 68.9714 63.8791 69.049 64.6129 69.0567L64.1375 69.5813L66.476 69.0903L68.7241 68.6174L69.0238 68.5528L69.1995 68.2996C69.3546 68.0748 73.0264 62.7957 73.6362 61.576C73.6724 61.5037 73.7008 61.4236 73.7215 61.3383C73.7267 61.3125 73.7318 61.2815 73.737 61.2504C73.7422 61.2117 73.7474 61.1781 73.7499 61.1367C73.7499 61.1083 73.7499 61.0799 73.7499 61.0515C73.7499 61.0179 73.7499 60.9869 73.7499 60.9533C73.7499 60.93 73.7474 60.9042 73.7448 60.8783V60.8603C73.7422 60.8344 73.7396 60.806 73.737 60.7776C73.737 60.7569 73.7319 60.7336 73.7267 60.713V60.7001V60.6846C73.7215 60.6587 73.7164 60.6329 73.7112 60.6044C73.7086 60.5864 73.7034 60.5657 73.6983 60.545V60.5295L73.6931 60.514C73.6879 60.4856 73.6828 60.4572 73.675 60.4262L73.6595 60.3641L73.6543 60.3435L73.6492 60.3176C73.644 60.2918 73.6362 60.2659 73.6311 60.2375L73.613 60.1729L73.6078 60.1497L73.6027 60.1264C73.5949 60.098 73.5872 60.0696 73.5794 60.0386L73.5613 59.9765L73.5536 59.9507L73.5484 59.93C73.5381 59.8964 73.5303 59.8654 73.52 59.8318L73.5019 59.775L73.4915 59.7466L73.4838 59.7207L73.4502 59.6199L73.4295 59.5553L73.4218 59.5295L73.4114 59.4985L73.3753 59.3926L73.352 59.3305L73.3417 59.2995L73.3339 59.2737L73.29 59.1548L73.2667 59.0902L73.2538 59.0566L73.2435 59.0308L73.197 58.9093L73.1711 58.8422L73.1582 58.8086L73.0962 58.6484L73.0704 58.5838L73.06 58.5553L72.9902 58.3822L72.9644 58.3202L72.9515 58.2866L72.9463 58.2711L72.8791 58.1057L72.8559 58.0515L72.8404 58.0127L72.8326 57.992L72.7629 57.8215L72.737 57.7569L72.7267 57.731L72.6414 57.5269L72.6156 57.4649L72.6052 57.4416L72.5122 57.2272L72.4915 57.1781L72.4786 57.1471L72.3778 56.9171L72.3546 56.8628L72.3442 56.8396L72.2383 56.6018L72.2202 56.5631L72.2047 56.5295L72.0936 56.2814L72.0729 56.2375L72.0626 56.2142L71.9437 55.9532L71.9256 55.9145L71.9153 55.8912L71.7913 55.6199L71.7809 55.5992L71.7628 55.5631L71.6311 55.2814L71.6104 55.2375L71.4709 54.9403L71.4631 54.9222L71.4528 54.899L71.3081 54.5915L71.2977 54.5708L71.1453 54.2478L71.1375 54.2297L71.1272 54.2116L70.9747 53.8938L70.9644 53.8757L70.8016 53.5398V53.5346L70.7964 53.5295L70.6285 53.1884L70.6233 53.1754L70.4579 52.8369C68.5768 49.0152 66.5457 45.2736 65.8946 44.2994L65.7912 44.1444C64.5199 42.2425 63.078 40.0875 63.1866 36.8265C63.3054 33.1856 62.1607 26.3561 62.1116 26.0693C61.6878 23.5292 61.1633 21.1881 60.5431 19.0873L61.233 19.3922L61.6181 19.5628L61.9695 19.3328L68.0522 15.3689L68.538 15.0511L68.3726 14.4956L66.5251 8.33012L66.0755 6.82624L65.1556 8.10015L63.1891 10.8211L65.1013 5.64535L65.3339 5.01485L64.7421 4.69444L58.8222 1.49027L57.7524 0.911461L57.7395 0.901123ZM66.5587 60.7233L65.9359 60.2582C65.9359 60.2582 64.3674 59.0308 63.7447 56.346C63.7214 56.2478 63.7008 56.1445 63.6801 56.0411V56.0282V56.0127C63.6568 55.9145 63.6413 55.8189 63.6232 55.7207L63.6129 55.6561C63.5974 55.5656 63.5845 55.4726 63.5742 55.3796L63.5664 55.3072V55.2788C63.5535 55.1936 63.5431 55.1083 63.5354 55.0204C63.5354 55.0127 63.5354 55.0049 63.5354 54.9997C63.538 54.9997 63.5406 55.0049 63.5431 55.0075L63.5716 55.0333L63.5871 55.0463C63.6413 55.0928 63.6956 55.1419 63.7524 55.1936L63.7783 55.2168L63.7912 55.2297C63.8506 55.2814 63.9075 55.3357 63.9669 55.3899L63.9876 55.4106L64.0057 55.4261C64.0651 55.4804 64.1245 55.5372 64.1866 55.5941L64.2046 55.6096L64.2279 55.6302C64.2899 55.6871 64.3519 55.7465 64.4139 55.806L64.4269 55.8163L64.4424 55.8318C64.5096 55.8964 64.5742 55.961 64.6413 56.0256C66.9256 58.2969 66.9799 59.3848 66.8946 59.7491C66.8274 60.036 66.7137 60.3667 66.5613 60.7259L66.5587 60.7233Z" fill="white"/>
<path d="M62.7215 53.336C62.7215 53.336 68.2229 57.4291 67.6467 59.9226C67.0704 62.4162 63.4244 67.4059 63.4244 67.9821C63.4244 68.5584 67.2668 68.1294 67.2668 68.1294L70.7811 63.8891L72.0601 60.8089L68.4141 52.6978L62.7215 42.8476L60.228 31.5271L59.3313 23.4676L56.582 23.8526L58.1815 36.6434L51.4656 40.1602L18.977 36.3876L20.9589 17.6846L16.8013 19.3745L13.6023 33.7648L12.8994 44.3179L4.45751 55.6384L2.47559 59.796V63.4343L6.63324 65.5532C6.63324 65.5532 5.67458 60.3723 6.95366 59.0286C8.23274 57.6849 12.5816 53.336 12.5816 53.336L12.517 59.8606L9.0622 62.8658C9.0622 62.8658 10.7263 66.256 12.3878 66.256C14.0493 66.256 18.7186 63.8891 20.0623 65.2327C21.406 66.5764 30.5507 67.9201 32.9177 66.8968C35.2846 65.8736 43.9178 64.5945 46.0935 65.5532C48.2692 66.5118 53.321 66.9614 53.321 66.9614C53.321 66.9614 61.1867 66.194 61.8275 65.0415C62.4683 63.8891 65.4735 60.8839 65.4735 60.8839C65.4735 60.8839 62.4683 58.6461 62.7241 53.336H62.7215Z" fill="#85403B"/>
<path d="M15.731 56.5298L19.9015 58.3825L25.5088 56.5298L29.607 58.3825L35.1394 56.5298L39.9921 57.4575L43.3591 56.9148L47.3126 58.5402L49.9354 56.9148L53.1964 59.0001L59.7442 56.9148L61.7675 57.765L62.9897 56.5221L52.0775 49.3799L27.1083 52.1887L23.3822 50.3179L15.731 56.5298Z" fill="#140D14"/>
<path d="M6.57124 54.6869L8.81674 57.121C10.5196 55.3975 12.5816 53.3354 12.5816 53.3354L12.5377 57.9194L18.2199 56.8858L22.6489 56.0796L25.6877 55.5267L49.2434 55.3484L51.3106 55.984L56.3158 57.5267L59.091 58.382L62.9877 56.5215C62.7758 55.6145 62.6621 54.5551 62.7216 53.3328C62.7216 53.3328 63.949 54.2476 65.1841 55.4724L67.9361 54.1597L68.8715 53.7127L68.4141 52.6946L62.7216 42.8444L60.228 31.5239L59.3314 23.4644L56.582 23.8494L58.1815 36.6402L51.4657 40.157L18.977 36.3844L20.959 17.6814L16.8013 19.3713L13.6023 33.7616L12.8995 44.3147L5.79346 53.8445L6.56866 54.6843L6.57124 54.6869Z" fill="#140D14"/>
<path d="M22.3879 18.4956C22.3879 18.4956 24.5145 15.4775 27.3259 15.0667C27.3259 15.0667 27.3957 14.6558 26.4344 14.6558C26.4344 14.6558 28.0804 14.0382 28.9022 14.3121C28.9022 14.3121 30.2743 12.1855 31.8505 12.1855C31.8505 12.1855 31.2329 12.4594 31.1657 13.4206C31.1657 13.4206 34.8014 11.5679 39.7395 12.1855C39.7395 12.1855 38.7782 12.1855 37.9565 12.94C37.9565 12.94 45.1581 13.3638 47.7628 15.2785C47.7628 15.2785 47.0083 14.8729 46.3907 15.2785C46.3907 15.2785 51.2589 17.6041 51.6724 18.4956C51.6724 18.4956 53.6621 26.9298 53.6621 28.4389C53.6621 29.9479 54.8972 20.5525 54.8972 20.5525L52.8403 12.8703L47.0108 7.72551L40.5069 4.53686L30.773 4.10791L20.9331 12.3173C20.9331 12.3173 22.1166 14.5137 22.3905 18.493L22.3879 18.4956Z" fill="#140D14"/>
<path d="M37.202 49.8991C48.0294 49.8991 56.8068 41.1217 56.8068 30.2943C56.8068 19.4668 48.0294 10.6895 37.202 10.6895C26.3745 10.6895 17.5972 19.4668 17.5972 30.2943C17.5972 41.1217 26.3745 49.8991 37.202 49.8991Z" fill="url(#paint0_linear_823_44142)" stroke="#FCC3B7" stroke-width="2" stroke-miterlimit="10"/>
<path d="M22.3879 18.4956C22.3879 18.4956 24.5145 15.4775 27.3259 15.0667C27.3259 15.0667 27.3957 14.6558 26.4344 14.6558C26.4344 14.6558 28.0804 14.0382 28.9022 14.3121C28.9022 14.3121 30.2743 12.1855 31.8505 12.1855C31.8505 12.1855 31.2329 12.4594 31.1657 13.4206C31.1657 13.4206 34.8014 11.5679 39.7395 12.1855C39.7395 12.1855 38.7782 12.1855 37.9565 12.94C37.9565 12.94 45.1581 13.3638 47.7628 15.2785C47.7628 15.2785 47.0083 14.8729 46.3907 15.2785C46.3907 15.2785 51.2589 17.6041 51.6724 18.4956C51.6724 18.4956 53.6621 26.9298 53.6621 28.4389C53.6621 29.9479 54.8972 20.5525 54.8972 20.5525L52.8403 12.8703L47.0108 7.72551L40.5069 4.53686L30.773 4.10791L20.9331 12.3173C20.9331 12.3173 22.1166 14.5137 22.3905 18.493L22.3879 18.4956Z" fill="#140D14"/>
<path d="M23.1423 11.294C23.1423 11.294 25.269 11.0201 26.5015 13.4878C26.5015 13.4878 22.8917 15.2708 22.3646 20.3458C21.8374 25.4207 20.1242 29.1934 19.2328 45.6509C19.2328 45.6509 22.5248 55.9378 23.2095 57.6536C23.8943 59.3693 25.6772 62.1807 24.7186 64.9224C23.7573 67.6666 22.3646 70.6769 22.3646 70.6769L17.8813 68.1472C17.8813 68.1472 19.7651 62.9663 19.2948 60.7699C18.8245 58.5709 14.3412 45.0876 15.0828 39.0048C15.8245 32.9221 15.9743 24.612 17.8271 20.829C17.8271 20.829 15.0828 26.245 14.3412 39.4519C14.3412 39.4519 14.5635 46.4261 12.3386 49.0954C10.1138 51.7646 3.95615 56.5889 3.88121 57.8499C3.80627 59.1109 3.50911 64.3048 3.50911 64.3048L1.13442 62.3022C1.13442 62.3022 -0.0516378 58.3693 1.87603 56.1445C3.80369 53.9197 10.9278 46.2762 11.5195 42.9764C12.1113 39.6767 12.7805 25.5034 14.7108 20.3122C16.6384 15.1183 19.163 8.73844 23.3904 7.77461C23.3904 7.77461 26.7289 1.91411 38.3027 2.50584C49.8764 3.09758 58.1375 7.01234 61.3339 26.1908C61.3339 26.1908 62.5173 33.1882 62.3985 36.7955C62.2796 40.4028 63.936 42.7749 65.2383 44.7258C66.5406 46.6741 73.5226 60.0489 72.9309 61.2324C72.3391 62.4159 68.551 67.8604 68.551 67.8604L66.3029 68.3332C66.3029 68.3332 69.7344 64.5451 70.5639 63.1265C71.3934 61.7079 71.8662 60.0489 69.7345 56.8551C67.6052 53.6587 60.1478 42.9299 59.6749 38.7077C59.2021 34.4854 58.0186 25.3742 58.0186 25.3742C58.0186 25.3742 58.6672 33.7412 58.8403 36.0746C59.0134 38.4079 60.1995 46.0721 59.8145 47.8835C59.4295 49.6948 55.8739 58.2014 55.6181 59.7363C55.3622 61.2712 54.6594 63.8939 55.8739 67.0903C57.0884 70.2893 57.538 71.8862 57.538 71.8862L51.525 70.2221C51.525 70.2221 48.3906 63.6355 48.9022 61.9068C49.4139 60.1781 52.5483 53.2091 53.3157 51.2892C54.0832 49.3693 55.8093 45.085 55.6827 43.6793C55.556 42.2736 53.1891 32.4131 53.1245 28.6042C53.0599 24.7954 53.4966 15.3457 53.4966 15.3457C53.4966 15.3457 47.3053 10.9348 41.9332 10.4232C41.9332 10.4232 44.1709 9.65577 47.8816 10.9994C47.8816 10.9994 35.4112 4.21903 28.4395 13.5576C28.4395 13.5576 23.7703 5.24229 37.9047 4.92446C37.9047 4.92446 27.5429 3.32497 25.6902 10.9994C25.6902 10.9994 24.3 10.7617 23.1398 11.2966L23.1423 11.294Z" fill="#332F2E"/>
<path d="M55.6182 13.4594L57.8973 11.2862L58.4425 2.16211L64.3624 5.36627L61.3753 13.4594L56.2151 14.9271L55.6182 13.4594Z" fill="#F8D8DB" stroke="black" stroke-width="0.5" stroke-miterlimit="10"/>
<path d="M56.2689 16.338L61.5377 18.674L67.6204 14.7101L65.7729 8.54468L60.8865 15.307L55.9175 14.1985L56.2689 16.338Z" fill="#F8D8DB" stroke="black" stroke-width="0.5" stroke-miterlimit="10"/>
<path d="M54.4214 16.3923C54.4214 16.3923 55.9925 16.7696 57.0002 16.661L55.9175 12.9685H54.8943L54.4214 16.3897V16.3923Z" fill="#F8D8DB" stroke="black" stroke-width="0.5" stroke-miterlimit="10"/>
<path d="M53.9331 12.3198C53.9331 12.3198 56.2173 12.4826 55.9176 12.971C55.9176 12.971 55.3672 16.1002 54.8943 16.6816C54.8943 16.6816 53.1165 16.3379 52.8452 16.2837C52.8452 16.2837 53.8762 14.2733 53.9305 12.3198H53.9331Z" fill="#F8D8DB" stroke="black" stroke-width="0.5" stroke-miterlimit="10"/>
<path d="M59.0933 12.3198L56.2251 14.0175" stroke="black" stroke-width="0.5" stroke-miterlimit="10"/>
<path d="M59.7448 16.4465L56.6543 15.4827" stroke="black" stroke-width="0.5" stroke-miterlimit="10"/>
<path d="M66.3081 68.328L68.5562 67.8551C68.5562 67.8551 72.3443 62.4106 72.9361 61.2271C73.2332 60.6302 71.6053 56.9325 69.7526 53.165L67.8973 54.103C68.6596 55.2477 69.3107 56.2038 69.7397 56.8498C71.8689 60.0462 71.396 61.7026 70.5691 63.1212C69.7397 64.5424 66.3081 68.328 66.3081 68.328Z" fill="#BC6146"/>
<path d="M6.57101 54.687L4.83973 52.78C3.58391 54.2297 2.48054 55.4493 1.87847 56.1444C-0.0491964 58.3692 1.13686 62.3021 1.13686 62.3021L3.51156 64.3047C3.51156 64.3047 3.80872 59.1108 3.88365 57.8498C3.91466 57.3046 5.08004 56.0979 6.5736 54.687H6.57101Z" fill="#BC6146"/>
<path d="M57.5431 71.8808C57.5431 71.8808 57.0961 70.2814 55.8816 67.0849C54.6671 63.886 55.37 61.2658 55.6258 59.7309C55.7007 59.2787 56.0625 58.2244 56.5431 56.9143L50.4681 57.9608C49.742 59.6766 49.1141 61.2115 48.91 61.904C48.3983 63.6301 51.5327 70.2193 51.5327 70.2193L57.5457 71.8834L57.5431 71.8808Z" fill="#BC6146"/>
<path d="M19.2972 60.77C19.7675 62.9689 17.8838 68.1473 17.8838 68.1473L22.367 70.677C22.367 70.677 23.7598 67.6641 24.7211 64.9225C25.6823 62.1782 23.8993 59.3669 23.212 57.6537L18.3334 57.2893C18.8089 58.9612 19.1784 60.2196 19.2972 60.77Z" fill="#BC6146"/>
<path d="M27.6333 39.2968C30.4817 39.2968 32.7909 37.0548 32.7909 34.289C32.7909 31.5233 30.4817 29.2812 27.6333 29.2812C24.7848 29.2812 22.4756 31.5233 22.4756 34.289C22.4756 37.0548 24.7848 39.2968 27.6333 39.2968Z" fill="white"/>
<path d="M31.0129 29.6249C32.0388 29.9608 32.8346 30.7541 32.8346 30.7541C32.199 29.9453 31.2041 29.5422 30.5633 29.3561C29.7674 28.9298 28.8553 28.6895 27.8889 28.6895C25.2248 28.6895 22.9896 30.5241 22.3746 32.997C21.8681 33.0745 20.5968 33.152 18.8423 32.4259C18.8423 32.4259 20.4831 33.5732 22.279 33.4621C22.2325 33.7593 22.2067 34.0616 22.2067 34.3717C22.2067 35.1727 22.3746 35.935 22.6718 36.6275C22.6175 36.3148 22.5891 35.9944 22.5891 35.6663C22.5891 32.5267 25.1343 29.984 28.2713 29.984C30.6072 29.984 32.615 31.3949 33.4884 33.4104C33.2197 31.829 32.2972 30.4724 31.0129 29.6249Z" fill="#140105"/>
<path d="M27.99 38.8393C30.1821 38.8393 31.959 36.927 31.959 34.568C31.959 32.209 30.1821 30.2966 27.99 30.2966C25.798 30.2966 24.021 32.209 24.021 34.568C24.021 36.927 25.798 38.8393 27.99 38.8393Z" fill="#FCE2EB" stroke="black" stroke-width="0.5" stroke-miterlimit="10"/>
<path d="M27.9901 37.1755C29.43 37.1755 30.5973 36.0081 30.5973 34.5682C30.5973 33.1282 29.43 31.9609 27.9901 31.9609C26.5501 31.9609 25.3828 33.1282 25.3828 34.5682C25.3828 36.0081 26.5501 37.1755 27.9901 37.1755Z" fill="#C14D98"/>
<path d="M29.2714 34.2088C29.9793 34.2088 30.5531 33.635 30.5531 32.9272C30.5531 32.2193 29.9793 31.6455 29.2714 31.6455C28.5636 31.6455 27.9897 32.2193 27.9897 32.9272C27.9897 33.635 28.5636 34.2088 29.2714 34.2088Z" fill="#FFFFFA"/>
<path d="M30.3259 38.8398C30.1295 38.876 29.9408 38.9251 29.7522 38.969C28.4421 39.2481 27.0493 39.4187 25.7548 38.969C25.8814 39.0517 26.0132 39.1215 26.1475 39.1835C25.9382 39.3696 25.7832 39.6047 25.5093 39.7107V39.7236C25.6721 39.6926 25.8219 39.6228 25.9563 39.5272C26.0752 39.4548 26.1708 39.3489 26.2147 39.2145C26.5532 39.3592 26.915 39.4419 27.2819 39.4781C27.1605 39.7184 27.0959 39.982 26.884 40.1706L26.8917 40.1809C27.0287 40.0957 27.1449 39.9768 27.2354 39.8424C27.3155 39.7391 27.3672 39.615 27.3672 39.4858C27.7935 39.5169 28.2276 39.4858 28.6514 39.4083C28.592 39.6667 28.5868 39.9303 28.4266 40.1577L28.4369 40.1654C28.5506 40.0517 28.6385 39.9096 28.6953 39.7572C28.747 39.6435 28.7703 39.5143 28.7444 39.3928C29.1062 39.3205 29.4576 39.2171 29.7884 39.0931C29.9693 39.0156 30.1501 38.9329 30.3259 38.845V38.8398Z" fill="black"/>
<path d="M46.3237 39.2968C49.1722 39.2968 51.4813 37.0548 51.4813 34.289C51.4813 31.5233 49.1722 29.2812 46.3237 29.2812C43.4752 29.2812 41.166 31.5233 41.166 34.289C41.166 37.0548 43.4752 39.2968 46.3237 39.2968Z" fill="white"/>
<path d="M42.9462 29.6249C41.9203 29.9608 41.1245 30.7541 41.1245 30.7541C41.7601 29.9453 42.755 29.5422 43.3958 29.3561C44.1917 28.9298 45.1038 28.6895 46.0702 28.6895C48.7343 28.6895 50.9695 30.5241 51.5845 32.997C52.091 33.0745 53.3623 33.152 55.1168 32.4259C55.1168 32.4259 53.476 33.5732 51.6801 33.4621C51.7266 33.7593 51.7524 34.0616 51.7524 34.3717C51.7524 35.1727 51.5845 35.935 51.2873 36.6275C51.3416 36.3148 51.37 35.9944 51.37 35.6663C51.37 32.5267 48.8248 29.984 45.6878 29.984C43.3519 29.984 41.3441 31.3949 40.4707 33.4104C40.7394 31.829 41.6619 30.4724 42.9462 29.6249Z" fill="#140105"/>
<path d="M45.9666 38.8393C48.1586 38.8393 49.9356 36.927 49.9356 34.568C49.9356 32.209 48.1586 30.2966 45.9666 30.2966C43.7746 30.2966 41.9976 32.209 41.9976 34.568C41.9976 36.927 43.7746 38.8393 45.9666 38.8393Z" fill="#FCE2EB" stroke="black" stroke-width="0.5" stroke-miterlimit="10"/>
<path d="M45.9666 37.1755C47.4066 37.1755 48.5739 36.0081 48.5739 34.5682C48.5739 33.1282 47.4066 31.9609 45.9666 31.9609C44.5267 31.9609 43.3594 33.1282 43.3594 34.5682C43.3594 36.0081 44.5267 37.1755 45.9666 37.1755Z" fill="#C14D98"/>
<path d="M44.6855 34.2088C45.3933 34.2088 45.9671 33.635 45.9671 32.9272C45.9671 32.2193 45.3933 31.6455 44.6855 31.6455C43.9776 31.6455 43.4038 32.2193 43.4038 32.9272C43.4038 33.635 43.9776 34.2088 44.6855 34.2088Z" fill="#FFFFFA"/>
<path d="M43.6309 38.8398C43.8272 38.876 44.0159 38.9251 44.2045 38.969C45.5146 39.2481 46.9074 39.4187 48.202 38.969C48.0753 39.0517 47.9436 39.1215 47.8092 39.1835C48.0185 39.3696 48.1735 39.6047 48.4474 39.7107V39.7236C48.2846 39.6926 48.1348 39.6228 48.0004 39.5272C47.8815 39.4548 47.7859 39.3489 47.742 39.2145C47.4035 39.3592 47.0417 39.4419 46.6748 39.4781C46.7963 39.7184 46.8609 39.982 47.0727 40.1706L47.065 40.1809C46.928 40.0957 46.8118 39.9768 46.7213 39.8424C46.6412 39.7391 46.5895 39.615 46.5895 39.4858C46.1632 39.5169 45.7291 39.4858 45.3053 39.4083C45.3647 39.6667 45.3699 39.9303 45.5301 40.1577L45.5198 40.1654C45.4061 40.0517 45.3182 39.9096 45.2614 39.7572C45.2097 39.6435 45.1864 39.5143 45.2123 39.3928C44.8505 39.3205 44.4991 39.2171 44.1683 39.0931C43.9874 39.0156 43.8066 38.9329 43.6309 38.845V38.8398Z" fill="black"/>
<path d="M50.7911 40.8987H23.2534V48.2631H50.7911V40.8987Z" fill="#96A77B"/>
<path d="M50.6617 41.0282V48.1342H23.3824V41.0282H50.6617ZM50.9201 40.7698H23.124V48.3926H50.9201V40.7698Z" fill="black"/>
<path d="M51.0187 42.4314H23.3828V43.6562H51.0187V42.4314Z" fill="#C4CCA3"/>
<path d="M50.6621 45.9092H23.3828V48.134H50.6621V45.9092Z" fill="#606853"/>
<path d="M23.4085 40.5864H23.362C22.8668 40.5864 22.4653 40.9879 22.4653 41.4831V47.6795C22.4653 48.1747 22.8668 48.5762 23.362 48.5762H23.4085C23.9037 48.5762 24.3051 48.1747 24.3051 47.6795V41.4831C24.3051 40.9879 23.9037 40.5864 23.4085 40.5864Z" fill="#96A77B"/>
<path d="M28.052 40.5864H28.0055C27.5103 40.5864 27.1089 40.9879 27.1089 41.4831V47.6795C27.1089 48.1747 27.5103 48.5762 28.0055 48.5762H28.052C28.5473 48.5762 28.9487 48.1747 28.9487 47.6795V41.4831C28.9487 40.9879 28.5473 40.5864 28.052 40.5864Z" fill="#96A77B"/>
<path d="M45.951 40.5864H45.9045C45.4093 40.5864 45.0078 40.9879 45.0078 41.4831V47.6795C45.0078 48.1747 45.4093 48.5762 45.9045 48.5762H45.951C46.4462 48.5762 46.8476 48.1747 46.8476 47.6795V41.4831C46.8476 40.9879 46.4462 40.5864 45.951 40.5864Z" fill="#96A77B"/>
<path d="M50.5975 40.5864H50.5509C50.0557 40.5864 49.6543 40.9879 49.6543 41.4831V47.6795C49.6543 48.1747 50.0557 48.5762 50.5509 48.5762H50.5975C51.0927 48.5762 51.4941 48.1747 51.4941 47.6795V41.4831C51.4941 40.9879 51.0927 40.5864 50.5975 40.5864Z" fill="#96A77B"/>
<path d="M27.1089 47.6586C27.1089 48.1676 27.5197 48.5785 28.0288 48.5785C28.5378 48.5785 28.9487 48.1676 28.9487 47.6586V45.9092H27.1089V47.6586Z" fill="#606853"/>
<path d="M49.6543 47.6586C49.6543 48.1676 50.0652 48.5785 50.5742 48.5785C51.0832 48.5785 51.4941 48.1676 51.4941 47.6586V45.9092H49.6543V47.6586Z" fill="#606853"/>
<path d="M22.4653 47.6586C22.4653 48.1676 22.8762 48.5785 23.3852 48.5785C23.8943 48.5785 24.3051 48.1676 24.3051 47.6586V45.9092H22.4653V47.6586Z" fill="#606853"/>
<path d="M45.0078 47.6586C45.0078 48.1676 45.4187 48.5785 45.9277 48.5785C46.4368 48.5785 46.8476 48.1676 46.8476 47.6586V45.9092H45.0078V47.6586Z" fill="#606853"/>
<path d="M24.3051 42.4314H22.4653V43.6562H24.3051V42.4314Z" fill="#C4CCA3"/>
<path d="M28.9487 42.4314H27.1089V43.6562H28.9487V42.4314Z" fill="#C4CCA3"/>
<path d="M46.8476 42.4314H45.0078V43.6562H46.8476V42.4314Z" fill="#C4CCA3"/>
<path d="M51.4941 42.4314H49.6543V43.6562H51.4941V42.4314Z" fill="#C4CCA3"/>
<path d="M23.4085 40.5864H23.362C22.8668 40.5864 22.4653 40.9879 22.4653 41.4831V47.6795C22.4653 48.1747 22.8668 48.5762 23.362 48.5762H23.4085C23.9037 48.5762 24.3051 48.1747 24.3051 47.6795V41.4831C24.3051 40.9879 23.9037 40.5864 23.4085 40.5864Z" stroke="black" stroke-miterlimit="10"/>
<path d="M28.052 40.5864H28.0055C27.5103 40.5864 27.1089 40.9879 27.1089 41.4831V47.6795C27.1089 48.1747 27.5103 48.5762 28.0055 48.5762H28.052C28.5473 48.5762 28.9487 48.1747 28.9487 47.6795V41.4831C28.9487 40.9879 28.5473 40.5864 28.052 40.5864Z" stroke="black" stroke-miterlimit="10"/>
<path d="M45.951 40.5864H45.9045C45.4093 40.5864 45.0078 40.9879 45.0078 41.4831V47.6795C45.0078 48.1747 45.4093 48.5762 45.9045 48.5762H45.951C46.4462 48.5762 46.8476 48.1747 46.8476 47.6795V41.4831C46.8476 40.9879 46.4462 40.5864 45.951 40.5864Z" stroke="black" stroke-miterlimit="10"/>
<path d="M50.5975 40.5864H50.5509C50.0557 40.5864 49.6543 40.9879 49.6543 41.4831V47.6795C49.6543 48.1747 50.0557 48.5762 50.5509 48.5762H50.5975C51.0927 48.5762 51.4941 48.1747 51.4941 47.6795V41.4831C51.4941 40.9879 51.0927 40.5864 50.5975 40.5864Z" stroke="black" stroke-miterlimit="10"/>
<path d="M40.8169 22.9428C40.8169 22.9428 45.6361 20.8291 52.8402 26.6586C52.8402 26.6586 44.8583 19.6276 40.8169 22.9428Z" fill="#140105"/>
<path d="M33.1401 22.9428C33.1401 22.9428 28.3209 20.8291 21.1167 26.6586C21.1167 26.6586 29.0987 19.6276 33.1401 22.9428Z" fill="#140105"/>
<defs>
<linearGradient id="paint0_linear_823_44142" x1="37.202" y1="23.643" x2="37.202" y2="62.8553" gradientUnits="userSpaceOnUse">
<stop stop-color="#FCE9DA"/>
<stop offset="1" stop-color="#E7B7A9"/>
</linearGradient>
</defs>
</svg>
