<svg width="60" height="84" viewBox="0 0 60 84" fill="none" xmlns="http://www.w3.org/2000/svg">
<path d="M9.98531 82.8881C9.37468 82.8881 8.61211 82.3578 8.32829 82.1428C8.18209 82.0711 7.63739 81.8274 6.91782 81.6812C5.9259 81.4834 5.33248 80.2277 5.08593 79.577C4.52404 79.3906 4.08542 78.9061 3.98508 78.7915C3.85894 78.6452 3.81593 78.4446 3.8704 78.2582C4.28322 76.842 6.43334 75.2481 7.91834 74.2906C7.90401 74.1157 7.93267 73.938 8.00434 73.7717L8.07601 73.6111C8.17922 73.3818 8.35696 73.1983 8.57198 73.0894L7.97567 71.7993C7.77786 71.3693 7.7578 70.8848 7.9212 70.4404C8.08461 69.9961 8.4143 69.6406 8.84432 69.4399L9.23421 69.2593C9.42055 69.1733 9.61549 69.1217 9.81617 69.1045L9.54956 68.5283C9.35175 68.0983 9.33168 67.6138 9.49509 67.1694C9.6585 66.7251 9.98531 66.3696 10.4182 66.1689L10.8081 65.9883C11.0116 65.8937 11.2266 65.8392 11.4474 65.8278L11.413 65.7532C11.3442 65.6013 11.2954 65.4465 11.2725 65.2888C9.66136 63.9213 8.27669 60.1056 7.61732 58.0472C7.61159 58.0759 7.60585 58.1017 7.59725 58.1304C7.31344 59.4462 7.43098 61.2638 7.43385 61.2839C7.45392 61.5677 7.26184 61.8228 6.98376 61.883C6.94362 61.8916 6.90062 61.8974 6.86049 61.8974C6.62541 61.8974 6.4104 61.754 6.3244 61.5275C3.83314 54.9626 4.05675 48.5438 4.68171 44.3152C4.71611 44.0744 4.75338 43.8422 4.79065 43.6128C4.86232 43.1886 4.93973 42.7557 5.02573 42.3314C5.13181 41.8125 5.2436 41.3079 5.36688 40.8177C5.33534 40.855 5.30381 40.8951 5.27227 40.9352C5.2006 41.0241 5.12893 41.113 5.05726 41.2047C4.75338 41.5946 4.41797 42.0533 4.05388 42.5722C3.73853 43.0223 3.40311 43.5154 3.05623 44.0457C2.82402 44.3983 2.60901 44.7338 2.42267 45.029C2.13025 45.4877 1.90664 45.8547 1.77476 46.0668L1.65149 46.2704C1.54542 46.4481 1.35621 46.5485 1.16127 46.5485C1.081 46.5485 1.00073 46.5313 0.923322 46.4969C0.659575 46.3765 0.524839 46.0783 0.61371 45.8002C0.757051 45.353 0.900394 44.9115 1.0466 44.4729L1.27307 43.8049C1.34474 43.5957 1.41355 43.3864 1.48522 43.1828C1.53683 43.0366 1.87797 42.0734 1.9353 41.9214C2.00411 41.7294 2.07578 41.5401 2.14459 41.3509C2.14459 41.3509 2.351 40.7976 2.39114 40.6887C2.48574 40.4393 2.58321 40.1927 2.67782 39.9491L2.93009 39.3069C2.99029 39.1578 3.0505 39.0088 3.11357 38.8626L3.42892 38.1C3.48626 37.9652 3.54359 37.8334 3.60093 37.7015L3.82167 37.1941C3.94781 36.9074 4.07681 36.6236 4.20295 36.3455L4.46097 35.7807C4.51831 35.6575 4.57851 35.5342 4.63871 35.4138L4.83078 35.0182C4.97412 34.7257 5.11747 34.4362 5.26368 34.1495C5.26368 34.1495 5.51022 33.665 5.55036 33.5876C5.60769 33.4787 5.66503 33.3726 5.72237 33.2665L5.96891 32.8136C6.01764 32.7218 6.06638 32.6301 6.11799 32.5412C6.17246 32.4438 6.22979 32.3463 6.28426 32.2517L6.43047 31.9994C6.60248 31.7013 6.77448 31.4146 6.94649 31.1279L6.99236 31.0505C7.1701 30.7581 7.35072 30.4714 7.53419 30.1905L7.56859 30.1388C7.75493 29.8522 7.94701 29.5655 8.13908 29.2874L8.15628 29.2645C9.24567 27.6906 10.4182 26.283 11.6423 25.0789L11.8086 24.9155C11.9634 24.7664 12.1211 24.6174 12.2788 24.474C12.3447 24.4138 12.4135 24.3536 12.4794 24.2934C12.6342 24.153 12.7919 24.0153 12.9525 23.8777L13.1445 23.7201C13.6663 23.2872 14.2081 22.8772 14.7557 22.5045L14.8474 22.4415C14.9105 22.3985 14.9707 22.3555 15.0338 22.3153C15.1771 22.2207 15.3233 22.129 15.4695 22.0373C15.5842 21.9656 15.696 21.8968 15.8135 21.828C15.954 21.7448 16.0945 21.6617 16.235 21.5814C16.364 21.5069 16.4958 21.4381 16.6248 21.3664L16.6707 21.3435C16.7911 21.2804 16.9087 21.2145 17.0291 21.1543C17.181 21.0769 17.3358 21.0023 17.4906 20.9278L17.6225 20.8647C17.6942 20.8303 17.7687 20.793 17.8432 20.7586C18.1012 20.6411 18.3736 20.5264 18.6545 20.4146C18.7233 20.386 18.795 20.3602 18.8667 20.3344L18.9728 20.2942C19.1591 20.2226 19.3454 20.1537 19.5347 20.0878C19.6465 20.0477 19.7611 20.0104 19.8758 19.9731C20.0707 19.9101 20.2571 19.8499 20.4463 19.7954L20.5151 19.7725C20.5581 19.7581 20.5982 19.7467 20.6412 19.7323C20.6728 19.7237 20.7932 19.6922 20.7932 19.6922C20.9996 19.6349 21.206 19.5832 21.4153 19.5316C21.4153 19.5316 21.6561 19.4715 21.7192 19.4571C21.9829 19.3969 22.2266 19.3453 22.4617 19.2994L22.7942 18.9153L23.0035 18.6831L23.3217 18.3391L23.5396 18.1126C23.5826 18.0667 23.7489 17.9033 23.7489 17.9033C23.8091 17.846 23.8635 17.7944 23.9209 17.7428L23.9581 17.7084C24.0241 17.6482 24.09 17.5908 24.1559 17.5364L24.2047 17.4991C24.262 17.4532 24.3079 17.4159 24.3538 17.3815L24.4082 17.3414C24.4656 17.3013 24.5086 17.2697 24.5487 17.2468C24.5487 17.2468 24.672 17.1723 24.6892 17.1608C24.7006 17.1551 24.7981 17.1092 24.821 17.0977C24.8755 17.0748 24.9185 17.0605 24.9615 17.0461C24.9959 17.0347 25.0275 17.0261 25.0561 17.0203C25.1135 17.0089 25.1651 17.0003 25.2195 17.0003C25.2425 17.0003 25.2625 16.9974 25.2826 16.9974H25.2941C25.317 16.9974 25.3399 16.9974 25.36 17.0003C25.4575 17.0117 25.5578 17.0404 25.6467 17.0891C25.6954 17.1149 25.7528 17.1493 25.813 17.1866L25.8588 17.2153C25.9133 17.2497 25.9764 17.2927 26.0452 17.3414C26.0595 17.35 26.0767 17.3643 26.0853 17.3729C26.1283 17.4045 26.1971 17.4561 26.2688 17.5105L26.3118 17.5449C26.3949 17.608 26.4752 17.6768 26.5641 17.7485C26.5698 17.7514 26.5927 17.7743 26.5985 17.7772C26.6787 17.846 26.7619 17.9205 26.8507 17.9979L26.888 18.0294C26.9884 18.1212 27.0858 18.2129 27.1862 18.3133L27.2292 18.3563C27.3266 18.4537 27.4241 18.5541 27.5244 18.6573L27.556 18.6888C27.6162 18.7519 27.6764 18.8178 27.7366 18.8866C28.4906 18.9038 29.256 18.9526 30.0157 19.0271C30.1648 19.0128 30.311 18.9984 30.4572 18.987C30.4486 18.8952 30.44 18.8035 30.4314 18.7117C30.4113 18.5025 30.3884 18.2932 30.3655 18.0896C30.3425 17.8918 30.3196 17.694 30.2967 17.502C30.2709 17.2984 30.2422 17.1006 30.2135 16.9028L30.1992 16.8025C30.1763 16.6476 30.1562 16.4928 30.1332 16.3409C30.1074 16.1746 30.0788 16.0141 30.053 15.8507L30.0042 15.5697C29.987 15.4579 29.967 15.3461 29.9469 15.2372C29.9354 15.1741 29.8666 14.8301 29.8666 14.8301C29.8265 14.6265 29.7892 14.423 29.7462 14.2252C29.7176 14.0905 29.686 13.9586 29.6574 13.8267L29.6115 13.6318C29.58 13.4884 29.5455 13.3422 29.514 13.2017C29.471 13.0269 29.428 12.8577 29.385 12.6886C29.3449 12.5309 29.3047 12.3761 29.2646 12.2242C29.2187 12.055 29.1729 11.8916 29.127 11.7282C29.084 11.582 29.041 11.4358 28.998 11.2896C28.9493 11.1262 28.9005 10.9685 28.8518 10.8137C28.8116 10.6904 28.7715 10.5672 28.7342 10.4467L28.6941 10.3206C28.654 10.1945 28.611 10.0683 28.568 9.94505C28.5336 9.85045 28.502 9.75583 28.4676 9.66409L28.4275 9.55228C28.33 9.2828 28.2325 9.01906 28.1322 8.76391C28.1322 8.76391 28.0233 8.48298 27.9917 8.40271C27.9459 8.2909 27.9029 8.18483 27.857 8.07876L27.8054 7.95549C27.7653 7.85802 27.7223 7.76054 27.6821 7.66307C27.6248 7.53406 27.5703 7.40792 27.513 7.28178C27.4642 7.1757 27.4184 7.06964 27.3696 6.96643C27.3123 6.84603 27.2578 6.72563 27.2005 6.61095C27.1518 6.51061 27.1059 6.41313 27.0572 6.31566C27.0027 6.20386 26.9482 6.09206 26.8909 5.98312C26.8421 5.88852 26.7045 5.62477 26.7045 5.62477C26.6644 5.54737 26.6243 5.46995 26.5841 5.39541L26.4408 5.13454C26.3433 4.95966 26.2487 4.79052 26.1541 4.62998L26.0108 4.38631L25.727 3.92475L25.5578 3.66099L25.4546 3.50332C25.4087 3.43452 25.3629 3.36571 25.3199 3.29977L25.1765 3.0905L25.0733 2.94429L24.8468 2.62895C24.801 2.56875 24.7608 2.51427 24.7207 2.4598C24.6748 2.39673 24.629 2.3394 24.586 2.28493C24.5458 2.23333 24.5028 2.17887 24.4656 2.133L24.2563 1.88072L24.6691 1.48223L24.2334 1.85491L24.0728 1.67143L24.4627 1.24715L24.0384 1.63416L24.0011 1.59404L24.3968 1.17835L23.9811 1.5711C23.7775 1.36182 23.7632 1.02641 23.9524 0.802795C24.0671 0.668055 24.2276 0.593506 24.3939 0.593506C24.5028 0.593506 24.6089 0.625046 24.7064 0.688115C24.9271 0.834323 25.1393 0.983393 25.3485 1.13247C25.3944 1.164 25.5492 1.27868 25.5492 1.27868C25.6897 1.38188 25.8302 1.48796 25.9678 1.59404C26.0337 1.64564 26.1885 1.76891 26.1885 1.76891C26.3147 1.86925 26.4408 1.97245 26.5612 2.07566C26.6329 2.13586 26.7017 2.19607 26.7733 2.25627C26.8995 2.36521 27.0228 2.47701 27.146 2.58881L27.1948 2.63182C27.2378 2.67196 27.2836 2.71209 27.3266 2.75222C27.49 2.90416 27.6506 3.06184 27.8083 3.21951L27.8455 3.25678C28.0118 3.42592 28.1723 3.59793 28.3329 3.76993L28.3673 3.8072C28.3902 3.83301 28.4791 3.93621 28.4791 3.93621C28.588 4.05662 28.6941 4.17703 28.7973 4.30031C28.846 4.35764 28.9607 4.49812 28.9607 4.49812C29.0553 4.61279 29.1499 4.72745 29.2388 4.84499C29.2904 4.91092 29.3449 4.97973 29.3965 5.04854C29.4882 5.16894 29.58 5.29221 29.6688 5.41548L29.7663 5.54736L29.795 5.59037C29.9154 5.76238 30.0272 5.92578 30.1332 6.08919L30.1791 6.15799C30.2995 6.34147 30.4142 6.52781 30.5289 6.71702L30.5547 6.75714L30.6292 6.88902C30.7066 7.0209 30.784 7.15564 30.8585 7.28752L30.9044 7.36492L30.9761 7.49966C31.042 7.62006 31.108 7.74333 31.171 7.86947C31.2083 7.94114 31.2456 8.01281 31.28 8.08448C31.343 8.21349 31.4061 8.3425 31.4663 8.47151L31.5323 8.60624L31.5523 8.64925C31.6355 8.82986 31.7071 8.99612 31.7788 9.15953L31.8132 9.23981C31.8963 9.43762 31.9737 9.63256 32.0511 9.8275L32.1142 9.99378C32.1658 10.1343 32.2174 10.2747 32.269 10.4152C32.2891 10.4725 32.3407 10.6245 32.3407 10.6245C32.3837 10.7506 32.4267 10.8796 32.4668 11.0086L32.5041 11.1204L32.5356 11.2236C32.5758 11.3555 32.6159 11.4874 32.6532 11.6164L32.7048 11.7884C32.7564 11.9719 32.7994 12.1353 32.8424 12.3016L32.8653 12.3904C32.9141 12.5882 32.9599 12.7832 33.0058 12.9781L33.0373 13.1215C33.0689 13.2677 33.1004 13.4139 33.1291 13.5601L33.1434 13.626L33.1663 13.755C33.1921 13.884 33.2151 14.013 33.238 14.142L33.2724 14.3427C33.2953 14.4746 33.3154 14.6065 33.3355 14.7383C33.3355 14.7383 33.3584 14.8932 33.3584 14.896C33.3842 15.0795 33.4071 15.24 33.4272 15.4006C33.4272 15.4006 33.4387 15.4809 33.4387 15.4923C33.4616 15.6672 33.4817 15.8564 33.5017 16.0456L33.5132 16.1546C33.5276 16.3008 33.5419 16.4498 33.5533 16.596C33.5533 16.596 33.5849 17.0203 33.5935 17.1465L33.6049 17.3185C33.6107 17.4475 33.6308 17.8517 33.6308 17.8517C33.6365 18.0094 33.6422 18.1642 33.6451 18.3161V18.3735C33.648 18.5397 33.6508 18.7089 33.6508 18.8723C33.8744 18.878 34.098 18.8866 34.3217 18.8981C35.3308 18.9497 36.3399 19.0644 37.3203 19.2421C38.5387 17.8116 39.5593 16.8225 40.1241 16.3638C40.3219 16.2033 40.5512 16.1173 40.7892 16.1173C41.5317 16.1173 42.4863 16.7795 43.9484 21.6416C44.0143 21.6789 44.0831 21.719 44.1491 21.7592L44.3469 21.8796C44.4902 21.9656 44.6336 22.0545 44.774 22.1462L44.9948 22.2895C45.1324 22.3784 45.2671 22.473 45.4019 22.5647C45.4019 22.5647 45.5567 22.6708 45.6111 22.7109C45.7688 22.8228 45.9294 22.9403 46.087 23.0607L46.2046 23.1496C46.3967 23.2958 46.5859 23.4477 46.7751 23.6025L46.9557 23.7545C47.0847 23.8634 47.2137 23.9723 47.3398 24.0841L47.5548 24.2762C47.6724 24.3823 47.7871 24.4855 47.9017 24.5944L48.1167 24.7951C48.24 24.9127 48.3604 25.0302 48.4808 25.1506C48.4808 25.1506 48.6184 25.2853 48.6557 25.3255C48.8248 25.4975 48.994 25.6752 49.1631 25.853L49.3409 26.045C49.4555 26.1683 49.5673 26.2945 49.6791 26.4206C49.7508 26.5037 49.8225 26.5869 49.8942 26.6671C49.9916 26.7818 50.0891 26.8965 50.1866 27.0112C50.2583 27.0972 50.3299 27.1832 50.4016 27.272C50.5019 27.3953 50.5994 27.5186 50.6969 27.6419C50.6969 27.6419 50.8459 27.8282 50.8918 27.8913C51.0438 28.0891 51.1957 28.2897 51.3448 28.4933C51.8895 29.2329 52.4313 30.0414 52.9588 30.8928L52.9846 30.9358C53.1509 31.2053 53.2999 31.4547 53.449 31.707L53.5149 31.8217C53.6554 32.0625 53.793 32.3033 53.9278 32.547L54.0138 32.7018C54.1428 32.934 54.2689 33.1662 54.3951 33.4041L54.4954 33.5962C54.6158 33.8256 54.7333 34.0549 54.8509 34.2842L54.9627 34.5079C55.0745 34.7315 55.1863 34.958 55.2981 35.1873L55.579 35.7721L55.86 36.3828C55.9632 36.6064 56.0635 36.83 56.1639 37.0564L56.4104 37.6183C56.4477 37.7044 56.7172 38.3437 56.7172 38.3437L56.8118 38.5701C56.8519 38.6676 57.1271 39.347 57.1271 39.347C57.216 39.5678 57.3049 39.7943 57.3909 40.0179L57.5285 40.3734C57.6145 40.597 57.6976 40.8206 57.7836 41.0471L57.9212 41.4169C57.9958 41.6175 58.0674 41.8211 58.142 42.0218L58.3082 42.4805C58.3914 42.7127 58.4716 42.9477 58.5548 43.1828L58.6867 43.5612C58.7641 43.7906 58.8415 44.0228 58.9189 44.2521L59.0565 44.6592C59.1798 45.0291 59.3002 45.3989 59.4206 45.7744C59.5094 46.0525 59.3747 46.3507 59.1109 46.4711C59.0335 46.5055 58.9533 46.5227 58.8759 46.5227C58.6809 46.5227 58.4917 46.4223 58.3828 46.2446C58.3713 46.2245 57.1558 44.2063 55.8543 42.3687C55.7826 42.2654 55.7081 42.1622 55.6335 42.0619C55.4873 41.8612 55.3411 41.6605 55.1949 41.4685C55.0057 41.2191 54.8365 41.0012 54.6817 40.812C55.6192 44.5388 56.9981 52.844 53.7127 61.5075C53.6267 61.734 53.4117 61.8773 53.1767 61.8773C53.1365 61.8773 53.0935 61.8744 53.0534 61.863C52.7753 61.8028 52.5832 61.5476 52.6033 61.2638C52.6033 61.2466 52.7122 59.5867 52.4743 58.288C52.4571 58.1906 52.437 58.0988 52.417 58.0128C52.2593 58.4973 52.1102 58.9388 52.0758 59.0363C52.0385 59.1452 51.9984 59.257 51.9583 59.3717C51.4508 60.7965 50.9319 62.0092 50.4216 62.9781C50.3614 63.0928 50.3013 63.2075 50.2382 63.3164C49.6591 64.3542 49.1029 65.048 48.541 65.4379C48.4407 65.5067 48.326 65.5411 48.2142 65.5411C48.0594 65.5411 47.9075 65.478 47.7957 65.3576C47.6867 65.2401 47.6322 65.0766 47.6437 64.919C47.6609 64.6581 47.7899 62.7717 47.7899 60.699C43.5872 66.4413 36.9849 69.8184 29.7892 69.8184C26.3548 69.8184 22.9519 69.0214 19.8901 67.5048C19.7525 67.9893 19.4142 68.4136 18.9269 68.6401L17.8576 69.1332C17.9608 69.4944 17.9464 69.8757 17.8146 70.234C17.6512 70.6784 17.3215 71.0339 16.8915 71.2346L15.9655 71.6617L16.1432 72.043C16.5532 72.9317 16.1662 73.9924 15.2746 74.4024L13.2649 75.3312C13.2793 75.5061 13.2535 75.6838 13.1789 75.8501L13.1073 76.0107C12.9983 76.2601 12.7977 76.4521 12.5568 76.5554C12.0379 78.6051 10.5787 82.3348 10.5128 82.5011C10.4268 82.7219 10.2147 82.8652 9.97958 82.8652L9.98531 82.8881ZM12.253 61.3269C12.2558 61.5963 12.2616 61.8744 12.2673 62.1582C12.273 62.422 12.2816 62.6771 12.2902 62.9151C12.296 63.0785 12.3017 63.2333 12.3103 63.3824L12.6772 63.2132C12.8894 63.1158 13.1101 63.0613 13.3423 63.0498C13.2621 62.8635 13.2191 62.6628 13.2076 62.4564C12.8779 62.0894 12.5597 61.7139 12.253 61.3269Z" fill="#EEC654"/>
<path d="M24.3967 1.17538C24.6117 1.31586 24.8181 1.46207 25.0217 1.60828C25.0876 1.65701 25.1507 1.70288 25.2166 1.75162C25.3542 1.85195 25.489 1.95516 25.6208 2.05837C25.6925 2.1157 25.7642 2.17016 25.8358 2.2275C25.9591 2.32497 26.0795 2.42532 26.197 2.52566C26.2659 2.58299 26.3347 2.64319 26.4035 2.70053C26.5267 2.8066 26.6443 2.91554 26.7647 3.02161C26.822 3.07321 26.8794 3.12481 26.9367 3.17928C27.0972 3.32836 27.252 3.4803 27.404 3.63511C27.4154 3.64658 27.4269 3.65805 27.4384 3.66951C27.6018 3.83292 27.7595 4.00206 27.9114 4.16833C27.9229 4.1798 27.9343 4.19127 27.9458 4.2056C27.9831 4.24574 28.0175 4.28874 28.0547 4.32888C28.1579 4.44641 28.2612 4.56395 28.3615 4.68149C28.416 4.74456 28.4676 4.80764 28.522 4.87358C28.6138 4.98538 28.7026 5.09718 28.7915 5.20899C28.8431 5.27492 28.8947 5.33799 28.9435 5.40393C29.0323 5.52147 29.1212 5.64187 29.2072 5.75941C29.2387 5.80241 29.2703 5.84542 29.3018 5.88555C29.3133 5.90275 29.3247 5.91995 29.3362 5.93428C29.448 6.09196 29.5541 6.24964 29.6602 6.40731C29.6745 6.42738 29.6888 6.45031 29.7032 6.47037C29.8207 6.65098 29.9354 6.8316 30.0443 7.01507C30.0529 7.02654 30.0586 7.03801 30.0672 7.05234C30.093 7.09535 30.116 7.14122 30.1446 7.18422C30.2192 7.31323 30.2937 7.44223 30.3654 7.57124C30.3797 7.59704 30.3941 7.62284 30.4084 7.64864C30.4313 7.69165 30.4514 7.73465 30.4743 7.77479C30.5403 7.89519 30.6033 8.01558 30.6635 8.13599C30.6979 8.20479 30.7352 8.27361 30.7696 8.34528C30.8327 8.47142 30.8929 8.59469 30.9531 8.72083C30.9732 8.7667 30.9961 8.80969 31.0162 8.85269C31.0248 8.86989 31.0334 8.88996 31.0391 8.90716C31.1136 9.0677 31.1824 9.22826 31.2512 9.3888C31.2627 9.41747 31.2742 9.44326 31.2856 9.47193C31.3659 9.66114 31.4404 9.85034 31.515 10.0396C31.5179 10.051 31.5236 10.0625 31.5293 10.074C31.5465 10.117 31.5609 10.16 31.5781 10.203C31.6297 10.3377 31.6784 10.4753 31.7271 10.61C31.7501 10.6788 31.773 10.7477 31.7988 10.8136C31.8418 10.9369 31.8819 11.063 31.9221 11.1863C31.9335 11.2235 31.9479 11.2608 31.9593 11.2981C31.9708 11.3296 31.9794 11.364 31.988 11.3956C32.0281 11.5246 32.0654 11.6536 32.1027 11.7797C32.1141 11.8227 32.1285 11.8657 32.1428 11.9116C32.1486 11.9317 32.1514 11.9489 32.1571 11.9689C32.203 12.1295 32.2432 12.2871 32.2862 12.4477C32.2948 12.4763 32.3034 12.5079 32.3091 12.5366C32.3578 12.7286 32.4037 12.9178 32.4438 13.107C32.4438 13.1156 32.4496 13.1242 32.4496 13.1357C32.4582 13.173 32.4639 13.2131 32.4725 13.2504C32.504 13.3937 32.5327 13.5342 32.5614 13.6775C32.5671 13.7005 32.57 13.7234 32.5757 13.7463C32.5843 13.7865 32.59 13.8295 32.5986 13.8696C32.6216 13.9957 32.6474 14.1219 32.6674 14.248C32.6789 14.314 32.6904 14.3799 32.7018 14.443C32.7248 14.572 32.7448 14.701 32.762 14.83C32.7678 14.8701 32.7764 14.9103 32.7821 14.9475C32.7821 14.9647 32.7878 14.9848 32.7907 15.002C32.8136 15.1597 32.8337 15.3202 32.8538 15.4779C32.8538 15.498 32.8595 15.5209 32.8624 15.541C32.8624 15.5438 32.8624 15.5496 32.8624 15.5524C32.8853 15.7388 32.9054 15.9251 32.9254 16.1086C32.9283 16.143 32.9312 16.1803 32.9341 16.2147C32.9484 16.3609 32.9599 16.5042 32.9742 16.6504C32.9799 16.7049 32.9828 16.7594 32.9857 16.8138C32.9943 16.94 33.0029 17.0661 33.0115 17.1894C33.0143 17.2467 33.0172 17.3012 33.0201 17.3585C33.0258 17.4847 33.0344 17.6108 33.0373 17.7369C33.0373 17.7857 33.043 17.8344 33.043 17.8831C33.0487 18.0351 33.0545 18.187 33.0573 18.3361C33.0573 18.3562 33.0573 18.3734 33.0573 18.3934C33.0602 18.5683 33.0631 18.7403 33.0631 18.9123C33.0631 18.9324 33.0631 18.9496 33.0631 18.9697C33.0631 19.1159 33.0631 19.2621 33.0602 19.4054C33.0602 19.4198 33.0602 19.4341 33.0602 19.4484C33.473 19.4484 33.8772 19.4599 34.2786 19.48C35.4081 19.5373 36.4889 19.672 37.5295 19.8756C38.7422 18.425 39.8517 17.3213 40.4709 16.8167C40.5684 16.7364 40.6716 16.6992 40.7748 16.6992C41.6778 16.6992 42.7242 19.5803 43.4495 22.0343C43.5814 22.1088 43.7104 22.1805 43.8394 22.2579C43.9025 22.2952 43.9684 22.3353 44.0315 22.3754C44.1719 22.4614 44.3096 22.5474 44.4472 22.6363C44.5188 22.6822 44.5905 22.7281 44.6622 22.7768C44.794 22.8657 44.9259 22.9545 45.0578 23.0463C45.1237 23.0921 45.1925 23.138 45.2585 23.1867C45.4133 23.2985 45.5681 23.4103 45.7229 23.5279C45.7602 23.5566 45.8003 23.5824 45.8376 23.611C46.0239 23.7544 46.2102 23.9006 46.3937 24.0525C46.4539 24.1013 46.5113 24.1529 46.5715 24.2016C46.6976 24.3077 46.8237 24.4137 46.947 24.5227C47.0187 24.5858 47.0875 24.646 47.1592 24.709C47.271 24.8094 47.3856 24.9126 47.4974 25.0186C47.5662 25.0846 47.6379 25.1476 47.7067 25.2164C47.8271 25.3311 47.9447 25.4487 48.0622 25.5633C48.1195 25.6207 48.1769 25.6751 48.2342 25.7325C48.4005 25.9016 48.5668 26.0736 48.7302 26.2514C48.7875 26.3144 48.8448 26.3775 48.9022 26.4406C49.014 26.561 49.1229 26.6842 49.2319 26.8075C49.3035 26.8878 49.3723 26.9681 49.4411 27.0512C49.5386 27.163 49.6332 27.2748 49.7278 27.3895C49.7995 27.4755 49.8683 27.5586 49.94 27.6446C50.0374 27.765 50.132 27.8855 50.2295 28.0059C50.2926 28.0861 50.3585 28.1693 50.4216 28.2495C50.5707 28.4445 50.7197 28.6394 50.8659 28.8401C51.4135 29.5883 51.9439 30.3767 52.4542 31.2023C52.4685 31.2224 52.48 31.2453 52.4943 31.2683C52.6434 31.512 52.7924 31.7585 52.9386 32.0079C52.9616 32.0452 52.9845 32.0853 53.0046 32.1226C53.1422 32.3577 53.2769 32.5927 53.4117 32.8336C53.4403 32.8852 53.469 32.9368 53.4977 32.9884C53.6238 33.2177 53.75 33.4471 53.8732 33.6821C53.9076 33.7452 53.9392 33.8083 53.9736 33.8713C54.0911 34.095 54.2086 34.3243 54.3262 34.5536C54.3634 34.6253 54.4007 34.6999 54.438 34.7744C54.5498 34.998 54.6587 35.2216 54.7705 35.4481C54.8107 35.5312 54.8508 35.6115 54.8881 35.6946C54.9426 35.8064 54.9942 35.9154 55.0486 36.0272C55.1002 36.139 55.1518 36.2508 55.2034 36.3626C55.2436 36.4515 55.2866 36.5432 55.3267 36.6321C55.427 36.8528 55.5274 37.0764 55.6277 37.3001C55.6707 37.3975 55.7137 37.495 55.7567 37.5925C55.794 37.6813 55.8341 37.7673 55.8714 37.8533C55.9287 37.9852 55.9832 38.12 56.0405 38.2547C56.0864 38.3608 56.1294 38.4668 56.1753 38.5729C56.2068 38.6475 56.2383 38.722 56.2699 38.7994C56.3301 38.9427 56.3874 39.0918 56.4476 39.2351C56.4935 39.347 56.5394 39.4588 56.5824 39.5706C56.6712 39.7913 56.7572 40.0121 56.8461 40.2357C56.892 40.3532 56.9378 40.4707 56.9837 40.5883C57.0697 40.809 57.1529 41.0355 57.2389 41.2591C57.2847 41.3824 57.3306 41.5028 57.3765 41.6261C57.4596 41.8497 57.5399 42.0761 57.623 42.3055C57.6689 42.4316 57.7148 42.5578 57.7606 42.6839C57.8438 42.9133 57.924 43.1483 58.0043 43.3805C58.0473 43.5067 58.0932 43.6328 58.1362 43.759C58.2222 44.0112 58.3082 44.2664 58.3942 44.5215C58.4315 44.6333 58.4687 44.7423 58.506 44.8512C58.6264 45.2182 58.7468 45.588 58.8672 45.9635C58.8672 45.9635 57.6459 43.9281 56.3157 42.0504C56.2412 41.9472 56.1667 41.8411 56.0921 41.7379C55.9431 41.5315 55.794 41.3279 55.6449 41.133C54.8279 40.0551 54.0424 39.1692 53.535 38.98C53.535 38.98 57.4854 49.9312 53.168 61.3124C53.168 61.3124 53.2855 59.5838 53.0304 58.1934C52.9931 57.9956 52.9501 57.8035 52.8956 57.6257C52.8784 57.5655 52.8584 57.5082 52.8383 57.4508C52.7007 57.0552 52.5086 56.7427 52.2477 56.5879C52.2477 56.5879 51.9754 57.5598 51.5253 58.8556C51.488 58.9645 51.4479 59.0735 51.4078 59.1853C51.0093 60.3033 50.4875 61.6077 49.9027 62.72C49.8454 62.8318 49.7852 62.9408 49.725 63.0469C49.2462 63.9012 48.7302 64.6093 48.2027 64.9791C48.2027 64.9791 48.4435 61.731 48.3145 58.8871C44.4873 65.1081 37.6184 69.2564 29.7777 69.2564C25.9677 69.2564 22.3871 68.2731 19.2708 66.5501C19.5375 67.1493 19.2737 67.8545 18.6774 68.1297L17.1093 68.855L17.2354 69.1245C17.5135 69.7294 17.2497 70.4432 16.6477 70.7213L15.0681 71.4495C15.22 71.5642 15.3519 71.7132 15.4379 71.8996L15.6185 72.2895C15.8966 72.8943 15.6329 73.6082 15.0308 73.8863L12.5195 75.0473C12.6829 75.1849 12.7431 75.4171 12.6542 75.6207L12.5826 75.7812C12.5023 75.9647 12.3217 76.0736 12.1325 76.0736C12.1153 76.0736 12.101 76.0736 12.0838 76.0736C11.6738 77.9829 9.97952 82.2975 9.97952 82.2975C9.47782 82.2975 8.62924 81.6381 8.62924 81.6381C8.62924 81.6381 7.96988 81.2912 7.0267 81.1049C6.08352 80.9157 5.51875 79.0637 5.51875 79.0637C4.98553 79.0637 4.4179 78.4044 4.4179 78.4044C4.83932 76.9509 7.70614 75.076 8.60918 74.517C8.48591 74.3765 8.44577 74.1729 8.52604 73.9923L8.59771 73.8318C8.67798 73.6483 8.85859 73.5394 9.0478 73.5394C9.11374 73.5394 9.18254 73.5537 9.24847 73.5824L9.48068 73.6856L8.4945 71.5498C8.21642 70.9449 8.48017 70.2311 9.0822 69.953L9.47208 69.7724C9.63549 69.6979 9.80463 69.6606 9.97378 69.6606C10.335 69.6606 10.6847 69.8269 10.917 70.1135L10.0684 68.2759C9.79031 67.671 10.054 66.9572 10.6561 66.6791L11.046 66.4985C11.2094 66.424 11.3814 66.3867 11.5505 66.3867C12.0063 66.3867 12.4421 66.6447 12.6456 67.0862L13.543 69.0299L13.5716 69.0156C13.5458 68.9754 13.5172 68.9353 13.4971 68.8894L11.9318 65.5009C11.6537 64.896 11.9175 64.1821 12.5195 63.904L12.9094 63.7234C13.0728 63.6489 13.2448 63.6116 13.4139 63.6116C13.8698 63.6116 14.3055 63.8696 14.5091 64.3111L14.9764 65.3231C14.9792 65.303 14.9878 65.283 14.9936 65.2629L13.8784 62.8491C13.7838 62.6484 13.758 62.4334 13.778 62.227C13.0126 61.3956 12.3131 60.5069 11.6853 59.5666C11.6824 59.7214 11.6767 59.8733 11.6767 60.0281C11.6767 60.1743 11.6738 60.3234 11.6738 60.4696C11.6709 61.0544 11.6795 61.6307 11.691 62.1639C11.6967 62.4305 11.7053 62.6856 11.7139 62.9265C11.7225 63.1673 11.7311 63.3937 11.7426 63.603C11.7827 64.4373 11.8229 64.9791 11.8229 64.9791C9.71003 63.5084 7.78067 56.5908 7.78067 56.5908C7.7434 56.6137 7.70613 56.6395 7.67173 56.6653C7.60293 56.7227 7.53986 56.7915 7.47966 56.8689C7.27611 57.1441 7.13277 57.5455 7.0353 57.9984C6.72855 59.4146 6.85756 61.3124 6.85756 61.3124C4.42937 54.908 4.61571 48.644 5.24354 44.3868C5.27794 44.1488 5.31521 43.9195 5.35248 43.6959C5.42702 43.2487 5.50442 42.8273 5.58469 42.4345C5.7825 41.4512 5.98892 40.6485 6.15232 40.0665C6.21826 39.8343 6.27846 39.6336 6.32719 39.4731C6.42753 39.152 6.48774 38.98 6.48774 38.98C6.44187 38.9972 6.39313 39.0201 6.3444 39.0488C6.14372 39.1635 5.90578 39.3613 5.64776 39.6222C5.58183 39.6881 5.51876 39.7569 5.44995 39.8286C5.24928 40.0465 5.03714 40.2959 4.81926 40.5654C4.74759 40.6542 4.67305 40.7488 4.60138 40.8434C4.2631 41.2763 3.91908 41.7522 3.5808 42.2338C3.22818 42.7384 2.88702 43.2458 2.57454 43.7217C2.34233 44.0772 2.12445 44.4126 1.93524 44.7107C1.63996 45.1752 1.41348 45.5421 1.28448 45.7571C1.26728 45.7858 1.25008 45.8145 1.23575 45.8374C1.18701 45.9148 1.16121 45.9635 1.16121 45.9635C1.30455 45.5192 1.44789 45.0806 1.59123 44.6448C1.63136 44.5215 1.67436 44.4011 1.7145 44.2779C1.7317 44.2291 1.74604 44.1833 1.76324 44.1345C1.85211 43.8765 1.93811 43.6156 2.02698 43.3605C2.10438 43.1426 2.18179 42.9276 2.25633 42.7097C2.328 42.509 2.39967 42.3055 2.47134 42.1048C2.56021 41.864 2.64908 41.6261 2.73795 41.3881C2.80102 41.219 2.86409 41.0498 2.92716 40.8836C3.02464 40.6255 3.12497 40.3733 3.22531 40.1181C3.27977 39.9777 3.33712 39.8343 3.39159 39.6938C3.41452 39.6336 3.44032 39.5706 3.46326 39.5104C3.54639 39.3011 3.63239 39.0975 3.7184 38.8911C3.76713 38.7736 3.81587 38.6532 3.86461 38.5356C3.89614 38.4611 3.92481 38.3837 3.95635 38.3092C4.04235 38.1056 4.12836 37.9107 4.21723 37.71C4.26023 37.6097 4.30323 37.5093 4.3491 37.409C4.47524 37.1252 4.60138 36.8471 4.72752 36.569C4.76479 36.4859 4.80492 36.3999 4.84219 36.3167C4.88806 36.2164 4.93392 36.1103 4.98266 36.01C5.06867 35.8265 5.15754 35.6459 5.24641 35.4653C5.28081 35.3965 5.31235 35.3248 5.34675 35.256C5.48723 34.9665 5.63057 34.6798 5.77677 34.396C5.80544 34.3386 5.83411 34.2842 5.86277 34.2268C5.92871 34.0978 5.99465 33.966 6.06058 33.8398C6.14659 33.6793 6.23259 33.5245 6.31859 33.3639C6.3444 33.318 6.36733 33.2722 6.39313 33.2292C6.47054 33.0887 6.54507 32.9454 6.62248 32.8049C6.70561 32.6558 6.78875 32.5153 6.87476 32.3691C6.89482 32.3347 6.91489 32.3003 6.93496 32.2659C7.10123 31.9764 7.27038 31.6926 7.44239 31.4116C7.45672 31.3858 7.47392 31.36 7.48826 31.3371C7.66313 31.0504 7.84374 30.7666 8.02148 30.4885C8.03295 30.4713 8.04155 30.457 8.05302 30.4398C8.23936 30.156 8.4257 29.875 8.61491 29.5998C8.62065 29.5912 8.62638 29.5826 8.63211 29.5769C9.69283 28.0489 10.8281 26.6757 12.0494 25.4745C12.1038 25.42 12.1583 25.3655 12.2128 25.3139C12.3647 25.1677 12.5166 25.0244 12.6714 24.8839C12.7374 24.8237 12.8004 24.7664 12.8664 24.7062C13.0183 24.5686 13.1731 24.4338 13.3308 24.2991C13.391 24.2475 13.4541 24.1959 13.5172 24.1443C14.0246 23.7228 14.5492 23.3272 15.0853 22.9603C15.177 22.8972 15.2659 22.8341 15.3576 22.7739C15.4981 22.6822 15.6386 22.5933 15.7819 22.5045C15.8937 22.4356 16.0027 22.3668 16.1145 22.3009C16.2492 22.2206 16.3868 22.1404 16.5244 22.063C16.6506 21.9913 16.7767 21.9225 16.9029 21.8566C17.0319 21.7877 17.1637 21.7161 17.2956 21.6501C17.4504 21.5699 17.6081 21.4953 17.7658 21.4208C17.8718 21.3692 17.9779 21.3176 18.0869 21.2689C18.3449 21.1513 18.6086 21.0395 18.8724 20.9334C18.9727 20.8933 19.0788 20.856 19.1791 20.8159C19.3597 20.7471 19.5403 20.6783 19.7238 20.6152C19.8356 20.5751 19.9503 20.5378 20.0649 20.5005C20.2456 20.4403 20.4262 20.3859 20.6096 20.3314C20.6727 20.3113 20.7358 20.2913 20.7989 20.2712C20.8476 20.2569 20.8992 20.2454 20.9479 20.2311C21.1486 20.1766 21.3493 20.125 21.5528 20.0763C21.6503 20.0533 21.7506 20.0275 21.8481 20.0046C22.152 19.9358 22.4559 19.8699 22.7683 19.8154C22.84 19.7294 22.9117 19.6462 22.9834 19.5602C23.0092 19.5287 23.0378 19.5 23.0636 19.4685C23.1124 19.414 23.1582 19.3596 23.207 19.3051C23.2385 19.2707 23.27 19.2363 23.2987 19.199C23.3417 19.1503 23.3847 19.1015 23.4277 19.0557C23.4592 19.0213 23.4908 18.9869 23.5195 18.9525C23.5625 18.9066 23.6026 18.8607 23.6456 18.8177C23.6771 18.7862 23.7058 18.7518 23.7373 18.7203C23.7803 18.6773 23.8205 18.6343 23.8606 18.5912C23.8893 18.5626 23.9179 18.531 23.9466 18.5024C23.9896 18.4594 24.0326 18.4164 24.0727 18.3762C24.0985 18.3504 24.1215 18.3275 24.1473 18.3017C24.2018 18.2501 24.2534 18.2014 24.305 18.1526C24.3164 18.1412 24.3279 18.1297 24.3394 18.1211C24.4024 18.0638 24.4626 18.0122 24.52 17.9634C24.5372 17.9491 24.5544 17.9347 24.5744 17.9204C24.6146 17.8889 24.6547 17.8574 24.692 17.8287C24.712 17.8144 24.7321 17.8 24.7522 17.7857C24.7866 17.7627 24.8181 17.7398 24.8497 17.7197C24.8697 17.7054 24.8898 17.6939 24.9099 17.6825C24.9242 17.6739 24.9414 17.6624 24.9557 17.6538C24.9701 17.6452 24.9815 17.6423 24.9959 17.6366C25.0131 17.628 25.0331 17.6194 25.0503 17.6108C25.0761 17.5993 25.1019 17.5907 25.1277 17.5821C25.1421 17.5764 25.1593 17.5707 25.1736 17.5678C25.1994 17.5621 25.2223 17.5592 25.2481 17.5592C25.2567 17.5592 25.2682 17.5592 25.2768 17.5592C25.2768 17.5592 25.2797 17.5592 25.2825 17.5592C25.2825 17.5592 25.2854 17.5592 25.2883 17.5592C25.3169 17.5621 25.3456 17.5707 25.3714 17.585C25.4087 17.6051 25.4545 17.6337 25.5061 17.6653C25.5119 17.6681 25.5176 17.671 25.5234 17.6767C25.5291 17.6796 25.5348 17.6853 25.5406 17.6882C25.5922 17.7226 25.6495 17.7599 25.7097 17.8029C25.7097 17.8029 25.7097 17.8029 25.7126 17.8029C25.7154 17.8029 25.7212 17.8086 25.724 17.8115C25.7814 17.8545 25.8473 17.9004 25.9132 17.952C25.9276 17.9634 25.9419 17.9749 25.9562 17.9864C26.0308 18.0437 26.1053 18.1068 26.1884 18.1756C26.1913 18.1756 26.1942 18.1813 26.197 18.1842C26.2028 18.1899 26.2114 18.1956 26.2171 18.2014C26.2945 18.2673 26.3719 18.3361 26.4551 18.4106C26.4694 18.4221 26.4809 18.4336 26.4952 18.4479C26.5841 18.531 26.6787 18.6199 26.7733 18.7145C26.779 18.7203 26.7847 18.726 26.7905 18.7317C26.7991 18.7403 26.8106 18.7518 26.8192 18.7604C26.9109 18.8493 27.0026 18.9439 27.0972 19.0442C27.1087 19.0557 27.1173 19.0671 27.1288 19.0786C27.2291 19.1876 27.3352 19.3022 27.4384 19.4198C27.447 19.4284 27.4556 19.437 27.4642 19.4484C28.287 19.4628 29.1327 19.5086 30.0042 19.5975C30.3625 19.5602 30.7151 19.5344 31.0649 19.5115C31.0592 19.4312 31.0534 19.3481 31.0477 19.2678C31.0305 19.0614 31.0104 18.855 30.9904 18.6515C30.9703 18.4393 30.9474 18.2272 30.9244 18.0208C30.9015 17.8201 30.8785 17.6223 30.8556 17.4245C30.8298 17.218 30.8012 17.0174 30.7725 16.8167C30.7467 16.6246 30.718 16.4325 30.6893 16.2462C30.6578 16.0398 30.6205 15.8362 30.5861 15.6327C30.5575 15.4636 30.5317 15.2944 30.5001 15.1281C30.4801 15.0163 30.4571 14.9103 30.4342 14.7985C30.3883 14.5634 30.3453 14.3283 30.2966 14.1018C30.2593 13.9212 30.2163 13.7463 30.1762 13.5715C30.1389 13.4023 30.0988 13.2303 30.0586 13.064C30.0156 12.8863 29.9726 12.7143 29.9268 12.5394C29.8866 12.3817 29.8465 12.2241 29.8035 12.0693C29.7576 11.9001 29.7118 11.731 29.663 11.5647C29.62 11.4156 29.577 11.2666 29.534 11.1203C29.4853 10.9569 29.4365 10.7964 29.3878 10.6359C29.3419 10.4925 29.2961 10.3549 29.2502 10.2144C29.1986 10.0596 29.1499 9.90195 29.0954 9.75287C29.0495 9.61813 29.0008 9.48626 28.9521 9.35438C28.8546 9.07917 28.7542 8.81256 28.651 8.55168C28.6023 8.42841 28.5564 8.30228 28.5077 8.18474C28.4504 8.04426 28.393 7.90953 28.3386 7.77479C28.2898 7.66011 28.244 7.54544 28.1952 7.43363C28.1379 7.30176 28.0805 7.17274 28.0232 7.0466C27.9745 6.93767 27.9257 6.83159 27.877 6.72552C27.8197 6.60225 27.7623 6.48186 27.705 6.36145C27.6563 6.25824 27.6075 6.15789 27.5588 6.06042C27.5014 5.94575 27.447 5.83108 27.3896 5.72214C27.3409 5.62467 27.2922 5.53293 27.2434 5.43833C27.189 5.33226 27.1316 5.22619 27.0772 5.12299C27.0284 5.03125 26.9797 4.94525 26.931 4.85638C26.8306 4.67863 26.7331 4.50661 26.6385 4.34034C26.5898 4.2572 26.5411 4.1712 26.4923 4.09379C26.4407 4.00779 26.3891 3.92465 26.3375 3.84151C26.2917 3.76698 26.2458 3.68958 26.1999 3.61791C26.1512 3.53764 26.1024 3.46309 26.0537 3.38855C26.0107 3.31975 25.9648 3.25383 25.9218 3.18789C25.876 3.11622 25.8272 3.04741 25.7842 2.98147C25.7412 2.9184 25.6982 2.85819 25.6581 2.79799C25.6151 2.73492 25.5721 2.67473 25.532 2.61453C25.489 2.55433 25.4488 2.49985 25.4087 2.44538C25.3714 2.39378 25.3313 2.33931 25.2969 2.29058C25.251 2.22751 25.208 2.17303 25.165 2.11569C25.1163 2.05262 25.0704 1.99243 25.0274 1.9351C24.9844 1.88063 24.9414 1.82614 24.9041 1.77741C24.8755 1.74301 24.8525 1.71148 24.8239 1.67995C24.7952 1.64268 24.7637 1.60541 24.735 1.57388C24.712 1.54521 24.6891 1.5194 24.6662 1.4936C24.6404 1.46493 24.6174 1.43627 24.5945 1.41047C24.5744 1.38753 24.5572 1.36746 24.54 1.35026C24.52 1.32732 24.5028 1.30726 24.4856 1.29006C24.4741 1.27573 24.4598 1.26139 24.4483 1.24992C24.434 1.23272 24.4196 1.21838 24.411 1.20692C24.4053 1.20118 24.3967 1.19258 24.3938 1.18972C24.3852 1.18111 24.3824 1.17825 24.3795 1.17538C24.3795 1.17538 24.3766 1.16965 24.3738 1.16965M11.9289 72.2149L12.0379 72.1662C11.949 72.1002 11.8659 72.0228 11.7971 71.9311L11.9289 72.2149ZM24.3967 0.0286611C24.3795 0.0286611 24.3652 0.0286611 24.348 0.0286611C24.1588 0.0372615 23.981 0.0888697 23.8262 0.177741C23.723 0.237944 23.6284 0.312475 23.5424 0.404212C23.3675 0.596289 23.2586 0.848571 23.2471 1.12378V1.12665C23.2471 1.14385 23.2471 1.16392 23.2471 1.18112C23.2471 1.38467 23.3044 1.57101 23.3962 1.73442C23.4392 1.81182 23.4936 1.88349 23.5539 1.94943C23.5596 1.95516 23.5653 1.96376 23.5711 1.9695L23.5854 1.98383L23.6227 2.02397L23.6399 2.04402C23.6399 2.04402 23.6485 2.0555 23.6513 2.0555L23.6972 2.1071L23.7431 2.1587L23.8061 2.23324L23.8692 2.30778L23.9495 2.40524L23.9724 2.43392L24.024 2.49698C24.0555 2.53712 24.0928 2.58299 24.1272 2.62886L24.1387 2.64319C24.1788 2.69479 24.2218 2.75214 24.2677 2.81234C24.3136 2.87254 24.3508 2.92126 24.391 2.97573L24.4598 3.07034L24.497 3.11907C24.5343 3.17068 24.5716 3.22229 24.6117 3.27963C24.649 3.3341 24.692 3.39143 24.7321 3.45163C24.7722 3.50897 24.8124 3.5663 24.8525 3.6265C24.8955 3.68957 24.9414 3.75551 24.9844 3.82431C25.0245 3.88738 25.0675 3.95045 25.1077 4.01639C25.1535 4.08806 25.1994 4.15973 25.2481 4.23427C25.2825 4.28587 25.3141 4.34034 25.3485 4.39481L25.38 4.44641L25.4087 4.49515C25.4488 4.55822 25.4861 4.62129 25.5262 4.68723C25.5578 4.73883 25.5893 4.7933 25.6208 4.84777L25.6638 4.92518C25.7556 5.08285 25.8502 5.24912 25.9448 5.41826L25.9849 5.48993C26.0193 5.55013 26.0537 5.61034 26.0852 5.67341C26.1283 5.75081 26.1684 5.83109 26.2114 5.91136L26.2429 5.97442L26.2573 6.00023C26.3003 6.0805 26.3433 6.16363 26.3863 6.24677C26.4407 6.35284 26.4952 6.46178 26.5468 6.57072C26.5927 6.66533 26.6414 6.7628 26.6873 6.86027C26.7418 6.97495 26.7962 7.09248 26.8507 7.21001C26.8965 7.31035 26.9453 7.41356 26.9912 7.51963C27.0456 7.64291 27.103 7.76618 27.1574 7.89232C27.1918 7.97259 27.2262 8.05572 27.2606 8.13886L27.295 8.22201L27.3323 8.31088C27.3753 8.41122 27.4183 8.51442 27.4585 8.61763C27.49 8.69217 27.5186 8.77244 27.5502 8.84984L27.5961 8.97311C27.6935 9.22252 27.791 9.48341 27.8856 9.74715L27.9229 9.84748C27.9573 9.94209 27.9917 10.0338 28.0232 10.1313C28.0633 10.246 28.1006 10.3606 28.1379 10.4782L28.1694 10.5756L28.1752 10.5928C28.2182 10.7219 28.2612 10.8509 28.3013 10.9827C28.35 11.1347 28.3959 11.2924 28.4446 11.45C28.4876 11.5934 28.5306 11.7339 28.5708 11.8801C28.6166 12.0406 28.6625 12.204 28.7055 12.3703C28.7456 12.5193 28.7858 12.6713 28.823 12.8261C28.866 12.9981 28.9091 13.1644 28.9492 13.3335C28.9807 13.4625 29.0094 13.5944 29.0409 13.7291L29.0639 13.8266L29.0954 13.9642C29.1241 14.0875 29.1527 14.2136 29.1785 14.3398C29.2215 14.5433 29.2617 14.7555 29.3018 14.9647L29.3133 15.0192L29.3419 15.1654C29.3534 15.2227 29.3649 15.2801 29.3763 15.3374C29.3935 15.4378 29.4107 15.541 29.4308 15.647L29.4623 15.8276L29.4795 15.9251C29.5082 16.0914 29.5369 16.2548 29.5627 16.4239C29.5828 16.5616 29.6028 16.702 29.6229 16.8425L29.643 16.9772C29.6716 17.1722 29.6974 17.37 29.7232 17.5678C29.7462 17.7599 29.7691 17.952 29.792 18.1469C29.8035 18.2386 29.8121 18.3332 29.8236 18.4278C29.2129 18.3734 28.5994 18.3332 27.9917 18.3132C27.9859 18.3046 27.9773 18.2988 27.9716 18.2902L27.9458 18.2616C27.834 18.144 27.7337 18.0408 27.6362 17.9433L27.6075 17.9118C27.6075 17.9118 27.5903 17.8946 27.5817 17.8889C27.4785 17.7885 27.3782 17.6939 27.2807 17.6022L27.252 17.5764L27.2377 17.5649C27.146 17.4818 27.0571 17.4044 26.974 17.3327L26.9482 17.3098C26.9482 17.3098 26.9338 17.2983 26.9281 17.2926C26.8364 17.2152 26.7532 17.1492 26.6729 17.0862L26.6328 17.0546C26.5468 16.9887 26.4723 16.9314 26.4035 16.8826L26.3863 16.8712C26.3863 16.8712 26.3748 16.8626 26.3691 16.8597C26.3003 16.811 26.2372 16.768 26.1798 16.7307C26.1684 16.7221 26.1598 16.7164 26.1512 16.7106C26.1397 16.702 26.1225 16.6934 26.1082 16.6848C26.0451 16.6447 25.9849 16.6103 25.9304 16.5816C25.9276 16.5816 25.9247 16.5787 25.9218 16.5759C25.7642 16.4899 25.595 16.4383 25.4144 16.4182C25.3743 16.4153 25.3341 16.4125 25.2911 16.4125C25.2825 16.4125 25.2711 16.4125 25.2625 16.4125C25.2367 16.4125 25.2109 16.4125 25.1851 16.4153C25.122 16.4182 25.0331 16.4268 24.9299 16.4497C24.8869 16.4583 24.8411 16.4727 24.7952 16.487C24.7235 16.5099 24.6604 16.5329 24.6002 16.5587C24.5687 16.573 24.5372 16.5874 24.5056 16.6017C24.4741 16.616 24.4454 16.6303 24.4139 16.6475C24.3824 16.6647 24.3537 16.6819 24.3222 16.702C24.2992 16.7164 24.2677 16.7336 24.2362 16.7565C24.1903 16.7852 24.1415 16.8196 24.0928 16.854L24.0785 16.8626C24.0555 16.8798 24.0326 16.897 24.0068 16.9142C23.9581 16.9514 23.9065 16.9916 23.8549 17.0346C23.8262 17.0575 23.8061 17.0718 23.7889 17.089C23.7173 17.1464 23.6456 17.2094 23.5739 17.2754L23.5395 17.3098C23.4764 17.3671 23.4162 17.4216 23.356 17.4818L23.2958 17.5391L23.2729 17.5621C23.227 17.6079 23.1812 17.6538 23.1324 17.6997L23.055 17.7799L23.0407 17.7943C22.9977 17.8401 22.9518 17.886 22.9088 17.9319L22.8113 18.0351C22.7655 18.0838 22.7225 18.1297 22.6795 18.1784L22.582 18.2874C22.5361 18.3361 22.4931 18.3877 22.4473 18.4393L22.4215 18.468L22.3498 18.5482C22.3011 18.6056 22.2495 18.6629 22.2007 18.7203L22.1721 18.7518L22.1606 18.7661C21.98 18.8034 21.7936 18.8435 21.5987 18.8865C21.527 18.9037 21.4554 18.9209 21.3837 18.9381L21.2862 18.9611C21.0425 19.0213 20.839 19.0729 20.6469 19.1245L20.6068 19.136C20.5666 19.1446 20.5265 19.156 20.4892 19.1675C20.4405 19.1818 20.3946 19.1961 20.3459 19.2105C20.3258 19.2162 20.3058 19.2248 20.2857 19.2305C20.0907 19.2879 19.9015 19.3481 19.7095 19.4112L19.6808 19.4198C19.569 19.457 19.4572 19.4943 19.3454 19.5316C19.1504 19.6004 18.9584 19.672 18.7663 19.7437L18.6659 19.781C18.5914 19.8097 18.514 19.8383 18.4395 19.867C18.1499 19.9845 17.869 20.1021 17.6052 20.2225C17.5278 20.2569 17.4504 20.2941 17.373 20.3314L17.2641 20.383C17.0892 20.4661 16.9258 20.5435 16.7652 20.6267C16.642 20.6897 16.5187 20.7557 16.3954 20.8216L16.3496 20.8474C16.2148 20.9191 16.0829 20.9936 15.9482 21.0682C15.802 21.1513 15.6587 21.2345 15.5153 21.3205C15.3978 21.3921 15.2802 21.4638 15.1627 21.5383C15.0136 21.6329 14.8617 21.7275 14.7155 21.825C14.6467 21.8709 14.5779 21.9168 14.5091 21.9655L14.4288 22.02C13.8669 22.4041 13.3107 22.8255 12.7747 23.2699L12.7116 23.3215C12.6657 23.3588 12.6227 23.396 12.5768 23.4333C12.4134 23.5709 12.2529 23.7142 12.0895 23.8604C12.0207 23.9207 11.9519 23.9837 11.8859 24.0468C11.7254 24.1959 11.5649 24.3449 11.4043 24.4997C11.3613 24.5399 11.3212 24.5829 11.2782 24.623L11.2323 24.6689C9.98525 25.8988 8.78978 27.3322 7.68033 28.9347L7.666 28.9576C7.47106 29.2386 7.27611 29.5281 7.08404 29.8263L7.07257 29.8406L7.04964 29.875C6.86616 30.156 6.68268 30.4484 6.49921 30.7465L6.49061 30.7609L6.45047 30.8239C6.27559 31.1106 6.10072 31.4059 5.92871 31.704L5.8685 31.8101L5.77677 31.9678C5.71944 32.0652 5.66496 32.1599 5.61049 32.2573C5.55889 32.3491 5.51016 32.4408 5.46142 32.5325L5.37541 32.6902L5.31235 32.8078L5.30088 32.8307L5.21201 32.9941C5.15467 33.1002 5.09447 33.2062 5.03713 33.3152C4.99413 33.3955 4.95113 33.4786 4.91099 33.5617L4.83646 33.7108L4.76765 33.8456L4.74759 33.8828C4.59852 34.1724 4.45231 34.4648 4.30897 34.7601L4.2373 34.9063L4.20576 34.9722L4.11689 35.1557C4.05668 35.2789 3.99648 35.4022 3.93628 35.5284C3.90761 35.5886 3.87894 35.6516 3.85028 35.7147L3.79294 35.8408L3.71554 36.01L3.6754 36.0989C3.54639 36.3827 3.41738 36.6665 3.29125 36.956C3.26258 37.022 3.23391 37.0879 3.20524 37.1567L3.15937 37.2628L3.07336 37.4577C3.01316 37.5953 2.95297 37.7329 2.89276 37.8734C2.8727 37.9164 2.85549 37.9623 2.83829 38.0081L2.79815 38.1028C2.76662 38.1773 2.73509 38.2576 2.70355 38.335L2.65194 38.464L2.56881 38.6647C2.50861 38.8051 2.45127 38.9485 2.39393 39.0918L2.35093 39.2007L2.3194 39.2781C2.28213 39.3727 2.24486 39.4674 2.20759 39.562L2.15025 39.7082L2.12732 39.7655C2.03558 40.0034 1.94098 40.2414 1.84924 40.4822C1.80624 40.5997 1.76037 40.7173 1.71737 40.8348L1.65717 40.9954L1.6027 41.1416C1.53103 41.3336 1.45936 41.5257 1.38769 41.7207C1.33609 41.864 1.28448 42.0102 1.23288 42.1564L1.16981 42.3342L1.10101 42.5234C1.04654 42.6782 0.989197 42.833 0.934727 42.9907C0.863057 43.1999 0.791387 43.4092 0.719717 43.6214L0.668116 43.7733L0.645177 43.8364L0.616516 43.9167L0.564907 44.0686C0.539105 44.1403 0.516177 44.2148 0.490376 44.2865C0.344168 44.7251 0.197955 45.1694 0.054615 45.6195C-0.0399897 45.9177 -0.0113192 46.2388 0.137755 46.514C0.286829 46.7892 0.539112 46.9899 0.840127 47.073C0.940465 47.1017 1.04366 47.116 1.14687 47.116C1.54249 47.116 1.92091 46.9096 2.13305 46.5598L2.20472 46.4394L2.25346 46.362C2.39107 46.1384 2.61181 45.7772 2.89562 45.33C3.08197 45.0376 3.29411 44.705 3.52346 44.3553C3.77287 43.9768 4.01655 43.6128 4.25163 43.2687C4.23729 43.349 4.22296 43.4322 4.21149 43.5124C4.17422 43.7418 4.13696 43.9797 4.09969 44.2234C3.46612 48.5207 3.23964 55.0427 5.7739 61.7253C5.94591 62.1782 6.3788 62.4649 6.84609 62.4649C6.92636 62.4649 7.0095 62.4563 7.09264 62.4391C7.6488 62.3187 8.03008 61.8084 7.99281 61.2408C7.99281 61.235 7.98134 61.0688 7.97561 60.805C8.66364 62.5366 9.56669 64.3885 10.5987 65.4464C10.5844 65.4521 10.5729 65.4579 10.5586 65.4636L10.1687 65.6442C9.59822 65.9079 9.16534 66.3781 8.94746 66.9658C8.73532 67.542 8.75539 68.167 9.00193 68.726C8.9962 68.726 8.99047 68.7317 8.98473 68.7346L8.59484 68.9152C8.02435 69.179 7.59146 69.6491 7.37358 70.2368C7.1557 70.8274 7.1815 71.4638 7.44525 72.0343L7.84947 72.9087C7.72333 73.0434 7.61726 73.1982 7.53986 73.3731L7.46819 73.5337C7.40799 73.6741 7.36499 73.8175 7.34492 73.9637C5.61623 75.1018 3.73273 76.6298 3.30845 78.089C3.19951 78.4617 3.28838 78.8631 3.5378 79.1555C3.68114 79.3246 4.08249 79.7489 4.63005 80.0069C4.96833 80.8182 5.64776 82.0079 6.79162 82.2373C7.38218 82.3548 7.84374 82.5498 8.01575 82.63C8.4171 82.9282 9.22841 83.4528 9.96805 83.4528C10.4411 83.4528 10.8625 83.1633 11.0345 82.7246C11.0976 82.5612 12.4622 79.0781 13.0384 76.9509C13.2878 76.7817 13.4942 76.5438 13.6204 76.2571L13.692 76.0966C13.7465 75.9762 13.7838 75.85 13.8067 75.721L15.5039 74.9384C16.6334 74.4166 17.1551 73.1036 16.7108 71.9569L17.1179 71.7677C18.0238 71.3491 18.5369 70.426 18.4796 69.4857L19.1504 69.1761C19.5776 68.9783 19.9187 68.6658 20.1509 68.2903C23.1525 69.6778 26.4465 70.406 29.7691 70.406C33.7511 70.406 37.6729 69.3682 41.1102 67.4016C43.4036 66.0914 45.4563 64.3857 47.1706 62.3846C47.1305 63.8094 47.0502 64.8788 47.0502 64.896C47.0187 65.3374 47.2423 65.756 47.6264 65.9767C47.8042 66.0771 47.9991 66.1287 48.1941 66.1287C48.4234 66.1287 48.6528 66.0599 48.8477 65.9223C49.4813 65.4808 50.0948 64.7239 50.7169 63.6087C50.7799 63.4941 50.8459 63.3765 50.9089 63.2561C51.2816 62.548 51.6572 61.7138 52.0299 60.7649C52.0241 60.9627 52.0184 61.1261 52.0098 61.235C51.9697 61.8027 52.3538 62.313 52.91 62.4334C52.9931 62.4506 53.0734 62.4592 53.1565 62.4592C53.6238 62.4592 54.0567 62.1725 54.2287 61.7195C56.9378 54.5726 56.5279 47.6664 55.7653 43.2859C56.892 44.9286 57.8581 46.534 57.8696 46.5541C58.0817 46.9096 58.463 47.1103 58.8529 47.1103C59.0106 47.1103 59.1711 47.0787 59.3259 47.0071C59.8563 46.7663 60.1229 46.1671 59.9451 45.6138C59.8247 45.2354 59.7043 44.8627 59.581 44.49L59.5151 44.2893L59.4692 44.1546C59.3832 43.8966 59.2972 43.6386 59.2084 43.3834C59.1797 43.3031 59.151 43.2229 59.1252 43.1426L59.0765 43.0021L59.0708 42.9878C58.9905 42.7556 58.9102 42.5234 58.8299 42.2969C58.7984 42.2109 58.7669 42.1249 58.7353 42.0389L58.6895 41.9127C58.6063 41.6834 58.5232 41.4541 58.4401 41.2247C58.4085 41.1358 58.3741 41.0498 58.3426 40.961L58.3025 40.852C58.2164 40.6256 58.1333 40.3991 58.0444 40.1726C58.0129 40.0894 57.9785 40.0063 57.947 39.9232L57.904 39.8142C57.8151 39.5878 57.7262 39.3613 57.6373 39.1377C57.6029 39.0545 57.5714 38.9714 57.537 38.8883L57.4997 38.7965L57.4367 38.636C57.3994 38.5414 57.3593 38.4439 57.322 38.3522C57.3019 38.3063 57.2847 38.2604 57.2647 38.2174L57.2245 38.1228C57.1844 38.0254 57.1443 37.9307 57.1013 37.8333L57.0869 37.7989L57.0267 37.6527C56.9894 37.5638 56.9522 37.4778 56.9149 37.3918C56.892 37.3373 56.869 37.2857 56.8461 37.2313L56.7974 37.1252C56.7572 37.0334 56.7171 36.9417 56.677 36.8528L56.6655 36.827C56.5652 36.5977 56.462 36.3712 56.3588 36.1476L56.2326 35.8724L56.1724 35.7405C56.1409 35.6688 56.1065 35.6 56.0749 35.5284C56.0405 35.4567 56.0061 35.385 55.9746 35.3162L55.9144 35.1872L55.794 34.9349C55.6822 34.7027 55.5704 34.4734 55.4557 34.2469L55.4328 34.2039L55.341 34.0233C55.2206 33.7882 55.1031 33.556 54.9798 33.3267L54.9511 33.2722L54.8766 33.1317C54.7476 32.8909 54.6215 32.6558 54.4896 32.4207L54.4581 32.3605L54.4036 32.2602C54.266 32.0137 54.1284 31.7728 53.9879 31.532L53.9621 31.4862L53.9191 31.4116C53.7672 31.1565 53.6152 30.9013 53.4633 30.6519L53.4489 30.629L53.4231 30.5831C52.887 29.7173 52.3366 28.8974 51.7833 28.1435C51.6314 27.9371 51.4766 27.7335 51.3218 27.53C51.273 27.4698 51.2272 27.4067 51.1784 27.3465L51.1211 27.2748C51.0208 27.1487 50.9233 27.0225 50.8201 26.8993C50.7484 26.8104 50.6739 26.7215 50.5993 26.6326C50.5019 26.5151 50.4015 26.3976 50.3012 26.28L50.2782 26.2542C50.2123 26.1768 50.1464 26.1023 50.0804 26.0278C49.9658 25.8987 49.8511 25.7726 49.7364 25.6465L49.6762 25.5805C49.6361 25.5375 49.5959 25.4917 49.5558 25.4487C49.3867 25.268 49.2118 25.0846 49.0369 24.9068C48.9968 24.8667 48.9566 24.8266 48.9165 24.7893L48.8563 24.7291C48.733 24.6058 48.6098 24.4854 48.4836 24.365C48.4177 24.3019 48.3489 24.2389 48.2829 24.1758L48.2629 24.1586C48.1453 24.0497 48.0278 23.9407 47.9103 23.8346C47.8357 23.7687 47.7641 23.7028 47.6895 23.6368C47.5576 23.5222 47.4286 23.4104 47.2939 23.3014L47.2337 23.2498C47.1907 23.2154 47.1506 23.1781 47.1076 23.1437C46.9069 22.9803 46.7091 22.8227 46.5227 22.6793C46.4969 22.6593 46.4683 22.6392 46.4425 22.6191L46.4023 22.5905C46.2389 22.4672 46.0784 22.3468 45.9121 22.2321C45.8605 22.1948 45.806 22.1576 45.7516 22.1203L45.7 22.083C45.5623 21.9855 45.4219 21.8909 45.2814 21.7992C45.2069 21.7505 45.1295 21.6989 45.0549 21.6501C44.9087 21.5555 44.7625 21.4638 44.6134 21.3749L44.5532 21.3377C44.5074 21.309 44.4586 21.2803 44.4128 21.2516L44.4042 21.2459C43.3291 17.7054 42.3229 15.5295 40.7604 15.5295C40.3906 15.5295 40.038 15.6585 39.7341 15.9022C39.1808 16.3494 38.2176 17.2754 37.068 18.6056C36.1649 18.4565 35.2447 18.3562 34.3216 18.3103C34.2786 18.3103 34.2327 18.3046 34.1897 18.3046V18.2874C34.1868 18.1326 34.1811 17.9749 34.1754 17.8172V17.7169L34.1696 17.6653C34.1639 17.5334 34.1582 17.4015 34.1496 17.2697L34.1381 17.0948C34.1295 16.9629 34.1209 16.8339 34.1123 16.702V16.6533L34.1008 16.5329C34.0894 16.3809 34.0751 16.2319 34.0607 16.0799V16.0398L34.0492 15.9681C34.0292 15.776 34.0091 15.5811 33.9833 15.3862C33.9833 15.3776 33.9833 15.3718 33.9833 15.3632L33.9776 15.3231V15.3088C33.9546 15.1453 33.9317 14.9791 33.9088 14.8128L33.9002 14.7555L33.8858 14.6723L33.8801 14.6322C33.86 14.4974 33.84 14.3627 33.817 14.228C33.8056 14.1592 33.7941 14.0904 33.7826 14.0216C33.7597 13.8897 33.7339 13.7578 33.711 13.6259L33.7024 13.5829C33.6966 13.5543 33.6909 13.5256 33.688 13.4969L33.6766 13.4396V13.4253C33.645 13.2762 33.6135 13.1271 33.5791 12.978L33.5705 12.9408C33.5648 12.9121 33.559 12.8863 33.5533 12.8576L33.5447 12.8232C33.5017 12.6312 33.4529 12.4305 33.4042 12.2298L33.387 12.1667L33.3784 12.1381C33.3354 11.9689 33.2895 11.7998 33.2437 11.6306L33.2265 11.5704C33.2179 11.5389 33.2093 11.5074 33.1978 11.4758L33.1835 11.4328C33.1433 11.2981 33.1032 11.1633 33.0631 11.0286L33.0545 11.0028C33.0459 10.977 33.0401 10.9512 33.0315 10.9254C33.0229 10.8996 33.0143 10.8709 33.0057 10.8423L32.9943 10.8079C32.9513 10.676 32.9082 10.5441 32.8624 10.4151L32.8538 10.3922C32.8308 10.3291 32.8108 10.2632 32.7878 10.2001C32.7362 10.0568 32.6846 9.91341 32.6302 9.7672L32.6158 9.72708C32.6044 9.69555 32.5929 9.66401 32.5814 9.63247L32.5642 9.59233C32.4868 9.39166 32.4037 9.18811 32.3234 8.9989L32.2948 8.93584L32.2833 8.9129C32.2116 8.74376 32.1371 8.57176 32.0568 8.40262C32.0482 8.38255 32.0396 8.36535 32.031 8.34528C32.0138 8.31088 31.9995 8.27933 31.9823 8.2478L31.9622 8.20481C31.8991 8.07293 31.8361 7.93819 31.7701 7.80632C31.7329 7.73178 31.6956 7.65724 31.6583 7.58557C31.5924 7.45943 31.5264 7.33041 31.4576 7.20428L31.4376 7.16415C31.4204 7.13262 31.406 7.10108 31.3888 7.06954C31.3774 7.04661 31.363 7.02368 31.3516 7.00361L31.343 6.98926C31.2656 6.85166 31.1882 6.71692 31.1079 6.57931L31.0821 6.53632C31.0649 6.50479 31.0448 6.47038 31.0248 6.43884C31.0162 6.42451 31.0076 6.41018 30.999 6.39585C30.8785 6.19517 30.7581 6.00596 30.6406 5.82249L30.6033 5.76802L30.5947 5.75367C30.4829 5.58166 30.3654 5.41254 30.2507 5.24913C30.2393 5.23193 30.2278 5.21471 30.2135 5.19751C30.1905 5.16597 30.1676 5.13445 30.1446 5.10292L30.1131 5.06278C30.0214 4.93664 29.9268 4.8105 29.8322 4.68436C29.7806 4.61555 29.7261 4.54676 29.6716 4.47508C29.577 4.35468 29.4824 4.23714 29.3849 4.11673L29.3706 4.09953C29.319 4.03646 29.2674 3.97338 29.2129 3.91031C29.1069 3.78417 28.9979 3.6609 28.8861 3.53476L28.8517 3.49464C28.8259 3.46311 28.8001 3.43444 28.7714 3.4029C28.7571 3.38857 28.7428 3.37423 28.7284 3.35989C28.5564 3.17355 28.393 2.99867 28.2296 2.83239C28.2181 2.82092 28.2038 2.80661 28.1895 2.79514C28.0347 2.63746 27.8655 2.47691 27.6964 2.3135C27.6563 2.27623 27.6133 2.23611 27.5703 2.19884L27.5129 2.14724C27.3868 2.03257 27.2606 1.91789 27.1288 1.80609C27.0571 1.74302 26.9854 1.68281 26.9109 1.61974C26.7848 1.51366 26.6557 1.4076 26.5267 1.30439C26.4522 1.24419 26.3777 1.18399 26.3003 1.12378C26.1598 1.01485 26.0164 0.905905 25.8702 0.799833L25.8043 0.751103C25.7584 0.716701 25.7097 0.682286 25.6638 0.647884C25.4431 0.487343 25.2367 0.346884 25.0389 0.215011C24.8611 0.0888711 24.649 0.0114672 24.4168 0C24.4024 0 24.3881 0 24.3709 0L24.3967 0.0286611Z" fill="white"/>
<path fill-rule="evenodd" clip-rule="evenodd" d="M24.2021 1.01495C24.2842 0.915496 24.4281 0.89405 24.5356 0.965249C30.7891 5.1066 32.7863 11.3532 33.2244 16.5371C33.4435 19.1293 33.2737 21.4626 33.0494 23.1474C32.9373 23.9901 32.8113 24.6715 32.7132 25.1432C32.6642 25.379 32.6221 25.5624 32.5921 25.6874C32.5771 25.7499 32.5651 25.7978 32.5568 25.8303C32.5527 25.8466 32.5495 25.859 32.5472 25.8675L32.5447 25.8772L32.544 25.8799L32.5437 25.8806C32.5437 25.8809 32.5436 25.881 32.3003 25.8156L32.5437 25.8806C32.5076 26.015 32.3693 26.0951 32.2348 26.0589C32.1004 26.0228 32.0208 25.8846 32.0569 25.7502L32.0575 25.7479L32.0597 25.7398L32.0684 25.7059C32.0761 25.6756 32.0875 25.6299 32.102 25.5698C32.1308 25.4495 32.1718 25.271 32.2198 25.0405C32.3157 24.5794 32.4395 23.9101 32.5498 23.0809C32.7707 21.4218 32.9374 19.1264 32.7222 16.5795C32.3296 11.9346 30.67 6.47575 25.772 2.49688C25.7827 2.51205 25.7935 2.52734 25.8043 2.54274C26.5275 3.57074 27.4775 5.11956 28.3929 7.21108C30.2243 11.3954 31.9151 17.7465 31.3793 26.436C31.3707 26.5749 31.2512 26.6806 31.1122 26.672C30.9733 26.6634 30.8677 26.5439 30.8762 26.405C31.4069 17.799 29.732 11.5276 27.9312 7.41317C27.0305 5.35533 26.0977 3.83577 25.3921 2.83273C25.0393 2.3312 24.7433 1.95882 24.5366 1.71289C24.4332 1.58992 24.3521 1.49858 24.2975 1.43851C24.2701 1.40848 24.2494 1.38626 24.2357 1.37183L24.2206 1.35601L24.2172 1.35246L24.2166 1.35183C24.1264 1.25976 24.1201 1.11436 24.2021 1.01495Z" fill="#D7A335"/>
<path d="M9.47569 69.7838L9.0853 69.9641C8.48159 70.243 8.21822 70.9584 8.49704 71.5621L10.0633 74.9533C10.3421 75.557 11.0576 75.8204 11.6613 75.5416L12.0517 75.3613C12.6554 75.0825 12.9187 74.367 12.6399 73.7633L11.0737 70.3721C10.7948 69.7684 10.0794 69.505 9.47569 69.7838Z" fill="#EEC654"/>
<path fill-rule="evenodd" clip-rule="evenodd" d="M9.19094 70.1927C8.71358 70.4132 8.50534 70.9789 8.7258 71.4563L10.2921 74.8475C10.5125 75.3248 11.0782 75.5331 11.5556 75.3126L11.946 75.1323C12.4233 74.9119 12.6316 74.3462 12.4111 73.8688L10.8448 70.4776C10.6244 70.0002 10.0587 69.792 9.58133 70.0124L9.19094 70.1927ZM8.26824 71.6676C7.93106 70.9375 8.24955 70.0724 8.97961 69.7352L9.37 69.5549C10.1001 69.2177 10.9652 69.5362 11.3024 70.2663L12.8687 73.6575C13.2058 74.3875 12.8874 75.2527 12.1573 75.5899L11.7669 75.7702C11.0368 76.1074 10.1717 75.7889 9.83448 75.0588L8.26824 71.6676Z" fill="black"/>
<path d="M15.6256 72.3053L15.4453 71.9149C15.1665 71.3112 14.451 71.0478 13.8473 71.3266L10.4561 72.8929C9.85237 73.1717 9.589 73.8871 9.86782 74.4908L10.0481 74.8812C10.327 75.4849 11.0424 75.7483 11.6461 75.4695L15.0373 73.9032C15.641 73.6244 15.9044 72.909 15.6256 72.3053Z" fill="#EEC654"/>
<path fill-rule="evenodd" clip-rule="evenodd" d="M15.2169 72.0208C14.9964 71.5434 14.4308 71.3352 13.9534 71.5556L10.5622 73.1219C10.0848 73.3424 9.87656 73.9081 10.097 74.3854L10.2773 74.7758C10.4978 75.2531 11.0635 75.4614 11.5408 75.2409L14.9321 73.6747C15.4094 73.4542 15.6177 72.8885 15.3972 72.4112L15.2169 72.0208ZM13.7421 71.0981C14.4721 70.7609 15.3373 71.0794 15.6745 71.8094L15.8548 72.1998C16.192 72.9299 15.8735 73.7951 15.1434 74.1322L11.7522 75.6985C11.0221 76.0357 10.1569 75.7172 9.81976 74.9871L9.63945 74.5967C9.30227 73.8667 9.62077 73.0015 10.3508 72.6643L13.7421 71.0981Z" fill="black"/>
<path d="M11.0504 66.5126L10.66 66.6929C10.0563 66.9717 9.79293 67.6872 10.0718 68.2909L11.638 71.6821C11.9168 72.2858 12.6323 72.5492 13.236 72.2703L13.6264 72.09C14.2301 71.8112 14.4934 71.0958 14.2146 70.4921L12.6484 67.1008C12.3695 66.4971 11.6541 66.2338 11.0504 66.5126Z" fill="#EEC654"/>
<path fill-rule="evenodd" clip-rule="evenodd" d="M10.7652 66.9218C10.2878 67.1422 10.0796 67.7079 10.3 68.1853L11.8663 71.5765C12.0867 72.0539 12.6524 72.2621 13.1298 72.0416L13.5202 71.8613C13.9975 71.6409 14.2058 71.0752 13.9853 70.5978L12.4191 67.2066C12.1986 66.7292 11.6329 66.521 11.1556 66.7414L10.7652 66.9218ZM9.84245 68.3966C9.50527 67.6665 9.82377 66.8014 10.5538 66.4642L10.9442 66.2839C11.6743 65.9467 12.5395 66.2652 12.8766 66.9953L14.4429 70.3865C14.7801 71.1166 14.4616 71.9817 13.7315 72.3189L13.3411 72.4992C12.6111 72.8364 11.7459 72.5179 11.4087 71.7878L9.84245 68.3966Z" fill="black"/>
<path d="M17.2413 69.1356L17.061 68.7452C16.7822 68.1415 16.0667 67.8781 15.463 68.157L12.0718 69.7232C11.4681 70.002 11.2047 70.7175 11.4835 71.3212L11.6639 71.7116C11.9427 72.3153 12.6581 72.5786 13.2618 72.2998L16.6531 70.7336C17.2568 70.4547 17.5201 69.7393 17.2413 69.1356Z" fill="#EEC654"/>
<path fill-rule="evenodd" clip-rule="evenodd" d="M16.8322 68.8508C16.6117 68.3735 16.046 68.1652 15.5686 68.3857L12.1774 69.952C11.7 70.1724 11.4918 70.7381 11.7123 71.2155L11.8926 71.6059C12.113 72.0832 12.6787 72.2915 13.1561 72.071L16.5473 70.5048C17.0247 70.2843 17.2329 69.7186 17.0125 69.2412L16.8322 68.8508ZM15.3573 67.9281C16.0874 67.591 16.9525 67.9095 17.2897 68.6395L17.47 69.0299C17.8072 69.76 17.4887 70.6251 16.7587 70.9623L13.3674 72.5286C12.6374 72.8658 11.7722 72.5473 11.435 71.8172L11.2547 71.4268C10.9175 70.6968 11.236 69.8316 11.9661 69.4944L15.3573 67.9281Z" fill="black"/>
<path d="M12.9137 63.7362L12.5233 63.9165C11.9196 64.1954 11.6562 64.9108 11.935 65.5145L13.5013 68.9057C13.7801 69.5094 14.4955 69.7728 15.0992 69.494L15.4896 69.3137C16.0933 69.0348 16.3567 68.3194 16.0779 67.7157L14.5116 64.3245C14.2328 63.7208 13.5174 63.4574 12.9137 63.7362Z" fill="#EEC654"/>
<path fill-rule="evenodd" clip-rule="evenodd" d="M12.6289 64.1454C12.1516 64.3659 11.9433 64.9316 12.1638 65.4089L13.73 68.8001C13.9505 69.2775 14.5162 69.4857 14.9936 69.2653L15.384 69.085C15.8613 68.8645 16.0696 68.2988 15.8491 67.8214L14.2828 64.4302C14.0624 63.9529 13.4967 63.7446 13.0193 63.9651L12.6289 64.1454ZM11.7062 65.6202C11.369 64.8902 11.6875 64.025 12.4176 63.6878L12.808 63.5075C13.5381 63.1703 14.4032 63.4888 14.7404 64.2189L16.3067 67.6101C16.6438 68.3402 16.3253 69.2053 15.5953 69.5425L15.2049 69.7228C14.4748 70.06 13.6097 69.7415 13.2725 69.0115L11.7062 65.6202Z" fill="black"/>
<path d="M19.2735 66.5428L19.0932 66.1524C18.8144 65.5487 18.099 65.2854 17.4953 65.5642L14.104 67.1304C13.5003 67.4093 13.237 68.1247 13.5158 68.7284L13.6961 69.1188C13.9749 69.7225 14.6904 69.9859 15.2941 69.707L18.6853 68.1408C19.289 67.862 19.5524 67.1465 19.2735 66.5428Z" fill="#EEC654"/>
<path fill-rule="evenodd" clip-rule="evenodd" d="M18.8644 66.2583C18.6439 65.781 18.0782 65.5727 17.6009 65.7932L14.2096 67.3594C13.7323 67.5799 13.524 68.1456 13.7445 68.623L13.9248 69.0133C14.1453 69.4907 14.711 69.6989 15.1883 69.4785L18.5795 67.9122C19.0569 67.6918 19.2652 67.1261 19.0447 66.6487L18.8644 66.2583ZM17.3895 65.3356C18.1196 64.9984 18.9848 65.3169 19.3219 66.047L19.5023 66.4374C19.8394 67.1674 19.5209 68.0326 18.7909 68.3698L15.3997 69.936C14.6696 70.2732 13.8044 69.9547 13.4672 69.2247L13.2869 68.8343C12.9498 68.1042 13.2682 67.239 13.9983 66.9019L17.3895 65.3356Z" fill="black"/>
<path d="M14.86 61.0861L14.4696 61.2664C13.8659 61.5452 13.6025 62.2606 13.8813 62.8644L15.4476 66.2556C15.7264 66.8593 16.4418 67.1227 17.0455 66.8438L17.4359 66.6635C18.0396 66.3847 18.303 65.6693 18.0242 65.0656L16.4579 61.6743C16.1791 61.0706 15.4637 60.8073 14.86 61.0861Z" fill="#EEC654"/>
<path fill-rule="evenodd" clip-rule="evenodd" d="M14.5747 61.4952C14.0974 61.7157 13.8891 62.2814 14.1096 62.7588L15.6758 66.15C15.8963 66.6273 16.462 66.8356 16.9394 66.6151L17.3298 66.4348C17.8071 66.2143 18.0153 65.6487 17.7949 65.1713L16.2286 61.7801C16.0082 61.3027 15.4425 61.0945 14.9651 61.3149L14.5747 61.4952ZM13.652 62.9701C13.3148 62.24 13.6333 61.3749 14.3634 61.0377L14.7538 60.8574C15.4839 60.5202 16.349 60.8387 16.6862 61.5687L18.2524 64.96C18.5896 65.69 18.2711 66.5552 17.5411 66.8924L17.1507 67.0727C16.4206 67.4099 15.5555 67.0914 15.2183 66.3613L13.652 62.9701Z" fill="black"/>
<path d="M20.819 63.8976L20.6386 63.5072C20.3598 62.9035 19.6444 62.6401 19.0407 62.9189L15.6495 64.4852C15.0457 64.764 14.7824 65.4794 15.0612 66.0831L15.2415 66.4735C15.5203 67.0772 16.2358 67.3406 16.8395 67.0618L20.2307 65.4955C20.8344 65.2167 21.0978 64.5013 20.819 63.8976Z" fill="#EEC654"/>
<path fill-rule="evenodd" clip-rule="evenodd" d="M20.4098 63.6128C20.1893 63.1355 19.6236 62.9272 19.1463 63.1477L15.755 64.7139C15.2777 64.9344 15.0694 65.5001 15.2899 65.9774L15.4702 66.3678C15.6907 66.8452 16.2564 67.0534 16.7337 66.833L20.125 65.2667C20.6023 65.0462 20.8106 64.4806 20.5901 64.0032L20.4098 63.6128ZM18.9349 62.6901C19.665 62.3529 20.5302 62.6714 20.8674 63.4015L21.0477 63.7919C21.3848 64.5219 21.0663 65.3871 20.3363 65.7243L16.9451 67.2905C16.215 67.6277 15.3498 67.3092 15.0127 66.5792L14.8323 66.1888C14.4952 65.4587 14.8137 64.5935 15.5437 64.2564L18.9349 62.6901Z" fill="black"/>
<path d="M8.88452 74.3651C8.88452 74.3651 4.92546 76.6901 4.4209 78.4188C4.4209 78.4188 4.98566 79.0781 5.52175 79.0781C5.52175 79.0781 6.08652 80.933 7.0297 81.1193C7.97288 81.3085 8.63224 81.6525 8.63224 81.6525C8.63224 81.6525 9.48081 82.3119 9.98251 82.3119C9.98251 82.3119 11.9377 77.3323 12.1584 75.7039L8.88452 74.3594V74.3651Z" fill="#EEC654"/>
<path fill-rule="evenodd" clip-rule="evenodd" d="M8.74426 74.1499C8.81405 74.1031 8.90258 74.0941 8.98031 74.1261L12.2542 75.4706C12.3603 75.5142 12.4236 75.6239 12.4082 75.7376C12.2935 76.5834 11.7386 78.2627 11.2251 79.703C10.9662 80.4293 10.7143 81.1043 10.5271 81.5976C10.4335 81.8443 10.3561 82.0457 10.302 82.1855C10.275 82.2554 10.2538 82.3099 10.2394 82.3469L10.2172 82.4036C10.2172 82.4036 10.2171 82.4038 9.98256 82.3117L10.2172 82.4036C10.1794 82.5 10.0862 82.5637 9.98256 82.5637C9.8086 82.5637 9.62564 82.5083 9.46397 82.4417C9.29816 82.3734 9.13329 82.2843 8.98968 82.1982C8.84537 82.1116 8.71817 82.0255 8.6272 81.9611C8.58159 81.9289 8.54477 81.9018 8.51911 81.8827C8.51087 81.8766 8.50377 81.8712 8.49789 81.8668C8.49574 81.8657 8.4934 81.8646 8.49088 81.8633C8.47288 81.8545 8.44542 81.8412 8.40924 81.8246C8.33684 81.7913 8.22969 81.7444 8.0936 81.6916C7.82103 81.5859 7.4345 81.4573 6.98019 81.3662L7.02974 81.1192L6.98091 81.3664C6.67232 81.3054 6.41568 81.1131 6.21146 80.8929C6.00556 80.6709 5.8347 80.4009 5.69961 80.147C5.56378 79.8917 5.45957 79.644 5.38944 79.4608C5.36795 79.4046 5.34956 79.3543 5.33435 79.3114C5.04885 79.2558 4.79153 79.0865 4.61392 78.9459C4.49994 78.8556 4.40503 78.766 4.33867 78.6991C4.30534 78.6655 4.27883 78.6373 4.26031 78.617C4.25104 78.6069 4.24375 78.5987 4.23858 78.5929L4.23243 78.5859L4.23058 78.5837L4.22996 78.583C4.22992 78.583 4.22956 78.5825 4.42095 78.4186L4.22956 78.5825C4.1742 78.5179 4.1552 78.4297 4.17904 78.348C4.32272 77.8557 4.69999 77.3501 5.14936 76.8815C5.60424 76.4071 6.15791 75.9454 6.68983 75.5426C7.22266 75.1391 7.73876 74.7908 8.1213 74.5436C8.31272 74.4198 8.47106 74.3212 8.58179 74.2533C8.63717 74.2194 8.68066 74.1931 8.71045 74.1753L8.7156 74.1722C8.72453 74.1642 8.7341 74.1567 8.74426 74.1499ZM8.91145 74.6426C8.89193 74.6545 8.86978 74.668 8.84516 74.6831C8.73741 74.7491 8.58251 74.8456 8.39488 74.9669C8.01933 75.2096 7.51413 75.5506 6.99412 75.9444C6.47321 76.3389 5.9425 76.7826 5.51315 77.2303C5.12902 77.6309 4.8448 78.0157 4.70886 78.3565C4.7642 78.4116 4.83926 78.4814 4.92678 78.5507C5.1274 78.7095 5.34439 78.826 5.52181 78.826C5.63268 78.826 5.73053 78.8984 5.76286 79.0045C5.76285 79.0045 5.76287 79.0045 5.76286 79.0045L5.76304 79.0051L5.76401 79.0082L5.76837 79.022C5.77235 79.0344 5.77845 79.0531 5.78663 79.0772C5.803 79.1256 5.82763 79.1957 5.86014 79.2806C5.92538 79.451 6.0213 79.6786 6.14457 79.9103C6.26857 80.1434 6.41575 80.372 6.581 80.5502C6.74795 80.7302 6.91559 80.8397 7.0786 80.8719L7.07932 80.872C7.56818 80.9701 7.98293 81.1081 8.27584 81.2217C8.42249 81.2786 8.53912 81.3296 8.61983 81.3667C8.6602 81.3853 8.69163 81.4004 8.71337 81.4111C8.72424 81.4164 8.7327 81.4207 8.73864 81.4237L8.74567 81.4273L8.74775 81.4283L8.74843 81.4287C8.74848 81.4287 8.74887 81.4289 8.6323 81.6523L8.74843 81.4287C8.76181 81.4357 8.77496 81.4441 8.78688 81.4533C8.78686 81.4533 8.78689 81.4533 8.78688 81.4533M8.78688 81.4533L8.78846 81.4545L8.79469 81.4593C8.80037 81.4636 8.80902 81.4702 8.82037 81.4786C8.84308 81.4956 8.87647 81.5201 8.91826 81.5496C9.00207 81.6089 9.11837 81.6876 9.24891 81.7659C9.38016 81.8446 9.5215 81.9203 9.6559 81.9757C9.71612 82.0005 9.77118 82.0196 9.82051 82.0333C9.8242 82.0238 9.82802 82.0139 9.83197 82.0037C9.88569 81.8648 9.96273 81.6644 10.0559 81.4188C10.2422 80.9276 10.4929 80.2559 10.7504 79.5337C11.2305 78.1869 11.7224 76.6965 11.8777 75.8608L8.91145 74.6426" fill="black"/>
<path d="M12.4132 74.9907L9.25703 73.5934C9.00802 73.4832 8.71678 73.5957 8.60653 73.8447L8.53458 74.0072C8.42434 74.2562 8.53684 74.5475 8.78585 74.6577L11.942 76.055C12.191 76.1652 12.4823 76.0528 12.5925 75.8037L12.6645 75.6412C12.7747 75.3922 12.6622 75.101 12.4132 74.9907Z" fill="#B32032"/>
<path d="M29.7505 69.6736C41.7629 69.6736 51.501 59.9356 51.501 47.9231C51.501 35.9106 41.7629 26.1726 29.7505 26.1726C17.738 26.1726 8 35.9106 8 47.9231C8 59.9356 17.738 69.6736 29.7505 69.6736Z" fill="#FACEA7"/>
<path d="M21.7219 50.3901C19.7008 50.1866 17.5793 50.866 17.5793 50.866C17.5793 50.866 15.693 51.1154 15.7704 51.7748C15.7704 51.7748 15.9682 53.8704 16.295 54.504C16.6218 55.1375 17.3987 58.0187 22.0401 57.8926C22.1634 57.8897 22.278 57.8868 22.387 57.8868C24.2418 56.8232 25.4917 54.8251 25.4917 52.5316C25.4917 52.2335 25.4688 51.9411 25.4287 51.6544C25.1018 51.4365 23.5423 50.5736 21.719 50.3901H21.7219Z" fill="white"/>
<path d="M21.5846 56.6022C23.4222 56.6022 24.9158 55.1086 24.9158 53.271C24.9158 52.3938 24.5747 51.5939 24.0156 50.9976C23.9325 50.9087 23.8436 50.9776 23.749 50.9002C22.4962 50.473 21.0571 50.3211 19.7556 50.4873C18.8497 51.0836 18.2505 52.1071 18.2505 53.271C18.2505 55.1086 19.7441 56.6022 21.5817 56.6022H21.5846Z" fill="url(#paint0_linear_823_44257)"/>
<path d="M22.0434 57.8952C20.3233 58.0357 18.4685 57.5713 17.2558 56.2755C16.0346 54.974 15.5186 53.1535 15.5186 51.3991C15.5186 51.3016 15.5845 51.2213 15.6734 51.1955C16.2582 51.0063 16.9061 50.7913 17.511 50.6594C19.5665 50.1692 21.7969 50.129 23.8094 50.8343C24.3999 51.0436 24.9962 51.3216 25.4951 51.7001C25.1338 51.4851 24.7468 51.3245 24.3512 51.1898C21.9832 50.3756 19.3888 50.5849 17.0122 51.2528C16.6165 51.3761 16.2238 51.5109 15.831 51.637L15.9858 51.4277C15.9744 52.2476 16.1063 53.0876 16.3528 53.8702C17.1641 56.5564 19.3228 57.8064 22.0434 57.8981V57.8952Z" fill="black"/>
<path d="M13.3047 43.9108C13.901 43.9825 14.4858 44.1172 15.0649 44.2663C15.644 44.4183 16.2145 44.5989 16.7793 44.8024C17.9059 45.2124 19.001 45.7054 20.0503 46.2903C20.314 46.4365 20.572 46.5913 20.8301 46.7432C21.0852 46.9038 21.3404 47.0614 21.5869 47.2335C22.0857 47.5717 22.5702 47.9272 23.0318 48.3142C23.9578 49.0797 24.8063 49.9483 25.4944 50.9288C24.5483 50.192 23.6137 49.4896 22.6333 48.8446C22.3925 48.6783 22.1431 48.5264 21.8994 48.3658C21.65 48.2139 21.4063 48.0534 21.154 47.9043C20.6552 47.6004 20.1506 47.308 19.6403 47.0242C18.6198 46.4537 17.5791 45.9205 16.5212 45.4073C15.4634 44.8941 14.3941 44.4011 13.3047 43.908V43.9108Z" fill="black"/>
<path d="M37.8563 50.3901C39.8774 50.1866 41.9988 50.866 41.9988 50.866C41.9988 50.866 43.8852 51.1154 43.8078 51.7748C43.8078 51.7748 43.61 53.8704 43.2831 54.504C42.9563 55.1375 42.1794 58.0187 37.5381 57.8926C37.4148 57.8897 37.3001 57.8868 37.1912 57.8868C35.3364 56.8232 34.0864 54.8251 34.0864 52.5316C34.0864 52.2335 34.1094 51.9411 34.1495 51.6544C34.4763 51.4365 36.0359 50.5736 37.8591 50.3901H37.8563Z" fill="white"/>
<path d="M37.9938 56.6022C36.1562 56.6022 34.6626 55.1086 34.6626 53.271C34.6626 52.3938 35.0038 51.5939 35.5628 50.9976C35.6459 50.9087 35.7348 50.9776 35.8294 50.9002C37.0822 50.473 38.5213 50.3211 39.8229 50.4873C40.7288 51.0836 41.3279 52.1071 41.3279 53.271C41.3279 55.1086 39.8343 56.6022 37.9967 56.6022H37.9938Z" fill="url(#paint1_linear_823_44257)"/>
<path d="M37.5351 57.8952C39.2552 58.0357 41.11 57.5713 42.3227 56.2755C43.544 54.974 44.06 53.1535 44.06 51.3991C44.06 51.3016 43.9941 51.2213 43.9052 51.1955C43.3204 51.0063 42.6725 50.7913 42.0676 50.6594C40.0121 50.1692 37.7817 50.129 35.7692 50.8343C35.1786 51.0436 34.5823 51.3216 34.0835 51.7001C34.4447 51.4851 34.8317 51.3245 35.2274 51.1898C37.5953 50.3756 40.1898 50.5849 42.5664 51.2528C42.962 51.3761 43.3548 51.5109 43.7475 51.637L43.5927 51.4277C43.6042 52.2476 43.4723 53.0876 43.2258 53.8702C42.4144 56.5564 40.2557 57.8064 37.5351 57.8981V57.8952Z" fill="black"/>
<path d="M46.2732 43.9108C45.6769 43.9825 45.092 44.1172 44.5129 44.2663C43.9339 44.4183 43.3634 44.5989 42.7986 44.8024C41.6719 45.2124 40.5768 45.7054 39.5276 46.2903C39.2638 46.4365 39.0058 46.5913 38.7478 46.7432C38.4926 46.9038 38.2375 47.0614 37.991 47.2335C37.4921 47.5717 37.0076 47.9272 36.5461 48.3142C35.6201 49.0797 34.7715 49.9483 34.0835 50.9288C35.0295 50.192 35.9641 49.4896 36.9446 48.8446C37.1854 48.6783 37.4348 48.5264 37.6785 48.3658C37.9279 48.2139 38.1716 48.0534 38.4238 47.9043C38.9227 47.6004 39.4272 47.308 39.9375 47.0242C40.9581 46.4537 41.9988 45.9205 43.0566 45.4073C44.1145 44.8941 45.1838 44.4011 46.2732 43.908V43.9108Z" fill="black"/>
<path d="M58.8725 45.9721C55.1571 34.3386 50.4699 25.8557 43.2341 21.9139C42.4285 19.2965 41.3104 16.4526 40.4045 17.1865C39.8312 17.6509 38.8421 18.6285 37.7384 19.9157C36.2706 19.6147 34.7168 19.457 33.0684 19.4541C33.1515 13.9269 31.7754 6.06613 24.3934 1.17822C24.3934 1.17822 30.1012 7.00071 31.0817 19.5201C30.7319 19.543 30.3764 19.5717 30.0181 19.6089C29.1466 19.5201 28.3008 19.4713 27.4781 19.4599C26.5406 18.3877 25.7322 17.7856 25.3824 17.5964C24.9897 17.3843 23.8888 18.4995 22.7736 19.8268C11.9858 21.7906 5.81647 31.4144 1.1665 45.9778C1.1665 45.9778 5.02523 39.5476 6.4959 38.9943C6.4959 38.9943 2.54544 49.9455 6.86285 61.3267C6.86285 61.3267 6.58764 57.3103 7.78023 56.6051C7.78023 56.6051 9.7096 63.5227 11.8224 64.9934C11.8224 64.9934 11.1803 56.327 12.5563 54.9166C12.5563 54.9166 13.6486 59.3888 15.9506 59.7557C15.9506 59.7557 12.3958 46.0925 16.6989 38.7506C17.6478 44.1116 19.8581 48.4949 19.8581 48.4949C19.5686 44.7222 21.6126 39.0258 23.7226 34.2899C25.4828 34.0949 27.5612 34.2526 30.0152 34.8604C30.1184 34.8346 30.2187 34.8116 30.322 34.7887L31.2307 35.1786C31.2307 35.1786 31.2078 34.9693 31.1533 34.6081C34.8257 33.8742 37.5979 34.2067 39.6735 35.2474C40.6339 38.4783 41.4251 42.5606 41.5455 47.4256C41.5455 47.4256 43.1481 45.264 44.1314 40.4076C47.1473 47.9674 44.0798 59.7615 44.0798 59.7615C46.3818 59.3945 47.4741 54.9223 47.4741 54.9223C48.853 56.3299 48.208 64.9991 48.208 64.9991C50.3208 63.5285 52.2502 56.6108 52.2502 56.6108C53.4456 57.3189 53.1676 61.3325 53.1676 61.3325C57.485 49.9484 53.5345 39 53.5345 39C55.0052 39.5505 58.8639 45.9836 58.8639 45.9836L58.8725 45.9721Z" fill="#EEC654"/>
<path fill-rule="evenodd" clip-rule="evenodd" d="M42.8127 22.2583L42.7524 22.0621C42.3509 20.7577 41.8809 19.4296 41.41 18.5264C41.1694 18.065 40.9571 17.7717 40.7926 17.6344C40.7583 17.6058 40.7334 17.5901 40.7174 17.5817C40.1766 18.0206 39.2123 18.9711 38.121 20.2438L37.9278 20.469L37.6371 20.4094C36.2042 20.1156 34.6841 19.961 33.0675 19.9581L32.5567 19.9573L32.5644 19.4466C32.6339 14.8246 31.6686 8.63208 27.0113 3.96007C27.2721 4.4006 27.5434 4.88849 27.8183 5.42434C29.3958 8.49937 31.0883 13.1493 31.5841 19.4807L31.624 19.9896L31.1146 20.023C30.7699 20.0456 30.421 20.0738 30.0702 20.1102L30.0186 20.1156L29.9669 20.1103C29.1097 20.0229 28.2787 19.9751 27.4711 19.9638L27.2465 19.9607L27.0986 19.7916C26.2749 18.8495 25.5729 18.3043 25.2378 18.0955C25.2285 18.1 25.2181 18.1054 25.2064 18.1117C25.0825 18.179 24.9078 18.309 24.6865 18.5086C24.2492 18.903 23.713 19.4922 23.1595 20.151L23.0427 20.2901L22.8639 20.3227C13.3416 22.0561 7.4441 29.9319 2.96133 42.2669C3.51216 41.4682 4.10501 40.6553 4.65593 39.9958C4.94741 39.6468 5.23389 39.3327 5.50162 39.084C5.75885 38.845 6.03912 38.6276 6.31843 38.5226L7.34059 38.138L6.97008 39.1651L6.96975 39.1661L6.96807 39.1708L6.96063 39.1919C6.9539 39.2113 6.94369 39.2409 6.93036 39.2806C6.90371 39.3599 6.86461 39.4793 6.81605 39.6361C6.71892 39.9499 6.58396 40.4134 6.43489 41.0062C6.13668 42.1921 5.78252 43.8934 5.56146 45.9465C5.19099 49.3875 5.19594 53.8016 6.45298 58.4306C6.49952 58.1083 6.56337 57.7894 6.65079 57.4963C6.79996 56.9962 7.05244 56.4499 7.52369 56.1713L8.08921 55.8368L8.26595 56.4705L8.26688 56.4738L8.27082 56.4878L8.28687 56.5441C8.30114 56.5938 8.3225 56.6675 8.35052 56.7621C8.40656 56.9512 8.48917 57.2239 8.59495 57.556C8.80669 58.2208 9.11035 59.1208 9.47856 60.0646C9.84755 61.0103 10.2772 61.9893 10.7395 62.8164C10.9068 63.1159 11.0741 63.3874 11.2395 63.6264C11.2008 62.7879 11.1636 61.6576 11.1694 60.4814C11.1751 59.3016 11.2241 58.0618 11.3615 57.0202C11.4301 56.4999 11.5224 56.0155 11.6479 55.6067C11.7695 55.2104 11.9388 54.8278 12.1956 54.5646L12.8303 53.914L13.0459 54.7967L13.0463 54.7984L13.0483 54.8062C13.0501 54.8134 13.0529 54.8247 13.0569 54.8397C13.0648 54.8699 13.0768 54.9153 13.0932 54.9738C13.1259 55.0909 13.1755 55.2602 13.2422 55.4651C13.376 55.8761 13.5766 56.4242 13.8443 56.9798C14.1135 57.5386 14.4413 58.085 14.8228 58.5066C14.9562 58.654 15.0921 58.7818 15.2304 58.8885C15.1537 58.5383 15.0633 58.1042 14.9673 57.6005C14.6989 56.1922 14.386 54.2363 14.2087 52.0471C13.8567 47.6988 14.0284 42.3101 16.264 38.4958L16.9565 37.3143L17.1952 38.6628C17.6625 41.3028 18.4415 43.7072 19.1055 45.4541C19.2118 45.7338 19.3151 45.9965 19.4135 46.2403C19.5707 44.7933 19.9307 43.2157 20.4073 41.6102C21.1544 39.0939 22.2022 36.464 23.2622 34.0848L23.3798 33.8207L23.6671 33.7889C25.47 33.5892 27.5701 33.7474 30.0159 34.3416C30.0822 34.3259 30.1475 34.3112 30.2126 34.2967L30.3713 34.2614L30.6066 34.3624L30.5833 34.208L31.0546 34.1138C34.8013 33.3651 37.6952 33.6917 39.8994 34.7968L40.0944 34.8946L40.1566 35.1038C41.0073 37.9657 41.7257 41.4838 41.9732 45.6111C41.9858 45.584 41.9984 45.5564 42.0112 45.5285C42.5191 44.4154 43.1535 42.6975 43.6374 40.3076L43.9729 38.6503L44.5995 40.2209C46.154 44.1176 46.1298 49.057 45.738 52.9697C45.5411 54.9358 45.2492 56.6623 45.0065 57.8977C44.9316 58.2789 44.8613 58.6135 44.7999 58.8943C44.9382 58.7876 45.0742 58.6598 45.2076 58.5123C45.5891 58.0908 45.9169 57.5443 46.1861 56.9855C46.4538 56.4299 46.6544 55.8818 46.7882 55.4708C46.8549 55.2659 46.9045 55.0967 46.9372 54.9796C46.9453 54.9507 46.9523 54.925 46.9583 54.9028C46.9645 54.88 46.9695 54.8608 46.9735 54.8455C46.9775 54.8304 46.9803 54.8191 46.9822 54.8119L46.9841 54.8041L46.9844 54.8027L47.1996 53.9219L47.8341 54.5696C48.0916 54.8325 48.2614 55.2151 48.3833 55.6113C48.5089 56.02 48.6015 56.5044 48.6702 57.0247C48.8077 58.0662 48.8565 59.3061 48.8621 60.4862C48.8677 61.6624 48.8303 62.7929 48.7914 63.6315C48.9566 63.3927 49.1237 63.1214 49.2909 62.8221C49.7532 61.995 50.1829 61.016 50.5518 60.0703C50.9201 59.1265 51.2237 58.2265 51.4355 57.5617C51.5412 57.2296 51.6239 56.957 51.6799 56.7678C51.7079 56.6732 51.7293 56.5996 51.7435 56.5498L51.7596 56.4935L51.7635 56.4796L51.7645 56.4763L51.7647 56.4755L51.9413 55.8421L52.507 56.1772C52.9785 56.4565 53.2314 57.0026 53.3808 57.5032C53.4679 57.7951 53.5316 58.1126 53.5781 58.4334C54.8345 53.8044 54.8394 49.3912 54.4689 45.9512C54.2479 43.8982 53.8937 42.1972 53.5955 41.0115C53.4465 40.4189 53.3115 39.9555 53.2144 39.6418C53.1658 39.485 53.1267 39.3656 53.1001 39.2863C53.0867 39.2467 53.0765 39.217 53.0698 39.1977L53.0623 39.1765L53.0607 39.1718L53.0604 39.1711L52.6905 38.146L53.7112 38.528C53.9909 38.6327 54.2714 38.85 54.5286 39.0887C54.7964 39.3373 55.083 39.6514 55.3744 40.0003C55.9338 40.6697 56.5363 41.4975 57.0942 42.3081C53.6013 32.6845 49.2463 25.7631 42.993 22.3565L42.8127 22.2583ZM58.2277 44.0145C58.446 44.6567 58.6608 45.3093 58.8725 45.9721L58.8639 45.9836C58.8639 45.9836 58.8624 45.9811 58.8595 45.9763C58.8562 45.9708 58.8511 45.9623 58.8442 45.9509C58.7514 45.7971 58.3381 45.1161 57.7703 44.2353C56.7648 42.6751 55.2748 40.4881 54.2229 39.493C53.9617 39.2459 53.7276 39.0723 53.5345 39C53.5345 39 53.632 39.2703 53.7797 39.77C54.5303 42.3107 56.5766 50.7828 53.6918 59.829C53.5325 60.3287 53.3581 60.8302 53.1676 61.3325C53.1676 61.3325 53.2163 60.6286 53.1852 59.7583C53.1518 58.8237 53.0262 57.6972 52.6492 57.0448C52.539 56.8541 52.4073 56.7039 52.2502 56.6108C52.2502 56.6108 52.1963 56.8041 52.0966 57.1328C51.6511 58.6028 50.2909 62.7823 48.7449 64.5101C48.568 64.7078 48.3886 64.8734 48.208 64.9991C48.208 64.9991 48.2274 64.738 48.2523 64.2991C48.3568 62.458 48.5576 57.4876 47.8251 55.5342C47.726 55.2699 47.6099 55.0609 47.4741 54.9223C47.4741 54.9223 47.4132 55.1717 47.2898 55.5575C46.9353 56.6662 46.0652 58.9012 44.6428 59.5832C44.4639 59.6689 44.2762 59.7301 44.0798 59.7615C44.0798 59.7615 44.1302 59.5675 44.2118 59.2134C44.7419 56.9128 46.5866 47.8525 44.4541 41.3016C44.3553 40.9979 44.2479 40.6996 44.1314 40.4076C44.0671 40.7251 44.0002 41.031 43.9312 41.3256C43.3084 43.9866 42.5202 45.7201 42.0243 46.6359C41.7353 47.1696 41.5455 47.4256 41.5455 47.4256C41.5379 47.1194 41.5277 46.8163 41.5149 46.5164C41.3248 42.0501 40.5734 38.2749 39.6735 35.2474C37.6013 34.2084 34.8346 33.8753 31.1711 34.6045C31.1652 34.6057 31.1592 34.6069 31.1533 34.6081C31.2078 34.9693 31.2307 35.1786 31.2307 35.1786L30.322 34.7887C30.2188 34.8116 30.1184 34.8346 30.0152 34.8604C27.5612 34.2526 25.4828 34.0949 23.7226 34.2899C21.8324 38.5326 19.9951 43.546 19.841 47.2567C19.8231 47.6881 19.8279 48.1019 19.8581 48.4949C19.8581 48.4949 19.6496 48.0814 19.3331 47.353C18.6696 45.8258 17.5316 42.9144 16.8465 39.5285C16.7945 39.2718 16.7452 39.0124 16.6989 38.7506C16.5644 38.98 16.4376 39.2156 16.3182 39.4567C13.07 46.0135 15.2365 56.6825 15.8186 59.2077C15.9002 59.5618 15.9506 59.7557 15.9506 59.7557C15.7542 59.7244 15.5665 59.6632 15.3876 59.5774C13.9656 58.8956 13.0956 56.6618 12.741 55.5528C12.6174 55.1664 12.5563 54.9166 12.5563 54.9166C12.4207 55.0556 12.3047 55.2651 12.2057 55.5299C11.4749 57.4851 11.6744 62.4532 11.7783 64.2936C11.8031 64.7324 11.8224 64.9934 11.8224 64.9934C11.6418 64.8677 11.4625 64.7021 11.2857 64.5045C9.73958 62.7769 8.37932 58.5971 7.93377 57.1271C7.83413 56.7983 7.78023 56.6051 7.78023 56.6051C7.62313 56.698 7.4915 56.8484 7.38136 57.0394C7.00507 57.6922 6.87955 58.8201 6.84595 59.7552C6.81471 60.6242 6.86285 61.3267 6.86285 61.3267C6.67264 60.8253 6.49848 60.3247 6.33931 59.8259C3.45375 50.7817 5.49963 42.3077 6.25051 39.7653C6.39828 39.2649 6.4959 38.9943 6.4959 38.9943C6.30278 39.0669 6.06849 39.2409 5.80717 39.4884C4.76418 40.476 3.29058 42.634 2.28557 44.1907C1.62474 45.2142 1.1665 45.9778 1.1665 45.9778C1.38371 45.2976 1.60424 44.628 1.82839 43.9696C6.40291 30.5321 12.4898 21.6988 22.7736 19.8268C23.8888 18.4995 24.9897 17.3843 25.3824 17.5964C25.7322 17.7856 26.5406 18.3877 27.4781 19.4599C28.3008 19.4713 29.1466 19.5201 30.0181 19.6089C30.206 19.5894 30.3931 19.5722 30.579 19.557C30.7476 19.5432 30.9153 19.531 31.0817 19.5201C31.0684 19.3514 31.0544 19.184 31.0395 19.0177C30.2696 10.4276 27.2766 5.07741 25.5815 2.67222C24.8746 1.66908 24.3934 1.17822 24.3934 1.17822C24.9462 1.54425 25.4653 1.92695 25.9527 2.32409C31.7779 7.07112 33.0641 13.8816 33.0718 18.9501C33.072 19.1201 33.0709 19.2882 33.0684 19.4541C33.2373 19.4544 33.4053 19.4563 33.5723 19.4599C35.0344 19.4908 36.4211 19.6455 37.7384 19.9157C38.8421 18.6285 39.8312 17.6509 40.4045 17.1865C41.3104 16.4526 42.4285 19.2965 43.2341 21.9139C50.0576 25.6311 54.6147 33.3867 58.2277 44.0145Z" fill="black"/>
<path d="M19.8613 23.6083C19.8613 23.6083 24.4798 17.1064 25.3828 17.5937C26.2858 18.0811 30.2678 21.332 31.5665 28.3213" fill="#EEC654"/>
<path fill-rule="evenodd" clip-rule="evenodd" d="M20.0668 23.7539C20.0668 23.754 20.0668 23.754 19.8614 23.6081C19.6559 23.4621 19.6559 23.4621 19.656 23.462L19.6695 23.4431L19.7086 23.3883C19.7429 23.3405 19.7932 23.2706 19.8575 23.1818C19.986 23.0043 20.1705 22.7514 20.3948 22.4495C20.8431 21.8459 21.4509 21.0454 22.0876 20.2594C22.723 19.4751 23.3927 18.6984 23.964 18.1464C24.2483 17.8718 24.5182 17.6429 24.754 17.4975C24.8716 17.425 24.9924 17.3658 25.1109 17.3362C25.2293 17.3067 25.3709 17.3007 25.5025 17.3717C26.473 17.8955 30.5018 21.2112 31.8143 28.2751C31.8397 28.4119 31.7494 28.5434 31.6126 28.5689C31.4757 28.5943 31.3442 28.504 31.3188 28.3671C30.0378 21.473 26.1222 18.2853 25.2707 17.8194C25.2651 17.8193 25.2533 17.8202 25.2331 17.8252C25.1847 17.8373 25.1137 17.8679 25.0186 17.9265C24.829 18.0434 24.5899 18.2425 24.3142 18.5089C23.7656 19.039 23.1113 19.7964 22.4793 20.5766C21.8485 21.3552 21.2453 22.1497 20.7994 22.75C20.5766 23.05 20.3932 23.3013 20.2657 23.4774C20.2019 23.5655 20.1521 23.6348 20.1183 23.682L20.0798 23.7358L20.0668 23.7539ZM25.2746 17.8196C25.2746 17.8197 25.2743 17.8196 25.2738 17.8195L25.2746 17.8196ZM19.7154 23.8135C19.602 23.7329 19.5754 23.5755 19.656 23.462L19.8614 23.6081L20.0668 23.7539C19.9862 23.8674 19.8289 23.8941 19.7154 23.8135Z" fill="black"/>
<path fill-rule="evenodd" clip-rule="evenodd" d="M29.5884 58.2506C29.6868 58.1522 29.8464 58.1522 29.9448 58.2506L31.2177 59.5234C31.3161 59.6218 31.3161 59.7814 31.2177 59.8798C31.1192 59.9782 30.9597 59.9782 30.8613 59.8798L29.7666 58.7852L28.7178 59.8339C28.6194 59.9324 28.4598 59.9324 28.3614 59.8339C28.263 59.7355 28.263 59.576 28.3614 59.4776L29.5884 58.2506Z" fill="black"/>
<path d="M21.4637 54.2772C21.9973 54.2772 22.4298 53.8447 22.4298 53.3111C22.4298 52.7775 21.9973 52.345 21.4637 52.345C20.9301 52.345 20.4976 52.7775 20.4976 53.3111C20.4976 53.8447 20.9301 54.2772 21.4637 54.2772Z" fill="black"/>
<path d="M37.994 54.2772C38.5275 54.2772 38.9601 53.8447 38.9601 53.3111C38.9601 52.7775 38.5275 52.345 37.994 52.345C37.4604 52.345 37.0278 52.7775 37.0278 53.3111C37.0278 53.8447 37.4604 54.2772 37.994 54.2772Z" fill="black"/>
<path d="M9.96242 35.8922L16.4701 31.4659L15.5183 35.8922L22.9806 33.7794L17.4591 34.5305L17.9436 28.3238L13.3051 32.2485L15.7677 24.9897L11.5736 25.9673C10.7537 26.8216 9.97389 27.7533 9.22852 28.7596L13.6405 27.5097L9.95956 35.8922H9.96242Z" fill="#F3F7A2"/>
<path d="M47.5978 27.1659L44.4873 31.4834L40.1785 28.4015L35.626 32.6157L40.1785 30.437L44.9259 35.8897L47.8128 30.437L49.7364 37.151L51.9668 30.4226C51.6113 29.878 51.2472 29.3505 50.8745 28.843L49.8425 31.4805L47.5978 27.1631V27.1659Z" fill="#F3F7A2"/>
<path d="M16.7592 27.1657C14.0701 35.6256 19.8611 48.4919 19.8611 48.4919C19.282 40.9694 27.9856 25.8154 27.9856 25.8154C30.5055 28.6937 31.2337 35.1756 31.2337 35.1756" fill="#EEC654"/>
<path fill-rule="evenodd" clip-rule="evenodd" d="M27.9609 25.5667C28.0412 25.5587 28.1205 25.59 28.1737 25.6508C29.4758 27.1381 30.2989 29.5295 30.7971 31.514C31.0476 32.5124 31.2187 33.4195 31.3272 34.0771C31.3814 34.406 31.4201 34.6728 31.4452 34.8578C31.4577 34.9503 31.4669 35.0223 31.473 35.0714L31.4798 35.1276L31.4815 35.1423L31.482 35.1472C31.482 35.1473 31.4821 35.1476 31.2337 35.1756L31.482 35.1472C31.4975 35.2844 31.3988 35.4086 31.2616 35.424C31.1244 35.4394 31.0006 35.3407 30.9852 35.2035L30.9848 35.1994L30.9832 35.1861L30.9767 35.1327C30.9709 35.0855 30.962 35.0154 30.9497 34.9251C30.9252 34.7443 30.8872 34.4822 30.8338 34.1585C30.727 33.5107 30.5585 32.6176 30.3121 31.6357C29.8476 29.7851 29.1156 27.6602 28.0242 26.2554C27.9708 26.3508 27.9062 26.4668 27.8316 26.6021C27.5955 27.0298 27.2586 27.6496 26.8561 28.4169C26.0509 29.9519 24.9835 32.0762 23.9346 34.4343C22.8853 36.7932 21.8562 39.3818 21.1259 41.8462C20.3941 44.3155 19.9691 46.638 20.1103 48.4727C20.1196 48.5938 20.0405 48.7041 19.9228 48.7341C19.8052 48.7642 19.6829 48.7053 19.6331 48.5945L19.861 48.4919C19.6331 48.5945 19.6331 48.5946 19.6331 48.5945L19.6318 48.5918L19.6285 48.5844L19.6158 48.5558C19.6047 48.5307 19.5884 48.4935 19.5673 48.4448C19.525 48.3474 19.4637 48.2039 19.3866 48.0185C19.2325 47.6477 19.0157 47.1093 18.7641 46.437C18.261 45.0927 17.6182 43.2116 17.0597 41.0642C15.9459 36.7817 15.1537 31.3911 16.5209 27.09C16.5627 26.9584 16.7033 26.8856 16.8349 26.9274C16.9665 26.9693 17.0392 27.1098 16.9974 27.2414C15.6755 31.4002 16.4342 36.6727 17.5436 40.9383C18.0967 43.065 18.7337 44.9292 19.2323 46.2617C19.3646 46.6151 19.4871 46.9309 19.5956 47.2043C19.6691 45.5488 20.0681 43.6557 20.6465 41.7041C21.3852 39.2114 22.4235 36.601 23.4777 34.2311C24.5323 31.8605 25.6046 29.7261 26.4133 28.1846C26.8177 27.4138 27.1562 26.7909 27.3938 26.3604C27.5127 26.1452 27.6062 25.9781 27.6702 25.8647C27.7022 25.808 27.7267 25.7647 27.7433 25.7355L27.7622 25.7023L27.7683 25.6917C27.7684 25.6916 27.7688 25.6909 27.9856 25.8154L27.7683 25.6917C27.8085 25.6217 27.8805 25.5746 27.9609 25.5667Z" fill="black"/>
<path d="M32.0513 33.7278C32.0513 33.7278 35.179 26.6582 35.8097 26.0877C35.8097 26.0877 41.2881 33.5643 41.6264 47.0556C41.6264 47.0556 45.5425 41.772 44.8917 29.1753L44.3642 25.4513C44.3642 25.4513 42.0851 15.5207 40.4826 16.8222C38.88 18.1237 34.0007 23.4417 32.5386 28.364" fill="#EEC654"/>
<path fill-rule="evenodd" clip-rule="evenodd" d="M44.6079 25.3952C44.6079 25.3953 44.6079 25.3954 44.3642 25.4513L44.6079 25.3952C44.6095 25.4021 44.6108 25.4092 44.6118 25.4162L45.1393 29.1402C45.1403 29.1476 45.141 29.155 45.1414 29.1624C45.4682 35.4889 44.6487 39.9885 43.7419 42.9132C43.2886 44.3753 42.8138 45.443 42.4503 46.1478C42.2686 46.5001 42.1148 46.7618 42.0054 46.9365C41.9507 47.0239 41.9071 47.0896 41.8767 47.1341C41.8679 47.1471 41.8601 47.1582 41.8536 47.1676C41.8489 47.1743 41.8448 47.1801 41.8413 47.185L41.8315 47.1986L41.8287 47.2025L41.8278 47.2037C41.8277 47.2039 41.8273 47.2044 41.6264 47.0556L41.8278 47.2037C41.7643 47.2894 41.6528 47.3261 41.551 47.2939C41.4493 47.2617 41.3792 47.1685 41.3765 47.0618C41.2082 40.3494 39.7613 35.1365 38.3589 31.6047C37.6576 29.8387 36.9674 28.493 36.4537 27.5904C36.1969 27.1391 35.9842 26.7987 35.8363 26.5719C35.8235 26.5522 35.8111 26.5333 35.7993 26.5153C35.7635 26.5713 35.7246 26.6352 35.6826 26.7066C35.5402 26.9486 35.3688 27.2667 35.1787 27.6364C34.7989 28.3753 34.3503 29.3093 33.9204 30.2277C33.4907 31.1456 33.0805 32.046 32.7777 32.7171C32.6264 33.0525 32.5019 33.3306 32.4152 33.5248L32.3151 33.7497L32.2801 33.8286L32.0513 33.7278L31.8227 33.6265L31.8581 33.5467L31.9586 33.321C32.0455 33.1263 32.1703 32.8476 32.322 32.5114C32.6253 31.8391 33.0365 30.9364 33.4676 30.0157C33.8984 29.0954 34.35 28.155 34.734 27.4079C34.9259 27.0346 35.1023 26.7069 35.2516 26.453C35.3263 26.3262 35.3956 26.2153 35.458 26.1252C35.5177 26.039 35.5802 25.9582 35.642 25.9023C35.6945 25.8548 35.7646 25.8318 35.835 25.839C35.9054 25.8462 35.9695 25.8829 36.0113 25.94L35.8097 26.0877C36.0113 25.94 36.0112 25.9398 36.0113 25.94L36.0128 25.942L36.0163 25.9468L36.029 25.9645C36.04 25.9799 36.0561 26.0027 36.0768 26.0326C36.1183 26.0926 36.1786 26.1814 36.2552 26.2988C36.4082 26.5336 36.6262 26.8826 36.8883 27.3431C37.4124 28.264 38.1129 29.6306 38.8236 31.4202C40.186 34.8511 41.5853 39.8365 41.8487 46.2141C41.8979 46.1245 41.9505 46.0261 42.006 45.9186C42.3564 45.2391 42.82 44.1985 43.2643 42.7652C44.1524 39.9006 44.965 35.4636 44.6426 29.1993L44.1182 25.497L44.1142 25.4795L44.0949 25.3975C44.078 25.3256 44.0528 25.2201 44.0203 25.0862C43.9551 24.8184 43.8602 24.437 43.7413 23.9834C43.5033 23.0754 43.1698 21.8804 42.7871 20.7274C42.4029 19.5699 41.9745 18.4718 41.5496 17.748C41.3344 17.3814 41.1369 17.1405 40.9687 17.0259C40.8882 16.971 40.8288 16.9551 40.7873 16.9546C40.7499 16.9542 40.7024 16.9657 40.6402 17.0163C39.8592 17.6506 38.2522 19.2892 36.6569 21.3866C35.0614 23.4844 33.4968 26.0163 32.7783 28.4352C32.739 28.5675 32.5998 28.6429 32.4675 28.6036C32.3351 28.5643 32.2597 28.4251 32.299 28.2928C33.0426 25.7893 34.6487 23.2011 36.259 21.0839C37.8695 18.9665 39.5035 17.2953 40.325 16.6281C40.4631 16.516 40.6212 16.4526 40.7932 16.4546C40.9612 16.4566 41.1151 16.5206 41.2503 16.6127C41.5135 16.7921 41.7569 17.1134 41.9808 17.4949C42.4339 18.2669 42.8758 19.4074 43.2616 20.5699C43.649 21.7369 43.9855 22.9432 44.2249 23.8566C44.3447 24.3136 44.4404 24.6978 44.5061 24.968C44.539 25.1031 44.5644 25.2097 44.5816 25.2827L44.6012 25.3662L44.6062 25.3878L44.6079 25.3952ZM32.0513 33.7278L31.8227 33.6265C31.7669 33.7528 31.8239 33.9005 31.9502 33.9564C32.0764 34.0122 32.2242 33.9549 32.2801 33.8286L32.0513 33.7278Z" fill="black"/>
<defs>
<linearGradient id="paint0_linear_823_44257" x1="21.5846" y1="50.02" x2="21.5846" y2="55.4727" gradientUnits="userSpaceOnUse">
<stop offset="0.22" stop-color="#A67239"/>
<stop offset="0.61" stop-color="#D8AE3E"/>
<stop offset="1" stop-color="#D6CD82"/>
</linearGradient>
<linearGradient id="paint1_linear_823_44257" x1="37.991" y1="50.02" x2="37.991" y2="55.4727" gradientUnits="userSpaceOnUse">
<stop offset="0.22" stop-color="#A67239"/>
<stop offset="0.61" stop-color="#D8AE3E"/>
<stop offset="1" stop-color="#D6CD82"/>
</linearGradient>
</defs>
</svg>
