<svg width="58" height="58" viewBox="0 0 58 58" fill="none" xmlns="http://www.w3.org/2000/svg">
<mask id="path-1-outside-1_782_42088" maskUnits="userSpaceOnUse" x="0" y="0" width="58" height="58" fill="black">
<rect fill="white" width="58" height="58"/>
<path fill-rule="evenodd" clip-rule="evenodd" d="M48.4265 3.17157C46.8644 1.60948 44.3317 1.60948 42.7696 3.17157L28.6274 17.3137L14.4853 3.17159C12.9232 1.60949 10.3905 1.60949 8.82843 3.17159L3.17157 8.82844C1.60948 10.3905 1.60948 12.9232 3.17157 14.4853L17.3137 28.6274L3.17162 42.7696C1.60952 44.3316 1.60952 46.8643 3.17162 48.4264L8.82847 54.0833C10.3906 55.6454 12.9232 55.6454 14.4853 54.0833L28.6274 39.9412L42.7696 54.0833C44.3316 55.6454 46.8643 55.6454 48.4264 54.0833L54.0833 48.4264C55.6454 46.8643 55.6454 44.3317 54.0833 42.7696L39.9411 28.6274L54.0833 14.4853C55.6454 12.9232 55.6454 10.3905 54.0833 8.82843L48.4265 3.17157Z"/>
</mask>
<path fill-rule="evenodd" clip-rule="evenodd" d="M48.4265 3.17157C46.8644 1.60948 44.3317 1.60948 42.7696 3.17157L28.6274 17.3137L14.4853 3.17159C12.9232 1.60949 10.3905 1.60949 8.82843 3.17159L3.17157 8.82844C1.60948 10.3905 1.60948 12.9232 3.17157 14.4853L17.3137 28.6274L3.17162 42.7696C1.60952 44.3316 1.60952 46.8643 3.17162 48.4264L8.82847 54.0833C10.3906 55.6454 12.9232 55.6454 14.4853 54.0833L28.6274 39.9412L42.7696 54.0833C44.3316 55.6454 46.8643 55.6454 48.4264 54.0833L54.0833 48.4264C55.6454 46.8643 55.6454 44.3317 54.0833 42.7696L39.9411 28.6274L54.0833 14.4853C55.6454 12.9232 55.6454 10.3905 54.0833 8.82843L48.4265 3.17157Z" fill="#007296"/>
<path d="M42.7696 3.17157L44.1838 4.58579V4.58579L42.7696 3.17157ZM48.4265 3.17157L47.0122 4.58579V4.58579L48.4265 3.17157ZM28.6274 17.3137L27.2132 18.728L28.6274 20.1422L30.0416 18.728L28.6274 17.3137ZM14.4853 3.17159L15.8995 1.75737V1.75737L14.4853 3.17159ZM8.82843 3.17159L7.41421 1.75737V1.75737L8.82843 3.17159ZM3.17157 8.82844L1.75736 7.41423H1.75736L3.17157 8.82844ZM3.17157 14.4853L1.75736 15.8995H1.75736L3.17157 14.4853ZM17.3137 28.6274L18.7279 30.0417L20.1422 28.6274L18.7279 27.2132L17.3137 28.6274ZM3.17162 42.7696L4.58583 44.1838H4.58583L3.17162 42.7696ZM3.17162 48.4264L4.58583 47.0122H4.58583L3.17162 48.4264ZM8.82847 54.0833L7.41426 55.4975H7.41426L8.82847 54.0833ZM14.4853 54.0833L15.8995 55.4975H15.8995L14.4853 54.0833ZM28.6274 39.9412L30.0416 38.5269L28.6274 37.1127L27.2132 38.5269L28.6274 39.9412ZM54.0833 42.7696L55.4975 41.3554L54.0833 42.7696ZM39.9411 28.6274L38.5269 27.2132L37.1127 28.6274L38.5269 30.0417L39.9411 28.6274ZM54.0833 14.4853L52.6691 13.0711V13.0711L54.0833 14.4853ZM54.0833 8.82843L52.6691 10.2426V10.2426L54.0833 8.82843ZM44.1838 4.58579C44.9649 3.80474 46.2312 3.80474 47.0122 4.58579L49.8407 1.75736C47.4975 -0.585786 43.6985 -0.585787 41.3554 1.75736L44.1838 4.58579ZM30.0416 18.728L44.1838 4.58579L41.3554 1.75736L27.2132 15.8995L30.0416 18.728ZM13.0711 4.5858L27.2132 18.728L30.0416 15.8995L15.8995 1.75737L13.0711 4.5858ZM10.2426 4.5858C11.0237 3.80475 12.29 3.80475 13.0711 4.5858L15.8995 1.75737C13.5563 -0.585774 9.75736 -0.585774 7.41421 1.75737L10.2426 4.5858ZM4.58579 10.2427L10.2426 4.5858L7.41421 1.75737L1.75736 7.41423L4.58579 10.2427ZM4.58579 13.0711C3.80474 12.29 3.80474 11.0237 4.58579 10.2427L1.75736 7.41423C-0.585786 9.75737 -0.585786 13.5564 1.75736 15.8995L4.58579 13.0711ZM18.7279 27.2132L4.58579 13.0711L1.75736 15.8995L15.8995 30.0417L18.7279 27.2132ZM4.58583 44.1838L18.7279 30.0417L15.8995 27.2132L1.75741 41.3553L4.58583 44.1838ZM4.58583 47.0122C3.80478 46.2311 3.80478 44.9648 4.58583 44.1838L1.75741 41.3553C-0.585741 43.6985 -0.585741 47.4975 1.75741 49.8406L4.58583 47.0122ZM10.2427 52.669L4.58583 47.0122L1.7574 49.8406L7.41426 55.4975L10.2427 52.669ZM13.0711 52.669C12.2901 53.4501 11.0237 53.4501 10.2427 52.669L7.41426 55.4975C9.7574 57.8406 13.5564 57.8406 15.8995 55.4975L13.0711 52.669ZM27.2132 38.5269L13.0711 52.669L15.8995 55.4975L30.0416 41.3554L27.2132 38.5269ZM44.1838 52.6691L30.0416 38.5269L27.2132 41.3554L41.3553 55.4975L44.1838 52.6691ZM47.0122 52.6691C46.2311 53.4501 44.9648 53.4501 44.1838 52.6691L41.3553 55.4975C43.6985 57.8406 47.4975 57.8406 49.8406 55.4975L47.0122 52.6691ZM52.669 47.0122L47.0122 52.6691L49.8406 55.4975L55.4975 49.8406L52.669 47.0122ZM52.669 44.1838C53.4501 44.9648 53.4501 46.2312 52.669 47.0122L55.4975 49.8406C57.8406 47.4975 57.8406 43.6985 55.4975 41.3554L52.669 44.1838ZM38.5269 30.0417L52.669 44.1838L55.4975 41.3554L41.3554 27.2132L38.5269 30.0417ZM52.6691 13.0711L38.5269 27.2132L41.3554 30.0417L55.4975 15.8995L52.6691 13.0711ZM52.6691 10.2426C53.4501 11.0237 53.4501 12.29 52.6691 13.0711L55.4975 15.8995C57.8407 13.5564 57.8407 9.75736 55.4975 7.41421L52.6691 10.2426ZM47.0122 4.58579L52.6691 10.2426L55.4975 7.41421L49.8407 1.75736L47.0122 4.58579Z" fill="white" mask="url(#path-1-outside-1_782_42088)"/>
</svg>
