<svg width="75" height="73" viewBox="0 0 75 73" fill="none" xmlns="http://www.w3.org/2000/svg">
<mask id="path-1-outside-1_823_44423" maskUnits="userSpaceOnUse" x="0" y="0" width="75" height="73" fill="black">
<rect fill="white" width="75" height="73"/>
<path fill-rule="evenodd" clip-rule="evenodd" d="M58.8673 53.557C58.7113 53.5738 58.5645 53.6054 58.4271 53.6478L72 25.8392L60.8556 35.3807L62.8997 8.43397L49.7355 24.8668C46.0256 15.9436 33.8337 3 33.8337 3C30.7421 8.61098 26.0598 27.0322 26.0598 27.0322L7.85929 14.3092L15.4562 37.2793L3 29.3284L19.2223 53.5696C18.4687 53.6848 17.6872 54.1473 16.8895 54.9488C16.1936 55.6496 15.8201 56.5928 15.808 57.6791C15.7959 58.6757 16.1038 59.745 16.6688 60.6907C17.2896 61.7261 18.1916 62.5578 19.21 63.0331C19.8865 63.3483 20.6091 63.5083 21.3487 63.5083V63.5059C21.8724 63.5059 22.4035 63.4283 22.9345 63.2683C23.4597 63.1111 23.8899 62.8958 24.2228 62.6245C27.5678 67.2164 32.9867 70.2008 39.1026 70.2008C45.3463 70.2008 50.8636 67.0903 54.1894 62.3345C54.5466 62.747 55.0787 63.0608 55.7805 63.2708C56.3115 63.4284 56.8426 63.5084 57.3663 63.5084V63.5108C58.1059 63.5108 58.8285 63.3508 59.505 63.0355C60.5234 62.5603 61.4254 61.7286 62.0462 60.6932C62.6112 59.75 62.9167 58.6806 62.907 57.6816C62.8973 56.5977 62.5214 55.652 61.8255 54.9513C60.8047 53.9232 59.8105 53.4552 58.8673 53.557Z"/>
</mask>
<path fill-rule="evenodd" clip-rule="evenodd" d="M58.8673 53.557C58.7113 53.5738 58.5645 53.6054 58.4271 53.6478L72 25.8392L60.8556 35.3807L62.8997 8.43397L49.7355 24.8668C46.0256 15.9436 33.8337 3 33.8337 3C30.7421 8.61098 26.0598 27.0322 26.0598 27.0322L7.85929 14.3092L15.4562 37.2793L3 29.3284L19.2223 53.5696C18.4687 53.6848 17.6872 54.1473 16.8895 54.9488C16.1936 55.6496 15.8201 56.5928 15.808 57.6791C15.7959 58.6757 16.1038 59.745 16.6688 60.6907C17.2896 61.7261 18.1916 62.5578 19.21 63.0331C19.8865 63.3483 20.6091 63.5083 21.3487 63.5083V63.5059C21.8724 63.5059 22.4035 63.4283 22.9345 63.2683C23.4597 63.1111 23.8899 62.8958 24.2228 62.6245C27.5678 67.2164 32.9867 70.2008 39.1026 70.2008C45.3463 70.2008 50.8636 67.0903 54.1894 62.3345C54.5466 62.747 55.0787 63.0608 55.7805 63.2708C56.3115 63.4284 56.8426 63.5084 57.3663 63.5084V63.5108C58.1059 63.5108 58.8285 63.3508 59.505 63.0355C60.5234 62.5603 61.4254 61.7286 62.0462 60.6932C62.6112 59.75 62.9167 58.6806 62.907 57.6816C62.8973 56.5977 62.5214 55.652 61.8255 54.9513C60.8047 53.9232 59.8105 53.4552 58.8673 53.557Z" fill="white"/>
<path d="M58.4271 53.6478L56.5074 52.7109C56.1339 53.4761 56.2506 54.3901 56.8044 55.037C57.3582 55.6839 58.2433 55.9401 59.0569 55.689L58.4271 53.6478ZM58.8673 53.557L59.0958 55.6809L59.0966 55.6808L58.8673 53.557ZM72 25.8392L73.9197 26.7761C74.3638 25.866 74.108 24.7692 73.307 24.1496C72.506 23.5299 71.38 23.5579 70.6107 24.2165L72 25.8392ZM60.8556 35.3807L58.7257 35.2192C58.6604 36.08 59.1197 36.8956 59.8897 37.286C60.6598 37.6764 61.5891 37.5648 62.2449 37.0033L60.8556 35.3807ZM62.8997 8.43397L65.0297 8.59554C65.1006 7.66153 64.5547 6.79032 63.6833 6.44674C62.8118 6.10317 61.8182 6.3674 61.2326 7.09844L62.8997 8.43397ZM49.7355 24.8668L47.7631 25.6869C48.0528 26.3837 48.6888 26.876 49.436 26.9818C50.1832 27.0876 50.9308 26.7913 51.4027 26.2023L49.7355 24.8668ZM33.8337 3L35.3886 1.53537C34.9204 1.03831 34.2428 0.795039 33.5654 0.880815C32.8879 0.966591 32.2923 1.37107 31.9628 1.96914L33.8337 3ZM26.0598 27.0322L24.836 28.7829C25.4109 29.1848 26.1466 29.2788 26.8041 29.0344C27.4617 28.79 27.9573 28.2383 28.1301 27.5584L26.0598 27.0322ZM7.85929 14.3092L9.08314 12.5585C8.32886 12.0312 7.32166 12.0463 6.58352 12.596C5.84538 13.1456 5.54225 14.1062 5.83123 14.98L7.85929 14.3092ZM15.4562 37.2793L14.3069 39.0799C15.0687 39.5662 16.0542 39.5204 16.7676 38.9655C17.4811 38.4106 17.768 37.4667 17.4842 36.6086L15.4562 37.2793ZM3 29.3284L4.14932 27.5279C3.29716 26.9839 2.18037 27.1119 1.47329 27.8344C0.766206 28.557 0.662477 29.6763 1.22474 30.5165L3 29.3284ZM19.2223 53.5696L19.5452 55.6811C20.2674 55.5707 20.883 55.0988 21.1774 54.4301C21.4717 53.7615 21.4039 52.9887 20.9975 52.3816L19.2223 53.5696ZM16.8895 54.9488L15.3754 53.4419L15.3738 53.4436L16.8895 54.9488ZM15.808 57.6791L17.944 57.7051L17.944 57.7029L15.808 57.6791ZM16.6688 60.6907L14.835 61.7863L14.8367 61.7891L16.6688 60.6907ZM19.21 63.0331L18.3067 64.9688L18.3078 64.9693L19.21 63.0331ZM21.3487 63.5083V65.6444C22.5284 65.6444 23.4848 64.688 23.4848 63.5083H21.3487ZM21.3487 63.5059V61.3698C20.1689 61.3698 19.2126 62.3262 19.2126 63.5059H21.3487ZM22.9345 63.2683L22.3223 61.2218L22.3181 61.223L22.9345 63.2683ZM24.2228 62.6245L25.9494 61.3668C25.604 60.8927 25.0788 60.5814 24.4971 60.5061C23.9153 60.4308 23.3282 60.598 22.8735 60.9686L24.2228 62.6245ZM54.1894 62.3345L55.8042 60.9361C55.3732 60.4383 54.7366 60.1672 54.079 60.2012C53.4214 60.2352 52.8162 60.5707 52.4388 61.1103L54.1894 62.3345ZM55.7805 63.2708L55.1683 65.3173L55.1727 65.3186L55.7805 63.2708ZM57.3663 63.5084H59.5024C59.5024 62.3286 58.5461 61.3723 57.3663 61.3723V63.5084ZM57.3663 63.5108H55.2302C55.2302 64.6905 56.1866 65.6469 57.3663 65.6469V63.5108ZM59.505 63.0355L60.4072 64.9718L60.4083 64.9713L59.505 63.0355ZM62.0462 60.6932L63.8783 61.7916L63.8787 61.7908L62.0462 60.6932ZM62.907 57.6816L60.771 57.7007L60.771 57.7023L62.907 57.6816ZM61.8255 54.9513L60.3097 56.4564L60.3098 56.4565L61.8255 54.9513ZM59.0569 55.689C59.07 55.6849 59.0825 55.6823 59.0958 55.6809L58.6388 51.4332C58.34 51.4653 58.0589 51.5259 57.7972 51.6067L59.0569 55.689ZM70.0803 24.9022L56.5074 52.7109L60.3467 54.5848L73.9197 26.7761L70.0803 24.9022ZM62.2449 37.0033L73.3893 27.4618L70.6107 24.2165L59.4664 33.7581L62.2449 37.0033ZM60.7698 8.27239L58.7257 35.2192L62.9856 35.5423L65.0297 8.59554L60.7698 8.27239ZM51.4027 26.2023L64.5669 9.76949L61.2326 7.09844L48.0684 23.5313L51.4027 26.2023ZM33.8337 3C32.2788 4.46463 32.2787 4.46453 32.2786 4.46448C32.2787 4.46453 32.2787 4.46454 32.2788 4.46463C32.279 4.46483 32.2793 4.46523 32.2799 4.46582C32.281 4.46699 32.2828 4.46895 32.2854 4.47168C32.2905 4.47714 32.2985 4.48568 32.3094 4.49724C32.331 4.52037 32.3639 4.55558 32.4074 4.60234C32.4944 4.69589 32.6238 4.83565 32.7906 5.0175C33.1243 5.38126 33.6072 5.91308 34.1992 6.57995C35.384 7.91465 37.0013 9.78535 38.7311 11.9287C42.2381 16.2742 46.0365 21.534 47.7631 25.6869L51.7079 24.0468C49.7246 19.2764 45.5721 13.6027 42.0557 9.24564C40.2738 7.03773 38.6112 5.11483 37.3941 3.74377C36.7852 3.05775 36.2866 2.50864 35.939 2.12969C35.7652 1.94019 35.6291 1.79316 35.5357 1.69274C35.489 1.64253 35.4529 1.60396 35.4282 1.57756C35.4159 1.56436 35.4063 1.5542 35.3997 1.54715C35.3964 1.54362 35.3938 1.54087 35.392 1.53891C35.391 1.53793 35.3903 1.53714 35.3897 1.53655C35.3895 1.53625 35.3892 1.53596 35.3891 1.53581C35.3888 1.53557 35.3886 1.53537 33.8337 3ZM26.0598 27.0322C28.1301 27.5584 28.1301 27.5584 28.1301 27.5583C28.1301 27.5582 28.1302 27.5581 28.1302 27.5579C28.1303 27.5574 28.1305 27.5567 28.1308 27.5557C28.1313 27.5537 28.1321 27.5506 28.1331 27.5464C28.1353 27.538 28.1385 27.5252 28.1429 27.5082C28.1516 27.4741 28.1647 27.423 28.1819 27.3559C28.2165 27.2217 28.2677 27.0232 28.3342 26.7681C28.4671 26.258 28.6607 25.5217 28.9028 24.6201C29.3872 22.8161 30.0645 20.3547 30.8371 17.7216C32.4123 12.353 34.2942 6.59057 35.7046 4.03086L31.9628 1.96914C30.2816 5.0204 28.2766 11.2741 26.7377 16.5188C25.9533 19.1923 25.2668 21.6869 24.7767 23.5122C24.5315 24.4253 24.3352 25.172 24.1999 25.6912C24.1323 25.9508 24.0799 26.1536 24.0444 26.2919C24.0266 26.3611 24.013 26.4141 24.0038 26.4501C23.9992 26.4681 23.9957 26.4818 23.9933 26.4912C23.9921 26.4958 23.9912 26.4994 23.9906 26.5019C23.9903 26.5031 23.99 26.5041 23.9898 26.5047C23.9898 26.5051 23.9897 26.5054 23.9896 26.5056C23.9896 26.5058 23.9895 26.5059 26.0598 27.0322ZM6.63544 16.06L24.836 28.7829L27.2837 25.2814L9.08314 12.5585L6.63544 16.06ZM17.4842 36.6086L9.88736 13.6385L5.83123 14.98L13.4281 37.9501L17.4842 36.6086ZM1.85068 31.129L14.3069 39.0799L16.6055 35.4788L4.14932 27.5279L1.85068 31.129ZM20.9975 52.3816L4.77526 28.1404L1.22474 30.5165L17.447 54.7576L20.9975 52.3816ZM18.4035 56.4557C19.0282 55.828 19.4149 55.7011 19.5452 55.6811L18.8994 51.458C17.5225 51.6686 16.3462 52.4665 15.3754 53.4419L18.4035 56.4557ZM17.944 57.7029C17.9506 57.1111 18.1419 56.719 18.4052 56.454L15.3738 53.4436C14.2452 54.5801 13.6897 56.0745 13.672 57.6553L17.944 57.7029ZM18.5026 59.5951C18.1154 58.9471 17.9372 58.2618 17.944 57.7051L13.6721 57.6531C13.6546 59.0896 14.0922 60.5429 14.835 61.7863L18.5026 59.5951ZM20.1133 61.0974C19.5104 60.816 18.9198 60.291 18.5009 59.5923L14.8367 61.7891C15.6593 63.1612 16.8727 64.2996 18.3067 64.9688L20.1133 61.0974ZM21.3487 61.3722C20.9222 61.3722 20.5074 61.281 20.1122 61.0968L18.3078 64.9693C19.2656 65.4156 20.296 65.6444 21.3487 65.6444V61.3722ZM19.2126 63.5059V63.5083H23.4848V63.5059H19.2126ZM22.3181 61.223C21.9829 61.324 21.6594 61.3698 21.3487 61.3698V65.642C22.0854 65.642 22.824 65.5326 23.5509 65.3135L22.3181 61.223ZM22.8735 60.9686C22.8083 61.0217 22.6483 61.1242 22.3223 61.2218L23.5467 65.3148C24.2712 65.098 24.9715 64.77 25.5722 64.2805L22.8735 60.9686ZM39.1026 68.0647C33.6984 68.0647 28.9097 65.4305 25.9494 61.3668L22.4963 63.8823C26.226 69.0023 32.275 72.3369 39.1026 72.3369V68.0647ZM52.4388 61.1103C49.4956 65.3192 44.6195 68.0647 39.1026 68.0647V72.3369C46.0731 72.3369 52.2316 68.8615 55.9399 63.5586L52.4388 61.1103ZM56.3927 61.2243C55.9527 61.0926 55.8203 60.9548 55.8042 60.9361L52.5745 63.7328C53.2728 64.5392 54.2047 65.029 55.1683 65.3173L56.3927 61.2243ZM57.3663 61.3723C57.0616 61.3723 56.7352 61.3259 56.3883 61.2229L55.1727 65.3186C55.8879 65.5308 56.6235 65.6445 57.3663 65.6445V61.3723ZM59.5024 63.5108V63.5084H55.2302V63.5108H59.5024ZM58.6028 61.0993C58.2076 61.2835 57.7928 61.3747 57.3663 61.3747V65.6469C58.419 65.6469 59.4494 65.4181 60.4072 64.9718L58.6028 61.0993ZM60.2141 59.5948C59.7952 60.2935 59.2046 60.8185 58.6017 61.0998L60.4083 64.9713C61.8423 64.3021 63.0556 63.1637 63.8783 61.7916L60.2141 59.5948ZM60.771 57.7023C60.7765 58.269 60.5972 58.9552 60.2137 59.5956L63.8787 61.7908C64.6251 60.5447 65.0569 59.0922 65.043 57.6609L60.771 57.7023ZM60.3098 56.4565C60.5749 56.7234 60.7657 57.1176 60.771 57.7007L65.043 57.6625C65.0288 56.0779 64.468 54.5807 63.3412 53.4461L60.3098 56.4565ZM59.0966 55.6808C59.1142 55.6789 59.5019 55.6428 60.3097 56.4564L63.3413 53.4462C62.1074 52.2035 60.5068 51.2315 58.638 51.4333L59.0966 55.6808Z" fill="white" mask="url(#path-1-outside-1_823_44423)"/>
<path d="M21.8844 54.4977C21.8844 54.4977 20.1482 53.6393 19.6196 53.6636C19.091 53.6878 18.0556 53.9861 17.755 54.3086C17.4543 54.6311 16.5232 55.3779 16.2249 56.1757C15.9267 56.9734 15.7036 58.1543 16.0625 59.1C16.4213 60.0457 17.3355 61.6872 17.9296 62.0122C18.5236 62.3371 19.3723 63.3434 21.1764 63.4307C22.9804 63.518 24.2486 62.4486 24.2486 62.4486C24.2486 62.4486 25.0197 61.6387 25.0439 61.1417C25.0682 60.6446 21.882 54.4977 21.882 54.4977H21.8844Z" fill="url(#paint0_linear_823_44423)" stroke="#FCC3B7" stroke-width="0.0667533" stroke-miterlimit="10"/>
<path d="M56.602 54.9006C56.602 54.9006 58.5443 53.6421 59.0729 53.6664C59.6015 53.6906 60.6369 53.9889 60.9376 54.3114C61.2383 54.6339 62.1694 55.3807 62.4676 56.1785C62.7659 56.9762 62.989 58.1571 62.6301 59.1028C62.2712 60.0484 61.3571 61.69 60.763 62.0149C60.1689 62.3399 59.3202 63.3461 57.5162 63.4334C55.7121 63.5207 54.444 62.4514 54.444 62.4514C54.444 62.4514 53.7529 61.53 53.7287 61.0329C53.7044 60.5358 56.6045 54.9054 56.6045 54.9054L56.602 54.9006Z" fill="url(#paint1_linear_823_44423)" stroke="#FCC3B7" stroke-width="0.0667533" stroke-miterlimit="10"/>
<path d="M21.3486 63.5084C20.6091 63.5084 19.8865 63.3484 19.21 63.0331C18.1915 62.5579 17.2895 61.7262 16.6688 60.6908C16.1038 59.7451 15.7958 58.6758 15.808 57.6792C15.8201 56.5929 16.1935 55.6496 16.8894 54.9489C17.9103 53.9232 18.9044 53.4528 19.8477 53.5546C20.997 53.6783 21.6469 54.607 21.7269 54.7258C21.8263 54.8301 22.7574 55.8218 23.6013 57.0827C24.8088 58.8867 25.2744 60.3562 24.9858 61.457C24.7603 62.3178 24.0692 62.9289 22.9344 63.2684C22.4034 63.4284 21.8724 63.506 21.3486 63.506V63.5084ZM19.5931 53.8019C18.7977 53.8019 17.9515 54.2481 17.0713 55.1332C16.4239 55.7854 16.0747 56.6681 16.065 57.684C16.0553 58.6346 16.3487 59.6554 16.8894 60.5599C17.4835 61.5516 18.3443 62.3469 19.3166 62.8004C20.4127 63.312 21.6372 63.3896 22.8568 63.0234C23.8995 62.7106 24.53 62.1626 24.7312 61.394C25.3762 58.9328 21.5669 54.9392 21.5281 54.9004C21.5232 54.8931 21.5159 54.8883 21.5111 54.881C21.5111 54.881 20.8903 53.9305 19.8137 53.8165C19.741 53.8092 19.6658 53.8044 19.5906 53.8044L19.5931 53.8019Z" fill="black"/>
<path d="M17.8054 59.1681C17.7545 59.1681 17.7084 59.139 17.6866 59.0905C17.2089 57.9848 17.672 56.2874 18.6032 55.7297C19.0299 55.4751 19.6434 55.4436 20.2472 55.6497C20.8024 55.8388 21.8257 56.3941 22.4489 57.9823C22.4756 58.0502 22.4416 58.1254 22.3761 58.1521C22.3082 58.1788 22.2331 58.1448 22.2064 58.0793C21.6196 56.5881 20.6739 56.0716 20.1623 55.897C19.6288 55.7152 19.0954 55.737 18.7341 55.9528C17.9145 56.445 17.4974 58.0042 17.9218 58.9886C17.9509 59.0541 17.9218 59.1317 17.8539 59.1608C17.8369 59.1681 17.8199 59.1705 17.803 59.1705L17.8054 59.1681Z" fill="black"/>
<path d="M22.6118 60.955C22.4591 60.955 21.8941 60.9429 21.2806 60.7732C20.3277 60.5113 19.7312 59.99 19.5541 59.2698C19.2874 58.1859 19.3796 57.1675 19.7991 56.5468C20.0367 56.1927 20.3737 55.9769 20.7738 55.9212C20.8441 55.9115 20.9096 55.96 20.9217 56.0327C20.9339 56.1054 20.8829 56.1685 20.8102 56.1806C20.4804 56.2267 20.2137 56.4013 20.0149 56.6947C19.6366 57.2548 19.559 58.1956 19.8088 59.2092C20.1822 60.7295 22.6239 60.6956 22.6482 60.6956C22.7185 60.6956 22.7791 60.7513 22.7816 60.8217C22.7816 60.8944 22.7258 60.9526 22.6555 60.955C22.653 60.955 22.6385 60.955 22.6167 60.955H22.6118Z" fill="black"/>
<path d="M57.3661 63.5085C56.8423 63.5085 56.3113 63.4285 55.7803 63.2708C54.6455 62.9314 53.9544 62.3203 53.7289 61.4595C53.4403 60.3611 53.9059 58.8892 55.1134 57.0852C55.9573 55.8243 56.8884 54.8326 56.9878 54.7283C57.0678 54.6095 57.7177 53.6808 58.867 53.5571C59.8103 53.4553 60.8044 53.9233 61.8253 54.9514C62.5212 55.6521 62.897 56.5978 62.9067 57.6817C62.9164 58.6807 62.6109 59.75 62.0459 60.6933C61.4252 61.7287 60.5232 62.5604 59.5048 63.0356C58.8282 63.3509 58.1056 63.5109 57.3661 63.5109V63.5085ZM59.1192 53.802C59.044 53.802 58.9689 53.8069 58.8937 53.8141C57.8147 53.9305 57.206 54.8689 57.1988 54.8786C57.1939 54.8859 57.1891 54.8932 57.1818 54.898C57.143 54.9392 53.3336 58.9329 53.9786 61.3916C54.1799 62.1603 54.8103 62.7083 55.853 63.0211C57.0727 63.3872 58.2972 63.3096 59.3932 62.798C60.3656 62.3446 61.2264 61.5492 61.8204 60.5575C62.3612 59.6531 62.6546 58.6322 62.6449 57.6817C62.6352 56.6657 62.286 55.7831 61.6386 55.1308C60.7608 54.2458 59.9121 53.7996 59.1168 53.7996L59.1192 53.802Z" fill="black"/>
<path d="M60.9063 59.1679C60.8894 59.1679 60.8724 59.1654 60.8554 59.1582C60.7899 59.1291 60.7584 59.0539 60.7875 58.986C61.2119 58.0015 60.7948 56.4424 59.9752 55.9502C59.6139 55.7344 59.0805 55.7125 58.547 55.8944C58.0354 56.069 57.0873 56.583 56.5029 58.0767C56.4762 58.1446 56.4011 58.1761 56.3332 58.1495C56.2653 58.1228 56.2338 58.0476 56.2604 57.9797C56.8836 56.3891 57.9093 55.8362 58.4621 55.6471C59.0659 55.441 59.6818 55.4701 60.1062 55.7271C61.0373 56.2872 61.5004 57.9821 61.0227 59.0878C61.0009 59.1363 60.9524 59.1654 60.9039 59.1654L60.9063 59.1679Z" fill="black"/>
<path d="M56.1005 60.955C56.0787 60.955 56.0641 60.955 56.0617 60.955C55.989 60.955 55.9332 60.8944 55.9356 60.8216C55.9356 60.7489 55.9962 60.6907 56.069 60.6955C56.0932 60.6955 58.535 60.7319 58.9084 59.2091C59.1582 58.1956 59.0806 57.2547 58.7023 56.6946C58.5035 56.3988 58.2343 56.2266 57.907 56.1806C57.8367 56.1709 57.7857 56.1054 57.7954 56.0327C57.8051 55.9623 57.8706 55.9114 57.9434 55.9211C58.3434 55.9769 58.6805 56.1951 58.9181 56.5467C59.3376 57.1675 59.4273 58.1834 59.163 59.2698C58.986 59.9899 58.3895 60.5088 57.4366 60.7731C56.8231 60.9429 56.2581 60.955 56.1054 60.955H56.1005Z" fill="black"/>
<path d="M39.1025 70.2008C49.2628 70.2008 57.4994 61.9643 57.4994 51.8039C57.4994 41.6436 49.2628 33.407 39.1025 33.407C28.9422 33.407 20.7056 41.6436 20.7056 51.8039C20.7056 61.9643 28.9422 70.2008 39.1025 70.2008Z" fill="url(#paint2_linear_823_44423)" stroke="#FCC3B7" stroke-width="0.534026" stroke-miterlimit="10"/>
<path d="M43.3313 54.4735C43.3313 54.4735 43.0451 56.0569 43.3313 58.3992C43.6174 60.7416 44.6382 61.8958 46.321 61.8643C48.0039 61.8303 50.7414 61.7333 51.5998 60.3463C52.4582 58.9593 53.7773 53.2514 50.1474 51.3722C46.5175 49.4905 43.8696 51.2412 43.3288 54.4735H43.3313Z" fill="#F8F8F8"/>
<path d="M43.3315 54.042C43.7341 52.6187 44.6458 51.1274 46.0328 50.4921C46.6608 50.1939 47.3785 50.1357 48.0647 50.2109C48.5473 50.2618 49.0298 50.3709 49.4857 50.5431C51.1127 51.1517 52.2524 52.4659 52.6282 54.1609C52.6355 54.2021 52.6694 54.3306 52.6767 54.3742C52.6961 54.5076 52.7398 54.7428 52.7495 54.8762C52.8125 55.446 52.8004 56.0255 52.7398 56.5929C52.6258 57.575 52.3639 58.5449 52.0075 59.459C52.1917 58.637 52.3469 57.8175 52.4027 56.9833C52.5676 54.8883 52.0996 52.7327 50.2446 51.5154C49.5051 51.0232 48.6273 50.7468 47.7422 50.6716C47.2209 50.6231 46.685 50.6716 46.1952 50.8728C44.8495 51.4136 43.9183 52.7618 43.334 54.0445L43.3315 54.042Z" fill="black"/>
<path d="M46.159 61.3964C47.5531 61.3964 48.6832 59.3185 48.6832 56.7553C48.6832 54.1921 47.5531 52.1143 46.159 52.1143C44.7649 52.1143 43.6348 54.1921 43.6348 56.7553C43.6348 59.3185 44.7649 61.3964 46.159 61.3964Z" fill="#95680F"/>
<path d="M46.1592 61.5079C45.4439 61.5079 44.7746 61.006 44.2776 60.0918C43.7926 59.1995 43.5259 58.0162 43.5259 56.7577C43.5259 55.4993 43.7926 54.316 44.2776 53.4236C44.7746 52.5095 45.4415 52.0076 46.1592 52.0076C46.8769 52.0076 47.5438 52.5095 48.0408 53.4236C48.5258 54.316 48.7925 55.4993 48.7925 56.7577C48.7925 58.0162 48.5258 59.1995 48.0408 60.0918C47.5438 61.006 46.8769 61.5079 46.1592 61.5079ZM46.1592 52.2234C44.828 52.2234 43.7441 54.2578 43.7441 56.7553C43.7441 59.2529 44.828 61.2873 46.1592 61.2873C47.4904 61.2873 48.5743 59.2529 48.5743 56.7553C48.5743 54.2578 47.4904 52.2234 46.1592 52.2234Z" fill="black"/>
<path d="M46.159 58.6588C47.2284 58.6588 48.1643 57.747 48.676 56.3867C48.5741 53.9959 47.4854 52.1118 46.159 52.1118C44.8327 52.1118 43.7439 53.9935 43.6421 56.3867C44.1513 57.747 45.0873 58.6588 46.159 58.6588Z" fill="#0F0E10"/>
<path d="M44.7526 55.9965C45.366 55.9965 45.8632 55.4993 45.8632 54.8859C45.8632 54.2726 45.366 53.7754 44.7526 53.7754C44.1393 53.7754 43.6421 54.2726 43.6421 54.8859C43.6421 55.4993 44.1393 55.9965 44.7526 55.9965Z" fill="#F8F8F8"/>
<path d="M44.2891 47.267C44.9341 46.576 45.6251 45.931 46.3283 45.3005C46.5975 45.0605 46.8715 44.8204 47.1455 44.5852C47.2182 44.6434 47.5553 44.9053 47.6353 44.9683C48.5082 45.6642 49.3739 46.3796 50.174 47.1603C49.0877 46.4935 48.0523 45.7297 47.0436 44.9513L47.2643 44.9465C46.3065 45.7612 45.3293 46.559 44.2891 47.2695V47.267Z" fill="black"/>
<path d="M35.8777 54.4735C35.8777 54.4735 36.1638 56.0569 35.8777 58.3992C35.5915 60.7416 34.5707 61.8958 32.8879 61.8643C31.2051 61.8303 28.4675 61.7333 27.6091 60.3463C26.7507 58.9593 25.4316 53.2514 29.0616 51.3722C32.6915 49.4905 35.3394 51.2412 35.8801 54.4735H35.8777Z" fill="#F8F8F8"/>
<path d="M35.8778 54.0419C35.2934 52.7592 34.3647 51.4134 33.0165 50.8703C32.5267 50.669 31.9908 50.6205 31.4695 50.669C30.5844 50.7442 29.7067 51.0206 28.9671 51.5128C27.1146 52.7301 26.6466 54.8857 26.809 56.9808C26.8648 57.8125 27.02 58.632 27.2043 59.4565C26.8454 58.5423 26.5835 57.5724 26.472 56.5904C26.4114 56.023 26.3992 55.4434 26.4623 54.8736C26.472 54.7402 26.5156 54.505 26.535 54.3717C26.5472 54.3305 26.5714 54.2044 26.5835 54.1583C26.9594 52.4634 28.099 51.1467 29.7261 50.5405C30.1819 50.3683 30.6645 50.2592 31.147 50.2083C31.8332 50.1331 32.5485 50.1889 33.179 50.4896C34.566 51.1249 35.4753 52.6161 35.8802 54.0395L35.8778 54.0419Z" fill="black"/>
<path d="M33.0506 61.3964C34.4447 61.3964 35.5748 59.3185 35.5748 56.7553C35.5748 54.1921 34.4447 52.1143 33.0506 52.1143C31.6565 52.1143 30.5264 54.1921 30.5264 56.7553C30.5264 59.3185 31.6565 61.3964 33.0506 61.3964Z" fill="#95680F"/>
<path d="M33.0508 61.5079C32.3355 61.5079 31.6663 61.006 31.1692 60.0918C30.6842 59.1995 30.4175 58.0162 30.4175 56.7577C30.4175 55.4993 30.6842 54.316 31.1692 53.4236C31.6663 52.5095 32.3331 52.0076 33.0508 52.0076C33.7685 52.0076 34.4354 52.5095 34.9325 53.4236C35.4174 54.316 35.6841 55.4993 35.6841 56.7577C35.6841 58.0162 35.4174 59.1995 34.9325 60.0918C34.4354 61.006 33.7685 61.5079 33.0508 61.5079ZM33.0508 52.2234C31.7196 52.2234 30.6357 54.2578 30.6357 56.7553C30.6357 59.2529 31.7196 61.2873 33.0508 61.2873C34.382 61.2873 35.4659 59.2529 35.4659 56.7553C35.4659 54.2578 34.382 52.2234 33.0508 52.2234Z" fill="black"/>
<path d="M33.0506 58.6588C31.9813 58.6588 31.0453 57.747 30.5337 56.3867C30.6355 53.9959 31.7243 52.1118 33.0506 52.1118C34.377 52.1118 35.4657 53.9935 35.5676 56.3867C35.0584 57.747 34.1224 58.6588 33.0506 58.6588Z" fill="#0F0E10"/>
<path d="M31.4914 55.9965C32.1048 55.9965 32.602 55.4993 32.602 54.8859C32.602 54.2726 32.1048 53.7754 31.4914 53.7754C30.8781 53.7754 30.3809 54.2726 30.3809 54.8859C30.3809 55.4993 30.8781 55.9965 31.4914 55.9965Z" fill="#F8F8F8"/>
<path d="M34.9201 47.267C33.8799 46.5565 32.9027 45.7588 31.9449 44.9441L32.1656 44.9489C31.1569 45.7273 30.1215 46.4935 29.0352 47.1579C29.8353 46.3795 30.701 45.6618 31.5739 44.9659C31.6539 44.9028 31.9886 44.641 32.0637 44.5828C32.3377 44.818 32.6117 45.0556 32.8809 45.2981C33.5841 45.9285 34.2751 46.5735 34.9201 47.2646V47.267Z" fill="black"/>
<path d="M39.896 60.4822L40.655 61.2678L39.896 62.245V60.4822Z" fill="#0F0E10"/>
<path d="M20.4779 55.4459L3 29.3284L15.4562 37.2793L7.85929 14.3092L26.0598 27.0322C26.0598 27.0322 30.7421 8.61098 33.8337 3C33.8337 3 46.0256 15.9436 49.7355 24.8668L62.8997 8.43397L60.8556 35.3807L72 25.8392L57.798 54.9367C57.798 54.9367 56.3673 54.5148 55.1186 55.9963L55.6569 51.9081L52.6089 50.9212L56.3188 47.512L50.4581 46.9155L53.6079 42.1508L45.2787 43.4771L47.2331 39.1683L39.4762 44.8132L31.4938 39.2507L33.7561 43.8093L25.2669 42.2768L28.8459 46.8694L22.5754 47.4683L26.1374 51.0231L23.4944 52.6235L24.4522 56.2316C24.4522 56.2316 22.7184 53.7995 20.4828 55.4483L20.4779 55.4459Z" fill="#34612D"/>
<path d="M67.6184 31.7025L58.78 40.456C60.6325 30.3568 60.8556 14.2804 60.8556 14.2804C59.1219 16.0456 49.6918 28.7564 49.6918 28.7564C43.5474 16.8046 34.9224 8.55542 34.9224 8.55542C32.9074 10.6529 27.5753 30.5168 27.5753 30.5168L13.349 20.8249L19.1976 41.7145L10.5508 36.4357L21.7073 54.9054C23.3198 54.6484 24.4521 56.2342 24.4521 56.2342L23.4943 52.6261L26.1374 51.0257L22.5753 47.471L28.8459 46.872L25.2669 42.2795L33.7561 43.812L31.4937 39.2533L39.4762 44.8158L47.2331 39.1709L45.2787 43.4798L53.6079 42.1534L50.4581 46.9181L56.3188 47.5146L52.6089 50.9239L55.6568 51.9108L55.1185 55.999C55.4895 55.5577 55.8775 55.2861 56.2412 55.1212L67.6208 31.705L67.6184 31.7025Z" fill="#121212"/>
<defs>
<linearGradient id="paint0_linear_823_44423" x1="15.8782" y1="58.5496" x2="25.0488" y2="58.5496" gradientUnits="userSpaceOnUse">
<stop stop-color="#FCE9DA"/>
<stop offset="1" stop-color="#E7B7A9"/>
</linearGradient>
<linearGradient id="paint1_linear_823_44423" x1="62.8144" y1="58.5499" x2="53.7262" y2="58.5499" gradientUnits="userSpaceOnUse">
<stop stop-color="#FCE9DA"/>
<stop offset="1" stop-color="#E7B7A9"/>
</linearGradient>
<linearGradient id="paint2_linear_823_44423" x1="39.1025" y1="45.5625" x2="39.1025" y2="82.3564" gradientUnits="userSpaceOnUse">
<stop stop-color="#FCE9DA"/>
<stop offset="1" stop-color="#E7B7A9"/>
</linearGradient>
</defs>
</svg>
