<svg width="136" height="133" viewBox="0 0 136 133" fill="none" xmlns="http://www.w3.org/2000/svg">
<path d="M94.689 127.918L94.5515 127.624C94.5373 127.591 93.1011 124.562 91.7881 121.178C88.7213 120.656 86.413 120.059 84.9341 119.405C84.3558 119.149 83.095 118.845 80.4027 118.845C74.0179 118.845 64.4194 120.538 61.3337 121.87C60.2293 122.348 58.4233 122.59 55.9728 122.59C52.8681 122.59 48.9244 122.192 45.3031 121.514C45.2272 121.708 45.1466 121.903 45.0708 122.097C44.9239 122.462 44.7769 122.822 44.6347 123.173L44.1797 124.263L43.8479 125.05C43.5256 125.809 43.2317 126.477 42.9947 127.017L42.8762 127.278C42.5444 128.022 42.3406 128.463 42.3406 128.463L42.0182 129.164L32.5999 123.851L32.8037 123.287C32.8132 123.263 33.6522 120.945 34.3869 118.163C32.6046 118.315 30.3484 119.002 28.3292 119.618C26.3099 120.234 24.5704 120.765 23.3948 120.765C20.001 120.765 16.9864 114.826 16.6546 114.148L16.4128 113.66L22.9208 107.996L23.0156 98.0891L17.868 103.265L17.3514 103.787C15.7445 105.412 14.5974 106.588 13.9338 107.28C12.4076 108.882 12.8768 115.091 13.5309 118.627L13.7916 120.045L7.78133 116.983L7.72919 117.931L2.12653 113.205L2.06491 113.001C2.05069 112.958 1.74259 111.916 1.53877 110.389C1.46293 109.821 1.41553 109.257 1.38709 108.707C1.37287 108.403 1.36813 108.095 1.37287 107.778C1.37761 107.1 1.42975 106.441 1.51981 105.82C1.80421 103.881 2.49151 102.27 3.56748 101.028L5.46348 98.8854L7.44953 96.6386L8.21741 95.7618L8.96633 94.8991C16.465 86.2391 20.5461 80.2904 21.096 77.2142C21.4278 75.3751 21.7832 71.5215 22.1956 67.0564C23.1673 56.5668 24.4993 42.1952 26.9783 35.5165C30.9741 24.7662 35.5103 14.1202 43.1179 12.1437C44.1939 10.5036 50.4554 2.31292 67.9555 2.31292C68.9319 2.31292 69.9415 2.34137 70.9559 2.39351C83.6401 3.04289 96.5376 5.63091 105.145 19.8698L106.169 18.8981L107.217 1.32227L119.602 8.02461L114.085 22.965L121.579 12.5987L125.532 25.7948L113.602 33.5684L110.563 32.2222C111.886 36.4219 113 41.1903 113.872 46.428C113.962 46.9541 116.052 59.4061 115.834 66.0183C115.63 72.2277 118.46 76.4605 120.735 79.8591L120.925 80.1435C122.105 81.9115 125.812 88.7418 129.243 95.7143L129.874 97.0036L130.471 98.2455L129.85 98.5963L130.49 98.2882L131.139 99.658L131.685 100.829L132.234 102.033L132.751 103.194L133.23 104.303L133.377 104.649L132.751 104.99L133.405 104.716L133.671 105.36L133.87 105.858L134.239 106.811L134.405 107.256L134.694 108.086L134.818 108.465L134.865 108.631L134.206 108.91L134.889 108.707L135.017 109.166L135.093 109.493L135.15 109.783L135.168 109.911L134.476 110.086L135.178 109.977L135.192 110.062L135.202 110.176L134.5 110.304L135.206 110.242V110.328C135.216 110.385 135.216 110.427 135.211 110.475C135.211 110.527 135.211 110.56 135.211 110.588C135.211 110.65 135.202 110.697 135.192 110.745C135.187 110.792 135.178 110.835 135.168 110.868C135.15 110.953 135.116 111.048 135.074 111.134C133.979 113.323 127.272 122.969 126.987 123.377L126.826 123.609L120.28 124.989L120.783 124.434C120.313 124.453 119.882 124.462 119.484 124.462C117.934 124.462 116.28 124.363 116.28 123.202C116.28 122.661 116.749 121.841 118.588 118.845C120.621 115.532 123.413 110.991 124.044 108.261C124.432 106.583 122.892 103.924 119.716 100.767C119.593 100.644 119.289 100.35 119.289 100.35C119.176 100.241 118.906 99.9851 118.906 99.9851L118.46 99.568L118.057 99.203L117.673 98.8664L117.299 98.5441L116.943 98.2455L116.389 97.7857C116.389 97.8616 116.389 97.9327 116.389 98.0038C116.389 98.1223 116.398 98.236 116.403 98.3545L116.422 98.7669C116.431 98.9186 116.441 99.0703 116.455 99.2219L116.479 99.4969C116.493 99.6628 116.512 99.8239 116.531 99.9898L116.555 100.179C116.578 100.36 116.602 100.535 116.63 100.706L116.649 100.824C116.683 101.018 116.711 101.203 116.749 101.383L116.763 101.445C116.801 101.639 116.844 101.834 116.886 102.023C118.095 107.233 121.143 109.588 121.176 109.607L121.83 110.1L121.257 110.678C121.204 110.735 115.801 116.144 114.687 118.149C114.407 118.651 113.677 119.969 103.847 121.377C104.254 122.453 104.615 123.429 104.932 124.306C105.477 125.813 105.956 127.207 106.359 128.453C106.724 129.577 106.88 130.141 106.89 130.165L107.231 131.378L94.6748 127.904L94.689 127.918ZM112.052 25.7948L113.426 23.8941L109.07 25.1312L112.052 25.7948Z" fill="#140105"/>
<path d="M107.871 2.47913L118.731 8.35671L113.251 23.2023L107.042 24.9656C107.118 25.1268 107.189 25.2879 107.26 25.4538L112.351 26.5914L121.319 14.1869L124.708 25.4965L113.55 32.7676L109.402 30.9285C110.919 35.3983 112.185 40.5697 113.185 46.5515C113.185 46.5515 115.356 59.3874 115.138 66.0044C114.92 72.6214 117.958 76.9727 120.347 80.5514C121.532 82.3242 125.276 89.2446 128.618 96.0417C128.618 96.0417 128.618 96.0465 128.623 96.0512C128.722 96.2598 128.827 96.4636 128.926 96.6721C128.926 96.6816 128.936 96.6863 128.936 96.6958C129.04 96.9044 129.14 97.1177 129.244 97.3262C129.244 97.3262 129.244 97.3357 129.249 97.3357C129.348 97.5443 129.448 97.7481 129.547 97.9519C129.552 97.9614 129.557 97.9709 129.561 97.9804C129.656 98.1747 129.746 98.369 129.841 98.5634C129.851 98.5871 129.865 98.606 129.874 98.6297C129.969 98.8288 130.064 99.0232 130.154 99.2175C130.159 99.2317 130.168 99.2412 130.173 99.2554C130.263 99.445 130.353 99.6299 130.438 99.8195C130.448 99.8432 130.462 99.8669 130.472 99.8953C130.557 100.075 130.642 100.256 130.723 100.436C130.737 100.464 130.751 100.493 130.761 100.521C130.841 100.692 130.922 100.862 130.998 101.033C131.012 101.066 131.031 101.104 131.045 101.137C131.121 101.303 131.197 101.469 131.273 101.63C131.292 101.668 131.306 101.701 131.325 101.739C131.396 101.9 131.472 102.057 131.543 102.213C131.562 102.256 131.581 102.294 131.6 102.336C131.666 102.488 131.737 102.64 131.803 102.787C131.822 102.829 131.841 102.877 131.865 102.919C131.931 103.066 131.993 103.209 132.055 103.351C132.074 103.398 132.097 103.446 132.116 103.488C132.178 103.626 132.24 103.768 132.296 103.905C132.315 103.953 132.339 104 132.358 104.048C132.415 104.18 132.472 104.308 132.524 104.441C132.548 104.493 132.567 104.545 132.59 104.593C132.642 104.716 132.695 104.839 132.747 104.962C132.77 105.014 132.794 105.071 132.813 105.124C132.86 105.237 132.908 105.351 132.955 105.465C132.979 105.522 133.003 105.579 133.026 105.635C133.069 105.744 133.116 105.854 133.159 105.963C133.183 106.019 133.206 106.076 133.225 106.133C133.268 106.237 133.306 106.342 133.349 106.446C133.372 106.503 133.391 106.555 133.415 106.612C133.453 106.707 133.486 106.801 133.524 106.896C133.548 106.953 133.571 107.015 133.59 107.072C133.624 107.162 133.657 107.247 133.69 107.337C133.709 107.394 133.733 107.456 133.752 107.508C133.785 107.593 133.813 107.678 133.842 107.764C133.861 107.816 133.88 107.873 133.898 107.925C133.927 108.005 133.951 108.086 133.979 108.162C133.998 108.214 134.017 108.266 134.031 108.318C134.055 108.394 134.079 108.465 134.102 108.536C134.117 108.588 134.135 108.641 134.15 108.688C134.169 108.754 134.188 108.821 134.211 108.887C134.226 108.934 134.24 108.987 134.254 109.034C134.273 109.096 134.287 109.157 134.301 109.214C134.316 109.262 134.33 109.309 134.339 109.352C134.354 109.408 134.368 109.465 134.377 109.518C134.387 109.56 134.401 109.603 134.406 109.645C134.42 109.702 134.425 109.75 134.439 109.802C134.448 109.84 134.453 109.878 134.463 109.916C134.472 109.963 134.477 110.006 134.482 110.048C134.486 110.082 134.491 110.119 134.496 110.153C134.5 110.195 134.5 110.233 134.505 110.271C134.505 110.304 134.51 110.338 134.515 110.366C134.515 110.404 134.515 110.437 134.515 110.47C134.515 110.494 134.515 110.522 134.515 110.546C134.515 110.584 134.505 110.612 134.5 110.646C134.5 110.66 134.5 110.679 134.496 110.698C134.486 110.74 134.472 110.783 134.453 110.816C133.368 112.987 126.419 122.974 126.419 122.974L122.295 123.842C122.295 123.842 122.371 123.761 122.499 123.614C121.622 123.685 120.499 123.752 119.503 123.752C118.143 123.752 117.01 123.624 117.01 123.202C117.01 122.145 123.698 112.997 124.755 108.418C125.314 106.005 122.764 102.772 120.238 100.26C120.11 100.137 119.987 100.014 119.859 99.8906C119.84 99.8716 119.821 99.8527 119.807 99.8384C119.688 99.7247 119.57 99.6109 119.451 99.5019C119.427 99.4782 119.404 99.4545 119.38 99.4308C119.266 99.3218 119.152 99.2175 119.039 99.1132C119.015 99.0895 118.987 99.0658 118.963 99.0421C118.849 98.9378 118.74 98.8383 118.631 98.7435C118.607 98.7198 118.579 98.6961 118.555 98.6724C118.451 98.5776 118.347 98.4828 118.242 98.3927C118.214 98.369 118.185 98.3453 118.162 98.3216C118.057 98.2316 117.958 98.1463 117.858 98.0609C117.835 98.042 117.811 98.0183 117.787 97.9993C117.692 97.9187 117.598 97.8382 117.503 97.7576C117.474 97.7339 117.451 97.7149 117.422 97.6912C117.332 97.6154 117.247 97.5443 117.162 97.4732C117.138 97.4542 117.114 97.4353 117.095 97.4163C117.01 97.3452 116.929 97.2789 116.854 97.2172C116.83 97.1983 116.811 97.184 116.787 97.1651C116.711 97.1035 116.64 97.0466 116.574 96.9944C116.555 96.9755 116.531 96.9613 116.512 96.9471C116.446 96.8949 116.384 96.8428 116.323 96.7954C116.308 96.7859 116.294 96.7764 116.28 96.7622C116.223 96.7148 116.166 96.6721 116.114 96.6295C116.1 96.62 116.086 96.6105 116.071 96.5963C116.029 96.5631 115.981 96.5299 115.948 96.5015C115.934 96.492 115.924 96.4825 115.91 96.4731C115.787 96.3783 115.716 96.3261 115.716 96.3261C115.702 96.62 115.692 96.9044 115.692 97.1841C115.692 97.2978 115.692 97.4068 115.692 97.5159C115.692 97.6818 115.692 97.8429 115.692 98.0041C115.692 98.1463 115.702 98.2837 115.706 98.4212C115.711 98.5444 115.716 98.6677 115.721 98.7909C115.73 98.9473 115.744 99.1038 115.754 99.2602C115.763 99.355 115.768 99.4498 115.778 99.5398C115.792 99.7105 115.811 99.8811 115.834 100.052C115.844 100.118 115.849 100.184 115.858 100.251C115.882 100.436 115.91 100.616 115.934 100.796C115.939 100.839 115.948 100.881 115.953 100.924C115.986 101.118 116.019 101.313 116.057 101.502C116.057 101.521 116.067 101.545 116.071 101.564C116.114 101.768 116.157 101.971 116.199 102.166C117.489 107.726 120.755 110.162 120.755 110.162C120.755 110.162 115.242 115.675 114.066 117.789C113.322 119.13 107.236 120.187 102.89 120.78C102.975 121.031 103.055 121.287 103.155 121.543C103.572 122.643 103.942 123.638 104.264 124.534C104.909 126.321 105.373 127.695 105.686 128.658C106.051 129.781 106.208 130.34 106.208 130.34L95.1776 127.288C95.1776 127.288 93.6466 124.064 92.2909 120.51C89.7313 120.088 86.9584 119.495 85.2046 118.723C84.214 118.286 82.4886 118.102 80.3888 118.102C74.0467 118.102 64.3013 119.775 61.0402 121.187C59.969 121.652 58.1441 121.851 55.9589 121.851C52.6078 121.851 48.4176 121.382 44.8437 120.68C44.8437 120.69 44.8389 120.699 44.8342 120.704C44.7868 120.827 44.7394 120.946 44.692 121.069C44.5924 121.315 44.4976 121.562 44.3981 121.804C44.2512 122.169 44.1042 122.524 43.962 122.875C43.8909 123.045 43.8246 123.211 43.7535 123.377C43.6729 123.576 43.5876 123.771 43.507 123.965C43.3932 124.235 43.2842 124.496 43.1752 124.747C42.8529 125.501 42.5637 126.164 42.322 126.705C42.2841 126.795 42.2461 126.88 42.2082 126.961C41.8764 127.7 41.6773 128.136 41.6773 128.136L33.4535 123.496C33.4535 123.496 34.4915 120.638 35.2878 117.391C35.2073 117.391 35.1267 117.391 35.0461 117.391C31.4674 117.391 25.751 120.021 23.3763 120.021C20.3237 120.021 17.2759 113.802 17.2759 113.802L23.6085 108.29L23.727 96.3261C23.727 96.3261 23.2198 96.8333 22.433 97.6201C22.3572 97.696 22.2766 97.7765 22.2007 97.8571C22.1628 97.895 22.1202 97.9377 22.0775 97.9804C22.0064 98.0515 21.9353 98.1226 21.8642 98.1937C21.5893 98.4686 21.2954 98.7672 20.9778 99.08C20.9399 99.118 20.902 99.1559 20.8593 99.1985C20.7219 99.3408 20.5797 99.4829 20.4327 99.6299C20.4043 99.6583 20.3759 99.6868 20.3474 99.7152C20.1863 99.8764 20.0251 100.038 19.8592 100.203C19.7928 100.27 19.7265 100.341 19.6554 100.407C19.5369 100.526 19.4184 100.649 19.2951 100.767C19.243 100.82 19.1956 100.867 19.1435 100.919C18.9776 101.085 18.8164 101.251 18.6505 101.417C18.6315 101.436 18.6173 101.45 18.5984 101.469C18.4135 101.654 18.2334 101.839 18.0485 102.024C18.0011 102.071 17.9585 102.114 17.9111 102.161C17.7831 102.294 17.6504 102.422 17.5224 102.554C17.4608 102.616 17.3944 102.682 17.3328 102.744C17.1574 102.919 16.9868 103.095 16.8161 103.265C15.4036 104.697 14.1238 106 13.3891 106.768C11.0428 109.233 12.8014 118.737 12.8014 118.737L7.10863 115.836C7.08493 116.225 7.07545 116.452 7.07545 116.452L5.17946 114.855L2.71941 112.779C2.71941 112.779 2.41131 111.764 2.21697 110.281C2.15061 109.788 2.09847 109.238 2.07477 108.66C2.06055 108.37 2.05581 108.072 2.06055 107.768C2.06529 107.162 2.10795 106.536 2.19801 105.906C2.43027 104.332 2.97537 102.754 4.07978 101.478C4.20776 101.332 4.34996 101.17 4.4969 101C4.54904 100.938 4.60592 100.872 4.6628 100.81C4.76708 100.692 4.8761 100.568 4.9946 100.436C5.06096 100.36 5.13206 100.279 5.20316 100.199C5.32166 100.061 5.44964 99.919 5.57762 99.7768C6.0137 99.2839 6.49717 98.7435 7.01383 98.1557C7.06597 98.0941 7.12285 98.0325 7.17973 97.9709C7.35985 97.7718 7.53997 97.5632 7.72483 97.3547C7.80067 97.2694 7.87651 97.1793 7.95709 97.094C8.13721 96.8854 8.32681 96.6721 8.51167 96.4588C8.58277 96.3782 8.65387 96.2977 8.72497 96.2171C8.97145 95.9327 9.22267 95.6436 9.47863 95.3497C14.5694 89.4674 21.0205 81.5042 21.7741 77.3235C22.8643 71.2658 24.0873 45.2717 27.628 35.7491C31.1688 26.2217 35.795 14.5187 43.5496 12.7507C43.5496 12.7507 49.0954 3.01001 67.9369 3.01001C68.8896 3.01001 69.8803 3.03371 70.9041 3.08585C85.4606 3.83477 97.1636 7.4419 104.97 20.984L106.843 19.2018L107.838 2.46491M106.582 0.166016L106.449 2.39381L105.487 18.5714L105.302 18.7468C101.605 12.9024 96.9456 8.70747 91.1059 5.96302C85.8019 3.46979 79.4171 2.10941 71.0084 1.67807C69.9845 1.62593 68.9607 1.5975 67.9701 1.5975C50.8634 1.5975 44.2085 9.36159 42.6917 11.5183C34.9086 13.7461 30.3393 24.4537 26.3245 35.2609C23.8123 42.0248 22.4757 56.4486 21.4992 66.9809C21.0869 71.4317 20.7314 75.2711 20.4043 77.0818C19.8734 80.03 15.8492 85.865 8.43583 94.4301C8.17987 94.724 7.93339 95.0131 7.68691 95.2928L7.49731 95.5108L7.47835 95.5345L6.92377 96.1697L6.69625 96.4304L6.15116 97.0466L5.99 97.2314C5.5397 97.7386 5.12258 98.2126 4.7339 98.6487L4.55378 98.8478L4.1888 99.2602L4.03712 99.4308L3.97076 99.5066L3.63896 99.8811L3.57734 99.9522L3.46832 100.075C3.31664 100.246 3.17444 100.412 3.04173 100.564C1.87569 101.91 1.13151 103.645 0.823412 105.716C0.728612 106.365 0.676472 107.057 0.666992 107.768C0.666992 108.081 0.666992 108.408 0.685952 108.735C0.709652 109.304 0.761792 109.892 0.842372 110.48C1.05093 112.058 1.37799 113.158 1.39221 113.2L1.51545 113.603L1.83777 113.874L4.29782 115.95L6.19382 117.547L8.36947 119.381L8.44057 118.102L12.1946 120.017L14.7637 121.325L14.2423 118.49C13.4602 114.262 13.3228 108.958 14.4604 107.764C15.105 107.086 16.2521 105.915 17.8684 104.28L18.3851 103.758L18.4751 103.664L18.5699 103.569L18.6884 103.45L18.9586 103.18L19.0771 103.057L19.6412 102.488L19.6696 102.46L19.6933 102.436L20.1863 101.938L20.2763 101.848L20.3379 101.787L20.6887 101.431L20.8973 101.223L21.3855 100.734L21.4566 100.663L21.6414 100.478L21.9021 100.218L21.959 100.161L22.0159 100.099L22.3003 99.8147L22.2244 107.655L16.3706 112.75L15.5458 113.466L16.0293 114.447C16.6028 115.618 19.6601 121.462 23.4047 121.462C24.6845 121.462 26.4715 120.917 28.5428 120.287C30.1497 119.799 31.9082 119.263 33.425 118.997C32.7804 121.268 32.15 123.012 32.1452 123.031L31.7329 124.164L32.7804 124.757L41.0043 129.397L42.3457 130.155L42.9951 128.757C42.9951 128.757 43.1989 128.312 43.5354 127.563L43.6492 127.302C43.8909 126.762 44.1848 126.088 44.5071 125.325C44.6161 125.074 44.7252 124.809 44.8437 124.538C44.9242 124.344 45.0096 124.145 45.0901 123.946L45.2987 123.439C45.4456 123.088 45.5926 122.728 45.7395 122.358C45.7443 122.344 45.749 122.33 45.7585 122.315C49.2566 122.936 53.0012 123.297 55.9826 123.297C58.5327 123.297 60.4335 123.036 61.6279 122.519C64.6521 121.211 74.1036 119.552 80.4125 119.552C83.119 119.552 84.2329 119.865 84.6548 120.054C86.1242 120.704 88.3472 121.292 91.2813 121.808C92.5564 125.055 93.8598 127.804 93.9167 127.932L94.1964 128.52L94.8221 128.695L105.852 131.748L108.279 132.421L107.601 129.994C107.596 129.971 107.43 129.392 107.065 128.255C106.663 127.008 106.179 125.605 105.629 124.083C105.383 123.401 105.122 122.695 104.852 121.969C114.199 120.557 114.962 119.187 115.337 118.509C116.218 116.921 120.29 112.693 121.788 111.2L122.542 110.447C121.39 113.001 119.437 116.182 118.02 118.486C116 121.77 115.607 122.477 115.607 123.216C115.607 125.031 117.844 125.174 119.19 125.188L118.318 126.15L122.608 125.249L126.732 124.382L127.281 124.264L127.604 123.799C127.888 123.387 134.624 113.703 135.742 111.466C135.809 111.333 135.861 111.186 135.899 111.03C135.908 110.982 135.918 110.925 135.927 110.868C135.937 110.797 135.946 110.736 135.951 110.66C135.951 110.608 135.951 110.556 135.951 110.503C135.951 110.442 135.951 110.385 135.951 110.323C135.951 110.281 135.946 110.233 135.941 110.186V110.153C135.937 110.105 135.932 110.053 135.927 110.001C135.927 109.963 135.918 109.92 135.908 109.882V109.859V109.83C135.899 109.783 135.889 109.736 135.88 109.683C135.875 109.65 135.866 109.612 135.856 109.574V109.546L135.847 109.518C135.837 109.465 135.828 109.413 135.813 109.356L135.785 109.243L135.776 109.205L135.766 109.157C135.757 109.11 135.742 109.062 135.733 109.01L135.7 108.892L135.69 108.849L135.681 108.807C135.667 108.754 135.652 108.702 135.638 108.645L135.605 108.532L135.591 108.484L135.581 108.446C135.562 108.385 135.548 108.328 135.529 108.266L135.496 108.162L135.477 108.11L135.463 108.062L135.401 107.877L135.363 107.759L135.349 107.712L135.33 107.655L135.264 107.46L135.221 107.347L135.202 107.29L135.188 107.242L135.107 107.024L135.065 106.906L135.041 106.844L135.022 106.797L134.937 106.574L134.889 106.451L134.865 106.389L134.752 106.095L134.704 105.977L134.685 105.925L134.557 105.607L134.51 105.493L134.486 105.432L134.477 105.403L134.354 105.1L134.311 105L134.282 104.929L134.268 104.891L134.14 104.578L134.093 104.46L134.074 104.413L133.917 104.038L133.87 103.924L133.851 103.882L133.68 103.488L133.643 103.398L133.619 103.341L133.434 102.919L133.391 102.82L133.372 102.777L133.178 102.341L133.145 102.27L133.116 102.208L132.913 101.753L132.875 101.673L132.856 101.63L132.638 101.151L132.604 101.08L132.586 101.038L132.358 100.54L132.339 100.502L132.306 100.436L132.064 99.919L132.026 99.8384L131.77 99.2934L131.756 99.2602L131.737 99.2175L131.472 98.6534L131.453 98.6155L131.173 98.023L131.159 97.9899L131.14 97.9567L130.86 97.3736L130.841 97.3405L130.543 96.7243V96.7148L130.533 96.7053L130.225 96.0796L130.216 96.0559L129.912 95.435C126.461 88.4246 122.736 81.5611 121.541 79.7741L121.352 79.4897C119.02 76.0011 116.375 72.0479 116.574 66.066C116.792 59.3874 114.692 46.8596 114.602 46.3335C113.825 41.6741 112.862 37.3796 111.725 33.526L112.99 34.0854L113.697 34.3982L114.341 33.9763L125.499 26.7052L126.39 26.1222L126.087 25.1031L122.698 13.7935L121.873 11.0348L120.186 13.3716L116.579 18.3628L120.086 8.86864L120.513 7.71208L119.427 7.12433L108.568 1.24673L106.606 0.18498L106.582 0.166016ZM122.76 109.901L121.617 109.048C121.617 109.048 118.74 106.797 117.598 101.872C117.555 101.692 117.517 101.502 117.479 101.313V101.289V101.26C117.437 101.08 117.408 100.905 117.375 100.725L117.356 100.606C117.328 100.44 117.304 100.27 117.285 100.099L117.271 99.9664V99.9143C117.247 99.7579 117.228 99.6015 117.214 99.4403C117.214 99.4261 117.214 99.4118 117.214 99.4024C117.219 99.4024 117.223 99.4118 117.228 99.4166L117.28 99.464L117.309 99.4877C117.408 99.573 117.508 99.6631 117.612 99.7579L117.659 99.8005L117.683 99.8242C117.792 99.919 117.896 100.019 118.005 100.118L118.043 100.156L118.076 100.184C118.185 100.284 118.294 100.388 118.408 100.493L118.441 100.521L118.484 100.559C118.598 100.663 118.712 100.772 118.825 100.881L118.849 100.9L118.877 100.929C119.001 101.047 119.119 101.166 119.242 101.284C123.433 105.451 123.532 107.446 123.376 108.114C123.253 108.641 123.044 109.247 122.764 109.906L122.76 109.901Z" fill="white"/>
<path d="M115.721 96.3497C115.721 96.3497 125.812 103.858 124.755 108.432C123.698 113.006 117.01 122.159 117.01 123.216C117.01 124.273 124.058 123.486 124.058 123.486L130.505 115.708L132.851 110.058L126.163 95.179L115.721 77.1101L111.147 56.3443L109.502 41.5602L104.459 42.2665L107.393 65.7294L95.0734 72.1806L35.4776 65.2602L39.1131 30.9521L31.4865 34.0521L25.6184 60.4491L24.3291 79.8072L8.84358 100.573L5.20801 108.2V114.874L12.8346 118.76C12.8346 118.76 11.0761 109.257 13.4224 106.792C15.7687 104.327 23.7461 96.3497 23.7461 96.3497L23.6276 108.318L17.2902 113.831C17.2902 113.831 20.3428 120.05 23.3906 120.05C26.4384 120.05 35.0036 115.708 37.4684 118.173C39.9331 120.637 56.708 123.102 61.0498 121.225C65.3916 119.348 81.2279 117.002 85.219 118.76C89.21 120.519 98.4767 121.344 98.4767 121.344C98.4767 121.344 112.905 119.936 114.081 117.822C115.256 115.708 120.769 110.195 120.769 110.195C120.769 110.195 115.256 106.09 115.726 96.3497H115.721Z" fill="#85403B"/>
<path d="M29.5239 102.209L37.1743 105.608L47.46 102.209L54.9777 105.608L65.126 102.209L74.0277 103.911L80.2039 102.916L87.456 105.897L92.2671 102.916L98.249 106.741L110.26 102.916L113.972 104.475L116.214 102.195L96.1966 89.0938L50.3941 94.2461L43.559 90.8144L29.5239 102.209Z" fill="#140D14"/>
<path d="M12.7207 98.8286L16.8397 103.294C19.9634 100.132 23.7459 96.3496 23.7459 96.3496L23.6653 104.758L34.0885 102.862L42.2129 101.383L47.7871 100.369L90.9968 100.042L94.7888 101.208L103.97 104.038L109.061 105.607L116.209 102.194C115.82 100.53 115.612 98.5869 115.721 96.3449C115.721 96.3449 117.972 98.0228 120.238 100.27L125.286 97.8617L127.002 97.0416L126.163 95.1741L115.721 77.1053L111.146 56.3394L109.502 41.5554L104.458 42.2616L107.392 65.7246L95.0732 72.1757L35.4774 65.2553L39.1129 30.9473L31.4863 34.0472L25.6182 60.4442L24.3289 79.8023L11.2939 97.2834L12.7159 98.8239L12.7207 98.8286Z" fill="#140D14"/>
<path d="M41.734 32.4401C41.734 32.4401 45.635 26.9038 50.7922 26.1501C50.7922 26.1501 50.9201 25.3965 49.1569 25.3965C49.1569 25.3965 52.1762 24.2636 53.6835 24.7661C53.6835 24.7661 56.2005 20.8651 59.0919 20.8651C59.0919 20.8651 57.959 21.3675 57.8358 23.1308C57.8358 23.1308 64.5049 19.7322 73.563 20.8651C73.563 20.8651 71.7998 20.8651 70.2925 22.2491C70.2925 22.2491 83.5028 23.0265 88.2807 26.5388C88.2807 26.5388 86.8966 25.7946 85.7638 26.5388C85.7638 26.5388 94.6939 30.8048 95.4523 32.4401C95.4523 32.4401 99.1021 47.9114 99.1021 50.6796C99.1021 53.4477 101.368 36.2131 101.368 36.2131L97.5948 22.1211L86.9014 12.6838L74.9708 6.83469L57.1153 6.04785L39.0654 21.1068C39.0654 21.1068 41.2363 25.1358 41.7388 32.4354L41.734 32.4401Z" fill="#140D14"/>
<path d="M68.9086 90.0457C88.77 90.0457 104.871 73.9448 104.871 54.0834C104.871 34.222 88.77 18.1211 68.9086 18.1211C49.0471 18.1211 32.9463 34.222 32.9463 54.0834C32.9463 73.9448 49.0471 90.0457 68.9086 90.0457Z" fill="url(#paint0_linear_714_2964)" stroke="#FCC3B7" stroke-width="2" stroke-miterlimit="10"/>
<path d="M41.734 32.4401C41.734 32.4401 45.635 26.9038 50.7922 26.1501C50.7922 26.1501 50.9201 25.3965 49.1569 25.3965C49.1569 25.3965 52.1762 24.2636 53.6835 24.7661C53.6835 24.7661 56.2005 20.8651 59.0919 20.8651C59.0919 20.8651 57.959 21.3675 57.8358 23.1308C57.8358 23.1308 64.5049 19.7322 73.563 20.8651C73.563 20.8651 71.7998 20.8651 70.2925 22.2491C70.2925 22.2491 83.5028 23.0265 88.2807 26.5388C88.2807 26.5388 86.8966 25.7946 85.7638 26.5388C85.7638 26.5388 94.6939 30.8048 95.4523 32.4401C95.4523 32.4401 99.1021 47.9114 99.1021 50.6796C99.1021 53.4477 101.368 36.2131 101.368 36.2131L97.5948 22.1211L86.9014 12.6838L74.9708 6.83469L57.1153 6.04785L39.0654 21.1068C39.0654 21.1068 41.2363 25.1358 41.7388 32.4354L41.734 32.4401Z" fill="#140D14"/>
<path d="M43.1186 19.2309C43.1186 19.2309 47.0196 18.7285 49.2805 23.2551C49.2805 23.2551 42.6588 26.5257 41.6918 35.835C40.7249 45.1444 37.5823 52.0648 35.947 82.2537C35.947 82.2537 41.9857 101.124 43.2418 104.271C44.4979 107.418 47.7685 112.575 46.01 117.605C44.2467 122.638 41.6918 128.16 41.6918 128.16L33.468 123.52C33.468 123.52 36.9234 114.016 36.0607 109.987C35.198 105.954 26.9742 81.2204 28.3345 70.0625C29.6949 58.9046 29.9698 43.6608 33.3684 36.7214C33.3684 36.7214 28.3345 46.6564 26.9742 70.8825C26.9742 70.8825 27.3818 83.6757 23.3007 88.5721C19.2196 93.4686 7.92417 102.318 7.78671 104.631C7.64925 106.944 7.10415 116.472 7.10415 116.472L2.74811 112.798C2.74811 112.798 0.572452 105.584 4.10848 101.503C7.64451 97.4217 20.7127 83.4008 21.7981 77.3478C22.8836 71.2949 24.1112 45.2961 27.652 35.7734C31.188 26.2461 35.819 14.543 43.5736 12.775C43.5736 12.775 49.6977 2.02474 70.9281 3.1102C92.1585 4.19565 107.312 11.3767 113.176 46.5569C113.176 46.5569 115.346 59.3928 115.128 66.0098C114.91 72.6268 117.949 76.9781 120.338 80.5568C122.727 84.1308 135.534 108.665 134.449 110.836C133.363 113.007 126.414 122.994 126.414 122.994L122.291 123.861C122.291 123.861 128.585 116.913 130.107 114.31C131.628 111.708 132.496 108.665 128.585 102.806C124.679 96.9429 111 77.2625 110.132 69.5174C109.265 61.7723 107.094 45.0591 107.094 45.0591C107.094 45.0591 108.284 60.4071 108.601 64.6874C108.919 68.9676 111.095 83.0264 110.388 86.3491C109.682 89.6718 103.16 105.276 102.691 108.091C102.221 110.907 100.932 115.718 103.16 121.581C105.388 127.449 106.213 130.379 106.213 130.379L95.1826 127.326C95.1826 127.326 89.433 115.244 90.3715 112.073C91.31 108.902 97.0596 96.1182 98.4674 92.5964C99.8752 89.0746 103.041 81.2157 102.809 78.6371C102.577 76.0586 98.2351 57.9708 98.1166 50.9841C97.9981 43.9973 98.7992 26.6632 98.7992 26.6632C98.7992 26.6632 87.4422 18.572 77.5877 17.6335C77.5877 17.6335 81.6926 16.2257 88.4992 18.6905C88.4992 18.6905 65.624 6.2528 52.8355 23.3831C52.8355 23.3831 44.2704 8.12984 70.1981 7.54682C70.1981 7.54682 51.1908 4.61277 47.7922 18.6905C47.7922 18.6905 45.2421 18.2544 43.1138 19.2356L43.1186 19.2309Z" fill="#332F2E"/>
<path d="M102.69 23.2017L106.871 19.2154L107.871 2.47852L118.731 8.3561L113.251 23.2017L103.785 25.894L102.69 23.2017Z" fill="#F8D8DB" stroke="black" stroke-miterlimit="10"/>
<path d="M103.885 28.4833L113.55 32.7682L124.708 25.4971L121.319 14.1875L112.355 26.592L103.24 24.5586L103.885 28.4833Z" fill="#F8D8DB" stroke="black" stroke-miterlimit="10"/>
<path d="M100.496 28.5832C100.496 28.5832 103.378 29.2753 105.226 29.0762L103.24 22.3027H101.363L100.496 28.5785V28.5832Z" fill="#F8D8DB" stroke="black" stroke-miterlimit="10"/>
<path d="M99.6 21.1113C99.6 21.1113 103.79 21.41 103.24 22.3058C103.24 22.3058 102.231 28.0459 101.363 29.1124C101.363 29.1124 98.1022 28.482 97.6045 28.3825C97.6045 28.3825 99.4958 24.6948 99.5953 21.1113H99.6Z" fill="#F8D8DB" stroke="black" stroke-miterlimit="10"/>
<path d="M109.066 21.1113L103.804 24.2255" stroke="black" stroke-miterlimit="10"/>
<path d="M110.26 28.6811L104.591 26.9131" stroke="black" stroke-miterlimit="10"/>
<path d="M122.3 123.851L126.424 122.984C126.424 122.984 133.372 112.997 134.458 110.826C135.003 109.731 132.017 102.948 128.618 96.0371L125.215 97.7577C126.613 99.8575 127.808 101.611 128.595 102.796C132.5 108.66 131.633 111.698 130.116 114.3C128.595 116.907 122.3 123.851 122.3 123.851Z" fill="#BC6146"/>
<path d="M12.7207 98.8282L9.5449 95.3301C7.24127 97.9892 5.21729 100.226 4.11288 101.502C0.576847 105.583 2.7525 112.797 2.7525 112.797L7.10855 116.47C7.10855 116.47 7.65365 106.943 7.79111 104.63C7.84799 103.63 9.98572 101.416 12.7254 98.8282H12.7207Z" fill="#BC6146"/>
<path d="M106.222 130.368C106.222 130.368 105.402 127.434 103.174 121.571C100.946 115.703 102.236 110.896 102.705 108.081C102.842 107.251 103.506 105.317 104.388 102.914L93.244 104.834C91.9121 107.981 90.7602 110.797 90.3858 112.067C89.4473 115.233 95.1969 127.32 95.1969 127.32L106.227 130.373L106.222 130.368Z" fill="#BC6146"/>
<path d="M36.0654 109.986C36.9281 114.02 33.4727 123.519 33.4727 123.519L41.6965 128.159C41.6965 128.159 44.2514 122.633 46.0147 117.603C47.7779 112.57 44.5073 107.413 43.2465 104.27L34.2974 103.602C35.1696 106.668 35.8474 108.977 36.0654 109.986Z" fill="#BC6146"/>
<path d="M51.3565 70.5968C56.5817 70.5968 60.8175 66.484 60.8175 61.4107C60.8175 56.3374 56.5817 52.2246 51.3565 52.2246C46.1313 52.2246 41.8955 56.3374 41.8955 61.4107C41.8955 66.484 46.1313 70.5968 51.3565 70.5968Z" fill="white"/>
<path d="M57.5563 52.8565C59.4381 53.4727 60.898 54.9279 60.898 54.9279C59.7319 53.4443 57.9071 52.7048 56.7315 52.3635C55.2716 51.5815 53.5984 51.1406 51.8256 51.1406C46.9387 51.1406 42.8386 54.506 41.7105 59.0422C40.7815 59.1844 38.4494 59.3266 35.231 57.9946C35.231 57.9946 38.2408 60.0992 41.5351 59.8954C41.4498 60.4405 41.4024 60.9951 41.4024 61.5638C41.4024 63.0332 41.7105 64.4316 42.2556 65.7019C42.1561 65.1283 42.1039 64.5406 42.1039 63.9386C42.1039 58.1795 46.7728 53.5154 52.5272 53.5154C56.8121 53.5154 60.4951 56.1034 62.0972 59.8006C61.6042 56.8997 59.9121 54.4112 57.5563 52.8565Z" fill="#140105"/>
<path d="M52.0106 69.7583C56.0316 69.7583 59.2912 66.2503 59.2912 61.9231C59.2912 57.5958 56.0316 54.0879 52.0106 54.0879C47.9896 54.0879 44.73 57.5958 44.73 61.9231C44.73 66.2503 47.9896 69.7583 52.0106 69.7583Z" fill="#FCE2EB" stroke="black" stroke-miterlimit="10"/>
<path d="M52.0107 66.7059C54.6521 66.7059 56.7933 64.5647 56.7933 61.9233C56.7933 59.2819 54.6521 57.1406 52.0107 57.1406C49.3693 57.1406 47.228 59.2819 47.228 61.9233C47.228 64.5647 49.3693 66.7059 52.0107 66.7059Z" fill="#C14D98"/>
<path d="M54.3618 61.2646C55.6602 61.2646 56.7128 60.212 56.7128 58.9135C56.7128 57.6151 55.6602 56.5625 54.3618 56.5625C53.0633 56.5625 52.0107 57.6151 52.0107 58.9135C52.0107 60.212 53.0633 61.2646 54.3618 61.2646Z" fill="#FFFFFA"/>
<path d="M56.2953 69.7578C55.9351 69.8242 55.589 69.9142 55.243 69.9948C52.8398 70.5067 50.285 70.8196 47.9103 69.9948C48.1425 70.1465 48.3843 70.2745 48.6307 70.3882C48.2468 70.7295 47.9624 71.1608 47.46 71.3552V71.3789C47.7586 71.322 48.0335 71.194 48.28 71.0186C48.498 70.8859 48.6734 70.6916 48.754 70.4451C49.3749 70.7105 50.0385 70.8622 50.7116 70.9286C50.4888 71.3694 50.3703 71.8529 49.9816 72.1989L49.9959 72.2179C50.2471 72.0614 50.4604 71.8434 50.6263 71.5969C50.7732 71.4073 50.868 71.1798 50.868 70.9428C51.6501 70.9997 52.4464 70.9428 53.2238 70.8006C53.1148 71.2746 53.1053 71.7581 52.8114 72.1752L52.8304 72.1894C53.0389 71.9809 53.2001 71.7202 53.3044 71.4405C53.3992 71.2319 53.4418 70.9949 53.3944 70.7721C54.058 70.6394 54.7027 70.4498 55.3094 70.2223C55.6412 70.0801 55.973 69.9284 56.2953 69.7673V69.7578Z" fill="black"/>
<path d="M85.6407 70.5968C90.8659 70.5968 95.1017 66.484 95.1017 61.4107C95.1017 56.3374 90.8659 52.2246 85.6407 52.2246C80.4155 52.2246 76.1797 56.3374 76.1797 61.4107C76.1797 66.484 80.4155 70.5968 85.6407 70.5968Z" fill="white"/>
<path d="M79.4457 52.8565C77.5639 53.4727 76.104 54.9279 76.104 54.9279C77.27 53.4443 79.0949 52.7048 80.2705 52.3635C81.7304 51.5815 83.4036 51.1406 85.1763 51.1406C90.0633 51.1406 94.1634 54.506 95.2915 59.0422C96.2205 59.1844 98.5526 59.3266 101.771 57.9946C101.771 57.9946 98.7611 60.0992 95.4668 59.8954C95.5522 60.4405 95.5996 60.9951 95.5996 61.5638C95.5996 63.0332 95.2915 64.4316 94.7464 65.7019C94.8459 65.1283 94.8981 64.5406 94.8981 63.9386C94.8981 58.1795 90.2292 53.5154 84.4748 53.5154C80.1899 53.5154 76.5069 56.1034 74.9048 59.8006C75.3977 56.8997 77.0899 54.4112 79.4457 52.8565Z" fill="#140105"/>
<path d="M84.9867 69.7583C89.0076 69.7583 92.2673 66.2503 92.2673 61.9231C92.2673 57.5958 89.0076 54.0879 84.9867 54.0879C80.9657 54.0879 77.7061 57.5958 77.7061 61.9231C77.7061 66.2503 80.9657 69.7583 84.9867 69.7583Z" fill="#FCE2EB" stroke="black" stroke-miterlimit="10"/>
<path d="M84.9867 66.7059C87.6281 66.7059 89.7694 64.5647 89.7694 61.9233C89.7694 59.2819 87.6281 57.1406 84.9867 57.1406C82.3454 57.1406 80.2041 59.2819 80.2041 61.9233C80.2041 64.5647 82.3454 66.7059 84.9867 66.7059Z" fill="#C14D98"/>
<path d="M87.351 61.2646C88.6495 61.2646 89.7021 60.212 89.7021 58.9135C89.7021 57.6151 88.6495 56.5625 87.351 56.5625C86.0526 56.5625 85 57.6151 85 58.9135C85 60.212 86.0526 61.2646 87.351 61.2646Z" fill="#FFFFFA"/>
<path d="M80.7017 69.7578C81.0619 69.8242 81.4079 69.9142 81.7539 69.9948C84.1571 70.5067 86.712 70.8196 89.0867 69.9948C88.8544 70.1465 88.6127 70.2745 88.3662 70.3882C88.7502 70.7295 89.0346 71.1608 89.537 71.3552V71.3789C89.2384 71.322 88.9634 71.194 88.717 71.0186C88.4989 70.8859 88.3236 70.6916 88.243 70.4451C87.622 70.7105 86.9584 70.8622 86.2854 70.9286C86.5081 71.3694 86.6266 71.8529 87.0153 72.1989L87.0011 72.2179C86.7499 72.0614 86.5366 71.8434 86.3707 71.5969C86.2237 71.4073 86.1289 71.1798 86.1289 70.9428C85.3468 70.9997 84.5505 70.9428 83.7732 70.8006C83.8822 71.2746 83.8917 71.7581 84.1855 72.1752L84.1666 72.1894C83.958 71.9809 83.7969 71.7202 83.6926 71.4405C83.5978 71.2319 83.5551 70.9949 83.6025 70.7721C82.9389 70.6394 82.2943 70.4498 81.6876 70.2223C81.3558 70.0801 81.024 69.9284 80.7017 69.7673V69.7578Z" fill="black"/>
<path d="M93.8363 73.5361H43.3223V87.0451H93.8363V73.5361Z" fill="#96A77B"/>
<path d="M93.599 73.7728V86.8078H43.559V73.7728H93.599ZM94.073 73.2988H43.085V87.2818H94.073V73.2988Z" fill="black"/>
<path d="M94.2532 76.3467H43.5591V78.5934H94.2532V76.3467Z" fill="#C4CCA3"/>
<path d="M93.5991 82.7266H43.5591V86.8077H93.5991V82.7266Z" fill="#606853"/>
<path d="M43.6066 72.9629H43.5212C42.6129 72.9629 41.8765 73.6993 41.8765 74.6077V85.9742C41.8765 86.8825 42.6129 87.6189 43.5212 87.6189H43.6066C44.5149 87.6189 45.2513 86.8825 45.2513 85.9742V74.6077C45.2513 73.6993 44.5149 72.9629 43.6066 72.9629Z" fill="#96A77B"/>
<path d="M52.1246 72.9629H52.0393C51.1309 72.9629 50.3945 73.6993 50.3945 74.6077V85.9742C50.3945 86.8825 51.1309 87.6189 52.0393 87.6189H52.1246C53.033 87.6189 53.7694 86.8825 53.7694 85.9742V74.6077C53.7694 73.6993 53.033 72.9629 52.1246 72.9629Z" fill="#96A77B"/>
<path d="M84.9581 72.9629H84.8728C83.9644 72.9629 83.228 73.6993 83.228 74.6077V85.9742C83.228 86.8825 83.9644 87.6189 84.8728 87.6189H84.9581C85.8665 87.6189 86.6029 86.8825 86.6029 85.9742V74.6077C86.6029 73.6993 85.8665 72.9629 84.9581 72.9629Z" fill="#96A77B"/>
<path d="M93.4806 72.9629H93.3953C92.4869 72.9629 91.7505 73.6993 91.7505 74.6077V85.9742C91.7505 86.8825 92.4869 87.6189 93.3953 87.6189H93.4806C94.389 87.6189 95.1254 86.8825 95.1254 85.9742V74.6077C95.1254 73.6993 94.389 72.9629 93.4806 72.9629Z" fill="#96A77B"/>
<path d="M50.3945 85.9355C50.3945 86.8693 51.1482 87.623 52.082 87.623C53.0157 87.623 53.7694 86.8693 53.7694 85.9355V82.7266H50.3945V85.9355Z" fill="#606853"/>
<path d="M91.7505 85.9355C91.7505 86.8693 92.5041 87.623 93.4379 87.623C94.3717 87.623 95.1254 86.8693 95.1254 85.9355V82.7266H91.7505V85.9355Z" fill="#606853"/>
<path d="M41.8765 85.9355C41.8765 86.8693 42.6301 87.623 43.5639 87.623C44.4977 87.623 45.2513 86.8693 45.2513 85.9355V82.7266H41.8765V85.9355Z" fill="#606853"/>
<path d="M83.228 85.9355C83.228 86.8693 83.9817 87.623 84.9155 87.623C85.8492 87.623 86.6029 86.8693 86.6029 85.9355V82.7266H83.228V85.9355Z" fill="#606853"/>
<path d="M45.2513 76.3467H41.8765V78.5934H45.2513V76.3467Z" fill="#C4CCA3"/>
<path d="M53.7694 76.3467H50.3945V78.5934H53.7694V76.3467Z" fill="#C4CCA3"/>
<path d="M86.6029 76.3467H83.228V78.5934H86.6029V76.3467Z" fill="#C4CCA3"/>
<path d="M95.1254 76.3467H91.7505V78.5934H95.1254V76.3467Z" fill="#C4CCA3"/>
<path d="M43.6066 72.9629H43.5212C42.6129 72.9629 41.8765 73.6993 41.8765 74.6077V85.9742C41.8765 86.8825 42.6129 87.6189 43.5212 87.6189H43.6066C44.5149 87.6189 45.2513 86.8825 45.2513 85.9742V74.6077C45.2513 73.6993 44.5149 72.9629 43.6066 72.9629Z" stroke="black" stroke-miterlimit="10"/>
<path d="M52.1246 72.9629H52.0393C51.1309 72.9629 50.3945 73.6993 50.3945 74.6077V85.9742C50.3945 86.8825 51.1309 87.6189 52.0393 87.6189H52.1246C53.033 87.6189 53.7694 86.8825 53.7694 85.9742V74.6077C53.7694 73.6993 53.033 72.9629 52.1246 72.9629Z" stroke="black" stroke-miterlimit="10"/>
<path d="M84.9581 72.9629H84.8728C83.9644 72.9629 83.228 73.6993 83.228 74.6077V85.9742C83.228 86.8825 83.9644 87.6189 84.8728 87.6189H84.9581C85.8665 87.6189 86.6029 86.8825 86.6029 85.9742V74.6077C86.6029 73.6993 85.8665 72.9629 84.9581 72.9629Z" stroke="black" stroke-miterlimit="10"/>
<path d="M93.4806 72.9629H93.3953C92.4869 72.9629 91.7505 73.6993 91.7505 74.6077V85.9742C91.7505 86.8825 92.4869 87.6189 93.3953 87.6189H93.4806C94.389 87.6189 95.1254 86.8825 95.1254 85.9742V74.6077C95.1254 73.6993 94.389 72.9629 93.4806 72.9629Z" stroke="black" stroke-miterlimit="10"/>
<path d="M75.5396 40.5984C75.5396 40.5984 84.3796 36.7211 97.5947 47.4145C97.5947 47.4145 82.9529 34.517 75.5396 40.5984Z" fill="#140105"/>
<path d="M61.4575 40.5984C61.4575 40.5984 52.6174 36.7211 39.4023 47.4145C39.4023 47.4145 54.0442 34.517 61.4575 40.5984Z" fill="#140105"/>
<defs>
<linearGradient id="paint0_linear_714_2964" x1="68.9086" y1="41.8826" x2="68.9086" y2="113.812" gradientUnits="userSpaceOnUse">
<stop stop-color="#FCE9DA"/>
<stop offset="1" stop-color="#E7B7A9"/>
</linearGradient>
</defs>
</svg>
