<svg width="113" height="106" viewBox="0 0 113 106" fill="none" xmlns="http://www.w3.org/2000/svg">
<path d="M24.4612 87.5166H19.6074V104.467H24.4612V87.5166Z" fill="#FEEFEA"/>
<path d="M24.5797 104.585H19.4937V87.4023H24.5797V104.585ZM19.7259 104.348H24.3474V87.6299H19.7259V104.348Z" fill="black"/>
<path d="M24.4612 87.5166H19.6074V89.1945H24.4612V87.5166Z" fill="#4D373A"/>
<path d="M24.5797 89.3086H19.4937V87.3984H24.5797V89.3086ZM19.7259 89.0764H24.3474V87.6307H19.7259V89.0764Z" fill="black"/>
<path d="M24.4252 89.079L22.3838 89.959L22.4757 90.1723L24.5172 89.2923L24.4252 89.079Z" fill="black"/>
<path d="M24.4658 90.332H22.7783V90.5643H24.4658V90.332Z" fill="black"/>
<path d="M23.0377 91.1315L22.8618 91.2832L24.3785 93.0422L24.5544 92.8905L23.0377 91.1315Z" fill="black"/>
<path d="M22.8849 91.5488L22.6699 91.6367L24.357 95.7605L24.572 95.6726L22.8849 91.5488Z" fill="black"/>
<path d="M22.2898 91.57L22.0635 91.6221L24.1964 100.898L24.4228 100.846L22.2898 91.57Z" fill="black"/>
<path d="M22.1053 92.1475H21.873V99.793H22.1053V92.1475Z" fill="black"/>
<path d="M19.6486 89.1285L19.5566 89.3418L21.5023 90.1805L21.5943 89.9673L19.6486 89.1285Z" fill="black"/>
<path d="M21.2002 90.3457H19.6787V90.578H21.2002V90.3457Z" fill="black"/>
<path d="M20.9396 91.1743L19.5312 92.8076L19.7072 92.9593L21.1155 91.326L20.9396 91.1743Z" fill="black"/>
<path d="M21.0836 91.5454L19.4941 95.4326L19.7091 95.5205L21.2986 91.6333L21.0836 91.5454Z" fill="black"/>
<path d="M21.6938 91.5861L19.5625 100.862L19.7889 100.914L21.9202 91.6381L21.6938 91.5861Z" fill="black"/>
<path d="M24.4661 100.57C23.7645 100.082 22.9113 99.7979 21.9918 99.7979C21.0722 99.7979 20.2949 100.059 19.6123 100.509V104.471H24.4661V100.575V100.57Z" fill="#C6C1BE"/>
<path d="M24.5414 104.542H19.5312V100.461L19.5644 100.437C20.2849 99.9633 21.1239 99.7168 21.9866 99.7168C22.8919 99.7168 23.7641 99.987 24.5082 100.504L24.5414 100.527V104.542ZM19.6877 104.39H24.3897V100.608C23.6787 100.124 22.8492 99.8685 21.9913 99.8685C21.1334 99.8685 20.375 100.101 19.6877 100.542V104.386V104.39Z" fill="black"/>
<path d="M21.9869 92.1476C22.7644 92.1476 23.3947 91.5173 23.3947 90.7398C23.3947 89.9623 22.7644 89.332 21.9869 89.332C21.2094 89.332 20.5791 89.9623 20.5791 90.7398C20.5791 91.5173 21.2094 92.1476 21.9869 92.1476Z" fill="#B32032"/>
<path d="M21.9867 92.1853C21.1904 92.1853 20.541 91.536 20.541 90.7396C20.541 89.9433 21.1904 89.2939 21.9867 89.2939C22.783 89.2939 23.4324 89.9433 23.4324 90.7396C23.4324 91.536 22.783 92.1853 21.9867 92.1853ZM21.9867 89.3745C21.233 89.3745 20.6168 89.986 20.6168 90.7444C20.6168 91.5028 21.2283 92.1142 21.9867 92.1142C22.7451 92.1142 23.3566 91.5028 23.3566 90.7444C23.3566 89.986 22.7451 89.3745 21.9867 89.3745Z" fill="black"/>
<path d="M22.494 81.6816H22.2617V87.5545H22.494V81.6816Z" fill="black"/>
<path d="M92.9065 87.5166H88.0527V104.467H92.9065V87.5166Z" fill="#FEEFEA"/>
<path d="M93.025 104.585H87.939V87.4023H93.025V104.585ZM88.1712 104.348H92.7927V87.6299H88.1712V104.348Z" fill="black"/>
<path d="M92.9065 87.5166H88.0527V89.1945H92.9065V87.5166Z" fill="#4D373A"/>
<path d="M93.025 89.3086H87.939V87.3984H93.025V89.3086ZM88.1712 89.0764H92.7927V87.6307H88.1712V89.0764Z" fill="black"/>
<path d="M92.8676 89.077L90.8262 89.957L90.9181 90.1703L92.9596 89.2903L92.8676 89.077Z" fill="black"/>
<path d="M92.9111 90.332H91.2236V90.5643H92.9111V90.332Z" fill="black"/>
<path d="M91.483 91.1276L91.3071 91.2793L92.8238 93.0383L92.9997 92.8866L91.483 91.1276Z" fill="black"/>
<path d="M91.3341 91.5458L91.1191 91.6338L92.8062 95.7576L93.0212 95.6697L91.3341 91.5458Z" fill="black"/>
<path d="M90.7337 91.5651L90.5073 91.6172L92.6403 100.893L92.8666 100.841L90.7337 91.5651Z" fill="black"/>
<path d="M90.5506 92.1475H90.3184V99.793H90.5506V92.1475Z" fill="black"/>
<path d="M88.0905 89.1265L87.9985 89.3398L89.9442 90.1786L90.0362 89.9653L88.0905 89.1265Z" fill="black"/>
<path d="M89.6456 90.3457H88.124V90.578H89.6456V90.3457Z" fill="black"/>
<path d="M89.3883 91.1753L87.98 92.8086L88.1559 92.9603L89.5643 91.3269L89.3883 91.1753Z" fill="black"/>
<path d="M89.526 91.5425L87.9365 95.4297L88.1515 95.5176L89.741 91.6304L89.526 91.5425Z" fill="black"/>
<path d="M90.1372 91.5842L88.0059 100.86L88.2322 100.912L90.3636 91.6362L90.1372 91.5842Z" fill="black"/>
<path d="M92.9114 100.57C92.2098 100.082 91.3567 99.7979 90.4371 99.7979C89.5175 99.7979 88.7402 100.059 88.0576 100.509V104.471H92.9114V100.575V100.57Z" fill="#C6C1BE"/>
<path d="M92.9872 104.542H87.9771V100.461L88.0102 100.437C88.7307 99.9633 89.5697 99.7168 90.4324 99.7168C91.3377 99.7168 92.2099 99.987 92.954 100.504L92.9872 100.527V104.542ZM88.1335 104.39H92.8355V100.608C92.1245 100.124 91.295 99.8685 90.4371 99.8685C89.5792 99.8685 88.8208 100.101 88.1335 100.542V104.386V104.39Z" fill="black"/>
<path d="M90.4322 92.1476C91.2097 92.1476 91.84 91.5173 91.84 90.7398C91.84 89.9623 91.2097 89.332 90.4322 89.332C89.6547 89.332 89.0244 89.9623 89.0244 90.7398C89.0244 91.5173 89.6547 92.1476 90.4322 92.1476Z" fill="#B32032"/>
<path d="M90.4325 92.1853C89.6362 92.1853 88.9868 91.536 88.9868 90.7396C88.9868 89.9433 89.6362 89.2939 90.4325 89.2939C91.2288 89.2939 91.8782 89.9433 91.8782 90.7396C91.8782 91.536 91.2288 92.1853 90.4325 92.1853ZM90.4325 89.3745C89.6788 89.3745 89.0626 89.986 89.0626 90.7444C89.0626 91.5028 89.6741 92.1142 90.4325 92.1142C91.1909 92.1142 91.8024 91.5028 91.8024 90.7444C91.8024 89.986 91.1909 89.3745 90.4325 89.3745Z" fill="black"/>
<path d="M90.9398 81.6816H90.7075V87.5545H90.9398V81.6816Z" fill="black"/>
<path d="M55.4086 103.912C75.27 103.912 91.3708 87.811 91.3708 67.9496C91.3708 48.0881 75.27 31.9873 55.4086 31.9873C35.5472 31.9873 19.4463 48.0881 19.4463 67.9496C19.4463 87.811 35.5472 103.912 55.4086 103.912Z" fill="url(#paint0_linear_714_3032)" stroke="#FCC3B7" stroke-width="2" stroke-miterlimit="10"/>
<path d="M46.4215 69.2822L41.8047 66.917L35.0787 67.5047L31.5474 70.3203C31.1066 71.2446 30.8222 72.259 30.7227 73.3302C30.7416 74.1123 30.7795 74.975 30.8317 75.7239C30.9834 76.5439 31.2441 77.326 31.6043 78.0465C32.5286 78.9139 34.3535 80.3975 34.3535 80.3975C34.3535 80.3975 36.0883 81.5067 36.8467 82.066C37.6051 82.6253 39.686 82.3741 40.9089 82.2746C41.5251 82.2224 42.8001 82.0044 43.914 81.8006C46.5779 80.279 48.3696 77.4113 48.3696 74.1218C48.3696 73.7805 48.3507 73.4487 48.3128 73.1169L46.4262 69.2775L46.4215 69.2822Z" fill="white"/>
<path d="M29.0166 71.0737C29.0166 71.0737 32.7138 66.547 38.8331 65.5896C44.9524 64.6321 49.4459 70.9126 49.4459 70.9126C49.4459 70.9126 47.8865 69.5427 47.3414 69.3815C47.3414 69.3815 48.3605 72.9507 48.4553 73.4911C48.4553 73.4911 45.0757 67.2106 39.5299 67.3718C33.3821 67.5472 28.7891 73.202 28.7891 73.202C28.7891 73.202 31.4008 69.4432 32.1971 68.9312C32.1971 68.9312 30.7941 69.3152 29.0118 71.0642L29.0166 71.0737Z" fill="#2D1410"/>
<path d="M44.9996 81.6625C42.5491 82.2123 40.0037 82.7953 37.4773 82.473C35.586 81.8426 34.1214 80.3543 32.7041 79.0176C34.2446 80.141 35.7235 81.5392 37.5484 82.1412C40.0226 82.4256 42.5301 81.9089 44.9996 81.6625Z" fill="black"/>
<path d="M39.9471 79.5387C42.9393 79.5387 45.3649 77.1131 45.3649 74.1209C45.3649 71.1288 42.9393 68.7031 39.9471 68.7031C36.9549 68.7031 34.5293 71.1288 34.5293 74.1209C34.5293 77.1131 36.9549 79.5387 39.9471 79.5387Z" fill="url(#paint1_linear_714_3032)"/>
<path d="M40.07 75.7141C41.07 75.7141 41.8806 74.9034 41.8806 73.9034C41.8806 72.9034 41.07 72.0928 40.07 72.0928C39.0699 72.0928 38.2593 72.9034 38.2593 73.9034C38.2593 74.9034 39.0699 75.7141 40.07 75.7141Z" fill="#FEF4EB"/>
<path d="M66.723 69.2822L71.3398 66.917L78.0658 67.5047L81.5971 70.3203C82.0379 71.2446 82.3223 72.259 82.4219 73.3302C82.4029 74.1123 82.365 74.975 82.3128 75.7239C82.1612 76.5439 81.9005 77.326 81.5402 78.0465C80.6159 78.9139 78.791 80.3975 78.791 80.3975C78.791 80.3975 77.0562 81.5067 76.2978 82.066C75.5394 82.6253 73.4586 82.3741 72.2356 82.2746C71.6195 82.2224 70.3444 82.0044 69.2305 81.8006C66.5666 80.279 64.7749 77.4113 64.7749 74.1218C64.7749 73.7805 64.7939 73.4487 64.8318 73.1169L66.7183 69.2775L66.723 69.2822Z" fill="white"/>
<path d="M84.133 71.0737C84.133 71.0737 80.4358 66.547 74.3164 65.5896C68.1971 64.6321 63.7036 70.9126 63.7036 70.9126C63.7036 70.9126 65.2631 69.5427 65.8082 69.3815C65.8082 69.3815 64.7891 72.9507 64.6943 73.4911C64.6943 73.4911 68.0739 67.2106 73.6197 67.3718C79.7674 67.5472 84.3605 73.202 84.3605 73.202C84.3605 73.202 81.7487 69.4432 80.9524 68.9312C80.9524 68.9312 82.3555 69.3152 84.1377 71.0642L84.133 71.0737Z" fill="#2D1410"/>
<path d="M68.1445 81.6625C70.6141 81.9089 73.1215 82.4256 75.5958 82.1412C77.4207 81.5345 78.8948 80.141 80.44 79.0176C79.0228 80.3543 77.5581 81.8426 75.6669 82.473C73.1405 82.7953 70.5951 82.2123 68.1445 81.6625Z" fill="black"/>
<path d="M73.2025 79.5387C76.1946 79.5387 78.6203 77.1131 78.6203 74.1209C78.6203 71.1288 76.1946 68.7031 73.2025 68.7031C70.2103 68.7031 67.7847 71.1288 67.7847 74.1209C67.7847 77.1131 70.2103 79.5387 73.2025 79.5387Z" fill="url(#paint2_linear_714_3032)"/>
<path d="M73.0792 75.7141C74.0792 75.7141 74.8899 74.9034 74.8899 73.9034C74.8899 72.9034 74.0792 72.0928 73.0792 72.0928C72.0792 72.0928 71.2686 72.9034 71.2686 73.9034C71.2686 74.9034 72.0792 75.7141 73.0792 75.7141Z" fill="#FEF4EB"/>
<path d="M45.4691 58.8017C45.4691 58.8017 34.5813 56.4649 24.4946 65.6557C24.4946 65.6557 39.2692 55.0855 48.9909 62.8638" fill="#22100E"/>
<path d="M65.348 58.8017C65.348 58.8017 76.2357 56.4649 86.3224 65.6557C86.3224 65.6557 71.5479 55.0855 61.8262 62.8638" fill="#22100E"/>
<path d="M68.5953 35.8037C68.5953 35.8037 68.5953 41.468 65.5996 44.3546C65.5996 44.3546 68.8086 42.9658 65.5996 48.6301C65.5996 48.6301 70.1974 44.8903 70.4107 47.5589C70.624 50.2322 70.624 53.8678 68.9129 55.2566C68.9129 55.2566 70.1974 58.8922 68.6995 60.8166C68.6995 60.8166 70.624 58.1433 72.8707 58.039C72.8707 58.039 72.2308 54.2991 74.9042 53.0146C77.5775 51.7301 77.5775 55.0481 77.5775 55.0481C77.5775 55.0481 80.1419 51.6258 83.6732 53.2326C87.1997 54.8347 84.3131 57.5081 84.3131 57.5081C84.3131 57.5081 89.2284 57.1858 89.7641 58.6836C90.2997 60.1815 87.413 50.237 87.413 50.237C87.413 50.237 82.8152 51.6258 81.6397 48.8481C80.4642 46.0705 84.6354 41.8993 84.6354 41.8993L82.6019 40.8281C82.6019 40.8281 80.7533 45.7672 76.9376 45.5302C71.0411 45.1652 73.0888 37.7282 79.611 36.9792C84.351 36.4341 68.6 35.8037 68.6 35.8037H68.5953Z" fill="#9D3C33"/>
<path d="M57.1433 37.3062C57.1433 37.3062 55.3184 38.4911 54.9534 39.3112C54.9534 39.3112 69.4531 36.8511 78.2979 44.5109C87.1427 52.1707 90.7925 58.8257 89.9677 64.7554C89.1477 70.6804 84.7679 88.0098 84.7679 88.0098C84.7679 88.0098 87.7778 94.9396 92.8828 94.2997C92.8828 94.2997 88.413 91.6548 88.1428 87.095C88.1428 87.095 92.0628 93.6599 99.5425 89.92C99.5425 89.92 91.4276 87.2751 92.7027 76.0603C92.7027 76.0603 93.9778 84.36 98.4476 84.36C98.4476 84.36 95.8927 82.5351 95.9875 80.075C95.9875 80.075 104.557 81.4449 108.387 75.7901C108.387 75.7901 102.097 75.3351 99.3576 69.9552L99.1775 67.6753C99.1775 67.6753 105.287 66.7652 107.202 64.0255C107.202 64.0255 102.917 63.7505 101.732 59.8306C101.732 59.8306 109.572 55.5456 110.667 47.8858C110.667 47.8858 102.097 51.6256 99.9975 45.6059C97.9024 39.5861 98.7225 42.231 98.7225 42.231C98.7225 42.231 104.647 38.311 104.467 27.5513C104.467 27.5513 102.187 34.4811 95.2575 31.2011C88.3277 27.9162 88.3277 18.8013 82.3079 17.8864C82.3079 17.8864 87.5077 15.9715 91.7926 18.3415C91.7926 18.3415 77.1129 9.58671 62.3383 12.0515C62.3383 12.0515 49.3887 9.71943 47.5638 11.6154C45.7389 13.5114 44.3738 14.2414 44.3738 14.2414C44.3738 14.2414 43.4637 3.75654 38.6289 1.93164C38.6289 1.93164 41.5488 11.7813 36.0741 14.1513C30.5994 16.5213 29.7841 13.8764 24.3094 20.9911C18.8395 28.1058 16.0097 30.9309 21.1194 39.3207C21.1194 39.3207 16.1045 40.7806 16.0145 42.6055C15.9244 44.4304 16.0145 48.1418 16.0145 48.1418C16.0145 48.1418 14.7394 48.0754 14.2796 51.3602C13.8246 54.645 10.4023 60.2903 1.58594 57.3041C1.58594 57.3041 5.99413 65.5517 14.2417 64.6985C14.2417 64.6985 12.1087 73.7993 2.86574 77.0699C2.86574 77.0699 10.8289 83.3267 20.4937 81.1937C20.4937 81.1937 19.9249 91.0054 13.2416 92.4274C13.2416 92.4274 20.4937 92.5697 24.0487 88.4459C24.0487 88.4459 25.0441 94.5604 21.6313 97.2622C21.6313 97.2622 26.6794 92.4985 27.6511 90.375C27.6511 90.375 25.6508 82.7958 25.2859 80.4922C24.9209 78.1885 21.4086 65.3384 23.8307 56.9107C26.2528 48.483 34.6473 43.0036 36.3869 42.8282L35.965 41.8708L42.3214 42.1125C42.3214 42.1125 45.08 38.9367 46.2793 38.8751C46.2793 38.8751 45.4403 41.155 44.3027 41.6338C44.3027 41.6338 51.5027 35.9553 57.1386 37.3251L57.1433 37.3062Z" fill="#9C3B32"/>
<path d="M14.2751 55.3661C14.2751 55.3661 13.602 60.4473 7.18408 61.1157C7.18408 61.1157 11.7866 63.9928 14.2751 63.4145C14.2751 63.4145 14.8534 57.3616 14.2751 55.3613V55.3661Z" fill="#1D0F0F"/>
<path d="M8.43066 77.41C8.43066 77.41 14.0238 74.9168 14.531 72.7127C15.0382 70.5086 16.2896 64.0859 16.2896 64.0859C16.2896 64.0859 19.4417 77.1019 20.1242 77.41C20.1242 77.41 14.9481 80.7659 8.43066 77.41Z" fill="#1D0F0F"/>
<path d="M44.9523 41.1406C44.5446 41.4298 44.3076 41.6146 44.3076 41.6146C44.5351 41.5198 44.7484 41.3492 44.9523 41.1406Z" fill="#1D0F0F"/>
<path d="M98.3434 61.432C98.8127 58.005 97.8742 56.5261 92.0345 46.3257C86.1948 36.1252 73.9278 37.1443 73.9278 37.1443C80.7818 31.7597 91.0628 41.0596 91.0628 41.0596C90.7358 37.6326 86.1664 34.5326 86.1664 34.5326C87.4699 33.8785 91.0628 35.0208 91.0628 35.0208C91.0628 35.0208 84.697 28.655 79.1512 27.5127C73.6054 26.3704 59.4092 35.6702 59.4092 35.6702C62.9974 29.1432 76.7054 25.8821 76.7054 25.8821C68.382 22.9433 59.7362 29.8779 59.7362 29.8779C60.2245 24.8962 68.8749 23.2704 68.8749 23.2704C55.0057 21.801 49.1329 32.8973 49.1329 32.8973C51.2517 19.6822 64.9597 17.7246 64.9597 17.7246C41.2029 18.7105 40.7905 42.0313 40.7905 42.0313L42.331 42.0881C42.331 42.0881 45.0897 38.9123 46.2889 38.8507C46.2889 38.8507 45.7533 40.3059 44.9522 41.1354C46.834 39.8035 52.5173 36.1726 57.1435 37.3008C57.1435 37.3008 55.3186 38.4857 54.9536 39.3058C54.9536 39.3058 69.4532 36.8457 78.298 44.5055C87.1428 52.1653 90.7926 58.8203 89.9679 64.75C89.1431 70.6797 84.7681 88.0044 84.7681 88.0044C84.7681 88.0044 87.3561 93.9531 91.7975 94.318H92.6365C92.7171 94.3133 92.8024 94.3086 92.883 94.2991C92.883 94.2991 88.4131 91.6542 88.143 87.0943C88.143 87.0943 91.4468 92.6164 97.7652 90.6398C87.8776 87.938 89.8683 73.0782 90.8448 69.8123C91.8259 66.5465 90.5177 55.6824 90.5177 55.6824C92.3947 56.256 93.2148 60.9106 93.2148 60.9106C93.8689 56.0095 89.6218 47.1078 89.6218 47.1078C96.3194 52.4972 95.4236 63.5271 94.1959 66.7124C92.973 69.8976 92.7029 76.0644 94.3571 77.9035C96.0114 79.7426 102.197 78.2305 102.197 78.2305C95.9877 73.9835 97.8694 64.8638 98.3339 61.4368L98.3434 61.432Z" fill="#1D0F0F"/>
<path d="M27.6559 90.3554C27.6559 90.3554 25.6556 82.7762 25.2907 80.4726C24.9257 78.1689 21.4133 65.3188 23.8355 56.8911C26.2624 48.4634 34.6521 42.984 36.3917 42.8086L35.9698 41.8511L40.7857 42.0313C36.8515 29.1338 50.7586 19.3552 50.7586 19.3552C45.374 19.3552 39.8282 26.5363 39.8282 26.5363C39.8282 23.9245 42.9281 18.7058 42.9281 18.7058C26.9354 29.9396 33.4624 40.5713 33.4624 40.5713C33.4624 40.5713 31.5048 38.4478 29.059 33.0632C26.6131 27.6786 34.4436 17.7246 34.4436 17.7246C32.1826 18.9049 27.0255 22.7774 23.5748 30.1576C20.1241 37.5378 28.656 43.7661 28.656 43.7661C26.1628 44.15 22.7121 40.3154 22.7121 40.3154C18.3039 40.2206 16.8677 46.5437 16.8677 46.5437C19.7449 44.1453 23.9587 44.4344 23.9587 44.4344C20.508 44.3396 14.2844 51.3406 15.7159 56.128C17.1474 60.9154 13.2227 70.2152 13.2227 70.2152C16.3842 69.5421 17.8252 63.0247 18.2044 58.716C18.484 55.5781 20.5839 52.6014 21.7072 51.2079C19.5316 54.7723 18.5836 66.191 18.5836 66.191C18.6784 63.8921 21.8447 59.0004 21.8447 59.0004C19.9297 66.4754 24.1436 78.3633 24.1436 78.3633C21.5555 78.0741 19.8302 68.0111 19.8302 68.0111C18.4888 70.1204 21.8447 81.6196 22.4182 84.3024C22.7785 85.9851 20.1336 89.4311 18.1048 91.7727C20.181 91.2371 22.4798 90.2464 24.0535 88.4215C24.0535 88.4215 24.8925 93.6023 22.3661 96.5316C23.7976 95.1286 26.9165 91.967 27.6559 90.3459V90.3554Z" fill="#1D0F0F"/>
<path d="M22.3658 96.542C21.925 96.9733 21.6406 97.2435 21.6406 97.2435C21.9108 97.0302 22.1525 96.7932 22.3658 96.542Z" fill="#1D0F0F"/>
<path d="M90.5322 43.3633C90.5322 43.3633 95.5898 46.084 96.1728 48.2265C96.7558 50.3642 101.425 53.8671 105.311 52.8954C105.311 52.8954 101.619 58.9247 99.0879 59.119C99.0879 59.119 100.254 65.3426 106.478 65.3426C106.478 65.3426 101.42 67.869 98.5049 67.286C98.5049 67.286 99.8652 57.1756 96.9502 53.2841C94.0351 49.3973 90.5322 43.368 90.5322 43.368V43.3633Z" fill="#1D0F0F"/>
<path d="M54.0625 84.9906L56.0912 82.9619L58.1958 85.0665" stroke="black" stroke-linecap="round" stroke-linejoin="round"/>
<path d="M38.6288 1.922C43.4636 3.74689 44.3737 14.2317 44.3737 14.2317C44.3737 14.2317 45.7436 13.5018 47.5637 11.6058C48.0899 11.056 49.545 10.8616 51.351 10.8616C55.7924 10.8616 62.3383 12.0419 62.3383 12.0419C64.1584 11.7385 65.9786 11.6058 67.7703 11.6058C80.5066 11.6058 91.7925 18.3366 91.7925 18.3366C90.1525 17.4312 88.3797 17.1516 86.8203 17.1516C84.2939 17.1516 82.3126 17.8815 82.3126 17.8815C88.3323 18.7916 88.3323 27.9113 95.2622 31.1962C96.5894 31.8266 97.7459 32.0778 98.7461 32.0778C102.979 32.0778 104.472 27.5464 104.472 27.5464C104.643 37.6615 99.4192 41.7284 98.7888 42.1834C98.9926 42.7238 99.3576 43.7524 100.002 45.601C100.936 48.2838 103.159 49.028 105.335 49.028C108.036 49.028 110.667 47.8809 110.667 47.8809C109.572 55.5407 101.732 59.8257 101.732 59.8257C102.917 63.7456 107.202 64.0206 107.202 64.0206C106.861 64.5088 106.387 64.9354 105.842 65.3098C106.046 65.324 106.259 65.3335 106.477 65.3335C106.477 65.3335 104.538 66.3005 102.372 66.9025C100.652 67.4476 99.1822 67.6703 99.1822 67.6703L99.3623 69.9503C102.097 75.3302 108.392 75.7852 108.392 75.7852C105.809 79.5962 101.078 80.2171 98.2626 80.2171C96.9023 80.2171 95.9922 80.0701 95.9922 80.0701C95.9021 82.5302 98.4522 84.3551 98.4522 84.3551C93.9824 84.3551 92.7073 76.0554 92.7073 76.0554C91.4323 87.2702 99.5471 89.9151 99.5471 89.9151C98.9309 90.2232 98.3384 90.4555 97.7696 90.6356C97.5706 90.6972 97.381 90.7493 97.1866 90.7967C96.4472 90.9816 95.7457 91.0622 95.0963 91.0622C94.3474 91.0622 93.6601 90.9579 93.0344 90.7778V104.581H87.9484V92.4557C86.4079 91.0432 85.3888 89.2231 84.9812 88.4173C78.4874 97.774 67.6708 103.908 55.4226 103.908C44.1652 103.908 34.1164 98.7315 27.5231 90.6308C27.5231 90.6308 27.5231 90.6309 27.5231 90.6356C27.5088 90.6593 27.4946 90.6877 27.4804 90.7114C27.4235 90.811 27.3619 90.9105 27.2908 91.0195C27.2813 91.0338 27.2718 91.0432 27.2671 91.0574C27.2055 91.1522 27.1344 91.2565 27.0633 91.356C27.0396 91.3892 27.0206 91.4177 26.9969 91.4509C26.9164 91.5599 26.8358 91.6736 26.7457 91.7874C26.7268 91.8111 26.7078 91.8395 26.6841 91.8632C26.6083 91.958 26.5324 92.0576 26.4518 92.1571C26.4234 92.195 26.395 92.233 26.3618 92.2661C26.267 92.3846 26.1674 92.5031 26.0679 92.6216C26.0394 92.6548 26.011 92.688 25.9873 92.7164C25.902 92.816 25.8214 92.9108 25.7313 93.0103C25.6982 93.0482 25.665 93.0862 25.6318 93.1241C25.5275 93.2426 25.4185 93.3658 25.3142 93.4843C25.281 93.5222 25.2479 93.5602 25.2147 93.5981C25.1294 93.6929 25.0393 93.7924 24.954 93.8872C24.9208 93.9251 24.8876 93.9583 24.8545 93.9962C24.7691 94.0863 24.6838 94.1811 24.5985 94.2711V104.576H19.5125V91.3513C19.3229 91.4177 19.1333 91.4793 18.939 91.5409C18.9153 91.5504 18.8916 91.5551 18.8679 91.5599C18.6166 91.6357 18.3702 91.7068 18.1237 91.7732C15.8106 92.3704 13.7818 92.4036 13.3505 92.4036C13.2936 92.4036 13.2652 92.4036 13.2652 92.4036C19.9486 90.9816 20.5174 81.1698 20.5174 81.1698C19.1096 81.4827 17.7397 81.6154 16.422 81.6154C8.70059 81.6154 2.88936 77.0508 2.88936 77.0508C12.1323 73.7802 14.2653 64.6794 14.2653 64.6794C13.8577 64.7221 13.4643 64.741 13.0756 64.741C5.5959 64.741 1.60957 57.285 1.60957 57.285C3.35388 57.8775 4.88489 58.1288 6.22631 58.1288C11.6631 58.1288 13.9335 53.9718 14.3032 51.3411C14.7393 48.1843 15.9385 48.1226 16.0286 48.1226H16.0333C16.0333 48.1226 15.9433 44.4065 16.0333 42.5863C16.1234 40.7614 21.1383 39.3015 21.1383 39.3015C16.0333 30.9118 18.8584 28.0867 24.3283 20.972C29.7983 13.8573 30.6183 16.5022 36.093 14.1322C41.5629 11.7622 38.6478 1.91252 38.6478 1.91252M88.1807 87.4029H88.3513C88.3323 87.3792 88.3181 87.3555 88.3039 87.3365C88.2992 87.3271 88.2944 87.3223 88.285 87.3129C88.266 87.2844 88.247 87.2607 88.2328 87.237C88.2281 87.2275 88.2233 87.2228 88.2186 87.218C88.2044 87.1991 88.1901 87.1801 88.1807 87.1612C88.1759 87.1517 88.1712 87.147 88.1665 87.1375C88.1617 87.128 88.157 87.1185 88.1522 87.1138C88.1475 87.1043 88.1427 87.0995 88.1427 87.0995C88.1475 87.2038 88.1664 87.3034 88.1807 87.4077M38.6288 0.5C38.2733 0.5 37.9273 0.632728 37.6619 0.879208C37.2685 1.24893 37.1121 1.80824 37.2685 2.3249C37.2874 2.39126 37.951 4.70437 37.9842 7.21657C38.0221 10.217 37.1926 12.1082 35.5099 12.8335C33.9173 13.5255 32.7939 13.7435 31.7037 13.9568C28.8597 14.5114 27.0585 15.0707 23.1812 20.1093C22.8968 20.479 22.6219 20.8393 22.3517 21.1853C17.626 27.2904 14.8957 30.817 19.0243 38.5147C17.0761 39.2778 14.6872 40.5956 14.5924 42.5152C14.526 43.8235 14.5497 46.0228 14.5734 47.2552C13.8909 47.8145 13.1799 48.9332 12.8718 51.1468C12.2603 55.5455 8.24554 56.7115 6.20735 56.7115C4.95125 56.7115 3.55295 56.4508 2.04564 55.9436C1.89396 55.8915 1.74228 55.8678 1.5906 55.8678C1.17822 55.8678 0.780062 56.0479 0.505143 56.3702C0.125944 56.8158 0.059591 57.4462 0.33451 57.9581C0.50989 58.2804 4.53413 65.6558 12.2508 66.1393C11.1701 68.7653 8.43988 73.5716 2.39166 75.7094C1.90344 75.88 1.54795 76.3066 1.46263 76.8185C1.37731 77.3304 1.58112 77.8471 1.98876 78.1694C2.23998 78.3685 8.28347 83.0374 16.4031 83.0374C17.2136 83.0374 18.0289 82.99 18.8299 82.8952C18.3322 85.5211 16.9008 90.1758 12.9524 91.0148C12.2461 91.1665 11.7673 91.8206 11.8337 92.541C11.9001 93.2615 12.4973 93.8114 13.2225 93.8303H13.3363C13.8956 93.8303 15.8106 93.7877 18.0763 93.252V104.581C18.0763 105.367 18.7114 106.003 19.4983 106.003H24.5843C25.3711 106.003 26.0063 105.367 26.0063 104.581V94.8352C26.0916 94.7452 26.1722 94.6503 26.2575 94.5603L26.2764 94.5366L26.3618 94.4465C26.4755 94.3233 26.5845 94.2 26.6936 94.0768L26.7647 93.9962L26.7978 93.9583C26.8879 93.854 26.9732 93.7545 27.0633 93.6502L27.0917 93.617L27.1486 93.5459C27.2576 93.4179 27.3572 93.2947 27.4614 93.1715L27.5278 93.0862L27.5515 93.053C27.5799 93.0198 27.6036 92.9866 27.6321 92.9534C34.7278 100.841 44.7529 105.33 55.4179 105.33C66.9313 105.33 77.7764 100.007 84.8437 90.9911C85.2988 91.6594 85.8581 92.3846 86.5217 93.0577V104.576C86.5217 105.363 87.1568 105.998 87.9437 105.998H93.0297C93.8165 105.998 94.4517 105.363 94.4517 104.576V92.4605C94.665 92.4747 94.8783 92.4842 95.0916 92.4842C95.8879 92.4842 96.7032 92.3799 97.5232 92.1761C97.7412 92.1239 97.964 92.0576 98.1868 91.9912C98.8693 91.7779 99.5187 91.5172 100.178 91.1854C100.694 90.9295 101.002 90.3844 100.96 89.8061C100.917 89.2278 100.528 88.7396 99.9832 88.5595C99.8221 88.5026 97.4331 87.6541 95.722 84.9618C96.4946 85.4642 97.4 85.7724 98.4475 85.7724C99.0637 85.7724 99.6135 85.3742 99.8031 84.7864C99.9927 84.1987 99.7794 83.554 99.277 83.1938C98.9499 82.9568 98.3005 82.3643 97.8597 81.6296C97.9877 81.6296 98.1252 81.6296 98.2626 81.6296C101.206 81.6296 106.591 80.9707 109.567 76.572C109.852 76.1502 109.89 75.6098 109.672 75.1548C109.454 74.6997 109.003 74.3916 108.496 74.3585C108.449 74.3585 103.15 73.8892 100.761 69.5379L100.704 68.8174C101.282 68.6894 102.007 68.5046 102.78 68.2628C105.046 67.6324 107.032 66.6465 107.117 66.6039C107.581 66.3716 107.871 65.9166 107.899 65.4189C108.074 65.2293 108.236 65.0349 108.373 64.8358C108.667 64.414 108.714 63.8689 108.491 63.4044C108.269 62.9398 107.814 62.6365 107.302 62.6033C107.193 62.5938 104.733 62.3853 103.529 60.3897C105.866 58.8255 111.113 54.6496 112.075 48.1511C112.089 48.0658 112.099 47.9757 112.099 47.8856C112.099 47.1035 111.468 46.4684 110.681 46.4636C110.681 46.4636 110.677 46.4636 110.672 46.4636C110.653 46.4636 110.634 46.4636 110.62 46.4636C110.43 46.4684 110.25 46.5158 110.089 46.5869C109.866 46.6817 107.591 47.6107 105.339 47.6107C102.533 47.6107 101.718 46.1982 101.348 45.1365C100.988 44.1079 100.694 43.2689 100.467 42.629C102.254 40.951 106.046 36.3296 105.894 27.5227C105.885 26.8306 105.373 26.2429 104.685 26.1386C104.614 26.1291 104.543 26.1244 104.472 26.1244C103.865 26.1244 103.315 26.513 103.121 27.1008C103.074 27.2383 101.879 30.6558 98.7461 30.6558C97.8834 30.6558 96.9117 30.4046 95.8689 29.9116C92.878 28.4944 91.3043 25.7641 89.7828 23.124C88.8443 21.4981 87.8915 19.8391 86.607 18.5783C86.6781 18.5783 86.7492 18.5783 86.8203 18.5783C88.4556 18.5783 89.8965 18.9196 91.1052 19.5879C91.3233 19.7064 91.5603 19.7681 91.7925 19.7681C92.2855 19.7681 92.7643 19.5121 93.0249 19.0523C93.4136 18.3792 93.1861 17.5213 92.5225 17.1231C92.0485 16.8387 80.7531 10.1933 67.775 10.1933C65.917 10.1933 64.0921 10.3355 62.3525 10.6104C61.1011 10.3924 55.4368 9.45384 51.3557 9.45384C48.8103 9.45384 47.3267 9.81882 46.5446 10.6341C46.156 11.037 45.791 11.383 45.4639 11.6722C44.8477 8.1693 43.2172 2.14004 39.136 0.60428C38.9749 0.54266 38.8042 0.514219 38.6336 0.514219L38.6288 0.5Z" fill="white"/>
<defs>
<linearGradient id="paint0_linear_714_3032" x1="55.4086" y1="55.7441" x2="55.4086" y2="127.673" gradientUnits="userSpaceOnUse">
<stop stop-color="#FCE9DA"/>
<stop offset="1" stop-color="#E7B7A9"/>
</linearGradient>
<linearGradient id="paint1_linear_714_3032" x1="39.9471" y1="73.9503" x2="39.9471" y2="81.2072" gradientUnits="userSpaceOnUse">
<stop offset="0.2" stop-color="#35141B"/>
<stop offset="1" stop-color="#E65B82"/>
</linearGradient>
<linearGradient id="paint2_linear_714_3032" x1="73.2025" y1="73.9503" x2="73.2025" y2="81.2072" gradientUnits="userSpaceOnUse">
<stop offset="0.2" stop-color="#35141B"/>
<stop offset="1" stop-color="#E65B82"/>
</linearGradient>
</defs>
</svg>
