<svg width="72" height="16" viewBox="0 0 72 16" fill="none" xmlns="http://www.w3.org/2000/svg">
<circle cx="8.34314" cy="8" r="6" stroke="#AA1A28" stroke-width="4"/>
<path fill-rule="evenodd" clip-rule="evenodd" d="M43.0711 0.585786C42.29 -0.195262 41.0237 -0.195262 40.2426 0.585787L35.9999 4.82852L31.7574 0.585972C30.9763 -0.195076 29.71 -0.195076 28.9289 0.585972C28.1479 1.36702 28.1479 2.63335 28.9289 3.4144L33.1715 7.65695L28.9289 11.8995C28.1479 12.6805 28.1479 13.9469 28.9289 14.7279C29.71 15.509 30.9763 15.509 31.7574 14.7279L35.9999 10.4854L40.2426 14.7281C41.0237 15.5092 42.29 15.5092 43.0711 14.7281C43.8521 13.9471 43.8521 12.6807 43.0711 11.8997L38.8283 7.65695L43.0711 3.41421C43.8521 2.63316 43.8521 1.36683 43.0711 0.585786Z" fill="white"/>
<circle cx="63.6569" cy="8" r="6" stroke="white" stroke-width="4"/>
</svg>
