<svg width="245" height="66" viewBox="0 0 245 66" fill="none" xmlns="http://www.w3.org/2000/svg">
<path d="M56.7394 3.0459C60.6153 3.96387 62.6698 6.84164 62.9029 11.6792H57.111C57.0527 10.1493 56.0691 9.45713 54.1603 9.60284H46.3794C44.7766 13.0707 43.9315 15.6935 43.8441 17.4712C43.7712 19.2488 44.2302 20.9245 45.221 22.4982C46.2264 24.0573 47.312 25.1719 48.4777 25.8422C49.6579 26.4979 51.2753 26.7237 53.3298 26.5198C55.3843 26.3158 57.2858 24.9898 59.0343 22.5419L62.9466 27.4159C60.6736 29.6161 58.8303 31.0878 57.417 31.8309C56.0036 32.5594 54.1312 32.9383 51.7998 32.9674C49.4831 32.9966 47.363 32.5449 45.4396 31.6123C43.5162 30.6798 41.7531 28.9531 40.1503 26.4323C38.5475 23.897 37.8336 21.0119 38.0084 17.7772C38.1833 14.5424 38.6058 12.466 39.2761 11.5481L43.6255 9.60284H38.4237L38.7734 7.52648L39.2761 5.53754L40.2378 3.0459H56.7394Z" fill="#AA1A28"/>
<path d="M23.1897 2.98047H35.1015L34.2272 9.27513H32.3039V26.651H34.7518L34.4021 32.749H22.4903L23.0804 26.6073L25.6376 26.6292L25.6813 10.8269L28.4353 9.27513H22.5559L23.1897 2.98047Z" fill="#AA1A28"/>
<path d="M0.655694 2.98047H20.5014L19.6927 9.53741H12.633V23.7223C12.3853 25.9225 13.1285 27.2266 14.8624 27.6346L13.2669 33.7981C11.2707 33.8564 9.58042 33.208 8.19618 31.8529C6.82651 30.4978 6.11981 28.7055 6.0761 26.4762V10.8488L8.89559 9.4937L0 9.47184L0.655694 2.98047Z" fill="#AA1A28"/>
<path d="M59.7235 0.0615234C63.5994 0.979495 65.6539 3.85726 65.8871 8.69483H60.0951C60.0368 7.16488 59.0533 6.47276 57.1445 6.61847H49.3636C47.7608 10.0864 46.9156 12.7091 46.8282 14.4868C46.7554 16.2645 47.2143 17.9401 48.2052 19.5138C49.2106 21.0729 50.2961 22.1876 51.4618 22.8578C52.642 23.5135 54.2594 23.7394 56.3139 23.5354C58.3684 23.3314 60.2699 22.0054 62.0185 19.5575L65.9308 24.4315C63.6577 26.6317 61.8145 28.1034 60.4011 28.8465C58.9877 29.5751 57.1153 29.9539 54.784 29.983C52.4672 30.0122 50.3471 29.5605 48.4237 28.6279C46.5004 27.6954 44.7373 25.9687 43.1345 23.448C41.5317 20.9126 40.8177 18.0275 40.9925 14.7928C41.1674 11.558 41.5899 9.48166 42.2602 8.56369L46.6096 6.61847H41.4078L41.7575 4.5421L42.2602 2.55316L43.2219 0.0615234H59.7235Z" fill="white"/>
<path d="M26.1738 -0.00390625H38.0856L37.2114 6.29076H35.288V23.6667H37.7359L37.3862 29.7646H25.4744L26.0646 23.6229L28.6218 23.6448L28.6655 7.84257L31.4194 6.29076H25.54L26.1738 -0.00390625Z" fill="white"/>
<path d="M3.63982 -0.00390625H23.4855L22.6768 6.55304H15.6172V20.7379C15.3695 22.9381 16.1126 24.2422 17.8465 24.6502L16.251 30.8137C14.2548 30.872 12.5646 30.2236 11.1803 28.8685C9.81064 27.5134 9.10394 25.7212 9.06023 23.4918V7.86442L11.8797 6.50932L2.98413 6.48747L3.63982 -0.00390625Z" fill="white"/>
<path d="M147.959 5.23145C151.835 6.14942 153.889 9.02719 154.122 13.8648H148.331C148.272 12.3348 147.289 11.6427 145.38 11.7884H137.599C135.996 15.2563 135.151 17.8791 135.064 19.6567C134.991 21.4344 135.45 23.11 136.441 24.6837C137.446 26.2428 138.532 27.3575 139.697 28.0277C140.877 28.6834 142.495 28.9093 144.549 28.7053C146.604 28.5013 148.505 27.1753 150.254 24.7274L154.166 29.6014C151.893 31.8016 150.05 33.2733 148.636 34.0164C147.223 34.745 145.351 35.1238 143.019 35.153C140.703 35.1821 138.583 34.7304 136.659 33.7979C134.736 32.8653 132.973 31.1387 131.37 28.6179C129.767 26.0825 129.053 23.1975 129.228 19.9627C129.403 16.728 129.825 14.6516 130.496 13.7336L134.845 11.7884H129.643L129.993 9.71202L130.496 7.72308L131.457 5.23145H147.959Z" fill="#AA1A28"/>
<path d="M112.245 2.98047L117.622 5.01312L116.988 7.11134H125.643L124.747 13.5809L120.026 13.6027L127.523 33.6888L121.731 35.6778L114.038 15.1327L105.448 35.5029L99.5687 33.7107L108.049 13.5153L101.864 13.4934L102.344 7.11134H110.519L112.245 2.98047ZM115.021 25.2741L118.365 28.946L112.18 35.1532L108.814 31.525L115.021 25.2741Z" fill="#AA1A28"/>
<path d="M78.5865 5.16602H98.4322L97.6235 11.723H90.5638V25.9078C90.3161 28.108 91.0592 29.4121 92.7932 29.8201L91.1977 35.9836C89.2014 36.0419 87.5112 35.3935 86.127 34.0384C84.7573 32.6833 84.0506 30.8911 84.0069 28.6617V13.0343L86.8264 11.6792L77.9308 11.6574L78.5865 5.16602Z" fill="#AA1A28"/>
<path d="M150.943 2.24707C154.819 3.16504 156.873 6.04281 157.107 10.8804H151.315C151.256 9.35042 150.273 8.6583 148.364 8.80401H140.583C138.98 12.2719 138.135 14.8947 138.048 16.6723C137.975 18.45 138.434 20.1257 139.425 21.6993C140.43 23.2584 141.516 24.3731 142.681 25.0434C143.862 25.6991 145.479 25.9249 147.533 25.7209C149.588 25.5169 151.489 24.191 153.238 21.743L157.15 26.617C154.877 28.8173 153.034 30.2889 151.621 31.032C150.207 31.7606 148.335 32.1394 146.004 32.1686C143.687 32.1977 141.567 31.746 139.643 30.8135C137.72 29.8809 135.957 28.1543 134.354 25.6335C132.751 23.0981 132.037 20.2131 132.212 16.9783C132.387 13.7436 132.809 11.6672 133.48 10.7492L137.829 8.80401H132.627L132.977 6.72765L133.48 4.73871L134.441 2.24707H150.943Z" fill="white"/>
<path d="M115.23 -0.00390625L120.606 2.02875L119.972 4.12697H128.628L127.731 10.5965L123.01 10.6183L130.507 30.7044L124.715 32.6934L117.022 12.1483L108.432 32.5185L102.553 30.7263L111.033 10.5309L104.848 10.5091L105.329 4.12697H113.503L115.23 -0.00390625ZM118.005 22.2897L121.349 25.9616L115.164 32.1688L111.798 28.5406L118.005 22.2897Z" fill="white"/>
<path d="M81.5706 2.18164H101.416L100.608 8.73858H93.548V22.9234C93.3003 25.1237 94.0434 26.4278 95.7773 26.8357L94.1818 32.9993C92.1856 33.0576 90.4953 32.4091 89.1111 31.054C87.7414 29.6989 87.0347 27.9067 86.991 25.6773V10.05L89.8105 8.69487L80.9149 8.67301L81.5706 2.18164Z" fill="white"/>
<path d="M220.076 3.00195H241.124L239.375 9.60261L228.753 9.64632V12.9029H240.402L239.353 18.8479L228.6 18.826C228.381 21.9734 228.571 24.057 229.168 25.077C229.78 26.0824 230.793 26.5924 232.206 26.6069H240.206L239.135 32.7923C232.709 32.938 228.979 32.7413 227.944 32.2022C226.924 31.6485 225.853 30.7451 224.731 29.492C223.624 28.2243 222.924 26.3665 222.633 23.9186V18.826L219.027 18.8479L219.923 12.8592L222.873 12.8811V9.47147L219.027 9.49333L220.076 3.00195Z" fill="#AA1A28"/>
<path d="M197.957 2.98047V5.84367L199.662 2.98047H214.087C215.865 3.47588 216.703 5.98209 216.601 10.4991V30.1918C216.251 31.7946 214.889 32.6324 212.514 32.7053H195.837C193.36 32.8073 191.925 31.729 191.531 29.4705V4.31371L197.957 2.98047ZM197.957 9.42813V26.2576H210.153V9.42813H197.957Z" fill="#AA1A28"/>
<path d="M169.806 3.0459H189.652L188.843 9.60284H181.783V23.7877C181.536 25.9879 182.279 27.292 184.013 27.7L182.417 33.8635C180.421 33.9218 178.731 33.2734 177.346 31.9183C175.977 30.5632 175.27 28.771 175.226 26.5416V10.9142L178.046 9.55913L169.15 9.53727L169.806 3.0459Z" fill="#AA1A28"/>
<path d="M223.06 0.0175781H244.108L242.359 6.61823L231.737 6.66195V9.91856H243.386L242.337 15.8635L231.584 15.8417C231.365 18.989 231.555 21.0726 232.152 22.0926C232.764 23.098 233.777 23.608 235.19 23.6226H243.19L242.119 29.808C235.693 29.9537 231.963 29.757 230.928 29.2178C229.908 28.6641 228.837 27.7607 227.715 26.5076C226.608 25.24 225.909 23.3821 225.617 20.9342V15.8417L222.011 15.8635L222.907 9.87485L225.858 9.8967V6.48709L222.011 6.50895L223.06 0.0175781Z" fill="white"/>
<path d="M200.941 -0.00390625V2.85929L202.646 -0.00390625H217.071C218.849 0.491507 219.687 2.99772 219.585 7.51472V27.2074C219.235 28.8102 217.873 29.648 215.498 29.7209H198.821C196.344 29.8229 194.909 28.7446 194.515 26.4861V1.32934L200.941 -0.00390625ZM200.941 6.44375V23.2732H213.137V6.44375H200.941Z" fill="white"/>
<path d="M172.79 0.0615234H192.636L191.827 6.61847H184.767V20.8033C184.52 23.0035 185.263 24.3076 186.997 24.7156L185.401 30.8792C183.405 30.9374 181.715 30.289 180.331 28.9339C178.961 27.5788 178.254 25.7866 178.21 23.5572V7.92985L181.03 6.57475L172.134 6.5529L172.79 0.0615234Z" fill="white"/>
<path d="M118.75 60.4219C118.75 60.6823 118.604 60.9323 118.312 61.1719C118.021 61.4115 117.74 61.5312 117.469 61.5312C117.188 61.5312 116.906 61.2448 116.625 60.6719C116.448 60.2552 116.276 59.8385 116.109 59.4219C114.13 59.901 111.661 60.4115 108.703 60.9531C108.339 61.8281 108.01 62.2656 107.719 62.2656C107.417 62.2656 107.13 62.0938 106.859 61.75C106.599 61.3958 106.469 61.0625 106.469 60.75C106.469 60.5833 106.609 60.2812 106.891 59.8438C107.078 59.5312 107.276 59.224 107.484 58.9219C108.224 57.651 108.964 56.0677 109.703 54.1719C110.318 52.5469 110.927 50.9115 111.531 49.2656C111.74 48.7135 112.151 48.4375 112.766 48.4375C113.047 48.4375 113.271 48.5781 113.438 48.8594C113.573 49.1094 113.708 49.4531 113.844 49.8906C114.073 50.5573 114.193 50.9115 114.203 50.9531C115.307 53.9115 116.49 56.4583 117.75 58.5938C117.948 58.9062 118.141 59.2083 118.328 59.5C118.609 59.9688 118.75 60.276 118.75 60.4219ZM115.234 57.4062C114.672 56.0417 113.807 54 112.641 51.2812C112.193 52.3021 111.188 54.8177 109.625 58.8281C111.688 58.5052 113.557 58.0312 115.234 57.4062ZM130.953 48.8906C130.953 48.9844 130.906 49.2865 130.812 49.7969C130.396 51.9948 130.188 54.3542 130.188 56.875C130.188 57.8229 130.214 58.625 130.266 59.2812C130.276 59.3958 130.307 59.6094 130.359 59.9219C130.401 60.1823 130.422 60.3958 130.422 60.5625C130.422 61.2396 129.969 61.5781 129.062 61.5781C128.677 61.5781 128.495 61.4688 128.516 61.25L121.438 53.25C121.375 54.2604 121.344 55.224 121.344 56.1406C121.344 57.7969 121.417 59.1667 121.562 60.25C121.573 60.3125 121.615 60.5208 121.688 60.875C121.74 61.1354 121.766 61.349 121.766 61.5156C121.766 61.7656 121.609 61.974 121.297 62.1406C121.026 62.2969 120.76 62.375 120.5 62.375C120.167 62.375 119.958 62.25 119.875 62C119.823 61.875 119.75 60.2604 119.656 57.1562C119.562 54.2812 119.516 52.5625 119.516 52C119.516 51.0625 119.557 50.4896 119.641 50.2812C119.828 49.7917 120.312 49.5469 121.094 49.5469C121.365 49.5469 121.562 49.6198 121.688 49.7656L128.578 57.7812C128.589 57.4271 128.651 56.0104 128.766 53.5312C128.797 52.8229 128.823 52.1042 128.844 51.375C128.885 50.5312 128.953 49.8177 129.047 49.2344C129.13 48.599 129.583 48.2812 130.406 48.2812C130.771 48.2812 130.953 48.4844 130.953 48.8906ZM135.172 60.8906C135.172 61.1198 135.01 61.3125 134.688 61.4688C134.417 61.5938 134.151 61.6562 133.891 61.6562C133.432 61.6562 133.203 61.3125 133.203 60.625C133.203 60.5417 133.203 60.4115 133.203 60.2344C133.214 60.0781 133.219 59.9635 133.219 59.8906L133.203 59.6094C133.193 58.8177 133.146 57.25 133.062 54.9062C133 52.9583 132.969 51.3958 132.969 50.2188C132.969 49.3021 133.49 48.8438 134.531 48.8438C134.948 48.8438 135.156 48.9896 135.156 49.2812C135.156 49.5729 135.13 49.9375 135.078 50.375C134.995 51.0104 134.948 51.3698 134.938 51.4531C134.823 52.6927 134.766 53.9427 134.766 55.2031C134.766 56.8073 134.833 58.1823 134.969 59.3281C134.979 59.3906 135.021 59.651 135.094 60.1094C135.146 60.4219 135.172 60.6823 135.172 60.8906ZM151.578 60.3125C151.578 60.5729 151.438 60.8594 151.156 61.1719C150.885 61.474 150.62 61.625 150.359 61.625C150.234 61.625 150.13 61.5729 150.047 61.4688C149.911 61.3125 149.469 59.9375 148.719 57.3438C148.271 55.7604 147.818 54.1875 147.359 52.625C146.88 54.2917 146.401 55.9531 145.922 57.6094C145.151 60.3594 144.703 61.8073 144.578 61.9531C144.432 62.1406 144.292 62.2344 144.156 62.2344C143.896 62.2344 143.656 62.0312 143.438 61.625C143.24 61.2604 143.141 60.9115 143.141 60.5781C143.141 60.5156 143.146 60.4583 143.156 60.4062C142.917 59.6562 142.167 57.2344 140.906 53.1406C140.479 54.5469 139.682 57.0521 138.516 60.6562C138.443 60.9583 138.292 61.3906 138.062 61.9531C137.938 62.151 137.807 62.25 137.672 62.25C137.432 62.25 137.193 62.0417 136.953 61.625C136.714 61.25 136.594 60.9323 136.594 60.6719C136.594 60.526 136.688 60.25 136.875 59.8438C137 59.5625 137.125 59.2865 137.25 59.0156C137.812 57.724 138.339 56.1927 138.828 54.4219C139.245 52.8698 139.661 51.3177 140.078 49.7656C140.234 49.2031 140.521 48.9219 140.938 48.9219C141.167 48.9219 141.365 49.1875 141.531 49.7188C141.615 50.0729 141.698 50.4323 141.781 50.7969C142.24 52.6823 143.026 55.0625 144.141 57.9375C144.755 56.1979 145.354 54.151 145.938 51.7969C146.094 51.1198 146.333 50.1198 146.656 48.7969C146.812 48.2448 147.099 47.9688 147.516 47.9688C147.776 47.9688 148.005 48.3333 148.203 49.0625C148.307 49.5521 148.406 50.0365 148.5 50.5156C149.26 53.7448 150.047 56.3802 150.859 58.4219C151.339 59.6302 151.578 60.2604 151.578 60.3125ZM163.281 54.0938C163.281 54.375 162.927 54.5573 162.219 54.6406C158.76 55.0365 156.125 55.5365 154.312 56.1406C154.354 57.4635 154.474 58.7448 154.672 59.9844C155.651 59.9844 156.776 59.8594 158.047 59.6094C159.161 59.3698 160.276 59.125 161.391 58.875C161.578 58.8333 161.734 58.8125 161.859 58.8125C162.286 58.8125 162.5 58.9948 162.5 59.3594C162.5 59.599 162.417 59.849 162.25 60.1094C162.094 60.3594 161.911 60.5417 161.703 60.6562C160.828 61.1562 159.635 61.5469 158.125 61.8281C156.833 62.0469 155.562 62.1562 154.312 62.1562C153.677 62.1562 153.255 61.9844 153.047 61.6406C152.922 61.4219 152.818 59.7135 152.734 56.5156C152.297 56.3594 152.078 56.026 152.078 55.5156C152.078 55.0469 152.276 54.7344 152.672 54.5781H152.688C152.615 53.5156 152.578 52.3958 152.578 51.2188C152.578 50.7083 152.589 50.4375 152.609 50.4062C152.651 50.1042 152.776 49.875 152.984 49.7188C153.089 49.625 153.354 49.5156 153.781 49.3906C154.458 49.1823 155.13 48.9688 155.797 48.75C156.578 48.5417 157.276 48.4375 157.891 48.4375H158.547C159.12 48.4271 159.516 48.4479 159.734 48.5C160.12 48.5833 160.448 48.7812 160.719 49.0938C161 49.4062 161.141 49.6927 161.141 49.9531C161.141 50.3073 160.823 50.5104 160.188 50.5625C158.615 50.6979 157.62 50.8021 157.203 50.875C156.38 51.0312 155.427 51.3385 154.344 51.7969C154.292 52.5156 154.266 53.276 154.266 54.0781C156.745 53.349 158.979 52.9844 160.969 52.9844C161.354 52.9844 161.656 53.0052 161.875 53.0469C162.146 53.0781 162.438 53.1927 162.75 53.3906C163.104 53.6302 163.281 53.8646 163.281 54.0938ZM181.938 54.0938C181.938 54.375 181.583 54.5573 180.875 54.6406C177.417 55.0365 174.781 55.5365 172.969 56.1406C173.01 57.4635 173.13 58.7448 173.328 59.9844C174.307 59.9844 175.432 59.8594 176.703 59.6094C177.818 59.3698 178.932 59.125 180.047 58.875C180.234 58.8333 180.391 58.8125 180.516 58.8125C180.943 58.8125 181.156 58.9948 181.156 59.3594C181.156 59.599 181.073 59.849 180.906 60.1094C180.75 60.3594 180.568 60.5417 180.359 60.6562C179.484 61.1562 178.292 61.5469 176.781 61.8281C175.49 62.0469 174.219 62.1562 172.969 62.1562C172.333 62.1562 171.911 61.9844 171.703 61.6406C171.578 61.4219 171.474 59.7135 171.391 56.5156C170.953 56.3594 170.734 56.026 170.734 55.5156C170.734 55.0469 170.932 54.7344 171.328 54.5781H171.344C171.271 53.5156 171.234 52.3958 171.234 51.2188C171.234 50.7083 171.245 50.4375 171.266 50.4062C171.307 50.1042 171.432 49.875 171.641 49.7188C171.745 49.625 172.01 49.5156 172.438 49.3906C173.115 49.1823 173.786 48.9688 174.453 48.75C175.234 48.5417 175.932 48.4375 176.547 48.4375H177.203C177.776 48.4271 178.172 48.4479 178.391 48.5C178.776 48.5833 179.104 48.7812 179.375 49.0938C179.656 49.4062 179.797 49.6927 179.797 49.9531C179.797 50.3073 179.479 50.5104 178.844 50.5625C177.271 50.6979 176.276 50.8021 175.859 50.875C175.036 51.0312 174.083 51.3385 173 51.7969C172.948 52.5156 172.922 53.276 172.922 54.0781C175.401 53.349 177.635 52.9844 179.625 52.9844C180.01 52.9844 180.312 53.0052 180.531 53.0469C180.802 53.0781 181.094 53.1927 181.406 53.3906C181.76 53.6302 181.938 53.8646 181.938 54.0938ZM195.266 54.0469C195.266 56.0052 194.302 57.6823 192.375 59.0781C190.844 60.1927 188.974 60.9688 186.766 61.4062C186.38 61.4688 185.807 61.5781 185.047 61.7344C184.443 61.8802 184.141 61.9531 184.141 61.9531C183.964 61.9531 183.823 61.8542 183.719 61.6562C183.625 61.4583 183.526 58.8177 183.422 53.7344C183.224 53.4948 183.125 53.2083 183.125 52.875C183.125 52.5729 183.234 52.2708 183.453 51.9688C183.557 51.8333 183.786 51.5938 184.141 51.25C185.964 49.4896 187.885 48.6094 189.906 48.6094C191.396 48.6094 192.661 49.1458 193.703 50.2188C194.745 51.2812 195.266 52.5573 195.266 54.0469ZM193.172 54.5781C193.172 53.4635 192.766 52.526 191.953 51.7656C191.141 50.9948 190.177 50.6094 189.062 50.6094C187.677 50.6094 186.339 51.2188 185.047 52.4375C185.005 53.1667 184.984 53.8958 184.984 54.625C184.984 56.4271 185.12 58.1667 185.391 59.8438C187.339 59.6562 189 59.2135 190.375 58.5156C192.24 57.5573 193.172 56.2448 193.172 54.5781ZM199.125 60.8906C199.125 61.1198 198.964 61.3125 198.641 61.4688C198.37 61.5938 198.104 61.6562 197.844 61.6562C197.385 61.6562 197.156 61.3125 197.156 60.625C197.156 60.5417 197.156 60.4115 197.156 60.2344C197.167 60.0781 197.172 59.9635 197.172 59.8906L197.156 59.6094C197.146 58.8177 197.099 57.25 197.016 54.9062C196.953 52.9583 196.922 51.3958 196.922 50.2188C196.922 49.3021 197.443 48.8438 198.484 48.8438C198.901 48.8438 199.109 48.9896 199.109 49.2812C199.109 49.5729 199.083 49.9375 199.031 50.375C198.948 51.0104 198.901 51.3698 198.891 51.4531C198.776 52.6927 198.719 53.9427 198.719 55.2031C198.719 56.8073 198.786 58.1823 198.922 59.3281C198.932 59.3906 198.974 59.651 199.047 60.1094C199.099 60.4219 199.125 60.6823 199.125 60.8906ZM210.281 50C210.281 50.125 210.25 50.224 210.188 50.2969C210.052 50.474 209.693 50.5781 209.109 50.6094C207.984 50.6615 206.922 50.7292 205.922 50.8125C205.839 52.0833 205.797 53.2865 205.797 54.4219C205.797 56.3802 205.927 58.151 206.188 59.7344C206.333 60.6302 206.406 61.1094 206.406 61.1719C206.406 61.3802 206.24 61.5677 205.906 61.7344C205.625 61.8698 205.359 61.9375 205.109 61.9375C204.828 61.9375 204.635 61.8281 204.531 61.6094C204.375 61.224 204.26 57.7448 204.188 51.1719C203.708 51.349 203.224 51.526 202.734 51.7031C202.026 51.9531 201.568 52.0781 201.359 52.0781C201.057 52.0781 200.807 51.9271 200.609 51.625C200.443 51.3646 200.359 51.0729 200.359 50.75C200.359 50.1979 200.589 49.8073 201.047 49.5781C202.62 48.8385 204.646 48.4688 207.125 48.4688C207.885 48.4688 208.464 48.5208 208.859 48.625C209.505 48.8021 209.948 49.1406 210.188 49.6406C210.25 49.776 210.281 49.8958 210.281 50ZM213.703 60.8906C213.703 61.1198 213.542 61.3125 213.219 61.4688C212.948 61.5938 212.682 61.6562 212.422 61.6562C211.964 61.6562 211.734 61.3125 211.734 60.625C211.734 60.5417 211.734 60.4115 211.734 60.2344C211.745 60.0781 211.75 59.9635 211.75 59.8906L211.734 59.6094C211.724 58.8177 211.677 57.25 211.594 54.9062C211.531 52.9583 211.5 51.3958 211.5 50.2188C211.5 49.3021 212.021 48.8438 213.062 48.8438C213.479 48.8438 213.688 48.9896 213.688 49.2812C213.688 49.5729 213.661 49.9375 213.609 50.375C213.526 51.0104 213.479 51.3698 213.469 51.4531C213.354 52.6927 213.297 53.9427 213.297 55.2031C213.297 56.8073 213.365 58.1823 213.5 59.3281C213.51 59.3906 213.552 59.651 213.625 60.1094C213.677 60.4219 213.703 60.6823 213.703 60.8906ZM230.062 54.5312C230.062 56.5938 229.245 58.3906 227.609 59.9219C225.995 61.401 224.151 62.1406 222.078 62.1406C220.266 62.1406 218.729 61.5312 217.469 60.3125C216.208 59.0938 215.578 57.5833 215.578 55.7812C215.578 53.7083 216.396 51.9167 218.031 50.4062C219.625 48.9062 221.464 48.1562 223.547 48.1562C225.359 48.1562 226.896 48.7708 228.156 50C229.427 51.2188 230.062 52.7292 230.062 54.5312ZM227.703 55.2656C227.703 53.8281 227.234 52.5729 226.297 51.5C225.318 50.3958 224.12 49.8438 222.703 49.8438C221.318 49.8438 220.135 50.4062 219.156 51.5312C218.24 52.6146 217.781 53.8594 217.781 55.2656C217.781 56.6927 218.26 57.9427 219.219 59.0156C220.188 60.1094 221.38 60.6562 222.797 60.6562C224.182 60.6562 225.354 60.0938 226.312 58.9688C227.24 57.9062 227.703 56.6719 227.703 55.2656ZM242.969 48.8906C242.969 48.9844 242.922 49.2865 242.828 49.7969C242.411 51.9948 242.203 54.3542 242.203 56.875C242.203 57.8229 242.229 58.625 242.281 59.2812C242.292 59.3958 242.323 59.6094 242.375 59.9219C242.417 60.1823 242.438 60.3958 242.438 60.5625C242.438 61.2396 241.984 61.5781 241.078 61.5781C240.693 61.5781 240.51 61.4688 240.531 61.25L233.453 53.25C233.391 54.2604 233.359 55.224 233.359 56.1406C233.359 57.7969 233.432 59.1667 233.578 60.25C233.589 60.3125 233.63 60.5208 233.703 60.875C233.755 61.1354 233.781 61.349 233.781 61.5156C233.781 61.7656 233.625 61.974 233.312 62.1406C233.042 62.2969 232.776 62.375 232.516 62.375C232.182 62.375 231.974 62.25 231.891 62C231.839 61.875 231.766 60.2604 231.672 57.1562C231.578 54.2812 231.531 52.5625 231.531 52C231.531 51.0625 231.573 50.4896 231.656 50.2812C231.844 49.7917 232.328 49.5469 233.109 49.5469C233.38 49.5469 233.578 49.6198 233.703 49.7656L240.594 57.7812C240.604 57.4271 240.667 56.0104 240.781 53.5312C240.812 52.8229 240.839 52.1042 240.859 51.375C240.901 50.5312 240.969 49.8177 241.062 49.2344C241.146 48.599 241.599 48.2812 242.422 48.2812C242.786 48.2812 242.969 48.4844 242.969 48.8906Z" fill="white"/>
</svg>
